<svg xmlns="http://www.w3.org/2000/svg" width="175" height="160" aria-hidden="true" style="pointer-events:none;position:absolute;left:0;top:0;transform-origin:left top;z-index:20"><rect width="165" height="150" rx="0" ry="0" style="fill:#333"/><path d="m0 .299-.707.408L-1.115 0l.408-.707L0-.3z" style="fill:#000" transform="matrix(30 0 0 30 52.51 38.313)"/><path d="m0 .299-.707.408m0 0L-1.115 0m0 0 .408-.707m0 0L0-.3m0 .6v-.6" style="fill:none;stroke:rgba(255,255,255,.2);stroke-width:.01" transform="matrix(30 0 0 30 52.51 38.313)"/><circle r=".06" style="fill:#222;stroke:rgba(255,255,255,.2);stroke-width:.02" transform="matrix(30 0 0 30 52.51 47.279)"/><circle r=".06" style="fill:#222;stroke:rgba(255,255,255,.2);stroke-width:.02" transform="matrix(30 0 0 30 31.297 59.526)"/><circle r=".06" style="fill:#222;stroke:rgba(255,255,255,.2);stroke-width:.02" transform="matrix(30 0 0 30 19.05 38.313)"/><circle r=".06" style="fill:#222;stroke:rgba(255,255,255,.2);stroke-width:.02" transform="matrix(30 0 0 30 31.297 17.1)"/><circle r=".06" style="fill:#222;stroke:rgba(255,255,255,.2);stroke-width:.02" transform="matrix(30 0 0 30 52.51 29.347)"/><path d="m0 .299-.707.408.53-.013zm-.707.408L-1.115 0l-.048.441zM-1.115 0l.408-.707-.456.266zm.408-.707L0-.3l-.177-.395zM0 .299V-.3l.264.3z" style="fill:none;stroke:#666;stroke-width:.05;stroke-dasharray:.05,.05;stroke-dashoffset:0" transform="matrix(30 0 0 30 52.51 38.313)"/><circle r=".12" style="fill:none;stroke:red;stroke-width:.03" transform="matrix(30 0 0 30 52.51 47.279)"/><circle r=".12" style="fill:none;stroke:red;stroke-width:.03" transform="matrix(30 0 0 30 31.297 59.526)"/><circle r=".12" style="fill:none;stroke:red;stroke-width:.03" transform="matrix(30 0 0 30 19.05 38.313)"/><path d="M0 .5h13v3L20 0l-7-3.5v3H0z" style="fill:#ccc;stroke:#ccc" transform="translate(71.946 39.288)"/><path d="m0 .299-.707.408L-1.115 0l.408-.707L0-.3z" style="fill:#000" transform="matrix(30 0 0 30 140.575 38.313)"/><path d="m0 .299-.707.408m0 0L-1.115 0m0 0 .408-.707m0 0L0-.3m0 .6v-.6" style="fill:none;stroke:rgba(255,255,255,.2);stroke-width:.01" transform="matrix(30 0 0 30 140.575 38.313)"/><circle r=".06" style="fill:#222;stroke:rgba(255,255,255,.2);stroke-width:.02" transform="matrix(30 0 0 30 140.575 47.279)"/><circle r=".06" style="fill:#222;stroke:rgba(255,255,255,.2);stroke-width:.02" transform="matrix(30 0 0 30 119.361 59.526)"/><circle r=".06" style="fill:#222;stroke:rgba(255,255,255,.2);stroke-width:.02" transform="matrix(30 0 0 30 107.114 38.313)"/><circle r=".06" style="fill:#222;stroke:rgba(255,255,255,.2);stroke-width:.02" transform="matrix(30 0 0 30 119.361 17.1)"/><circle r=".06" style="fill:#222;stroke:rgba(255,255,255,.2);stroke-width:.02" transform="matrix(30 0 0 30 140.575 29.347)"/><path d="m0 .299-.707.408.53-.013zm-.707.408L-1.115 0l-.048.441zM-1.115 0l.408-.707-.456.266zm.408-.707L0-.3l-.177-.395zM0 .299V-.3l.264.3z" style="fill:none;stroke:#666;stroke-width:.05;stroke-dasharray:.05,.05;stroke-dashoffset:0" transform="matrix(30 0 0 30 140.575 38.313)"/><circle r=".12" style="fill:none;stroke:red;stroke-width:.03" transform="matrix(30 0 0 30 140.575 47.279)"/><circle r=".12" style="fill:none;stroke:red;stroke-width:.03" transform="matrix(30 0 0 30 119.361 59.526)"/><circle r=".12" style="fill:none;stroke:red;stroke-width:.03" transform="matrix(30 0 0 30 107.114 38.313)"/><path d="m0 .299-.707.408m0 0L-1.115 0m0 0 .408-.707m0 0L0-.3m0 .6v-.6" style="fill:none;stroke:red;stroke-width:.05;stroke-linecap:round" transform="matrix(30 0 0 30 140.575 38.313)"/><path d="m0 .299-.707.408L-1.115 0l.408-.707L0-.3z" style="fill:#000" transform="matrix(30 0 0 30 52.51 108.84)"/><path d="m0 .299-.707.408m0 0L-1.115 0m0 0 .408-.707m0 0L0-.3m0 .6v-.6" style="fill:none;stroke:rgba(255,255,255,.2);stroke-width:.01" transform="matrix(30 0 0 30 52.51 108.84)"/><circle r=".06" style="fill:#222;stroke:rgba(255,255,255,.2);stroke-width:.02" transform="matrix(30 0 0 30 52.51 117.805)"/><circle r=".06" style="fill:#222;stroke:rgba(255,255,255,.2);stroke-width:.02" transform="matrix(30 0 0 30 31.297 130.053)"/><circle r=".06" style="fill:#222;stroke:rgba(255,255,255,.2);stroke-width:.02" transform="matrix(30 0 0 30 19.05 108.84)"/><circle r=".06" style="fill:#222;stroke:rgba(255,255,255,.2);stroke-width:.02" transform="matrix(30 0 0 30 31.297 87.626)"/><circle r=".06" style="fill:#222;stroke:rgba(255,255,255,.2);stroke-width:.02" transform="matrix(30 0 0 30 52.51 99.874)"/><path d="m0 .299-.707.408.53-.013zm-.707.408L-1.115 0l-.048.441zM-1.115 0l.408-.707-.456.266zm.408-.707L0-.3l-.177-.395zM0 .299V-.3l.264.3z" style="fill:none;stroke:#666;stroke-width:.05;stroke-dasharray:.05,.05;stroke-dashoffset:0" transform="matrix(30 0 0 30 52.51 108.84)"/><circle r=".12" style="fill:none;stroke:red;stroke-width:.03" transform="matrix(30 0 0 30 52.51 117.805)"/><circle r=".12" style="fill:none;stroke:red;stroke-width:.03" transform="matrix(30 0 0 30 31.297 130.053)"/><circle r=".12" style="fill:none;stroke:red;stroke-width:.03" transform="matrix(30 0 0 30 31.297 87.626)"/><path d="M0 .5h13v3L20 0l-7-3.5v3H0z" style="fill:#ccc;stroke:#ccc" transform="translate(71.946 108.84)"/><path d="m0 .299-.707.408L-1.115 0l.408-.707L0-.3z" style="fill:#000" transform="matrix(30 0 0 30 138.743 108.84)"/><path d="m0 .299-.707.408m0 0L-1.115 0m0 0 .408-.707m0 0L0-.3m0 .6v-.6" style="fill:none;stroke:rgba(255,255,255,.2);stroke-width:.01" transform="matrix(30 0 0 30 138.743 108.84)"/><circle r=".06" style="fill:#222;stroke:rgba(255,255,255,.2);stroke-width:.02" transform="matrix(30 0 0 30 138.743 117.805)"/><circle r=".06" style="fill:#222;stroke:rgba(255,255,255,.2);stroke-width:.02" transform="matrix(30 0 0 30 117.53 130.053)"/><circle r=".06" style="fill:#222;stroke:rgba(255,255,255,.2);stroke-width:.02" transform="matrix(30 0 0 30 105.283 108.84)"/><circle r=".06" style="fill:#222;stroke:rgba(255,255,255,.2);stroke-width:.02" transform="matrix(30 0 0 30 117.53 87.626)"/><circle r=".06" style="fill:#222;stroke:rgba(255,255,255,.2);stroke-width:.02" transform="matrix(30 0 0 30 138.743 99.874)"/><path d="m0 .299-.707.408.53-.013zm-.707.408L-1.115 0l-.048.441zM-1.115 0l.408-.707-.456.266zm.408-.707L0-.3l-.177-.395zM0 .299V-.3l.264.3z" style="fill:none;stroke:#666;stroke-width:.05;stroke-dasharray:.05,.05;stroke-dashoffset:0" transform="matrix(30 0 0 30 138.743 108.84)"/><circle r=".12" style="fill:none;stroke:red;stroke-width:.03" transform="matrix(30 0 0 30 138.743 117.805)"/><circle r=".12" style="fill:none;stroke:red;stroke-width:.03" transform="matrix(30 0 0 30 117.53 130.053)"/><circle r=".12" style="fill:none;stroke:red;stroke-width:.03" transform="matrix(30 0 0 30 117.53 87.626)"/><path d="m0 .299-.707.408m0 0L-1.115 0m0 0 .408-.707m0 0L0-.3m0 .6v-.6" style="fill:none;stroke:red;stroke-width:.05;stroke-linecap:round" transform="matrix(30 0 0 30 138.743 108.84)"/></svg>