<svg xmlns="http://www.w3.org/2000/svg" width="195" height="92" aria-hidden="true" style="pointer-events:none;position:absolute;left:0;top:0;transform-origin:left top;z-index:20"><rect width="185" height="82" rx="0" ry="0" style="fill:#333"/><path d="m0 0 .76 1.316H-.76z" style="fill:#000" transform="matrix(30 0 0 30 43.097 19.217)"/><path d="m0 0 .76 1.316m0 0H-.76M0 0l-.76 1.316" style="fill:none;stroke:rgba(255,255,255,.2);stroke-width:.01" transform="matrix(30 0 0 30 43.097 19.217)"/><circle r=".06" style="fill:#222;stroke:rgba(255,255,255,.2);stroke-width:.02" transform="matrix(30 0 0 30 43.097 19.217)"/><circle r=".06" style="fill:#222;stroke:rgba(255,255,255,.2);stroke-width:.02" transform="matrix(30 0 0 30 65.892 58.7)"/><circle r=".06" style="fill:#222;stroke:rgba(255,255,255,.2);stroke-width:.02" transform="matrix(30 0 0 30 20.302 58.7)"/><path d="m0 0 .76 1.316L.57.548zm.76 1.316H-.76l.76.22zM0 0l-.76 1.316.19-.768z" style="fill:none;stroke:#666;stroke-width:.05;stroke-dasharray:.05,.05;stroke-dashoffset:0" transform="matrix(30 0 0 30 43.097 19.217)"/><circle r=".12" style="fill:none;stroke:red;stroke-width:.03" transform="matrix(30 0 0 30 43.097 19.217)"/><path d="M0 .5h13v3L20 0l-7-3.5v3H0z" style="fill:#ccc;stroke:#ccc" transform="translate(81.695 40.53)"/><path d="m0 0 .76 1.316H-.76z" style="fill:#000" transform="matrix(30 0 0 30 140.91 19.217)"/><path d="m0 0 .76 1.316m0 0H-.76M0 0l-.76 1.316" style="fill:none;stroke:rgba(255,255,255,.2);stroke-width:.01" transform="matrix(30 0 0 30 140.91 19.217)"/><circle r=".06" style="fill:#222;stroke:rgba(255,255,255,.2);stroke-width:.02" transform="matrix(30 0 0 30 140.91 19.217)"/><circle r=".06" style="fill:#222;stroke:rgba(255,255,255,.2);stroke-width:.02" transform="matrix(30 0 0 30 163.705 58.7)"/><circle r=".06" style="fill:#222;stroke:rgba(255,255,255,.2);stroke-width:.02" transform="matrix(30 0 0 30 118.115 58.7)"/><path d="m0 0 .76 1.316L.57.548zm.76 1.316H-.76l.76.22zM0 0l-.76 1.316.19-.768z" style="fill:none;stroke:#666;stroke-width:.05;stroke-dasharray:.05,.05;stroke-dashoffset:0" transform="matrix(30 0 0 30 140.91 19.217)"/><circle r=".12" style="fill:none;stroke:red;stroke-width:.03" transform="matrix(30 0 0 30 140.91 19.217)"/><path d="m0 0 .76 1.316m0 0H-.76M0 0l-.76 1.316" style="fill:none;stroke:red;stroke-width:.05;stroke-linecap:round" transform="matrix(30 0 0 30 140.91 19.217)"/></svg>