<svg xmlns="http://www.w3.org/2000/svg" width="183" height="216" aria-hidden="true" style="pointer-events:none;position:absolute;left:0;top:0;transform-origin:left top;z-index:20"><rect width="173" height="206" rx="0" ry="0" style="fill:#333"/><path d="M.537.31 0 .62-.537.31v-.62L0-.62l.537.31z" style="fill:#000" transform="matrix(30 0 0 30 40.17 36.798)"/><path d="M.537.31 0 .62m0 0L-.537.31m0 0v-.62m0 0L0-.62m0 0 .537.31m0 .62v-.62" style="fill:none;stroke:rgba(255,255,255,.2);stroke-width:.01" transform="matrix(30 0 0 30 40.17 36.798)"/><circle r=".06" style="fill:#222;stroke:rgba(255,255,255,.2);stroke-width:.02" transform="matrix(30 0 0 30 56.289 46.104)"/><circle r=".06" style="fill:#222;stroke:rgba(255,255,255,.2);stroke-width:.02" transform="matrix(30 0 0 30 40.17 55.41)"/><circle r=".06" style="fill:#222;stroke:rgba(255,255,255,.2);stroke-width:.02" transform="matrix(30 0 0 30 24.051 46.104)"/><circle r=".06" style="fill:#222;stroke:rgba(255,255,255,.2);stroke-width:.02" transform="matrix(30 0 0 30 24.051 27.492)"/><circle r=".06" style="fill:#222;stroke:rgba(255,255,255,.2);stroke-width:.02" transform="matrix(30 0 0 30 40.17 18.186)"/><circle r=".06" style="fill:#222;stroke:rgba(255,255,255,.2);stroke-width:.02" transform="matrix(30 0 0 30 56.289 27.492)"/><path d="M.537.31 0 .62l.403.078zM0 .62-.537.31l.134.388zM-.537.31v-.62L-.806 0zm0-.62L0-.62l-.403-.078zM0-.62l.537.31-.134-.388zm.537.93v-.62L.806 0z" style="fill:none;stroke:#666;stroke-width:.05;stroke-dasharray:.05,.05;stroke-dashoffset:0" transform="matrix(30 0 0 30 40.17 36.798)"/><circle r=".12" style="fill:none;stroke:red;stroke-width:.03" transform="matrix(30 0 0 30 56.289 46.104)"/><circle r=".12" style="fill:none;stroke:red;stroke-width:.03" transform="matrix(30 0 0 30 40.17 55.41)"/><circle r=".12" style="fill:none;stroke:red;stroke-width:.03" transform="matrix(30 0 0 30 24.051 46.104)"/><circle r=".12" style="fill:none;stroke:red;stroke-width:.03" transform="matrix(30 0 0 30 24.051 27.492)"/><path d="M0 .5h13v3L20 0l-7-3.5v3H0z" style="fill:#ccc;stroke:#ccc" transform="translate(75.84 37.23)"/><path d="M.537.31 0 .62-.537.31v-.62L0-.62l.537.31z" style="fill:#000" transform="matrix(30 0 0 30 132.128 36.798)"/><path d="M.537.31 0 .62m0 0L-.537.31m0 0v-.62m0 0L0-.62m0 0 .537.31m0 .62v-.62" style="fill:none;stroke:rgba(255,255,255,.2);stroke-width:.01" transform="matrix(30 0 0 30 132.128 36.798)"/><circle r=".06" style="fill:#222;stroke:rgba(255,255,255,.2);stroke-width:.02" transform="matrix(30 0 0 30 148.247 46.104)"/><circle r=".06" style="fill:#222;stroke:rgba(255,255,255,.2);stroke-width:.02" transform="matrix(30 0 0 30 132.128 55.41)"/><circle r=".06" style="fill:#222;stroke:rgba(255,255,255,.2);stroke-width:.02" transform="matrix(30 0 0 30 116.01 46.104)"/><circle r=".06" style="fill:#222;stroke:rgba(255,255,255,.2);stroke-width:.02" transform="matrix(30 0 0 30 116.01 27.492)"/><circle r=".06" style="fill:#222;stroke:rgba(255,255,255,.2);stroke-width:.02" transform="matrix(30 0 0 30 132.128 18.186)"/><circle r=".06" style="fill:#222;stroke:rgba(255,255,255,.2);stroke-width:.02" transform="matrix(30 0 0 30 148.247 27.492)"/><path d="M.537.31 0 .62l.403.078zM0 .62-.537.31l.134.388zM-.537.31v-.62L-.806 0zm0-.62L0-.62l-.403-.078zM0-.62l.537.31-.134-.388zm.537.93v-.62L.806 0z" style="fill:none;stroke:#666;stroke-width:.05;stroke-dasharray:.05,.05;stroke-dashoffset:0" transform="matrix(30 0 0 30 132.128 36.798)"/><circle r=".12" style="fill:none;stroke:red;stroke-width:.03" transform="matrix(30 0 0 30 148.247 46.104)"/><circle r=".12" style="fill:none;stroke:red;stroke-width:.03" transform="matrix(30 0 0 30 132.128 55.41)"/><circle r=".12" style="fill:none;stroke:red;stroke-width:.03" transform="matrix(30 0 0 30 116.01 46.104)"/><circle r=".12" style="fill:none;stroke:red;stroke-width:.03" transform="matrix(30 0 0 30 116.01 27.492)"/><path d="M.537.31 0 .62m0 0L-.537.31m0 0v-.62m0 0L0-.62m0 0 .537.31m0 .62v-.62" style="fill:none;stroke:red;stroke-width:.05;stroke-linecap:round" transform="matrix(30 0 0 30 132.128 36.798)"/><path d="M.537.31 0 .62-.537.31v-.62L0-.62l.537.31z" style="fill:#000" transform="matrix(30 0 0 30 40.17 102.122)"/><path d="M.537.31 0 .62m0 0L-.537.31m0 0v-.62m0 0L0-.62m0 0 .537.31m0 .62v-.62" style="fill:none;stroke:rgba(255,255,255,.2);stroke-width:.01" transform="matrix(30 0 0 30 40.17 102.122)"/><circle r=".06" style="fill:#222;stroke:rgba(255,255,255,.2);stroke-width:.02" transform="matrix(30 0 0 30 56.289 111.428)"/><circle r=".06" style="fill:#222;stroke:rgba(255,255,255,.2);stroke-width:.02" transform="matrix(30 0 0 30 40.17 120.734)"/><circle r=".06" style="fill:#222;stroke:rgba(255,255,255,.2);stroke-width:.02" transform="matrix(30 0 0 30 24.051 111.428)"/><circle r=".06" style="fill:#222;stroke:rgba(255,255,255,.2);stroke-width:.02" transform="matrix(30 0 0 30 24.051 92.816)"/><circle r=".06" style="fill:#222;stroke:rgba(255,255,255,.2);stroke-width:.02" transform="matrix(30 0 0 30 40.17 83.51)"/><circle r=".06" style="fill:#222;stroke:rgba(255,255,255,.2);stroke-width:.02" transform="matrix(30 0 0 30 56.289 92.816)"/><path d="M.537.31 0 .62l.403.078zM0 .62-.537.31l.134.388zM-.537.31v-.62L-.806 0zm0-.62L0-.62l-.403-.078zM0-.62l.537.31-.134-.388zm.537.93v-.62L.806 0z" style="fill:none;stroke:#666;stroke-width:.05;stroke-dasharray:.05,.05;stroke-dashoffset:0" transform="matrix(30 0 0 30 40.17 102.122)"/><circle r=".12" style="fill:none;stroke:red;stroke-width:.03" transform="matrix(30 0 0 30 56.289 111.428)"/><circle r=".12" style="fill:none;stroke:red;stroke-width:.03" transform="matrix(30 0 0 30 40.17 120.734)"/><circle r=".12" style="fill:none;stroke:red;stroke-width:.03" transform="matrix(30 0 0 30 24.051 111.428)"/><circle r=".12" style="fill:none;stroke:red;stroke-width:.03" transform="matrix(30 0 0 30 40.17 83.51)"/><path d="M0 .5h13v3L20 0l-7-3.5v3H0z" style="fill:#ccc;stroke:#ccc" transform="translate(75.84 102.122)"/><path d="M.537.31 0 .62-.537.31v-.62L0-.62l.537.31z" style="fill:#000" transform="matrix(30 0 0 30 132.128 102.122)"/><path d="M.537.31 0 .62m0 0L-.537.31m0 0v-.62m0 0L0-.62m0 0 .537.31m0 .62v-.62" style="fill:none;stroke:rgba(255,255,255,.2);stroke-width:.01" transform="matrix(30 0 0 30 132.128 102.122)"/><circle r=".06" style="fill:#222;stroke:rgba(255,255,255,.2);stroke-width:.02" transform="matrix(30 0 0 30 148.247 111.428)"/><circle r=".06" style="fill:#222;stroke:rgba(255,255,255,.2);stroke-width:.02" transform="matrix(30 0 0 30 132.128 120.734)"/><circle r=".06" style="fill:#222;stroke:rgba(255,255,255,.2);stroke-width:.02" transform="matrix(30 0 0 30 116.01 111.428)"/><circle r=".06" style="fill:#222;stroke:rgba(255,255,255,.2);stroke-width:.02" transform="matrix(30 0 0 30 116.01 92.816)"/><circle r=".06" style="fill:#222;stroke:rgba(255,255,255,.2);stroke-width:.02" transform="matrix(30 0 0 30 132.128 83.51)"/><circle r=".06" style="fill:#222;stroke:rgba(255,255,255,.2);stroke-width:.02" transform="matrix(30 0 0 30 148.247 92.816)"/><path d="M.537.31 0 .62l.403.078zM0 .62-.537.31l.134.388zM-.537.31v-.62L-.806 0zm0-.62L0-.62l-.403-.078zM0-.62l.537.31-.134-.388zm.537.93v-.62L.806 0z" style="fill:none;stroke:#666;stroke-width:.05;stroke-dasharray:.05,.05;stroke-dashoffset:0" transform="matrix(30 0 0 30 132.128 102.122)"/><circle r=".12" style="fill:none;stroke:red;stroke-width:.03" transform="matrix(30 0 0 30 148.247 111.428)"/><circle r=".12" style="fill:none;stroke:red;stroke-width:.03" transform="matrix(30 0 0 30 132.128 120.734)"/><circle r=".12" style="fill:none;stroke:red;stroke-width:.03" transform="matrix(30 0 0 30 116.01 111.428)"/><circle r=".12" style="fill:none;stroke:red;stroke-width:.03" transform="matrix(30 0 0 30 132.128 83.51)"/><path d="M.537.31 0 .62m0 0L-.537.31m0 0v-.62m0 0L0-.62m0 0 .537.31m0 .62v-.62" style="fill:none;stroke:red;stroke-width:.05;stroke-linecap:round" transform="matrix(30 0 0 30 132.128 102.122)"/><path d="M.537.31 0 .62-.537.31v-.62L0-.62l.537.31z" style="fill:#000" transform="matrix(30 0 0 30 40.17 167.446)"/><path d="M.537.31 0 .62m0 0L-.537.31m0 0v-.62m0 0L0-.62m0 0 .537.31m0 .62v-.62" style="fill:none;stroke:rgba(255,255,255,.2);stroke-width:.01" transform="matrix(30 0 0 30 40.17 167.446)"/><circle r=".06" style="fill:#222;stroke:rgba(255,255,255,.2);stroke-width:.02" transform="matrix(30 0 0 30 56.289 176.752)"/><circle r=".06" style="fill:#222;stroke:rgba(255,255,255,.2);stroke-width:.02" transform="matrix(30 0 0 30 40.17 186.058)"/><circle r=".06" style="fill:#222;stroke:rgba(255,255,255,.2);stroke-width:.02" transform="matrix(30 0 0 30 24.051 176.752)"/><circle r=".06" style="fill:#222;stroke:rgba(255,255,255,.2);stroke-width:.02" transform="matrix(30 0 0 30 24.051 158.14)"/><circle r=".06" style="fill:#222;stroke:rgba(255,255,255,.2);stroke-width:.02" transform="matrix(30 0 0 30 40.17 148.834)"/><circle r=".06" style="fill:#222;stroke:rgba(255,255,255,.2);stroke-width:.02" transform="matrix(30 0 0 30 56.289 158.14)"/><path d="M.537.31 0 .62l.403.078zM0 .62-.537.31l.134.388zM-.537.31v-.62L-.806 0zm0-.62L0-.62l-.403-.078zM0-.62l.537.31-.134-.388zm.537.93v-.62L.806 0z" style="fill:none;stroke:#666;stroke-width:.05;stroke-dasharray:.05,.05;stroke-dashoffset:0" transform="matrix(30 0 0 30 40.17 167.446)"/><circle r=".12" style="fill:none;stroke:red;stroke-width:.03" transform="matrix(30 0 0 30 56.289 176.752)"/><circle r=".12" style="fill:none;stroke:red;stroke-width:.03" transform="matrix(30 0 0 30 40.17 186.058)"/><circle r=".12" style="fill:none;stroke:red;stroke-width:.03" transform="matrix(30 0 0 30 24.051 158.14)"/><circle r=".12" style="fill:none;stroke:red;stroke-width:.03" transform="matrix(30 0 0 30 40.17 148.834)"/><path d="M0 .5h13v3L20 0l-7-3.5v3H0z" style="fill:#ccc;stroke:#ccc" transform="translate(75.84 167.446)"/><path d="M.537.31 0 .62-.537.31v-.62L0-.62l.537.31z" style="fill:#000" transform="matrix(30 0 0 30 132.128 167.446)"/><path d="M.537.31 0 .62m0 0L-.537.31m0 0v-.62m0 0L0-.62m0 0 .537.31m0 .62v-.62" style="fill:none;stroke:rgba(255,255,255,.2);stroke-width:.01" transform="matrix(30 0 0 30 132.128 167.446)"/><circle r=".06" style="fill:#222;stroke:rgba(255,255,255,.2);stroke-width:.02" transform="matrix(30 0 0 30 148.247 176.752)"/><circle r=".06" style="fill:#222;stroke:rgba(255,255,255,.2);stroke-width:.02" transform="matrix(30 0 0 30 132.128 186.058)"/><circle r=".06" style="fill:#222;stroke:rgba(255,255,255,.2);stroke-width:.02" transform="matrix(30 0 0 30 116.01 176.752)"/><circle r=".06" style="fill:#222;stroke:rgba(255,255,255,.2);stroke-width:.02" transform="matrix(30 0 0 30 116.01 158.14)"/><circle r=".06" style="fill:#222;stroke:rgba(255,255,255,.2);stroke-width:.02" transform="matrix(30 0 0 30 132.128 148.834)"/><circle r=".06" style="fill:#222;stroke:rgba(255,255,255,.2);stroke-width:.02" transform="matrix(30 0 0 30 148.247 158.14)"/><path d="M.537.31 0 .62l.403.078zM0 .62-.537.31l.134.388zM-.537.31v-.62L-.806 0zm0-.62L0-.62l-.403-.078zM0-.62l.537.31-.134-.388zm.537.93v-.62L.806 0z" style="fill:none;stroke:#666;stroke-width:.05;stroke-dasharray:.05,.05;stroke-dashoffset:0" transform="matrix(30 0 0 30 132.128 167.446)"/><circle r=".12" style="fill:none;stroke:red;stroke-width:.03" transform="matrix(30 0 0 30 148.247 176.752)"/><circle r=".12" style="fill:none;stroke:red;stroke-width:.03" transform="matrix(30 0 0 30 132.128 186.058)"/><circle r=".12" style="fill:none;stroke:red;stroke-width:.03" transform="matrix(30 0 0 30 116.01 158.14)"/><circle r=".12" style="fill:none;stroke:red;stroke-width:.03" transform="matrix(30 0 0 30 132.128 148.834)"/><path d="M.537.31 0 .62m0 0L-.537.31m0 0v-.62m0 0L0-.62m0 0 .537.31m0 .62v-.62" style="fill:none;stroke:red;stroke-width:.05;stroke-linecap:round" transform="matrix(30 0 0 30 132.128 167.446)"/></svg>