<svg xmlns="http://www.w3.org/2000/svg" width="202" height="660" aria-hidden="true" style="pointer-events:none;position:absolute;left:0;top:0;transform-origin:left top;z-index:20"><rect width="192" height="650" rx="0" ry="0" style="fill:#333"/><path d="M0 1V0h1zm-1-1h1v1zm1-1v1h-1z" style="fill:#000" transform="matrix(30 0 0 30 45 45)"/><path d="M0 1V0h1zm0-2v1l.25-.5z" style="fill:#214068" transform="matrix(30 0 0 30 45 45)"/><path d="M1 0H0l.5-.25z" style="fill:#09294c" transform="matrix(30 0 0 30 45 45)"/><path d="M0 0h1M0 0v1m0-1h-1m1 0v-1" style="fill:none;stroke:rgba(255,255,255,.2);stroke-width:.01" transform="matrix(30 0 0 30 45 45)"/><circle r=".06" style="fill:#222;stroke:rgba(255,255,255,.2);stroke-width:.02" transform="matrix(30 0 0 30 45 45)"/><path d="M0 .5h13v3L20 0l-7-3.5v3H0z" style="fill:#ccc;stroke:#ccc" transform="translate(85.5 45)"/><path d="M0 1V0h1zm-1-1h1v1zm1-1v1h-1z" style="fill:#000" transform="matrix(30 0 0 30 146.618 45)"/><path d="M1 0H0l.5-.25z" style="fill:#214068" transform="matrix(30 0 0 30 146.618 45)"/><path d="M0-1v1l.25-.5zm0 0v1h-1zm-1 1h1v1zm1 1V0h1z" style="fill:#09294c" transform="matrix(30 0 0 30 146.618 45)"/><path d="M0 0h1M0 0v1m0-1h-1m1 0v-1" style="fill:none;stroke:rgba(255,255,255,.2);stroke-width:.01" transform="matrix(30 0 0 30 146.618 45)"/><circle r=".06" style="fill:#222;stroke:rgba(255,255,255,.2);stroke-width:.02" transform="matrix(30 0 0 30 146.618 45)"/><path d="M0 1V0h1zm-1-1h1v1zm1-1v1h-1z" style="fill:#000" transform="matrix(30 0 0 30 45 125)"/><path d="M0 1V0h1zm0-2v1l.25-.5z" style="fill:#214068" transform="matrix(30 0 0 30 45 125)"/><path d="M0-1v1h-1z" style="fill:#09294c" transform="matrix(30 0 0 30 45 125)"/><path d="M0 0h1M0 0v1m0-1h-1m1 0v-1" style="fill:none;stroke:rgba(255,255,255,.2);stroke-width:.01" transform="matrix(30 0 0 30 45 125)"/><circle r=".06" style="fill:#222;stroke:rgba(255,255,255,.2);stroke-width:.02" transform="matrix(30 0 0 30 45 125)"/><path d="M0 .5h13v3L20 0l-7-3.5v3H0z" style="fill:#ccc;stroke:#ccc" transform="translate(85.5 125)"/><path d="M0 1V0h1zm-1-1h1v1zm1-1v1h-1z" style="fill:#000" transform="matrix(30 0 0 30 146.618 125)"/><path d="M1 0H0l.5-.25zM0-1v1l.25-.5zm0 2V0h1z" style="fill:#214068" transform="matrix(30 0 0 30 146.618 125)"/><path d="M0-1v1h-1z" style="fill:#09294c" transform="matrix(30 0 0 30 146.618 125)"/><path d="M0 0h1M0 0v1m0-1h-1m1 0v-1" style="fill:none;stroke:rgba(255,255,255,.2);stroke-width:.01" transform="matrix(30 0 0 30 146.618 125)"/><circle r=".06" style="fill:#222;stroke:rgba(255,255,255,.2);stroke-width:.02" transform="matrix(30 0 0 30 146.618 125)"/><path d="M0 1V0h1zm-1-1h1v1zm1-1v1h-1z" style="fill:#000" transform="matrix(30 0 0 30 45 205)"/><path d="M0 1V0h1zm0-2v1l.25-.5z" style="fill:#214068" transform="matrix(30 0 0 30 45 205)"/><path d="M0-1v1h-1zm1 1H0l.5-.25z" style="fill:#224935" transform="matrix(30 0 0 30 45 205)"/><path d="M0 0h1M0 0v1m0-1h-1m1 0v-1" style="fill:none;stroke:rgba(255,255,255,.2);stroke-width:.01" transform="matrix(30 0 0 30 45 205)"/><circle r=".06" style="fill:#222;stroke:rgba(255,255,255,.2);stroke-width:.02" transform="matrix(30 0 0 30 45 205)"/><path d="M0 .5h13v3L20 0l-7-3.5v3H0z" style="fill:#ccc;stroke:#ccc" transform="translate(85.5 205)"/><path d="M0 1V0h1zm-1-1h1v1zm1-1v1h-1z" style="fill:#000" transform="matrix(30 0 0 30 146.618 205)"/><path d="M1 0H0l.5-.25zM0-1v1l.25-.5zm0 0v1h-1zm0 2V0h1z" style="fill:#214068" transform="matrix(30 0 0 30 146.618 205)"/><path d="M0 0h1M0 0v1m0-1h-1m1 0v-1" style="fill:none;stroke:rgba(255,255,255,.2);stroke-width:.01" transform="matrix(30 0 0 30 146.618 205)"/><circle r=".06" style="fill:#222;stroke:rgba(255,255,255,.2);stroke-width:.02" transform="matrix(30 0 0 30 146.618 205)"/><path d="M0 1V0h1zm-1-1h1v1zm1-1v1h-1z" style="fill:#000" transform="matrix(30 0 0 30 45 285)"/><path d="M0 1V0h1zm0-2v1h-1z" style="fill:#214068" transform="matrix(30 0 0 30 45 285)"/><path d="M1 0H0l.5-.25z" style="fill:#224935" transform="matrix(30 0 0 30 45 285)"/><path d="M0-1v1l.25-.5z" style="fill:#0d301f" transform="matrix(30 0 0 30 45 285)"/><path d="M0 0h1M0 0v1m0-1h-1m1 0v-1" style="fill:none;stroke:rgba(255,255,255,.2);stroke-width:.01" transform="matrix(30 0 0 30 45 285)"/><circle r=".06" style="fill:#222;stroke:rgba(255,255,255,.2);stroke-width:.02" transform="matrix(30 0 0 30 45 285)"/><path d="M0 .5h13v3L20 0l-7-3.5v3H0z" style="fill:#ccc;stroke:#ccc" transform="translate(85.5 285)"/><path d="M0 1V0h1zm-1-1h1v1zm1-1v1h-1z" style="fill:#000" transform="matrix(30 0 0 30 146.618 285)"/><path d="M-1 0h1v1zm1-1v1h-1zm0 2V0h1z" style="fill:#214068" transform="matrix(30 0 0 30 146.618 285)"/><path d="M1 0H0l.5-.25z" style="fill:#224935" transform="matrix(30 0 0 30 146.618 285)"/><path d="M0-1v1l.25-.5z" style="fill:#0d301f" transform="matrix(30 0 0 30 146.618 285)"/><path d="M0 0h1M0 0v1m0-1h-1m1 0v-1" style="fill:none;stroke:rgba(255,255,255,.2);stroke-width:.01" transform="matrix(30 0 0 30 146.618 285)"/><circle r=".06" style="fill:#222;stroke:rgba(255,255,255,.2);stroke-width:.02" transform="matrix(30 0 0 30 146.618 285)"/><path d="M0 1V0h1zm-1-1h1v1zm1-1v1h-1z" style="fill:#000" transform="matrix(30 0 0 30 45 365)"/><path d="M0 1V0h1z" style="fill:#214068" transform="matrix(30 0 0 30 45 365)"/><path d="M0-1v1h-1z" style="fill:#09294c" transform="matrix(30 0 0 30 45 365)"/><path d="M1 0H0l.5-.25z" style="fill:#224935" transform="matrix(30 0 0 30 45 365)"/><path d="M0-1v1l.25-.5z" style="fill:#0d301f" transform="matrix(30 0 0 30 45 365)"/><path d="M0 0h1M0 0v1m0-1h-1m1 0v-1" style="fill:none;stroke:rgba(255,255,255,.2);stroke-width:.01" transform="matrix(30 0 0 30 45 365)"/><circle r=".06" style="fill:#222;stroke:rgba(255,255,255,.2);stroke-width:.02" transform="matrix(30 0 0 30 45 365)"/><path d="M0 .5h13v3L20 0l-7-3.5v3H0z" style="fill:#ccc;stroke:#ccc" transform="translate(85.5 365)"/><path d="M0 1V0h1zm-1-1h1v1zm1-1v1h-1z" style="fill:#000" transform="matrix(30 0 0 30 146.618 365)"/><path d="M1 0H0l.5-.25zM0 1V0h1z" style="fill:#214068" transform="matrix(30 0 0 30 146.618 365)"/><path d="M0-1v1l.25-.5zm0 0v1h-1z" style="fill:#09294c" transform="matrix(30 0 0 30 146.618 365)"/><path d="M0 0h1M0 0v1m0-1h-1m1 0v-1" style="fill:none;stroke:rgba(255,255,255,.2);stroke-width:.01" transform="matrix(30 0 0 30 146.618 365)"/><circle r=".06" style="fill:#222;stroke:rgba(255,255,255,.2);stroke-width:.02" transform="matrix(30 0 0 30 146.618 365)"/><path d="M0 1V0h1zm-1-1h1v1zm1-1v1h-1z" style="fill:#000" transform="matrix(30 0 0 30 45 445)"/><path d="M0 1V0h1zm0-2v1l.25-.5z" style="fill:#214068" transform="matrix(30 0 0 30 45 445)"/><path d="M-1 0h1v1zm2 0H0l.5-.25z" style="fill:#224935" transform="matrix(30 0 0 30 45 445)"/><path d="M0 0h1M0 0v1m0-1h-1m1 0v-1" style="fill:none;stroke:rgba(255,255,255,.2);stroke-width:.01" transform="matrix(30 0 0 30 45 445)"/><circle r=".06" style="fill:#222;stroke:rgba(255,255,255,.2);stroke-width:.02" transform="matrix(30 0 0 30 45 445)"/><path d="M0 .5h13v3L20 0l-7-3.5v3H0z" style="fill:#ccc;stroke:#ccc" transform="translate(85.5 445)"/><path d="M0 1V0h1zm-1-1h1v1zm1-1v1h-1z" style="fill:#000" transform="matrix(30 0 0 30 146.618 445)"/><path d="M1 0H0l.5-.25zM0-1v1l.25-.5zm-1 1h1v1zm1 1V0h1z" style="fill:#214068" transform="matrix(30 0 0 30 146.618 445)"/><path d="M0 0h1M0 0v1m0-1h-1m1 0v-1" style="fill:none;stroke:rgba(255,255,255,.2);stroke-width:.01" transform="matrix(30 0 0 30 146.618 445)"/><circle r=".06" style="fill:#222;stroke:rgba(255,255,255,.2);stroke-width:.02" transform="matrix(30 0 0 30 146.618 445)"/><path d="M0 1V0h1zm-1-1h1v1zm1-1v1h-1z" style="fill:#000" transform="matrix(30 0 0 30 45 525)"/><path d="M0 1V0h1zm0-2v1l.25-.5z" style="fill:#214068" transform="matrix(30 0 0 30 45 525)"/><path d="M-1 0h1v1z" style="fill:#224935" transform="matrix(30 0 0 30 45 525)"/><path d="M0-1v1h-1z" style="fill:#0d301f" transform="matrix(30 0 0 30 45 525)"/><path d="M0 0h1M0 0v1m0-1h-1m1 0v-1" style="fill:none;stroke:rgba(255,255,255,.2);stroke-width:.01" transform="matrix(30 0 0 30 45 525)"/><circle r=".06" style="fill:#222;stroke:rgba(255,255,255,.2);stroke-width:.02" transform="matrix(30 0 0 30 45 525)"/><path d="M0 .5h13v3L20 0l-7-3.5v3H0z" style="fill:#ccc;stroke:#ccc" transform="translate(85.5 525)"/><path d="M0 1V0h1zm-1-1h1v1zm1-1v1h-1z" style="fill:#000" transform="matrix(30 0 0 30 146.618 525)"/><path d="M-1 0h1v1z" style="fill:#214068" transform="matrix(30 0 0 30 146.618 525)"/><path d="M0-1v1h-1z" style="fill:#09294c" transform="matrix(30 0 0 30 146.618 525)"/><path d="M1 0H0l.5-.25zM0-1v1l.25-.5zm0 2V0h1z" style="fill:#224935" transform="matrix(30 0 0 30 146.618 525)"/><path d="M0 0h1M0 0v1m0-1h-1m1 0v-1" style="fill:none;stroke:rgba(255,255,255,.2);stroke-width:.01" transform="matrix(30 0 0 30 146.618 525)"/><circle r=".06" style="fill:#222;stroke:rgba(255,255,255,.2);stroke-width:.02" transform="matrix(30 0 0 30 146.618 525)"/><path d="M0 1V0h1zm-1-1h1v1zm1-1v1h-1z" style="fill:#000" transform="matrix(30 0 0 30 45 605)"/><path d="M0 1V0h1z" style="fill:#214068" transform="matrix(30 0 0 30 45 605)"/><path d="M-1 0h1v1z" style="fill:#09294c" transform="matrix(30 0 0 30 45 605)"/><path d="M1 0H0l.5-.25z" style="fill:#224935" transform="matrix(30 0 0 30 45 605)"/><path d="M0-1v1l.25-.5z" style="fill:#0d301f" transform="matrix(30 0 0 30 45 605)"/><path d="M0 0h1M0 0v1m0-1h-1m1 0v-1" style="fill:none;stroke:rgba(255,255,255,.2);stroke-width:.01" transform="matrix(30 0 0 30 45 605)"/><circle r=".06" style="fill:#222;stroke:rgba(255,255,255,.2);stroke-width:.02" transform="matrix(30 0 0 30 45 605)"/><path d="M0 .5h13v3L20 0l-7-3.5v3H0z" style="fill:#ccc;stroke:#ccc" transform="translate(85.5 605)"/><path d="M0 1V0h1zm-1-1h1v1zm1-1v1h-1z" style="fill:#000" transform="matrix(30 0 0 30 146.618 605)"/><path d="M1 0H0l.5-.25zM0 1V0h1z" style="fill:#214068" transform="matrix(30 0 0 30 146.618 605)"/><path d="M0-1v1l.25-.5zm0 0v1h-1zm-1 1h1v1z" style="fill:#09294c" transform="matrix(30 0 0 30 146.618 605)"/><path d="M0 0h1M0 0v1m0-1h-1m1 0v-1" style="fill:none;stroke:rgba(255,255,255,.2);stroke-width:.01" transform="matrix(30 0 0 30 146.618 605)"/><circle r=".06" style="fill:#222;stroke:rgba(255,255,255,.2);stroke-width:.02" transform="matrix(30 0 0 30 146.618 605)"/></svg>