<svg xmlns="http://www.w3.org/2000/svg" focusable="false" aria-hidden="true" width="202" height="420" style="pointer-events: none; position: absolute; left: 0px; top: 0px; transform-origin: left top; z-index: 20;"><defs/><g><g><g><g><rect x="0" y="0" width="192" height="410" rx="0" ry="0" style="fill: #333; stroke: none;stroke-miterlimit: 10;"/></g><g transform="translate(10.00000000000000000000,10.00000000000000000000)"><g transform="translate(5.00000000000000000000,5.00000000000000000000)"><g><g transform="translate(0.00000000000000000000,30.00000000000000000000)"><g><g transform="translate(30.00000000000000000000,0.00000000000000000000)"><g transform="scale(30.00000000000000000000)"><g><path d="M 0.00000000000000006123 1.00000000000000000000 L 0.00000000000000000000 0.00000000000000000000 L 1.00000000000000000000 0.00000000000000000000 L 0.00000000000000006123 1.00000000000000000000 Z " style="fill: #000; stroke: none;stroke-miterlimit: 10;"/></g><g><path d="M -0.00000000000000018370 -1.00000000000000000000 L 0.00000000000000000000 0.00000000000000000000 L -1.00000000000000000000 0.00000000000000012246 L -0.00000000000000018370 -1.00000000000000000000 Z " style="fill: #000; stroke: none;stroke-miterlimit: 10;"/></g><g><path d="M 0.00000000000000006123 1.00000000000000000000 L 0.00000000000000000000 0.00000000000000000000 L 1.00000000000000000000 0.00000000000000000000 L 0.00000000000000006123 1.00000000000000000000 Z " style="fill: #214068; stroke: none;stroke-miterlimit: 10;"/></g><g><path d="M 1.00000000000000000000 0.00000000000000000000 L 0.00000000000000000000 0.00000000000000000000 L 0.50000000000000000000 -0.24999999999999997224 L 1.00000000000000000000 0.00000000000000000000 Z " style="fill: #09294c; stroke: none;stroke-miterlimit: 10;"/></g><g><path d="M 0.00000000000000006123 1.00000000000000000000 L 0.00000000000000000000 0.00000000000000000000 L -0.24999999999999994449 0.50000000000000000000 L 0.00000000000000006123 1.00000000000000000000 Z " style="fill: #09294c; stroke: none;stroke-miterlimit: 10;"/></g><g><line x1="0" y1="0" x2="1" y2="0" style="fill: none; stroke: rgba(255,255,255,0.2);stroke-width: 0.01;stroke-miterlimit: 10;"/></g><g><line x1="0" y1="0" x2="6.123233995736766e-17" y2="1" style="fill: none; stroke: rgba(255,255,255,0.2);stroke-width: 0.01;stroke-miterlimit: 10;"/></g><g><line x1="0" y1="0" x2="-1" y2="1.2246467991473532e-16" style="fill: none; stroke: rgba(255,255,255,0.2);stroke-width: 0.01;stroke-miterlimit: 10;"/></g><g><line x1="0" y1="0" x2="-1.8369701987210297e-16" y2="-1" style="fill: none; stroke: rgba(255,255,255,0.2);stroke-width: 0.01;stroke-miterlimit: 10;"/></g><g><circle r="0.06" style="fill: #222; stroke: rgba(255,255,255,0.2);stroke-width: 0.02;stroke-miterlimit: 10;"/></g></g></g><g transform="translate(70.50000000000000000000,0.00000000000000000000)"><path d="M 0.00000000000000003062 0.50000000000000000000 L 13.00000000000000000000 0.50000000000000000000 L 13.00000000000000000000 3.50000000000000000000 L 20.00000000000000000000 0.00000000000000000000 L 13.00000000000000000000 -3.50000000000000000000 L 13.00000000000000000000 -0.50000000000000000000 L -0.00000000000000003062 -0.50000000000000000000 L 0.00000000000000003062 0.50000000000000000000 Z " style="fill: #ccc; stroke: #ccc;stroke-miterlimit: 10;"/></g><g transform="translate(131.61803398874991444245,0.00000000000000000000)"><g transform="scale(30.00000000000000000000)"><g><path d="M 0.00000000000000006123 1.00000000000000000000 L 0.00000000000000000000 0.00000000000000000000 L 1.00000000000000000000 0.00000000000000000000 L 0.00000000000000006123 1.00000000000000000000 Z " style="fill: #000; stroke: none;stroke-miterlimit: 10;"/></g><g><path d="M -0.00000000000000018370 -1.00000000000000000000 L 0.00000000000000000000 0.00000000000000000000 L -1.00000000000000000000 0.00000000000000012246 L -0.00000000000000018370 -1.00000000000000000000 Z " style="fill: #000; stroke: none;stroke-miterlimit: 10;"/></g><g><path d="M 1.00000000000000000000 0.00000000000000000000 L 0.00000000000000000000 0.00000000000000000000 L 0.50000000000000000000 -0.24999999999999997224 L 1.00000000000000000000 0.00000000000000000000 Z " style="fill: #214068; stroke: none;stroke-miterlimit: 10;"/></g><g><path d="M 0.00000000000000006123 1.00000000000000000000 L 0.00000000000000000000 0.00000000000000000000 L -0.24999999999999994449 0.50000000000000000000 L 0.00000000000000006123 1.00000000000000000000 Z " style="fill: #214068; stroke: none;stroke-miterlimit: 10;"/></g><g><path d="M 0.00000000000000006123 1.00000000000000000000 L 0.00000000000000000000 0.00000000000000000000 L 1.00000000000000000000 0.00000000000000000000 L 0.00000000000000006123 1.00000000000000000000 Z " style="fill: #09294c; stroke: none;stroke-miterlimit: 10;"/></g><g><path d="M -1.00000000000000000000 0.00000000000000012246 L 0.00000000000000000000 0.00000000000000000000 L -0.49999999999999994449 0.25000000000000005551 L -1.00000000000000000000 0.00000000000000012246 Z " style="fill: #224935; stroke: none;stroke-miterlimit: 10;"/></g><g><path d="M -0.00000000000000018370 -1.00000000000000000000 L 0.00000000000000000000 0.00000000000000000000 L 0.24999999999999988898 -0.50000000000000000000 L -0.00000000000000018370 -1.00000000000000000000 Z " style="fill: #224935; stroke: none;stroke-miterlimit: 10;"/></g><g><path d="M -0.00000000000000018370 -1.00000000000000000000 L 0.00000000000000000000 0.00000000000000000000 L -1.00000000000000000000 0.00000000000000012246 L -0.00000000000000018370 -1.00000000000000000000 Z " style="fill: #224935; stroke: none;stroke-miterlimit: 10;"/></g><g><line x1="0" y1="0" x2="1" y2="0" style="fill: none; stroke: rgba(255,255,255,0.2);stroke-width: 0.01;stroke-miterlimit: 10;"/></g><g><line x1="0" y1="0" x2="6.123233995736766e-17" y2="1" style="fill: none; stroke: rgba(255,255,255,0.2);stroke-width: 0.01;stroke-miterlimit: 10;"/></g><g><line x1="0" y1="0" x2="-1" y2="1.2246467991473532e-16" style="fill: none; stroke: rgba(255,255,255,0.2);stroke-width: 0.01;stroke-miterlimit: 10;"/></g><g><line x1="0" y1="0" x2="-1.8369701987210297e-16" y2="-1" style="fill: none; stroke: rgba(255,255,255,0.2);stroke-width: 0.01;stroke-miterlimit: 10;"/></g><g><circle r="0.06" style="fill: #222; stroke: rgba(255,255,255,0.2);stroke-width: 0.02;stroke-miterlimit: 10;"/></g></g></g></g></g><g transform="translate(0.00000000000000000000,110.00000000000000000000)"><g><g transform="translate(30.00000000000000000000,0.00000000000000000000)"><g transform="scale(30.00000000000000000000)"><g><path d="M 0.00000000000000006123 1.00000000000000000000 L 0.00000000000000000000 0.00000000000000000000 L 1.00000000000000000000 0.00000000000000000000 L 0.00000000000000006123 1.00000000000000000000 Z " style="fill: #000; stroke: none;stroke-miterlimit: 10;"/></g><g><path d="M -0.00000000000000018370 -1.00000000000000000000 L 0.00000000000000000000 0.00000000000000000000 L -1.00000000000000000000 0.00000000000000012246 L -0.00000000000000018370 -1.00000000000000000000 Z " style="fill: #000; stroke: none;stroke-miterlimit: 10;"/></g><g><path d="M 1.00000000000000000000 0.00000000000000000000 L 0.00000000000000000000 0.00000000000000000000 L 0.50000000000000000000 -0.24999999999999997224 L 1.00000000000000000000 0.00000000000000000000 Z " style="fill: #214068; stroke: none;stroke-miterlimit: 10;"/></g><g><path d="M 0.00000000000000006123 1.00000000000000000000 L 0.00000000000000000000 0.00000000000000000000 L -0.24999999999999994449 0.50000000000000000000 L 0.00000000000000006123 1.00000000000000000000 Z " style="fill: #214068; stroke: none;stroke-miterlimit: 10;"/></g><g><path d="M -1.00000000000000000000 0.00000000000000012246 L 0.00000000000000000000 0.00000000000000000000 L -0.49999999999999994449 0.25000000000000005551 L -1.00000000000000000000 0.00000000000000012246 Z " style="fill: #224935; stroke: none;stroke-miterlimit: 10;"/></g><g><path d="M -0.00000000000000018370 -1.00000000000000000000 L 0.00000000000000000000 0.00000000000000000000 L 0.24999999999999988898 -0.50000000000000000000 L -0.00000000000000018370 -1.00000000000000000000 Z " style="fill: #0d301f; stroke: none;stroke-miterlimit: 10;"/></g><g><line x1="0" y1="0" x2="1" y2="0" style="fill: none; stroke: rgba(255,255,255,0.2);stroke-width: 0.01;stroke-miterlimit: 10;"/></g><g><line x1="0" y1="0" x2="6.123233995736766e-17" y2="1" style="fill: none; stroke: rgba(255,255,255,0.2);stroke-width: 0.01;stroke-miterlimit: 10;"/></g><g><line x1="0" y1="0" x2="-1" y2="1.2246467991473532e-16" style="fill: none; stroke: rgba(255,255,255,0.2);stroke-width: 0.01;stroke-miterlimit: 10;"/></g><g><line x1="0" y1="0" x2="-1.8369701987210297e-16" y2="-1" style="fill: none; stroke: rgba(255,255,255,0.2);stroke-width: 0.01;stroke-miterlimit: 10;"/></g><g><circle r="0.06" style="fill: #222; stroke: rgba(255,255,255,0.2);stroke-width: 0.02;stroke-miterlimit: 10;"/></g></g></g><g transform="translate(70.50000000000000000000,0.00000000000000000000)"><path d="M 0.00000000000000003062 0.50000000000000000000 L 13.00000000000000000000 0.50000000000000000000 L 13.00000000000000000000 3.50000000000000000000 L 20.00000000000000000000 0.00000000000000000000 L 13.00000000000000000000 -3.50000000000000000000 L 13.00000000000000000000 -0.50000000000000000000 L -0.00000000000000003062 -0.50000000000000000000 L 0.00000000000000003062 0.50000000000000000000 Z " style="fill: #ccc; stroke: #ccc;stroke-miterlimit: 10;"/></g><g transform="translate(131.61803398874991444245,0.00000000000000000000)"><g transform="scale(30.00000000000000000000)"><g><path d="M 0.00000000000000006123 1.00000000000000000000 L 0.00000000000000000000 0.00000000000000000000 L 1.00000000000000000000 0.00000000000000000000 L 0.00000000000000006123 1.00000000000000000000 Z " style="fill: #000; stroke: none;stroke-miterlimit: 10;"/></g><g><path d="M -0.00000000000000018370 -1.00000000000000000000 L 0.00000000000000000000 0.00000000000000000000 L -1.00000000000000000000 0.00000000000000012246 L -0.00000000000000018370 -1.00000000000000000000 Z " style="fill: #000; stroke: none;stroke-miterlimit: 10;"/></g><g><path d="M 1.00000000000000000000 0.00000000000000000000 L 0.00000000000000000000 0.00000000000000000000 L 0.50000000000000000000 -0.24999999999999997224 L 1.00000000000000000000 0.00000000000000000000 Z " style="fill: #214068; stroke: none;stroke-miterlimit: 10;"/></g><g><path d="M 0.00000000000000006123 1.00000000000000000000 L 0.00000000000000000000 0.00000000000000000000 L -0.24999999999999994449 0.50000000000000000000 L 0.00000000000000006123 1.00000000000000000000 Z " style="fill: #214068; stroke: none;stroke-miterlimit: 10;"/></g><g><path d="M 0.00000000000000006123 1.00000000000000000000 L 0.00000000000000000000 0.00000000000000000000 L 1.00000000000000000000 0.00000000000000000000 L 0.00000000000000006123 1.00000000000000000000 Z " style="fill: #214068; stroke: none;stroke-miterlimit: 10;"/></g><g><path d="M -1.00000000000000000000 0.00000000000000012246 L 0.00000000000000000000 0.00000000000000000000 L -0.49999999999999994449 0.25000000000000005551 L -1.00000000000000000000 0.00000000000000012246 Z " style="fill: #224935; stroke: none;stroke-miterlimit: 10;"/></g><g><path d="M -0.00000000000000018370 -1.00000000000000000000 L 0.00000000000000000000 0.00000000000000000000 L 0.24999999999999988898 -0.50000000000000000000 L -0.00000000000000018370 -1.00000000000000000000 Z " style="fill: #0d301f; stroke: none;stroke-miterlimit: 10;"/></g><g><line x1="0" y1="0" x2="1" y2="0" style="fill: none; stroke: rgba(255,255,255,0.2);stroke-width: 0.01;stroke-miterlimit: 10;"/></g><g><line x1="0" y1="0" x2="6.123233995736766e-17" y2="1" style="fill: none; stroke: rgba(255,255,255,0.2);stroke-width: 0.01;stroke-miterlimit: 10;"/></g><g><line x1="0" y1="0" x2="-1" y2="1.2246467991473532e-16" style="fill: none; stroke: rgba(255,255,255,0.2);stroke-width: 0.01;stroke-miterlimit: 10;"/></g><g><line x1="0" y1="0" x2="-1.8369701987210297e-16" y2="-1" style="fill: none; stroke: rgba(255,255,255,0.2);stroke-width: 0.01;stroke-miterlimit: 10;"/></g><g><circle r="0.06" style="fill: #222; stroke: rgba(255,255,255,0.2);stroke-width: 0.02;stroke-miterlimit: 10;"/></g></g></g></g></g><g transform="translate(0.00000000000000000000,190.00000000000000000000)"><g><g transform="translate(30.00000000000000000000,0.00000000000000000000)"><g transform="scale(30.00000000000000000000)"><g><path d="M 0.00000000000000006123 1.00000000000000000000 L 0.00000000000000000000 0.00000000000000000000 L 1.00000000000000000000 0.00000000000000000000 L 0.00000000000000006123 1.00000000000000000000 Z " style="fill: #000; stroke: none;stroke-miterlimit: 10;"/></g><g><path d="M -0.00000000000000018370 -1.00000000000000000000 L 0.00000000000000000000 0.00000000000000000000 L -1.00000000000000000000 0.00000000000000012246 L -0.00000000000000018370 -1.00000000000000000000 Z " style="fill: #000; stroke: none;stroke-miterlimit: 10;"/></g><g><path d="M 0.00000000000000006123 1.00000000000000000000 L 0.00000000000000000000 0.00000000000000000000 L 1.00000000000000000000 0.00000000000000000000 L 0.00000000000000006123 1.00000000000000000000 Z " style="fill: #214068; stroke: none;stroke-miterlimit: 10;"/></g><g><path d="M 1.00000000000000000000 0.00000000000000000000 L 0.00000000000000000000 0.00000000000000000000 L 0.50000000000000000000 -0.24999999999999997224 L 1.00000000000000000000 0.00000000000000000000 Z " style="fill: #09294c; stroke: none;stroke-miterlimit: 10;"/></g><g><path d="M -1.00000000000000000000 0.00000000000000012246 L 0.00000000000000000000 0.00000000000000000000 L -0.49999999999999994449 0.25000000000000005551 L -1.00000000000000000000 0.00000000000000012246 Z " style="fill: #224935; stroke: none;stroke-miterlimit: 10;"/></g><g><path d="M -0.00000000000000018370 -1.00000000000000000000 L 0.00000000000000000000 0.00000000000000000000 L 0.24999999999999988898 -0.50000000000000000000 L -0.00000000000000018370 -1.00000000000000000000 Z " style="fill: #224935; stroke: none;stroke-miterlimit: 10;"/></g><g><line x1="0" y1="0" x2="1" y2="0" style="fill: none; stroke: rgba(255,255,255,0.2);stroke-width: 0.01;stroke-miterlimit: 10;"/></g><g><line x1="0" y1="0" x2="6.123233995736766e-17" y2="1" style="fill: none; stroke: rgba(255,255,255,0.2);stroke-width: 0.01;stroke-miterlimit: 10;"/></g><g><line x1="0" y1="0" x2="-1" y2="1.2246467991473532e-16" style="fill: none; stroke: rgba(255,255,255,0.2);stroke-width: 0.01;stroke-miterlimit: 10;"/></g><g><line x1="0" y1="0" x2="-1.8369701987210297e-16" y2="-1" style="fill: none; stroke: rgba(255,255,255,0.2);stroke-width: 0.01;stroke-miterlimit: 10;"/></g><g><circle r="0.06" style="fill: #222; stroke: rgba(255,255,255,0.2);stroke-width: 0.02;stroke-miterlimit: 10;"/></g></g></g><g transform="translate(70.50000000000000000000,0.00000000000000000000)"><path d="M 0.00000000000000003062 0.50000000000000000000 L 13.00000000000000000000 0.50000000000000000000 L 13.00000000000000000000 3.50000000000000000000 L 20.00000000000000000000 0.00000000000000000000 L 13.00000000000000000000 -3.50000000000000000000 L 13.00000000000000000000 -0.50000000000000000000 L -0.00000000000000003062 -0.50000000000000000000 L 0.00000000000000003062 0.50000000000000000000 Z " style="fill: #ccc; stroke: #ccc;stroke-miterlimit: 10;"/></g><g transform="translate(131.61803398874991444245,0.00000000000000000000)"><g transform="scale(30.00000000000000000000)"><g><path d="M 0.00000000000000006123 1.00000000000000000000 L 0.00000000000000000000 0.00000000000000000000 L 1.00000000000000000000 0.00000000000000000000 L 0.00000000000000006123 1.00000000000000000000 Z " style="fill: #000; stroke: none;stroke-miterlimit: 10;"/></g><g><path d="M -0.00000000000000018370 -1.00000000000000000000 L 0.00000000000000000000 0.00000000000000000000 L -1.00000000000000000000 0.00000000000000012246 L -0.00000000000000018370 -1.00000000000000000000 Z " style="fill: #000; stroke: none;stroke-miterlimit: 10;"/></g><g><path d="M 0.00000000000000006123 1.00000000000000000000 L 0.00000000000000000000 0.00000000000000000000 L 1.00000000000000000000 0.00000000000000000000 L 0.00000000000000006123 1.00000000000000000000 Z " style="fill: #214068; stroke: none;stroke-miterlimit: 10;"/></g><g><path d="M 1.00000000000000000000 0.00000000000000000000 L 0.00000000000000000000 0.00000000000000000000 L 0.50000000000000000000 -0.24999999999999997224 L 1.00000000000000000000 0.00000000000000000000 Z " style="fill: #09294c; stroke: none;stroke-miterlimit: 10;"/></g><g><path d="M -1.00000000000000000000 0.00000000000000012246 L 0.00000000000000000000 0.00000000000000000000 L -0.49999999999999994449 0.25000000000000005551 L -1.00000000000000000000 0.00000000000000012246 Z " style="fill: #224935; stroke: none;stroke-miterlimit: 10;"/></g><g><path d="M -0.00000000000000018370 -1.00000000000000000000 L 0.00000000000000000000 0.00000000000000000000 L 0.24999999999999988898 -0.50000000000000000000 L -0.00000000000000018370 -1.00000000000000000000 Z " style="fill: #224935; stroke: none;stroke-miterlimit: 10;"/></g><g><path d="M -0.00000000000000018370 -1.00000000000000000000 L 0.00000000000000000000 0.00000000000000000000 L -1.00000000000000000000 0.00000000000000012246 L -0.00000000000000018370 -1.00000000000000000000 Z " style="fill: #224935; stroke: none;stroke-miterlimit: 10;"/></g><g><line x1="0" y1="0" x2="1" y2="0" style="fill: none; stroke: rgba(255,255,255,0.2);stroke-width: 0.01;stroke-miterlimit: 10;"/></g><g><line x1="0" y1="0" x2="6.123233995736766e-17" y2="1" style="fill: none; stroke: rgba(255,255,255,0.2);stroke-width: 0.01;stroke-miterlimit: 10;"/></g><g><line x1="0" y1="0" x2="-1" y2="1.2246467991473532e-16" style="fill: none; stroke: rgba(255,255,255,0.2);stroke-width: 0.01;stroke-miterlimit: 10;"/></g><g><line x1="0" y1="0" x2="-1.8369701987210297e-16" y2="-1" style="fill: none; stroke: rgba(255,255,255,0.2);stroke-width: 0.01;stroke-miterlimit: 10;"/></g><g><circle r="0.06" style="fill: #222; stroke: rgba(255,255,255,0.2);stroke-width: 0.02;stroke-miterlimit: 10;"/></g></g></g></g></g><g transform="translate(0.00000000000000000000,270.00000000000000000000)"><g><g transform="translate(30.00000000000000000000,0.00000000000000000000)"><g transform="scale(30.00000000000000000000)"><g><path d="M 0.00000000000000006123 1.00000000000000000000 L 0.00000000000000000000 0.00000000000000000000 L 1.00000000000000000000 0.00000000000000000000 L 0.00000000000000006123 1.00000000000000000000 Z " style="fill: #000; stroke: none;stroke-miterlimit: 10;"/></g><g><path d="M -0.00000000000000018370 -1.00000000000000000000 L 0.00000000000000000000 0.00000000000000000000 L -1.00000000000000000000 0.00000000000000012246 L -0.00000000000000018370 -1.00000000000000000000 Z " style="fill: #000; stroke: none;stroke-miterlimit: 10;"/></g><g><path d="M 0.00000000000000006123 1.00000000000000000000 L 0.00000000000000000000 0.00000000000000000000 L 1.00000000000000000000 0.00000000000000000000 L 0.00000000000000006123 1.00000000000000000000 Z " style="fill: #214068; stroke: none;stroke-miterlimit: 10;"/></g><g><path d="M 1.00000000000000000000 0.00000000000000000000 L 0.00000000000000000000 0.00000000000000000000 L 0.50000000000000000000 -0.24999999999999997224 L 1.00000000000000000000 0.00000000000000000000 Z " style="fill: #09294c; stroke: none;stroke-miterlimit: 10;"/></g><g><path d="M -1.00000000000000000000 0.00000000000000012246 L 0.00000000000000000000 0.00000000000000000000 L -0.49999999999999994449 0.25000000000000005551 L -1.00000000000000000000 0.00000000000000012246 Z " style="fill: #224935; stroke: none;stroke-miterlimit: 10;"/></g><g><path d="M -0.00000000000000018370 -1.00000000000000000000 L 0.00000000000000000000 0.00000000000000000000 L 0.24999999999999988898 -0.50000000000000000000 L -0.00000000000000018370 -1.00000000000000000000 Z " style="fill: #0d301f; stroke: none;stroke-miterlimit: 10;"/></g><g><line x1="0" y1="0" x2="1" y2="0" style="fill: none; stroke: rgba(255,255,255,0.2);stroke-width: 0.01;stroke-miterlimit: 10;"/></g><g><line x1="0" y1="0" x2="6.123233995736766e-17" y2="1" style="fill: none; stroke: rgba(255,255,255,0.2);stroke-width: 0.01;stroke-miterlimit: 10;"/></g><g><line x1="0" y1="0" x2="-1" y2="1.2246467991473532e-16" style="fill: none; stroke: rgba(255,255,255,0.2);stroke-width: 0.01;stroke-miterlimit: 10;"/></g><g><line x1="0" y1="0" x2="-1.8369701987210297e-16" y2="-1" style="fill: none; stroke: rgba(255,255,255,0.2);stroke-width: 0.01;stroke-miterlimit: 10;"/></g><g><circle r="0.06" style="fill: #222; stroke: rgba(255,255,255,0.2);stroke-width: 0.02;stroke-miterlimit: 10;"/></g></g></g><g transform="translate(70.50000000000000000000,0.00000000000000000000)"><path d="M 0.00000000000000003062 0.50000000000000000000 L 13.00000000000000000000 0.50000000000000000000 L 13.00000000000000000000 3.50000000000000000000 L 20.00000000000000000000 0.00000000000000000000 L 13.00000000000000000000 -3.50000000000000000000 L 13.00000000000000000000 -0.50000000000000000000 L -0.00000000000000003062 -0.50000000000000000000 L 0.00000000000000003062 0.50000000000000000000 Z " style="fill: #ccc; stroke: #ccc;stroke-miterlimit: 10;"/></g><g transform="translate(131.61803398874991444245,0.00000000000000000000)"><g transform="scale(30.00000000000000000000)"><g><path d="M 0.00000000000000006123 1.00000000000000000000 L 0.00000000000000000000 0.00000000000000000000 L 1.00000000000000000000 0.00000000000000000000 L 0.00000000000000006123 1.00000000000000000000 Z " style="fill: #000; stroke: none;stroke-miterlimit: 10;"/></g><g><path d="M -0.00000000000000018370 -1.00000000000000000000 L 0.00000000000000000000 0.00000000000000000000 L -1.00000000000000000000 0.00000000000000012246 L -0.00000000000000018370 -1.00000000000000000000 Z " style="fill: #000; stroke: none;stroke-miterlimit: 10;"/></g><g><path d="M 1.00000000000000000000 0.00000000000000000000 L 0.00000000000000000000 0.00000000000000000000 L 0.50000000000000000000 -0.24999999999999997224 L 1.00000000000000000000 0.00000000000000000000 Z " style="fill: #214068; stroke: none;stroke-miterlimit: 10;"/></g><g><path d="M 0.00000000000000006123 1.00000000000000000000 L 0.00000000000000000000 0.00000000000000000000 L -0.24999999999999994449 0.50000000000000000000 L 0.00000000000000006123 1.00000000000000000000 Z " style="fill: #09294c; stroke: none;stroke-miterlimit: 10;"/></g><g><path d="M 0.00000000000000006123 1.00000000000000000000 L 0.00000000000000000000 0.00000000000000000000 L 1.00000000000000000000 0.00000000000000000000 L 0.00000000000000006123 1.00000000000000000000 Z " style="fill: #09294c; stroke: none;stroke-miterlimit: 10;"/></g><g><path d="M -1.00000000000000000000 0.00000000000000012246 L 0.00000000000000000000 0.00000000000000000000 L -0.49999999999999994449 0.25000000000000005551 L -1.00000000000000000000 0.00000000000000012246 Z " style="fill: #224935; stroke: none;stroke-miterlimit: 10;"/></g><g><path d="M -0.00000000000000018370 -1.00000000000000000000 L 0.00000000000000000000 0.00000000000000000000 L 0.24999999999999988898 -0.50000000000000000000 L -0.00000000000000018370 -1.00000000000000000000 Z " style="fill: #0d301f; stroke: none;stroke-miterlimit: 10;"/></g><g><line x1="0" y1="0" x2="1" y2="0" style="fill: none; stroke: rgba(255,255,255,0.2);stroke-width: 0.01;stroke-miterlimit: 10;"/></g><g><line x1="0" y1="0" x2="6.123233995736766e-17" y2="1" style="fill: none; stroke: rgba(255,255,255,0.2);stroke-width: 0.01;stroke-miterlimit: 10;"/></g><g><line x1="0" y1="0" x2="-1" y2="1.2246467991473532e-16" style="fill: none; stroke: rgba(255,255,255,0.2);stroke-width: 0.01;stroke-miterlimit: 10;"/></g><g><line x1="0" y1="0" x2="-1.8369701987210297e-16" y2="-1" style="fill: none; stroke: rgba(255,255,255,0.2);stroke-width: 0.01;stroke-miterlimit: 10;"/></g><g><circle r="0.06" style="fill: #222; stroke: rgba(255,255,255,0.2);stroke-width: 0.02;stroke-miterlimit: 10;"/></g></g></g></g></g><g transform="translate(0.00000000000000000000,350.00000000000000000000)"><g><g transform="translate(30.00000000000000000000,0.00000000000000000000)"><g transform="scale(30.00000000000000000000)"><g><path d="M 0.00000000000000006123 1.00000000000000000000 L 0.00000000000000000000 0.00000000000000000000 L 1.00000000000000000000 0.00000000000000000000 L 0.00000000000000006123 1.00000000000000000000 Z " style="fill: #000; stroke: none;stroke-miterlimit: 10;"/></g><g><path d="M -0.00000000000000018370 -1.00000000000000000000 L 0.00000000000000000000 0.00000000000000000000 L -1.00000000000000000000 0.00000000000000012246 L -0.00000000000000018370 -1.00000000000000000000 Z " style="fill: #000; stroke: none;stroke-miterlimit: 10;"/></g><g><path d="M 0.00000000000000006123 1.00000000000000000000 L 0.00000000000000000000 0.00000000000000000000 L 1.00000000000000000000 0.00000000000000000000 L 0.00000000000000006123 1.00000000000000000000 Z " style="fill: #214068; stroke: none;stroke-miterlimit: 10;"/></g><g><path d="M 1.00000000000000000000 0.00000000000000000000 L 0.00000000000000000000 0.00000000000000000000 L 0.50000000000000000000 -0.24999999999999997224 L 1.00000000000000000000 0.00000000000000000000 Z " style="fill: #09294c; stroke: none;stroke-miterlimit: 10;"/></g><g><path d="M -0.00000000000000018370 -1.00000000000000000000 L 0.00000000000000000000 0.00000000000000000000 L -1.00000000000000000000 0.00000000000000012246 L -0.00000000000000018370 -1.00000000000000000000 Z " style="fill: #224935; stroke: none;stroke-miterlimit: 10;"/></g><g><path d="M -1.00000000000000000000 0.00000000000000012246 L 0.00000000000000000000 0.00000000000000000000 L -0.49999999999999994449 0.25000000000000005551 L -1.00000000000000000000 0.00000000000000012246 Z " style="fill: #0d301f; stroke: none;stroke-miterlimit: 10;"/></g><g><line x1="0" y1="0" x2="1" y2="0" style="fill: none; stroke: rgba(255,255,255,0.2);stroke-width: 0.01;stroke-miterlimit: 10;"/></g><g><line x1="0" y1="0" x2="6.123233995736766e-17" y2="1" style="fill: none; stroke: rgba(255,255,255,0.2);stroke-width: 0.01;stroke-miterlimit: 10;"/></g><g><line x1="0" y1="0" x2="-1" y2="1.2246467991473532e-16" style="fill: none; stroke: rgba(255,255,255,0.2);stroke-width: 0.01;stroke-miterlimit: 10;"/></g><g><line x1="0" y1="0" x2="-1.8369701987210297e-16" y2="-1" style="fill: none; stroke: rgba(255,255,255,0.2);stroke-width: 0.01;stroke-miterlimit: 10;"/></g><g><circle r="0.06" style="fill: #222; stroke: rgba(255,255,255,0.2);stroke-width: 0.02;stroke-miterlimit: 10;"/></g></g></g><g transform="translate(70.50000000000000000000,0.00000000000000000000)"><path d="M 0.00000000000000003062 0.50000000000000000000 L 13.00000000000000000000 0.50000000000000000000 L 13.00000000000000000000 3.50000000000000000000 L 20.00000000000000000000 0.00000000000000000000 L 13.00000000000000000000 -3.50000000000000000000 L 13.00000000000000000000 -0.50000000000000000000 L -0.00000000000000003062 -0.50000000000000000000 L 0.00000000000000003062 0.50000000000000000000 Z " style="fill: #ccc; stroke: #ccc;stroke-miterlimit: 10;"/></g><g transform="translate(131.61803398874991444245,0.00000000000000000000)"><g transform="scale(30.00000000000000000000)"><g><path d="M 0.00000000000000006123 1.00000000000000000000 L 0.00000000000000000000 0.00000000000000000000 L 1.00000000000000000000 0.00000000000000000000 L 0.00000000000000006123 1.00000000000000000000 Z " style="fill: #000; stroke: none;stroke-miterlimit: 10;"/></g><g><path d="M -0.00000000000000018370 -1.00000000000000000000 L 0.00000000000000000000 0.00000000000000000000 L -1.00000000000000000000 0.00000000000000012246 L -0.00000000000000018370 -1.00000000000000000000 Z " style="fill: #000; stroke: none;stroke-miterlimit: 10;"/></g><g><path d="M 1.00000000000000000000 0.00000000000000000000 L 0.00000000000000000000 0.00000000000000000000 L 0.50000000000000000000 -0.24999999999999997224 L 1.00000000000000000000 0.00000000000000000000 Z " style="fill: #214068; stroke: none;stroke-miterlimit: 10;"/></g><g><path d="M 0.00000000000000006123 1.00000000000000000000 L 0.00000000000000000000 0.00000000000000000000 L -0.24999999999999994449 0.50000000000000000000 L 0.00000000000000006123 1.00000000000000000000 Z " style="fill: #09294c; stroke: none;stroke-miterlimit: 10;"/></g><g><path d="M 0.00000000000000006123 1.00000000000000000000 L 0.00000000000000000000 0.00000000000000000000 L 1.00000000000000000000 0.00000000000000000000 L 0.00000000000000006123 1.00000000000000000000 Z " style="fill: #09294c; stroke: none;stroke-miterlimit: 10;"/></g><g><path d="M -1.00000000000000000000 0.00000000000000012246 L 0.00000000000000000000 0.00000000000000000000 L -0.49999999999999994449 0.25000000000000005551 L -1.00000000000000000000 0.00000000000000012246 Z " style="fill: #224935; stroke: none;stroke-miterlimit: 10;"/></g><g><path d="M -0.00000000000000018370 -1.00000000000000000000 L 0.00000000000000000000 0.00000000000000000000 L 0.24999999999999988898 -0.50000000000000000000 L -0.00000000000000018370 -1.00000000000000000000 Z " style="fill: #0d301f; stroke: none;stroke-miterlimit: 10;"/></g><g><path d="M -0.00000000000000018370 -1.00000000000000000000 L 0.00000000000000000000 0.00000000000000000000 L -1.00000000000000000000 0.00000000000000012246 L -0.00000000000000018370 -1.00000000000000000000 Z " style="fill: #0d301f; stroke: none;stroke-miterlimit: 10;"/></g><g><line x1="0" y1="0" x2="1" y2="0" style="fill: none; stroke: rgba(255,255,255,0.2);stroke-width: 0.01;stroke-miterlimit: 10;"/></g><g><line x1="0" y1="0" x2="6.123233995736766e-17" y2="1" style="fill: none; stroke: rgba(255,255,255,0.2);stroke-width: 0.01;stroke-miterlimit: 10;"/></g><g><line x1="0" y1="0" x2="-1" y2="1.2246467991473532e-16" style="fill: none; stroke: rgba(255,255,255,0.2);stroke-width: 0.01;stroke-miterlimit: 10;"/></g><g><line x1="0" y1="0" x2="-1.8369701987210297e-16" y2="-1" style="fill: none; stroke: rgba(255,255,255,0.2);stroke-width: 0.01;stroke-miterlimit: 10;"/></g><g><circle r="0.06" style="fill: #222; stroke: rgba(255,255,255,0.2);stroke-width: 0.02;stroke-miterlimit: 10;"/></g></g></g></g></g></g></g></g></g></g></g></svg>