<svg xmlns="http://www.w3.org/2000/svg" focusable="false" aria-hidden="true" width="202" height="237" style="pointer-events: none; position: absolute; left: 0px; top: 0px; transform-origin: left top; z-index: 20;"><defs/><g><g><g><g><rect x="0" y="0" width="192" height="227" rx="0" ry="0" style="fill: #333; stroke: none;stroke-miterlimit: 10;"/></g><g transform="translate(10.00000000000000000000,10.00000000000000000000)"><g transform="translate(5.00000000000000000000,5.00000000000000000000)"><g><g transform="translate(0.00000000000000000000,26.05576211353315585484)"><g><g transform="translate(30.00000000000000000000,0.00000000000000000000)"><g transform="scale(30.00000000000000000000)"><g><path d="M 0.50000000000000011102 0.86602540378443859659 L 0.00000000000000000000 0.00000000000000000000 L 1.00000000000000000000 0.00000000000000000000 L 0.50000000000000011102 0.86602540378443859659 Z " style="fill: #000; stroke: none;stroke-miterlimit: 10;"/></g><g><path d="M -0.49999999999999977796 0.86602540378443870761 L 0.00000000000000000000 0.00000000000000000000 L 0.50000000000000011102 0.86602540378443859659 L -0.49999999999999977796 0.86602540378443870761 Z " style="fill: #000; stroke: none;stroke-miterlimit: 10;"/></g><g><path d="M -0.50000000000000044409 -0.86602540378443848557 L 0.00000000000000000000 0.00000000000000000000 L -1.00000000000000000000 0.00000000000000012246 L -0.50000000000000044409 -0.86602540378443848557 Z " style="fill: #000; stroke: none;stroke-miterlimit: 10;"/></g><g><path d="M 0.50000000000000011102 -0.86602540378443859659 L 0.00000000000000000000 0.00000000000000000000 L -0.50000000000000044409 -0.86602540378443848557 L 0.50000000000000011102 -0.86602540378443859659 Z " style="fill: #000; stroke: none;stroke-miterlimit: 10;"/></g><g><path d="M 1.00000000000000000000 0.00000000000000000000 L 0.00000000000000000000 0.00000000000000000000 L 0.50000000000000000000 -0.17101007166283435645 L 1.00000000000000000000 0.00000000000000000000 Z " style="fill: #214068; stroke: none;stroke-miterlimit: 10;"/></g><g><path d="M -0.49999999999999977796 0.86602540378443870761 L 0.00000000000000000000 0.00000000000000000000 L -0.39809906636301184424 0.34750766606080218946 L -0.49999999999999977796 0.86602540378443870761 Z " style="fill: #214068; stroke: none;stroke-miterlimit: 10;"/></g><g><path d="M -1.00000000000000000000 0.00000000000000012246 L 0.00000000000000000000 0.00000000000000000000 L -0.50000000000000000000 0.17101007166283441197 L -1.00000000000000000000 0.00000000000000012246 Z " style="fill: #224935; stroke: none;stroke-miterlimit: 10;"/></g><g><path d="M 0.50000000000000011102 -0.86602540378443859659 L 0.00000000000000000000 0.00000000000000000000 L 0.39809906636301195526 -0.34750766606080207843 L 0.50000000000000011102 -0.86602540378443859659 Z " style="fill: #0d301f; stroke: none;stroke-miterlimit: 10;"/></g><g><line x1="0" y1="0" x2="1" y2="0" style="fill: none; stroke: rgba(255,255,255,0.2);stroke-width: 0.01;stroke-miterlimit: 10;"/></g><g><line x1="0" y1="0" x2="0.5000000000000001" y2="0.8660254037844386" style="fill: none; stroke: rgba(255,255,255,0.2);stroke-width: 0.01;stroke-miterlimit: 10;"/></g><g><line x1="0" y1="0" x2="-0.4999999999999998" y2="0.8660254037844387" style="fill: none; stroke: rgba(255,255,255,0.2);stroke-width: 0.01;stroke-miterlimit: 10;"/></g><g><line x1="0" y1="0" x2="-1" y2="1.2246467991473532e-16" style="fill: none; stroke: rgba(255,255,255,0.2);stroke-width: 0.01;stroke-miterlimit: 10;"/></g><g><line x1="0" y1="0" x2="-0.5000000000000004" y2="-0.8660254037844385" style="fill: none; stroke: rgba(255,255,255,0.2);stroke-width: 0.01;stroke-miterlimit: 10;"/></g><g><line x1="0" y1="0" x2="0.5000000000000001" y2="-0.8660254037844386" style="fill: none; stroke: rgba(255,255,255,0.2);stroke-width: 0.01;stroke-miterlimit: 10;"/></g><g><circle r="0.06" style="fill: #222; stroke: rgba(255,255,255,0.2);stroke-width: 0.02;stroke-miterlimit: 10;"/></g></g></g><g transform="translate(70.50000000000000000000,0.00000000000000000000)"><path d="M 0.00000000000000003062 0.50000000000000000000 L 13.00000000000000000000 0.50000000000000000000 L 13.00000000000000000000 3.50000000000000000000 L 20.00000000000000000000 0.00000000000000000000 L 13.00000000000000000000 -3.50000000000000000000 L 13.00000000000000000000 -0.50000000000000000000 L -0.00000000000000003062 -0.50000000000000000000 L 0.00000000000000003062 0.50000000000000000000 Z " style="fill: #ccc; stroke: #ccc;stroke-miterlimit: 10;"/></g><g transform="translate(131.61803398874991444245,0.00000000000000000000)"><g transform="scale(30.00000000000000000000)"><g><path d="M 0.50000000000000011102 0.86602540378443859659 L 0.00000000000000000000 0.00000000000000000000 L 1.00000000000000000000 0.00000000000000000000 L 0.50000000000000011102 0.86602540378443859659 Z " style="fill: #000; stroke: none;stroke-miterlimit: 10;"/></g><g><path d="M -0.49999999999999977796 0.86602540378443870761 L 0.00000000000000000000 0.00000000000000000000 L 0.50000000000000011102 0.86602540378443859659 L -0.49999999999999977796 0.86602540378443870761 Z " style="fill: #000; stroke: none;stroke-miterlimit: 10;"/></g><g><path d="M -0.50000000000000044409 -0.86602540378443848557 L 0.00000000000000000000 0.00000000000000000000 L -1.00000000000000000000 0.00000000000000012246 L -0.50000000000000044409 -0.86602540378443848557 Z " style="fill: #000; stroke: none;stroke-miterlimit: 10;"/></g><g><path d="M 0.50000000000000011102 -0.86602540378443859659 L 0.00000000000000000000 0.00000000000000000000 L -0.50000000000000044409 -0.86602540378443848557 L 0.50000000000000011102 -0.86602540378443859659 Z " style="fill: #000; stroke: none;stroke-miterlimit: 10;"/></g><g><path d="M 1.00000000000000000000 0.00000000000000000000 L 0.00000000000000000000 0.00000000000000000000 L 0.50000000000000000000 -0.17101007166283435645 L 1.00000000000000000000 0.00000000000000000000 Z " style="fill: #214068; stroke: none;stroke-miterlimit: 10;"/></g><g><path d="M -0.49999999999999977796 0.86602540378443870761 L 0.00000000000000000000 0.00000000000000000000 L -0.39809906636301184424 0.34750766606080218946 L -0.49999999999999977796 0.86602540378443870761 Z " style="fill: #214068; stroke: none;stroke-miterlimit: 10;"/></g><g><path d="M -0.49999999999999977796 0.86602540378443870761 L 0.00000000000000000000 0.00000000000000000000 L 0.50000000000000011102 0.86602540378443859659 L -0.49999999999999977796 0.86602540378443870761 Z " style="fill: #214068; stroke: none;stroke-miterlimit: 10;"/></g><g><path d="M 0.50000000000000011102 0.86602540378443859659 L 0.00000000000000000000 0.00000000000000000000 L 1.00000000000000000000 0.00000000000000000000 L 0.50000000000000011102 0.86602540378443859659 Z " style="fill: #214068; stroke: none;stroke-miterlimit: 10;"/></g><g><path d="M -1.00000000000000000000 0.00000000000000012246 L 0.00000000000000000000 0.00000000000000000000 L -0.50000000000000000000 0.17101007166283441197 L -1.00000000000000000000 0.00000000000000012246 Z " style="fill: #224935; stroke: none;stroke-miterlimit: 10;"/></g><g><path d="M 0.50000000000000011102 -0.86602540378443859659 L 0.00000000000000000000 0.00000000000000000000 L 0.39809906636301195526 -0.34750766606080207843 L 0.50000000000000011102 -0.86602540378443859659 Z " style="fill: #0d301f; stroke: none;stroke-miterlimit: 10;"/></g><g><line x1="0" y1="0" x2="1" y2="0" style="fill: none; stroke: rgba(255,255,255,0.2);stroke-width: 0.01;stroke-miterlimit: 10;"/></g><g><line x1="0" y1="0" x2="0.5000000000000001" y2="0.8660254037844386" style="fill: none; stroke: rgba(255,255,255,0.2);stroke-width: 0.01;stroke-miterlimit: 10;"/></g><g><line x1="0" y1="0" x2="-0.4999999999999998" y2="0.8660254037844387" style="fill: none; stroke: rgba(255,255,255,0.2);stroke-width: 0.01;stroke-miterlimit: 10;"/></g><g><line x1="0" y1="0" x2="-1" y2="1.2246467991473532e-16" style="fill: none; stroke: rgba(255,255,255,0.2);stroke-width: 0.01;stroke-miterlimit: 10;"/></g><g><line x1="0" y1="0" x2="-0.5000000000000004" y2="-0.8660254037844385" style="fill: none; stroke: rgba(255,255,255,0.2);stroke-width: 0.01;stroke-miterlimit: 10;"/></g><g><line x1="0" y1="0" x2="0.5000000000000001" y2="-0.8660254037844386" style="fill: none; stroke: rgba(255,255,255,0.2);stroke-width: 0.01;stroke-miterlimit: 10;"/></g><g><circle r="0.06" style="fill: #222; stroke: rgba(255,255,255,0.2);stroke-width: 0.02;stroke-miterlimit: 10;"/></g></g></g></g></g><g transform="translate(0.00000000000000000000,98.16728634059947466994)"><g><g transform="translate(30.00000000000000000000,0.00000000000000000000)"><g transform="scale(30.00000000000000000000)"><g><path d="M 0.50000000000000011102 0.86602540378443859659 L 0.00000000000000000000 0.00000000000000000000 L 1.00000000000000000000 0.00000000000000000000 L 0.50000000000000011102 0.86602540378443859659 Z " style="fill: #000; stroke: none;stroke-miterlimit: 10;"/></g><g><path d="M -0.49999999999999977796 0.86602540378443870761 L 0.00000000000000000000 0.00000000000000000000 L 0.50000000000000011102 0.86602540378443859659 L -0.49999999999999977796 0.86602540378443870761 Z " style="fill: #000; stroke: none;stroke-miterlimit: 10;"/></g><g><path d="M -0.50000000000000044409 -0.86602540378443848557 L 0.00000000000000000000 0.00000000000000000000 L -1.00000000000000000000 0.00000000000000012246 L -0.50000000000000044409 -0.86602540378443848557 Z " style="fill: #000; stroke: none;stroke-miterlimit: 10;"/></g><g><path d="M 0.50000000000000011102 -0.86602540378443859659 L 0.00000000000000000000 0.00000000000000000000 L -0.50000000000000044409 -0.86602540378443848557 L 0.50000000000000011102 -0.86602540378443859659 Z " style="fill: #000; stroke: none;stroke-miterlimit: 10;"/></g><g><path d="M 0.50000000000000011102 0.86602540378443859659 L 0.00000000000000000000 0.00000000000000000000 L 1.00000000000000000000 0.00000000000000000000 L 0.50000000000000011102 0.86602540378443859659 Z " style="fill: #214068; stroke: none;stroke-miterlimit: 10;"/></g><g><path d="M -0.49999999999999977796 0.86602540378443870761 L 0.00000000000000000000 0.00000000000000000000 L -0.39809906636301184424 0.34750766606080218946 L -0.49999999999999977796 0.86602540378443870761 Z " style="fill: #09294c; stroke: none;stroke-miterlimit: 10;"/></g><g><path d="M -1.00000000000000000000 0.00000000000000012246 L 0.00000000000000000000 0.00000000000000000000 L -0.50000000000000000000 0.17101007166283441197 L -1.00000000000000000000 0.00000000000000012246 Z " style="fill: #224935; stroke: none;stroke-miterlimit: 10;"/></g><g><path d="M 0.50000000000000011102 -0.86602540378443859659 L 0.00000000000000000000 0.00000000000000000000 L 0.39809906636301195526 -0.34750766606080207843 L 0.50000000000000011102 -0.86602540378443859659 Z " style="fill: #0d301f; stroke: none;stroke-miterlimit: 10;"/></g><g><line x1="0" y1="0" x2="1" y2="0" style="fill: none; stroke: rgba(255,255,255,0.2);stroke-width: 0.01;stroke-miterlimit: 10;"/></g><g><line x1="0" y1="0" x2="0.5000000000000001" y2="0.8660254037844386" style="fill: none; stroke: rgba(255,255,255,0.2);stroke-width: 0.01;stroke-miterlimit: 10;"/></g><g><line x1="0" y1="0" x2="-0.4999999999999998" y2="0.8660254037844387" style="fill: none; stroke: rgba(255,255,255,0.2);stroke-width: 0.01;stroke-miterlimit: 10;"/></g><g><line x1="0" y1="0" x2="-1" y2="1.2246467991473532e-16" style="fill: none; stroke: rgba(255,255,255,0.2);stroke-width: 0.01;stroke-miterlimit: 10;"/></g><g><line x1="0" y1="0" x2="-0.5000000000000004" y2="-0.8660254037844385" style="fill: none; stroke: rgba(255,255,255,0.2);stroke-width: 0.01;stroke-miterlimit: 10;"/></g><g><line x1="0" y1="0" x2="0.5000000000000001" y2="-0.8660254037844386" style="fill: none; stroke: rgba(255,255,255,0.2);stroke-width: 0.01;stroke-miterlimit: 10;"/></g><g><circle r="0.06" style="fill: #222; stroke: rgba(255,255,255,0.2);stroke-width: 0.02;stroke-miterlimit: 10;"/></g></g></g><g transform="translate(70.50000000000000000000,0.00000000000000000000)"><path d="M 0.00000000000000003062 0.50000000000000000000 L 13.00000000000000000000 0.50000000000000000000 L 13.00000000000000000000 3.50000000000000000000 L 20.00000000000000000000 0.00000000000000000000 L 13.00000000000000000000 -3.50000000000000000000 L 13.00000000000000000000 -0.50000000000000000000 L -0.00000000000000003062 -0.50000000000000000000 L 0.00000000000000003062 0.50000000000000000000 Z " style="fill: #ccc; stroke: #ccc;stroke-miterlimit: 10;"/></g><g transform="translate(131.61803398874991444245,0.00000000000000000000)"><g transform="scale(30.00000000000000000000)"><g><path d="M 0.50000000000000011102 0.86602540378443859659 L 0.00000000000000000000 0.00000000000000000000 L 1.00000000000000000000 0.00000000000000000000 L 0.50000000000000011102 0.86602540378443859659 Z " style="fill: #000; stroke: none;stroke-miterlimit: 10;"/></g><g><path d="M -0.49999999999999977796 0.86602540378443870761 L 0.00000000000000000000 0.00000000000000000000 L 0.50000000000000011102 0.86602540378443859659 L -0.49999999999999977796 0.86602540378443870761 Z " style="fill: #000; stroke: none;stroke-miterlimit: 10;"/></g><g><path d="M -0.50000000000000044409 -0.86602540378443848557 L 0.00000000000000000000 0.00000000000000000000 L -1.00000000000000000000 0.00000000000000012246 L -0.50000000000000044409 -0.86602540378443848557 Z " style="fill: #000; stroke: none;stroke-miterlimit: 10;"/></g><g><path d="M 0.50000000000000011102 -0.86602540378443859659 L 0.00000000000000000000 0.00000000000000000000 L -0.50000000000000044409 -0.86602540378443848557 L 0.50000000000000011102 -0.86602540378443859659 Z " style="fill: #000; stroke: none;stroke-miterlimit: 10;"/></g><g><path d="M 1.00000000000000000000 0.00000000000000000000 L 0.00000000000000000000 0.00000000000000000000 L 0.50000000000000000000 -0.17101007166283435645 L 1.00000000000000000000 0.00000000000000000000 Z " style="fill: #214068; stroke: none;stroke-miterlimit: 10;"/></g><g><path d="M 0.50000000000000011102 0.86602540378443859659 L 0.00000000000000000000 0.00000000000000000000 L 1.00000000000000000000 0.00000000000000000000 L 0.50000000000000011102 0.86602540378443859659 Z " style="fill: #214068; stroke: none;stroke-miterlimit: 10;"/></g><g><path d="M -0.49999999999999977796 0.86602540378443870761 L 0.00000000000000000000 0.00000000000000000000 L -0.39809906636301184424 0.34750766606080218946 L -0.49999999999999977796 0.86602540378443870761 Z " style="fill: #09294c; stroke: none;stroke-miterlimit: 10;"/></g><g><path d="M -1.00000000000000000000 0.00000000000000012246 L 0.00000000000000000000 0.00000000000000000000 L -0.50000000000000000000 0.17101007166283441197 L -1.00000000000000000000 0.00000000000000012246 Z " style="fill: #224935; stroke: none;stroke-miterlimit: 10;"/></g><g><path d="M 0.50000000000000011102 -0.86602540378443859659 L 0.00000000000000000000 0.00000000000000000000 L 0.39809906636301195526 -0.34750766606080207843 L 0.50000000000000011102 -0.86602540378443859659 Z " style="fill: #0d301f; stroke: none;stroke-miterlimit: 10;"/></g><g><line x1="0" y1="0" x2="1" y2="0" style="fill: none; stroke: rgba(255,255,255,0.2);stroke-width: 0.01;stroke-miterlimit: 10;"/></g><g><line x1="0" y1="0" x2="0.5000000000000001" y2="0.8660254037844386" style="fill: none; stroke: rgba(255,255,255,0.2);stroke-width: 0.01;stroke-miterlimit: 10;"/></g><g><line x1="0" y1="0" x2="-0.4999999999999998" y2="0.8660254037844387" style="fill: none; stroke: rgba(255,255,255,0.2);stroke-width: 0.01;stroke-miterlimit: 10;"/></g><g><line x1="0" y1="0" x2="-1" y2="1.2246467991473532e-16" style="fill: none; stroke: rgba(255,255,255,0.2);stroke-width: 0.01;stroke-miterlimit: 10;"/></g><g><line x1="0" y1="0" x2="-0.5000000000000004" y2="-0.8660254037844385" style="fill: none; stroke: rgba(255,255,255,0.2);stroke-width: 0.01;stroke-miterlimit: 10;"/></g><g><line x1="0" y1="0" x2="0.5000000000000001" y2="-0.8660254037844386" style="fill: none; stroke: rgba(255,255,255,0.2);stroke-width: 0.01;stroke-miterlimit: 10;"/></g><g><circle r="0.06" style="fill: #222; stroke: rgba(255,255,255,0.2);stroke-width: 0.02;stroke-miterlimit: 10;"/></g></g></g></g></g><g transform="translate(0.00000000000000000000,170.27881056766577216877)"><g><g transform="translate(30.00000000000000000000,0.00000000000000000000)"><g transform="scale(30.00000000000000000000)"><g><path d="M 0.50000000000000011102 0.86602540378443859659 L 0.00000000000000000000 0.00000000000000000000 L 1.00000000000000000000 0.00000000000000000000 L 0.50000000000000011102 0.86602540378443859659 Z " style="fill: #000; stroke: none;stroke-miterlimit: 10;"/></g><g><path d="M -0.49999999999999977796 0.86602540378443870761 L 0.00000000000000000000 0.00000000000000000000 L 0.50000000000000011102 0.86602540378443859659 L -0.49999999999999977796 0.86602540378443870761 Z " style="fill: #000; stroke: none;stroke-miterlimit: 10;"/></g><g><path d="M -0.50000000000000044409 -0.86602540378443848557 L 0.00000000000000000000 0.00000000000000000000 L -1.00000000000000000000 0.00000000000000012246 L -0.50000000000000044409 -0.86602540378443848557 Z " style="fill: #000; stroke: none;stroke-miterlimit: 10;"/></g><g><path d="M 0.50000000000000011102 -0.86602540378443859659 L 0.00000000000000000000 0.00000000000000000000 L -0.50000000000000044409 -0.86602540378443848557 L 0.50000000000000011102 -0.86602540378443859659 Z " style="fill: #000; stroke: none;stroke-miterlimit: 10;"/></g><g><path d="M 0.50000000000000011102 0.86602540378443859659 L 0.00000000000000000000 0.00000000000000000000 L 1.00000000000000000000 0.00000000000000000000 L 0.50000000000000011102 0.86602540378443859659 Z " style="fill: #214068; stroke: none;stroke-miterlimit: 10;"/></g><g><path d="M 1.00000000000000000000 0.00000000000000000000 L 0.00000000000000000000 0.00000000000000000000 L 0.50000000000000000000 -0.17101007166283435645 L 1.00000000000000000000 0.00000000000000000000 Z " style="fill: #09294c; stroke: none;stroke-miterlimit: 10;"/></g><g><path d="M -1.00000000000000000000 0.00000000000000012246 L 0.00000000000000000000 0.00000000000000000000 L -0.50000000000000000000 0.17101007166283441197 L -1.00000000000000000000 0.00000000000000012246 Z " style="fill: #224935; stroke: none;stroke-miterlimit: 10;"/></g><g><path d="M 0.50000000000000011102 -0.86602540378443859659 L 0.00000000000000000000 0.00000000000000000000 L 0.39809906636301195526 -0.34750766606080207843 L 0.50000000000000011102 -0.86602540378443859659 Z " style="fill: #0d301f; stroke: none;stroke-miterlimit: 10;"/></g><g><line x1="0" y1="0" x2="1" y2="0" style="fill: none; stroke: rgba(255,255,255,0.2);stroke-width: 0.01;stroke-miterlimit: 10;"/></g><g><line x1="0" y1="0" x2="0.5000000000000001" y2="0.8660254037844386" style="fill: none; stroke: rgba(255,255,255,0.2);stroke-width: 0.01;stroke-miterlimit: 10;"/></g><g><line x1="0" y1="0" x2="-0.4999999999999998" y2="0.8660254037844387" style="fill: none; stroke: rgba(255,255,255,0.2);stroke-width: 0.01;stroke-miterlimit: 10;"/></g><g><line x1="0" y1="0" x2="-1" y2="1.2246467991473532e-16" style="fill: none; stroke: rgba(255,255,255,0.2);stroke-width: 0.01;stroke-miterlimit: 10;"/></g><g><line x1="0" y1="0" x2="-0.5000000000000004" y2="-0.8660254037844385" style="fill: none; stroke: rgba(255,255,255,0.2);stroke-width: 0.01;stroke-miterlimit: 10;"/></g><g><line x1="0" y1="0" x2="0.5000000000000001" y2="-0.8660254037844386" style="fill: none; stroke: rgba(255,255,255,0.2);stroke-width: 0.01;stroke-miterlimit: 10;"/></g><g><circle r="0.06" style="fill: #222; stroke: rgba(255,255,255,0.2);stroke-width: 0.02;stroke-miterlimit: 10;"/></g></g></g><g transform="translate(70.50000000000000000000,0.00000000000000000000)"><path d="M 0.00000000000000003062 0.50000000000000000000 L 13.00000000000000000000 0.50000000000000000000 L 13.00000000000000000000 3.50000000000000000000 L 20.00000000000000000000 0.00000000000000000000 L 13.00000000000000000000 -3.50000000000000000000 L 13.00000000000000000000 -0.50000000000000000000 L -0.00000000000000003062 -0.50000000000000000000 L 0.00000000000000003062 0.50000000000000000000 Z " style="fill: #ccc; stroke: #ccc;stroke-miterlimit: 10;"/></g><g transform="translate(131.61803398874991444245,0.00000000000000000000)"><g transform="scale(30.00000000000000000000)"><g><path d="M 0.50000000000000011102 0.86602540378443859659 L 0.00000000000000000000 0.00000000000000000000 L 1.00000000000000000000 0.00000000000000000000 L 0.50000000000000011102 0.86602540378443859659 Z " style="fill: #000; stroke: none;stroke-miterlimit: 10;"/></g><g><path d="M -0.49999999999999977796 0.86602540378443870761 L 0.00000000000000000000 0.00000000000000000000 L 0.50000000000000011102 0.86602540378443859659 L -0.49999999999999977796 0.86602540378443870761 Z " style="fill: #000; stroke: none;stroke-miterlimit: 10;"/></g><g><path d="M -0.50000000000000044409 -0.86602540378443848557 L 0.00000000000000000000 0.00000000000000000000 L -1.00000000000000000000 0.00000000000000012246 L -0.50000000000000044409 -0.86602540378443848557 Z " style="fill: #000; stroke: none;stroke-miterlimit: 10;"/></g><g><path d="M 0.50000000000000011102 -0.86602540378443859659 L 0.00000000000000000000 0.00000000000000000000 L -0.50000000000000044409 -0.86602540378443848557 L 0.50000000000000011102 -0.86602540378443859659 Z " style="fill: #000; stroke: none;stroke-miterlimit: 10;"/></g><g><path d="M 1.00000000000000000000 0.00000000000000000000 L 0.00000000000000000000 0.00000000000000000000 L 0.50000000000000000000 -0.17101007166283435645 L 1.00000000000000000000 0.00000000000000000000 Z " style="fill: #214068; stroke: none;stroke-miterlimit: 10;"/></g><g><path d="M -0.49999999999999977796 0.86602540378443870761 L 0.00000000000000000000 0.00000000000000000000 L -0.39809906636301184424 0.34750766606080218946 L -0.49999999999999977796 0.86602540378443870761 Z " style="fill: #09294c; stroke: none;stroke-miterlimit: 10;"/></g><g><path d="M -0.49999999999999977796 0.86602540378443870761 L 0.00000000000000000000 0.00000000000000000000 L 0.50000000000000011102 0.86602540378443859659 L -0.49999999999999977796 0.86602540378443870761 Z " style="fill: #09294c; stroke: none;stroke-miterlimit: 10;"/></g><g><path d="M 0.50000000000000011102 0.86602540378443859659 L 0.00000000000000000000 0.00000000000000000000 L 1.00000000000000000000 0.00000000000000000000 L 0.50000000000000011102 0.86602540378443859659 Z " style="fill: #09294c; stroke: none;stroke-miterlimit: 10;"/></g><g><path d="M -1.00000000000000000000 0.00000000000000012246 L 0.00000000000000000000 0.00000000000000000000 L -0.50000000000000000000 0.17101007166283441197 L -1.00000000000000000000 0.00000000000000012246 Z " style="fill: #224935; stroke: none;stroke-miterlimit: 10;"/></g><g><path d="M 0.50000000000000011102 -0.86602540378443859659 L 0.00000000000000000000 0.00000000000000000000 L 0.39809906636301195526 -0.34750766606080207843 L 0.50000000000000011102 -0.86602540378443859659 Z " style="fill: #0d301f; stroke: none;stroke-miterlimit: 10;"/></g><g><line x1="0" y1="0" x2="1" y2="0" style="fill: none; stroke: rgba(255,255,255,0.2);stroke-width: 0.01;stroke-miterlimit: 10;"/></g><g><line x1="0" y1="0" x2="0.5000000000000001" y2="0.8660254037844386" style="fill: none; stroke: rgba(255,255,255,0.2);stroke-width: 0.01;stroke-miterlimit: 10;"/></g><g><line x1="0" y1="0" x2="-0.4999999999999998" y2="0.8660254037844387" style="fill: none; stroke: rgba(255,255,255,0.2);stroke-width: 0.01;stroke-miterlimit: 10;"/></g><g><line x1="0" y1="0" x2="-1" y2="1.2246467991473532e-16" style="fill: none; stroke: rgba(255,255,255,0.2);stroke-width: 0.01;stroke-miterlimit: 10;"/></g><g><line x1="0" y1="0" x2="-0.5000000000000004" y2="-0.8660254037844385" style="fill: none; stroke: rgba(255,255,255,0.2);stroke-width: 0.01;stroke-miterlimit: 10;"/></g><g><line x1="0" y1="0" x2="0.5000000000000001" y2="-0.8660254037844386" style="fill: none; stroke: rgba(255,255,255,0.2);stroke-width: 0.01;stroke-miterlimit: 10;"/></g><g><circle r="0.06" style="fill: #222; stroke: rgba(255,255,255,0.2);stroke-width: 0.02;stroke-miterlimit: 10;"/></g></g></g></g></g></g></g></g></g></g></g></svg>