<svg xmlns="http://www.w3.org/2000/svg" width="202" height="237" aria-hidden="true" style="pointer-events:none;position:absolute;left:0;top:0;transform-origin:left top;z-index:20"><rect width="192" height="227" rx="0" ry="0" style="fill:#333"/><path d="M.5.866 0 0h1zM-1 0h1l-.5.866zM.5-.866 0 0l-.5-.866z" style="fill:#000" transform="matrix(30 0 0 30 45 41.056)"/><path d="M1 0H0l.5-.171z" style="fill:#214068" transform="matrix(30 0 0 30 45 41.056)"/><path d="M.5.866 0 0l.102.519z" style="fill:#09294c" transform="matrix(30 0 0 30 45 41.056)"/><path d="M-.5.866 0 0l-.102.519z" style="fill:#224935" transform="matrix(30 0 0 30 45 41.056)"/><path d="M-1 0h1l-.5-.171z" style="fill:#0d301f" transform="matrix(30 0 0 30 45 41.056)"/><path d="M0 0h1M0 0l.5.866M0 0l-.5.866M0 0h-1m1 0-.5-.866M0 0l.5-.866" style="fill:none;stroke:rgba(255,255,255,.2);stroke-width:.01" transform="matrix(30 0 0 30 45 41.056)"/><circle r=".06" style="fill:#222;stroke:rgba(255,255,255,.2);stroke-width:.02" transform="matrix(30 0 0 30 45 41.056)"/><path d="M0 .5h13v3L20 0l-7-3.5v3H0z" style="fill:#ccc;stroke:#ccc" transform="translate(85.5 41.056)"/><path d="M.5.866 0 0h1zM-1 0h1l-.5.866zM.5-.866 0 0l-.5-.866z" style="fill:#000" transform="matrix(30 0 0 30 146.618 41.056)"/><path d="M1 0H0l.5-.171z" style="fill:#214068" transform="matrix(30 0 0 30 146.618 41.056)"/><path d="M.5.866 0 0l.102.519z" style="fill:#09294c" transform="matrix(30 0 0 30 146.618 41.056)"/><path d="M-.5.866 0 0l-.102.519z" style="fill:#224935" transform="matrix(30 0 0 30 146.618 41.056)"/><path d="M-1 0h1l-.5-.171z" style="fill:#0d301f" transform="matrix(30 0 0 30 146.618 41.056)"/><path d="M-.5-.866 0 0l-.398-.348zm1 0L0 0l.398-.348z" style="fill:#662a2c" transform="matrix(30 0 0 30 146.618 41.056)"/><path d="M.5-.866 0 0l-.5-.866z" style="fill:#662a2c" transform="matrix(30 0 0 30 146.618 41.056)"/><path d="M0 0h1M0 0l.5.866M0 0l-.5.866M0 0h-1m1 0-.5-.866M0 0l.5-.866" style="fill:none;stroke:rgba(255,255,255,.2);stroke-width:.01" transform="matrix(30 0 0 30 146.618 41.056)"/><circle r=".06" style="fill:#222;stroke:rgba(255,255,255,.2);stroke-width:.02" transform="matrix(30 0 0 30 146.618 41.056)"/><path d="M.5.866 0 0h1zM-1 0h1l-.5.866zM.5-.866 0 0l-.5-.866z" style="fill:#000" transform="matrix(30 0 0 30 45 113.167)"/><path d="M.5.866 0 0h1z" style="fill:#214068" transform="matrix(30 0 0 30 45 113.167)"/><path d="M1 0H0l.5-.171z" style="fill:#09294c" transform="matrix(30 0 0 30 45 113.167)"/><path d="M-.5.866 0 0l-.102.519z" style="fill:#224935" transform="matrix(30 0 0 30 45 113.167)"/><path d="M-1 0h1l-.5-.171z" style="fill:#0d301f" transform="matrix(30 0 0 30 45 113.167)"/><path d="M0 0h1M0 0l.5.866M0 0l-.5.866M0 0h-1m1 0-.5-.866M0 0l.5-.866" style="fill:none;stroke:rgba(255,255,255,.2);stroke-width:.01" transform="matrix(30 0 0 30 45 113.167)"/><circle r=".06" style="fill:#222;stroke:rgba(255,255,255,.2);stroke-width:.02" transform="matrix(30 0 0 30 45 113.167)"/><path d="M0 .5h13v3L20 0l-7-3.5v3H0z" style="fill:#ccc;stroke:#ccc" transform="translate(85.5 113.167)"/><path d="M.5.866 0 0h1zM-1 0h1l-.5.866zM.5-.866 0 0l-.5-.866z" style="fill:#000" transform="matrix(30 0 0 30 146.618 113.167)"/><path d="M1 0H0l.5-.171z" style="fill:#214068" transform="matrix(30 0 0 30 146.618 113.167)"/><path d="M.5.866 0 0l.102.519z" style="fill:#09294c" transform="matrix(30 0 0 30 146.618 113.167)"/><path d="M.5.866 0 0h1z" style="fill:#09294c" transform="matrix(30 0 0 30 146.618 113.167)"/><path d="M-.5.866 0 0l-.102.519z" style="fill:#224935" transform="matrix(30 0 0 30 146.618 113.167)"/><path d="M-1 0h1l-.5-.171z" style="fill:#0d301f" transform="matrix(30 0 0 30 146.618 113.167)"/><path d="M-.5-.866 0 0l-.398-.348zm1 0L0 0l.398-.348z" style="fill:#662a2c" transform="matrix(30 0 0 30 146.618 113.167)"/><path d="M.5-.866 0 0l-.5-.866z" style="fill:#662a2c" transform="matrix(30 0 0 30 146.618 113.167)"/><path d="M0 0h1M0 0l.5.866M0 0l-.5.866M0 0h-1m1 0-.5-.866M0 0l.5-.866" style="fill:none;stroke:rgba(255,255,255,.2);stroke-width:.01" transform="matrix(30 0 0 30 146.618 113.167)"/><circle r=".06" style="fill:#222;stroke:rgba(255,255,255,.2);stroke-width:.02" transform="matrix(30 0 0 30 146.618 113.167)"/><path d="M.5.866 0 0h1zM-1 0h1l-.5.866zM.5-.866 0 0l-.5-.866z" style="fill:#000" transform="matrix(30 0 0 30 45 185.279)"/><path d="M.5.866 0 0h1z" style="fill:#214068" transform="matrix(30 0 0 30 45 185.279)"/><path d="M1 0H0l.5-.171z" style="fill:#09294c" transform="matrix(30 0 0 30 45 185.279)"/><path d="M-1 0h1l-.5.866z" style="fill:#224935" transform="matrix(30 0 0 30 45 185.279)"/><path d="M-.5.866 0 0l-.102.519z" style="fill:#0d301f" transform="matrix(30 0 0 30 45 185.279)"/><path d="M0 0h1M0 0l.5.866M0 0l-.5.866M0 0h-1m1 0-.5-.866M0 0l.5-.866" style="fill:none;stroke:rgba(255,255,255,.2);stroke-width:.01" transform="matrix(30 0 0 30 45 185.279)"/><circle r=".06" style="fill:#222;stroke:rgba(255,255,255,.2);stroke-width:.02" transform="matrix(30 0 0 30 45 185.279)"/><path d="M0 .5h13v3L20 0l-7-3.5v3H0z" style="fill:#ccc;stroke:#ccc" transform="translate(85.5 185.279)"/><path d="M.5.866 0 0h1zM-1 0h1l-.5.866zM.5-.866 0 0l-.5-.866z" style="fill:#000" transform="matrix(30 0 0 30 146.618 185.279)"/><path d="M1 0H0l.5-.171z" style="fill:#214068" transform="matrix(30 0 0 30 146.618 185.279)"/><path d="M.5.866 0 0l.102.519z" style="fill:#09294c" transform="matrix(30 0 0 30 146.618 185.279)"/><path d="M.5.866 0 0h1z" style="fill:#09294c" transform="matrix(30 0 0 30 146.618 185.279)"/><path d="M-.5.866 0 0l-.102.519z" style="fill:#224935" transform="matrix(30 0 0 30 146.618 185.279)"/><path d="M-1 0h1l-.5-.171zm0 0h1l-.5.866z" style="fill:#0d301f" transform="matrix(30 0 0 30 146.618 185.279)"/><path d="M-.5-.866 0 0l-.398-.348zm1 0L0 0l.398-.348z" style="fill:#662a2c" transform="matrix(30 0 0 30 146.618 185.279)"/><path d="M.5-.866 0 0l-.5-.866z" style="fill:#662a2c" transform="matrix(30 0 0 30 146.618 185.279)"/><path d="M0 0h1M0 0l.5.866M0 0l-.5.866M0 0h-1m1 0-.5-.866M0 0l.5-.866" style="fill:none;stroke:rgba(255,255,255,.2);stroke-width:.01" transform="matrix(30 0 0 30 146.618 185.279)"/><circle r=".06" style="fill:#222;stroke:rgba(255,255,255,.2);stroke-width:.02" transform="matrix(30 0 0 30 146.618 185.279)"/></svg>