<svg xmlns="http://www.w3.org/2000/svg" width="381" height="715" aria-hidden="true" style="pointer-events:none;position:absolute;left:0;top:0;transform-origin:left top;z-index:20"><rect width="371" height="705" rx="0" ry="0" style="fill:#333"/><path d="M.309.951 0 0h1z" style="fill:#000" transform="matrix(30 0 0 30 39.359 43.578)"/><path d="M-.809.588 0 0l.309.951z" style="fill:#000" transform="matrix(30 0 0 30 39.359 43.578)"/><path d="M-.809-.588 0 0l-.809.588z" style="fill:#000" transform="matrix(30 0 0 30 39.359 43.578)"/><path d="M.309-.951 0 0l-.809-.588z" style="fill:#000" transform="matrix(30 0 0 30 39.359 43.578)"/><path d="M.309.951 0 0h1zm0-1.902L0 0l.348-.413z" style="fill:#214068" transform="matrix(30 0 0 30 39.359 43.578)"/><path d="M1 0H0l.5-.203z" style="fill:#09294c" transform="matrix(30 0 0 30 39.359 43.578)"/><path d="M0 0h1M0 0l.309.951M0 0l-.809.588M0 0l-.809-.588M0 0l.309-.951" style="fill:none;stroke:rgba(255,255,255,.2);stroke-width:.01" transform="matrix(30 0 0 30 39.359 43.578)"/><circle r=".06" style="fill:#222;stroke:rgba(255,255,255,.2);stroke-width:.02" transform="matrix(30 0 0 30 39.359 43.578)"/><path d="M0 .5h13v3L20 0l-7-3.5v3H0z" style="fill:#ccc;stroke:#ccc" transform="translate(79.859 43.578)"/><path d="M.309.951 0 0h1z" style="fill:#000" transform="matrix(30 0 0 30 135.335 43.578)"/><path d="M-.809.588 0 0l.309.951z" style="fill:#000" transform="matrix(30 0 0 30 135.335 43.578)"/><path d="M-.809-.588 0 0l-.809.588z" style="fill:#000" transform="matrix(30 0 0 30 135.335 43.578)"/><path d="M.309-.951 0 0l-.809-.588z" style="fill:#000" transform="matrix(30 0 0 30 135.335 43.578)"/><path d="M1 0H0l.5-.203z" style="fill:#214068" transform="matrix(30 0 0 30 135.335 43.578)"/><path d="M.309-.951 0 0l.348-.413z" style="fill:#09294c" transform="matrix(30 0 0 30 135.335 43.578)"/><path d="M.309-.951 0 0l-.809-.588z" style="fill:#09294c" transform="matrix(30 0 0 30 135.335 43.578)"/><path d="M-.809-.588 0 0l-.809.588zm0 1.176L0 0l.309.951z" style="fill:#09294c" transform="matrix(30 0 0 30 135.335 43.578)"/><path d="M.309.951 0 0h1z" style="fill:#09294c" transform="matrix(30 0 0 30 135.335 43.578)"/><path d="M0 0h1M0 0l.309.951M0 0l-.809.588M0 0l-.809-.588M0 0l.309-.951" style="fill:none;stroke:rgba(255,255,255,.2);stroke-width:.01" transform="matrix(30 0 0 30 135.335 43.578)"/><circle r=".06" style="fill:#222;stroke:rgba(255,255,255,.2);stroke-width:.02" transform="matrix(30 0 0 30 135.335 43.578)"/><path d="M.309.951 0 0h1z" style="fill:#000" transform="matrix(30 0 0 30 229.694 43.578)"/><path d="M-.809.588 0 0l.309.951z" style="fill:#000" transform="matrix(30 0 0 30 229.694 43.578)"/><path d="M-.809-.588 0 0l-.809.588z" style="fill:#000" transform="matrix(30 0 0 30 229.694 43.578)"/><path d="M.309-.951 0 0l-.809-.588z" style="fill:#000" transform="matrix(30 0 0 30 229.694 43.578)"/><path d="M.309.951 0 0h1zm0-1.902L0 0l.348-.413z" style="fill:#214068" transform="matrix(30 0 0 30 229.694 43.578)"/><path d="M.309-.951 0 0l-.809-.588z" style="fill:#09294c" transform="matrix(30 0 0 30 229.694 43.578)"/><path d="M0 0h1M0 0l.309.951M0 0l-.809.588M0 0l-.809-.588M0 0l.309-.951" style="fill:none;stroke:rgba(255,255,255,.2);stroke-width:.01" transform="matrix(30 0 0 30 229.694 43.578)"/><circle r=".06" style="fill:#222;stroke:rgba(255,255,255,.2);stroke-width:.02" transform="matrix(30 0 0 30 229.694 43.578)"/><path d="M0 .5h13v3L20 0l-7-3.5v3H0z" style="fill:#ccc;stroke:#ccc" transform="translate(270.194 43.578)"/><path d="M.309.951 0 0h1z" style="fill:#000" transform="matrix(30 0 0 30 325.67 43.578)"/><path d="M-.809.588 0 0l.309.951z" style="fill:#000" transform="matrix(30 0 0 30 325.67 43.578)"/><path d="M-.809-.588 0 0l-.809.588z" style="fill:#000" transform="matrix(30 0 0 30 325.67 43.578)"/><path d="M.309-.951 0 0l-.809-.588z" style="fill:#000" transform="matrix(30 0 0 30 325.67 43.578)"/><path d="M1 0H0l.5-.203zM.309-.951 0 0l.348-.413zm0 1.902L0 0h1z" style="fill:#214068" transform="matrix(30 0 0 30 325.67 43.578)"/><path d="M.309-.951 0 0l-.809-.588z" style="fill:#09294c" transform="matrix(30 0 0 30 325.67 43.578)"/><path d="M0 0h1M0 0l.309.951M0 0l-.809.588M0 0l-.809-.588M0 0l.309-.951" style="fill:none;stroke:rgba(255,255,255,.2);stroke-width:.01" transform="matrix(30 0 0 30 325.67 43.578)"/><circle r=".06" style="fill:#222;stroke:rgba(255,255,255,.2);stroke-width:.02" transform="matrix(30 0 0 30 325.67 43.578)"/><path d="M.309.951 0 0h1z" style="fill:#000" transform="matrix(30 0 0 30 39.359 120.734)"/><path d="M-.809.588 0 0l.309.951z" style="fill:#000" transform="matrix(30 0 0 30 39.359 120.734)"/><path d="M-.809-.588 0 0l-.809.588z" style="fill:#000" transform="matrix(30 0 0 30 39.359 120.734)"/><path d="M.309-.951 0 0l-.809-.588z" style="fill:#000" transform="matrix(30 0 0 30 39.359 120.734)"/><path d="M-.809.588 0 0l.309.951zM.309-.951 0 0l.348-.413z" style="fill:#214068" transform="matrix(30 0 0 30 39.359 120.734)"/><path d="M-.809-.588 0 0l-.809.588zM1 0H0l.5-.203z" style="fill:#224935" transform="matrix(30 0 0 30 39.359 120.734)"/><path d="M0 0h1M0 0l.309.951M0 0l-.809.588M0 0l-.809-.588M0 0l.309-.951" style="fill:none;stroke:rgba(255,255,255,.2);stroke-width:.01" transform="matrix(30 0 0 30 39.359 120.734)"/><circle r=".06" style="fill:#222;stroke:rgba(255,255,255,.2);stroke-width:.02" transform="matrix(30 0 0 30 39.359 120.734)"/><path d="M0 .5h13v3L20 0l-7-3.5v3H0z" style="fill:#ccc;stroke:#ccc" transform="translate(79.859 120.734)"/><path d="M.309.951 0 0h1z" style="fill:#000" transform="matrix(30 0 0 30 135.335 120.734)"/><path d="M-.809.588 0 0l.309.951z" style="fill:#000" transform="matrix(30 0 0 30 135.335 120.734)"/><path d="M-.809-.588 0 0l-.809.588z" style="fill:#000" transform="matrix(30 0 0 30 135.335 120.734)"/><path d="M.309-.951 0 0l-.809-.588z" style="fill:#000" transform="matrix(30 0 0 30 135.335 120.734)"/><path d="M1 0H0l.5-.203zM.309-.951 0 0l.348-.413zm-1.118.363L0 0l-.809.588zm0 1.176L0 0l.309.951z" style="fill:#214068" transform="matrix(30 0 0 30 135.335 120.734)"/><path d="M0 0h1M0 0l.309.951M0 0l-.809.588M0 0l-.809-.588M0 0l.309-.951" style="fill:none;stroke:rgba(255,255,255,.2);stroke-width:.01" transform="matrix(30 0 0 30 135.335 120.734)"/><circle r=".06" style="fill:#222;stroke:rgba(255,255,255,.2);stroke-width:.02" transform="matrix(30 0 0 30 135.335 120.734)"/><path d="M.309.951 0 0h1z" style="fill:#000" transform="matrix(30 0 0 30 229.694 120.734)"/><path d="M-.809.588 0 0l.309.951z" style="fill:#000" transform="matrix(30 0 0 30 229.694 120.734)"/><path d="M-.809-.588 0 0l-.809.588z" style="fill:#000" transform="matrix(30 0 0 30 229.694 120.734)"/><path d="M.309-.951 0 0l-.809-.588z" style="fill:#000" transform="matrix(30 0 0 30 229.694 120.734)"/><path d="M-.809.588 0 0l.309.951z" style="fill:#214068" transform="matrix(30 0 0 30 229.694 120.734)"/><path d="M-.809-.588 0 0l-.809.588z" style="fill:#09294c" transform="matrix(30 0 0 30 229.694 120.734)"/><path d="M1 0H0l.5-.203z" style="fill:#224935" transform="matrix(30 0 0 30 229.694 120.734)"/><path d="M.309-.951 0 0l.348-.413z" style="fill:#0d301f" transform="matrix(30 0 0 30 229.694 120.734)"/><path d="M0 0h1M0 0l.309.951M0 0l-.809.588M0 0l-.809-.588M0 0l.309-.951" style="fill:none;stroke:rgba(255,255,255,.2);stroke-width:.01" transform="matrix(30 0 0 30 229.694 120.734)"/><circle r=".06" style="fill:#222;stroke:rgba(255,255,255,.2);stroke-width:.02" transform="matrix(30 0 0 30 229.694 120.734)"/><path d="M0 .5h13v3L20 0l-7-3.5v3H0z" style="fill:#ccc;stroke:#ccc" transform="translate(270.194 120.734)"/><path d="M.309.951 0 0h1z" style="fill:#000" transform="matrix(30 0 0 30 325.67 120.734)"/><path d="M-.809.588 0 0l.309.951z" style="fill:#000" transform="matrix(30 0 0 30 325.67 120.734)"/><path d="M-.809-.588 0 0l-.809.588z" style="fill:#000" transform="matrix(30 0 0 30 325.67 120.734)"/><path d="M.309-.951 0 0l-.809-.588z" style="fill:#000" transform="matrix(30 0 0 30 325.67 120.734)"/><path d="M1 0H0l.5-.203zM-.809.588 0 0l.309.951z" style="fill:#214068" transform="matrix(30 0 0 30 325.67 120.734)"/><path d="M.309.951 0 0h1z" style="fill:#214068" transform="matrix(30 0 0 30 325.67 120.734)"/><path d="M.309-.951 0 0l.348-.413z" style="fill:#09294c" transform="matrix(30 0 0 30 325.67 120.734)"/><path d="M.309-.951 0 0l-.809-.588z" style="fill:#09294c" transform="matrix(30 0 0 30 325.67 120.734)"/><path d="M-.809-.588 0 0l-.809.588z" style="fill:#09294c" transform="matrix(30 0 0 30 325.67 120.734)"/><path d="M0 0h1M0 0l.309.951M0 0l-.809.588M0 0l-.809-.588M0 0l.309-.951" style="fill:none;stroke:rgba(255,255,255,.2);stroke-width:.01" transform="matrix(30 0 0 30 325.67 120.734)"/><circle r=".06" style="fill:#222;stroke:rgba(255,255,255,.2);stroke-width:.02" transform="matrix(30 0 0 30 325.67 120.734)"/><path d="M.309.951 0 0h1z" style="fill:#000" transform="matrix(30 0 0 30 39.359 197.89)"/><path d="M-.809.588 0 0l.309.951z" style="fill:#000" transform="matrix(30 0 0 30 39.359 197.89)"/><path d="M-.809-.588 0 0l-.809.588z" style="fill:#000" transform="matrix(30 0 0 30 39.359 197.89)"/><path d="M.309-.951 0 0l-.809-.588z" style="fill:#000" transform="matrix(30 0 0 30 39.359 197.89)"/><path d="M.309.951 0 0h1zm0-1.902L0 0l.348-.413z" style="fill:#214068" transform="matrix(30 0 0 30 39.359 197.89)"/><path d="M.309-.951 0 0l-.809-.588zM1 0H0l.5-.203z" style="fill:#224935" transform="matrix(30 0 0 30 39.359 197.89)"/><path d="M0 0h1M0 0l.309.951M0 0l-.809.588M0 0l-.809-.588M0 0l.309-.951" style="fill:none;stroke:rgba(255,255,255,.2);stroke-width:.01" transform="matrix(30 0 0 30 39.359 197.89)"/><circle r=".06" style="fill:#222;stroke:rgba(255,255,255,.2);stroke-width:.02" transform="matrix(30 0 0 30 39.359 197.89)"/><path d="M0 .5h13v3L20 0l-7-3.5v3H0z" style="fill:#ccc;stroke:#ccc" transform="translate(79.859 197.89)"/><path d="M.309.951 0 0h1z" style="fill:#000" transform="matrix(30 0 0 30 135.335 197.89)"/><path d="M-.809.588 0 0l.309.951z" style="fill:#000" transform="matrix(30 0 0 30 135.335 197.89)"/><path d="M-.809-.588 0 0l-.809.588z" style="fill:#000" transform="matrix(30 0 0 30 135.335 197.89)"/><path d="M.309-.951 0 0l-.809-.588z" style="fill:#000" transform="matrix(30 0 0 30 135.335 197.89)"/><path d="M1 0H0l.5-.203zM.309-.951 0 0l.348-.413z" style="fill:#214068" transform="matrix(30 0 0 30 135.335 197.89)"/><path d="M.309-.951 0 0l-.809-.588zm0 1.902L0 0h1z" style="fill:#214068" transform="matrix(30 0 0 30 135.335 197.89)"/><path d="M0 0h1M0 0l.309.951M0 0l-.809.588M0 0l-.809-.588M0 0l.309-.951" style="fill:none;stroke:rgba(255,255,255,.2);stroke-width:.01" transform="matrix(30 0 0 30 135.335 197.89)"/><circle r=".06" style="fill:#222;stroke:rgba(255,255,255,.2);stroke-width:.02" transform="matrix(30 0 0 30 135.335 197.89)"/><path d="M.309.951 0 0h1z" style="fill:#000" transform="matrix(30 0 0 30 229.694 197.89)"/><path d="M-.809.588 0 0l.309.951z" style="fill:#000" transform="matrix(30 0 0 30 229.694 197.89)"/><path d="M-.809-.588 0 0l-.809.588z" style="fill:#000" transform="matrix(30 0 0 30 229.694 197.89)"/><path d="M.309-.951 0 0l-.809-.588z" style="fill:#000" transform="matrix(30 0 0 30 229.694 197.89)"/><path d="M.309.951 0 0h1zm0-1.902L0 0l-.809-.588z" style="fill:#214068" transform="matrix(30 0 0 30 229.694 197.89)"/><path d="M1 0H0l.5-.203z" style="fill:#224935" transform="matrix(30 0 0 30 229.694 197.89)"/><path d="M.309-.951 0 0l.348-.413z" style="fill:#0d301f" transform="matrix(30 0 0 30 229.694 197.89)"/><path d="M0 0h1M0 0l.309.951M0 0l-.809.588M0 0l-.809-.588M0 0l.309-.951" style="fill:none;stroke:rgba(255,255,255,.2);stroke-width:.01" transform="matrix(30 0 0 30 229.694 197.89)"/><circle r=".06" style="fill:#222;stroke:rgba(255,255,255,.2);stroke-width:.02" transform="matrix(30 0 0 30 229.694 197.89)"/><path d="M0 .5h13v3L20 0l-7-3.5v3H0z" style="fill:#ccc;stroke:#ccc" transform="translate(270.194 197.89)"/><path d="M.309.951 0 0h1z" style="fill:#000" transform="matrix(30 0 0 30 325.67 197.89)"/><path d="M-.809.588 0 0l.309.951z" style="fill:#000" transform="matrix(30 0 0 30 325.67 197.89)"/><path d="M-.809-.588 0 0l-.809.588z" style="fill:#000" transform="matrix(30 0 0 30 325.67 197.89)"/><path d="M.309-.951 0 0l-.809-.588z" style="fill:#000" transform="matrix(30 0 0 30 325.67 197.89)"/><path d="M-.809-.588 0 0l-.809.588z" style="fill:#214068" transform="matrix(30 0 0 30 325.67 197.89)"/><path d="M.309-.951 0 0l-.809-.588zM-.809.588 0 0l.309.951z" style="fill:#214068" transform="matrix(30 0 0 30 325.67 197.89)"/><path d="M.309.951 0 0h1z" style="fill:#214068" transform="matrix(30 0 0 30 325.67 197.89)"/><path d="M1 0H0l.5-.203z" style="fill:#224935" transform="matrix(30 0 0 30 325.67 197.89)"/><path d="M.309-.951 0 0l.348-.413z" style="fill:#0d301f" transform="matrix(30 0 0 30 325.67 197.89)"/><path d="M0 0h1M0 0l.309.951M0 0l-.809.588M0 0l-.809-.588M0 0l.309-.951" style="fill:none;stroke:rgba(255,255,255,.2);stroke-width:.01" transform="matrix(30 0 0 30 325.67 197.89)"/><circle r=".06" style="fill:#222;stroke:rgba(255,255,255,.2);stroke-width:.02" transform="matrix(30 0 0 30 325.67 197.89)"/><path d="M.309.951 0 0h1z" style="fill:#000" transform="matrix(30 0 0 30 39.359 275.046)"/><path d="M-.809.588 0 0l.309.951z" style="fill:#000" transform="matrix(30 0 0 30 39.359 275.046)"/><path d="M-.809-.588 0 0l-.809.588z" style="fill:#000" transform="matrix(30 0 0 30 39.359 275.046)"/><path d="M.309-.951 0 0l-.809-.588z" style="fill:#000" transform="matrix(30 0 0 30 39.359 275.046)"/><path d="M.309.951 0 0h1z" style="fill:#214068" transform="matrix(30 0 0 30 39.359 275.046)"/><path d="M.309-.951 0 0l-.809-.588z" style="fill:#09294c" transform="matrix(30 0 0 30 39.359 275.046)"/><path d="M1 0H0l.5-.203z" style="fill:#224935" transform="matrix(30 0 0 30 39.359 275.046)"/><path d="M.309-.951 0 0l.348-.413z" style="fill:#0d301f" transform="matrix(30 0 0 30 39.359 275.046)"/><path d="M0 0h1M0 0l.309.951M0 0l-.809.588M0 0l-.809-.588M0 0l.309-.951" style="fill:none;stroke:rgba(255,255,255,.2);stroke-width:.01" transform="matrix(30 0 0 30 39.359 275.046)"/><circle r=".06" style="fill:#222;stroke:rgba(255,255,255,.2);stroke-width:.02" transform="matrix(30 0 0 30 39.359 275.046)"/><path d="M0 .5h13v3L20 0l-7-3.5v3H0z" style="fill:#ccc;stroke:#ccc" transform="translate(79.859 275.046)"/><path d="M.309.951 0 0h1z" style="fill:#000" transform="matrix(30 0 0 30 135.335 275.046)"/><path d="M-.809.588 0 0l.309.951z" style="fill:#000" transform="matrix(30 0 0 30 135.335 275.046)"/><path d="M-.809-.588 0 0l-.809.588z" style="fill:#000" transform="matrix(30 0 0 30 135.335 275.046)"/><path d="M.309-.951 0 0l-.809-.588z" style="fill:#000" transform="matrix(30 0 0 30 135.335 275.046)"/><path d="M1 0H0l.5-.203zM.309.951 0 0h1z" style="fill:#214068" transform="matrix(30 0 0 30 135.335 275.046)"/><path d="M.309-.951 0 0l.348-.413z" style="fill:#09294c" transform="matrix(30 0 0 30 135.335 275.046)"/><path d="M.309-.951 0 0l-.809-.588z" style="fill:#09294c" transform="matrix(30 0 0 30 135.335 275.046)"/><path d="M0 0h1M0 0l.309.951M0 0l-.809.588M0 0l-.809-.588M0 0l.309-.951" style="fill:none;stroke:rgba(255,255,255,.2);stroke-width:.01" transform="matrix(30 0 0 30 135.335 275.046)"/><circle r=".06" style="fill:#222;stroke:rgba(255,255,255,.2);stroke-width:.02" transform="matrix(30 0 0 30 135.335 275.046)"/><path d="M.309.951 0 0h1z" style="fill:#000" transform="matrix(30 0 0 30 229.694 275.046)"/><path d="M-.809.588 0 0l.309.951z" style="fill:#000" transform="matrix(30 0 0 30 229.694 275.046)"/><path d="M-.809-.588 0 0l-.809.588z" style="fill:#000" transform="matrix(30 0 0 30 229.694 275.046)"/><path d="M.309-.951 0 0l-.809-.588z" style="fill:#000" transform="matrix(30 0 0 30 229.694 275.046)"/><path d="M.309.951 0 0h1zm0-1.902L0 0l.348-.413z" style="fill:#214068" transform="matrix(30 0 0 30 229.694 275.046)"/><path d="M-.809-.588 0 0l-.809.588zM1 0H0l.5-.203z" style="fill:#224935" transform="matrix(30 0 0 30 229.694 275.046)"/><path d="M0 0h1M0 0l.309.951M0 0l-.809.588M0 0l-.809-.588M0 0l.309-.951" style="fill:none;stroke:rgba(255,255,255,.2);stroke-width:.01" transform="matrix(30 0 0 30 229.694 275.046)"/><circle r=".06" style="fill:#222;stroke:rgba(255,255,255,.2);stroke-width:.02" transform="matrix(30 0 0 30 229.694 275.046)"/><path d="M0 .5h13v3L20 0l-7-3.5v3H0z" style="fill:#ccc;stroke:#ccc" transform="translate(270.194 275.046)"/><path d="M.309.951 0 0h1z" style="fill:#000" transform="matrix(30 0 0 30 325.67 275.046)"/><path d="M-.809.588 0 0l.309.951z" style="fill:#000" transform="matrix(30 0 0 30 325.67 275.046)"/><path d="M-.809-.588 0 0l-.809.588z" style="fill:#000" transform="matrix(30 0 0 30 325.67 275.046)"/><path d="M.309-.951 0 0l-.809-.588z" style="fill:#000" transform="matrix(30 0 0 30 325.67 275.046)"/><path d="M1 0H0l.5-.203zM.309-.951 0 0l.348-.413zm-1.118.363L0 0l-.809.588zM.309.951 0 0h1z" style="fill:#214068" transform="matrix(30 0 0 30 325.67 275.046)"/><path d="M0 0h1M0 0l.309.951M0 0l-.809.588M0 0l-.809-.588M0 0l.309-.951" style="fill:none;stroke:rgba(255,255,255,.2);stroke-width:.01" transform="matrix(30 0 0 30 325.67 275.046)"/><circle r=".06" style="fill:#222;stroke:rgba(255,255,255,.2);stroke-width:.02" transform="matrix(30 0 0 30 325.67 275.046)"/><path d="M.309.951 0 0h1z" style="fill:#000" transform="matrix(30 0 0 30 39.359 352.202)"/><path d="M-.809.588 0 0l.309.951z" style="fill:#000" transform="matrix(30 0 0 30 39.359 352.202)"/><path d="M-.809-.588 0 0l-.809.588z" style="fill:#000" transform="matrix(30 0 0 30 39.359 352.202)"/><path d="M.309-.951 0 0l-.809-.588z" style="fill:#000" transform="matrix(30 0 0 30 39.359 352.202)"/><path d="M.309.951 0 0h1zm0-1.902L0 0l.348-.413z" style="fill:#214068" transform="matrix(30 0 0 30 39.359 352.202)"/><path d="M-.809-.588 0 0l-.809.588z" style="fill:#224935" transform="matrix(30 0 0 30 39.359 352.202)"/><path d="M.309-.951 0 0l-.809-.588z" style="fill:#0d301f" transform="matrix(30 0 0 30 39.359 352.202)"/><path d="M0 0h1M0 0l.309.951M0 0l-.809.588M0 0l-.809-.588M0 0l.309-.951" style="fill:none;stroke:rgba(255,255,255,.2);stroke-width:.01" transform="matrix(30 0 0 30 39.359 352.202)"/><circle r=".06" style="fill:#222;stroke:rgba(255,255,255,.2);stroke-width:.02" transform="matrix(30 0 0 30 39.359 352.202)"/><path d="M0 .5h13v3L20 0l-7-3.5v3H0z" style="fill:#ccc;stroke:#ccc" transform="translate(79.859 352.202)"/><path d="M.309.951 0 0h1z" style="fill:#000" transform="matrix(30 0 0 30 135.335 352.202)"/><path d="M-.809.588 0 0l.309.951z" style="fill:#000" transform="matrix(30 0 0 30 135.335 352.202)"/><path d="M-.809-.588 0 0l-.809.588z" style="fill:#000" transform="matrix(30 0 0 30 135.335 352.202)"/><path d="M.309-.951 0 0l-.809-.588z" style="fill:#000" transform="matrix(30 0 0 30 135.335 352.202)"/><path d="M-.809-.588 0 0l-.809.588z" style="fill:#214068" transform="matrix(30 0 0 30 135.335 352.202)"/><path d="M.309-.951 0 0l-.809-.588z" style="fill:#09294c" transform="matrix(30 0 0 30 135.335 352.202)"/><path d="M1 0H0l.5-.203zM.309-.951 0 0l.348-.413zm0 1.902L0 0h1z" style="fill:#224935" transform="matrix(30 0 0 30 135.335 352.202)"/><path d="M0 0h1M0 0l.309.951M0 0l-.809.588M0 0l-.809-.588M0 0l.309-.951" style="fill:none;stroke:rgba(255,255,255,.2);stroke-width:.01" transform="matrix(30 0 0 30 135.335 352.202)"/><circle r=".06" style="fill:#222;stroke:rgba(255,255,255,.2);stroke-width:.02" transform="matrix(30 0 0 30 135.335 352.202)"/><path d="M.309.951 0 0h1z" style="fill:#000" transform="matrix(30 0 0 30 229.694 352.202)"/><path d="M-.809.588 0 0l.309.951z" style="fill:#000" transform="matrix(30 0 0 30 229.694 352.202)"/><path d="M-.809-.588 0 0l-.809.588z" style="fill:#000" transform="matrix(30 0 0 30 229.694 352.202)"/><path d="M.309-.951 0 0l-.809-.588z" style="fill:#000" transform="matrix(30 0 0 30 229.694 352.202)"/><path d="M.309.951 0 0h1zM-.809-.588 0 0l-.809.588z" style="fill:#214068" transform="matrix(30 0 0 30 229.694 352.202)"/><path d="M1 0H0l.5-.203z" style="fill:#224935" transform="matrix(30 0 0 30 229.694 352.202)"/><path d="M.309-.951 0 0l.348-.413z" style="fill:#0d301f" transform="matrix(30 0 0 30 229.694 352.202)"/><path d="M0 0h1M0 0l.309.951M0 0l-.809.588M0 0l-.809-.588M0 0l.309-.951" style="fill:none;stroke:rgba(255,255,255,.2);stroke-width:.01" transform="matrix(30 0 0 30 229.694 352.202)"/><circle r=".06" style="fill:#222;stroke:rgba(255,255,255,.2);stroke-width:.02" transform="matrix(30 0 0 30 229.694 352.202)"/><path d="M0 .5h13v3L20 0l-7-3.5v3H0z" style="fill:#ccc;stroke:#ccc" transform="translate(270.194 352.202)"/><path d="M.309.951 0 0h1z" style="fill:#000" transform="matrix(30 0 0 30 325.67 352.202)"/><path d="M-.809.588 0 0l.309.951z" style="fill:#000" transform="matrix(30 0 0 30 325.67 352.202)"/><path d="M-.809-.588 0 0l-.809.588z" style="fill:#000" transform="matrix(30 0 0 30 325.67 352.202)"/><path d="M.309-.951 0 0l-.809-.588z" style="fill:#000" transform="matrix(30 0 0 30 325.67 352.202)"/><path d="M-.809.588 0 0l.309.951z" style="fill:#214068" transform="matrix(30 0 0 30 325.67 352.202)"/><path d="M-.809-.588 0 0l-.809.588zM.309.951 0 0h1z" style="fill:#214068" transform="matrix(30 0 0 30 325.67 352.202)"/><path d="M1 0H0l.5-.203z" style="fill:#224935" transform="matrix(30 0 0 30 325.67 352.202)"/><path d="M.309-.951 0 0l.348-.413z" style="fill:#0d301f" transform="matrix(30 0 0 30 325.67 352.202)"/><path d="M0 0h1M0 0l.309.951M0 0l-.809.588M0 0l-.809-.588M0 0l.309-.951" style="fill:none;stroke:rgba(255,255,255,.2);stroke-width:.01" transform="matrix(30 0 0 30 325.67 352.202)"/><circle r=".06" style="fill:#222;stroke:rgba(255,255,255,.2);stroke-width:.02" transform="matrix(30 0 0 30 325.67 352.202)"/><path d="M.309.951 0 0h1z" style="fill:#000" transform="matrix(30 0 0 30 39.359 429.359)"/><path d="M-.809.588 0 0l.309.951z" style="fill:#000" transform="matrix(30 0 0 30 39.359 429.359)"/><path d="M-.809-.588 0 0l-.809.588z" style="fill:#000" transform="matrix(30 0 0 30 39.359 429.359)"/><path d="M.309-.951 0 0l-.809-.588z" style="fill:#000" transform="matrix(30 0 0 30 39.359 429.359)"/><path d="M.309.951 0 0h1z" style="fill:#214068" transform="matrix(30 0 0 30 39.359 429.359)"/><path d="M-.809-.588 0 0l-.809.588z" style="fill:#09294c" transform="matrix(30 0 0 30 39.359 429.359)"/><path d="M1 0H0l.5-.203z" style="fill:#224935" transform="matrix(30 0 0 30 39.359 429.359)"/><path d="M.309-.951 0 0l.348-.413z" style="fill:#0d301f" transform="matrix(30 0 0 30 39.359 429.359)"/><path d="M0 0h1M0 0l.309.951M0 0l-.809.588M0 0l-.809-.588M0 0l.309-.951" style="fill:none;stroke:rgba(255,255,255,.2);stroke-width:.01" transform="matrix(30 0 0 30 39.359 429.359)"/><circle r=".06" style="fill:#222;stroke:rgba(255,255,255,.2);stroke-width:.02" transform="matrix(30 0 0 30 39.359 429.359)"/><path d="M0 .5h13v3L20 0l-7-3.5v3H0z" style="fill:#ccc;stroke:#ccc" transform="translate(79.859 429.359)"/><path d="M.309.951 0 0h1z" style="fill:#000" transform="matrix(30 0 0 30 135.335 429.359)"/><path d="M-.809.588 0 0l.309.951z" style="fill:#000" transform="matrix(30 0 0 30 135.335 429.359)"/><path d="M-.809-.588 0 0l-.809.588z" style="fill:#000" transform="matrix(30 0 0 30 135.335 429.359)"/><path d="M.309-.951 0 0l-.809-.588z" style="fill:#000" transform="matrix(30 0 0 30 135.335 429.359)"/><path d="M1 0H0l.5-.203zM.309.951 0 0h1z" style="fill:#214068" transform="matrix(30 0 0 30 135.335 429.359)"/><path d="M.309-.951 0 0l.348-.413z" style="fill:#09294c" transform="matrix(30 0 0 30 135.335 429.359)"/><path d="M.309-.951 0 0l-.809-.588z" style="fill:#09294c" transform="matrix(30 0 0 30 135.335 429.359)"/><path d="M-.809-.588 0 0l-.809.588z" style="fill:#09294c" transform="matrix(30 0 0 30 135.335 429.359)"/><path d="M0 0h1M0 0l.309.951M0 0l-.809.588M0 0l-.809-.588M0 0l.309-.951" style="fill:none;stroke:rgba(255,255,255,.2);stroke-width:.01" transform="matrix(30 0 0 30 135.335 429.359)"/><circle r=".06" style="fill:#222;stroke:rgba(255,255,255,.2);stroke-width:.02" transform="matrix(30 0 0 30 135.335 429.359)"/><path d="M.309.951 0 0h1z" style="fill:#000" transform="matrix(30 0 0 30 229.694 429.359)"/><path d="M-.809.588 0 0l.309.951z" style="fill:#000" transform="matrix(30 0 0 30 229.694 429.359)"/><path d="M-.809-.588 0 0l-.809.588z" style="fill:#000" transform="matrix(30 0 0 30 229.694 429.359)"/><path d="M.309-.951 0 0l-.809-.588z" style="fill:#000" transform="matrix(30 0 0 30 229.694 429.359)"/><path d="M.309.951 0 0h1zm0-1.902L0 0l.348-.413z" style="fill:#214068" transform="matrix(30 0 0 30 229.694 429.359)"/><path d="M-.809.588 0 0l.309.951zM1 0H0l.5-.203z" style="fill:#224935" transform="matrix(30 0 0 30 229.694 429.359)"/><path d="M0 0h1M0 0l.309.951M0 0l-.809.588M0 0l-.809-.588M0 0l.309-.951" style="fill:none;stroke:rgba(255,255,255,.2);stroke-width:.01" transform="matrix(30 0 0 30 229.694 429.359)"/><circle r=".06" style="fill:#222;stroke:rgba(255,255,255,.2);stroke-width:.02" transform="matrix(30 0 0 30 229.694 429.359)"/><path d="M0 .5h13v3L20 0l-7-3.5v3H0z" style="fill:#ccc;stroke:#ccc" transform="translate(270.194 429.359)"/><path d="M.309.951 0 0h1z" style="fill:#000" transform="matrix(30 0 0 30 325.67 429.359)"/><path d="M-.809.588 0 0l.309.951z" style="fill:#000" transform="matrix(30 0 0 30 325.67 429.359)"/><path d="M-.809-.588 0 0l-.809.588z" style="fill:#000" transform="matrix(30 0 0 30 325.67 429.359)"/><path d="M.309-.951 0 0l-.809-.588z" style="fill:#000" transform="matrix(30 0 0 30 325.67 429.359)"/><path d="M1 0H0l.5-.203zM.309-.951 0 0l.348-.413zM-.809.588 0 0l.309.951z" style="fill:#214068" transform="matrix(30 0 0 30 325.67 429.359)"/><path d="M.309.951 0 0h1z" style="fill:#214068" transform="matrix(30 0 0 30 325.67 429.359)"/><path d="M0 0h1M0 0l.309.951M0 0l-.809.588M0 0l-.809-.588M0 0l.309-.951" style="fill:none;stroke:rgba(255,255,255,.2);stroke-width:.01" transform="matrix(30 0 0 30 325.67 429.359)"/><circle r=".06" style="fill:#222;stroke:rgba(255,255,255,.2);stroke-width:.02" transform="matrix(30 0 0 30 325.67 429.359)"/><path d="M.309.951 0 0h1z" style="fill:#000" transform="matrix(30 0 0 30 39.359 506.515)"/><path d="M-.809.588 0 0l.309.951z" style="fill:#000" transform="matrix(30 0 0 30 39.359 506.515)"/><path d="M-.809-.588 0 0l-.809.588z" style="fill:#000" transform="matrix(30 0 0 30 39.359 506.515)"/><path d="M.309-.951 0 0l-.809-.588z" style="fill:#000" transform="matrix(30 0 0 30 39.359 506.515)"/><path d="M.309.951 0 0h1zm0-1.902L0 0l.348-.413z" style="fill:#214068" transform="matrix(30 0 0 30 39.359 506.515)"/><path d="M-.809.588 0 0l.309.951z" style="fill:#224935" transform="matrix(30 0 0 30 39.359 506.515)"/><path d="M.309-.951 0 0l-.809-.588z" style="fill:#0d301f" transform="matrix(30 0 0 30 39.359 506.515)"/><path d="M0 0h1M0 0l.309.951M0 0l-.809.588M0 0l-.809-.588M0 0l.309-.951" style="fill:none;stroke:rgba(255,255,255,.2);stroke-width:.01" transform="matrix(30 0 0 30 39.359 506.515)"/><circle r=".06" style="fill:#222;stroke:rgba(255,255,255,.2);stroke-width:.02" transform="matrix(30 0 0 30 39.359 506.515)"/><path d="M0 .5h13v3L20 0l-7-3.5v3H0z" style="fill:#ccc;stroke:#ccc" transform="translate(79.859 506.515)"/><path d="M.309.951 0 0h1z" style="fill:#000" transform="matrix(30 0 0 30 135.335 506.515)"/><path d="M-.809.588 0 0l.309.951z" style="fill:#000" transform="matrix(30 0 0 30 135.335 506.515)"/><path d="M-.809-.588 0 0l-.809.588z" style="fill:#000" transform="matrix(30 0 0 30 135.335 506.515)"/><path d="M.309-.951 0 0l-.809-.588z" style="fill:#000" transform="matrix(30 0 0 30 135.335 506.515)"/><path d="M-.809.588 0 0l.309.951z" style="fill:#214068" transform="matrix(30 0 0 30 135.335 506.515)"/><path d="M.309-.951 0 0l-.809-.588z" style="fill:#09294c" transform="matrix(30 0 0 30 135.335 506.515)"/><path d="M1 0H0l.5-.203zM.309-.951 0 0l.348-.413zm0 1.902L0 0h1z" style="fill:#224935" transform="matrix(30 0 0 30 135.335 506.515)"/><path d="M0 0h1M0 0l.309.951M0 0l-.809.588M0 0l-.809-.588M0 0l.309-.951" style="fill:none;stroke:rgba(255,255,255,.2);stroke-width:.01" transform="matrix(30 0 0 30 135.335 506.515)"/><circle r=".06" style="fill:#222;stroke:rgba(255,255,255,.2);stroke-width:.02" transform="matrix(30 0 0 30 135.335 506.515)"/><path d="M.309.951 0 0h1z" style="fill:#000" transform="matrix(30 0 0 30 229.694 506.515)"/><path d="M-.809.588 0 0l.309.951z" style="fill:#000" transform="matrix(30 0 0 30 229.694 506.515)"/><path d="M-.809-.588 0 0l-.809.588z" style="fill:#000" transform="matrix(30 0 0 30 229.694 506.515)"/><path d="M.309-.951 0 0l-.809-.588z" style="fill:#000" transform="matrix(30 0 0 30 229.694 506.515)"/><path d="M.309.951 0 0h1zm0-1.902L0 0l.348-.413z" style="fill:#214068" transform="matrix(30 0 0 30 229.694 506.515)"/><path d="M-.809.588 0 0l.309.951z" style="fill:#224935" transform="matrix(30 0 0 30 229.694 506.515)"/><path d="M-.809-.588 0 0l-.809.588z" style="fill:#0d301f" transform="matrix(30 0 0 30 229.694 506.515)"/><path d="M0 0h1M0 0l.309.951M0 0l-.809.588M0 0l-.809-.588M0 0l.309-.951" style="fill:none;stroke:rgba(255,255,255,.2);stroke-width:.01" transform="matrix(30 0 0 30 229.694 506.515)"/><circle r=".06" style="fill:#222;stroke:rgba(255,255,255,.2);stroke-width:.02" transform="matrix(30 0 0 30 229.694 506.515)"/><path d="M0 .5h13v3L20 0l-7-3.5v3H0z" style="fill:#ccc;stroke:#ccc" transform="translate(270.194 506.515)"/><path d="M.309.951 0 0h1z" style="fill:#000" transform="matrix(30 0 0 30 325.67 506.515)"/><path d="M-.809.588 0 0l.309.951z" style="fill:#000" transform="matrix(30 0 0 30 325.67 506.515)"/><path d="M-.809-.588 0 0l-.809.588z" style="fill:#000" transform="matrix(30 0 0 30 325.67 506.515)"/><path d="M.309-.951 0 0l-.809-.588z" style="fill:#000" transform="matrix(30 0 0 30 325.67 506.515)"/><path d="M-.809.588 0 0l.309.951z" style="fill:#214068" transform="matrix(30 0 0 30 325.67 506.515)"/><path d="M-.809-.588 0 0l-.809.588z" style="fill:#09294c" transform="matrix(30 0 0 30 325.67 506.515)"/><path d="M1 0H0l.5-.203zM.309-.951 0 0l.348-.413zm0 1.902L0 0h1z" style="fill:#224935" transform="matrix(30 0 0 30 325.67 506.515)"/><path d="M0 0h1M0 0l.309.951M0 0l-.809.588M0 0l-.809-.588M0 0l.309-.951" style="fill:none;stroke:rgba(255,255,255,.2);stroke-width:.01" transform="matrix(30 0 0 30 325.67 506.515)"/><circle r=".06" style="fill:#222;stroke:rgba(255,255,255,.2);stroke-width:.02" transform="matrix(30 0 0 30 325.67 506.515)"/><path d="M.309.951 0 0h1z" style="fill:#000" transform="matrix(30 0 0 30 39.359 583.67)"/><path d="M-.809.588 0 0l.309.951z" style="fill:#000" transform="matrix(30 0 0 30 39.359 583.67)"/><path d="M-.809-.588 0 0l-.809.588z" style="fill:#000" transform="matrix(30 0 0 30 39.359 583.67)"/><path d="M.309-.951 0 0l-.809-.588z" style="fill:#000" transform="matrix(30 0 0 30 39.359 583.67)"/><path d="M.309.951 0 0h1z" style="fill:#214068" transform="matrix(30 0 0 30 39.359 583.67)"/><path d="M-.809.588 0 0l.309.951z" style="fill:#09294c" transform="matrix(30 0 0 30 39.359 583.67)"/><path d="M1 0H0l.5-.203z" style="fill:#224935" transform="matrix(30 0 0 30 39.359 583.67)"/><path d="M.309-.951 0 0l.348-.413z" style="fill:#0d301f" transform="matrix(30 0 0 30 39.359 583.67)"/><path d="M0 0h1M0 0l.309.951M0 0l-.809.588M0 0l-.809-.588M0 0l.309-.951" style="fill:none;stroke:rgba(255,255,255,.2);stroke-width:.01" transform="matrix(30 0 0 30 39.359 583.67)"/><circle r=".06" style="fill:#222;stroke:rgba(255,255,255,.2);stroke-width:.02" transform="matrix(30 0 0 30 39.359 583.67)"/><path d="M0 .5h13v3L20 0l-7-3.5v3H0z" style="fill:#ccc;stroke:#ccc" transform="translate(79.859 583.67)"/><path d="M.309.951 0 0h1z" style="fill:#000" transform="matrix(30 0 0 30 135.335 583.67)"/><path d="M-.809.588 0 0l.309.951z" style="fill:#000" transform="matrix(30 0 0 30 135.335 583.67)"/><path d="M-.809-.588 0 0l-.809.588z" style="fill:#000" transform="matrix(30 0 0 30 135.335 583.67)"/><path d="M.309-.951 0 0l-.809-.588z" style="fill:#000" transform="matrix(30 0 0 30 135.335 583.67)"/><path d="M1 0H0l.5-.203zM.309.951 0 0h1z" style="fill:#214068" transform="matrix(30 0 0 30 135.335 583.67)"/><path d="M.309-.951 0 0l.348-.413z" style="fill:#09294c" transform="matrix(30 0 0 30 135.335 583.67)"/><path d="M.309-.951 0 0l-.809-.588z" style="fill:#09294c" transform="matrix(30 0 0 30 135.335 583.67)"/><path d="M-.809-.588 0 0l-.809.588zm0 1.176L0 0l.309.951z" style="fill:#09294c" transform="matrix(30 0 0 30 135.335 583.67)"/><path d="M0 0h1M0 0l.309.951M0 0l-.809.588M0 0l-.809-.588M0 0l.309-.951" style="fill:none;stroke:rgba(255,255,255,.2);stroke-width:.01" transform="matrix(30 0 0 30 135.335 583.67)"/><circle r=".06" style="fill:#222;stroke:rgba(255,255,255,.2);stroke-width:.02" transform="matrix(30 0 0 30 135.335 583.67)"/><path d="M.309.951 0 0h1z" style="fill:#000" transform="matrix(30 0 0 30 229.694 583.67)"/><path d="M-.809.588 0 0l.309.951z" style="fill:#000" transform="matrix(30 0 0 30 229.694 583.67)"/><path d="M-.809-.588 0 0l-.809.588z" style="fill:#000" transform="matrix(30 0 0 30 229.694 583.67)"/><path d="M.309-.951 0 0l-.809-.588z" style="fill:#000" transform="matrix(30 0 0 30 229.694 583.67)"/><path d="M.309.951 0 0h1zm0-1.902L0 0l-.809-.588z" style="fill:#214068" transform="matrix(30 0 0 30 229.694 583.67)"/><path d="M-.809.588 0 0l.309.951z" style="fill:#224935" transform="matrix(30 0 0 30 229.694 583.67)"/><path d="M.309-.951 0 0l.348-.413z" style="fill:#0d301f" transform="matrix(30 0 0 30 229.694 583.67)"/><path d="M-.809-.588 0 0l-.809.588z" style="fill:#662a2c" transform="matrix(30 0 0 30 229.694 583.67)"/><path d="M1 0H0l.5-.203z" style="fill:#4b1016" transform="matrix(30 0 0 30 229.694 583.67)"/><path d="M0 0h1M0 0l.309.951M0 0l-.809.588M0 0l-.809-.588M0 0l.309-.951" style="fill:none;stroke:rgba(255,255,255,.2);stroke-width:.01" transform="matrix(30 0 0 30 229.694 583.67)"/><circle r=".06" style="fill:#222;stroke:rgba(255,255,255,.2);stroke-width:.02" transform="matrix(30 0 0 30 229.694 583.67)"/><path d="M0 .5h13v3L20 0l-7-3.5v3H0z" style="fill:#ccc;stroke:#ccc" transform="translate(270.194 583.67)"/><path d="M.309.951 0 0h1z" style="fill:#000" transform="matrix(30 0 0 30 325.67 583.67)"/><path d="M-.809.588 0 0l.309.951z" style="fill:#000" transform="matrix(30 0 0 30 325.67 583.67)"/><path d="M-.809-.588 0 0l-.809.588z" style="fill:#000" transform="matrix(30 0 0 30 325.67 583.67)"/><path d="M.309-.951 0 0l-.809-.588z" style="fill:#000" transform="matrix(30 0 0 30 325.67 583.67)"/><path d="M.309.951 0 0h1zm0-1.902L0 0l-.809-.588z" style="fill:#214068" transform="matrix(30 0 0 30 325.67 583.67)"/><path d="M1 0H0l.5-.203zM.309-.951 0 0l.348-.413z" style="fill:#224935" transform="matrix(30 0 0 30 325.67 583.67)"/><path d="M-.809-.588 0 0l-.809.588zm0 1.176L0 0l.309.951z" style="fill:#0d301f" transform="matrix(30 0 0 30 325.67 583.67)"/><path d="M0 0h1M0 0l.309.951M0 0l-.809.588M0 0l-.809-.588M0 0l.309-.951" style="fill:none;stroke:rgba(255,255,255,.2);stroke-width:.01" transform="matrix(30 0 0 30 325.67 583.67)"/><circle r=".06" style="fill:#222;stroke:rgba(255,255,255,.2);stroke-width:.02" transform="matrix(30 0 0 30 325.67 583.67)"/><path d="M.309.951 0 0h1z" style="fill:#000" transform="matrix(30 0 0 30 39.359 660.827)"/><path d="M-.809.588 0 0l.309.951z" style="fill:#000" transform="matrix(30 0 0 30 39.359 660.827)"/><path d="M-.809-.588 0 0l-.809.588z" style="fill:#000" transform="matrix(30 0 0 30 39.359 660.827)"/><path d="M.309-.951 0 0l-.809-.588z" style="fill:#000" transform="matrix(30 0 0 30 39.359 660.827)"/><path d="M.309.951 0 0h1z" style="fill:#214068" transform="matrix(30 0 0 30 39.359 660.827)"/><path d="M.309-.951 0 0l-.809-.588z" style="fill:#09294c" transform="matrix(30 0 0 30 39.359 660.827)"/><path d="M-.809.588 0 0l.309.951zM.309-.951 0 0l.348-.413z" style="fill:#224935" transform="matrix(30 0 0 30 39.359 660.827)"/><path d="M-.809-.588 0 0l-.809.588z" style="fill:#662a2c" transform="matrix(30 0 0 30 39.359 660.827)"/><path d="M1 0H0l.5-.203z" style="fill:#4b1016" transform="matrix(30 0 0 30 39.359 660.827)"/><path d="M0 0h1M0 0l.309.951M0 0l-.809.588M0 0l-.809-.588M0 0l.309-.951" style="fill:none;stroke:rgba(255,255,255,.2);stroke-width:.01" transform="matrix(30 0 0 30 39.359 660.827)"/><circle r=".06" style="fill:#222;stroke:rgba(255,255,255,.2);stroke-width:.02" transform="matrix(30 0 0 30 39.359 660.827)"/><path d="M0 .5h13v3L20 0l-7-3.5v3H0z" style="fill:#ccc;stroke:#ccc" transform="translate(79.859 660.827)"/><path d="M.309.951 0 0h1z" style="fill:#000" transform="matrix(30 0 0 30 135.335 660.827)"/><path d="M-.809.588 0 0l.309.951z" style="fill:#000" transform="matrix(30 0 0 30 135.335 660.827)"/><path d="M-.809-.588 0 0l-.809.588z" style="fill:#000" transform="matrix(30 0 0 30 135.335 660.827)"/><path d="M.309-.951 0 0l-.809-.588z" style="fill:#000" transform="matrix(30 0 0 30 135.335 660.827)"/><path d="M-.809.588 0 0l.309.951zM.309-.951 0 0l.348-.413z" style="fill:#214068" transform="matrix(30 0 0 30 135.335 660.827)"/><path d="M.309-.951 0 0l-.809-.588z" style="fill:#224935" transform="matrix(30 0 0 30 135.335 660.827)"/><path d="M-.809-.588 0 0l-.809.588z" style="fill:#224935" transform="matrix(30 0 0 30 135.335 660.827)"/><path d="M1 0H0l.5-.203zM.309.951 0 0h1z" style="fill:#0d301f" transform="matrix(30 0 0 30 135.335 660.827)"/><path d="M0 0h1M0 0l.309.951M0 0l-.809.588M0 0l-.809-.588M0 0l.309-.951" style="fill:none;stroke:rgba(255,255,255,.2);stroke-width:.01" transform="matrix(30 0 0 30 135.335 660.827)"/><circle r=".06" style="fill:#222;stroke:rgba(255,255,255,.2);stroke-width:.02" transform="matrix(30 0 0 30 135.335 660.827)"/></svg>