<svg xmlns="http://www.w3.org/2000/svg" width="208" height="106" aria-hidden="true" style="pointer-events:none;position:absolute;left:0;top:0;transform-origin:left top;z-index:20"><rect width="198" height="96" rx="0" ry="0" style="fill:#333"/><path d="M0 0h1M0 0h-1" style="fill:none;stroke:rgba(255,255,255,.2);stroke-width:.01" transform="matrix(30 0 0 30 46.5 19.05)"/><circle r=".06" style="fill:#222;stroke:rgba(255,255,255,.2);stroke-width:.02" transform="matrix(30 0 0 30 46.5 19.05)"/><path d="M0 0h1M0 0h-1" style="fill:none;stroke:#fff;stroke-width:.1;stroke-linecap:round" transform="matrix(30 0 0 30 46.5 19.05)"/><path d="M0 .5h13v3L20 0l-7-3.5v3H0z" style="fill:#ccc;stroke:#ccc" transform="translate(88.5 19.309)"/><path d="M0 0h1M0 0h-1" style="fill:none;stroke:rgba(255,255,255,.2);stroke-width:.01" transform="matrix(30 0 0 30 151.118 19.05)"/><circle r=".06" style="fill:#222;stroke:rgba(255,255,255,.2);stroke-width:.02" transform="matrix(30 0 0 30 151.118 19.05)"/><circle r=".12" style="fill:none;stroke:red;stroke-width:.03" transform="matrix(30 0 0 30 151.118 19.05)"/><path d="M0 0h1M0 0h-1" style="fill:none;stroke:#fff;stroke-width:.1;stroke-linecap:round" transform="matrix(30 0 0 30 151.118 19.05)"/><path d="M0 0h1M0 0h-1" style="fill:none;stroke:rgba(255,255,255,.2);stroke-width:.01" transform="matrix(30 0 0 30 47.25 47.668)"/><circle r=".06" style="fill:#222;stroke:rgba(255,255,255,.2);stroke-width:.02" transform="matrix(30 0 0 30 47.25 47.668)"/><circle r=".12" style="fill:none;stroke:red;stroke-width:.03" transform="matrix(30 0 0 30 47.25 47.668)"/><path d="M0 0h-1" style="fill:none;stroke:#fff;stroke-width:.1;stroke-linecap:round" transform="matrix(30 0 0 30 47.25 47.668)"/><path d="M0 .5h13v3L20 0l-7-3.5v3H0z" style="fill:#ccc;stroke:#ccc" transform="translate(87.75 47.927)"/><path d="M0 0h1M0 0h-1" style="fill:none;stroke:rgba(255,255,255,.2);stroke-width:.01" transform="matrix(30 0 0 30 150.368 47.668)"/><circle r=".06" style="fill:#222;stroke:rgba(255,255,255,.2);stroke-width:.02" transform="matrix(30 0 0 30 150.368 47.668)"/><circle r=".12" style="fill:none;stroke:red;stroke-width:.03" transform="matrix(30 0 0 30 150.368 47.668)"/><path d="M0 0h1M0 0h-1" style="fill:none;stroke:#fff;stroke-width:.1;stroke-linecap:round" transform="matrix(30 0 0 30 150.368 47.668)"/><path d="M0 0h1M0 0h-1" style="fill:none;stroke:rgba(255,255,255,.2);stroke-width:.01" transform="matrix(30 0 0 30 47.625 76.286)"/><circle r=".06" style="fill:#222;stroke:rgba(255,255,255,.2);stroke-width:.02" transform="matrix(30 0 0 30 47.625 76.286)"/><circle r=".12" style="fill:none;stroke:red;stroke-width:.03" transform="matrix(30 0 0 30 47.625 76.286)"/><path d="M0 0h-1" style="fill:none;stroke:red;stroke-width:.05;stroke-linecap:round" transform="matrix(30 0 0 30 47.625 76.286)"/><path d="M0 .5h13v3L20 0l-7-3.5v3H0z" style="fill:#ccc;stroke:#ccc" transform="translate(88.125 76.545)"/><path d="M0 0h1M0 0h-1" style="fill:none;stroke:rgba(255,255,255,.2);stroke-width:.01" transform="matrix(30 0 0 30 149.993 76.286)"/><circle r=".06" style="fill:#222;stroke:rgba(255,255,255,.2);stroke-width:.02" transform="matrix(30 0 0 30 149.993 76.286)"/><circle r=".12" style="fill:none;stroke:red;stroke-width:.03" transform="matrix(30 0 0 30 149.993 76.286)"/><path d="M0 0h1M0 0h-1" style="fill:none;stroke:red;stroke-width:.05;stroke-linecap:round" transform="matrix(30 0 0 30 149.993 76.286)"/></svg>