<svg xmlns="http://www.w3.org/2000/svg" width="148" height="172" aria-hidden="true" style="pointer-events:none;position:absolute;left:0;top:0;transform-origin:left top;z-index:20"><rect width="138" height="162" rx="0" ry="0" style="fill:#333"/><path d="M0 0h1L.5.3zm0 0 .5-.3.5.3z" style="fill:#214068" transform="matrix(30 0 0 30 17.25 24)"/><path d="M0 0h1" style="fill:none;stroke:rgba(255,255,255,.2);stroke-width:.01" transform="matrix(30 0 0 30 17.25 24)"/><path d="M0 .5h13v3L20 0l-7-3.5v3H0z" style="fill:#ccc;stroke:#ccc" transform="translate(57.75 24)"/><path d="M0 0h1L.5.3zm0 0 .5-.3.5.3z" style="fill:#214068" transform="matrix(30 0 0 30 89.618 24)"/><path d="M0 0h1" style="fill:none;stroke:rgba(255,255,255,.2);stroke-width:.01" transform="matrix(30 0 0 30 89.618 24)"/><path d="M0 0h1" style="fill:none;stroke:red;stroke-width:.05;stroke-linecap:round" transform="matrix(30 0 0 30 89.618 24)"/><path d="M0 0h1L.5.3z" style="fill:#214068" transform="matrix(30 0 0 30 16.5 62)"/><path d="m0 0 .5-.3.5.3z" style="fill:#09294c" transform="matrix(30 0 0 30 16.5 62)"/><path d="M0 0h1" style="fill:none;stroke:rgba(255,255,255,.2);stroke-width:.01" transform="matrix(30 0 0 30 16.5 62)"/><path d="M0 .5h13v3L20 0l-7-3.5v3H0z" style="fill:#ccc;stroke:#ccc" transform="translate(57 62)"/><path d="M0 0h1L.5.3z" style="fill:#214068" transform="matrix(30 0 0 30 89.618 62)"/><path d="m0 0 .5-.3.5.3z" style="fill:#09294c" transform="matrix(30 0 0 30 89.618 62)"/><path d="M0 0h1" style="fill:none;stroke:rgba(255,255,255,.2);stroke-width:.01" transform="matrix(30 0 0 30 89.618 62)"/><path d="M0 0h1" style="fill:none;stroke:#fff;stroke-width:.1;stroke-linecap:round" transform="matrix(30 0 0 30 89.618 62)"/><path d="M0 0h1" style="fill:none;stroke:rgba(255,255,255,.2);stroke-width:.01" transform="matrix(30 0 0 30 16.5 100)"/><path d="M0 0h1" style="fill:none;stroke:#fff;stroke-width:.1;stroke-linecap:round" transform="matrix(30 0 0 30 16.5 100)"/><path d="M0 .5h13v3L20 0l-7-3.5v3H0z" style="fill:#ccc;stroke:#ccc" transform="translate(58.5 100)"/><path d="M0 0h1L.5.3z" style="fill:#214068" transform="matrix(30 0 0 30 91.118 100)"/><path d="m0 0 .5-.3.5.3z" style="fill:#09294c" transform="matrix(30 0 0 30 91.118 100)"/><path d="M0 0h1" style="fill:none;stroke:rgba(255,255,255,.2);stroke-width:.01" transform="matrix(30 0 0 30 91.118 100)"/><path d="M0 0h1" style="fill:none;stroke:#fff;stroke-width:.1;stroke-linecap:round" transform="matrix(30 0 0 30 91.118 100)"/><path d="M0 0h1" style="fill:none;stroke:rgba(255,255,255,.2);stroke-width:.01" transform="matrix(30 0 0 30 17.25 138)"/><path d="M0 0h1" style="fill:none;stroke:red;stroke-width:.05;stroke-linecap:round" transform="matrix(30 0 0 30 17.25 138)"/><path d="M0 .5h13v3L20 0l-7-3.5v3H0z" style="fill:#ccc;stroke:#ccc" transform="translate(58.5 138)"/><path d="M0 0h1L.5.3zm0 0 .5-.3.5.3z" style="fill:#214068" transform="matrix(30 0 0 30 90.368 138)"/><path d="M0 0h1" style="fill:none;stroke:rgba(255,255,255,.2);stroke-width:.01" transform="matrix(30 0 0 30 90.368 138)"/><path d="M0 0h1" style="fill:none;stroke:red;stroke-width:.05;stroke-linecap:round" transform="matrix(30 0 0 30 90.368 138)"/></svg>