<svg xmlns="http://www.w3.org/2000/svg" focusable="false" aria-hidden="true" width="148" height="172" style="pointer-events: none; position: absolute; left: 0px; top: 0px; transform-origin: left top; z-index: 20;"><defs/><g><g><g><g><rect x="0" y="0" width="138" height="162" rx="0" ry="0" style="fill: #333; stroke: none;stroke-miterlimit: 10;"/></g><g transform="translate(10.00000000000000000000,10.00000000000000000000)"><g transform="translate(5.00000000000000000000,5.00000000000000000000)"><g><g transform="translate(2.25000000000000000000,9.00000000000000000000)"><g><g><g transform="scale(30.00000000000000000000)"><g><path d="M 0.00000000000000000000 0.00000000000000000000 L 1.00000000000000000000 0.00000000000000000000 L 0.50000000000000000000 0.29999999999999998890 L 0.00000000000000000000 0.00000000000000000000 Z " style="fill: #214068; stroke: none;stroke-miterlimit: 10;"/></g><g><path d="M 0.00000000000000000000 0.00000000000000000000 L 0.50000000000000000000 -0.29999999999999998890 L 1.00000000000000000000 0.00000000000000000000 L 0.00000000000000000000 0.00000000000000000000 Z " style="fill: #214068; stroke: none;stroke-miterlimit: 10;"/></g><g><line x1="0" y1="0" x2="1" y2="0" style="fill: none; stroke: rgba(255,255,255,0.2);stroke-width: 0.01;stroke-miterlimit: 10;"/></g></g></g><g transform="translate(40.50000000000000000000,0.00000000000000000000)"><path d="M 0.00000000000000003062 0.50000000000000000000 L 13.00000000000000000000 0.50000000000000000000 L 13.00000000000000000000 3.50000000000000000000 L 20.00000000000000000000 0.00000000000000000000 L 13.00000000000000000000 -3.50000000000000000000 L 13.00000000000000000000 -0.50000000000000000000 L -0.00000000000000003062 -0.50000000000000000000 L 0.00000000000000003062 0.50000000000000000000 Z " style="fill: #ccc; stroke: #ccc;stroke-miterlimit: 10;"/></g><g transform="translate(72.36803398874990023160,0.00000000000000000000)"><g transform="scale(30.00000000000000000000)"><g><path d="M 0.00000000000000000000 0.00000000000000000000 L 1.00000000000000000000 0.00000000000000000000 L 0.50000000000000000000 0.29999999999999998890 L 0.00000000000000000000 0.00000000000000000000 Z " style="fill: #214068; stroke: none;stroke-miterlimit: 10;"/></g><g><path d="M 0.00000000000000000000 0.00000000000000000000 L 0.50000000000000000000 -0.29999999999999998890 L 1.00000000000000000000 0.00000000000000000000 L 0.00000000000000000000 0.00000000000000000000 Z " style="fill: #214068; stroke: none;stroke-miterlimit: 10;"/></g><g><line x1="0" y1="0" x2="1" y2="0" style="fill: none; stroke: rgba(255,255,255,0.2);stroke-width: 0.01;stroke-miterlimit: 10;"/></g><g><line x1="0" y1="0" x2="1" y2="0" style="fill: none; stroke: #f00;stroke-width: 0.05;stroke-linecap: round;stroke-miterlimit: 10;"/></g></g></g></g></g><g transform="translate(1.50000000000000000000,47.00000000000000000000)"><g><g><g transform="scale(30.00000000000000000000)"><g><path d="M 0.00000000000000000000 0.00000000000000000000 L 1.00000000000000000000 0.00000000000000000000 L 0.50000000000000000000 0.29999999999999998890 L 0.00000000000000000000 0.00000000000000000000 Z " style="fill: #214068; stroke: none;stroke-miterlimit: 10;"/></g><g><path d="M 0.00000000000000000000 0.00000000000000000000 L 0.50000000000000000000 -0.29999999999999998890 L 1.00000000000000000000 0.00000000000000000000 L 0.00000000000000000000 0.00000000000000000000 Z " style="fill: #09294c; stroke: none;stroke-miterlimit: 10;"/></g><g><line x1="0" y1="0" x2="1" y2="0" style="fill: none; stroke: rgba(255,255,255,0.2);stroke-width: 0.01;stroke-miterlimit: 10;"/></g></g></g><g transform="translate(40.50000000000000000000,0.00000000000000000000)"><path d="M 0.00000000000000003062 0.50000000000000000000 L 13.00000000000000000000 0.50000000000000000000 L 13.00000000000000000000 3.50000000000000000000 L 20.00000000000000000000 0.00000000000000000000 L 13.00000000000000000000 -3.50000000000000000000 L 13.00000000000000000000 -0.50000000000000000000 L -0.00000000000000003062 -0.50000000000000000000 L 0.00000000000000003062 0.50000000000000000000 Z " style="fill: #ccc; stroke: #ccc;stroke-miterlimit: 10;"/></g><g transform="translate(73.11803398874990023160,0.00000000000000000000)"><g transform="scale(30.00000000000000000000)"><g><path d="M 0.00000000000000000000 0.00000000000000000000 L 1.00000000000000000000 0.00000000000000000000 L 0.50000000000000000000 0.29999999999999998890 L 0.00000000000000000000 0.00000000000000000000 Z " style="fill: #214068; stroke: none;stroke-miterlimit: 10;"/></g><g><path d="M 0.00000000000000000000 0.00000000000000000000 L 0.50000000000000000000 -0.29999999999999998890 L 1.00000000000000000000 0.00000000000000000000 L 0.00000000000000000000 0.00000000000000000000 Z " style="fill: #09294c; stroke: none;stroke-miterlimit: 10;"/></g><g><line x1="0" y1="0" x2="1" y2="0" style="fill: none; stroke: rgba(255,255,255,0.2);stroke-width: 0.01;stroke-miterlimit: 10;"/></g><g><line x1="0" y1="0" x2="1" y2="0" style="fill: none; stroke: #fff;stroke-width: 0.1;stroke-linecap: round;stroke-miterlimit: 10;"/></g></g></g></g></g><g transform="translate(0.00000000000000000000,85.00000000000000000000)"><g><g transform="translate(1.50000000000000000000,0.00000000000000000000)"><g transform="scale(30.00000000000000000000)"><g><line x1="0" y1="0" x2="1" y2="0" style="fill: none; stroke: rgba(255,255,255,0.2);stroke-width: 0.01;stroke-miterlimit: 10;"/></g><g><line x1="0" y1="0" x2="1" y2="0" style="fill: none; stroke: #fff;stroke-width: 0.1;stroke-linecap: round;stroke-miterlimit: 10;"/></g></g></g><g transform="translate(43.50000000000000000000,0.00000000000000000000)"><path d="M 0.00000000000000003062 0.50000000000000000000 L 13.00000000000000000000 0.50000000000000000000 L 13.00000000000000000000 3.50000000000000000000 L 20.00000000000000000000 0.00000000000000000000 L 13.00000000000000000000 -3.50000000000000000000 L 13.00000000000000000000 -0.50000000000000000000 L -0.00000000000000003062 -0.50000000000000000000 L 0.00000000000000003062 0.50000000000000000000 Z " style="fill: #ccc; stroke: #ccc;stroke-miterlimit: 10;"/></g><g transform="translate(76.11803398874990023160,0.00000000000000000000)"><g transform="scale(30.00000000000000000000)"><g><path d="M 0.00000000000000000000 0.00000000000000000000 L 1.00000000000000000000 0.00000000000000000000 L 0.50000000000000000000 0.29999999999999998890 L 0.00000000000000000000 0.00000000000000000000 Z " style="fill: #214068; stroke: none;stroke-miterlimit: 10;"/></g><g><path d="M 0.00000000000000000000 0.00000000000000000000 L 0.50000000000000000000 -0.29999999999999998890 L 1.00000000000000000000 0.00000000000000000000 L 0.00000000000000000000 0.00000000000000000000 Z " style="fill: #09294c; stroke: none;stroke-miterlimit: 10;"/></g><g><line x1="0" y1="0" x2="1" y2="0" style="fill: none; stroke: rgba(255,255,255,0.2);stroke-width: 0.01;stroke-miterlimit: 10;"/></g><g><line x1="0" y1="0" x2="1" y2="0" style="fill: none; stroke: #fff;stroke-width: 0.1;stroke-linecap: round;stroke-miterlimit: 10;"/></g></g></g></g></g><g transform="translate(1.50000000000000000000,123.00000000000000000000)"><g><g transform="translate(0.75000000000000000000,0.00000000000000000000)"><g transform="scale(30.00000000000000000000)"><g><line x1="0" y1="0" x2="1" y2="0" style="fill: none; stroke: rgba(255,255,255,0.2);stroke-width: 0.01;stroke-miterlimit: 10;"/></g><g><line x1="0" y1="0" x2="1" y2="0" style="fill: none; stroke: #f00;stroke-width: 0.05;stroke-linecap: round;stroke-miterlimit: 10;"/></g></g></g><g transform="translate(42.00000000000000000000,0.00000000000000000000)"><path d="M 0.00000000000000003062 0.50000000000000000000 L 13.00000000000000000000 0.50000000000000000000 L 13.00000000000000000000 3.50000000000000000000 L 20.00000000000000000000 0.00000000000000000000 L 13.00000000000000000000 -3.50000000000000000000 L 13.00000000000000000000 -0.50000000000000000000 L -0.00000000000000003062 -0.50000000000000000000 L 0.00000000000000003062 0.50000000000000000000 Z " style="fill: #ccc; stroke: #ccc;stroke-miterlimit: 10;"/></g><g transform="translate(73.86803398874990023160,0.00000000000000000000)"><g transform="scale(30.00000000000000000000)"><g><path d="M 0.00000000000000000000 0.00000000000000000000 L 1.00000000000000000000 0.00000000000000000000 L 0.50000000000000000000 0.29999999999999998890 L 0.00000000000000000000 0.00000000000000000000 Z " style="fill: #214068; stroke: none;stroke-miterlimit: 10;"/></g><g><path d="M 0.00000000000000000000 0.00000000000000000000 L 0.50000000000000000000 -0.29999999999999998890 L 1.00000000000000000000 0.00000000000000000000 L 0.00000000000000000000 0.00000000000000000000 Z " style="fill: #214068; stroke: none;stroke-miterlimit: 10;"/></g><g><line x1="0" y1="0" x2="1" y2="0" style="fill: none; stroke: rgba(255,255,255,0.2);stroke-width: 0.01;stroke-miterlimit: 10;"/></g><g><line x1="0" y1="0" x2="1" y2="0" style="fill: none; stroke: #f00;stroke-width: 0.05;stroke-linecap: round;stroke-miterlimit: 10;"/></g></g></g></g></g></g></g></g></g></g></g></svg>