<svg xmlns="http://www.w3.org/2000/svg" width="205" height="420" aria-hidden="true" style="pointer-events:none;position:absolute;left:0;top:0;transform-origin:left top;z-index:20"><rect width="195" height="410" rx="0" ry="0" style="fill:#333"/><path d="M0 1V0h1zm0-2v1h-1z" style="fill:#000" transform="matrix(30 0 0 30 45 45)"/><path d="M0 0h1M0 0v1m0-1h-1m1 0v-1" style="fill:none;stroke:rgba(255,255,255,.2);stroke-width:.01" transform="matrix(30 0 0 30 45 45)"/><circle r=".06" style="fill:#222;stroke:rgba(255,255,255,.2);stroke-width:.02" transform="matrix(30 0 0 30 45 45)"/><path d="M0 0h1" style="fill:none;stroke:#fff;stroke-width:.1;stroke-linecap:round" transform="matrix(30 0 0 30 45 45)"/><path d="M0 .5h13v3L20 0l-7-3.5v3H0z" style="fill:#ccc;stroke:#ccc" transform="translate(87 45)"/><path d="M0 1V0h1zm0-2v1h-1z" style="fill:#000" transform="matrix(30 0 0 30 148.118 45)"/><path d="M0-.25A.25.25 0 0 0-.25 0" style="fill:none;stroke:#e07c1f;stroke-width:.02;stroke-dasharray:.03,.03;stroke-dashoffset:0" transform="matrix(30 0 0 30 148.118 45)"/><path d="M0 0h1M0 0v1m0-1h-1m1 0v-1" style="fill:none;stroke:rgba(255,255,255,.2);stroke-width:.01" transform="matrix(30 0 0 30 148.118 45)"/><circle r=".06" style="fill:#222;stroke:rgba(255,255,255,.2);stroke-width:.02" transform="matrix(30 0 0 30 148.118 45)"/><path d="M0 0h1" style="fill:none;stroke:#fff;stroke-width:.1;stroke-linecap:round" transform="matrix(30 0 0 30 148.118 45)"/><path d="M0 1V0h1zm0-2v1h-1z" style="fill:#000" transform="matrix(30 0 0 30 46.5 125)"/><path d="M0 .22A.22.22 0 0 0 .22 0M0 .28A.28.28 0 0 0 .28 0" style="fill:none;stroke:#2a892a;stroke-width:.02;stroke-dasharray:.03,.03;stroke-dashoffset:0" transform="matrix(30 0 0 30 46.5 125)"/><path d="M0 0h1M0 0v1m0-1h-1m1 0v-1" style="fill:none;stroke:rgba(255,255,255,.2);stroke-width:.01" transform="matrix(30 0 0 30 46.5 125)"/><circle r=".06" style="fill:#222;stroke:rgba(255,255,255,.2);stroke-width:.02" transform="matrix(30 0 0 30 46.5 125)"/><path d="M0 .5h13v3L20 0l-7-3.5v3H0z" style="fill:#ccc;stroke:#ccc" transform="translate(87 125)"/><path d="M0 1V0h1zm0-2v1h-1z" style="fill:#000" transform="matrix(30 0 0 30 148.118 125)"/><path d="M0 .22A.22.22 0 0 0 .22 0M0 .28A.28.28 0 0 0 .28 0" style="fill:none;stroke:#2a892a;stroke-width:.02;stroke-dasharray:.03,.03;stroke-dashoffset:0" transform="matrix(30 0 0 30 148.118 125)"/><path d="M0-.25A.25.25 0 0 0-.25 0" style="fill:none;stroke:#e07c1f;stroke-width:.02;stroke-dasharray:.03,.03;stroke-dashoffset:0" transform="matrix(30 0 0 30 148.118 125)"/><path d="M0 0h1M0 0v1m0-1h-1m1 0v-1" style="fill:none;stroke:rgba(255,255,255,.2);stroke-width:.01" transform="matrix(30 0 0 30 148.118 125)"/><circle r=".06" style="fill:#222;stroke:rgba(255,255,255,.2);stroke-width:.02" transform="matrix(30 0 0 30 148.118 125)"/><path d="M0 1V0h1zm0-2v1h-1z" style="fill:#000" transform="matrix(30 0 0 30 46.5 205)"/><path d="M1 0H0l.5-.25zM0 1V0l-.25.5z" style="fill:#214068" transform="matrix(30 0 0 30 46.5 205)"/><path d="M0 .22A.22.22 0 0 0 .22 0M0 .28A.28.28 0 0 0 .28 0" style="fill:none;stroke:#08a4d9;stroke-width:.02" transform="matrix(30 0 0 30 46.5 205)"/><path d="M0 0h1M0 0v1m0-1h-1m1 0v-1" style="fill:none;stroke:rgba(255,255,255,.2);stroke-width:.01" transform="matrix(30 0 0 30 46.5 205)"/><circle r=".06" style="fill:#222;stroke:rgba(255,255,255,.2);stroke-width:.02" transform="matrix(30 0 0 30 46.5 205)"/><circle r=".12" style="fill:none;stroke:red;stroke-width:.03" transform="matrix(30 0 0 30 46.5 205)"/><path d="M0 .5h13v3L20 0l-7-3.5v3H0z" style="fill:#ccc;stroke:#ccc" transform="translate(87 205)"/><path d="M0 1V0h1zm0-2v1h-1z" style="fill:#000" transform="matrix(30 0 0 30 148.118 205)"/><path d="M1 0H0l.5-.25zM0 1V0l-.25.5z" style="fill:#214068" transform="matrix(30 0 0 30 148.118 205)"/><path d="M-1 0h1l-.5.25zm1-1v1l.25-.5z" style="fill:#224935" transform="matrix(30 0 0 30 148.118 205)"/><path d="M0 .22A.22.22 0 0 0 .22 0M0 .28A.28.28 0 0 0 .28 0M0-.22A.22.22 0 0 0-.22 0M0-.28A.28.28 0 0 0-.28 0" style="fill:none;stroke:#08a4d9;stroke-width:.02" transform="matrix(30 0 0 30 148.118 205)"/><path d="M0 0h1M0 0v1m0-1h-1m1 0v-1" style="fill:none;stroke:rgba(255,255,255,.2);stroke-width:.01" transform="matrix(30 0 0 30 148.118 205)"/><circle r=".06" style="fill:#222;stroke:rgba(255,255,255,.2);stroke-width:.02" transform="matrix(30 0 0 30 148.118 205)"/><circle r=".12" style="fill:none;stroke:red;stroke-width:.03" transform="matrix(30 0 0 30 148.118 205)"/><path d="M0 1V0h1zm0-2v1h-1z" style="fill:#000" transform="matrix(30 0 0 30 46.5 285)"/><path d="M1 0H0l.5-.25z" style="fill:#214068" transform="matrix(30 0 0 30 46.5 285)"/><path d="M-1 0h1l-.5.25z" style="fill:#224935" transform="matrix(30 0 0 30 46.5 285)"/><path d="M0 1V0l-.25.5z" style="fill:#09294c" transform="matrix(30 0 0 30 46.5 285)"/><path d="M0-1v1l.25-.5z" style="fill:#0d301f" transform="matrix(30 0 0 30 46.5 285)"/><path d="M0 .25A.25.25 0 0 0 .25 0M0-.25A.25.25 0 0 0-.25 0" style="fill:none;stroke:red;stroke-width:.02" transform="matrix(30 0 0 30 46.5 285)"/><path d="M0 0h1M0 0v1m0-1h-1m1 0v-1" style="fill:none;stroke:rgba(255,255,255,.2);stroke-width:.01" transform="matrix(30 0 0 30 46.5 285)"/><circle r=".06" style="fill:#222;stroke:rgba(255,255,255,.2);stroke-width:.02" transform="matrix(30 0 0 30 46.5 285)"/><path d="M0 .5h13v3L20 0l-7-3.5v3H0z" style="fill:#ccc;stroke:#ccc" transform="translate(87 285)"/><path d="M0 1V0h1zm0-2v1h-1z" style="fill:#000" transform="matrix(30 0 0 30 148.118 285)"/><path d="M1 0H0l.5-.25z" style="fill:#214068" transform="matrix(30 0 0 30 148.118 285)"/><path d="M-1 0h1l-.5.25z" style="fill:#224935" transform="matrix(30 0 0 30 148.118 285)"/><path d="M0 1V0l-.25.5z" style="fill:#09294c" transform="matrix(30 0 0 30 148.118 285)"/><path d="M0-1v1l.25-.5z" style="fill:#0d301f" transform="matrix(30 0 0 30 148.118 285)"/><path d="M0 .25A.25.25 0 0 0 .25 0M0-.25A.25.25 0 0 0-.25 0" style="fill:none;stroke:red;stroke-width:.02" transform="matrix(30 0 0 30 148.118 285)"/><path d="M0 0h1M0 0v1m0-1h-1m1 0v-1" style="fill:none;stroke:rgba(255,255,255,.2);stroke-width:.01" transform="matrix(30 0 0 30 148.118 285)"/><circle r=".06" style="fill:#222;stroke:rgba(255,255,255,.2);stroke-width:.02" transform="matrix(30 0 0 30 148.118 285)"/><circle r=".12" style="fill:none;stroke:red;stroke-width:.03" transform="matrix(30 0 0 30 148.118 285)"/><path d="M0 1V0h1zm0-2v1h-1z" style="fill:#000" transform="matrix(30 0 0 30 46.5 365)"/><path d="M1 0H0l.5-.25z" style="fill:#214068" transform="matrix(30 0 0 30 46.5 365)"/><path d="M0 1V0l-.25.5z" style="fill:#09294c" transform="matrix(30 0 0 30 46.5 365)"/><path d="M0 .25A.25.25 0 0 0 .25 0" style="fill:none;stroke:red;stroke-width:.02" transform="matrix(30 0 0 30 46.5 365)"/><path d="M0-.25A.25.25 0 0 0-.25 0" style="fill:none;stroke:#e07c1f;stroke-width:.02;stroke-dasharray:.03,.03;stroke-dashoffset:0" transform="matrix(30 0 0 30 46.5 365)"/><path d="M0 0h1M0 0v1m0-1h-1m1 0v-1" style="fill:none;stroke:rgba(255,255,255,.2);stroke-width:.01" transform="matrix(30 0 0 30 46.5 365)"/><circle r=".06" style="fill:#222;stroke:rgba(255,255,255,.2);stroke-width:.02" transform="matrix(30 0 0 30 46.5 365)"/><circle r=".12" style="fill:none;stroke:red;stroke-width:.03" transform="matrix(30 0 0 30 46.5 365)"/><path d="M0 .5h13v3L20 0l-7-3.5v3H0z" style="fill:#ccc;stroke:#ccc" transform="translate(87 365)"/><path d="M0 1V0h1zm0-2v1h-1z" style="fill:#000" transform="matrix(30 0 0 30 148.118 365)"/><path d="M1 0H0l.5-.25z" style="fill:#214068" transform="matrix(30 0 0 30 148.118 365)"/><path d="M-1 0h1l-.5.25z" style="fill:#224935" transform="matrix(30 0 0 30 148.118 365)"/><path d="M0 1V0l-.25.5z" style="fill:#09294c" transform="matrix(30 0 0 30 148.118 365)"/><path d="M0-1v1l.25-.5z" style="fill:#0d301f" transform="matrix(30 0 0 30 148.118 365)"/><path d="M0 .25A.25.25 0 0 0 .25 0M0-.25A.25.25 0 0 0-.25 0" style="fill:none;stroke:red;stroke-width:.02" transform="matrix(30 0 0 30 148.118 365)"/><path d="M0 0h1M0 0v1m0-1h-1m1 0v-1" style="fill:none;stroke:rgba(255,255,255,.2);stroke-width:.01" transform="matrix(30 0 0 30 148.118 365)"/><circle r=".06" style="fill:#222;stroke:rgba(255,255,255,.2);stroke-width:.02" transform="matrix(30 0 0 30 148.118 365)"/><circle r=".12" style="fill:none;stroke:red;stroke-width:.03" transform="matrix(30 0 0 30 148.118 365)"/></svg>