<svg xmlns="http://www.w3.org/2000/svg" width="204" height="526" aria-hidden="true" style="pointer-events:none;position:absolute;left:0;top:0;transform-origin:left top;z-index:20"><rect width="194" height="516" rx="0" ry="0" style="fill:#333"/><path d="M.5.866 0 0h1zm-1 0L0 0l.5.866zM-1 0h1l-.5.866zM.5-.866 0 0l-.5-.866z" style="fill:#000" transform="matrix(30 0 0 30 45.75 41.056)"/><path d="M1 0H0l.5-.171z" style="fill:#214068" transform="matrix(30 0 0 30 45.75 41.056)"/><path d="M-1 0h1l-.5-.171z" style="fill:#09294c" transform="matrix(30 0 0 30 45.75 41.056)"/><path d="M0 0h1M0 0l.5.866M0 0l-.5.866M0 0h-1m1 0-.5-.866M0 0l.5-.866" style="fill:none;stroke:rgba(255,255,255,.2);stroke-width:.01" transform="matrix(30 0 0 30 45.75 41.056)"/><circle r=".06" style="fill:#222;stroke:rgba(255,255,255,.2);stroke-width:.02" transform="matrix(30 0 0 30 45.75 41.056)"/><path d="M0 .5h13v3L20 0l-7-3.5v3H0z" style="fill:#ccc;stroke:#ccc" transform="translate(86.25 41.056)"/><path d="M.5.866 0 0h1zm-1 0L0 0l.5.866zM-1 0h1l-.5.866zM.5-.866 0 0l-.5-.866z" style="fill:#000" transform="matrix(30 0 0 30 147.368 41.056)"/><path d="M1 0H0l.5-.171z" style="fill:#214068" transform="matrix(30 0 0 30 147.368 41.056)"/><path d="M-1 0h1l-.5-.171z" style="fill:#09294c" transform="matrix(30 0 0 30 147.368 41.056)"/><path d="M.125.217A.25.25 0 0 0 .25 0m-.375.217a.25.25 0 0 0 .25 0M-.25 0a.25.25 0 0 0 .125.217m.25-.434a.25.25 0 0 0-.25 0" style="fill:none;stroke:#e07c1f;stroke-width:.02;stroke-dasharray:.03,.03;stroke-dashoffset:0" transform="matrix(30 0 0 30 147.368 41.056)"/><path d="M0 0h1M0 0l.5.866M0 0l-.5.866M0 0h-1m1 0-.5-.866M0 0l.5-.866" style="fill:none;stroke:rgba(255,255,255,.2);stroke-width:.01" transform="matrix(30 0 0 30 147.368 41.056)"/><circle r=".06" style="fill:#222;stroke:rgba(255,255,255,.2);stroke-width:.02" transform="matrix(30 0 0 30 147.368 41.056)"/><path d="M.5.866 0 0h1zm-1 0L0 0l.5.866zM-1 0h1l-.5.866zM.5-.866 0 0l-.5-.866z" style="fill:#000" transform="matrix(30 0 0 30 45.75 113.167)"/><path d="M1 0H0l.5-.171zm-2 0h1l-.5-.171z" style="fill:#214068" transform="matrix(30 0 0 30 45.75 113.167)"/><path d="M0 0h1M0 0l.5.866M0 0l-.5.866M0 0h-1m1 0-.5-.866M0 0l.5-.866" style="fill:none;stroke:rgba(255,255,255,.2);stroke-width:.01" transform="matrix(30 0 0 30 45.75 113.167)"/><circle r=".06" style="fill:#222;stroke:rgba(255,255,255,.2);stroke-width:.02" transform="matrix(30 0 0 30 45.75 113.167)"/><circle r=".12" style="fill:none;stroke:red;stroke-width:.03" transform="matrix(30 0 0 30 45.75 113.167)"/><path d="M0 .5h13v3L20 0l-7-3.5v3H0z" style="fill:#ccc;stroke:#ccc" transform="translate(86.25 113.167)"/><path d="M.5.866 0 0h1zm-1 0L0 0l.5.866zM-1 0h1l-.5.866zM.5-.866 0 0l-.5-.866z" style="fill:#000" transform="matrix(30 0 0 30 147.368 113.167)"/><path d="M1 0H0l.5-.171zm-2 0h1l-.5-.171z" style="fill:#214068" transform="matrix(30 0 0 30 147.368 113.167)"/><path d="M-.5-.866 0 0l-.398-.348zm1 0L0 0l.398-.348z" style="fill:#224935" transform="matrix(30 0 0 30 147.368 113.167)"/><path d="M.11-.19a.22.22 0 0 0-.22 0m.25-.052a.28.28 0 0 0-.28 0" style="fill:none;stroke:#08a4d9;stroke-width:.02" transform="matrix(30 0 0 30 147.368 113.167)"/><path d="M0 0h1M0 0l.5.866M0 0l-.5.866M0 0h-1m1 0-.5-.866M0 0l.5-.866" style="fill:none;stroke:rgba(255,255,255,.2);stroke-width:.01" transform="matrix(30 0 0 30 147.368 113.167)"/><circle r=".06" style="fill:#222;stroke:rgba(255,255,255,.2);stroke-width:.02" transform="matrix(30 0 0 30 147.368 113.167)"/><circle r=".12" style="fill:none;stroke:red;stroke-width:.03" transform="matrix(30 0 0 30 147.368 113.167)"/><path d="M.5.866 0 0h1zm-1 0L0 0l.5.866zM-1 0h1l-.5.866zM.5-.866 0 0l-.5-.866z" style="fill:#000" transform="matrix(30 0 0 30 45.75 185.279)"/><path d="M-.5-.866 0 0l-.398-.348zm1 0L0 0l.398-.348z" style="fill:#214068" transform="matrix(30 0 0 30 45.75 185.279)"/><path d="M.11-.19a.22.22 0 0 0-.22 0m.25-.052a.28.28 0 0 0-.28 0" style="fill:none;stroke:#08a4d9;stroke-width:.02" transform="matrix(30 0 0 30 45.75 185.279)"/><path d="M0 0h1M0 0l.5.866M0 0l-.5.866M0 0h-1m1 0-.5-.866M0 0l.5-.866" style="fill:none;stroke:rgba(255,255,255,.2);stroke-width:.01" transform="matrix(30 0 0 30 45.75 185.279)"/><circle r=".06" style="fill:#222;stroke:rgba(255,255,255,.2);stroke-width:.02" transform="matrix(30 0 0 30 45.75 185.279)"/><circle r=".12" style="fill:none;stroke:red;stroke-width:.03" transform="matrix(30 0 0 30 45.75 185.279)"/><path d="M0 .5h13v3L20 0l-7-3.5v3H0z" style="fill:#ccc;stroke:#ccc" transform="translate(86.25 185.279)"/><path d="M.5.866 0 0h1zm-1 0L0 0l.5.866zM-1 0h1l-.5.866zM.5-.866 0 0l-.5-.866z" style="fill:#000" transform="matrix(30 0 0 30 147.368 185.279)"/><path d="M1 0H0l.5-.171zm-2 0h1l-.5-.171z" style="fill:#214068" transform="matrix(30 0 0 30 147.368 185.279)"/><path d="M-.5-.866 0 0l-.398-.348zm1 0L0 0l.398-.348z" style="fill:#224935" transform="matrix(30 0 0 30 147.368 185.279)"/><path d="M.11-.19a.22.22 0 0 0-.22 0m.25-.052a.28.28 0 0 0-.28 0" style="fill:none;stroke:#08a4d9;stroke-width:.02" transform="matrix(30 0 0 30 147.368 185.279)"/><path d="M0 0h1M0 0l.5.866M0 0l-.5.866M0 0h-1m1 0-.5-.866M0 0l.5-.866" style="fill:none;stroke:rgba(255,255,255,.2);stroke-width:.01" transform="matrix(30 0 0 30 147.368 185.279)"/><circle r=".06" style="fill:#222;stroke:rgba(255,255,255,.2);stroke-width:.02" transform="matrix(30 0 0 30 147.368 185.279)"/><circle r=".12" style="fill:none;stroke:red;stroke-width:.03" transform="matrix(30 0 0 30 147.368 185.279)"/><path d="M.5.866 0 0h1zm-1 0L0 0l.5.866zM-1 0h1l-.5.866zM.5-.866 0 0l-.5-.866z" style="fill:#000" transform="matrix(30 0 0 30 45.75 257.39)"/><path d="M1 0H0l.5-.171z" style="fill:#214068" transform="matrix(30 0 0 30 45.75 257.39)"/><path d="M-.5-.866 0 0l-.398-.348z" style="fill:#224935" transform="matrix(30 0 0 30 45.75 257.39)"/><path d="M-1 0h1l-.5-.171z" style="fill:#09294c" transform="matrix(30 0 0 30 45.75 257.39)"/><path d="M.5-.866 0 0l.398-.348z" style="fill:#0d301f" transform="matrix(30 0 0 30 45.75 257.39)"/><path d="M.125.217A.25.25 0 0 0 .25 0m-.375.217a.25.25 0 0 0 .25 0M-.25 0a.25.25 0 0 0 .125.217" style="fill:none;stroke:#e07c1f;stroke-width:.02;stroke-dasharray:.03,.03;stroke-dashoffset:0" transform="matrix(30 0 0 30 45.75 257.39)"/><path d="M.125-.217a.25.25 0 0 0-.25 0" style="fill:none;stroke:red;stroke-width:.02" transform="matrix(30 0 0 30 45.75 257.39)"/><path d="M0 0h1M0 0l.5.866M0 0l-.5.866M0 0h-1m1 0-.5-.866M0 0l.5-.866" style="fill:none;stroke:rgba(255,255,255,.2);stroke-width:.01" transform="matrix(30 0 0 30 45.75 257.39)"/><circle r=".06" style="fill:#222;stroke:rgba(255,255,255,.2);stroke-width:.02" transform="matrix(30 0 0 30 45.75 257.39)"/><path d="M0 .5h13v3L20 0l-7-3.5v3H0z" style="fill:#ccc;stroke:#ccc" transform="translate(86.25 257.39)"/><path d="M.5.866 0 0h1zm-1 0L0 0l.5.866zM-1 0h1l-.5.866zM.5-.866 0 0l-.5-.866z" style="fill:#000" transform="matrix(30 0 0 30 147.368 257.39)"/><path d="M1 0H0l.5-.171z" style="fill:#214068" transform="matrix(30 0 0 30 147.368 257.39)"/><path d="M-.5-.866 0 0l-.398-.348z" style="fill:#224935" transform="matrix(30 0 0 30 147.368 257.39)"/><path d="M-1 0h1l-.5-.171z" style="fill:#09294c" transform="matrix(30 0 0 30 147.368 257.39)"/><path d="M.5-.866 0 0l.398-.348z" style="fill:#0d301f" transform="matrix(30 0 0 30 147.368 257.39)"/><path d="M.125.217A.25.25 0 0 0 .25 0m-.375.217a.25.25 0 0 0 .25 0M-.25 0a.25.25 0 0 0 .125.217" style="fill:none;stroke:#e07c1f;stroke-width:.02;stroke-dasharray:.03,.03;stroke-dashoffset:0" transform="matrix(30 0 0 30 147.368 257.39)"/><path d="M.125-.217a.25.25 0 0 0-.25 0" style="fill:none;stroke:red;stroke-width:.02" transform="matrix(30 0 0 30 147.368 257.39)"/><path d="M0 0h1M0 0l.5.866M0 0l-.5.866M0 0h-1m1 0-.5-.866M0 0l.5-.866" style="fill:none;stroke:rgba(255,255,255,.2);stroke-width:.01" transform="matrix(30 0 0 30 147.368 257.39)"/><circle r=".06" style="fill:#222;stroke:rgba(255,255,255,.2);stroke-width:.02" transform="matrix(30 0 0 30 147.368 257.39)"/><circle r=".12" style="fill:none;stroke:red;stroke-width:.03" transform="matrix(30 0 0 30 147.368 257.39)"/><path d="M.5.866 0 0h1zm-1 0L0 0l.5.866zM-1 0h1l-.5.866zM.5-.866 0 0l-.5-.866z" style="fill:#000" transform="matrix(30 0 0 30 45 329.502)"/><path d="M1 0H0l.5-.171zm-2 0h1l-.5-.171z" style="fill:#214068" transform="matrix(30 0 0 30 45 329.502)"/><path d="M.125.217A.25.25 0 0 0 .25 0m-.375.217a.25.25 0 0 0 .25 0M-.25 0a.25.25 0 0 0 .125.217" style="fill:none;stroke:#e07c1f;stroke-width:.02;stroke-dasharray:.03,.03;stroke-dashoffset:0" transform="matrix(30 0 0 30 45 329.502)"/><path d="M.11-.19a.22.22 0 0 0-.22 0m.25-.052a.28.28 0 0 0-.28 0" style="fill:none;stroke:#2a892a;stroke-width:.02;stroke-dasharray:.03,.03;stroke-dashoffset:0" transform="matrix(30 0 0 30 45 329.502)"/><path d="M0 0h1M0 0l.5.866M0 0l-.5.866M0 0h-1m1 0-.5-.866M0 0l.5-.866" style="fill:none;stroke:rgba(255,255,255,.2);stroke-width:.01" transform="matrix(30 0 0 30 45 329.502)"/><circle r=".06" style="fill:#222;stroke:rgba(255,255,255,.2);stroke-width:.02" transform="matrix(30 0 0 30 45 329.502)"/><path d="M0 .5h13v3L20 0l-7-3.5v3H0z" style="fill:#ccc;stroke:#ccc" transform="translate(85.5 329.84)"/><path d="M.5.866 0 0h1zm-1 0L0 0l.5.866zM-1 0h1l-.5.866zM.5-.866 0 0l-.5-.866z" style="fill:#000" transform="matrix(30 0 0 30 147.368 329.502)"/><path d="M1 0H0l.5-.171zm-2 0h1l-.5-.171zm0 0h1l-.5.866zm.5.866L0 0l.5.866zm1 0L0 0h1z" style="fill:#214068" transform="matrix(30 0 0 30 147.368 329.502)"/><path d="M.11-.19a.22.22 0 0 0-.22 0m.25-.052a.28.28 0 0 0-.28 0" style="fill:none;stroke:#2a892a;stroke-width:.02;stroke-dasharray:.03,.03;stroke-dashoffset:0" transform="matrix(30 0 0 30 147.368 329.502)"/><path d="M0 0h1M0 0l.5.866M0 0l-.5.866M0 0h-1m1 0-.5-.866M0 0l.5-.866" style="fill:none;stroke:rgba(255,255,255,.2);stroke-width:.01" transform="matrix(30 0 0 30 147.368 329.502)"/><circle r=".06" style="fill:#222;stroke:rgba(255,255,255,.2);stroke-width:.02" transform="matrix(30 0 0 30 147.368 329.502)"/><path d="M0 0h1M0 0l.5.866M0 0l-.5.866M0 0h-1" style="fill:none;stroke:red;stroke-width:.05;stroke-linecap:round" transform="matrix(30 0 0 30 147.368 329.502)"/><path d="M.5.866 0 0h1zm-1 0L0 0l.5.866zM-1 0h1l-.5.866zM.5-.866 0 0l-.5-.866z" style="fill:#000" transform="matrix(30 0 0 30 45.75 402.288)"/><path d="M-.5-.866 0 0l-.398-.348z" style="fill:#214068" transform="matrix(30 0 0 30 45.75 402.288)"/><path d="M.5-.866 0 0l.398-.348z" style="fill:#09294c" transform="matrix(30 0 0 30 45.75 402.288)"/><path d="M.125.217A.25.25 0 0 0 .25 0m-.375.217a.25.25 0 0 0 .25 0M-.25 0a.25.25 0 0 0 .125.217" style="fill:none;stroke:#e07c1f;stroke-width:.02;stroke-dasharray:.03,.03;stroke-dashoffset:0" transform="matrix(30 0 0 30 45.75 402.288)"/><path d="M.125-.217a.25.25 0 0 0-.25 0" style="fill:none;stroke:red;stroke-width:.02" transform="matrix(30 0 0 30 45.75 402.288)"/><path d="M0 0h1M0 0l.5.866M0 0l-.5.866M0 0h-1m1 0-.5-.866M0 0l.5-.866" style="fill:none;stroke:rgba(255,255,255,.2);stroke-width:.01" transform="matrix(30 0 0 30 45.75 402.288)"/><circle r=".06" style="fill:#222;stroke:rgba(255,255,255,.2);stroke-width:.02" transform="matrix(30 0 0 30 45.75 402.288)"/><circle r=".12" style="fill:none;stroke:red;stroke-width:.03" transform="matrix(30 0 0 30 45.75 402.288)"/><path d="M0 .5h13v3L20 0l-7-3.5v3H0z" style="fill:#ccc;stroke:#ccc" transform="translate(86.25 402.288)"/><path d="M.5.866 0 0h1zm-1 0L0 0l.5.866zM-1 0h1l-.5.866zM.5-.866 0 0l-.5-.866z" style="fill:#000" transform="matrix(30 0 0 30 147.368 402.288)"/><path d="M1 0H0l.5-.171z" style="fill:#214068" transform="matrix(30 0 0 30 147.368 402.288)"/><path d="M-.5-.866 0 0l-.398-.348z" style="fill:#224935" transform="matrix(30 0 0 30 147.368 402.288)"/><path d="M-1 0h1l-.5-.171z" style="fill:#09294c" transform="matrix(30 0 0 30 147.368 402.288)"/><path d="M.5-.866 0 0l.398-.348z" style="fill:#0d301f" transform="matrix(30 0 0 30 147.368 402.288)"/><path d="M.125.217A.25.25 0 0 0 .25 0m-.375.217a.25.25 0 0 0 .25 0M-.25 0a.25.25 0 0 0 .125.217" style="fill:none;stroke:#e07c1f;stroke-width:.02;stroke-dasharray:.03,.03;stroke-dashoffset:0" transform="matrix(30 0 0 30 147.368 402.288)"/><path d="M.125-.217a.25.25 0 0 0-.25 0" style="fill:none;stroke:red;stroke-width:.02" transform="matrix(30 0 0 30 147.368 402.288)"/><path d="M0 0h1M0 0l.5.866M0 0l-.5.866M0 0h-1m1 0-.5-.866M0 0l.5-.866" style="fill:none;stroke:rgba(255,255,255,.2);stroke-width:.01" transform="matrix(30 0 0 30 147.368 402.288)"/><circle r=".06" style="fill:#222;stroke:rgba(255,255,255,.2);stroke-width:.02" transform="matrix(30 0 0 30 147.368 402.288)"/><circle r=".12" style="fill:none;stroke:red;stroke-width:.03" transform="matrix(30 0 0 30 147.368 402.288)"/><path d="M.5.866 0 0h1zm-1 0L0 0l.5.866zM-1 0h1l-.5.866zM.5-.866 0 0l-.5-.866z" style="fill:#000" transform="matrix(30 0 0 30 45.75 474.4)"/><path d="M1 0H0l.5-.171z" style="fill:#214068" transform="matrix(30 0 0 30 45.75 474.4)"/><path d="M-1 0h1l-.5-.171z" style="fill:#09294c" transform="matrix(30 0 0 30 45.75 474.4)"/><path d="M.125.217A.25.25 0 0 0 .25 0m-.375.217a.25.25 0 0 0 .25 0M-.25 0a.25.25 0 0 0 .125.217m.25-.434a.25.25 0 0 0-.25 0" style="fill:none;stroke:#e07c1f;stroke-width:.02;stroke-dasharray:.03,.03;stroke-dashoffset:0" transform="matrix(30 0 0 30 45.75 474.4)"/><path d="M0 0h1M0 0l.5.866M0 0l-.5.866M0 0h-1m1 0-.5-.866M0 0l.5-.866" style="fill:none;stroke:rgba(255,255,255,.2);stroke-width:.01" transform="matrix(30 0 0 30 45.75 474.4)"/><circle r=".06" style="fill:#222;stroke:rgba(255,255,255,.2);stroke-width:.02" transform="matrix(30 0 0 30 45.75 474.4)"/><circle r=".12" style="fill:none;stroke:red;stroke-width:.03" transform="matrix(30 0 0 30 45.75 474.4)"/><path d="M0 .5h13v3L20 0l-7-3.5v3H0z" style="fill:#ccc;stroke:#ccc" transform="translate(86.25 474.4)"/><path d="M.5.866 0 0h1zm-1 0L0 0l.5.866zM-1 0h1l-.5.866zM.5-.866 0 0l-.5-.866z" style="fill:#000" transform="matrix(30 0 0 30 147.368 474.4)"/><path d="M1 0H0l.5-.171z" style="fill:#214068" transform="matrix(30 0 0 30 147.368 474.4)"/><path d="M-.5-.866 0 0l-.398-.348z" style="fill:#224935" transform="matrix(30 0 0 30 147.368 474.4)"/><path d="M-1 0h1l-.5-.171z" style="fill:#09294c" transform="matrix(30 0 0 30 147.368 474.4)"/><path d="M.5-.866 0 0l.398-.348z" style="fill:#0d301f" transform="matrix(30 0 0 30 147.368 474.4)"/><path d="M.125.217A.25.25 0 0 0 .25 0m-.375.217a.25.25 0 0 0 .25 0M-.25 0a.25.25 0 0 0 .125.217" style="fill:none;stroke:#e07c1f;stroke-width:.02;stroke-dasharray:.03,.03;stroke-dashoffset:0" transform="matrix(30 0 0 30 147.368 474.4)"/><path d="M.125-.217a.25.25 0 0 0-.25 0" style="fill:none;stroke:red;stroke-width:.02" transform="matrix(30 0 0 30 147.368 474.4)"/><path d="M0 0h1M0 0l.5.866M0 0l-.5.866M0 0h-1m1 0-.5-.866M0 0l.5-.866" style="fill:none;stroke:rgba(255,255,255,.2);stroke-width:.01" transform="matrix(30 0 0 30 147.368 474.4)"/><circle r=".06" style="fill:#222;stroke:rgba(255,255,255,.2);stroke-width:.02" transform="matrix(30 0 0 30 147.368 474.4)"/><circle r=".12" style="fill:none;stroke:red;stroke-width:.03" transform="matrix(30 0 0 30 147.368 474.4)"/></svg>