<svg xmlns="http://www.w3.org/2000/svg" width="192" height="561" aria-hidden="true" style="pointer-events:none;position:absolute;left:0;top:0;transform-origin:left top;z-index:20"><rect width="182" height="551" rx="0" ry="0" style="fill:#333"/><path d="M.309.951 0 0h1zM-.809.588 0 0l.309.951zM.309-.952 0 0l-.809-.588z" style="fill:#000" transform="matrix(30 0 0 30 40.065 43.578)"/><path d="M1 0H0l.5-.203z" style="fill:#214068" transform="matrix(30 0 0 30 40.065 43.578)"/><path d="M-.809.588 0 0l-.524.13z" style="fill:#09294c" transform="matrix(30 0 0 30 40.065 43.578)"/><path d="M0 0h1M0 0l.309.951M0 0l-.809.588M0 0l-.809-.588M0 0l.309-.951" style="fill:none;stroke:rgba(255,255,255,.2);stroke-width:.01" transform="matrix(30 0 0 30 40.065 43.578)"/><circle r=".06" style="fill:#222;stroke:rgba(255,255,255,.2);stroke-width:.02" transform="matrix(30 0 0 30 40.065 43.578)"/><path d="M0 .5h13v3L20 0l-7-3.5v3H0z" style="fill:#ccc;stroke:#ccc" transform="translate(80.565 43.578)"/><path d="M.309.951 0 0h1zM-.809.588 0 0l.309.951zM.309-.952 0 0l-.809-.588z" style="fill:#000" transform="matrix(30 0 0 30 136.041 43.578)"/><path d="M1 0H0l.5-.203z" style="fill:#214068" transform="matrix(30 0 0 30 136.041 43.578)"/><path d="M-.809.588 0 0l-.524.13z" style="fill:#09294c" transform="matrix(30 0 0 30 136.041 43.578)"/><path d="M.077.238A.25.25 0 0 0 .25 0" style="fill:none;stroke:#e07c1f;stroke-width:.02;stroke-dasharray:.03,.03;stroke-dashoffset:0" transform="matrix(30 0 0 30 136.041 43.578)"/><path d="M-.202.147a.25.25 0 0 0 .28.09M.077-.238a.25.25 0 0 0-.28.091" style="fill:none;stroke:#e07c1f;stroke-width:.02;stroke-dasharray:.03,.03;stroke-dashoffset:0" transform="matrix(30 0 0 30 136.041 43.578)"/><path d="M0 0h1M0 0l.309.951M0 0l-.809.588M0 0l-.809-.588M0 0l.309-.951" style="fill:none;stroke:rgba(255,255,255,.2);stroke-width:.01" transform="matrix(30 0 0 30 136.041 43.578)"/><circle r=".06" style="fill:#222;stroke:rgba(255,255,255,.2);stroke-width:.02" transform="matrix(30 0 0 30 136.041 43.578)"/><path d="M.309.951 0 0h1zM-.809.588 0 0l.309.951zM.309-.952 0 0l-.809-.588z" style="fill:#000" transform="matrix(30 0 0 30 40.065 120.734)"/><path d="M1 0H0l.5-.203zM-.809.588 0 0l-.524.13z" style="fill:#214068" transform="matrix(30 0 0 30 40.065 120.734)"/><path d="M0 0h1M0 0l.309.951M0 0l-.809.588M0 0l-.809-.588M0 0l.309-.951" style="fill:none;stroke:rgba(255,255,255,.2);stroke-width:.01" transform="matrix(30 0 0 30 40.065 120.734)"/><circle r=".06" style="fill:#222;stroke:rgba(255,255,255,.2);stroke-width:.02" transform="matrix(30 0 0 30 40.065 120.734)"/><circle r=".12" style="fill:none;stroke:red;stroke-width:.03" transform="matrix(30 0 0 30 40.065 120.734)"/><path d="M0 .5h13v3L20 0l-7-3.5v3H0z" style="fill:#ccc;stroke:#ccc" transform="translate(80.565 120.734)"/><path d="M.309.951 0 0h1zM-.809.588 0 0l.309.951zM.309-.952 0 0l-.809-.588z" style="fill:#000" transform="matrix(30 0 0 30 136.041 120.734)"/><path d="M1 0H0l.5-.203zM-.809.588 0 0l-.524.13z" style="fill:#214068" transform="matrix(30 0 0 30 136.041 120.734)"/><path d="M-.809-.588 0 0l-.524-.13zM.309-.95 0 0l.348-.413z" style="fill:#224935" transform="matrix(30 0 0 30 136.041 120.734)"/><path d="M.068-.21a.22.22 0 0 0-.246.08m.265-.136a.28.28 0 0 0-.314.101" style="fill:none;stroke:#08a4d9;stroke-width:.02" transform="matrix(30 0 0 30 136.041 120.734)"/><path d="M0 0h1M0 0l.309.951M0 0l-.809.588M0 0l-.809-.588M0 0l.309-.951" style="fill:none;stroke:rgba(255,255,255,.2);stroke-width:.01" transform="matrix(30 0 0 30 136.041 120.734)"/><circle r=".06" style="fill:#222;stroke:rgba(255,255,255,.2);stroke-width:.02" transform="matrix(30 0 0 30 136.041 120.734)"/><circle r=".12" style="fill:none;stroke:red;stroke-width:.03" transform="matrix(30 0 0 30 136.041 120.734)"/><path d="M.309.951 0 0h1zM-.809.588 0 0l.309.951zM.309-.952 0 0l-.809-.588z" style="fill:#000" transform="matrix(30 0 0 30 39.359 197.89)"/><path d="M1 0H0l.5-.203zM-.809.588 0 0l-.524.13z" style="fill:#214068" transform="matrix(30 0 0 30 39.359 197.89)"/><path d="M.068-.21a.22.22 0 0 0-.246.08m.265-.136a.28.28 0 0 0-.314.101" style="fill:none;stroke:#2a892a;stroke-width:.02;stroke-dasharray:.03,.03;stroke-dashoffset:0" transform="matrix(30 0 0 30 39.359 197.89)"/><path d="M0 0h1M0 0l.309.951M0 0l-.809.588M0 0l-.809-.588M0 0l.309-.951" style="fill:none;stroke:rgba(255,255,255,.2);stroke-width:.01" transform="matrix(30 0 0 30 39.359 197.89)"/><circle r=".06" style="fill:#222;stroke:rgba(255,255,255,.2);stroke-width:.02" transform="matrix(30 0 0 30 39.359 197.89)"/><path d="m0 0 .309.951" style="fill:none;stroke:red;stroke-width:.05;stroke-linecap:round" transform="matrix(30 0 0 30 39.359 197.89)"/><path d="M0 .5h13v3L20 0l-7-3.5v3H0z" style="fill:#ccc;stroke:#ccc" transform="translate(79.859 198.242)"/><path d="M.309.951 0 0h1zM-.809.588 0 0l.309.951zM.309-.952 0 0l-.809-.588z" style="fill:#000" transform="matrix(30 0 0 30 135.997 197.89)"/><path d="M1 0H0l.5-.203zM-.809.588 0 0l-.524.13zM.309.95 0 0h1zM-.809.588 0 0l.309.951z" style="fill:#214068" transform="matrix(30 0 0 30 135.997 197.89)"/><path d="M.068-.21a.22.22 0 0 0-.246.08m.265-.136a.28.28 0 0 0-.314.101" style="fill:none;stroke:#2a892a;stroke-width:.02;stroke-dasharray:.03,.03;stroke-dashoffset:0" transform="matrix(30 0 0 30 135.997 197.89)"/><path d="M0 0h1M0 0l.309.951M0 0l-.809.588M0 0l-.809-.588M0 0l.309-.951" style="fill:none;stroke:rgba(255,255,255,.2);stroke-width:.01" transform="matrix(30 0 0 30 135.997 197.89)"/><circle r=".06" style="fill:#222;stroke:rgba(255,255,255,.2);stroke-width:.02" transform="matrix(30 0 0 30 135.997 197.89)"/><path d="M0 0h1M0 0l.309.951M0 0l-.809.588" style="fill:none;stroke:red;stroke-width:.05;stroke-linecap:round" transform="matrix(30 0 0 30 135.997 197.89)"/><path d="M.309.951 0 0h1zM-.809.588 0 0l.309.951zM.309-.952 0 0l-.809-.588z" style="fill:#000" transform="matrix(30 0 0 30 40.065 275.75)"/><path d="M-.809-.588 0 0l-.524-.13zM.309-.95 0 0l.348-.413z" style="fill:#214068" transform="matrix(30 0 0 30 40.065 275.75)"/><path d="M.068-.21a.22.22 0 0 0-.246.08m.265-.136a.28.28 0 0 0-.314.101" style="fill:none;stroke:#08a4d9;stroke-width:.02" transform="matrix(30 0 0 30 40.065 275.75)"/><path d="M0 0h1M0 0l.309.951M0 0l-.809.588M0 0l-.809-.588M0 0l.309-.951" style="fill:none;stroke:rgba(255,255,255,.2);stroke-width:.01" transform="matrix(30 0 0 30 40.065 275.75)"/><circle r=".06" style="fill:#222;stroke:rgba(255,255,255,.2);stroke-width:.02" transform="matrix(30 0 0 30 40.065 275.75)"/><circle r=".12" style="fill:none;stroke:red;stroke-width:.03" transform="matrix(30 0 0 30 40.065 275.75)"/><path d="M0 .5h13v3L20 0l-7-3.5v3H0z" style="fill:#ccc;stroke:#ccc" transform="translate(80.565 275.75)"/><path d="M.309.951 0 0h1zM-.809.588 0 0l.309.951zM.309-.952 0 0l-.809-.588z" style="fill:#000" transform="matrix(30 0 0 30 136.041 275.75)"/><path d="M1 0H0l.5-.203zM-.809.588 0 0l-.524.13z" style="fill:#214068" transform="matrix(30 0 0 30 136.041 275.75)"/><path d="M-.809-.588 0 0l-.524-.13zM.309-.95 0 0l.348-.413z" style="fill:#224935" transform="matrix(30 0 0 30 136.041 275.75)"/><path d="M.068-.21a.22.22 0 0 0-.246.08m.265-.136a.28.28 0 0 0-.314.101" style="fill:none;stroke:#08a4d9;stroke-width:.02" transform="matrix(30 0 0 30 136.041 275.75)"/><path d="M0 0h1M0 0l.309.951M0 0l-.809.588M0 0l-.809-.588M0 0l.309-.951" style="fill:none;stroke:rgba(255,255,255,.2);stroke-width:.01" transform="matrix(30 0 0 30 136.041 275.75)"/><circle r=".06" style="fill:#222;stroke:rgba(255,255,255,.2);stroke-width:.02" transform="matrix(30 0 0 30 136.041 275.75)"/><circle r=".12" style="fill:none;stroke:red;stroke-width:.03" transform="matrix(30 0 0 30 136.041 275.75)"/><path d="M.309.951 0 0h1zM-.809.588 0 0l.309.951zM.309-.952 0 0l-.809-.588z" style="fill:#000" transform="matrix(30 0 0 30 40.065 352.906)"/><path d="M1 0H0l.5-.203z" style="fill:#214068" transform="matrix(30 0 0 30 40.065 352.906)"/><path d="M-.809-.588 0 0l-.524-.13z" style="fill:#224935" transform="matrix(30 0 0 30 40.065 352.906)"/><path d="M-.809.588 0 0l-.524.13z" style="fill:#09294c" transform="matrix(30 0 0 30 40.065 352.906)"/><path d="M.309-.951 0 0l.348-.413z" style="fill:#0d301f" transform="matrix(30 0 0 30 40.065 352.906)"/><path d="M.077.238A.25.25 0 0 0 .25 0" style="fill:none;stroke:#e07c1f;stroke-width:.02;stroke-dasharray:.03,.03;stroke-dashoffset:0" transform="matrix(30 0 0 30 40.065 352.906)"/><path d="M-.202.147a.25.25 0 0 0 .28.09" style="fill:none;stroke:#e07c1f;stroke-width:.02;stroke-dasharray:.03,.03;stroke-dashoffset:0" transform="matrix(30 0 0 30 40.065 352.906)"/><path d="M.077-.238a.25.25 0 0 0-.28.091" style="fill:none;stroke:red;stroke-width:.02" transform="matrix(30 0 0 30 40.065 352.906)"/><path d="M0 0h1M0 0l.309.951M0 0l-.809.588M0 0l-.809-.588M0 0l.309-.951" style="fill:none;stroke:rgba(255,255,255,.2);stroke-width:.01" transform="matrix(30 0 0 30 40.065 352.906)"/><circle r=".06" style="fill:#222;stroke:rgba(255,255,255,.2);stroke-width:.02" transform="matrix(30 0 0 30 40.065 352.906)"/><path d="M0 .5h13v3L20 0l-7-3.5v3H0z" style="fill:#ccc;stroke:#ccc" transform="translate(80.565 352.906)"/><path d="M.309.951 0 0h1zM-.809.588 0 0l.309.951zM.309-.952 0 0l-.809-.588z" style="fill:#000" transform="matrix(30 0 0 30 136.041 352.906)"/><path d="M1 0H0l.5-.203z" style="fill:#214068" transform="matrix(30 0 0 30 136.041 352.906)"/><path d="M-.809-.588 0 0l-.524-.13z" style="fill:#224935" transform="matrix(30 0 0 30 136.041 352.906)"/><path d="M-.809.588 0 0l-.524.13z" style="fill:#09294c" transform="matrix(30 0 0 30 136.041 352.906)"/><path d="M.309-.951 0 0l.348-.413z" style="fill:#0d301f" transform="matrix(30 0 0 30 136.041 352.906)"/><path d="M.077.238A.25.25 0 0 0 .25 0" style="fill:none;stroke:#e07c1f;stroke-width:.02;stroke-dasharray:.03,.03;stroke-dashoffset:0" transform="matrix(30 0 0 30 136.041 352.906)"/><path d="M-.202.147a.25.25 0 0 0 .28.09" style="fill:none;stroke:#e07c1f;stroke-width:.02;stroke-dasharray:.03,.03;stroke-dashoffset:0" transform="matrix(30 0 0 30 136.041 352.906)"/><path d="M.077-.238a.25.25 0 0 0-.28.091" style="fill:none;stroke:red;stroke-width:.02" transform="matrix(30 0 0 30 136.041 352.906)"/><path d="M0 0h1M0 0l.309.951M0 0l-.809.588M0 0l-.809-.588M0 0l.309-.951" style="fill:none;stroke:rgba(255,255,255,.2);stroke-width:.01" transform="matrix(30 0 0 30 136.041 352.906)"/><circle r=".06" style="fill:#222;stroke:rgba(255,255,255,.2);stroke-width:.02" transform="matrix(30 0 0 30 136.041 352.906)"/><circle r=".12" style="fill:none;stroke:red;stroke-width:.03" transform="matrix(30 0 0 30 136.041 352.906)"/><path d="M.309.951 0 0h1zM-.809.588 0 0l.309.951zM.309-.952 0 0l-.809-.588z" style="fill:#000" transform="matrix(30 0 0 30 40.065 430.062)"/><path d="M-.809-.588 0 0l-.524-.13z" style="fill:#214068" transform="matrix(30 0 0 30 40.065 430.062)"/><path d="M.309-.951 0 0l.348-.413z" style="fill:#09294c" transform="matrix(30 0 0 30 40.065 430.062)"/><path d="M.077.238A.25.25 0 0 0 .25 0" style="fill:none;stroke:#e07c1f;stroke-width:.02;stroke-dasharray:.03,.03;stroke-dashoffset:0" transform="matrix(30 0 0 30 40.065 430.062)"/><path d="M-.202.147a.25.25 0 0 0 .28.09" style="fill:none;stroke:#e07c1f;stroke-width:.02;stroke-dasharray:.03,.03;stroke-dashoffset:0" transform="matrix(30 0 0 30 40.065 430.062)"/><path d="M.077-.238a.25.25 0 0 0-.28.091" style="fill:none;stroke:red;stroke-width:.02" transform="matrix(30 0 0 30 40.065 430.062)"/><path d="M0 0h1M0 0l.309.951M0 0l-.809.588M0 0l-.809-.588M0 0l.309-.951" style="fill:none;stroke:rgba(255,255,255,.2);stroke-width:.01" transform="matrix(30 0 0 30 40.065 430.062)"/><circle r=".06" style="fill:#222;stroke:rgba(255,255,255,.2);stroke-width:.02" transform="matrix(30 0 0 30 40.065 430.062)"/><circle r=".12" style="fill:none;stroke:red;stroke-width:.03" transform="matrix(30 0 0 30 40.065 430.062)"/><path d="M0 .5h13v3L20 0l-7-3.5v3H0z" style="fill:#ccc;stroke:#ccc" transform="translate(80.565 430.062)"/><path d="M.309.951 0 0h1zM-.809.588 0 0l.309.951zM.309-.952 0 0l-.809-.588z" style="fill:#000" transform="matrix(30 0 0 30 136.041 430.062)"/><path d="M1 0H0l.5-.203z" style="fill:#214068" transform="matrix(30 0 0 30 136.041 430.062)"/><path d="M-.809-.588 0 0l-.524-.13z" style="fill:#224935" transform="matrix(30 0 0 30 136.041 430.062)"/><path d="M-.809.588 0 0l-.524.13z" style="fill:#09294c" transform="matrix(30 0 0 30 136.041 430.062)"/><path d="M.309-.951 0 0l.348-.413z" style="fill:#0d301f" transform="matrix(30 0 0 30 136.041 430.062)"/><path d="M.077.238A.25.25 0 0 0 .25 0" style="fill:none;stroke:#e07c1f;stroke-width:.02;stroke-dasharray:.03,.03;stroke-dashoffset:0" transform="matrix(30 0 0 30 136.041 430.062)"/><path d="M-.202.147a.25.25 0 0 0 .28.09" style="fill:none;stroke:#e07c1f;stroke-width:.02;stroke-dasharray:.03,.03;stroke-dashoffset:0" transform="matrix(30 0 0 30 136.041 430.062)"/><path d="M.077-.238a.25.25 0 0 0-.28.091" style="fill:none;stroke:red;stroke-width:.02" transform="matrix(30 0 0 30 136.041 430.062)"/><path d="M0 0h1M0 0l.309.951M0 0l-.809.588M0 0l-.809-.588M0 0l.309-.951" style="fill:none;stroke:rgba(255,255,255,.2);stroke-width:.01" transform="matrix(30 0 0 30 136.041 430.062)"/><circle r=".06" style="fill:#222;stroke:rgba(255,255,255,.2);stroke-width:.02" transform="matrix(30 0 0 30 136.041 430.062)"/><circle r=".12" style="fill:none;stroke:red;stroke-width:.03" transform="matrix(30 0 0 30 136.041 430.062)"/><path d="M.309.951 0 0h1zM-.809.588 0 0l.309.951zM.309-.952 0 0l-.809-.588z" style="fill:#000" transform="matrix(30 0 0 30 40.065 507.218)"/><path d="M1 0H0l.5-.203z" style="fill:#214068" transform="matrix(30 0 0 30 40.065 507.218)"/><path d="M-.809.588 0 0l-.524.13z" style="fill:#09294c" transform="matrix(30 0 0 30 40.065 507.218)"/><path d="M.077.238A.25.25 0 0 0 .25 0" style="fill:none;stroke:#e07c1f;stroke-width:.02;stroke-dasharray:.03,.03;stroke-dashoffset:0" transform="matrix(30 0 0 30 40.065 507.218)"/><path d="M-.202.147a.25.25 0 0 0 .28.09M.077-.238a.25.25 0 0 0-.28.091" style="fill:none;stroke:#e07c1f;stroke-width:.02;stroke-dasharray:.03,.03;stroke-dashoffset:0" transform="matrix(30 0 0 30 40.065 507.218)"/><path d="M0 0h1M0 0l.309.951M0 0l-.809.588M0 0l-.809-.588M0 0l.309-.951" style="fill:none;stroke:rgba(255,255,255,.2);stroke-width:.01" transform="matrix(30 0 0 30 40.065 507.218)"/><circle r=".06" style="fill:#222;stroke:rgba(255,255,255,.2);stroke-width:.02" transform="matrix(30 0 0 30 40.065 507.218)"/><circle r=".12" style="fill:none;stroke:red;stroke-width:.03" transform="matrix(30 0 0 30 40.065 507.218)"/><path d="M0 .5h13v3L20 0l-7-3.5v3H0z" style="fill:#ccc;stroke:#ccc" transform="translate(80.565 507.218)"/><path d="M.309.951 0 0h1zM-.809.588 0 0l.309.951zM.309-.952 0 0l-.809-.588z" style="fill:#000" transform="matrix(30 0 0 30 136.041 507.218)"/><path d="M1 0H0l.5-.203z" style="fill:#214068" transform="matrix(30 0 0 30 136.041 507.218)"/><path d="M-.809-.588 0 0l-.524-.13z" style="fill:#224935" transform="matrix(30 0 0 30 136.041 507.218)"/><path d="M-.809.588 0 0l-.524.13z" style="fill:#09294c" transform="matrix(30 0 0 30 136.041 507.218)"/><path d="M.309-.951 0 0l.348-.413z" style="fill:#0d301f" transform="matrix(30 0 0 30 136.041 507.218)"/><path d="M.077.238A.25.25 0 0 0 .25 0" style="fill:none;stroke:#e07c1f;stroke-width:.02;stroke-dasharray:.03,.03;stroke-dashoffset:0" transform="matrix(30 0 0 30 136.041 507.218)"/><path d="M-.202.147a.25.25 0 0 0 .28.09" style="fill:none;stroke:#e07c1f;stroke-width:.02;stroke-dasharray:.03,.03;stroke-dashoffset:0" transform="matrix(30 0 0 30 136.041 507.218)"/><path d="M.077-.238a.25.25 0 0 0-.28.091" style="fill:none;stroke:red;stroke-width:.02" transform="matrix(30 0 0 30 136.041 507.218)"/><path d="M0 0h1M0 0l.309.951M0 0l-.809.588M0 0l-.809-.588M0 0l.309-.951" style="fill:none;stroke:rgba(255,255,255,.2);stroke-width:.01" transform="matrix(30 0 0 30 136.041 507.218)"/><circle r=".06" style="fill:#222;stroke:rgba(255,255,255,.2);stroke-width:.02" transform="matrix(30 0 0 30 136.041 507.218)"/><circle r=".12" style="fill:none;stroke:red;stroke-width:.03" transform="matrix(30 0 0 30 136.041 507.218)"/></svg>