<svg xmlns="http://www.w3.org/2000/svg" width="408" height="825" aria-hidden="true" style="pointer-events:none;position:absolute;left:0;top:0;transform-origin:left top;z-index:20"><rect width="398" height="815" rx="0" ry="0" style="fill:#333"/><path d="M0 1V0h1zm-1-1h1v1zm1-1v1h-1z" style="fill:#000" transform="matrix(30 0 0 30 45.75 45)"/><path d="M0 1V0h1zm0-2v1l.25-.5z" style="fill:#214068" transform="matrix(30 0 0 30 45.75 45)"/><path d="M0 0h1M0 0v1m0-1h-1m1 0v-1" style="fill:none;stroke:rgba(255,255,255,.2);stroke-width:.01" transform="matrix(30 0 0 30 45.75 45)"/><circle r=".06" style="fill:#222;stroke:rgba(255,255,255,.2);stroke-width:.02" transform="matrix(30 0 0 30 45.75 45)"/><path d="M0 .5h13v3L20 0l-7-3.5v3H0z" style="fill:#ccc;stroke:#ccc" transform="translate(86.25 45)"/><path d="M0 1V0h1zm-1-1h1v1zm1-1v1h-1z" style="fill:#000" transform="matrix(30 0 0 30 147.368 45)"/><path d="M0 1V0h1zm0-2v1l.25-.5z" style="fill:#214068" transform="matrix(30 0 0 30 147.368 45)"/><path d="M0 .25A.25.25 0 0 0 .25 0" style="fill:none;stroke:#e07c1f;stroke-width:.02;stroke-dasharray:.03,.03;stroke-dashoffset:0" transform="matrix(30 0 0 30 147.368 45)"/><path d="M0 0h1M0 0v1m0-1h-1m1 0v-1" style="fill:none;stroke:rgba(255,255,255,.2);stroke-width:.01" transform="matrix(30 0 0 30 147.368 45)"/><circle r=".06" style="fill:#222;stroke:rgba(255,255,255,.2);stroke-width:.02" transform="matrix(30 0 0 30 147.368 45)"/><path d="M0 1V0h1zm-1-1h1v1zm1-1v1h-1z" style="fill:#000" transform="matrix(30 0 0 30 249.618 45)"/><path d="M1 0H0l.5-.25z" style="fill:#214068" transform="matrix(30 0 0 30 249.618 45)"/><path d="M0-1v1l.25-.5z" style="fill:#09294c" transform="matrix(30 0 0 30 249.618 45)"/><path d="M0 0h1M0 0v1m0-1h-1m1 0v-1" style="fill:none;stroke:rgba(255,255,255,.2);stroke-width:.01" transform="matrix(30 0 0 30 249.618 45)"/><circle r=".06" style="fill:#222;stroke:rgba(255,255,255,.2);stroke-width:.02" transform="matrix(30 0 0 30 249.618 45)"/><path d="M0 .5h13v3L20 0l-7-3.5v3H0z" style="fill:#ccc;stroke:#ccc" transform="translate(290.118 45)"/><path d="M0 1V0h1zm-1-1h1v1zm1-1v1h-1z" style="fill:#000" transform="matrix(30 0 0 30 351.236 45)"/><path d="M1 0H0l.5-.25z" style="fill:#214068" transform="matrix(30 0 0 30 351.236 45)"/><path d="M0-1v1l.25-.5z" style="fill:#09294c" transform="matrix(30 0 0 30 351.236 45)"/><path d="M0 .25A.25.25 0 0 0 .25 0m-.5 0A.25.25 0 0 0 0 .25m0-.5A.25.25 0 0 0-.25 0" style="fill:none;stroke:#e07c1f;stroke-width:.02;stroke-dasharray:.03,.03;stroke-dashoffset:0" transform="matrix(30 0 0 30 351.236 45)"/><path d="M0 0h1M0 0v1m0-1h-1m1 0v-1" style="fill:none;stroke:rgba(255,255,255,.2);stroke-width:.01" transform="matrix(30 0 0 30 351.236 45)"/><circle r=".06" style="fill:#222;stroke:rgba(255,255,255,.2);stroke-width:.02" transform="matrix(30 0 0 30 351.236 45)"/><path d="M0 1V0h1zm-1-1h1v1zm1-1v1h-1z" style="fill:#000" transform="matrix(30 0 0 30 45 125)"/><path d="M0 1V0h1zm0-2v1l.25-.5z" style="fill:#214068" transform="matrix(30 0 0 30 45 125)"/><path d="M0 0h1M0 0v1m0-1h-1m1 0v-1" style="fill:none;stroke:rgba(255,255,255,.2);stroke-width:.01" transform="matrix(30 0 0 30 45 125)"/><circle r=".06" style="fill:#222;stroke:rgba(255,255,255,.2);stroke-width:.02" transform="matrix(30 0 0 30 45 125)"/><path d="M0 0h1" style="fill:none;stroke:red;stroke-width:.05;stroke-linecap:round" transform="matrix(30 0 0 30 45 125)"/><path d="M0 .5h13v3L20 0l-7-3.5v3H0z" style="fill:#ccc;stroke:#ccc" transform="translate(86.25 125)"/><path d="M0 1V0h1zm-1-1h1v1zm1-1v1h-1z" style="fill:#000" transform="matrix(30 0 0 30 147.368 125)"/><path d="M1 0H0l.5-.25zM0-1v1l.25-.5zm0 2V0h1z" style="fill:#214068" transform="matrix(30 0 0 30 147.368 125)"/><path d="M0 0h1M0 0v1m0-1h-1m1 0v-1" style="fill:none;stroke:rgba(255,255,255,.2);stroke-width:.01" transform="matrix(30 0 0 30 147.368 125)"/><circle r=".06" style="fill:#222;stroke:rgba(255,255,255,.2);stroke-width:.02" transform="matrix(30 0 0 30 147.368 125)"/><path d="M0 0h1" style="fill:none;stroke:red;stroke-width:.05;stroke-linecap:round" transform="matrix(30 0 0 30 147.368 125)"/><path d="M0 1V0h1zm-1-1h1v1zm1-1v1h-1z" style="fill:#000" transform="matrix(30 0 0 30 248.868 125)"/><path d="M1 0H0l.5-.25zM0-1v1l.25-.5z" style="fill:#214068" transform="matrix(30 0 0 30 248.868 125)"/><path d="M0 0h1M0 0v1m0-1h-1m1 0v-1" style="fill:none;stroke:rgba(255,255,255,.2);stroke-width:.01" transform="matrix(30 0 0 30 248.868 125)"/><circle r=".06" style="fill:#222;stroke:rgba(255,255,255,.2);stroke-width:.02" transform="matrix(30 0 0 30 248.868 125)"/><path d="M0 0h1" style="fill:none;stroke:red;stroke-width:.05;stroke-linecap:round" transform="matrix(30 0 0 30 248.868 125)"/><path d="M0 .5h13v3L20 0l-7-3.5v3H0z" style="fill:#ccc;stroke:#ccc" transform="translate(290.118 125)"/><path d="M0 1V0h1zm-1-1h1v1zm1-1v1h-1z" style="fill:#000" transform="matrix(30 0 0 30 351.236 125)"/><path d="M1 0H0l.5-.25zM0-1v1l.25-.5zm0 2V0h1z" style="fill:#214068" transform="matrix(30 0 0 30 351.236 125)"/><path d="M0 0h1M0 0v1m0-1h-1m1 0v-1" style="fill:none;stroke:rgba(255,255,255,.2);stroke-width:.01" transform="matrix(30 0 0 30 351.236 125)"/><circle r=".06" style="fill:#222;stroke:rgba(255,255,255,.2);stroke-width:.02" transform="matrix(30 0 0 30 351.236 125)"/><path d="M0 0h1" style="fill:none;stroke:red;stroke-width:.05;stroke-linecap:round" transform="matrix(30 0 0 30 351.236 125)"/><path d="M0 1V0h1zm-1-1h1v1zm1-1v1h-1z" style="fill:#000" transform="matrix(30 0 0 30 45.75 205)"/><path d="M0 0h1M0 0v1m0-1h-1m1 0v-1" style="fill:none;stroke:rgba(255,255,255,.2);stroke-width:.01" transform="matrix(30 0 0 30 45.75 205)"/><circle r=".06" style="fill:#222;stroke:rgba(255,255,255,.2);stroke-width:.02" transform="matrix(30 0 0 30 45.75 205)"/><circle r=".12" style="fill:none;stroke:red;stroke-width:.03" transform="matrix(30 0 0 30 45.75 205)"/><path d="M0 .5h13v3L20 0l-7-3.5v3H0z" style="fill:#ccc;stroke:#ccc" transform="translate(86.25 205)"/><path d="M0 1V0h1zm-1-1h1v1zm1-1v1h-1z" style="fill:#000" transform="matrix(30 0 0 30 147.368 205)"/><path d="M1 0H0l.5-.25zM0-1v1l.25-.5z" style="fill:#214068" transform="matrix(30 0 0 30 147.368 205)"/><path d="M0 0h1M0 0v1m0-1h-1m1 0v-1" style="fill:none;stroke:rgba(255,255,255,.2);stroke-width:.01" transform="matrix(30 0 0 30 147.368 205)"/><circle r=".06" style="fill:#222;stroke:rgba(255,255,255,.2);stroke-width:.02" transform="matrix(30 0 0 30 147.368 205)"/><circle r=".12" style="fill:none;stroke:red;stroke-width:.03" transform="matrix(30 0 0 30 147.368 205)"/><path d="M0 1V0h1zm-1-1h1v1zm1-1v1h-1z" style="fill:#000" transform="matrix(30 0 0 30 249.618 205)"/><path d="M1 0H0l.5-.25zM0-1v1l.25-.5z" style="fill:#214068" transform="matrix(30 0 0 30 249.618 205)"/><path d="M-.22 0A.22.22 0 0 0 0 .22M-.28 0A.28.28 0 0 0 0 .28" style="fill:none;stroke:#2a892a;stroke-width:.02;stroke-dasharray:.03,.03;stroke-dashoffset:0" transform="matrix(30 0 0 30 249.618 205)"/><path d="M0 0h1M0 0v1m0-1h-1m1 0v-1" style="fill:none;stroke:rgba(255,255,255,.2);stroke-width:.01" transform="matrix(30 0 0 30 249.618 205)"/><circle r=".06" style="fill:#222;stroke:rgba(255,255,255,.2);stroke-width:.02" transform="matrix(30 0 0 30 249.618 205)"/><path d="M0 .5h13v3L20 0l-7-3.5v3H0z" style="fill:#ccc;stroke:#ccc" transform="translate(290.118 205)"/><path d="M0 1V0h1zm-1-1h1v1zm1-1v1h-1z" style="fill:#000" transform="matrix(30 0 0 30 351.236 205)"/><path d="M1 0H0l.5-.25zM0-1v1l.25-.5z" style="fill:#214068" transform="matrix(30 0 0 30 351.236 205)"/><path d="M-.22 0A.22.22 0 0 0 0 .22M-.28 0A.28.28 0 0 0 0 .28" style="fill:none;stroke:#2a892a;stroke-width:.02;stroke-dasharray:.03,.03;stroke-dashoffset:0" transform="matrix(30 0 0 30 351.236 205)"/><path d="M0 0h1M0 0v1m0-1h-1m1 0v-1" style="fill:none;stroke:rgba(255,255,255,.2);stroke-width:.01" transform="matrix(30 0 0 30 351.236 205)"/><circle r=".06" style="fill:#222;stroke:rgba(255,255,255,.2);stroke-width:.02" transform="matrix(30 0 0 30 351.236 205)"/><circle r=".12" style="fill:none;stroke:red;stroke-width:.03" transform="matrix(30 0 0 30 351.236 205)"/><path d="M0 1V0h1zm-1-1h1v1zm1-1v1h-1z" style="fill:#000" transform="matrix(30 0 0 30 45.375 285.75)"/><path d="M1 0H0l.5-.25zM0-1v1l.25-.5zm0 2V0h1z" style="fill:#214068" transform="matrix(30 0 0 30 45.375 285.75)"/><path d="M0 .25A.25.25 0 0 0 .25 0" style="fill:none;stroke:#e07c1f;stroke-width:.02;stroke-dasharray:.03,.03;stroke-dashoffset:0" transform="matrix(30 0 0 30 45.375 285.75)"/><path d="M0 0h1M0 0v1m0-1h-1m1 0v-1" style="fill:none;stroke:rgba(255,255,255,.2);stroke-width:.01" transform="matrix(30 0 0 30 45.375 285.75)"/><circle r=".06" style="fill:#222;stroke:rgba(255,255,255,.2);stroke-width:.02" transform="matrix(30 0 0 30 45.375 285.75)"/><path d="M0 .5h13v3L20 0l-7-3.5v3H0z" style="fill:#ccc;stroke:#ccc" transform="translate(85.875 285.75)"/><path d="M0 1V0h1zm-1-1h1v1zm1-1v1h-1z" style="fill:#000" transform="matrix(30 0 0 30 146.993 285.75)"/><path d="M1 0H0l.5-.25zM0-1v1l.25-.5zm0 2V0h1z" style="fill:#214068" transform="matrix(30 0 0 30 146.993 285.75)"/><path d="M0 0h1M0 0v1m0-1h-1m1 0v-1" style="fill:none;stroke:rgba(255,255,255,.2);stroke-width:.01" transform="matrix(30 0 0 30 146.993 285.75)"/><circle r=".06" style="fill:#222;stroke:rgba(255,255,255,.2);stroke-width:.02" transform="matrix(30 0 0 30 146.993 285.75)"/><path d="M0 0h1" style="fill:none;stroke:red;stroke-width:.05;stroke-linecap:round" transform="matrix(30 0 0 30 146.993 285.75)"/><path d="M0 1V0h1zm-1-1h1v1zm1-1v1h-1z" style="fill:#000" transform="matrix(30 0 0 30 248.868 285.75)"/><path d="M1 0H0l.5-.25z" style="fill:#214068" transform="matrix(30 0 0 30 248.868 285.75)"/><path d="M0-1v1l.25-.5zm0 2V0h1z" style="fill:#09294c" transform="matrix(30 0 0 30 248.868 285.75)"/><path d="M0 .25A.25.25 0 0 0 .25 0" style="fill:none;stroke:#e07c1f;stroke-width:.02;stroke-dasharray:.03,.03;stroke-dashoffset:0" transform="matrix(30 0 0 30 248.868 285.75)"/><path d="M0 0h1M0 0v1m0-1h-1m1 0v-1" style="fill:none;stroke:rgba(255,255,255,.2);stroke-width:.01" transform="matrix(30 0 0 30 248.868 285.75)"/><circle r=".06" style="fill:#222;stroke:rgba(255,255,255,.2);stroke-width:.02" transform="matrix(30 0 0 30 248.868 285.75)"/><path d="M0 0h-1" style="fill:none;stroke:red;stroke-width:.05;stroke-linecap:round" transform="matrix(30 0 0 30 248.868 285.75)"/><path d="M0 .5h13v3L20 0l-7-3.5v3H0z" style="fill:#ccc;stroke:#ccc" transform="translate(289.368 285.75)"/><path d="M0 1V0h1zm-1-1h1v1zm1-1v1h-1z" style="fill:#000" transform="matrix(30 0 0 30 351.236 285.75)"/><path d="M1 0H0l.5-.25z" style="fill:#214068" transform="matrix(30 0 0 30 351.236 285.75)"/><path d="M0-1v1l.25-.5zm0 0v1h-1zm-1 1h1v1zm1 1V0h1z" style="fill:#09294c" transform="matrix(30 0 0 30 351.236 285.75)"/><path d="M0 0h1M0 0v1m0-1h-1m1 0v-1" style="fill:none;stroke:rgba(255,255,255,.2);stroke-width:.01" transform="matrix(30 0 0 30 351.236 285.75)"/><circle r=".06" style="fill:#222;stroke:rgba(255,255,255,.2);stroke-width:.02" transform="matrix(30 0 0 30 351.236 285.75)"/><path d="M0 0v1m0-1h-1m1 0v-1" style="fill:none;stroke:red;stroke-width:.05;stroke-linecap:round" transform="matrix(30 0 0 30 351.236 285.75)"/><path d="M0 0h1" style="fill:none;stroke:#fff;stroke-width:.1;stroke-linecap:round" transform="matrix(30 0 0 30 351.236 285.75)"/><path d="M0 1V0h1zm-1-1h1v1zm1-1v1h-1z" style="fill:#000" transform="matrix(30 0 0 30 45.75 366.5)"/><path d="M1 0H0l.5-.25zM0-1v1l.25-.5z" style="fill:#214068" transform="matrix(30 0 0 30 45.75 366.5)"/><path d="M0 .25A.25.25 0 0 0 .25 0" style="fill:none;stroke:#e07c1f;stroke-width:.02;stroke-dasharray:.03,.03;stroke-dashoffset:0" transform="matrix(30 0 0 30 45.75 366.5)"/><path d="M0-.22A.22.22 0 0 0-.22 0M0-.28A.28.28 0 0 0-.28 0" style="fill:none;stroke:#2a892a;stroke-width:.02;stroke-dasharray:.03,.03;stroke-dashoffset:0" transform="matrix(30 0 0 30 45.75 366.5)"/><path d="M0 0h1M0 0v1m0-1h-1m1 0v-1" style="fill:none;stroke:rgba(255,255,255,.2);stroke-width:.01" transform="matrix(30 0 0 30 45.75 366.5)"/><circle r=".06" style="fill:#222;stroke:rgba(255,255,255,.2);stroke-width:.02" transform="matrix(30 0 0 30 45.75 366.5)"/><path d="M0 .5h13v3L20 0l-7-3.5v3H0z" style="fill:#ccc;stroke:#ccc" transform="translate(86.25 366.5)"/><path d="M0 1V0h1zm-1-1h1v1zm1-1v1h-1z" style="fill:#000" transform="matrix(30 0 0 30 147.368 366.5)"/><path d="M1 0H0l.5-.25zM0-1v1l.25-.5z" style="fill:#214068" transform="matrix(30 0 0 30 147.368 366.5)"/><path d="M0 .25A.25.25 0 0 0 .25 0" style="fill:none;stroke:#e07c1f;stroke-width:.02;stroke-dasharray:.03,.03;stroke-dashoffset:0" transform="matrix(30 0 0 30 147.368 366.5)"/><path d="M0-.22A.22.22 0 0 0-.22 0M0-.28A.28.28 0 0 0-.28 0" style="fill:none;stroke:#2a892a;stroke-width:.02;stroke-dasharray:.03,.03;stroke-dashoffset:0" transform="matrix(30 0 0 30 147.368 366.5)"/><path d="M0 0h1M0 0v1m0-1h-1m1 0v-1" style="fill:none;stroke:rgba(255,255,255,.2);stroke-width:.01" transform="matrix(30 0 0 30 147.368 366.5)"/><circle r=".06" style="fill:#222;stroke:rgba(255,255,255,.2);stroke-width:.02" transform="matrix(30 0 0 30 147.368 366.5)"/><circle r=".12" style="fill:none;stroke:red;stroke-width:.03" transform="matrix(30 0 0 30 147.368 366.5)"/><path d="M0 1V0h1zm-1-1h1v1zm1-1v1h-1z" style="fill:#000" transform="matrix(30 0 0 30 248.118 366.5)"/><path d="M0 1V0h1z" style="fill:#214068" transform="matrix(30 0 0 30 248.118 366.5)"/><path d="M0-1v1l.25-.5z" style="fill:#09294c" transform="matrix(30 0 0 30 248.118 366.5)"/><path d="M-.25 0A.25.25 0 0 0 0 .25m0-.5A.25.25 0 0 0-.25 0" style="fill:none;stroke:#e07c1f;stroke-width:.02;stroke-dasharray:.03,.03;stroke-dashoffset:0" transform="matrix(30 0 0 30 248.118 366.5)"/><path d="M0 0h1M0 0v1m0-1h-1m1 0v-1" style="fill:none;stroke:rgba(255,255,255,.2);stroke-width:.01" transform="matrix(30 0 0 30 248.118 366.5)"/><circle r=".06" style="fill:#222;stroke:rgba(255,255,255,.2);stroke-width:.02" transform="matrix(30 0 0 30 248.118 366.5)"/><path d="M0 0h1" style="fill:none;stroke:#fff;stroke-width:.1;stroke-linecap:round" transform="matrix(30 0 0 30 248.118 366.5)"/><path d="M0 .5h13v3L20 0l-7-3.5v3H0z" style="fill:#ccc;stroke:#ccc" transform="translate(290.118 366.5)"/><path d="M0 1V0h1zm-1-1h1v1zm1-1v1h-1z" style="fill:#000" transform="matrix(30 0 0 30 351.236 366.5)"/><path d="M1 0H0l.5-.25zM0-1v1l.25-.5z" style="fill:#214068" transform="matrix(30 0 0 30 351.236 366.5)"/><path d="M0 1V0h1z" style="fill:#09294c" transform="matrix(30 0 0 30 351.236 366.5)"/><path d="M-.25 0A.25.25 0 0 0 0 .25m0-.5A.25.25 0 0 0-.25 0" style="fill:none;stroke:#e07c1f;stroke-width:.02;stroke-dasharray:.03,.03;stroke-dashoffset:0" transform="matrix(30 0 0 30 351.236 366.5)"/><path d="M0 0h1M0 0v1m0-1h-1m1 0v-1" style="fill:none;stroke:rgba(255,255,255,.2);stroke-width:.01" transform="matrix(30 0 0 30 351.236 366.5)"/><circle r=".06" style="fill:#222;stroke:rgba(255,255,255,.2);stroke-width:.02" transform="matrix(30 0 0 30 351.236 366.5)"/><circle r=".12" style="fill:none;stroke:red;stroke-width:.03" transform="matrix(30 0 0 30 351.236 366.5)"/><path d="M0 0h1" style="fill:none;stroke:#fff;stroke-width:.1;stroke-linecap:round" transform="matrix(30 0 0 30 351.236 366.5)"/><path d="M0 1V0h1zm-1-1h1v1zm1-1v1h-1z" style="fill:#000" transform="matrix(30 0 0 30 45.375 447.25)"/><path d="M0 1V0h1zm0-2v1l.25-.5z" style="fill:#214068" transform="matrix(30 0 0 30 45.375 447.25)"/><path d="M0-1v1h-1zm1 1H0l.5-.25z" style="fill:#224935" transform="matrix(30 0 0 30 45.375 447.25)"/><path d="M0 .25A.25.25 0 0 0 .25 0M0-.25A.25.25 0 0 0-.25 0" style="fill:none;stroke:#e07c1f;stroke-width:.02;stroke-dasharray:.03,.03;stroke-dashoffset:0" transform="matrix(30 0 0 30 45.375 447.25)"/><path d="M0 0h1M0 0v1m0-1h-1m1 0v-1" style="fill:none;stroke:rgba(255,255,255,.2);stroke-width:.01" transform="matrix(30 0 0 30 45.375 447.25)"/><circle r=".06" style="fill:#222;stroke:rgba(255,255,255,.2);stroke-width:.02" transform="matrix(30 0 0 30 45.375 447.25)"/><path d="M0 .5h13v3L20 0l-7-3.5v3H0z" style="fill:#ccc;stroke:#ccc" transform="translate(85.875 446.875)"/><path d="M0 1V0h1zm-1-1h1v1zm1-1v1h-1z" style="fill:#000" transform="matrix(30 0 0 30 146.993 447.25)"/><path d="M1 0H0l.5-.25zM0-1v1l.25-.5zm0 0v1h-1zm0 2V0h1z" style="fill:#214068" transform="matrix(30 0 0 30 146.993 447.25)"/><path d="M-.22 0A.22.22 0 0 0 0 .22M-.28 0A.28.28 0 0 0 0 .28" style="fill:none;stroke:#08a4d9;stroke-width:.02" transform="matrix(30 0 0 30 146.993 447.25)"/><path d="M0 0h1M0 0v1m0-1h-1m1 0v-1" style="fill:none;stroke:rgba(255,255,255,.2);stroke-width:.01" transform="matrix(30 0 0 30 146.993 447.25)"/><circle r=".06" style="fill:#222;stroke:rgba(255,255,255,.2);stroke-width:.02" transform="matrix(30 0 0 30 146.993 447.25)"/><path d="M0 0h1M0 0v-1" style="fill:none;stroke:red;stroke-width:.05;stroke-linecap:round" transform="matrix(30 0 0 30 146.993 447.25)"/><path d="M0 1V0h1zm-1-1h1v1zm1-1v1h-1z" style="fill:#000" transform="matrix(30 0 0 30 248.868 446.875)"/><path d="M1 0H0l.5-.25zM0-1v1l.25-.5z" style="fill:#214068" transform="matrix(30 0 0 30 248.868 446.875)"/><path d="M0 1V0h1z" style="fill:#09294c" transform="matrix(30 0 0 30 248.868 446.875)"/><path d="M-.25 0A.25.25 0 0 0 0 .25m0-.5A.25.25 0 0 0-.25 0" style="fill:none;stroke:#e07c1f;stroke-width:.02;stroke-dasharray:.03,.03;stroke-dashoffset:0" transform="matrix(30 0 0 30 248.868 446.875)"/><path d="M0 0h1M0 0v1m0-1h-1m1 0v-1" style="fill:none;stroke:rgba(255,255,255,.2);stroke-width:.01" transform="matrix(30 0 0 30 248.868 446.875)"/><circle r=".06" style="fill:#222;stroke:rgba(255,255,255,.2);stroke-width:.02" transform="matrix(30 0 0 30 248.868 446.875)"/><path d="M0 .5h13v3L20 0l-7-3.5v3H0z" style="fill:#ccc;stroke:#ccc" transform="translate(289.368 446.875)"/><path d="M0 1V0h1zm-1-1h1v1zm1-1v1h-1z" style="fill:#000" transform="matrix(30 0 0 30 350.486 446.875)"/><path d="M1 0H0l.5-.25zM0-1v1l.25-.5z" style="fill:#214068" transform="matrix(30 0 0 30 350.486 446.875)"/><path d="M0 1V0h1z" style="fill:#09294c" transform="matrix(30 0 0 30 350.486 446.875)"/><path d="M-.25 0A.25.25 0 0 0 0 .25m0-.5A.25.25 0 0 0-.25 0" style="fill:none;stroke:#e07c1f;stroke-width:.02;stroke-dasharray:.03,.03;stroke-dashoffset:0" transform="matrix(30 0 0 30 350.486 446.875)"/><path d="M0 0h1M0 0v1m0-1h-1m1 0v-1" style="fill:none;stroke:rgba(255,255,255,.2);stroke-width:.01" transform="matrix(30 0 0 30 350.486 446.875)"/><circle r=".06" style="fill:#222;stroke:rgba(255,255,255,.2);stroke-width:.02" transform="matrix(30 0 0 30 350.486 446.875)"/><circle r=".12" style="fill:none;stroke:red;stroke-width:.03" transform="matrix(30 0 0 30 350.486 446.875)"/><path d="M0 0h1" style="fill:none;stroke:#fff;stroke-width:.1;stroke-linecap:round" transform="matrix(30 0 0 30 350.486 446.875)"/><path d="M0 1V0h1zm-1-1h1v1zm1-1v1h-1z" style="fill:#000" transform="matrix(30 0 0 30 45 527.25)"/><path d="M0 1V0h1z" style="fill:#214068" transform="matrix(30 0 0 30 45 527.25)"/><path d="M0-1v1l.25-.5z" style="fill:#09294c" transform="matrix(30 0 0 30 45 527.25)"/><path d="M-.25 0A.25.25 0 0 0 0 .25m0-.5A.25.25 0 0 0-.25 0" style="fill:none;stroke:#e07c1f;stroke-width:.02;stroke-dasharray:.03,.03;stroke-dashoffset:0" transform="matrix(30 0 0 30 45 527.25)"/><path d="M0 0h1M0 0v1m0-1h-1m1 0v-1" style="fill:none;stroke:rgba(255,255,255,.2);stroke-width:.01" transform="matrix(30 0 0 30 45 527.25)"/><circle r=".06" style="fill:#222;stroke:rgba(255,255,255,.2);stroke-width:.02" transform="matrix(30 0 0 30 45 527.25)"/><path d="M0 0h1" style="fill:none;stroke:red;stroke-width:.05;stroke-linecap:round" transform="matrix(30 0 0 30 45 527.25)"/><path d="M0 .5h13v3L20 0l-7-3.5v3H0z" style="fill:#ccc;stroke:#ccc" transform="translate(86.25 527.25)"/><path d="M0 1V0h1zm-1-1h1v1zm1-1v1h-1z" style="fill:#000" transform="matrix(30 0 0 30 147.368 527.25)"/><path d="M1 0H0l.5-.25zM0 1V0h1z" style="fill:#214068" transform="matrix(30 0 0 30 147.368 527.25)"/><path d="M0-1v1l.25-.5z" style="fill:#09294c" transform="matrix(30 0 0 30 147.368 527.25)"/><path d="M-.25 0A.25.25 0 0 0 0 .25m0-.5A.25.25 0 0 0-.25 0" style="fill:none;stroke:#e07c1f;stroke-width:.02;stroke-dasharray:.03,.03;stroke-dashoffset:0" transform="matrix(30 0 0 30 147.368 527.25)"/><path d="M0 0h1M0 0v1m0-1h-1m1 0v-1" style="fill:none;stroke:rgba(255,255,255,.2);stroke-width:.01" transform="matrix(30 0 0 30 147.368 527.25)"/><circle r=".06" style="fill:#222;stroke:rgba(255,255,255,.2);stroke-width:.02" transform="matrix(30 0 0 30 147.368 527.25)"/><path d="M0 0h1" style="fill:none;stroke:red;stroke-width:.05;stroke-linecap:round" transform="matrix(30 0 0 30 147.368 527.25)"/><path d="M0 1V0h1zm-1-1h1v1zm1-1v1h-1z" style="fill:#000" transform="matrix(30 0 0 30 248.868 527.25)"/><path d="M1 0H0l.5-.25z" style="fill:#214068" transform="matrix(30 0 0 30 248.868 527.25)"/><path d="M0-1v1l.25-.5z" style="fill:#09294c" transform="matrix(30 0 0 30 248.868 527.25)"/><path d="M-.25 0A.25.25 0 0 0 0 .25m0-.5A.25.25 0 0 0-.25 0" style="fill:none;stroke:#e07c1f;stroke-width:.02;stroke-dasharray:.03,.03;stroke-dashoffset:0" transform="matrix(30 0 0 30 248.868 527.25)"/><path d="M0 0h1M0 0v1m0-1h-1m1 0v-1" style="fill:none;stroke:rgba(255,255,255,.2);stroke-width:.01" transform="matrix(30 0 0 30 248.868 527.25)"/><circle r=".06" style="fill:#222;stroke:rgba(255,255,255,.2);stroke-width:.02" transform="matrix(30 0 0 30 248.868 527.25)"/><path d="M0 0h1" style="fill:none;stroke:red;stroke-width:.05;stroke-linecap:round" transform="matrix(30 0 0 30 248.868 527.25)"/><path d="M0 .5h13v3L20 0l-7-3.5v3H0z" style="fill:#ccc;stroke:#ccc" transform="translate(290.118 527.25)"/><path d="M0 1V0h1zm-1-1h1v1zm1-1v1h-1z" style="fill:#000" transform="matrix(30 0 0 30 351.236 527.25)"/><path d="M1 0H0l.5-.25zM0 1V0h1z" style="fill:#214068" transform="matrix(30 0 0 30 351.236 527.25)"/><path d="M0-1v1l.25-.5z" style="fill:#09294c" transform="matrix(30 0 0 30 351.236 527.25)"/><path d="M-.25 0A.25.25 0 0 0 0 .25m0-.5A.25.25 0 0 0-.25 0" style="fill:none;stroke:#e07c1f;stroke-width:.02;stroke-dasharray:.03,.03;stroke-dashoffset:0" transform="matrix(30 0 0 30 351.236 527.25)"/><path d="M0 0h1M0 0v1m0-1h-1m1 0v-1" style="fill:none;stroke:rgba(255,255,255,.2);stroke-width:.01" transform="matrix(30 0 0 30 351.236 527.25)"/><circle r=".06" style="fill:#222;stroke:rgba(255,255,255,.2);stroke-width:.02" transform="matrix(30 0 0 30 351.236 527.25)"/><path d="M0 0h1" style="fill:none;stroke:red;stroke-width:.05;stroke-linecap:round" transform="matrix(30 0 0 30 351.236 527.25)"/><path d="M0 1V0h1zm-1-1h1v1zm1-1v1h-1z" style="fill:#000" transform="matrix(30 0 0 30 45.75 608)"/><path d="M1 0H0l.5-.25zM0-1v1l.25-.5z" style="fill:#214068" transform="matrix(30 0 0 30 45.75 608)"/><path d="M0 .25A.25.25 0 0 0 .25 0" style="fill:none;stroke:#e07c1f;stroke-width:.02;stroke-dasharray:.03,.03;stroke-dashoffset:0" transform="matrix(30 0 0 30 45.75 608)"/><path d="M-.22 0A.22.22 0 0 0 0 .22M-.28 0A.28.28 0 0 0 0 .28" style="fill:none;stroke:#2a892a;stroke-width:.02;stroke-dasharray:.03,.03;stroke-dashoffset:0" transform="matrix(30 0 0 30 45.75 608)"/><path d="M0 0h1M0 0v1m0-1h-1m1 0v-1" style="fill:none;stroke:rgba(255,255,255,.2);stroke-width:.01" transform="matrix(30 0 0 30 45.75 608)"/><circle r=".06" style="fill:#222;stroke:rgba(255,255,255,.2);stroke-width:.02" transform="matrix(30 0 0 30 45.75 608)"/><circle r=".12" style="fill:none;stroke:red;stroke-width:.03" transform="matrix(30 0 0 30 45.75 608)"/><path d="M0 .5h13v3L20 0l-7-3.5v3H0z" style="fill:#ccc;stroke:#ccc" transform="translate(86.25 608)"/><path d="M0 1V0h1zm-1-1h1v1zm1-1v1h-1z" style="fill:#000" transform="matrix(30 0 0 30 147.368 608)"/><path d="M1 0H0l.5-.25zM0-1v1l.25-.5z" style="fill:#214068" transform="matrix(30 0 0 30 147.368 608)"/><path d="M0 .25A.25.25 0 0 0 .25 0" style="fill:none;stroke:#e07c1f;stroke-width:.02;stroke-dasharray:.03,.03;stroke-dashoffset:0" transform="matrix(30 0 0 30 147.368 608)"/><path d="M-.22 0A.22.22 0 0 0 0 .22M-.28 0A.28.28 0 0 0 0 .28m0-.5A.22.22 0 0 0-.22 0M0-.28A.28.28 0 0 0-.28 0" style="fill:none;stroke:#2a892a;stroke-width:.02;stroke-dasharray:.03,.03;stroke-dashoffset:0" transform="matrix(30 0 0 30 147.368 608)"/><path d="M0 0h1M0 0v1m0-1h-1m1 0v-1" style="fill:none;stroke:rgba(255,255,255,.2);stroke-width:.01" transform="matrix(30 0 0 30 147.368 608)"/><circle r=".06" style="fill:#222;stroke:rgba(255,255,255,.2);stroke-width:.02" transform="matrix(30 0 0 30 147.368 608)"/><circle r=".12" style="fill:none;stroke:red;stroke-width:.03" transform="matrix(30 0 0 30 147.368 608)"/><path d="M0 1V0h1zm-1-1h1v1zm1-1v1h-1z" style="fill:#000" transform="matrix(30 0 0 30 249.618 608.75)"/><path d="M1 0H0l.5-.25zM0-1v1l.25-.5z" style="fill:#214068" transform="matrix(30 0 0 30 249.618 608.75)"/><path d="M0 .25A.25.25 0 0 0 .25 0m-.5 0A.25.25 0 0 0 0 .25" style="fill:none;stroke:#e07c1f;stroke-width:.02;stroke-dasharray:.03,.03;stroke-dashoffset:0" transform="matrix(30 0 0 30 249.618 608.75)"/><path d="M0 0h1M0 0v1m0-1h-1m1 0v-1" style="fill:none;stroke:rgba(255,255,255,.2);stroke-width:.01" transform="matrix(30 0 0 30 249.618 608.75)"/><circle r=".06" style="fill:#222;stroke:rgba(255,255,255,.2);stroke-width:.02" transform="matrix(30 0 0 30 249.618 608.75)"/><circle r=".12" style="fill:none;stroke:red;stroke-width:.03" transform="matrix(30 0 0 30 249.618 608.75)"/><path d="M0 0v-1" style="fill:none;stroke:#fff;stroke-width:.1;stroke-linecap:round" transform="matrix(30 0 0 30 249.618 608.75)"/><path d="M0 .5h13v3L20 0l-7-3.5v3H0z" style="fill:#ccc;stroke:#ccc" transform="translate(290.118 608)"/><path d="M0 1V0h1zm-1-1h1v1zm1-1v1h-1z" style="fill:#000" transform="matrix(30 0 0 30 351.236 608.75)"/><path d="M1 0H0l.5-.25zM0-1v1l.25-.5z" style="fill:#214068" transform="matrix(30 0 0 30 351.236 608.75)"/><path d="M0-1v1h-1z" style="fill:#09294c" transform="matrix(30 0 0 30 351.236 608.75)"/><path d="M0 .25A.25.25 0 0 0 .25 0m-.5 0A.25.25 0 0 0 0 .25" style="fill:none;stroke:#e07c1f;stroke-width:.02;stroke-dasharray:.03,.03;stroke-dashoffset:0" transform="matrix(30 0 0 30 351.236 608.75)"/><path d="M0 0h1M0 0v1m0-1h-1m1 0v-1" style="fill:none;stroke:rgba(255,255,255,.2);stroke-width:.01" transform="matrix(30 0 0 30 351.236 608.75)"/><circle r=".06" style="fill:#222;stroke:rgba(255,255,255,.2);stroke-width:.02" transform="matrix(30 0 0 30 351.236 608.75)"/><circle r=".12" style="fill:none;stroke:red;stroke-width:.03" transform="matrix(30 0 0 30 351.236 608.75)"/><path d="M0 0v-1" style="fill:none;stroke:#fff;stroke-width:.1;stroke-linecap:round" transform="matrix(30 0 0 30 351.236 608.75)"/><path d="M0 1V0h1zm-1-1h1v1zm1-1v1h-1z" style="fill:#000" transform="matrix(30 0 0 30 45.75 689.5)"/><path d="M0 1V0h1z" style="fill:#214068" transform="matrix(30 0 0 30 45.75 689.5)"/><path d="M-1 0h1v1zm2 0H0l.5-.25z" style="fill:#224935" transform="matrix(30 0 0 30 45.75 689.5)"/><path d="M0-1v1h-1z" style="fill:#09294c" transform="matrix(30 0 0 30 45.75 689.5)"/><path d="M0 .22A.22.22 0 0 0 .22 0M0 .28A.28.28 0 0 0 .28 0" style="fill:none;stroke:#08a4d9;stroke-width:.02" transform="matrix(30 0 0 30 45.75 689.5)"/><path d="M-.25 0A.25.25 0 0 0 0 .25" style="fill:none;stroke:red;stroke-width:.02" transform="matrix(30 0 0 30 45.75 689.5)"/><path d="M0-.25A.25.25 0 0 0-.25 0" style="fill:none;stroke:#e07c1f;stroke-width:.02;stroke-dasharray:.03,.03;stroke-dashoffset:0" transform="matrix(30 0 0 30 45.75 689.5)"/><path d="M0 0h1M0 0v1m0-1h-1m1 0v-1" style="fill:none;stroke:rgba(255,255,255,.2);stroke-width:.01" transform="matrix(30 0 0 30 45.75 689.5)"/><circle r=".06" style="fill:#222;stroke:rgba(255,255,255,.2);stroke-width:.02" transform="matrix(30 0 0 30 45.75 689.5)"/><path d="M0 .5h13v3L20 0l-7-3.5v3H0z" style="fill:#ccc;stroke:#ccc" transform="translate(86.25 689.125)"/><path d="M0 1V0h1zm-1-1h1v1zm1-1v1h-1z" style="fill:#000" transform="matrix(30 0 0 30 147.368 689.5)"/><path d="M0 1V0h1z" style="fill:#214068" transform="matrix(30 0 0 30 147.368 689.5)"/><path d="M-1 0h1v1zm2 0H0l.5-.25z" style="fill:#224935" transform="matrix(30 0 0 30 147.368 689.5)"/><path d="M0-1v1l.25-.5zm0 0v1h-1z" style="fill:#09294c" transform="matrix(30 0 0 30 147.368 689.5)"/><path d="M0 .22A.22.22 0 0 0 .22 0M0 .28A.28.28 0 0 0 .28 0" style="fill:none;stroke:#08a4d9;stroke-width:.02" transform="matrix(30 0 0 30 147.368 689.5)"/><path d="M-.25 0A.25.25 0 0 0 0 .25" style="fill:none;stroke:red;stroke-width:.02" transform="matrix(30 0 0 30 147.368 689.5)"/><path d="M0 0h1M0 0v1m0-1h-1m1 0v-1" style="fill:none;stroke:rgba(255,255,255,.2);stroke-width:.01" transform="matrix(30 0 0 30 147.368 689.5)"/><circle r=".06" style="fill:#222;stroke:rgba(255,255,255,.2);stroke-width:.02" transform="matrix(30 0 0 30 147.368 689.5)"/><path d="M0 0v-1" style="fill:none;stroke:red;stroke-width:.05;stroke-linecap:round" transform="matrix(30 0 0 30 147.368 689.5)"/><path d="M0 1V0h1zm-1-1h1v1zm1-1v1h-1z" style="fill:#000" transform="matrix(30 0 0 30 249.243 689.5)"/><path d="M0 1V0h1z" style="fill:#214068" transform="matrix(30 0 0 30 249.243 689.5)"/><path d="M1 0H0l.5-.25z" style="fill:#224935" transform="matrix(30 0 0 30 249.243 689.5)"/><path d="M0-1v1h-1z" style="fill:#09294c" transform="matrix(30 0 0 30 249.243 689.5)"/><path d="M0-1v1l.25-.5z" style="fill:#0d301f" transform="matrix(30 0 0 30 249.243 689.5)"/><path d="M0 .25A.25.25 0 0 0 .25 0" style="fill:none;stroke:#e07c1f;stroke-width:.02;stroke-dasharray:.03,.03;stroke-dashoffset:0" transform="matrix(30 0 0 30 249.243 689.5)"/><path d="M-.25 0A.25.25 0 0 0 0 .25" style="fill:none;stroke:red;stroke-width:.02" transform="matrix(30 0 0 30 249.243 689.5)"/><path d="M0-.25A.25.25 0 0 0-.25 0" style="fill:none;stroke:#e07c1f;stroke-width:.02;stroke-dasharray:.03,.03;stroke-dashoffset:0" transform="matrix(30 0 0 30 249.243 689.5)"/><path d="M0 0h1M0 0v1m0-1h-1m1 0v-1" style="fill:none;stroke:rgba(255,255,255,.2);stroke-width:.01" transform="matrix(30 0 0 30 249.243 689.5)"/><circle r=".06" style="fill:#222;stroke:rgba(255,255,255,.2);stroke-width:.02" transform="matrix(30 0 0 30 249.243 689.5)"/><path d="M0 .5h13v3L20 0l-7-3.5v3H0z" style="fill:#ccc;stroke:#ccc" transform="translate(289.743 689.125)"/><path d="M0 1V0h1zm-1-1h1v1zm1-1v1h-1z" style="fill:#000" transform="matrix(30 0 0 30 350.861 689.5)"/><path d="M1 0H0l.5-.25zM0 1V0h1z" style="fill:#214068" transform="matrix(30 0 0 30 350.861 689.5)"/><path d="M0-1v1l.25-.5zm0 0v1h-1z" style="fill:#09294c" transform="matrix(30 0 0 30 350.861 689.5)"/><path d="M-.25 0A.25.25 0 0 0 0 .25" style="fill:none;stroke:red;stroke-width:.02" transform="matrix(30 0 0 30 350.861 689.5)"/><path d="M0 0h1M0 0v1m0-1h-1m1 0v-1" style="fill:none;stroke:rgba(255,255,255,.2);stroke-width:.01" transform="matrix(30 0 0 30 350.861 689.5)"/><circle r=".06" style="fill:#222;stroke:rgba(255,255,255,.2);stroke-width:.02" transform="matrix(30 0 0 30 350.861 689.5)"/><path d="M0 0h1M0 0v-1" style="fill:none;stroke:red;stroke-width:.05;stroke-linecap:round" transform="matrix(30 0 0 30 350.861 689.5)"/><path d="M0 1V0h1zm-1-1h1v1zm1-1v1h-1z" style="fill:#000" transform="matrix(30 0 0 30 45.375 769.5)"/><path d="M1 0H0l.5-.25zM0 1V0h1z" style="fill:#214068" transform="matrix(30 0 0 30 45.375 769.5)"/><path d="M0-1v1l.25-.5z" style="fill:#09294c" transform="matrix(30 0 0 30 45.375 769.5)"/><path d="M0 .25A.25.25 0 0 0 .25 0m-.5 0A.25.25 0 0 0 0 .25m0-.5A.25.25 0 0 0-.25 0" style="fill:none;stroke:#e07c1f;stroke-width:.02;stroke-dasharray:.03,.03;stroke-dashoffset:0" transform="matrix(30 0 0 30 45.375 769.5)"/><path d="M0 0h1M0 0v1m0-1h-1m1 0v-1" style="fill:none;stroke:rgba(255,255,255,.2);stroke-width:.01" transform="matrix(30 0 0 30 45.375 769.5)"/><circle r=".06" style="fill:#222;stroke:rgba(255,255,255,.2);stroke-width:.02" transform="matrix(30 0 0 30 45.375 769.5)"/><path d="M0 .5h13v3L20 0l-7-3.5v3H0z" style="fill:#ccc;stroke:#ccc" transform="translate(85.875 769.5)"/><path d="M0 1V0h1zm-1-1h1v1zm1-1v1h-1z" style="fill:#000" transform="matrix(30 0 0 30 146.993 769.5)"/><path d="M1 0H0l.5-.25zM0 1V0h1z" style="fill:#214068" transform="matrix(30 0 0 30 146.993 769.5)"/><path d="M0-1v1l.25-.5z" style="fill:#09294c" transform="matrix(30 0 0 30 146.993 769.5)"/><path d="M-.25 0A.25.25 0 0 0 0 .25m0-.5A.25.25 0 0 0-.25 0" style="fill:none;stroke:#e07c1f;stroke-width:.02;stroke-dasharray:.03,.03;stroke-dashoffset:0" transform="matrix(30 0 0 30 146.993 769.5)"/><path d="M0 0h1M0 0v1m0-1h-1m1 0v-1" style="fill:none;stroke:rgba(255,255,255,.2);stroke-width:.01" transform="matrix(30 0 0 30 146.993 769.5)"/><circle r=".06" style="fill:#222;stroke:rgba(255,255,255,.2);stroke-width:.02" transform="matrix(30 0 0 30 146.993 769.5)"/><path d="M0 0h1" style="fill:none;stroke:red;stroke-width:.05;stroke-linecap:round" transform="matrix(30 0 0 30 146.993 769.5)"/></svg>