<svg xmlns="http://www.w3.org/2000/svg" width="191" height="98" aria-hidden="true" style="pointer-events:none;position:absolute;left:0;top:0;transform-origin:left top;z-index:20"><rect width="181" height="88" rx="0" ry="0" style="fill:#333"/><path d="M.309.951 0 0h1zM-.809.588 0 0l.309.951zm0-1.176L0 0l-.809.588zM.309-.95 0 0l-.809-.588zM1 0H0l.309-.951z" style="fill:#000" transform="matrix(30 0 0 30 39.359 43.578)"/><path d="M-.202-.147a.25.25 0 0 0 0 .294" style="fill:none;stroke:#e07c1f;stroke-width:.02;stroke-dasharray:.03,.03;stroke-dashoffset:0" transform="matrix(30 0 0 30 39.359 43.578)"/><path d="M.068-.21a.22.22 0 0 0-.246.08m.265-.136a.28.28 0 0 0-.314.101" style="fill:none;stroke:#2a892a;stroke-width:.02;stroke-dasharray:.03,.03;stroke-dashoffset:0" transform="matrix(30 0 0 30 39.359 43.578)"/><path d="M0 0h1M0 0l.309.951M0 0l-.809.588M0 0l-.809-.588M0 0l.309-.951" style="fill:none;stroke:rgba(255,255,255,.2);stroke-width:.01" transform="matrix(30 0 0 30 39.359 43.578)"/><circle r=".04" style="fill:rgba(255,255,255,.2);stroke:rgba(255,255,255,.2);stroke-width:.02" transform="matrix(30 0 0 30 39.359 43.578)"/><path d="m0 0 .309.951" style="fill:none;stroke:red;stroke-width:.05;stroke-linecap:round" transform="matrix(30 0 0 30 39.359 43.578)"/><path d="M0 .5h13v3L20 0l-7-3.5v3H0z" style="fill:#ccc;stroke:#ccc" transform="translate(79.859 43.93)"/><path d="M.309.951 0 0h1zM-.809.588 0 0l.309.951zm0-1.176L0 0l-.809.588zM.309-.95 0 0l-.809-.588zM1 0H0l.309-.951z" style="fill:#000" transform="matrix(30 0 0 30 135.335 43.578)"/><path d="M-.202-.147a.25.25 0 0 0 0 .294" style="fill:none;stroke:#e07c1f;stroke-width:.02;stroke-dasharray:.03,.03;stroke-dashoffset:0" transform="matrix(30 0 0 30 135.335 43.578)"/><path d="M.068-.21a.22.22 0 0 0-.246.08m.265-.136a.28.28 0 0 0-.314.101M.22 0a.22.22 0 0 0-.152-.21M.28 0a.28.28 0 0 0-.193-.266" style="fill:none;stroke:#2a892a;stroke-width:.02;stroke-dasharray:.03,.03;stroke-dashoffset:0" transform="matrix(30 0 0 30 135.335 43.578)"/><path d="M0 0h1M0 0l.309.951M0 0l-.809.588M0 0l-.809-.588M0 0l.309-.951" style="fill:none;stroke:rgba(255,255,255,.2);stroke-width:.01" transform="matrix(30 0 0 30 135.335 43.578)"/><circle r=".04" style="fill:rgba(255,255,255,.2);stroke:rgba(255,255,255,.2);stroke-width:.02" transform="matrix(30 0 0 30 135.335 43.578)"/><path d="m0 0 .309.951" style="fill:none;stroke:red;stroke-width:.05;stroke-linecap:round" transform="matrix(30 0 0 30 135.335 43.578)"/></svg>