<svg xmlns="http://www.w3.org/2000/svg" width="194" height="948" aria-hidden="true" style="pointer-events:none;position:absolute;left:0;top:0;transform-origin:left top;z-index:20"><rect width="184" height="938" rx="0" ry="0" style="fill:#333"/><path d="M.309.951 0 0h1zM-.809.588 0 0l.309.951zm0-1.176L0 0l-.809.588zM.309-.95 0 0l-.809-.588zM1 0H0l.309-.951z" style="fill:#000" transform="matrix(30 0 0 30 39.359 43.578)"/><path d="M0 0h1M0 0l.309.951M0 0l-.809.588M0 0l-.809-.588M0 0l.309-.951" style="fill:none;stroke:rgba(255,255,255,.2);stroke-width:.01" transform="matrix(30 0 0 30 39.359 43.578)"/><circle r=".04" style="fill:rgba(255,255,255,.2);stroke:rgba(255,255,255,.2);stroke-width:.02" transform="matrix(30 0 0 30 39.359 43.578)"/><path d="M0 0h1" style="fill:none;stroke:#fff;stroke-width:.1;stroke-linecap:round" transform="matrix(30 0 0 30 39.359 43.578)"/><path d="M0 .5h13v3L20 0l-7-3.5v3H0z" style="fill:#ccc;stroke:#ccc" transform="translate(81.359 43.578)"/><path d="M.309.951 0 0h1zM-.809.588 0 0l.309.951zm0-1.176L0 0l-.809.588zM.309-.95 0 0l-.809-.588zM1 0H0l.309-.951z" style="fill:#000" transform="matrix(30 0 0 30 136.835 43.578)"/><path d="M-.202.147a.25.25 0 0 0 .28.09m-.28-.384a.25.25 0 0 0 0 .294m.279-.385a.25.25 0 0 0-.28.091" style="fill:none;stroke:#e07c1f;stroke-width:.02;stroke-dasharray:.03,.03;stroke-dashoffset:0" transform="matrix(30 0 0 30 136.835 43.578)"/><path d="M0 0h1M0 0l.309.951M0 0l-.809.588M0 0l-.809-.588M0 0l.309-.951" style="fill:none;stroke:rgba(255,255,255,.2);stroke-width:.01" transform="matrix(30 0 0 30 136.835 43.578)"/><circle r=".04" style="fill:rgba(255,255,255,.2);stroke:rgba(255,255,255,.2);stroke-width:.02" transform="matrix(30 0 0 30 136.835 43.578)"/><path d="M0 0h1" style="fill:none;stroke:#fff;stroke-width:.1;stroke-linecap:round" transform="matrix(30 0 0 30 136.835 43.578)"/><path d="M.309.951 0 0h1zM-.809.588 0 0l.309.951zm0-1.176L0 0l-.809.588zM.309-.95 0 0l-.809-.588zM1 0H0l.309-.951z" style="fill:#000" transform="matrix(30 0 0 30 40.859 120.734)"/><path d="M.309.951 0 0h1zm0-1.902L0 0l-.809-.588z" style="fill:#214068" transform="matrix(30 0 0 30 40.859 120.734)"/><path d="M0 0h1M0 0l.309.951M0 0l-.809.588M0 0l-.809-.588M0 0l.309-.951" style="fill:none;stroke:rgba(255,255,255,.2);stroke-width:.01" transform="matrix(30 0 0 30 40.859 120.734)"/><circle r=".04" style="fill:rgba(255,255,255,.2);stroke:rgba(255,255,255,.2);stroke-width:.02" transform="matrix(30 0 0 30 40.859 120.734)"/><path d="M0 .5h13v3L20 0l-7-3.5v3H0z" style="fill:#ccc;stroke:#ccc" transform="translate(81.359 120.734)"/><path d="M.309.951 0 0h1zM-.809.588 0 0l.309.951zm0-1.176L0 0l-.809.588zM.309-.95 0 0l-.809-.588zM1 0H0l.309-.951z" style="fill:#000" transform="matrix(30 0 0 30 136.835 120.734)"/><path d="M.309.951 0 0h1zm0-1.902L0 0l-.809-.588z" style="fill:#214068" transform="matrix(30 0 0 30 136.835 120.734)"/><path d="M.077.238A.25.25 0 0 0 .25 0M.077-.238a.25.25 0 0 0-.28.091" style="fill:none;stroke:#e07c1f;stroke-width:.02;stroke-dasharray:.03,.03;stroke-dashoffset:0" transform="matrix(30 0 0 30 136.835 120.734)"/><path d="M.22 0a.22.22 0 0 0-.152-.21M.28 0a.28.28 0 0 0-.193-.266" style="fill:none;stroke:#08a4d9;stroke-width:.02" transform="matrix(30 0 0 30 136.835 120.734)"/><path d="M0 0h1M0 0l.309.951M0 0l-.809.588M0 0l-.809-.588M0 0l.309-.951" style="fill:none;stroke:rgba(255,255,255,.2);stroke-width:.01" transform="matrix(30 0 0 30 136.835 120.734)"/><circle r=".04" style="fill:rgba(255,255,255,.2);stroke:rgba(255,255,255,.2);stroke-width:.02" transform="matrix(30 0 0 30 136.835 120.734)"/><path d="M.309.951 0 0h1zM-.809.588 0 0l.309.951zm0-1.176L0 0l-.809.588zM.309-.95 0 0l-.809-.588zM1 0H0l.309-.951z" style="fill:#000" transform="matrix(30 0 0 30 40.859 197.89)"/><path d="M.309.951 0 0h1z" style="fill:#214068" transform="matrix(30 0 0 30 40.859 197.89)"/><path d="M.309-.951 0 0l-.809-.588z" style="fill:#09294c" transform="matrix(30 0 0 30 40.859 197.89)"/><path d="M0 0h1M0 0l.309.951M0 0l-.809.588M0 0l-.809-.588M0 0l.309-.951" style="fill:none;stroke:rgba(255,255,255,.2);stroke-width:.01" transform="matrix(30 0 0 30 40.859 197.89)"/><circle r=".04" style="fill:rgba(255,255,255,.2);stroke:rgba(255,255,255,.2);stroke-width:.02" transform="matrix(30 0 0 30 40.859 197.89)"/><path d="M0 .5h13v3L20 0l-7-3.5v3H0z" style="fill:#ccc;stroke:#ccc" transform="translate(81.359 197.89)"/><path d="M.309.951 0 0h1zM-.809.588 0 0l.309.951zm0-1.176L0 0l-.809.588zM.309-.95 0 0l-.809-.588zM1 0H0l.309-.951z" style="fill:#000" transform="matrix(30 0 0 30 136.835 197.89)"/><path d="M.309.951 0 0h1z" style="fill:#214068" transform="matrix(30 0 0 30 136.835 197.89)"/><path d="M.309-.951 0 0l-.809-.588z" style="fill:#09294c" transform="matrix(30 0 0 30 136.835 197.89)"/><path d="M-.202.147a.25.25 0 0 0 .28.09m-.28-.384a.25.25 0 0 0 0 .294" style="fill:none;stroke:#e07c1f;stroke-width:.02;stroke-dasharray:.03,.03;stroke-dashoffset:0" transform="matrix(30 0 0 30 136.835 197.89)"/><path d="M.25 0a.25.25 0 0 0-.173-.238" style="fill:none;stroke:red;stroke-width:.02" transform="matrix(30 0 0 30 136.835 197.89)"/><path d="M0 0h1M0 0l.309.951M0 0l-.809.588M0 0l-.809-.588M0 0l.309-.951" style="fill:none;stroke:rgba(255,255,255,.2);stroke-width:.01" transform="matrix(30 0 0 30 136.835 197.89)"/><circle r=".04" style="fill:rgba(255,255,255,.2);stroke:rgba(255,255,255,.2);stroke-width:.02" transform="matrix(30 0 0 30 136.835 197.89)"/><path d="M.309.951 0 0h1zM-.809.588 0 0l.309.951zm0-1.176L0 0l-.809.588zM.309-.95 0 0l-.809-.588zM1 0H0l.309-.951z" style="fill:#000" transform="matrix(30 0 0 30 40.859 275.046)"/><path d="M.068.21A.22.22 0 0 0 .22 0M.087.266A.28.28 0 0 0 .28 0" style="fill:none;stroke:#08a4d9;stroke-width:.02" transform="matrix(30 0 0 30 40.859 275.046)"/><path d="M0 0h1M0 0l.309.951M0 0l-.809.588M0 0l-.809-.588M0 0l.309-.951" style="fill:none;stroke:rgba(255,255,255,.2);stroke-width:.01" transform="matrix(30 0 0 30 40.859 275.046)"/><circle r=".04" style="fill:rgba(255,255,255,.2);stroke:rgba(255,255,255,.2);stroke-width:.02" transform="matrix(30 0 0 30 40.859 275.046)"/><path d="M0 .5h13v3L20 0l-7-3.5v3H0z" style="fill:#ccc;stroke:#ccc" transform="translate(81.359 275.046)"/><path d="M.309.951 0 0h1zM-.809.588 0 0l.309.951zm0-1.176L0 0l-.809.588zM.309-.95 0 0l-.809-.588zM1 0H0l.309-.951z" style="fill:#000" transform="matrix(30 0 0 30 136.835 275.046)"/><path d="M-.809.588 0 0l.309.951zM1 0H0l.309-.951z" style="fill:#214068" transform="matrix(30 0 0 30 136.835 275.046)"/><path d="M.068.21A.22.22 0 0 0 .22 0M.087.266A.28.28 0 0 0 .28 0" style="fill:none;stroke:#08a4d9;stroke-width:.02" transform="matrix(30 0 0 30 136.835 275.046)"/><path d="M-.202.147a.25.25 0 0 0 .28.09M.25 0a.25.25 0 0 0-.173-.238" style="fill:none;stroke:#e07c1f;stroke-width:.02;stroke-dasharray:.03,.03;stroke-dashoffset:0" transform="matrix(30 0 0 30 136.835 275.046)"/><path d="M0 0h1M0 0l.309.951M0 0l-.809.588M0 0l-.809-.588M0 0l.309-.951" style="fill:none;stroke:rgba(255,255,255,.2);stroke-width:.01" transform="matrix(30 0 0 30 136.835 275.046)"/><circle r=".04" style="fill:rgba(255,255,255,.2);stroke:rgba(255,255,255,.2);stroke-width:.02" transform="matrix(30 0 0 30 136.835 275.046)"/><path d="M.309.951 0 0h1zM-.809.588 0 0l.309.951zm0-1.176L0 0l-.809.588zM.309-.95 0 0l-.809-.588zM1 0H0l.309-.951z" style="fill:#000" transform="matrix(30 0 0 30 40.859 352.202)"/><path d="M.068.21A.22.22 0 0 0 .22 0M.087.266A.28.28 0 0 0 .28 0" style="fill:none;stroke:#2a892a;stroke-width:.02;stroke-dasharray:.03,.03;stroke-dashoffset:0" transform="matrix(30 0 0 30 40.859 352.202)"/><path d="M0 0h1M0 0l.309.951M0 0l-.809.588M0 0l-.809-.588M0 0l.309-.951" style="fill:none;stroke:rgba(255,255,255,.2);stroke-width:.01" transform="matrix(30 0 0 30 40.859 352.202)"/><circle r=".04" style="fill:rgba(255,255,255,.2);stroke:rgba(255,255,255,.2);stroke-width:.02" transform="matrix(30 0 0 30 40.859 352.202)"/><path d="M0 .5h13v3L20 0l-7-3.5v3H0z" style="fill:#ccc;stroke:#ccc" transform="translate(81.359 352.202)"/><path d="M.309.951 0 0h1zM-.809.588 0 0l.309.951zm0-1.176L0 0l-.809.588zM.309-.95 0 0l-.809-.588zM1 0H0l.309-.951z" style="fill:#000" transform="matrix(30 0 0 30 136.835 352.202)"/><path d="M.068.21A.22.22 0 0 0 .22 0M.087.266A.28.28 0 0 0 .28 0" style="fill:none;stroke:#2a892a;stroke-width:.02;stroke-dasharray:.03,.03;stroke-dashoffset:0" transform="matrix(30 0 0 30 136.835 352.202)"/><path d="M-.202-.147a.25.25 0 0 0 0 .294m.279-.385a.25.25 0 0 0-.28.091" style="fill:none;stroke:#e07c1f;stroke-width:.02;stroke-dasharray:.03,.03;stroke-dashoffset:0" transform="matrix(30 0 0 30 136.835 352.202)"/><path d="M0 0h1M0 0l.309.951M0 0l-.809.588M0 0l-.809-.588M0 0l.309-.951" style="fill:none;stroke:rgba(255,255,255,.2);stroke-width:.01" transform="matrix(30 0 0 30 136.835 352.202)"/><circle r=".04" style="fill:rgba(255,255,255,.2);stroke:rgba(255,255,255,.2);stroke-width:.02" transform="matrix(30 0 0 30 136.835 352.202)"/><path d="M.309.951 0 0h1zM-.809.588 0 0l.309.951zm0-1.176L0 0l-.809.588zM.309-.95 0 0l-.809-.588zM1 0H0l.309-.951z" style="fill:#000" transform="matrix(30 0 0 30 40.859 429.359)"/><path d="M.309.951 0 0h1z" style="fill:#214068" transform="matrix(30 0 0 30 40.859 429.359)"/><path d="M.309-.951 0 0l-.809-.588z" style="fill:#09294c" transform="matrix(30 0 0 30 40.859 429.359)"/><path d="M-.202-.147a.25.25 0 0 0 0 .294" style="fill:none;stroke:#e07c1f;stroke-width:.02;stroke-dasharray:.03,.03;stroke-dashoffset:0" transform="matrix(30 0 0 30 40.859 429.359)"/><path d="M.25 0a.25.25 0 0 0-.173-.238" style="fill:none;stroke:red;stroke-width:.02" transform="matrix(30 0 0 30 40.859 429.359)"/><path d="M0 0h1M0 0l.309.951M0 0l-.809.588M0 0l-.809-.588M0 0l.309-.951" style="fill:none;stroke:rgba(255,255,255,.2);stroke-width:.01" transform="matrix(30 0 0 30 40.859 429.359)"/><circle r=".04" style="fill:rgba(255,255,255,.2);stroke:rgba(255,255,255,.2);stroke-width:.02" transform="matrix(30 0 0 30 40.859 429.359)"/><path d="m0 0 .309.951" style="fill:none;stroke:red;stroke-width:.05;stroke-linecap:round" transform="matrix(30 0 0 30 40.859 429.359)"/><path d="M0 .5h13v3L20 0l-7-3.5v3H0z" style="fill:#ccc;stroke:#ccc" transform="translate(81.359 429.71)"/><path d="M.309.951 0 0h1zM-.809.588 0 0l.309.951zm0-1.176L0 0l-.809.588zM.309-.95 0 0l-.809-.588zM1 0H0l.309-.951z" style="fill:#000" transform="matrix(30 0 0 30 136.835 429.359)"/><path d="M-.809.588 0 0l.309.951zM.309.95 0 0h1z" style="fill:#214068" transform="matrix(30 0 0 30 136.835 429.359)"/><path d="M.309-.951 0 0l-.809-.588z" style="fill:#09294c" transform="matrix(30 0 0 30 136.835 429.359)"/><path d="M-.202-.147a.25.25 0 0 0 0 .294M.25 0a.25.25 0 0 0-.173-.238" style="fill:none;stroke:red;stroke-width:.02" transform="matrix(30 0 0 30 136.835 429.359)"/><path d="M0 0h1M0 0l.309.951M0 0l-.809.588M0 0l-.809-.588M0 0l.309-.951" style="fill:none;stroke:rgba(255,255,255,.2);stroke-width:.01" transform="matrix(30 0 0 30 136.835 429.359)"/><circle r=".04" style="fill:rgba(255,255,255,.2);stroke:rgba(255,255,255,.2);stroke-width:.02" transform="matrix(30 0 0 30 136.835 429.359)"/><path d="m0 0 .309.951" style="fill:none;stroke:red;stroke-width:.05;stroke-linecap:round" transform="matrix(30 0 0 30 136.835 429.359)"/><path d="M.309.951 0 0h1zM-.809.588 0 0l.309.951zm0-1.176L0 0l-.809.588zM.309-.95 0 0l-.809-.588zM1 0H0l.309-.951z" style="fill:#000" transform="matrix(30 0 0 30 40.859 507.218)"/><path d="M-.202-.147a.25.25 0 0 0 0 .294" style="fill:none;stroke:#e07c1f;stroke-width:.02;stroke-dasharray:.03,.03;stroke-dashoffset:0" transform="matrix(30 0 0 30 40.859 507.218)"/><path d="M.068-.21a.22.22 0 0 0-.246.08m.265-.136a.28.28 0 0 0-.314.101" style="fill:none;stroke:#2a892a;stroke-width:.02;stroke-dasharray:.03,.03;stroke-dashoffset:0" transform="matrix(30 0 0 30 40.859 507.218)"/><path d="M0 0h1M0 0l.309.951M0 0l-.809.588M0 0l-.809-.588M0 0l.309-.951" style="fill:none;stroke:rgba(255,255,255,.2);stroke-width:.01" transform="matrix(30 0 0 30 40.859 507.218)"/><circle r=".04" style="fill:rgba(255,255,255,.2);stroke:rgba(255,255,255,.2);stroke-width:.02" transform="matrix(30 0 0 30 40.859 507.218)"/><path d="m0 0 .309.951" style="fill:none;stroke:red;stroke-width:.05;stroke-linecap:round" transform="matrix(30 0 0 30 40.859 507.218)"/><path d="M0 .5h13v3L20 0l-7-3.5v3H0z" style="fill:#ccc;stroke:#ccc" transform="translate(81.359 507.57)"/><path d="M.309.951 0 0h1zM-.809.588 0 0l.309.951zm0-1.176L0 0l-.809.588zM.309-.95 0 0l-.809-.588zM1 0H0l.309-.951z" style="fill:#000" transform="matrix(30 0 0 30 136.835 507.218)"/><path d="M-.202-.147a.25.25 0 0 0 0 .294" style="fill:none;stroke:#e07c1f;stroke-width:.02;stroke-dasharray:.03,.03;stroke-dashoffset:0" transform="matrix(30 0 0 30 136.835 507.218)"/><path d="M.068-.21a.22.22 0 0 0-.246.08m.265-.136a.28.28 0 0 0-.314.101M.22 0a.22.22 0 0 0-.152-.21M.28 0a.28.28 0 0 0-.193-.266" style="fill:none;stroke:#2a892a;stroke-width:.02;stroke-dasharray:.03,.03;stroke-dashoffset:0" transform="matrix(30 0 0 30 136.835 507.218)"/><path d="M0 0h1M0 0l.309.951M0 0l-.809.588M0 0l-.809-.588M0 0l.309-.951" style="fill:none;stroke:rgba(255,255,255,.2);stroke-width:.01" transform="matrix(30 0 0 30 136.835 507.218)"/><circle r=".04" style="fill:rgba(255,255,255,.2);stroke:rgba(255,255,255,.2);stroke-width:.02" transform="matrix(30 0 0 30 136.835 507.218)"/><path d="m0 0 .309.951" style="fill:none;stroke:red;stroke-width:.05;stroke-linecap:round" transform="matrix(30 0 0 30 136.835 507.218)"/><path d="M.309.951 0 0h1zM-.809.588 0 0l.309.951zm0-1.176L0 0l-.809.588zM.309-.95 0 0l-.809-.588zM1 0H0l.309-.951z" style="fill:#000" transform="matrix(30 0 0 30 40.859 585.078)"/><path d="M.309.951 0 0h1zm0-1.902L0 0l-.809-.588z" style="fill:#214068" transform="matrix(30 0 0 30 40.859 585.078)"/><path d="M.077-.238a.25.25 0 0 0-.28.091" style="fill:none;stroke:#e07c1f;stroke-width:.02;stroke-dasharray:.03,.03;stroke-dashoffset:0" transform="matrix(30 0 0 30 40.859 585.078)"/><path d="M.22 0a.22.22 0 0 0-.152-.21M.28 0a.28.28 0 0 0-.193-.266" style="fill:none;stroke:#08a4d9;stroke-width:.02" transform="matrix(30 0 0 30 40.859 585.078)"/><path d="M0 0h1M0 0l.309.951M0 0l-.809.588M0 0l-.809-.588M0 0l.309-.951" style="fill:none;stroke:rgba(255,255,255,.2);stroke-width:.01" transform="matrix(30 0 0 30 40.859 585.078)"/><circle r=".04" style="fill:rgba(255,255,255,.2);stroke:rgba(255,255,255,.2);stroke-width:.02" transform="matrix(30 0 0 30 40.859 585.078)"/><path d="m0 0 .309.951" style="fill:none;stroke:red;stroke-width:.05;stroke-linecap:round" transform="matrix(30 0 0 30 40.859 585.078)"/><path d="M0 .5h13v3L20 0l-7-3.5v3H0z" style="fill:#ccc;stroke:#ccc" transform="translate(81.359 585.43)"/><path d="M.309.951 0 0h1zM-.809.588 0 0l.309.951zm0-1.176L0 0l-.809.588zM.309-.95 0 0l-.809-.588zM1 0H0l.309-.951z" style="fill:#000" transform="matrix(30 0 0 30 136.835 585.078)"/><path d="M-.809.588 0 0l.309.951zM.309-.952 0 0l-.809-.588zm0 1.903L0 0h1z" style="fill:#214068" transform="matrix(30 0 0 30 136.835 585.078)"/><path d="M-.178-.13a.22.22 0 0 0 0 .26m-.049-.295a.28.28 0 0 0 0 .33" style="fill:none;stroke:#08a4d9;stroke-width:.02" transform="matrix(30 0 0 30 136.835 585.078)"/><path d="M.077-.238a.25.25 0 0 0-.28.091" style="fill:none;stroke:#e07c1f;stroke-width:.02;stroke-dasharray:.03,.03;stroke-dashoffset:0" transform="matrix(30 0 0 30 136.835 585.078)"/><path d="M.22 0a.22.22 0 0 0-.152-.21M.28 0a.28.28 0 0 0-.193-.266" style="fill:none;stroke:#08a4d9;stroke-width:.02" transform="matrix(30 0 0 30 136.835 585.078)"/><path d="M0 0h1M0 0l.309.951M0 0l-.809.588M0 0l-.809-.588M0 0l.309-.951" style="fill:none;stroke:rgba(255,255,255,.2);stroke-width:.01" transform="matrix(30 0 0 30 136.835 585.078)"/><circle r=".04" style="fill:rgba(255,255,255,.2);stroke:rgba(255,255,255,.2);stroke-width:.02" transform="matrix(30 0 0 30 136.835 585.078)"/><path d="m0 0 .309.951" style="fill:none;stroke:red;stroke-width:.05;stroke-linecap:round" transform="matrix(30 0 0 30 136.835 585.078)"/><path d="M.309.951 0 0h1zM-.809.588 0 0l.309.951zm0-1.176L0 0l-.809.588zM.309-.95 0 0l-.809-.588zM1 0H0l.309-.951z" style="fill:#000" transform="matrix(30 0 0 30 40.859 662.938)"/><path d="M.077.238A.25.25 0 0 0 .25 0" style="fill:none;stroke:red;stroke-width:.02" transform="matrix(30 0 0 30 40.859 662.938)"/><path d="M-.202-.147a.25.25 0 0 0 0 .294m.279-.385a.25.25 0 0 0-.28.091" style="fill:none;stroke:#e07c1f;stroke-width:.02;stroke-dasharray:.03,.03;stroke-dashoffset:0" transform="matrix(30 0 0 30 40.859 662.938)"/><path d="M0 0h1M0 0l.309.951M0 0l-.809.588M0 0l-.809-.588M0 0l.309-.951" style="fill:none;stroke:rgba(255,255,255,.2);stroke-width:.01" transform="matrix(30 0 0 30 40.859 662.938)"/><circle r=".04" style="fill:rgba(255,255,255,.2);stroke:rgba(255,255,255,.2);stroke-width:.02" transform="matrix(30 0 0 30 40.859 662.938)"/><path d="M0 .5h13v3L20 0l-7-3.5v3H0z" style="fill:#ccc;stroke:#ccc" transform="translate(81.359 662.938)"/><path d="M.309.951 0 0h1zM-.809.588 0 0l.309.951zm0-1.176L0 0l-.809.588zM.309-.95 0 0l-.809-.588zM1 0H0l.309-.951z" style="fill:#000" transform="matrix(30 0 0 30 136.835 662.938)"/><path d="M-.809.588 0 0l.309.951z" style="fill:#214068" transform="matrix(30 0 0 30 136.835 662.938)"/><path d="M1 0H0l.309-.951z" style="fill:#09294c" transform="matrix(30 0 0 30 136.835 662.938)"/><path d="M.077.238A.25.25 0 0 0 .25 0" style="fill:none;stroke:red;stroke-width:.02" transform="matrix(30 0 0 30 136.835 662.938)"/><path d="M-.202-.147a.25.25 0 0 0 0 .294m.279-.385a.25.25 0 0 0-.28.091" style="fill:none;stroke:#e07c1f;stroke-width:.02;stroke-dasharray:.03,.03;stroke-dashoffset:0" transform="matrix(30 0 0 30 136.835 662.938)"/><path d="M0 0h1M0 0l.309.951M0 0l-.809.588M0 0l-.809-.588M0 0l.309-.951" style="fill:none;stroke:rgba(255,255,255,.2);stroke-width:.01" transform="matrix(30 0 0 30 136.835 662.938)"/><circle r=".04" style="fill:rgba(255,255,255,.2);stroke:rgba(255,255,255,.2);stroke-width:.02" transform="matrix(30 0 0 30 136.835 662.938)"/><path d="M.309.951 0 0h1zM-.809.588 0 0l.309.951zm0-1.176L0 0l-.809.588zM.309-.95 0 0l-.809-.588zM1 0H0l.309-.951z" style="fill:#000" transform="matrix(30 0 0 30 40.528 740.094)"/><path d="M.309.951 0 0h1z" style="fill:#214068" transform="matrix(30 0 0 30 40.528 740.094)"/><path d="M-.809-.588 0 0l-.809.588zM.309-.95 0 0l-.809-.588z" style="fill:#09294c" transform="matrix(30 0 0 30 40.528 740.094)"/><path d="M-.202.147a.25.25 0 0 0 .28.09" style="fill:none;stroke:red;stroke-width:.02" transform="matrix(30 0 0 30 40.528 740.094)"/><path d="M-.202-.147a.25.25 0 0 0 0 .294m.279-.385a.25.25 0 0 0-.28.091" style="fill:none;stroke:#e07c1f;stroke-width:.02;stroke-dasharray:.03,.03;stroke-dashoffset:0" transform="matrix(30 0 0 30 40.528 740.094)"/><path d="M.25 0a.25.25 0 0 0-.173-.238" style="fill:none;stroke:red;stroke-width:.02" transform="matrix(30 0 0 30 40.528 740.094)"/><path d="M0 0h1M0 0l.309.951M0 0l-.809.588M0 0l-.809-.588M0 0l.309-.951" style="fill:none;stroke:rgba(255,255,255,.2);stroke-width:.01" transform="matrix(30 0 0 30 40.528 740.094)"/><circle r=".04" style="fill:rgba(255,255,255,.2);stroke:rgba(255,255,255,.2);stroke-width:.02" transform="matrix(30 0 0 30 40.528 740.094)"/><path d="M0 .5h13v3L20 0l-7-3.5v3H0z" style="fill:#ccc;stroke:#ccc" transform="translate(81.028 740.094)"/><path d="M.309.951 0 0h1zM-.809.588 0 0l.309.951zm0-1.176L0 0l-.809.588zM.309-.95 0 0l-.809-.588zM1 0H0l.309-.951z" style="fill:#000" transform="matrix(30 0 0 30 137.166 740.094)"/><path d="M.309.951 0 0h1z" style="fill:#214068" transform="matrix(30 0 0 30 137.166 740.094)"/><path d="M-.809-.588 0 0l-.809.588zM.309-.95 0 0l-.809-.588z" style="fill:#09294c" transform="matrix(30 0 0 30 137.166 740.094)"/><path d="M-.202.147a.25.25 0 0 0 .28.09M.25 0a.25.25 0 0 0-.173-.238" style="fill:none;stroke:red;stroke-width:.02" transform="matrix(30 0 0 30 137.166 740.094)"/><path d="M0 0h1M0 0l.309.951M0 0l-.809.588M0 0l-.809-.588M0 0l.309-.951" style="fill:none;stroke:rgba(255,255,255,.2);stroke-width:.01" transform="matrix(30 0 0 30 137.166 740.094)"/><circle r=".04" style="fill:rgba(255,255,255,.2);stroke:rgba(255,255,255,.2);stroke-width:.02" transform="matrix(30 0 0 30 137.166 740.094)"/><path d="m0 0-.809-.588" style="fill:none;stroke:red;stroke-width:.05;stroke-linecap:round" transform="matrix(30 0 0 30 137.166 740.094)"/><path d="M.309.951 0 0h1zM-.809.588 0 0l.309.951zm0-1.176L0 0l-.809.588zM.309-.95 0 0l-.809-.588zM1 0H0l.309-.951z" style="fill:#000" transform="matrix(30 0 0 30 40.528 817.25)"/><path d="M.309.951 0 0h1zm0-1.902L0 0l-.809-.588z" style="fill:#214068" transform="matrix(30 0 0 30 40.528 817.25)"/><path d="M.077.238A.25.25 0 0 0 .25 0" style="fill:none;stroke:#e07c1f;stroke-width:.02;stroke-dasharray:.03,.03;stroke-dashoffset:0" transform="matrix(30 0 0 30 40.528 817.25)"/><path d="M-.202.147a.25.25 0 0 0 .28.09m-.28-.384a.25.25 0 0 0 0 .294m.279-.385a.25.25 0 0 0-.28.091" style="fill:none;stroke:#e07c1f;stroke-width:.02;stroke-dasharray:.03,.03;stroke-dashoffset:0" transform="matrix(30 0 0 30 40.528 817.25)"/><path d="M.22 0a.22.22 0 0 0-.152-.21M.28 0a.28.28 0 0 0-.193-.266" style="fill:none;stroke:#08a4d9;stroke-width:.02" transform="matrix(30 0 0 30 40.528 817.25)"/><path d="M0 0h1M0 0l.309.951M0 0l-.809.588M0 0l-.809-.588M0 0l.309-.951" style="fill:none;stroke:rgba(255,255,255,.2);stroke-width:.01" transform="matrix(30 0 0 30 40.528 817.25)"/><circle r=".04" style="fill:rgba(255,255,255,.2);stroke:rgba(255,255,255,.2);stroke-width:.02" transform="matrix(30 0 0 30 40.528 817.25)"/><path d="M0 .5h13v3L20 0l-7-3.5v3H0z" style="fill:#ccc;stroke:#ccc" transform="translate(81.028 817.25)"/><path d="M.309.951 0 0h1zM-.809.588 0 0l.309.951zm0-1.176L0 0l-.809.588zM.309-.95 0 0l-.809-.588zM1 0H0l.309-.951z" style="fill:#000" transform="matrix(30 0 0 30 137.166 817.25)"/><path d="M.309.951 0 0h1zm0-1.902L0 0l-.809-.588z" style="fill:#214068" transform="matrix(30 0 0 30 137.166 817.25)"/><path d="M.077.238A.25.25 0 0 0 .25 0M.077-.238a.25.25 0 0 0-.28.091" style="fill:none;stroke:#e07c1f;stroke-width:.02;stroke-dasharray:.03,.03;stroke-dashoffset:0" transform="matrix(30 0 0 30 137.166 817.25)"/><path d="M.22 0a.22.22 0 0 0-.152-.21M.28 0a.28.28 0 0 0-.193-.266" style="fill:none;stroke:#08a4d9;stroke-width:.02" transform="matrix(30 0 0 30 137.166 817.25)"/><path d="M0 0h1M0 0l.309.951M0 0l-.809.588M0 0l-.809-.588M0 0l.309-.951" style="fill:none;stroke:rgba(255,255,255,.2);stroke-width:.01" transform="matrix(30 0 0 30 137.166 817.25)"/><circle r=".04" style="fill:rgba(255,255,255,.2);stroke:rgba(255,255,255,.2);stroke-width:.02" transform="matrix(30 0 0 30 137.166 817.25)"/><path d="m0 0-.809.588" style="fill:none;stroke:red;stroke-width:.05;stroke-linecap:round" transform="matrix(30 0 0 30 137.166 817.25)"/><path d="M.309.951 0 0h1zM-.809.588 0 0l.309.951zm0-1.176L0 0l-.809.588zM.309-.95 0 0l-.809-.588zM1 0H0l.309-.951z" style="fill:#000" transform="matrix(30 0 0 30 40.528 894.406)"/><path d="M.309.951 0 0h1zM-.809-.588 0 0l-.809.588zM.309-.95 0 0l-.809-.588z" style="fill:#214068" transform="matrix(30 0 0 30 40.528 894.406)"/><path d="M.077.238A.25.25 0 0 0 .25 0" style="fill:none;stroke:#e07c1f;stroke-width:.02;stroke-dasharray:.03,.03;stroke-dashoffset:0" transform="matrix(30 0 0 30 40.528 894.406)"/><path d="M-.178.13a.22.22 0 0 0 .246.08M-.227.164a.28.28 0 0 0 .314.101" style="fill:none;stroke:#08a4d9;stroke-width:.02" transform="matrix(30 0 0 30 40.528 894.406)"/><path d="M-.202-.147a.25.25 0 0 0 0 .294m.279-.385a.25.25 0 0 0-.28.091" style="fill:none;stroke:#e07c1f;stroke-width:.02;stroke-dasharray:.03,.03;stroke-dashoffset:0" transform="matrix(30 0 0 30 40.528 894.406)"/><path d="M.22 0a.22.22 0 0 0-.152-.21M.28 0a.28.28 0 0 0-.193-.266" style="fill:none;stroke:#08a4d9;stroke-width:.02" transform="matrix(30 0 0 30 40.528 894.406)"/><path d="M0 0h1M0 0l.309.951M0 0l-.809.588M0 0l-.809-.588M0 0l.309-.951" style="fill:none;stroke:rgba(255,255,255,.2);stroke-width:.01" transform="matrix(30 0 0 30 40.528 894.406)"/><circle r=".04" style="fill:rgba(255,255,255,.2);stroke:rgba(255,255,255,.2);stroke-width:.02" transform="matrix(30 0 0 30 40.528 894.406)"/><path d="M0 .5h13v3L20 0l-7-3.5v3H0z" style="fill:#ccc;stroke:#ccc" transform="translate(81.028 894.406)"/><path d="M.309.951 0 0h1zM-.809.588 0 0l.309.951zm0-1.176L0 0l-.809.588zM.309-.95 0 0l-.809-.588zM1 0H0l.309-.951z" style="fill:#000" transform="matrix(30 0 0 30 137.166 894.406)"/><path d="M.309.951 0 0h1zM-.809-.588 0 0l-.809.588zM.309-.95 0 0l-.809-.588z" style="fill:#214068" transform="matrix(30 0 0 30 137.166 894.406)"/><path d="M.077.238A.25.25 0 0 0 .25 0" style="fill:none;stroke:#e07c1f;stroke-width:.02;stroke-dasharray:.03,.03;stroke-dashoffset:0" transform="matrix(30 0 0 30 137.166 894.406)"/><path d="M-.178.13a.22.22 0 0 0 .246.08M-.227.164a.28.28 0 0 0 .314.101M.22 0a.22.22 0 0 0-.152-.21M.28 0a.28.28 0 0 0-.193-.266" style="fill:none;stroke:#08a4d9;stroke-width:.02" transform="matrix(30 0 0 30 137.166 894.406)"/><path d="M0 0h1M0 0l.309.951M0 0l-.809.588M0 0l-.809-.588M0 0l.309-.951" style="fill:none;stroke:rgba(255,255,255,.2);stroke-width:.01" transform="matrix(30 0 0 30 137.166 894.406)"/><circle r=".04" style="fill:rgba(255,255,255,.2);stroke:rgba(255,255,255,.2);stroke-width:.02" transform="matrix(30 0 0 30 137.166 894.406)"/><path d="m0 0-.809-.588" style="fill:none;stroke:red;stroke-width:.05;stroke-linecap:round" transform="matrix(30 0 0 30 137.166 894.406)"/></svg>