<svg xmlns="http://www.w3.org/2000/svg" width="175" height="1031" aria-hidden="true" style="pointer-events:none;position:absolute;left:0;top:0;transform-origin:left top;z-index:20"><rect width="165" height="1021" rx="0" ry="0" style="fill:#333"/><path d="M-.5.866 0 0h1zm0-1.732L0 0l-.5.866z" style="fill:#000" transform="matrix(30 0 0 30 30.13 41.056)"/><path d="M0 0h1M0 0l-.5.866M0 0l-.5-.866" style="fill:none;stroke:rgba(255,255,255,.2);stroke-width:.01" transform="matrix(30 0 0 30 30.13 41.056)"/><circle r=".06" style="fill:#222;stroke:rgba(255,255,255,.2);stroke-width:.02" transform="matrix(30 0 0 30 30.13 41.056)"/><path d="M0 0h1" style="fill:none;stroke:#fff;stroke-width:.1;stroke-linecap:round" transform="matrix(30 0 0 30 30.13 41.056)"/><path d="M0 .5h13v3L20 0l-7-3.5v3H0z" style="fill:#ccc;stroke:#ccc" transform="translate(72.13 41.056)"/><path d="M-.5.866 0 0h1zm0-1.732L0 0l-.5.866z" style="fill:#000" transform="matrix(30 0 0 30 118.378 41.056)"/><path d="M-.125-.217a.25.25 0 0 0 0 .434" style="fill:none;stroke:#e07c1f;stroke-width:.02;stroke-dasharray:.03,.03;stroke-dashoffset:0" transform="matrix(30 0 0 30 118.378 41.056)"/><path d="M0 0h1M0 0l-.5.866M0 0l-.5-.866" style="fill:none;stroke:rgba(255,255,255,.2);stroke-width:.01" transform="matrix(30 0 0 30 118.378 41.056)"/><circle r=".06" style="fill:#222;stroke:rgba(255,255,255,.2);stroke-width:.02" transform="matrix(30 0 0 30 118.378 41.056)"/><path d="M0 0h1" style="fill:none;stroke:#fff;stroke-width:.1;stroke-linecap:round" transform="matrix(30 0 0 30 118.378 41.056)"/><path d="M-.5.866 0 0h1zm0-1.732L0 0l-.5.866z" style="fill:#000" transform="matrix(30 0 0 30 31.63 113.167)"/><path d="M1 0H0l.5-.321z" style="fill:#214068" transform="matrix(30 0 0 30 31.63 113.167)"/><path d="M-.5-.866 0 0l.028-.594z" style="fill:#09294c" transform="matrix(30 0 0 30 31.63 113.167)"/><path d="M0 0h1M0 0l-.5.866M0 0l-.5-.866" style="fill:none;stroke:rgba(255,255,255,.2);stroke-width:.01" transform="matrix(30 0 0 30 31.63 113.167)"/><circle r=".06" style="fill:#222;stroke:rgba(255,255,255,.2);stroke-width:.02" transform="matrix(30 0 0 30 31.63 113.167)"/><path d="M0 .5h13v3L20 0l-7-3.5v3H0z" style="fill:#ccc;stroke:#ccc" transform="translate(72.13 113.167)"/><path d="M-.5.866 0 0h1zm0-1.732L0 0l-.5.866z" style="fill:#000" transform="matrix(30 0 0 30 118.378 113.167)"/><path d="M1 0H0l.5-.321z" style="fill:#214068" transform="matrix(30 0 0 30 118.378 113.167)"/><path d="M-.5-.866 0 0l.028-.594z" style="fill:#09294c" transform="matrix(30 0 0 30 118.378 113.167)"/><path d="M-.125.217A.25.25 0 0 0 .25 0m-.375-.217a.25.25 0 0 0 0 .434" style="fill:none;stroke:#e07c1f;stroke-width:.02;stroke-dasharray:.03,.03;stroke-dashoffset:0" transform="matrix(30 0 0 30 118.378 113.167)"/><path d="M0 0h1M0 0l-.5.866M0 0l-.5-.866" style="fill:none;stroke:rgba(255,255,255,.2);stroke-width:.01" transform="matrix(30 0 0 30 118.378 113.167)"/><circle r=".06" style="fill:#222;stroke:rgba(255,255,255,.2);stroke-width:.02" transform="matrix(30 0 0 30 118.378 113.167)"/><path d="M-.5.866 0 0h1zm0-1.732L0 0l-.5.866z" style="fill:#000" transform="matrix(30 0 0 30 30.88 185.279)"/><path d="M1 0H0l.5-.321zM-.5-.866 0 0l.028-.594z" style="fill:#214068" transform="matrix(30 0 0 30 30.88 185.279)"/><path d="M0 0h1M0 0l-.5.866M0 0l-.5-.866" style="fill:none;stroke:rgba(255,255,255,.2);stroke-width:.01" transform="matrix(30 0 0 30 30.88 185.279)"/><circle r=".06" style="fill:#222;stroke:rgba(255,255,255,.2);stroke-width:.02" transform="matrix(30 0 0 30 30.88 185.279)"/><path d="M0 0h1" style="fill:none;stroke:red;stroke-width:.05;stroke-linecap:round" transform="matrix(30 0 0 30 30.88 185.279)"/><path d="M0 .5h13v3L20 0l-7-3.5v3H0z" style="fill:#ccc;stroke:#ccc" transform="translate(72.13 185.279)"/><path d="M-.5.866 0 0h1zm0-1.732L0 0l-.5.866z" style="fill:#000" transform="matrix(30 0 0 30 118.378 185.279)"/><path d="M1 0H0l.5-.321zM-.5-.866 0 0l.028-.594zm0 1.732L0 0h1z" style="fill:#214068" transform="matrix(30 0 0 30 118.378 185.279)"/><path d="M-.11-.19a.22.22 0 0 0 0 .38m-.03-.432a.28.28 0 0 0 0 .484" style="fill:none;stroke:#08a4d9;stroke-width:.02" transform="matrix(30 0 0 30 118.378 185.279)"/><path d="M0 0h1M0 0l-.5.866M0 0l-.5-.866" style="fill:none;stroke:rgba(255,255,255,.2);stroke-width:.01" transform="matrix(30 0 0 30 118.378 185.279)"/><circle r=".06" style="fill:#222;stroke:rgba(255,255,255,.2);stroke-width:.02" transform="matrix(30 0 0 30 118.378 185.279)"/><path d="M0 0h1" style="fill:none;stroke:red;stroke-width:.05;stroke-linecap:round" transform="matrix(30 0 0 30 118.378 185.279)"/><path d="M-.5.866 0 0h1zm0-1.732L0 0l-.5.866z" style="fill:#000" transform="matrix(30 0 0 30 31.63 257.39)"/><path d="M0 0h1M0 0l-.5.866M0 0l-.5-.866" style="fill:none;stroke:rgba(255,255,255,.2);stroke-width:.01" transform="matrix(30 0 0 30 31.63 257.39)"/><circle r=".06" style="fill:#222;stroke:rgba(255,255,255,.2);stroke-width:.02" transform="matrix(30 0 0 30 31.63 257.39)"/><circle r=".12" style="fill:none;stroke:red;stroke-width:.03" transform="matrix(30 0 0 30 31.63 257.39)"/><path d="M0 .5h13v3L20 0l-7-3.5v3H0z" style="fill:#ccc;stroke:#ccc" transform="translate(72.13 257.39)"/><path d="M-.5.866 0 0h1zm0-1.732L0 0l-.5.866z" style="fill:#000" transform="matrix(30 0 0 30 118.378 257.39)"/><path d="M1 0H0l.5-.321zM-.5-.866 0 0l.028-.594z" style="fill:#214068" transform="matrix(30 0 0 30 118.378 257.39)"/><path d="M0 0h1M0 0l-.5.866M0 0l-.5-.866" style="fill:none;stroke:rgba(255,255,255,.2);stroke-width:.01" transform="matrix(30 0 0 30 118.378 257.39)"/><circle r=".06" style="fill:#222;stroke:rgba(255,255,255,.2);stroke-width:.02" transform="matrix(30 0 0 30 118.378 257.39)"/><circle r=".12" style="fill:none;stroke:red;stroke-width:.03" transform="matrix(30 0 0 30 118.378 257.39)"/><path d="M-.5.866 0 0h1zm0-1.732L0 0l-.5.866z" style="fill:#000" transform="matrix(30 0 0 30 31.63 329.502)"/><path d="M-.11.19A.22.22 0 0 0 .22 0m-.36.242A.28.28 0 0 0 .28 0" style="fill:none;stroke:#08a4d9;stroke-width:.02" transform="matrix(30 0 0 30 31.63 329.502)"/><path d="M0 0h1M0 0l-.5.866M0 0l-.5-.866" style="fill:none;stroke:rgba(255,255,255,.2);stroke-width:.01" transform="matrix(30 0 0 30 31.63 329.502)"/><circle r=".06" style="fill:#222;stroke:rgba(255,255,255,.2);stroke-width:.02" transform="matrix(30 0 0 30 31.63 329.502)"/><path d="M0 .5h13v3L20 0l-7-3.5v3H0z" style="fill:#ccc;stroke:#ccc" transform="translate(72.13 329.502)"/><path d="M-.5.866 0 0h1zm0-1.732L0 0l-.5.866z" style="fill:#000" transform="matrix(30 0 0 30 118.378 329.502)"/><path d="M-.5-.866 0 0l-.5.866zM1 0H0l.5-.321z" style="fill:#214068" transform="matrix(30 0 0 30 118.378 329.502)"/><path d="M-.11.19A.22.22 0 0 0 .22 0m-.36.242A.28.28 0 0 0 .28 0" style="fill:none;stroke:#08a4d9;stroke-width:.02" transform="matrix(30 0 0 30 118.378 329.502)"/><path d="M-.125-.217a.25.25 0 0 0 0 .434" style="fill:none;stroke:#e07c1f;stroke-width:.02;stroke-dasharray:.03,.03;stroke-dashoffset:0" transform="matrix(30 0 0 30 118.378 329.502)"/><path d="M0 0h1M0 0l-.5.866M0 0l-.5-.866" style="fill:none;stroke:rgba(255,255,255,.2);stroke-width:.01" transform="matrix(30 0 0 30 118.378 329.502)"/><circle r=".06" style="fill:#222;stroke:rgba(255,255,255,.2);stroke-width:.02" transform="matrix(30 0 0 30 118.378 329.502)"/><path d="M-.5.866 0 0h1zm0-1.732L0 0l-.5.866z" style="fill:#000" transform="matrix(30 0 0 30 30.13 401.613)"/><path d="M-.5.866 0 0h1z" style="fill:#214068" transform="matrix(30 0 0 30 30.13 401.613)"/><path d="M-.5-.866 0 0l.028-.594z" style="fill:#09294c" transform="matrix(30 0 0 30 30.13 401.613)"/><path d="M-.125-.217a.25.25 0 0 0 0 .434" style="fill:none;stroke:red;stroke-width:.02" transform="matrix(30 0 0 30 30.13 401.613)"/><path d="M0 0h1M0 0l-.5.866M0 0l-.5-.866" style="fill:none;stroke:rgba(255,255,255,.2);stroke-width:.01" transform="matrix(30 0 0 30 30.13 401.613)"/><circle r=".06" style="fill:#222;stroke:rgba(255,255,255,.2);stroke-width:.02" transform="matrix(30 0 0 30 30.13 401.613)"/><path d="M0 0h1" style="fill:none;stroke:#fff;stroke-width:.1;stroke-linecap:round" transform="matrix(30 0 0 30 30.13 401.613)"/><path d="M0 .5h13v3L20 0l-7-3.5v3H0z" style="fill:#ccc;stroke:#ccc" transform="translate(72.13 401.613)"/><path d="M-.5.866 0 0h1zm0-1.732L0 0l-.5.866z" style="fill:#000" transform="matrix(30 0 0 30 118.378 401.613)"/><path d="M1 0H0l.5-.321zM-.5-.866 0 0l.028-.594z" style="fill:#214068" transform="matrix(30 0 0 30 118.378 401.613)"/><path d="M-.5.866 0 0h1z" style="fill:#09294c" transform="matrix(30 0 0 30 118.378 401.613)"/><path d="M-.125-.217a.25.25 0 0 0 0 .434" style="fill:none;stroke:red;stroke-width:.02" transform="matrix(30 0 0 30 118.378 401.613)"/><path d="M0 0h1M0 0l-.5.866M0 0l-.5-.866" style="fill:none;stroke:rgba(255,255,255,.2);stroke-width:.01" transform="matrix(30 0 0 30 118.378 401.613)"/><circle r=".06" style="fill:#222;stroke:rgba(255,255,255,.2);stroke-width:.02" transform="matrix(30 0 0 30 118.378 401.613)"/><circle r=".12" style="fill:none;stroke:red;stroke-width:.03" transform="matrix(30 0 0 30 118.378 401.613)"/><path d="M0 0h1" style="fill:none;stroke:#fff;stroke-width:.1;stroke-linecap:round" transform="matrix(30 0 0 30 118.378 401.613)"/><path d="M-.5.866 0 0h1zm0-1.732L0 0l-.5.866z" style="fill:#000" transform="matrix(30 0 0 30 30.88 473.725)"/><path d="M-.5.866 0 0h1z" style="fill:#214068" transform="matrix(30 0 0 30 30.88 473.725)"/><path d="M-.5-.866 0 0l.028-.594z" style="fill:#09294c" transform="matrix(30 0 0 30 30.88 473.725)"/><path d="M-.125-.217a.25.25 0 0 0 0 .434" style="fill:none;stroke:red;stroke-width:.02" transform="matrix(30 0 0 30 30.88 473.725)"/><path d="M0 0h1M0 0l-.5.866M0 0l-.5-.866" style="fill:none;stroke:rgba(255,255,255,.2);stroke-width:.01" transform="matrix(30 0 0 30 30.88 473.725)"/><circle r=".06" style="fill:#222;stroke:rgba(255,255,255,.2);stroke-width:.02" transform="matrix(30 0 0 30 30.88 473.725)"/><path d="M0 0h1" style="fill:none;stroke:red;stroke-width:.05;stroke-linecap:round" transform="matrix(30 0 0 30 30.88 473.725)"/><path d="M0 .5h13v3L20 0l-7-3.5v3H0z" style="fill:#ccc;stroke:#ccc" transform="translate(72.13 473.725)"/><path d="M-.5.866 0 0h1zm0-1.732L0 0l-.5.866z" style="fill:#000" transform="matrix(30 0 0 30 118.378 473.725)"/><path d="M1 0H0l.5-.321zM-.5.866 0 0h1z" style="fill:#214068" transform="matrix(30 0 0 30 118.378 473.725)"/><path d="M-.5-.866 0 0l.028-.594z" style="fill:#09294c" transform="matrix(30 0 0 30 118.378 473.725)"/><path d="M-.125-.217a.25.25 0 0 0 0 .434" style="fill:none;stroke:red;stroke-width:.02" transform="matrix(30 0 0 30 118.378 473.725)"/><path d="M0 0h1M0 0l-.5.866M0 0l-.5-.866" style="fill:none;stroke:rgba(255,255,255,.2);stroke-width:.01" transform="matrix(30 0 0 30 118.378 473.725)"/><circle r=".06" style="fill:#222;stroke:rgba(255,255,255,.2);stroke-width:.02" transform="matrix(30 0 0 30 118.378 473.725)"/><path d="M0 0h1" style="fill:none;stroke:red;stroke-width:.05;stroke-linecap:round" transform="matrix(30 0 0 30 118.378 473.725)"/><path d="M-.5.866 0 0h1zm0-1.732L0 0l-.5.866z" style="fill:#000" transform="matrix(30 0 0 30 31.63 545.836)"/><path d="M1 0H0l.5-.321zM-.5-.866 0 0l.028-.594z" style="fill:#214068" transform="matrix(30 0 0 30 31.63 545.836)"/><path d="M-.11.19A.22.22 0 0 0 .22 0m-.36.242A.28.28 0 0 0 .28 0" style="fill:none;stroke:#2a892a;stroke-width:.02;stroke-dasharray:.03,.03;stroke-dashoffset:0" transform="matrix(30 0 0 30 31.63 545.836)"/><path d="M0 0h1M0 0l-.5.866M0 0l-.5-.866" style="fill:none;stroke:rgba(255,255,255,.2);stroke-width:.01" transform="matrix(30 0 0 30 31.63 545.836)"/><circle r=".06" style="fill:#222;stroke:rgba(255,255,255,.2);stroke-width:.02" transform="matrix(30 0 0 30 31.63 545.836)"/><path d="M0 .5h13v3L20 0l-7-3.5v3H0z" style="fill:#ccc;stroke:#ccc" transform="translate(72.13 545.836)"/><path d="M-.5.866 0 0h1zm0-1.732L0 0l-.5.866z" style="fill:#000" transform="matrix(30 0 0 30 118.378 545.836)"/><path d="M1 0H0l.5-.321zM-.5-.866 0 0l.028-.594z" style="fill:#214068" transform="matrix(30 0 0 30 118.378 545.836)"/><path d="M-.11.19A.22.22 0 0 0 .22 0m-.36.242A.28.28 0 0 0 .28 0m-.39-.19a.22.22 0 0 0 0 .38m-.03-.432a.28.28 0 0 0 0 .484" style="fill:none;stroke:#2a892a;stroke-width:.02;stroke-dasharray:.03,.03;stroke-dashoffset:0" transform="matrix(30 0 0 30 118.378 545.836)"/><path d="M0 0h1M0 0l-.5.866M0 0l-.5-.866" style="fill:none;stroke:rgba(255,255,255,.2);stroke-width:.01" transform="matrix(30 0 0 30 118.378 545.836)"/><circle r=".06" style="fill:#222;stroke:rgba(255,255,255,.2);stroke-width:.02" transform="matrix(30 0 0 30 118.378 545.836)"/><circle r=".12" style="fill:none;stroke:red;stroke-width:.03" transform="matrix(30 0 0 30 118.378 545.836)"/><path d="M-.5.866 0 0h1zm0-1.732L0 0l-.5.866z" style="fill:#000" transform="matrix(30 0 0 30 30.88 617.948)"/><path d="M-.5.866 0 0h1zm0-1.732L0 0l.028-.594z" style="fill:#214068" transform="matrix(30 0 0 30 30.88 617.948)"/><path d="M-.11-.19a.22.22 0 0 0 0 .38m-.03-.432a.28.28 0 0 0 0 .484" style="fill:none;stroke:#08a4d9;stroke-width:.02" transform="matrix(30 0 0 30 30.88 617.948)"/><path d="M0 0h1M0 0l-.5.866M0 0l-.5-.866" style="fill:none;stroke:rgba(255,255,255,.2);stroke-width:.01" transform="matrix(30 0 0 30 30.88 617.948)"/><circle r=".06" style="fill:#222;stroke:rgba(255,255,255,.2);stroke-width:.02" transform="matrix(30 0 0 30 30.88 617.948)"/><path d="M0 0h1" style="fill:none;stroke:red;stroke-width:.05;stroke-linecap:round" transform="matrix(30 0 0 30 30.88 617.948)"/><path d="M0 .5h13v3L20 0l-7-3.5v3H0z" style="fill:#ccc;stroke:#ccc" transform="translate(72.13 617.948)"/><path d="M-.5.866 0 0h1zm0-1.732L0 0l-.5.866z" style="fill:#000" transform="matrix(30 0 0 30 118.378 617.948)"/><path d="M1 0H0l.5-.321zM-.5-.866 0 0l.028-.594zm0 1.732L0 0h1z" style="fill:#214068" transform="matrix(30 0 0 30 118.378 617.948)"/><path d="M-.11-.19a.22.22 0 0 0 0 .38m-.03-.432a.28.28 0 0 0 0 .484" style="fill:none;stroke:#08a4d9;stroke-width:.02" transform="matrix(30 0 0 30 118.378 617.948)"/><path d="M0 0h1M0 0l-.5.866M0 0l-.5-.866" style="fill:none;stroke:rgba(255,255,255,.2);stroke-width:.01" transform="matrix(30 0 0 30 118.378 617.948)"/><circle r=".06" style="fill:#222;stroke:rgba(255,255,255,.2);stroke-width:.02" transform="matrix(30 0 0 30 118.378 617.948)"/><path d="M0 0h1" style="fill:none;stroke:red;stroke-width:.05;stroke-linecap:round" transform="matrix(30 0 0 30 118.378 617.948)"/><path d="M-.5.866 0 0h1zm0-1.732L0 0l-.5.866z" style="fill:#000" transform="matrix(30 0 0 30 30.88 690.06)"/><path d="M1 0H0l.5-.321z" style="fill:#214068" transform="matrix(30 0 0 30 30.88 690.06)"/><path d="M-.5-.866 0 0l.028-.594z" style="fill:#09294c" transform="matrix(30 0 0 30 30.88 690.06)"/><path d="M-.125-.217a.25.25 0 0 0 0 .434" style="fill:none;stroke:#e07c1f;stroke-width:.02;stroke-dasharray:.03,.03;stroke-dashoffset:0" transform="matrix(30 0 0 30 30.88 690.06)"/><path d="M0 0h1M0 0l-.5.866M0 0l-.5-.866" style="fill:none;stroke:rgba(255,255,255,.2);stroke-width:.01" transform="matrix(30 0 0 30 30.88 690.06)"/><circle r=".06" style="fill:#222;stroke:rgba(255,255,255,.2);stroke-width:.02" transform="matrix(30 0 0 30 30.88 690.06)"/><path d="M0 0h1" style="fill:none;stroke:red;stroke-width:.05;stroke-linecap:round" transform="matrix(30 0 0 30 30.88 690.06)"/><path d="M0 .5h13v3L20 0l-7-3.5v3H0z" style="fill:#ccc;stroke:#ccc" transform="translate(72.13 690.06)"/><path d="M-.5.866 0 0h1zm0-1.732L0 0l-.5.866z" style="fill:#000" transform="matrix(30 0 0 30 118.378 690.06)"/><path d="M1 0H0l.5-.321zM-.5.866 0 0h1z" style="fill:#214068" transform="matrix(30 0 0 30 118.378 690.06)"/><path d="M-.5-.866 0 0l.028-.594z" style="fill:#09294c" transform="matrix(30 0 0 30 118.378 690.06)"/><path d="M-.125-.217a.25.25 0 0 0 0 .434" style="fill:none;stroke:red;stroke-width:.02" transform="matrix(30 0 0 30 118.378 690.06)"/><path d="M0 0h1M0 0l-.5.866M0 0l-.5-.866" style="fill:none;stroke:rgba(255,255,255,.2);stroke-width:.01" transform="matrix(30 0 0 30 118.378 690.06)"/><circle r=".06" style="fill:#222;stroke:rgba(255,255,255,.2);stroke-width:.02" transform="matrix(30 0 0 30 118.378 690.06)"/><path d="M0 0h1" style="fill:none;stroke:red;stroke-width:.05;stroke-linecap:round" transform="matrix(30 0 0 30 118.378 690.06)"/><path d="M-.5.866 0 0h1zm0-1.732L0 0l-.5.866z" style="fill:#000" transform="matrix(30 0 0 30 31.255 762.171)"/><path d="M1 0H0l.5-.321zM-.5.866 0 0h1z" style="fill:#214068" transform="matrix(30 0 0 30 31.255 762.171)"/><path d="M-.5-.866 0 0l.028-.594z" style="fill:#09294c" transform="matrix(30 0 0 30 31.255 762.171)"/><path d="M-.125.217A.25.25 0 0 0 .25 0" style="fill:none;stroke:#e07c1f;stroke-width:.02;stroke-dasharray:.03,.03;stroke-dashoffset:0" transform="matrix(30 0 0 30 31.255 762.171)"/><path d="M-.125-.217a.25.25 0 0 0 0 .434" style="fill:none;stroke:red;stroke-width:.02" transform="matrix(30 0 0 30 31.255 762.171)"/><path d="M0 0h1M0 0l-.5.866M0 0l-.5-.866" style="fill:none;stroke:rgba(255,255,255,.2);stroke-width:.01" transform="matrix(30 0 0 30 31.255 762.171)"/><circle r=".06" style="fill:#222;stroke:rgba(255,255,255,.2);stroke-width:.02" transform="matrix(30 0 0 30 31.255 762.171)"/><path d="M0 .5h13v3L20 0l-7-3.5v3H0z" style="fill:#ccc;stroke:#ccc" transform="translate(71.755 762.171)"/><path d="M-.5.866 0 0h1zm0-1.732L0 0l-.5.866z" style="fill:#000" transform="matrix(30 0 0 30 118.003 762.171)"/><path d="M1 0H0l.5-.321zM-.5.866 0 0h1z" style="fill:#214068" transform="matrix(30 0 0 30 118.003 762.171)"/><path d="M-.5-.866 0 0l.028-.594z" style="fill:#09294c" transform="matrix(30 0 0 30 118.003 762.171)"/><path d="M-.125-.217a.25.25 0 0 0 0 .434" style="fill:none;stroke:red;stroke-width:.02" transform="matrix(30 0 0 30 118.003 762.171)"/><path d="M0 0h1M0 0l-.5.866M0 0l-.5-.866" style="fill:none;stroke:rgba(255,255,255,.2);stroke-width:.01" transform="matrix(30 0 0 30 118.003 762.171)"/><circle r=".06" style="fill:#222;stroke:rgba(255,255,255,.2);stroke-width:.02" transform="matrix(30 0 0 30 118.003 762.171)"/><path d="M0 0h1" style="fill:none;stroke:red;stroke-width:.05;stroke-linecap:round" transform="matrix(30 0 0 30 118.003 762.171)"/><path d="M-.5.866 0 0h1zm0-1.732L0 0l-.5.866z" style="fill:#000" transform="matrix(30 0 0 30 31.32 834.283)"/><path d="M1 0H0l.5-.321zM-.5-.866 0 0l.028-.594z" style="fill:#214068" transform="matrix(30 0 0 30 31.32 834.283)"/><path d="M-.125.217A.25.25 0 0 0 .25 0m-.375-.217a.25.25 0 0 0 0 .434" style="fill:none;stroke:#e07c1f;stroke-width:.02;stroke-dasharray:.03,.03;stroke-dashoffset:0" transform="matrix(30 0 0 30 31.32 834.283)"/><path d="M0 0h1M0 0l-.5.866M0 0l-.5-.866" style="fill:none;stroke:rgba(255,255,255,.2);stroke-width:.01" transform="matrix(30 0 0 30 31.32 834.283)"/><circle r=".06" style="fill:#222;stroke:rgba(255,255,255,.2);stroke-width:.02" transform="matrix(30 0 0 30 31.32 834.283)"/><path d="M0 .5h13v3L20 0l-7-3.5v3H0z" style="fill:#ccc;stroke:#ccc" transform="translate(71.82 834.62)"/><path d="M-.5.866 0 0h1zm0-1.732L0 0l-.5.866z" style="fill:#000" transform="matrix(30 0 0 30 118.688 834.283)"/><path d="M1 0H0l.5-.321zM-.5-.866 0 0l.028-.594z" style="fill:#214068" transform="matrix(30 0 0 30 118.688 834.283)"/><path d="M0 0h1M0 0l-.5.866M0 0l-.5-.866" style="fill:none;stroke:rgba(255,255,255,.2);stroke-width:.01" transform="matrix(30 0 0 30 118.688 834.283)"/><circle r=".06" style="fill:#222;stroke:rgba(255,255,255,.2);stroke-width:.02" transform="matrix(30 0 0 30 118.688 834.283)"/><path d="m0 0-.5.866" style="fill:none;stroke:red;stroke-width:.05;stroke-linecap:round" transform="matrix(30 0 0 30 118.688 834.283)"/><path d="M-.5.866 0 0h1zm0-1.732L0 0l-.5.866z" style="fill:#000" transform="matrix(30 0 0 30 31.255 907.07)"/><path d="M1 0H0l.5-.321zM-.5-.866 0 0l.028-.594zm0 1.732L0 0h1z" style="fill:#214068" transform="matrix(30 0 0 30 31.255 907.07)"/><path d="M-.125.217A.25.25 0 0 0 .25 0" style="fill:none;stroke:#e07c1f;stroke-width:.02;stroke-dasharray:.03,.03;stroke-dashoffset:0" transform="matrix(30 0 0 30 31.255 907.07)"/><path d="M-.11-.19a.22.22 0 0 0 0 .38m-.03-.432a.28.28 0 0 0 0 .484" style="fill:none;stroke:#08a4d9;stroke-width:.02" transform="matrix(30 0 0 30 31.255 907.07)"/><path d="M0 0h1M0 0l-.5.866M0 0l-.5-.866" style="fill:none;stroke:rgba(255,255,255,.2);stroke-width:.01" transform="matrix(30 0 0 30 31.255 907.07)"/><circle r=".06" style="fill:#222;stroke:rgba(255,255,255,.2);stroke-width:.02" transform="matrix(30 0 0 30 31.255 907.07)"/><path d="M0 .5h13v3L20 0l-7-3.5v3H0z" style="fill:#ccc;stroke:#ccc" transform="translate(71.755 907.07)"/><path d="M-.5.866 0 0h1zm0-1.732L0 0l-.5.866z" style="fill:#000" transform="matrix(30 0 0 30 118.003 907.07)"/><path d="M1 0H0l.5-.321zM-.5-.866 0 0l.028-.594zm0 1.732L0 0h1z" style="fill:#214068" transform="matrix(30 0 0 30 118.003 907.07)"/><path d="M-.11-.19a.22.22 0 0 0 0 .38m-.03-.432a.28.28 0 0 0 0 .484" style="fill:none;stroke:#08a4d9;stroke-width:.02" transform="matrix(30 0 0 30 118.003 907.07)"/><path d="M0 0h1M0 0l-.5.866M0 0l-.5-.866" style="fill:none;stroke:rgba(255,255,255,.2);stroke-width:.01" transform="matrix(30 0 0 30 118.003 907.07)"/><circle r=".06" style="fill:#222;stroke:rgba(255,255,255,.2);stroke-width:.02" transform="matrix(30 0 0 30 118.003 907.07)"/><path d="M0 0h1" style="fill:none;stroke:red;stroke-width:.05;stroke-linecap:round" transform="matrix(30 0 0 30 118.003 907.07)"/><path d="M-.5.866 0 0h1zm0-1.732L0 0l-.5.866z" style="fill:#000" transform="matrix(30 0 0 30 30.88 979.18)"/><path d="M1 0H0l.5-.321zM-.5-.866 0 0l.028-.594z" style="fill:#214068" transform="matrix(30 0 0 30 30.88 979.18)"/><path d="M-.5.866 0 0h1z" style="fill:#09294c" transform="matrix(30 0 0 30 30.88 979.18)"/><path d="M-.11.19A.22.22 0 0 0 .22 0m-.36.242A.28.28 0 0 0 .28 0" style="fill:none;stroke:#2a892a;stroke-width:.02;stroke-dasharray:.03,.03;stroke-dashoffset:0" transform="matrix(30 0 0 30 30.88 979.18)"/><path d="M-.125-.217a.25.25 0 0 0 0 .434" style="fill:none;stroke:red;stroke-width:.02" transform="matrix(30 0 0 30 30.88 979.18)"/><path d="M0 0h1M0 0l-.5.866M0 0l-.5-.866" style="fill:none;stroke:rgba(255,255,255,.2);stroke-width:.01" transform="matrix(30 0 0 30 30.88 979.18)"/><circle r=".06" style="fill:#222;stroke:rgba(255,255,255,.2);stroke-width:.02" transform="matrix(30 0 0 30 30.88 979.18)"/><circle r=".12" style="fill:none;stroke:red;stroke-width:.03" transform="matrix(30 0 0 30 30.88 979.18)"/><path d="M0 .5h13v3L20 0l-7-3.5v3H0z" style="fill:#ccc;stroke:#ccc" transform="translate(71.38 979.18)"/><path d="M-.5.866 0 0h1zm0-1.732L0 0l-.5.866z" style="fill:#000" transform="matrix(30 0 0 30 117.628 979.18)"/><path d="M1 0H0l.5-.321zM-.5-.866 0 0l.028-.594z" style="fill:#214068" transform="matrix(30 0 0 30 117.628 979.18)"/><path d="M-.5.866 0 0h1z" style="fill:#09294c" transform="matrix(30 0 0 30 117.628 979.18)"/><path d="M-.125-.217a.25.25 0 0 0 0 .434" style="fill:none;stroke:red;stroke-width:.02" transform="matrix(30 0 0 30 117.628 979.18)"/><path d="M0 0h1M0 0l-.5.866M0 0l-.5-.866" style="fill:none;stroke:rgba(255,255,255,.2);stroke-width:.01" transform="matrix(30 0 0 30 117.628 979.18)"/><circle r=".06" style="fill:#222;stroke:rgba(255,255,255,.2);stroke-width:.02" transform="matrix(30 0 0 30 117.628 979.18)"/><circle r=".12" style="fill:none;stroke:red;stroke-width:.03" transform="matrix(30 0 0 30 117.628 979.18)"/><path d="M0 0h1" style="fill:none;stroke:#fff;stroke-width:.1;stroke-linecap:round" transform="matrix(30 0 0 30 117.628 979.18)"/></svg>