<svg xmlns="http://www.w3.org/2000/svg" width="202" height="94" aria-hidden="true" style="pointer-events:none;position:absolute;left:0;top:0;transform-origin:left top;z-index:20"><rect width="192" height="84" rx="0" ry="0" style="fill:#333"/><path d="M.5.866 0 0h1zm-1 0L0 0l.5.866zM-1 0h1l-.5.866zm.5-.866L0 0h-1zm1 0L0 0l-.5-.866zM1 0H0l.5-.866z" style="fill:#000" transform="matrix(30 0 0 30 45 41.73)"/><path d="M.5.866 0 0h1z" style="fill:#214068" transform="matrix(30 0 0 30 45 41.73)"/><path d="M-.5-.866 0 0h-1z" style="fill:#09294c" transform="matrix(30 0 0 30 45 41.73)"/><path d="M.125.217A.25.25 0 0 0 .25 0" style="fill:none;stroke:#e07c1f;stroke-width:.02;stroke-dasharray:.03,.03;stroke-dashoffset:0" transform="matrix(30 0 0 30 45 41.73)"/><path d="M0 0h1M0 0l.5.866M0 0l-.5.866M0 0h-1m1 0-.5-.866M0 0l.5-.866" style="fill:none;stroke:rgba(255,255,255,.2);stroke-width:.01" transform="matrix(30 0 0 30 45 41.73)"/><circle r=".04" style="fill:rgba(255,255,255,.2);stroke:rgba(255,255,255,.2);stroke-width:.02" transform="matrix(30 0 0 30 45 41.73)"/><path d="m0 0-.5.866M0 0l.5-.866" style="fill:none;stroke:red;stroke-width:.05;stroke-linecap:round" transform="matrix(30 0 0 30 45 41.73)"/><path d="M0 .5h13v3L20 0l-7-3.5v3H0z" style="fill:#ccc;stroke:#ccc" transform="translate(85.5 41.73)"/><path d="M.5.866 0 0h1zm-1 0L0 0l.5.866zM-1 0h1l-.5.866zm.5-.866L0 0h-1zm1 0L0 0l-.5-.866zM1 0H0l.5-.866z" style="fill:#000" transform="matrix(30 0 0 30 146.618 41.73)"/><path d="M.5.866 0 0h1z" style="fill:#214068" transform="matrix(30 0 0 30 146.618 41.73)"/><path d="M-.5-.866 0 0h-1z" style="fill:#09294c" transform="matrix(30 0 0 30 146.618 41.73)"/><path d="M.125.217A.25.25 0 0 0 .25 0" style="fill:none;stroke:#e07c1f;stroke-width:.02;stroke-dasharray:.03,.03;stroke-dashoffset:0" transform="matrix(30 0 0 30 146.618 41.73)"/><path d="M-.11-.19A.22.22 0 0 0-.22 0m.08-.242A.28.28 0 0 0-.28 0" style="fill:none;stroke:#2a892a;stroke-width:.02;stroke-dasharray:.03,.03;stroke-dashoffset:0" transform="matrix(30 0 0 30 146.618 41.73)"/><path d="M0 0h1M0 0l.5.866M0 0l-.5.866M0 0h-1m1 0-.5-.866M0 0l.5-.866" style="fill:none;stroke:rgba(255,255,255,.2);stroke-width:.01" transform="matrix(30 0 0 30 146.618 41.73)"/><circle r=".04" style="fill:rgba(255,255,255,.2);stroke:rgba(255,255,255,.2);stroke-width:.02" transform="matrix(30 0 0 30 146.618 41.73)"/><path d="m0 0-.5.866M0 0l.5-.866" style="fill:none;stroke:red;stroke-width:.05;stroke-linecap:round" transform="matrix(30 0 0 30 146.618 41.73)"/></svg>