<svg xmlns="http://www.w3.org/2000/svg" width="180" height="316" aria-hidden="true" style="pointer-events:none;position:absolute;left:0;top:0;transform-origin:left top;z-index:20"><rect width="170" height="306" rx="0" ry="0" style="fill:#333"/><path d="M-.5.866 0 0h1z" style="fill:#000" transform="matrix(30 0 0 30 33.75 27.99)"/><path d="M1 0H0l.5-.433zM-.5.866 0 0l-.625.217z" style="fill:#214068" transform="matrix(30 0 0 30 33.75 27.99)"/><path d="M0 0h1M0 0l-.5.866" style="fill:none;stroke:rgba(255,255,255,.2);stroke-width:.01" transform="matrix(30 0 0 30 33.75 27.99)"/><circle r=".06" style="fill:#222;stroke:rgba(255,255,255,.2);stroke-width:.02" transform="matrix(30 0 0 30 33.75 27.99)"/><path d="M0 .5h13v3L20 0l-7-3.5v3H0z" style="fill:#ccc;stroke:#ccc" transform="translate(74.25 34.523)"/><path d="M-.5.866 0 0h1z" style="fill:#000" transform="matrix(30 0 0 30 124.118 27.99)"/><path d="M1 0H0l.5-.433zM-.5.866 0 0l-.625.217z" style="fill:#214068" transform="matrix(30 0 0 30 124.118 27.99)"/><path d="M-.11.19A.22.22 0 0 0 .22 0m-.36.242A.28.28 0 0 0 .28 0" style="fill:none;stroke:#08a4d9;stroke-width:.02" transform="matrix(30 0 0 30 124.118 27.99)"/><path d="M0 0h1M0 0l-.5.866" style="fill:none;stroke:rgba(255,255,255,.2);stroke-width:.01" transform="matrix(30 0 0 30 124.118 27.99)"/><circle r=".06" style="fill:#222;stroke:rgba(255,255,255,.2);stroke-width:.02" transform="matrix(30 0 0 30 124.118 27.99)"/><path d="M-.5.866 0 0h1z" style="fill:#000" transform="matrix(30 0 0 30 33.75 87.037)"/><path d="M1 0H0l.5-.433z" style="fill:#214068" transform="matrix(30 0 0 30 33.75 87.037)"/><path d="M-.5.866 0 0l-.625.217z" style="fill:#09294c" transform="matrix(30 0 0 30 33.75 87.037)"/><path d="M0 0h1M0 0l-.5.866" style="fill:none;stroke:rgba(255,255,255,.2);stroke-width:.01" transform="matrix(30 0 0 30 33.75 87.037)"/><circle r=".06" style="fill:#222;stroke:rgba(255,255,255,.2);stroke-width:.02" transform="matrix(30 0 0 30 33.75 87.037)"/><path d="M0 .5h13v3L20 0l-7-3.5v3H0z" style="fill:#ccc;stroke:#ccc" transform="translate(74.25 93.57)"/><path d="M-.5.866 0 0h1z" style="fill:#000" transform="matrix(30 0 0 30 124.118 87.037)"/><path d="M1 0H0l.5-.433z" style="fill:#214068" transform="matrix(30 0 0 30 124.118 87.037)"/><path d="M-.5.866 0 0l-.625.217z" style="fill:#09294c" transform="matrix(30 0 0 30 124.118 87.037)"/><path d="M-.125.217A.25.25 0 0 0 .25 0" style="fill:none;stroke:red;stroke-width:.02" transform="matrix(30 0 0 30 124.118 87.037)"/><path d="M0 0h1M0 0l-.5.866" style="fill:none;stroke:rgba(255,255,255,.2);stroke-width:.01" transform="matrix(30 0 0 30 124.118 87.037)"/><circle r=".06" style="fill:#222;stroke:rgba(255,255,255,.2);stroke-width:.02" transform="matrix(30 0 0 30 124.118 87.037)"/><path d="M-.5.866 0 0h1z" style="fill:#000" transform="matrix(30 0 0 30 31.94 146.083)"/><path d="M0 0h1M0 0l-.5.866" style="fill:none;stroke:rgba(255,255,255,.2);stroke-width:.01" transform="matrix(30 0 0 30 31.94 146.083)"/><circle r=".06" style="fill:#222;stroke:rgba(255,255,255,.2);stroke-width:.02" transform="matrix(30 0 0 30 31.94 146.083)"/><circle r=".12" style="fill:none;stroke:red;stroke-width:.03" transform="matrix(30 0 0 30 31.94 146.083)"/><path d="M0 .5h13v3L20 0l-7-3.5v3H0z" style="fill:#ccc;stroke:#ccc" transform="translate(72.44 152.615)"/><path d="M-.5.866 0 0h1z" style="fill:#000" transform="matrix(30 0 0 30 122.308 146.083)"/><path d="M1 0H0l.5-.433zM-.5.866 0 0l-.625.217z" style="fill:#214068" transform="matrix(30 0 0 30 122.308 146.083)"/><path d="M-.11.19A.22.22 0 0 0 .22 0m-.36.242A.28.28 0 0 0 .28 0" style="fill:none;stroke:#08a4d9;stroke-width:.02" transform="matrix(30 0 0 30 122.308 146.083)"/><path d="M0 0h1M0 0l-.5.866" style="fill:none;stroke:rgba(255,255,255,.2);stroke-width:.01" transform="matrix(30 0 0 30 122.308 146.083)"/><circle r=".06" style="fill:#222;stroke:rgba(255,255,255,.2);stroke-width:.02" transform="matrix(30 0 0 30 122.308 146.083)"/><circle r=".12" style="fill:none;stroke:red;stroke-width:.03" transform="matrix(30 0 0 30 122.308 146.083)"/><path d="M-.5.866 0 0h1z" style="fill:#000" transform="matrix(30 0 0 30 31.94 205.129)"/><path d="M-.125.217A.25.25 0 0 0 .25 0" style="fill:none;stroke:red;stroke-width:.02" transform="matrix(30 0 0 30 31.94 205.129)"/><path d="M0 0h1M0 0l-.5.866" style="fill:none;stroke:rgba(255,255,255,.2);stroke-width:.01" transform="matrix(30 0 0 30 31.94 205.129)"/><circle r=".06" style="fill:#222;stroke:rgba(255,255,255,.2);stroke-width:.02" transform="matrix(30 0 0 30 31.94 205.129)"/><path d="M0 .5h13v3L20 0l-7-3.5v3H0z" style="fill:#ccc;stroke:#ccc" transform="translate(72.44 211.662)"/><path d="M-.5.866 0 0h1z" style="fill:#000" transform="matrix(30 0 0 30 122.308 205.129)"/><path d="M1 0H0l.5-.433z" style="fill:#214068" transform="matrix(30 0 0 30 122.308 205.129)"/><path d="M-.5.866 0 0l-.625.217z" style="fill:#09294c" transform="matrix(30 0 0 30 122.308 205.129)"/><path d="M-.125.217A.25.25 0 0 0 .25 0" style="fill:none;stroke:red;stroke-width:.02" transform="matrix(30 0 0 30 122.308 205.129)"/><path d="M0 0h1M0 0l-.5.866" style="fill:none;stroke:rgba(255,255,255,.2);stroke-width:.01" transform="matrix(30 0 0 30 122.308 205.129)"/><circle r=".06" style="fill:#222;stroke:rgba(255,255,255,.2);stroke-width:.02" transform="matrix(30 0 0 30 122.308 205.129)"/><path d="M-.5.866 0 0h1z" style="fill:#000" transform="matrix(30 0 0 30 31.94 264.175)"/><path d="M-.11.19A.22.22 0 0 0 .22 0m-.36.242A.28.28 0 0 0 .28 0" style="fill:none;stroke:#08a4d9;stroke-width:.02" transform="matrix(30 0 0 30 31.94 264.175)"/><path d="M0 0h1M0 0l-.5.866" style="fill:none;stroke:rgba(255,255,255,.2);stroke-width:.01" transform="matrix(30 0 0 30 31.94 264.175)"/><circle r=".06" style="fill:#222;stroke:rgba(255,255,255,.2);stroke-width:.02" transform="matrix(30 0 0 30 31.94 264.175)"/><path d="M0 .5h13v3L20 0l-7-3.5v3H0z" style="fill:#ccc;stroke:#ccc" transform="translate(72.44 270.708)"/><path d="M-.5.866 0 0h1z" style="fill:#000" transform="matrix(30 0 0 30 122.308 264.175)"/><path d="M1 0H0l.5-.433zM-.5.866 0 0l-.625.217z" style="fill:#214068" transform="matrix(30 0 0 30 122.308 264.175)"/><path d="M-.11.19A.22.22 0 0 0 .22 0m-.36.242A.28.28 0 0 0 .28 0" style="fill:none;stroke:#08a4d9;stroke-width:.02" transform="matrix(30 0 0 30 122.308 264.175)"/><path d="M0 0h1M0 0l-.5.866" style="fill:none;stroke:rgba(255,255,255,.2);stroke-width:.01" transform="matrix(30 0 0 30 122.308 264.175)"/><circle r=".06" style="fill:#222;stroke:rgba(255,255,255,.2);stroke-width:.02" transform="matrix(30 0 0 30 122.308 264.175)"/></svg>