<svg xmlns="http://www.w3.org/2000/svg" width="203" height="310" aria-hidden="true" style="pointer-events:none;position:absolute;left:0;top:0;transform-origin:left top;z-index:20"><rect width="193" height="300" rx="0" ry="0" style="fill:#333"/><path d="M.5.866 0 0h1zm-1 0L0 0l.5.866zm0-1.732L0 0h-1zm1 0L0 0l-.5-.866z" style="fill:#000" transform="matrix(30 0 0 30 45.375 41.056)"/><path d="M1 0H0l.5-.171zM-.5.866 0 0l-.398.348z" style="fill:#214068" transform="matrix(30 0 0 30 45.375 41.056)"/><path d="M0 0h1M0 0l.5.866M0 0l-.5.866M0 0h-1m1 0-.5-.866M0 0l.5-.866" style="fill:none;stroke:rgba(255,255,255,.2);stroke-width:.01" transform="matrix(30 0 0 30 45.375 41.056)"/><circle r=".06" style="fill:#222;stroke:rgba(255,255,255,.2);stroke-width:.02" transform="matrix(30 0 0 30 45.375 41.056)"/><circle r=".12" style="fill:none;stroke:red;stroke-width:.03" transform="matrix(30 0 0 30 45.375 41.056)"/><path d="M0 .5h13v3L20 0l-7-3.5v3H0z" style="fill:#ccc;stroke:#ccc" transform="translate(85.875 41.056)"/><path d="M.5.866 0 0h1zm-1 0L0 0l.5.866zm0-1.732L0 0h-1zm1 0L0 0l-.5-.866z" style="fill:#000" transform="matrix(30 0 0 30 146.993 41.056)"/><path d="M1 0H0l.5-.171zM-.5.866 0 0l-.398.348z" style="fill:#214068" transform="matrix(30 0 0 30 146.993 41.056)"/><path d="M-1 0h1l-.5.171zM.5-.866 0 0l.398-.348z" style="fill:#224935" transform="matrix(30 0 0 30 146.993 41.056)"/><path d="M0 0h1M0 0l.5.866M0 0l-.5.866M0 0h-1m1 0-.5-.866M0 0l.5-.866" style="fill:none;stroke:rgba(255,255,255,.2);stroke-width:.01" transform="matrix(30 0 0 30 146.993 41.056)"/><circle r=".06" style="fill:#222;stroke:rgba(255,255,255,.2);stroke-width:.02" transform="matrix(30 0 0 30 146.993 41.056)"/><circle r=".12" style="fill:none;stroke:red;stroke-width:.03" transform="matrix(30 0 0 30 146.993 41.056)"/><path d="M.5.866 0 0h1zm-1 0L0 0l.5.866zm0-1.732L0 0h-1zm1 0L0 0l-.5-.866z" style="fill:#000" transform="matrix(30 0 0 30 45 113.842)"/><path d="M1 0H0l.5-.171z" style="fill:#214068" transform="matrix(30 0 0 30 45 113.842)"/><path d="M-1 0h1l-.5.171zM.5-.866 0 0l.398-.348z" style="fill:#224935" transform="matrix(30 0 0 30 45 113.842)"/><path d="M-.5.866 0 0l-.398.348z" style="fill:#09294c" transform="matrix(30 0 0 30 45 113.842)"/><path d="M.125.217A.25.25 0 0 0 .25 0m-.375.217a.25.25 0 0 0 .25 0" style="fill:none;stroke:#e07c1f;stroke-width:.02;stroke-dasharray:.03,.03;stroke-dashoffset:0" transform="matrix(30 0 0 30 45 113.842)"/><path d="M0 0h1M0 0l.5.866M0 0l-.5.866M0 0h-1m1 0-.5-.866M0 0l.5-.866" style="fill:none;stroke:rgba(255,255,255,.2);stroke-width:.01" transform="matrix(30 0 0 30 45 113.842)"/><circle r=".06" style="fill:#222;stroke:rgba(255,255,255,.2);stroke-width:.02" transform="matrix(30 0 0 30 45 113.842)"/><path d="m0 0-.5-.866" style="fill:none;stroke:red;stroke-width:.05;stroke-linecap:round" transform="matrix(30 0 0 30 45 113.842)"/><path d="M0 .5h13v3L20 0l-7-3.5v3H0z" style="fill:#ccc;stroke:#ccc" transform="translate(85.5 113.505)"/><path d="M.5.866 0 0h1zm-1 0L0 0l.5.866zm0-1.732L0 0h-1zm1 0L0 0l-.5-.866z" style="fill:#000" transform="matrix(30 0 0 30 147.368 113.842)"/><path d="M1 0H0l.5-.171z" style="fill:#214068" transform="matrix(30 0 0 30 147.368 113.842)"/><path d="M-1 0h1l-.5.171zM.5-.866 0 0l.398-.348zm-1 0L0 0h-1zm1 0L0 0l-.5-.866z" style="fill:#224935" transform="matrix(30 0 0 30 147.368 113.842)"/><path d="M-.5.866 0 0l-.398.348z" style="fill:#09294c" transform="matrix(30 0 0 30 147.368 113.842)"/><path d="M.125.217A.25.25 0 0 0 .25 0m-.375.217a.25.25 0 0 0 .25 0" style="fill:none;stroke:#e07c1f;stroke-width:.02;stroke-dasharray:.03,.03;stroke-dashoffset:0" transform="matrix(30 0 0 30 147.368 113.842)"/><path d="M0 0h1M0 0l.5.866M0 0l-.5.866M0 0h-1m1 0-.5-.866M0 0l.5-.866" style="fill:none;stroke:rgba(255,255,255,.2);stroke-width:.01" transform="matrix(30 0 0 30 147.368 113.842)"/><circle r=".06" style="fill:#222;stroke:rgba(255,255,255,.2);stroke-width:.02" transform="matrix(30 0 0 30 147.368 113.842)"/><path d="M0 0h-1m1 0-.5-.866M0 0l.5-.866" style="fill:none;stroke:red;stroke-width:.05;stroke-linecap:round" transform="matrix(30 0 0 30 147.368 113.842)"/><path d="M.5.866 0 0h1zm-1 0L0 0l.5.866zm0-1.732L0 0h-1zm1 0L0 0l-.5-.866z" style="fill:#000" transform="matrix(30 0 0 30 45.375 185.954)"/><path d="M1 0H0l.5-.171z" style="fill:#214068" transform="matrix(30 0 0 30 45.375 185.954)"/><path d="M-1 0h1l-.5.171z" style="fill:#224935" transform="matrix(30 0 0 30 45.375 185.954)"/><path d="M-.5.866 0 0l-.398.348z" style="fill:#09294c" transform="matrix(30 0 0 30 45.375 185.954)"/><path d="M.5-.866 0 0l.398-.348z" style="fill:#0d301f" transform="matrix(30 0 0 30 45.375 185.954)"/><path d="M.125.217A.25.25 0 0 0 .25 0m-.375.217a.25.25 0 0 0 .25 0m-.25-.434A.25.25 0 0 0-.25 0m.375-.217a.25.25 0 0 0-.25 0" style="fill:none;stroke:#e07c1f;stroke-width:.02;stroke-dasharray:.03,.03;stroke-dashoffset:0" transform="matrix(30 0 0 30 45.375 185.954)"/><path d="M0 0h1M0 0l.5.866M0 0l-.5.866M0 0h-1m1 0-.5-.866M0 0l.5-.866" style="fill:none;stroke:rgba(255,255,255,.2);stroke-width:.01" transform="matrix(30 0 0 30 45.375 185.954)"/><circle r=".06" style="fill:#222;stroke:rgba(255,255,255,.2);stroke-width:.02" transform="matrix(30 0 0 30 45.375 185.954)"/><path d="M0 .5h13v3L20 0l-7-3.5v3H0z" style="fill:#ccc;stroke:#ccc" transform="translate(85.875 185.954)"/><path d="M.5.866 0 0h1zm-1 0L0 0l.5.866zm0-1.732L0 0h-1zm1 0L0 0l-.5-.866z" style="fill:#000" transform="matrix(30 0 0 30 146.993 185.954)"/><path d="M1 0H0l.5-.171z" style="fill:#214068" transform="matrix(30 0 0 30 146.993 185.954)"/><path d="M-1 0h1l-.5.171z" style="fill:#224935" transform="matrix(30 0 0 30 146.993 185.954)"/><path d="M-.5.866 0 0l-.398.348z" style="fill:#09294c" transform="matrix(30 0 0 30 146.993 185.954)"/><path d="M.5-.866 0 0l.398-.348z" style="fill:#0d301f" transform="matrix(30 0 0 30 146.993 185.954)"/><path d="M.125.217A.25.25 0 0 0 .25 0m-.375.217a.25.25 0 0 0 .25 0m-.25-.434A.25.25 0 0 0-.25 0m.375-.217a.25.25 0 0 0-.25 0" style="fill:none;stroke:#e07c1f;stroke-width:.02;stroke-dasharray:.03,.03;stroke-dashoffset:0" transform="matrix(30 0 0 30 146.993 185.954)"/><path d="M0 0h1M0 0l.5.866M0 0l-.5.866M0 0h-1m1 0-.5-.866M0 0l.5-.866" style="fill:none;stroke:rgba(255,255,255,.2);stroke-width:.01" transform="matrix(30 0 0 30 146.993 185.954)"/><circle r=".06" style="fill:#222;stroke:rgba(255,255,255,.2);stroke-width:.02" transform="matrix(30 0 0 30 146.993 185.954)"/><circle r=".12" style="fill:none;stroke:red;stroke-width:.03" transform="matrix(30 0 0 30 146.993 185.954)"/><path d="M.5.866 0 0h1zm-1 0L0 0l.5.866zm0-1.732L0 0h-1zm1 0L0 0l-.5-.866z" style="fill:#000" transform="matrix(30 0 0 30 45.375 258.065)"/><path d="M1 0H0l.5-.171z" style="fill:#214068" transform="matrix(30 0 0 30 45.375 258.065)"/><path d="M-.5.866 0 0l-.398.348z" style="fill:#09294c" transform="matrix(30 0 0 30 45.375 258.065)"/><path d="M.125.217A.25.25 0 0 0 .25 0m-.375.217a.25.25 0 0 0 .25 0m-.25-.434A.25.25 0 0 0-.25 0m.375-.217a.25.25 0 0 0-.25 0" style="fill:none;stroke:#e07c1f;stroke-width:.02;stroke-dasharray:.03,.03;stroke-dashoffset:0" transform="matrix(30 0 0 30 45.375 258.065)"/><path d="M0 0h1M0 0l.5.866M0 0l-.5.866M0 0h-1m1 0-.5-.866M0 0l.5-.866" style="fill:none;stroke:rgba(255,255,255,.2);stroke-width:.01" transform="matrix(30 0 0 30 45.375 258.065)"/><circle r=".06" style="fill:#222;stroke:rgba(255,255,255,.2);stroke-width:.02" transform="matrix(30 0 0 30 45.375 258.065)"/><circle r=".12" style="fill:none;stroke:red;stroke-width:.03" transform="matrix(30 0 0 30 45.375 258.065)"/><path d="M0 .5h13v3L20 0l-7-3.5v3H0z" style="fill:#ccc;stroke:#ccc" transform="translate(85.875 258.065)"/><path d="M.5.866 0 0h1zm-1 0L0 0l.5.866zm0-1.732L0 0h-1zm1 0L0 0l-.5-.866z" style="fill:#000" transform="matrix(30 0 0 30 146.993 258.065)"/><path d="M1 0H0l.5-.171z" style="fill:#214068" transform="matrix(30 0 0 30 146.993 258.065)"/><path d="M-1 0h1l-.5.171z" style="fill:#224935" transform="matrix(30 0 0 30 146.993 258.065)"/><path d="M-.5.866 0 0l-.398.348z" style="fill:#09294c" transform="matrix(30 0 0 30 146.993 258.065)"/><path d="M.5-.866 0 0l.398-.348z" style="fill:#0d301f" transform="matrix(30 0 0 30 146.993 258.065)"/><path d="M.125.217A.25.25 0 0 0 .25 0m-.375.217a.25.25 0 0 0 .25 0m-.25-.434A.25.25 0 0 0-.25 0m.375-.217a.25.25 0 0 0-.25 0" style="fill:none;stroke:#e07c1f;stroke-width:.02;stroke-dasharray:.03,.03;stroke-dashoffset:0" transform="matrix(30 0 0 30 146.993 258.065)"/><path d="M0 0h1M0 0l.5.866M0 0l-.5.866M0 0h-1m1 0-.5-.866M0 0l.5-.866" style="fill:none;stroke:rgba(255,255,255,.2);stroke-width:.01" transform="matrix(30 0 0 30 146.993 258.065)"/><circle r=".06" style="fill:#222;stroke:rgba(255,255,255,.2);stroke-width:.02" transform="matrix(30 0 0 30 146.993 258.065)"/><circle r=".12" style="fill:none;stroke:red;stroke-width:.03" transform="matrix(30 0 0 30 146.993 258.065)"/></svg>