<svg xmlns="http://www.w3.org/2000/svg" width="612" height="965" aria-hidden="true" style="pointer-events:none;position:absolute;left:0;top:0;transform-origin:left top;z-index:20"><rect width="602" height="955" rx="0" ry="0" style="fill:#333"/><path d="M.5.866 0 0h1zm-1 0L0 0l.5.866zM-1 0h1l-.5.866zm.5-.866L0 0h-1zm1 0L0 0l-.5-.866z" style="fill:#000" transform="matrix(30 0 0 30 45.75 41.056)"/><path d="M.5.866 0 0h1zm0-1.732L0 0l.398-.348z" style="fill:#214068" transform="matrix(30 0 0 30 45.75 41.056)"/><path d="M0 0h1M0 0l.5.866M0 0l-.5.866M0 0h-1m1 0-.5-.866M0 0l.5-.866" style="fill:none;stroke:rgba(255,255,255,.2);stroke-width:.01" transform="matrix(30 0 0 30 45.75 41.056)"/><circle r=".06" style="fill:#222;stroke:rgba(255,255,255,.2);stroke-width:.02" transform="matrix(30 0 0 30 45.75 41.056)"/><path d="M0 .5h13v3L20 0l-7-3.5v3H0z" style="fill:#ccc;stroke:#ccc" transform="translate(86.25 41.056)"/><path d="M.5.866 0 0h1zm-1 0L0 0l.5.866zM-1 0h1l-.5.866zm.5-.866L0 0h-1zm1 0L0 0l-.5-.866z" style="fill:#000" transform="matrix(30 0 0 30 147.368 41.056)"/><path d="M.5.866 0 0h1zm0-1.732L0 0l.398-.348z" style="fill:#214068" transform="matrix(30 0 0 30 147.368 41.056)"/><path d="M.125.217A.25.25 0 0 0 .25 0" style="fill:none;stroke:#e07c1f;stroke-width:.02;stroke-dasharray:.03,.03;stroke-dashoffset:0" transform="matrix(30 0 0 30 147.368 41.056)"/><path d="M0 0h1M0 0l.5.866M0 0l-.5.866M0 0h-1m1 0-.5-.866M0 0l.5-.866" style="fill:none;stroke:rgba(255,255,255,.2);stroke-width:.01" transform="matrix(30 0 0 30 147.368 41.056)"/><circle r=".06" style="fill:#222;stroke:rgba(255,255,255,.2);stroke-width:.02" transform="matrix(30 0 0 30 147.368 41.056)"/><path d="M.5.866 0 0h1zm-1 0L0 0l.5.866zM-1 0h1l-.5.866zm.5-.866L0 0h-1zm1 0L0 0l-.5-.866z" style="fill:#000" transform="matrix(30 0 0 30 249.618 41.056)"/><path d="M1 0H0l.5-.171z" style="fill:#214068" transform="matrix(30 0 0 30 249.618 41.056)"/><path d="M.5-.866 0 0l.398-.348z" style="fill:#09294c" transform="matrix(30 0 0 30 249.618 41.056)"/><path d="M0 0h1M0 0l.5.866M0 0l-.5.866M0 0h-1m1 0-.5-.866M0 0l.5-.866" style="fill:none;stroke:rgba(255,255,255,.2);stroke-width:.01" transform="matrix(30 0 0 30 249.618 41.056)"/><circle r=".06" style="fill:#222;stroke:rgba(255,255,255,.2);stroke-width:.02" transform="matrix(30 0 0 30 249.618 41.056)"/><path d="M0 .5h13v3L20 0l-7-3.5v3H0z" style="fill:#ccc;stroke:#ccc" transform="translate(290.118 41.056)"/><path d="M.5.866 0 0h1zm-1 0L0 0l.5.866zM-1 0h1l-.5.866zm.5-.866L0 0h-1zm1 0L0 0l-.5-.866z" style="fill:#000" transform="matrix(30 0 0 30 351.236 41.056)"/><path d="M1 0H0l.5-.171z" style="fill:#214068" transform="matrix(30 0 0 30 351.236 41.056)"/><path d="M.5-.866 0 0l.398-.348z" style="fill:#09294c" transform="matrix(30 0 0 30 351.236 41.056)"/><path d="M.125.217A.25.25 0 0 0 .25 0m-.375.217a.25.25 0 0 0 .25 0M-.25 0a.25.25 0 0 0 .125.217m0-.434A.25.25 0 0 0-.25 0m.375-.217a.25.25 0 0 0-.25 0" style="fill:none;stroke:#e07c1f;stroke-width:.02;stroke-dasharray:.03,.03;stroke-dashoffset:0" transform="matrix(30 0 0 30 351.236 41.056)"/><path d="M0 0h1M0 0l.5.866M0 0l-.5.866M0 0h-1m1 0-.5-.866M0 0l.5-.866" style="fill:none;stroke:rgba(255,255,255,.2);stroke-width:.01" transform="matrix(30 0 0 30 351.236 41.056)"/><circle r=".06" style="fill:#222;stroke:rgba(255,255,255,.2);stroke-width:.02" transform="matrix(30 0 0 30 351.236 41.056)"/><path d="M.5.866 0 0h1zm-1 0L0 0l.5.866zM-1 0h1l-.5.866zm.5-.866L0 0h-1zm1 0L0 0l-.5-.866z" style="fill:#000" transform="matrix(30 0 0 30 453.111 41.056)"/><path d="M.5.866 0 0h1zm0-1.732L0 0l.398-.348z" style="fill:#214068" transform="matrix(30 0 0 30 453.111 41.056)"/><path d="M0 0h1M0 0l.5.866M0 0l-.5.866M0 0h-1m1 0-.5-.866M0 0l.5-.866" style="fill:none;stroke:rgba(255,255,255,.2);stroke-width:.01" transform="matrix(30 0 0 30 453.111 41.056)"/><circle r=".06" style="fill:#222;stroke:rgba(255,255,255,.2);stroke-width:.02" transform="matrix(30 0 0 30 453.111 41.056)"/><path d="M0 0h1" style="fill:none;stroke:red;stroke-width:.05;stroke-linecap:round" transform="matrix(30 0 0 30 453.111 41.056)"/><path d="M0 .5h13v3L20 0l-7-3.5v3H0z" style="fill:#ccc;stroke:#ccc" transform="translate(494.361 41.056)"/><path d="M.5.866 0 0h1zm-1 0L0 0l.5.866zM-1 0h1l-.5.866zm.5-.866L0 0h-1zm1 0L0 0l-.5-.866z" style="fill:#000" transform="matrix(30 0 0 30 555.48 41.056)"/><path d="M1 0H0l.5-.171zM.5-.866 0 0l.398-.348zM.5.866 0 0h1z" style="fill:#214068" transform="matrix(30 0 0 30 555.48 41.056)"/><path d="M0 0h1M0 0l.5.866M0 0l-.5.866M0 0h-1m1 0-.5-.866M0 0l.5-.866" style="fill:none;stroke:rgba(255,255,255,.2);stroke-width:.01" transform="matrix(30 0 0 30 555.48 41.056)"/><circle r=".06" style="fill:#222;stroke:rgba(255,255,255,.2);stroke-width:.02" transform="matrix(30 0 0 30 555.48 41.056)"/><path d="M0 0h1" style="fill:none;stroke:red;stroke-width:.05;stroke-linecap:round" transform="matrix(30 0 0 30 555.48 41.056)"/><path d="M.5.866 0 0h1zm-1 0L0 0l.5.866zM-1 0h1l-.5.866zm.5-.866L0 0h-1zm1 0L0 0l-.5-.866z" style="fill:#000" transform="matrix(30 0 0 30 45 113.167)"/><path d="M1 0H0l.5-.171zM.5-.866 0 0l.398-.348z" style="fill:#214068" transform="matrix(30 0 0 30 45 113.167)"/><path d="M0 0h1M0 0l.5.866M0 0l-.5.866M0 0h-1m1 0-.5-.866M0 0l.5-.866" style="fill:none;stroke:rgba(255,255,255,.2);stroke-width:.01" transform="matrix(30 0 0 30 45 113.167)"/><circle r=".06" style="fill:#222;stroke:rgba(255,255,255,.2);stroke-width:.02" transform="matrix(30 0 0 30 45 113.167)"/><path d="M0 0h1" style="fill:none;stroke:red;stroke-width:.05;stroke-linecap:round" transform="matrix(30 0 0 30 45 113.167)"/><path d="M0 .5h13v3L20 0l-7-3.5v3H0z" style="fill:#ccc;stroke:#ccc" transform="translate(86.25 113.167)"/><path d="M.5.866 0 0h1zm-1 0L0 0l.5.866zM-1 0h1l-.5.866zm.5-.866L0 0h-1zm1 0L0 0l-.5-.866z" style="fill:#000" transform="matrix(30 0 0 30 147.368 113.167)"/><path d="M1 0H0l.5-.171zM.5-.866 0 0l.398-.348zM.5.866 0 0h1z" style="fill:#214068" transform="matrix(30 0 0 30 147.368 113.167)"/><path d="M0 0h1M0 0l.5.866M0 0l-.5.866M0 0h-1m1 0-.5-.866M0 0l.5-.866" style="fill:none;stroke:rgba(255,255,255,.2);stroke-width:.01" transform="matrix(30 0 0 30 147.368 113.167)"/><circle r=".06" style="fill:#222;stroke:rgba(255,255,255,.2);stroke-width:.02" transform="matrix(30 0 0 30 147.368 113.167)"/><path d="M0 0h1" style="fill:none;stroke:red;stroke-width:.05;stroke-linecap:round" transform="matrix(30 0 0 30 147.368 113.167)"/><path d="M.5.866 0 0h1zm-1 0L0 0l.5.866zM-1 0h1l-.5.866zm.5-.866L0 0h-1zm1 0L0 0l-.5-.866z" style="fill:#000" transform="matrix(30 0 0 30 249.618 113.167)"/><path d="M0 0h1M0 0l.5.866M0 0l-.5.866M0 0h-1m1 0-.5-.866M0 0l.5-.866" style="fill:none;stroke:rgba(255,255,255,.2);stroke-width:.01" transform="matrix(30 0 0 30 249.618 113.167)"/><circle r=".06" style="fill:#222;stroke:rgba(255,255,255,.2);stroke-width:.02" transform="matrix(30 0 0 30 249.618 113.167)"/><circle r=".12" style="fill:none;stroke:red;stroke-width:.03" transform="matrix(30 0 0 30 249.618 113.167)"/><path d="M0 .5h13v3L20 0l-7-3.5v3H0z" style="fill:#ccc;stroke:#ccc" transform="translate(290.118 113.167)"/><path d="M.5.866 0 0h1zm-1 0L0 0l.5.866zM-1 0h1l-.5.866zm.5-.866L0 0h-1zm1 0L0 0l-.5-.866z" style="fill:#000" transform="matrix(30 0 0 30 351.236 113.167)"/><path d="M1 0H0l.5-.171zM.5-.866 0 0l.398-.348z" style="fill:#214068" transform="matrix(30 0 0 30 351.236 113.167)"/><path d="M0 0h1M0 0l.5.866M0 0l-.5.866M0 0h-1m1 0-.5-.866M0 0l.5-.866" style="fill:none;stroke:rgba(255,255,255,.2);stroke-width:.01" transform="matrix(30 0 0 30 351.236 113.167)"/><circle r=".06" style="fill:#222;stroke:rgba(255,255,255,.2);stroke-width:.02" transform="matrix(30 0 0 30 351.236 113.167)"/><circle r=".12" style="fill:none;stroke:red;stroke-width:.03" transform="matrix(30 0 0 30 351.236 113.167)"/><path d="M.5.866 0 0h1zm-1 0L0 0l.5.866zM-1 0h1l-.5.866zm.5-.866L0 0h-1zm1 0L0 0l-.5-.866z" style="fill:#000" transform="matrix(30 0 0 30 453.486 113.167)"/><path d="M1 0H0l.5-.171zM.5-.866 0 0l.398-.348zM.5.866 0 0h1z" style="fill:#214068" transform="matrix(30 0 0 30 453.486 113.167)"/><path d="M.125.217A.25.25 0 0 0 .25 0" style="fill:none;stroke:#e07c1f;stroke-width:.02;stroke-dasharray:.03,.03;stroke-dashoffset:0" transform="matrix(30 0 0 30 453.486 113.167)"/><path d="M0 0h1M0 0l.5.866M0 0l-.5.866M0 0h-1m1 0-.5-.866M0 0l.5-.866" style="fill:none;stroke:rgba(255,255,255,.2);stroke-width:.01" transform="matrix(30 0 0 30 453.486 113.167)"/><circle r=".06" style="fill:#222;stroke:rgba(255,255,255,.2);stroke-width:.02" transform="matrix(30 0 0 30 453.486 113.167)"/><path d="M0 .5h13v3L20 0l-7-3.5v3H0z" style="fill:#ccc;stroke:#ccc" transform="translate(493.986 113.167)"/><path d="M.5.866 0 0h1zm-1 0L0 0l.5.866zM-1 0h1l-.5.866zm.5-.866L0 0h-1zm1 0L0 0l-.5-.866z" style="fill:#000" transform="matrix(30 0 0 30 555.104 113.167)"/><path d="M1 0H0l.5-.171zM.5-.866 0 0l.398-.348zM.5.866 0 0h1z" style="fill:#214068" transform="matrix(30 0 0 30 555.104 113.167)"/><path d="M0 0h1M0 0l.5.866M0 0l-.5.866M0 0h-1m1 0-.5-.866M0 0l.5-.866" style="fill:none;stroke:rgba(255,255,255,.2);stroke-width:.01" transform="matrix(30 0 0 30 555.104 113.167)"/><circle r=".06" style="fill:#222;stroke:rgba(255,255,255,.2);stroke-width:.02" transform="matrix(30 0 0 30 555.104 113.167)"/><path d="M0 0h1" style="fill:none;stroke:red;stroke-width:.05;stroke-linecap:round" transform="matrix(30 0 0 30 555.104 113.167)"/><path d="M.5.866 0 0h1zm-1 0L0 0l.5.866zM-1 0h1l-.5.866zm.5-.866L0 0h-1zm1 0L0 0l-.5-.866z" style="fill:#000" transform="matrix(30 0 0 30 45.375 185.616)"/><path d="M.5.866 0 0h1zm0-1.732L0 0l.398-.348z" style="fill:#214068" transform="matrix(30 0 0 30 45.375 185.616)"/><path d="M-1 0h1l-.5.866zm2 0H0l.5-.171z" style="fill:#224935" transform="matrix(30 0 0 30 45.375 185.616)"/><path d="M.125.217A.25.25 0 0 0 .25 0m-.5 0a.25.25 0 0 0 .125.217" style="fill:none;stroke:#e07c1f;stroke-width:.02;stroke-dasharray:.03,.03;stroke-dashoffset:0" transform="matrix(30 0 0 30 45.375 185.616)"/><path d="M0 0h1M0 0l.5.866M0 0l-.5.866M0 0h-1m1 0-.5-.866M0 0l.5-.866" style="fill:none;stroke:rgba(255,255,255,.2);stroke-width:.01" transform="matrix(30 0 0 30 45.375 185.616)"/><circle r=".06" style="fill:#222;stroke:rgba(255,255,255,.2);stroke-width:.02" transform="matrix(30 0 0 30 45.375 185.616)"/><path d="M0 .5h13v3L20 0l-7-3.5v3H0z" style="fill:#ccc;stroke:#ccc" transform="translate(85.875 185.616)"/><path d="M.5.866 0 0h1zm-1 0L0 0l.5.866zM-1 0h1l-.5.866zm.5-.866L0 0h-1zm1 0L0 0l-.5-.866z" style="fill:#000" transform="matrix(30 0 0 30 146.993 185.616)"/><path d="M1 0H0l.5-.171zM.5-.866 0 0l.398-.348zM-1 0h1l-.5.866zM.5.866 0 0h1z" style="fill:#214068" transform="matrix(30 0 0 30 146.993 185.616)"/><path d="M-.11.19a.22.22 0 0 0 .22 0m-.25.052a.28.28 0 0 0 .28 0" style="fill:none;stroke:#08a4d9;stroke-width:.02" transform="matrix(30 0 0 30 146.993 185.616)"/><path d="M-.25 0a.25.25 0 0 0 .125.217" style="fill:none;stroke:#e07c1f;stroke-width:.02;stroke-dasharray:.03,.03;stroke-dashoffset:0" transform="matrix(30 0 0 30 146.993 185.616)"/><path d="M0 0h1M0 0l.5.866M0 0l-.5.866M0 0h-1m1 0-.5-.866M0 0l.5-.866" style="fill:none;stroke:rgba(255,255,255,.2);stroke-width:.01" transform="matrix(30 0 0 30 146.993 185.616)"/><circle r=".06" style="fill:#222;stroke:rgba(255,255,255,.2);stroke-width:.02" transform="matrix(30 0 0 30 146.993 185.616)"/><path d="M0 0h1" style="fill:none;stroke:red;stroke-width:.05;stroke-linecap:round" transform="matrix(30 0 0 30 146.993 185.616)"/><path d="M.5.866 0 0h1zm-1 0L0 0l.5.866zM-1 0h1l-.5.866zm.5-.866L0 0h-1zm1 0L0 0l-.5-.866z" style="fill:#000" transform="matrix(30 0 0 30 249.618 185.279)"/><path d="M-.5.866 0 0l.5.866zm1-1.732L0 0l.398-.348z" style="fill:#214068" transform="matrix(30 0 0 30 249.618 185.279)"/><path d="M-1 0h1l-.5.866zm2 0H0l.5-.171z" style="fill:#224935" transform="matrix(30 0 0 30 249.618 185.279)"/><path d="M-.125.217a.25.25 0 0 0 .25 0M-.25 0a.25.25 0 0 0 .125.217" style="fill:none;stroke:#e07c1f;stroke-width:.02;stroke-dasharray:.03,.03;stroke-dashoffset:0" transform="matrix(30 0 0 30 249.618 185.279)"/><path d="M0 0h1M0 0l.5.866M0 0l-.5.866M0 0h-1m1 0-.5-.866M0 0l.5-.866" style="fill:none;stroke:rgba(255,255,255,.2);stroke-width:.01" transform="matrix(30 0 0 30 249.618 185.279)"/><circle r=".06" style="fill:#222;stroke:rgba(255,255,255,.2);stroke-width:.02" transform="matrix(30 0 0 30 249.618 185.279)"/><path d="M0 .5h13v3L20 0l-7-3.5v3H0z" style="fill:#ccc;stroke:#ccc" transform="translate(290.118 185.616)"/><path d="M.5.866 0 0h1zm-1 0L0 0l.5.866zM-1 0h1l-.5.866zm.5-.866L0 0h-1zm1 0L0 0l-.5-.866z" style="fill:#000" transform="matrix(30 0 0 30 351.236 185.279)"/><path d="M1 0H0l.5-.171zM.5-.866 0 0l.398-.348zM-1 0h1l-.5.866zm.5.866L0 0l.5.866z" style="fill:#214068" transform="matrix(30 0 0 30 351.236 185.279)"/><path d="M.11.19A.22.22 0 0 0 .22 0M.14.242A.28.28 0 0 0 .28 0" style="fill:none;stroke:#08a4d9;stroke-width:.02" transform="matrix(30 0 0 30 351.236 185.279)"/><path d="M0 0h1M0 0l.5.866M0 0l-.5.866M0 0h-1m1 0-.5-.866M0 0l.5-.866" style="fill:none;stroke:rgba(255,255,255,.2);stroke-width:.01" transform="matrix(30 0 0 30 351.236 185.279)"/><circle r=".06" style="fill:#222;stroke:rgba(255,255,255,.2);stroke-width:.02" transform="matrix(30 0 0 30 351.236 185.279)"/><path d="m0 0-.5.866" style="fill:none;stroke:red;stroke-width:.05;stroke-linecap:round" transform="matrix(30 0 0 30 351.236 185.279)"/><path d="M.5.866 0 0h1zm-1 0L0 0l.5.866zM-1 0h1l-.5.866zm.5-.866L0 0h-1zm1 0L0 0l-.5-.866z" style="fill:#000" transform="matrix(30 0 0 30 453.486 185.616)"/><path d="M.5.866 0 0h1zm0-1.732L0 0l.398-.348z" style="fill:#214068" transform="matrix(30 0 0 30 453.486 185.616)"/><path d="M-.5-.866 0 0h-1zM1 0H0l.5-.171z" style="fill:#224935" transform="matrix(30 0 0 30 453.486 185.616)"/><path d="M.125.217A.25.25 0 0 0 .25 0m-.375-.217A.25.25 0 0 0-.25 0" style="fill:none;stroke:#e07c1f;stroke-width:.02;stroke-dasharray:.03,.03;stroke-dashoffset:0" transform="matrix(30 0 0 30 453.486 185.616)"/><path d="M0 0h1M0 0l.5.866M0 0l-.5.866M0 0h-1m1 0-.5-.866M0 0l.5-.866" style="fill:none;stroke:rgba(255,255,255,.2);stroke-width:.01" transform="matrix(30 0 0 30 453.486 185.616)"/><circle r=".06" style="fill:#222;stroke:rgba(255,255,255,.2);stroke-width:.02" transform="matrix(30 0 0 30 453.486 185.616)"/><path d="M0 .5h13v3L20 0l-7-3.5v3H0z" style="fill:#ccc;stroke:#ccc" transform="translate(493.986 185.616)"/><path d="M.5.866 0 0h1zm-1 0L0 0l.5.866zM-1 0h1l-.5.866zm.5-.866L0 0h-1zm1 0L0 0l-.5-.866z" style="fill:#000" transform="matrix(30 0 0 30 555.104 185.616)"/><path d="M1 0H0l.5-.171zM.5-.866 0 0l.398-.348zm-1 0L0 0h-1zM.5.866 0 0h1z" style="fill:#214068" transform="matrix(30 0 0 30 555.104 185.616)"/><path d="M-.125-.217A.25.25 0 0 0-.25 0" style="fill:none;stroke:#e07c1f;stroke-width:.02;stroke-dasharray:.03,.03;stroke-dashoffset:0" transform="matrix(30 0 0 30 555.104 185.616)"/><path d="M.11-.19a.22.22 0 0 0-.22 0m.25-.052a.28.28 0 0 0-.28 0" style="fill:none;stroke:#08a4d9;stroke-width:.02" transform="matrix(30 0 0 30 555.104 185.616)"/><path d="M0 0h1M0 0l.5.866M0 0l-.5.866M0 0h-1m1 0-.5-.866M0 0l.5-.866" style="fill:none;stroke:rgba(255,255,255,.2);stroke-width:.01" transform="matrix(30 0 0 30 555.104 185.616)"/><circle r=".06" style="fill:#222;stroke:rgba(255,255,255,.2);stroke-width:.02" transform="matrix(30 0 0 30 555.104 185.616)"/><path d="M0 0h1" style="fill:none;stroke:red;stroke-width:.05;stroke-linecap:round" transform="matrix(30 0 0 30 555.104 185.616)"/><path d="M.5.866 0 0h1zm-1 0L0 0l.5.866zM-1 0h1l-.5.866zm.5-.866L0 0h-1zm1 0L0 0l-.5-.866z" style="fill:#000" transform="matrix(30 0 0 30 45.75 258.403)"/><path d="M-.5.866 0 0l.5.866zm1-1.732L0 0l.398-.348z" style="fill:#214068" transform="matrix(30 0 0 30 45.75 258.403)"/><path d="M-.5-.866 0 0h-1zM1 0H0l.5-.171z" style="fill:#224935" transform="matrix(30 0 0 30 45.75 258.403)"/><path d="M-.125.217a.25.25 0 0 0 .25 0m-.25-.434A.25.25 0 0 0-.25 0" style="fill:none;stroke:#e07c1f;stroke-width:.02;stroke-dasharray:.03,.03;stroke-dashoffset:0" transform="matrix(30 0 0 30 45.75 258.403)"/><path d="M0 0h1M0 0l.5.866M0 0l-.5.866M0 0h-1m1 0-.5-.866M0 0l.5-.866" style="fill:none;stroke:rgba(255,255,255,.2);stroke-width:.01" transform="matrix(30 0 0 30 45.75 258.403)"/><circle r=".06" style="fill:#222;stroke:rgba(255,255,255,.2);stroke-width:.02" transform="matrix(30 0 0 30 45.75 258.403)"/><path d="M0 .5h13v3L20 0l-7-3.5v3H0z" style="fill:#ccc;stroke:#ccc" transform="translate(86.25 258.403)"/><path d="M.5.866 0 0h1zm-1 0L0 0l.5.866zM-1 0h1l-.5.866zm.5-.866L0 0h-1zm1 0L0 0l-.5-.866z" style="fill:#000" transform="matrix(30 0 0 30 147.368 258.403)"/><path d="M1 0H0l.5-.171zM.5-.866 0 0l.398-.348zm-1 0L0 0h-1zm0 1.732L0 0l.5.866z" style="fill:#214068" transform="matrix(30 0 0 30 147.368 258.403)"/><path d="M.11.19A.22.22 0 0 0 .22 0M.14.242A.28.28 0 0 0 .28 0" style="fill:none;stroke:#08a4d9;stroke-width:.02" transform="matrix(30 0 0 30 147.368 258.403)"/><path d="M-.125.217a.25.25 0 0 0 .25 0" style="fill:none;stroke:#e07c1f;stroke-width:.02;stroke-dasharray:.03,.03;stroke-dashoffset:0" transform="matrix(30 0 0 30 147.368 258.403)"/><path d="M-.22 0a.22.22 0 0 0 .11.19M-.28 0a.28.28 0 0 0 .14.242" style="fill:none;stroke:#08a4d9;stroke-width:.02" transform="matrix(30 0 0 30 147.368 258.403)"/><path d="M-.125-.217A.25.25 0 0 0-.25 0" style="fill:none;stroke:#e07c1f;stroke-width:.02;stroke-dasharray:.03,.03;stroke-dashoffset:0" transform="matrix(30 0 0 30 147.368 258.403)"/><path d="M.11-.19a.22.22 0 0 0-.22 0m.25-.052a.28.28 0 0 0-.28 0" style="fill:none;stroke:#08a4d9;stroke-width:.02" transform="matrix(30 0 0 30 147.368 258.403)"/><path d="M0 0h1M0 0l.5.866M0 0l-.5.866M0 0h-1m1 0-.5-.866M0 0l.5-.866" style="fill:none;stroke:rgba(255,255,255,.2);stroke-width:.01" transform="matrix(30 0 0 30 147.368 258.403)"/><circle r=".06" style="fill:#222;stroke:rgba(255,255,255,.2);stroke-width:.02" transform="matrix(30 0 0 30 147.368 258.403)"/><path d="M.5.866 0 0h1zm-1 0L0 0l.5.866zM-1 0h1l-.5.866zm.5-.866L0 0h-1zm1 0L0 0l-.5-.866z" style="fill:#000" transform="matrix(30 0 0 30 249.243 258.74)"/><path d="M.5.866 0 0h1zm0-1.732L0 0l.398-.348z" style="fill:#214068" transform="matrix(30 0 0 30 249.243 258.74)"/><path d="M.5-.866 0 0l-.5-.866zM1 0H0l.5-.171z" style="fill:#224935" transform="matrix(30 0 0 30 249.243 258.74)"/><path d="M.125.217A.25.25 0 0 0 .25 0M.125-.217a.25.25 0 0 0-.25 0" style="fill:none;stroke:#e07c1f;stroke-width:.02;stroke-dasharray:.03,.03;stroke-dashoffset:0" transform="matrix(30 0 0 30 249.243 258.74)"/><path d="M0 0h1M0 0l.5.866M0 0l-.5.866M0 0h-1m1 0-.5-.866M0 0l.5-.866" style="fill:none;stroke:rgba(255,255,255,.2);stroke-width:.01" transform="matrix(30 0 0 30 249.243 258.74)"/><circle r=".06" style="fill:#222;stroke:rgba(255,255,255,.2);stroke-width:.02" transform="matrix(30 0 0 30 249.243 258.74)"/><path d="M0 .5h13v3L20 0l-7-3.5v3H0z" style="fill:#ccc;stroke:#ccc" transform="translate(289.743 258.403)"/><path d="M.5.866 0 0h1zm-1 0L0 0l.5.866zM-1 0h1l-.5.866zm.5-.866L0 0h-1zm1 0L0 0l-.5-.866z" style="fill:#000" transform="matrix(30 0 0 30 350.861 258.74)"/><path d="M1 0H0l.5-.171zM.5-.866 0 0l.398-.348zm0 0L0 0l-.5-.866zM.5.866 0 0h1z" style="fill:#214068" transform="matrix(30 0 0 30 350.861 258.74)"/><path d="M0 0h1M0 0l.5.866M0 0l-.5.866M0 0h-1m1 0-.5-.866M0 0l.5-.866" style="fill:none;stroke:rgba(255,255,255,.2);stroke-width:.01" transform="matrix(30 0 0 30 350.861 258.74)"/><circle r=".06" style="fill:#222;stroke:rgba(255,255,255,.2);stroke-width:.02" transform="matrix(30 0 0 30 350.861 258.74)"/><path d="M0 0h1M0 0l.5-.866" style="fill:none;stroke:red;stroke-width:.05;stroke-linecap:round" transform="matrix(30 0 0 30 350.861 258.74)"/><path d="M.5.866 0 0h1zm-1 0L0 0l.5.866zM-1 0h1l-.5.866zm.5-.866L0 0h-1zm1 0L0 0l-.5-.866z" style="fill:#000" transform="matrix(30 0 0 30 453.861 258.065)"/><path d="M.5.866 0 0h1z" style="fill:#214068" transform="matrix(30 0 0 30 453.861 258.065)"/><path d="M-.5.866 0 0l.5.866zm0-1.732L0 0h-1z" style="fill:#224935" transform="matrix(30 0 0 30 453.861 258.065)"/><path d="M1 0H0l.5-.171zM.5-.866 0 0l.398-.348z" style="fill:#662a2c" transform="matrix(30 0 0 30 453.861 258.065)"/><path d="M.5-.866 0 0l-.5-.866z" style="fill:#09294c" transform="matrix(30 0 0 30 453.861 258.065)"/><path d="M.125.217A.25.25 0 0 0 .25 0" style="fill:none;stroke:#e07c1f;stroke-width:.02;stroke-dasharray:.03,.03;stroke-dashoffset:0" transform="matrix(30 0 0 30 453.861 258.065)"/><path d="M0 0h1M0 0l.5.866M0 0l-.5.866M0 0h-1m1 0-.5-.866M0 0l.5-.866" style="fill:none;stroke:rgba(255,255,255,.2);stroke-width:.01" transform="matrix(30 0 0 30 453.861 258.065)"/><circle r=".06" style="fill:#222;stroke:rgba(255,255,255,.2);stroke-width:.02" transform="matrix(30 0 0 30 453.861 258.065)"/><circle r=".12" style="fill:none;stroke:red;stroke-width:.03" transform="matrix(30 0 0 30 453.861 258.065)"/><path d="m0 0-.5.866M0 0h-1" style="fill:none;stroke:red;stroke-width:.05;stroke-linecap:round" transform="matrix(30 0 0 30 453.861 258.065)"/><path d="M0 .5h13v3L20 0l-7-3.5v3H0z" style="fill:#ccc;stroke:#ccc" transform="translate(494.361 258.403)"/><path d="M.5.866 0 0h1zm-1 0L0 0l.5.866zM-1 0h1l-.5.866zm.5-.866L0 0h-1zm1 0L0 0l-.5-.866z" style="fill:#000" transform="matrix(30 0 0 30 556.23 258.065)"/><path d="M.5.866 0 0h1z" style="fill:#214068" transform="matrix(30 0 0 30 556.23 258.065)"/><path d="M-.5.866 0 0l.5.866zm0-1.732L0 0h-1z" style="fill:#224935" transform="matrix(30 0 0 30 556.23 258.065)"/><path d="M1 0H0l.5-.171zM.5-.866 0 0l.398-.348z" style="fill:#662a2c" transform="matrix(30 0 0 30 556.23 258.065)"/><path d="M.5-.866 0 0l-.5-.866z" style="fill:#09294c" transform="matrix(30 0 0 30 556.23 258.065)"/><path d="M.125.217A.25.25 0 0 0 .25 0" style="fill:none;stroke:#e07c1f;stroke-width:.02;stroke-dasharray:.03,.03;stroke-dashoffset:0" transform="matrix(30 0 0 30 556.23 258.065)"/><path d="M.11-.19a.22.22 0 0 0-.22 0m.25-.052a.28.28 0 0 0-.28 0" style="fill:none;stroke:#2a892a;stroke-width:.02;stroke-dasharray:.03,.03;stroke-dashoffset:0" transform="matrix(30 0 0 30 556.23 258.065)"/><path d="M0 0h1M0 0l.5.866M0 0l-.5.866M0 0h-1m1 0-.5-.866M0 0l.5-.866" style="fill:none;stroke:rgba(255,255,255,.2);stroke-width:.01" transform="matrix(30 0 0 30 556.23 258.065)"/><circle r=".06" style="fill:#222;stroke:rgba(255,255,255,.2);stroke-width:.02" transform="matrix(30 0 0 30 556.23 258.065)"/><circle r=".12" style="fill:none;stroke:red;stroke-width:.03" transform="matrix(30 0 0 30 556.23 258.065)"/><path d="m0 0-.5.866M0 0h-1" style="fill:none;stroke:red;stroke-width:.05;stroke-linecap:round" transform="matrix(30 0 0 30 556.23 258.065)"/><path d="M.5.866 0 0h1zm-1 0L0 0l.5.866zM-1 0h1l-.5.866zm.5-.866L0 0h-1zm1 0L0 0l-.5-.866z" style="fill:#000" transform="matrix(30 0 0 30 45.75 330.852)"/><path d="M1 0H0l.5-.171zM.5-.866 0 0l.398-.348z" style="fill:#214068" transform="matrix(30 0 0 30 45.75 330.852)"/><path d="M.125.217A.25.25 0 0 0 .25 0m-.375.217a.25.25 0 0 0 .25 0" style="fill:none;stroke:#e07c1f;stroke-width:.02;stroke-dasharray:.03,.03;stroke-dashoffset:0" transform="matrix(30 0 0 30 45.75 330.852)"/><path d="M-.11-.19A.22.22 0 0 0-.22 0m.08-.242A.28.28 0 0 0-.28 0" style="fill:none;stroke:#2a892a;stroke-width:.02;stroke-dasharray:.03,.03;stroke-dashoffset:0" transform="matrix(30 0 0 30 45.75 330.852)"/><path d="M0 0h1M0 0l.5.866M0 0l-.5.866M0 0h-1m1 0-.5-.866M0 0l.5-.866" style="fill:none;stroke:rgba(255,255,255,.2);stroke-width:.01" transform="matrix(30 0 0 30 45.75 330.852)"/><circle r=".06" style="fill:#222;stroke:rgba(255,255,255,.2);stroke-width:.02" transform="matrix(30 0 0 30 45.75 330.852)"/><path d="M0 .5h13v3L20 0l-7-3.5v3H0z" style="fill:#ccc;stroke:#ccc" transform="translate(86.25 330.852)"/><path d="M.5.866 0 0h1zm-1 0L0 0l.5.866zM-1 0h1l-.5.866zm.5-.866L0 0h-1zm1 0L0 0l-.5-.866z" style="fill:#000" transform="matrix(30 0 0 30 147.368 330.852)"/><path d="M1 0H0l.5-.171zM.5-.866 0 0l.398-.348z" style="fill:#214068" transform="matrix(30 0 0 30 147.368 330.852)"/><path d="M.125.217A.25.25 0 0 0 .25 0m-.375.217a.25.25 0 0 0 .25 0" style="fill:none;stroke:#e07c1f;stroke-width:.02;stroke-dasharray:.03,.03;stroke-dashoffset:0" transform="matrix(30 0 0 30 147.368 330.852)"/><path d="M-.11-.19A.22.22 0 0 0-.22 0m.08-.242A.28.28 0 0 0-.28 0" style="fill:none;stroke:#2a892a;stroke-width:.02;stroke-dasharray:.03,.03;stroke-dashoffset:0" transform="matrix(30 0 0 30 147.368 330.852)"/><path d="M0 0h1M0 0l.5.866M0 0l-.5.866M0 0h-1m1 0-.5-.866M0 0l.5-.866" style="fill:none;stroke:rgba(255,255,255,.2);stroke-width:.01" transform="matrix(30 0 0 30 147.368 330.852)"/><circle r=".06" style="fill:#222;stroke:rgba(255,255,255,.2);stroke-width:.02" transform="matrix(30 0 0 30 147.368 330.852)"/><circle r=".12" style="fill:none;stroke:red;stroke-width:.03" transform="matrix(30 0 0 30 147.368 330.852)"/><path d="M.5.866 0 0h1zm-1 0L0 0l.5.866zM-1 0h1l-.5.866zm.5-.866L0 0h-1zm1 0L0 0l-.5-.866z" style="fill:#000" transform="matrix(30 0 0 30 249.618 330.852)"/><path d="M1 0H0l.5-.171zM.5-.866 0 0l.398-.348z" style="fill:#214068" transform="matrix(30 0 0 30 249.618 330.852)"/><path d="M.125.217A.25.25 0 0 0 .25 0" style="fill:none;stroke:#e07c1f;stroke-width:.02;stroke-dasharray:.03,.03;stroke-dashoffset:0" transform="matrix(30 0 0 30 249.618 330.852)"/><path d="M-.22 0a.22.22 0 0 0 .11.19M-.28 0a.28.28 0 0 0 .14.242" style="fill:none;stroke:#2a892a;stroke-width:.02;stroke-dasharray:.03,.03;stroke-dashoffset:0" transform="matrix(30 0 0 30 249.618 330.852)"/><path d="M.125-.217a.25.25 0 0 0-.25 0" style="fill:none;stroke:#e07c1f;stroke-width:.02;stroke-dasharray:.03,.03;stroke-dashoffset:0" transform="matrix(30 0 0 30 249.618 330.852)"/><path d="M0 0h1M0 0l.5.866M0 0l-.5.866M0 0h-1m1 0-.5-.866M0 0l.5-.866" style="fill:none;stroke:rgba(255,255,255,.2);stroke-width:.01" transform="matrix(30 0 0 30 249.618 330.852)"/><circle r=".06" style="fill:#222;stroke:rgba(255,255,255,.2);stroke-width:.02" transform="matrix(30 0 0 30 249.618 330.852)"/><path d="M0 .5h13v3L20 0l-7-3.5v3H0z" style="fill:#ccc;stroke:#ccc" transform="translate(290.118 330.852)"/><path d="M.5.866 0 0h1zm-1 0L0 0l.5.866zM-1 0h1l-.5.866zm.5-.866L0 0h-1zm1 0L0 0l-.5-.866z" style="fill:#000" transform="matrix(30 0 0 30 351.236 330.852)"/><path d="M1 0H0l.5-.171zM.5-.866 0 0l.398-.348z" style="fill:#214068" transform="matrix(30 0 0 30 351.236 330.852)"/><path d="M.125.217A.25.25 0 0 0 .25 0" style="fill:none;stroke:#e07c1f;stroke-width:.02;stroke-dasharray:.03,.03;stroke-dashoffset:0" transform="matrix(30 0 0 30 351.236 330.852)"/><path d="M-.22 0a.22.22 0 0 0 .11.19M-.28 0a.28.28 0 0 0 .14.242" style="fill:none;stroke:#2a892a;stroke-width:.02;stroke-dasharray:.03,.03;stroke-dashoffset:0" transform="matrix(30 0 0 30 351.236 330.852)"/><path d="M.125-.217a.25.25 0 0 0-.25 0" style="fill:none;stroke:#e07c1f;stroke-width:.02;stroke-dasharray:.03,.03;stroke-dashoffset:0" transform="matrix(30 0 0 30 351.236 330.852)"/><path d="M0 0h1M0 0l.5.866M0 0l-.5.866M0 0h-1m1 0-.5-.866M0 0l.5-.866" style="fill:none;stroke:rgba(255,255,255,.2);stroke-width:.01" transform="matrix(30 0 0 30 351.236 330.852)"/><circle r=".06" style="fill:#222;stroke:rgba(255,255,255,.2);stroke-width:.02" transform="matrix(30 0 0 30 351.236 330.852)"/><circle r=".12" style="fill:none;stroke:red;stroke-width:.03" transform="matrix(30 0 0 30 351.236 330.852)"/><path d="M.5.866 0 0h1zm-1 0L0 0l.5.866zM-1 0h1l-.5.866zm.5-.866L0 0h-1zm1 0L0 0l-.5-.866z" style="fill:#000" transform="matrix(30 0 0 30 453.861 330.852)"/><path d="M.5.866 0 0h1z" style="fill:#214068" transform="matrix(30 0 0 30 453.861 330.852)"/><path d="M1 0H0l.5-.171zM.5-.866 0 0l.398-.348z" style="fill:#224935" transform="matrix(30 0 0 30 453.861 330.852)"/><path d="M-.5-.866 0 0h-1z" style="fill:#09294c" transform="matrix(30 0 0 30 453.861 330.852)"/><path d="M-.125.217a.25.25 0 0 0 .25 0M-.25 0a.25.25 0 0 0 .125.217m.25-.434a.25.25 0 0 0-.25 0" style="fill:none;stroke:#e07c1f;stroke-width:.02;stroke-dasharray:.03,.03;stroke-dashoffset:0" transform="matrix(30 0 0 30 453.861 330.852)"/><path d="M0 0h1M0 0l.5.866M0 0l-.5.866M0 0h-1m1 0-.5-.866M0 0l.5-.866" style="fill:none;stroke:rgba(255,255,255,.2);stroke-width:.01" transform="matrix(30 0 0 30 453.861 330.852)"/><circle r=".06" style="fill:#222;stroke:rgba(255,255,255,.2);stroke-width:.02" transform="matrix(30 0 0 30 453.861 330.852)"/><path d="M0 .5h13v3L20 0l-7-3.5v3H0z" style="fill:#ccc;stroke:#ccc" transform="translate(494.361 330.852)"/><path d="M.5.866 0 0h1zm-1 0L0 0l.5.866zM-1 0h1l-.5.866zm.5-.866L0 0h-1zm1 0L0 0l-.5-.866z" style="fill:#000" transform="matrix(30 0 0 30 555.48 330.852)"/><path d="M.5.866 0 0h1z" style="fill:#214068" transform="matrix(30 0 0 30 555.48 330.852)"/><path d="M1 0H0l.5-.171zM.5-.866 0 0l.398-.348z" style="fill:#224935" transform="matrix(30 0 0 30 555.48 330.852)"/><path d="M-.5-.866 0 0h-1z" style="fill:#09294c" transform="matrix(30 0 0 30 555.48 330.852)"/><path d="M-.125.217a.25.25 0 0 0 .25 0M-.25 0a.25.25 0 0 0 .125.217m.25-.434a.25.25 0 0 0-.25 0" style="fill:none;stroke:#e07c1f;stroke-width:.02;stroke-dasharray:.03,.03;stroke-dashoffset:0" transform="matrix(30 0 0 30 555.48 330.852)"/><path d="M0 0h1M0 0l.5.866M0 0l-.5.866M0 0h-1m1 0-.5-.866M0 0l.5-.866" style="fill:none;stroke:rgba(255,255,255,.2);stroke-width:.01" transform="matrix(30 0 0 30 555.48 330.852)"/><circle r=".06" style="fill:#222;stroke:rgba(255,255,255,.2);stroke-width:.02" transform="matrix(30 0 0 30 555.48 330.852)"/><circle r=".12" style="fill:none;stroke:red;stroke-width:.03" transform="matrix(30 0 0 30 555.48 330.852)"/><path d="M.5.866 0 0h1zm-1 0L0 0l.5.866zM-1 0h1l-.5.866zm.5-.866L0 0h-1zm1 0L0 0l-.5-.866z" style="fill:#000" transform="matrix(30 0 0 30 45.75 403.3)"/><path d="M.5.866 0 0h1z" style="fill:#214068" transform="matrix(30 0 0 30 45.75 403.3)"/><path d="M1 0H0l.5-.171zM.5-.866 0 0l.398-.348z" style="fill:#224935" transform="matrix(30 0 0 30 45.75 403.3)"/><path d="M.5-.866 0 0l-.5-.866z" style="fill:#09294c" transform="matrix(30 0 0 30 45.75 403.3)"/><path d="M-.125.217a.25.25 0 0 0 .25 0M-.25 0a.25.25 0 0 0 .125.217m0-.434A.25.25 0 0 0-.25 0" style="fill:none;stroke:#e07c1f;stroke-width:.02;stroke-dasharray:.03,.03;stroke-dashoffset:0" transform="matrix(30 0 0 30 45.75 403.3)"/><path d="M0 0h1M0 0l.5.866M0 0l-.5.866M0 0h-1m1 0-.5-.866M0 0l.5-.866" style="fill:none;stroke:rgba(255,255,255,.2);stroke-width:.01" transform="matrix(30 0 0 30 45.75 403.3)"/><circle r=".06" style="fill:#222;stroke:rgba(255,255,255,.2);stroke-width:.02" transform="matrix(30 0 0 30 45.75 403.3)"/><path d="M0 .5h13v3L20 0l-7-3.5v3H0z" style="fill:#ccc;stroke:#ccc" transform="translate(86.25 403.3)"/><path d="M.5.866 0 0h1zm-1 0L0 0l.5.866zM-1 0h1l-.5.866zm.5-.866L0 0h-1zm1 0L0 0l-.5-.866z" style="fill:#000" transform="matrix(30 0 0 30 147.368 403.3)"/><path d="M.5.866 0 0h1z" style="fill:#214068" transform="matrix(30 0 0 30 147.368 403.3)"/><path d="M1 0H0l.5-.171zM.5-.866 0 0l.398-.348z" style="fill:#224935" transform="matrix(30 0 0 30 147.368 403.3)"/><path d="M.5-.866 0 0l-.5-.866z" style="fill:#09294c" transform="matrix(30 0 0 30 147.368 403.3)"/><path d="M-.125.217a.25.25 0 0 0 .25 0M-.25 0a.25.25 0 0 0 .125.217m0-.434A.25.25 0 0 0-.25 0" style="fill:none;stroke:#e07c1f;stroke-width:.02;stroke-dasharray:.03,.03;stroke-dashoffset:0" transform="matrix(30 0 0 30 147.368 403.3)"/><path d="M0 0h1M0 0l.5.866M0 0l-.5.866M0 0h-1m1 0-.5-.866M0 0l.5-.866" style="fill:none;stroke:rgba(255,255,255,.2);stroke-width:.01" transform="matrix(30 0 0 30 147.368 403.3)"/><circle r=".06" style="fill:#222;stroke:rgba(255,255,255,.2);stroke-width:.02" transform="matrix(30 0 0 30 147.368 403.3)"/><circle r=".12" style="fill:none;stroke:red;stroke-width:.03" transform="matrix(30 0 0 30 147.368 403.3)"/><path d="M.5.866 0 0h1zm-1 0L0 0l.5.866zM-1 0h1l-.5.866zm.5-.866L0 0h-1zm1 0L0 0l-.5-.866z" style="fill:#000" transform="matrix(30 0 0 30 249.243 402.963)"/><path d="M.5.866 0 0h1zm-1-1.732L0 0h-1z" style="fill:#214068" transform="matrix(30 0 0 30 249.243 402.963)"/><path d="M1 0H0l.5-.171z" style="fill:#224935" transform="matrix(30 0 0 30 249.243 402.963)"/><path d="M.5-.866 0 0l.398-.348z" style="fill:#0d301f" transform="matrix(30 0 0 30 249.243 402.963)"/><path d="M.125.217A.25.25 0 0 0 .25 0m-.375-.217A.25.25 0 0 0-.25 0m.375-.217a.25.25 0 0 0-.25 0" style="fill:none;stroke:#e07c1f;stroke-width:.02;stroke-dasharray:.03,.03;stroke-dashoffset:0" transform="matrix(30 0 0 30 249.243 402.963)"/><path d="M0 0h1M0 0l.5.866M0 0l-.5.866M0 0h-1m1 0-.5-.866M0 0l.5-.866" style="fill:none;stroke:rgba(255,255,255,.2);stroke-width:.01" transform="matrix(30 0 0 30 249.243 402.963)"/><circle r=".06" style="fill:#222;stroke:rgba(255,255,255,.2);stroke-width:.02" transform="matrix(30 0 0 30 249.243 402.963)"/><path d="m0 0-.5.866" style="fill:none;stroke:red;stroke-width:.05;stroke-linecap:round" transform="matrix(30 0 0 30 249.243 402.963)"/><path d="M0 .5h13v3L20 0l-7-3.5v3H0z" style="fill:#ccc;stroke:#ccc" transform="translate(289.743 403.3)"/><path d="M.5.866 0 0h1zm-1 0L0 0l.5.866zM-1 0h1l-.5.866zm.5-.866L0 0h-1zm1 0L0 0l-.5-.866z" style="fill:#000" transform="matrix(30 0 0 30 351.611 402.963)"/><path d="M-.5.866 0 0l.5.866zm0-1.732L0 0h-1zM.5.866 0 0h1zM-1 0h1l-.5.866z" style="fill:#214068" transform="matrix(30 0 0 30 351.611 402.963)"/><path d="M1 0H0l.5-.171z" style="fill:#224935" transform="matrix(30 0 0 30 351.611 402.963)"/><path d="M.5-.866 0 0l.398-.348z" style="fill:#0d301f" transform="matrix(30 0 0 30 351.611 402.963)"/><path d="M.125-.217a.25.25 0 0 0-.25 0" style="fill:none;stroke:#e07c1f;stroke-width:.02;stroke-dasharray:.03,.03;stroke-dashoffset:0" transform="matrix(30 0 0 30 351.611 402.963)"/><path d="M0 0h1M0 0l.5.866M0 0l-.5.866M0 0h-1m1 0-.5-.866M0 0l.5-.866" style="fill:none;stroke:rgba(255,255,255,.2);stroke-width:.01" transform="matrix(30 0 0 30 351.611 402.963)"/><circle r=".06" style="fill:#222;stroke:rgba(255,255,255,.2);stroke-width:.02" transform="matrix(30 0 0 30 351.611 402.963)"/><path d="m0 0 .5.866M0 0l-.5.866M0 0h-1" style="fill:none;stroke:red;stroke-width:.05;stroke-linecap:round" transform="matrix(30 0 0 30 351.611 402.963)"/><path d="M.5.866 0 0h1zm-1 0L0 0l.5.866zM-1 0h1l-.5.866zm.5-.866L0 0h-1zm1 0L0 0l-.5-.866z" style="fill:#000" transform="matrix(30 0 0 30 453.486 403.3)"/><path d="M.5.866 0 0h1z" style="fill:#214068" transform="matrix(30 0 0 30 453.486 403.3)"/><path d="M-.5.866 0 0l.5.866zm1-1.732L0 0l.398-.348z" style="fill:#224935" transform="matrix(30 0 0 30 453.486 403.3)"/><path d="M-1 0h1l-.5.866z" style="fill:#09294c" transform="matrix(30 0 0 30 453.486 403.3)"/><path d="M.125.217A.25.25 0 0 0 .25 0" style="fill:none;stroke:#e07c1f;stroke-width:.02;stroke-dasharray:.03,.03;stroke-dashoffset:0" transform="matrix(30 0 0 30 453.486 403.3)"/><path d="M-.125.217a.25.25 0 0 0 .25 0" style="fill:none;stroke:red;stroke-width:.02" transform="matrix(30 0 0 30 453.486 403.3)"/><path d="M-.125-.217A.25.25 0 0 0-.25 0m.375-.217a.25.25 0 0 0-.25 0" style="fill:none;stroke:#e07c1f;stroke-width:.02;stroke-dasharray:.03,.03;stroke-dashoffset:0" transform="matrix(30 0 0 30 453.486 403.3)"/><path d="M0 0h1M0 0l.5.866M0 0l-.5.866M0 0h-1m1 0-.5-.866M0 0l.5-.866" style="fill:none;stroke:rgba(255,255,255,.2);stroke-width:.01" transform="matrix(30 0 0 30 453.486 403.3)"/><circle r=".06" style="fill:#222;stroke:rgba(255,255,255,.2);stroke-width:.02" transform="matrix(30 0 0 30 453.486 403.3)"/><path d="M0 .5h13v3L20 0l-7-3.5v3H0z" style="fill:#ccc;stroke:#ccc" transform="translate(493.986 403.3)"/><path d="M.5.866 0 0h1zm-1 0L0 0l.5.866zM-1 0h1l-.5.866zm.5-.866L0 0h-1zm1 0L0 0l-.5-.866z" style="fill:#000" transform="matrix(30 0 0 30 555.104 403.3)"/><path d="M-.5.866 0 0l.5.866zm1-1.732L0 0l.398-.348z" style="fill:#214068" transform="matrix(30 0 0 30 555.104 403.3)"/><path d="M-1 0h1l-.5.866z" style="fill:#224935" transform="matrix(30 0 0 30 555.104 403.3)"/><path d="M1 0H0l.5-.171zM.5.866 0 0h1z" style="fill:#0d301f" transform="matrix(30 0 0 30 555.104 403.3)"/><path d="M-.125.217a.25.25 0 0 0 .25 0" style="fill:none;stroke:red;stroke-width:.02" transform="matrix(30 0 0 30 555.104 403.3)"/><path d="M-.125-.217A.25.25 0 0 0-.25 0m.375-.217a.25.25 0 0 0-.25 0" style="fill:none;stroke:#e07c1f;stroke-width:.02;stroke-dasharray:.03,.03;stroke-dashoffset:0" transform="matrix(30 0 0 30 555.104 403.3)"/><path d="M0 0h1M0 0l.5.866M0 0l-.5.866M0 0h-1m1 0-.5-.866M0 0l.5-.866" style="fill:none;stroke:rgba(255,255,255,.2);stroke-width:.01" transform="matrix(30 0 0 30 555.104 403.3)"/><circle r=".06" style="fill:#222;stroke:rgba(255,255,255,.2);stroke-width:.02" transform="matrix(30 0 0 30 555.104 403.3)"/><path d="M0 0h1" style="fill:none;stroke:red;stroke-width:.05;stroke-linecap:round" transform="matrix(30 0 0 30 555.104 403.3)"/><path d="M.5.866 0 0h1zm-1 0L0 0l.5.866zM-1 0h1l-.5.866zm.5-.866L0 0h-1zm1 0L0 0l-.5-.866z" style="fill:#000" transform="matrix(30 0 0 30 45.75 475.75)"/><path d="M1 0H0l.5-.171zM.5-.866 0 0l.398-.348z" style="fill:#214068" transform="matrix(30 0 0 30 45.75 475.75)"/><path d="M.125.217A.25.25 0 0 0 .25 0m-.375.217a.25.25 0 0 0 .25 0M-.25 0a.25.25 0 0 0 .125.217" style="fill:none;stroke:#e07c1f;stroke-width:.02;stroke-dasharray:.03,.03;stroke-dashoffset:0" transform="matrix(30 0 0 30 45.75 475.75)"/><path d="M.11-.19a.22.22 0 0 0-.22 0m.25-.052a.28.28 0 0 0-.28 0" style="fill:none;stroke:#2a892a;stroke-width:.02;stroke-dasharray:.03,.03;stroke-dashoffset:0" transform="matrix(30 0 0 30 45.75 475.75)"/><path d="M0 0h1M0 0l.5.866M0 0l-.5.866M0 0h-1m1 0-.5-.866M0 0l.5-.866" style="fill:none;stroke:rgba(255,255,255,.2);stroke-width:.01" transform="matrix(30 0 0 30 45.75 475.75)"/><circle r=".06" style="fill:#222;stroke:rgba(255,255,255,.2);stroke-width:.02" transform="matrix(30 0 0 30 45.75 475.75)"/><path d="M0 .5h13v3L20 0l-7-3.5v3H0z" style="fill:#ccc;stroke:#ccc" transform="translate(86.25 475.75)"/><path d="M.5.866 0 0h1zm-1 0L0 0l.5.866zM-1 0h1l-.5.866zm.5-.866L0 0h-1zm1 0L0 0l-.5-.866z" style="fill:#000" transform="matrix(30 0 0 30 147.368 475.75)"/><path d="M1 0H0l.5-.171zM.5-.866 0 0l.398-.348z" style="fill:#214068" transform="matrix(30 0 0 30 147.368 475.75)"/><path d="M.125.217A.25.25 0 0 0 .25 0m-.375.217a.25.25 0 0 0 .25 0M-.25 0a.25.25 0 0 0 .125.217" style="fill:none;stroke:#e07c1f;stroke-width:.02;stroke-dasharray:.03,.03;stroke-dashoffset:0" transform="matrix(30 0 0 30 147.368 475.75)"/><path d="M.11-.19a.22.22 0 0 0-.22 0m.25-.052a.28.28 0 0 0-.28 0" style="fill:none;stroke:#2a892a;stroke-width:.02;stroke-dasharray:.03,.03;stroke-dashoffset:0" transform="matrix(30 0 0 30 147.368 475.75)"/><path d="M0 0h1M0 0l.5.866M0 0l-.5.866M0 0h-1m1 0-.5-.866M0 0l.5-.866" style="fill:none;stroke:rgba(255,255,255,.2);stroke-width:.01" transform="matrix(30 0 0 30 147.368 475.75)"/><circle r=".06" style="fill:#222;stroke:rgba(255,255,255,.2);stroke-width:.02" transform="matrix(30 0 0 30 147.368 475.75)"/><circle r=".12" style="fill:none;stroke:red;stroke-width:.03" transform="matrix(30 0 0 30 147.368 475.75)"/><path d="M.5.866 0 0h1zm-1 0L0 0l.5.866zM-1 0h1l-.5.866zm.5-.866L0 0h-1zm1 0L0 0l-.5-.866z" style="fill:#000" transform="matrix(30 0 0 30 248.118 475.75)"/><path d="M.5.866 0 0h1z" style="fill:#214068" transform="matrix(30 0 0 30 248.118 475.75)"/><path d="M.5-.866 0 0l.398-.348z" style="fill:#09294c" transform="matrix(30 0 0 30 248.118 475.75)"/><path d="M-.125.217a.25.25 0 0 0 .25 0M-.25 0a.25.25 0 0 0 .125.217m0-.434A.25.25 0 0 0-.25 0m.375-.217a.25.25 0 0 0-.25 0" style="fill:none;stroke:#e07c1f;stroke-width:.02;stroke-dasharray:.03,.03;stroke-dashoffset:0" transform="matrix(30 0 0 30 248.118 475.75)"/><path d="M0 0h1M0 0l.5.866M0 0l-.5.866M0 0h-1m1 0-.5-.866M0 0l.5-.866" style="fill:none;stroke:rgba(255,255,255,.2);stroke-width:.01" transform="matrix(30 0 0 30 248.118 475.75)"/><circle r=".06" style="fill:#222;stroke:rgba(255,255,255,.2);stroke-width:.02" transform="matrix(30 0 0 30 248.118 475.75)"/><path d="M0 0h1" style="fill:none;stroke:#fff;stroke-width:.1;stroke-linecap:round" transform="matrix(30 0 0 30 248.118 475.75)"/><path d="M0 .5h13v3L20 0l-7-3.5v3H0z" style="fill:#ccc;stroke:#ccc" transform="translate(290.118 475.75)"/><path d="M.5.866 0 0h1zm-1 0L0 0l.5.866zM-1 0h1l-.5.866zm.5-.866L0 0h-1zm1 0L0 0l-.5-.866z" style="fill:#000" transform="matrix(30 0 0 30 351.236 475.75)"/><path d="M1 0H0l.5-.171zM.5-.866 0 0l.398-.348z" style="fill:#214068" transform="matrix(30 0 0 30 351.236 475.75)"/><path d="M.5.866 0 0h1z" style="fill:#09294c" transform="matrix(30 0 0 30 351.236 475.75)"/><path d="M-.125.217a.25.25 0 0 0 .25 0M-.25 0a.25.25 0 0 0 .125.217m0-.434A.25.25 0 0 0-.25 0m.375-.217a.25.25 0 0 0-.25 0" style="fill:none;stroke:#e07c1f;stroke-width:.02;stroke-dasharray:.03,.03;stroke-dashoffset:0" transform="matrix(30 0 0 30 351.236 475.75)"/><path d="M0 0h1M0 0l.5.866M0 0l-.5.866M0 0h-1m1 0-.5-.866M0 0l.5-.866" style="fill:none;stroke:rgba(255,255,255,.2);stroke-width:.01" transform="matrix(30 0 0 30 351.236 475.75)"/><circle r=".06" style="fill:#222;stroke:rgba(255,255,255,.2);stroke-width:.02" transform="matrix(30 0 0 30 351.236 475.75)"/><circle r=".12" style="fill:none;stroke:red;stroke-width:.03" transform="matrix(30 0 0 30 351.236 475.75)"/><path d="M0 0h1" style="fill:none;stroke:#fff;stroke-width:.1;stroke-linecap:round" transform="matrix(30 0 0 30 351.236 475.75)"/><path d="M.5.866 0 0h1zm-1 0L0 0l.5.866zM-1 0h1l-.5.866zm.5-.866L0 0h-1zm1 0L0 0l-.5-.866z" style="fill:#000" transform="matrix(30 0 0 30 453.486 475.75)"/><path d="M.5.866 0 0h1z" style="fill:#214068" transform="matrix(30 0 0 30 453.486 475.75)"/><path d="M-.5.866 0 0l.5.866zm1-1.732L0 0l.398-.348z" style="fill:#224935" transform="matrix(30 0 0 30 453.486 475.75)"/><path d="M-.5-.866 0 0h-1z" style="fill:#09294c" transform="matrix(30 0 0 30 453.486 475.75)"/><path d="M.125.217A.25.25 0 0 0 .25 0m-.375.217a.25.25 0 0 0 .25 0M-.25 0a.25.25 0 0 0 .125.217m.25-.434a.25.25 0 0 0-.25 0" style="fill:none;stroke:#e07c1f;stroke-width:.02;stroke-dasharray:.03,.03;stroke-dashoffset:0" transform="matrix(30 0 0 30 453.486 475.75)"/><path d="M0 0h1M0 0l.5.866M0 0l-.5.866M0 0h-1m1 0-.5-.866M0 0l.5-.866" style="fill:none;stroke:rgba(255,255,255,.2);stroke-width:.01" transform="matrix(30 0 0 30 453.486 475.75)"/><circle r=".06" style="fill:#222;stroke:rgba(255,255,255,.2);stroke-width:.02" transform="matrix(30 0 0 30 453.486 475.75)"/><path d="M0 .5h13v3L20 0l-7-3.5v3H0z" style="fill:#ccc;stroke:#ccc" transform="translate(493.986 475.75)"/><path d="M.5.866 0 0h1zm-1 0L0 0l.5.866zM-1 0h1l-.5.866zm.5-.866L0 0h-1zm1 0L0 0l-.5-.866z" style="fill:#000" transform="matrix(30 0 0 30 555.104 475.75)"/><path d="M-.5.866 0 0l.5.866zm1-1.732L0 0l.398-.348z" style="fill:#214068" transform="matrix(30 0 0 30 555.104 475.75)"/><path d="M-.5-.866 0 0h-1z" style="fill:#224935" transform="matrix(30 0 0 30 555.104 475.75)"/><path d="M1 0H0l.5-.171zM.5.866 0 0h1z" style="fill:#0d301f" transform="matrix(30 0 0 30 555.104 475.75)"/><path d="M-.125.217a.25.25 0 0 0 .25 0M-.25 0a.25.25 0 0 0 .125.217m.25-.434a.25.25 0 0 0-.25 0" style="fill:none;stroke:#e07c1f;stroke-width:.02;stroke-dasharray:.03,.03;stroke-dashoffset:0" transform="matrix(30 0 0 30 555.104 475.75)"/><path d="M0 0h1M0 0l.5.866M0 0l-.5.866M0 0h-1m1 0-.5-.866M0 0l.5-.866" style="fill:none;stroke:rgba(255,255,255,.2);stroke-width:.01" transform="matrix(30 0 0 30 555.104 475.75)"/><circle r=".06" style="fill:#222;stroke:rgba(255,255,255,.2);stroke-width:.02" transform="matrix(30 0 0 30 555.104 475.75)"/><path d="M0 0h1" style="fill:none;stroke:red;stroke-width:.05;stroke-linecap:round" transform="matrix(30 0 0 30 555.104 475.75)"/><path d="M.5.866 0 0h1zm-1 0L0 0l.5.866zM-1 0h1l-.5.866zm.5-.866L0 0h-1zm1 0L0 0l-.5-.866z" style="fill:#000" transform="matrix(30 0 0 30 45.375 547.861)"/><path d="M.5.866 0 0h1z" style="fill:#214068" transform="matrix(30 0 0 30 45.375 547.861)"/><path d="M-.5.866 0 0l.5.866zm1-1.732L0 0l.398-.348z" style="fill:#224935" transform="matrix(30 0 0 30 45.375 547.861)"/><path d="M.5-.866 0 0l-.5-.866z" style="fill:#09294c" transform="matrix(30 0 0 30 45.375 547.861)"/><path d="M.125.217A.25.25 0 0 0 .25 0m-.375.217a.25.25 0 0 0 .25 0M-.25 0a.25.25 0 0 0 .125.217m0-.434A.25.25 0 0 0-.25 0" style="fill:none;stroke:#e07c1f;stroke-width:.02;stroke-dasharray:.03,.03;stroke-dashoffset:0" transform="matrix(30 0 0 30 45.375 547.861)"/><path d="M0 0h1M0 0l.5.866M0 0l-.5.866M0 0h-1m1 0-.5-.866M0 0l.5-.866" style="fill:none;stroke:rgba(255,255,255,.2);stroke-width:.01" transform="matrix(30 0 0 30 45.375 547.861)"/><circle r=".06" style="fill:#222;stroke:rgba(255,255,255,.2);stroke-width:.02" transform="matrix(30 0 0 30 45.375 547.861)"/><path d="M0 .5h13v3L20 0l-7-3.5v3H0z" style="fill:#ccc;stroke:#ccc" transform="translate(85.875 547.861)"/><path d="M.5.866 0 0h1zm-1 0L0 0l.5.866zM-1 0h1l-.5.866zm.5-.866L0 0h-1zm1 0L0 0l-.5-.866z" style="fill:#000" transform="matrix(30 0 0 30 146.993 547.861)"/><path d="M-.5.866 0 0l.5.866zm1-1.732L0 0l.398-.348z" style="fill:#214068" transform="matrix(30 0 0 30 146.993 547.861)"/><path d="M.5-.866 0 0l-.5-.866z" style="fill:#224935" transform="matrix(30 0 0 30 146.993 547.861)"/><path d="M1 0H0l.5-.171zM.5.866 0 0h1z" style="fill:#0d301f" transform="matrix(30 0 0 30 146.993 547.861)"/><path d="M-.125.217a.25.25 0 0 0 .25 0M-.25 0a.25.25 0 0 0 .125.217m0-.434A.25.25 0 0 0-.25 0" style="fill:none;stroke:#e07c1f;stroke-width:.02;stroke-dasharray:.03,.03;stroke-dashoffset:0" transform="matrix(30 0 0 30 146.993 547.861)"/><path d="M0 0h1M0 0l.5.866M0 0l-.5.866M0 0h-1m1 0-.5-.866M0 0l.5-.866" style="fill:none;stroke:rgba(255,255,255,.2);stroke-width:.01" transform="matrix(30 0 0 30 146.993 547.861)"/><circle r=".06" style="fill:#222;stroke:rgba(255,255,255,.2);stroke-width:.02" transform="matrix(30 0 0 30 146.993 547.861)"/><path d="M0 0h1" style="fill:none;stroke:red;stroke-width:.05;stroke-linecap:round" transform="matrix(30 0 0 30 146.993 547.861)"/><path d="M.5.866 0 0h1zm-1 0L0 0l.5.866zM-1 0h1l-.5.866zm.5-.866L0 0h-1zm1 0L0 0l-.5-.866z" style="fill:#000" transform="matrix(30 0 0 30 248.868 547.861)"/><path d="M1 0H0l.5-.171zM.5-.866 0 0l.398-.348z" style="fill:#214068" transform="matrix(30 0 0 30 248.868 547.861)"/><path d="M.5.866 0 0h1z" style="fill:#09294c" transform="matrix(30 0 0 30 248.868 547.861)"/><path d="M-.125.217a.25.25 0 0 0 .25 0M-.25 0a.25.25 0 0 0 .125.217m0-.434A.25.25 0 0 0-.25 0m.375-.217a.25.25 0 0 0-.25 0" style="fill:none;stroke:#e07c1f;stroke-width:.02;stroke-dasharray:.03,.03;stroke-dashoffset:0" transform="matrix(30 0 0 30 248.868 547.861)"/><path d="M0 0h1M0 0l.5.866M0 0l-.5.866M0 0h-1m1 0-.5-.866M0 0l.5-.866" style="fill:none;stroke:rgba(255,255,255,.2);stroke-width:.01" transform="matrix(30 0 0 30 248.868 547.861)"/><circle r=".06" style="fill:#222;stroke:rgba(255,255,255,.2);stroke-width:.02" transform="matrix(30 0 0 30 248.868 547.861)"/><path d="M0 .5h13v3L20 0l-7-3.5v3H0z" style="fill:#ccc;stroke:#ccc" transform="translate(289.368 547.861)"/><path d="M.5.866 0 0h1zm-1 0L0 0l.5.866zM-1 0h1l-.5.866zm.5-.866L0 0h-1zm1 0L0 0l-.5-.866z" style="fill:#000" transform="matrix(30 0 0 30 350.486 547.861)"/><path d="M1 0H0l.5-.171zM.5-.866 0 0l.398-.348z" style="fill:#214068" transform="matrix(30 0 0 30 350.486 547.861)"/><path d="M.5.866 0 0h1z" style="fill:#09294c" transform="matrix(30 0 0 30 350.486 547.861)"/><path d="M-.125.217a.25.25 0 0 0 .25 0M-.25 0a.25.25 0 0 0 .125.217m0-.434A.25.25 0 0 0-.25 0m.375-.217a.25.25 0 0 0-.25 0" style="fill:none;stroke:#e07c1f;stroke-width:.02;stroke-dasharray:.03,.03;stroke-dashoffset:0" transform="matrix(30 0 0 30 350.486 547.861)"/><path d="M0 0h1M0 0l.5.866M0 0l-.5.866M0 0h-1m1 0-.5-.866M0 0l.5-.866" style="fill:none;stroke:rgba(255,255,255,.2);stroke-width:.01" transform="matrix(30 0 0 30 350.486 547.861)"/><circle r=".06" style="fill:#222;stroke:rgba(255,255,255,.2);stroke-width:.02" transform="matrix(30 0 0 30 350.486 547.861)"/><circle r=".12" style="fill:none;stroke:red;stroke-width:.03" transform="matrix(30 0 0 30 350.486 547.861)"/><path d="M0 0h1" style="fill:none;stroke:#fff;stroke-width:.1;stroke-linecap:round" transform="matrix(30 0 0 30 350.486 547.861)"/><path d="M.5.866 0 0h1zm-1 0L0 0l.5.866zM-1 0h1l-.5.866zm.5-.866L0 0h-1zm1 0L0 0l-.5-.866z" style="fill:#000" transform="matrix(30 0 0 30 453.111 547.861)"/><path d="M.5.866 0 0h1z" style="fill:#214068" transform="matrix(30 0 0 30 453.111 547.861)"/><path d="M.5-.866 0 0l.398-.348z" style="fill:#09294c" transform="matrix(30 0 0 30 453.111 547.861)"/><path d="M-.125.217a.25.25 0 0 0 .25 0M-.25 0a.25.25 0 0 0 .125.217m0-.434A.25.25 0 0 0-.25 0m.375-.217a.25.25 0 0 0-.25 0" style="fill:none;stroke:#e07c1f;stroke-width:.02;stroke-dasharray:.03,.03;stroke-dashoffset:0" transform="matrix(30 0 0 30 453.111 547.861)"/><path d="M0 0h1M0 0l.5.866M0 0l-.5.866M0 0h-1m1 0-.5-.866M0 0l.5-.866" style="fill:none;stroke:rgba(255,255,255,.2);stroke-width:.01" transform="matrix(30 0 0 30 453.111 547.861)"/><circle r=".06" style="fill:#222;stroke:rgba(255,255,255,.2);stroke-width:.02" transform="matrix(30 0 0 30 453.111 547.861)"/><path d="M0 0h1" style="fill:none;stroke:red;stroke-width:.05;stroke-linecap:round" transform="matrix(30 0 0 30 453.111 547.861)"/><path d="M0 .5h13v3L20 0l-7-3.5v3H0z" style="fill:#ccc;stroke:#ccc" transform="translate(494.361 547.861)"/><path d="M.5.866 0 0h1zm-1 0L0 0l.5.866zM-1 0h1l-.5.866zm.5-.866L0 0h-1zm1 0L0 0l-.5-.866z" style="fill:#000" transform="matrix(30 0 0 30 555.48 547.861)"/><path d="M1 0H0l.5-.171zM.5.866 0 0h1z" style="fill:#214068" transform="matrix(30 0 0 30 555.48 547.861)"/><path d="M.5-.866 0 0l.398-.348z" style="fill:#09294c" transform="matrix(30 0 0 30 555.48 547.861)"/><path d="M-.125.217a.25.25 0 0 0 .25 0M-.25 0a.25.25 0 0 0 .125.217m0-.434A.25.25 0 0 0-.25 0m.375-.217a.25.25 0 0 0-.25 0" style="fill:none;stroke:#e07c1f;stroke-width:.02;stroke-dasharray:.03,.03;stroke-dashoffset:0" transform="matrix(30 0 0 30 555.48 547.861)"/><path d="M0 0h1M0 0l.5.866M0 0l-.5.866M0 0h-1m1 0-.5-.866M0 0l.5-.866" style="fill:none;stroke:rgba(255,255,255,.2);stroke-width:.01" transform="matrix(30 0 0 30 555.48 547.861)"/><circle r=".06" style="fill:#222;stroke:rgba(255,255,255,.2);stroke-width:.02" transform="matrix(30 0 0 30 555.48 547.861)"/><path d="M0 0h1" style="fill:none;stroke:red;stroke-width:.05;stroke-linecap:round" transform="matrix(30 0 0 30 555.48 547.861)"/><path d="M.5.866 0 0h1zm-1 0L0 0l.5.866zM-1 0h1l-.5.866zm.5-.866L0 0h-1zm1 0L0 0l-.5-.866z" style="fill:#000" transform="matrix(30 0 0 30 45 620.685)"/><path d="M1 0H0l.5-.171z" style="fill:#214068" transform="matrix(30 0 0 30 45 620.685)"/><path d="M.5-.866 0 0l.398-.348z" style="fill:#09294c" transform="matrix(30 0 0 30 45 620.685)"/><path d="M-.125.217a.25.25 0 0 0 .25 0M-.25 0a.25.25 0 0 0 .125.217m0-.434A.25.25 0 0 0-.25 0m.375-.217a.25.25 0 0 0-.25 0" style="fill:none;stroke:#e07c1f;stroke-width:.02;stroke-dasharray:.03,.03;stroke-dashoffset:0" transform="matrix(30 0 0 30 45 620.685)"/><path d="M0 0h1M0 0l.5.866M0 0l-.5.866M0 0h-1m1 0-.5-.866M0 0l.5-.866" style="fill:none;stroke:rgba(255,255,255,.2);stroke-width:.01" transform="matrix(30 0 0 30 45 620.685)"/><circle r=".06" style="fill:#222;stroke:rgba(255,255,255,.2);stroke-width:.02" transform="matrix(30 0 0 30 45 620.685)"/><path d="M0 0h1" style="fill:none;stroke:red;stroke-width:.05;stroke-linecap:round" transform="matrix(30 0 0 30 45 620.685)"/><path d="M0 .5h13v3L20 0l-7-3.5v3H0z" style="fill:#ccc;stroke:#ccc" transform="translate(86.25 620.685)"/><path d="M.5.866 0 0h1zm-1 0L0 0l.5.866zM-1 0h1l-.5.866zm.5-.866L0 0h-1zm1 0L0 0l-.5-.866z" style="fill:#000" transform="matrix(30 0 0 30 147.368 620.685)"/><path d="M1 0H0l.5-.171zM.5.866 0 0h1z" style="fill:#214068" transform="matrix(30 0 0 30 147.368 620.685)"/><path d="M.5-.866 0 0l.398-.348z" style="fill:#09294c" transform="matrix(30 0 0 30 147.368 620.685)"/><path d="M-.125.217a.25.25 0 0 0 .25 0M-.25 0a.25.25 0 0 0 .125.217m0-.434A.25.25 0 0 0-.25 0m.375-.217a.25.25 0 0 0-.25 0" style="fill:none;stroke:#e07c1f;stroke-width:.02;stroke-dasharray:.03,.03;stroke-dashoffset:0" transform="matrix(30 0 0 30 147.368 620.685)"/><path d="M0 0h1M0 0l.5.866M0 0l-.5.866M0 0h-1m1 0-.5-.866M0 0l.5-.866" style="fill:none;stroke:rgba(255,255,255,.2);stroke-width:.01" transform="matrix(30 0 0 30 147.368 620.685)"/><circle r=".06" style="fill:#222;stroke:rgba(255,255,255,.2);stroke-width:.02" transform="matrix(30 0 0 30 147.368 620.685)"/><path d="M0 0h1" style="fill:none;stroke:red;stroke-width:.05;stroke-linecap:round" transform="matrix(30 0 0 30 147.368 620.685)"/><path d="M.5.866 0 0h1zm-1 0L0 0l.5.866zM-1 0h1l-.5.866zm.5-.866L0 0h-1zm1 0L0 0l-.5-.866z" style="fill:#000" transform="matrix(30 0 0 30 249.618 621.398)"/><path d="M1 0H0l.5-.171zM.5-.866 0 0l.398-.348z" style="fill:#214068" transform="matrix(30 0 0 30 249.618 621.398)"/><path d="M.125.217A.25.25 0 0 0 .25 0m-.375.217a.25.25 0 0 0 .25 0M-.25 0a.25.25 0 0 0 .125.217m0-.434A.25.25 0 0 0-.25 0" style="fill:none;stroke:#e07c1f;stroke-width:.02;stroke-dasharray:.03,.03;stroke-dashoffset:0" transform="matrix(30 0 0 30 249.618 621.398)"/><path d="M0 0h1M0 0l.5.866M0 0l-.5.866M0 0h-1m1 0-.5-.866M0 0l.5-.866" style="fill:none;stroke:rgba(255,255,255,.2);stroke-width:.01" transform="matrix(30 0 0 30 249.618 621.398)"/><circle r=".06" style="fill:#222;stroke:rgba(255,255,255,.2);stroke-width:.02" transform="matrix(30 0 0 30 249.618 621.398)"/><circle r=".12" style="fill:none;stroke:red;stroke-width:.03" transform="matrix(30 0 0 30 249.618 621.398)"/><path d="m0 0 .5-.866" style="fill:none;stroke:#fff;stroke-width:.1;stroke-linecap:round" transform="matrix(30 0 0 30 249.618 621.398)"/><path d="M0 .5h13v3L20 0l-7-3.5v3H0z" style="fill:#ccc;stroke:#ccc" transform="translate(290.118 620.685)"/><path d="M.5.866 0 0h1zm-1 0L0 0l.5.866zM-1 0h1l-.5.866zm.5-.866L0 0h-1zm1 0L0 0l-.5-.866z" style="fill:#000" transform="matrix(30 0 0 30 351.236 621.398)"/><path d="M1 0H0l.5-.171zM.5-.866 0 0l.398-.348z" style="fill:#214068" transform="matrix(30 0 0 30 351.236 621.398)"/><path d="M.5-.866 0 0l-.5-.866z" style="fill:#09294c" transform="matrix(30 0 0 30 351.236 621.398)"/><path d="M.125.217A.25.25 0 0 0 .25 0m-.375.217a.25.25 0 0 0 .25 0M-.25 0a.25.25 0 0 0 .125.217m0-.434A.25.25 0 0 0-.25 0" style="fill:none;stroke:#e07c1f;stroke-width:.02;stroke-dasharray:.03,.03;stroke-dashoffset:0" transform="matrix(30 0 0 30 351.236 621.398)"/><path d="M0 0h1M0 0l.5.866M0 0l-.5.866M0 0h-1m1 0-.5-.866M0 0l.5-.866" style="fill:none;stroke:rgba(255,255,255,.2);stroke-width:.01" transform="matrix(30 0 0 30 351.236 621.398)"/><circle r=".06" style="fill:#222;stroke:rgba(255,255,255,.2);stroke-width:.02" transform="matrix(30 0 0 30 351.236 621.398)"/><circle r=".12" style="fill:none;stroke:red;stroke-width:.03" transform="matrix(30 0 0 30 351.236 621.398)"/><path d="m0 0 .5-.866" style="fill:none;stroke:#fff;stroke-width:.1;stroke-linecap:round" transform="matrix(30 0 0 30 351.236 621.398)"/><path d="M.5.866 0 0h1zm-1 0L0 0l.5.866zM-1 0h1l-.5.866zm.5-.866L0 0h-1zm1 0L0 0l-.5-.866z" style="fill:#000" transform="matrix(30 0 0 30 453.861 620.348)"/><path d="M.5.866 0 0h1zm0-1.732L0 0l.398-.348z" style="fill:#214068" transform="matrix(30 0 0 30 453.861 620.348)"/><path d="M-.5.866 0 0l.5.866z" style="fill:#224935" transform="matrix(30 0 0 30 453.861 620.348)"/><path d="M1 0H0l.5-.171z" style="fill:#0d301f" transform="matrix(30 0 0 30 453.861 620.348)"/><path d="M.125.217A.25.25 0 0 0 .25 0" style="fill:none;stroke:red;stroke-width:.02" transform="matrix(30 0 0 30 453.861 620.348)"/><path d="M-.125.217a.25.25 0 0 0 .25 0M-.25 0a.25.25 0 0 0 .125.217m0-.434A.25.25 0 0 0-.25 0m.375-.217a.25.25 0 0 0-.25 0" style="fill:none;stroke:#e07c1f;stroke-width:.02;stroke-dasharray:.03,.03;stroke-dashoffset:0" transform="matrix(30 0 0 30 453.861 620.348)"/><path d="M0 0h1M0 0l.5.866M0 0l-.5.866M0 0h-1m1 0-.5-.866M0 0l.5-.866" style="fill:none;stroke:rgba(255,255,255,.2);stroke-width:.01" transform="matrix(30 0 0 30 453.861 620.348)"/><circle r=".06" style="fill:#222;stroke:rgba(255,255,255,.2);stroke-width:.02" transform="matrix(30 0 0 30 453.861 620.348)"/><path d="M0 .5h13v3L20 0l-7-3.5v3H0z" style="fill:#ccc;stroke:#ccc" transform="translate(494.361 620.685)"/><path d="M.5.866 0 0h1zm-1 0L0 0l.5.866zM-1 0h1l-.5.866zm.5-.866L0 0h-1zm1 0L0 0l-.5-.866z" style="fill:#000" transform="matrix(30 0 0 30 555.48 620.348)"/><path d="M.5.866 0 0h1zm0-1.732L0 0l.398-.348z" style="fill:#214068" transform="matrix(30 0 0 30 555.48 620.348)"/><path d="M-1 0h1l-.5.866zm.5.866L0 0l.5.866z" style="fill:#224935" transform="matrix(30 0 0 30 555.48 620.348)"/><path d="M1 0H0l.5-.171z" style="fill:#0d301f" transform="matrix(30 0 0 30 555.48 620.348)"/><path d="M.125.217A.25.25 0 0 0 .25 0" style="fill:none;stroke:red;stroke-width:.02" transform="matrix(30 0 0 30 555.48 620.348)"/><path d="M-.125-.217A.25.25 0 0 0-.25 0m.375-.217a.25.25 0 0 0-.25 0" style="fill:none;stroke:#e07c1f;stroke-width:.02;stroke-dasharray:.03,.03;stroke-dashoffset:0" transform="matrix(30 0 0 30 555.48 620.348)"/><path d="M0 0h1M0 0l.5.866M0 0l-.5.866M0 0h-1m1 0-.5-.866M0 0l.5-.866" style="fill:none;stroke:rgba(255,255,255,.2);stroke-width:.01" transform="matrix(30 0 0 30 555.48 620.348)"/><circle r=".06" style="fill:#222;stroke:rgba(255,255,255,.2);stroke-width:.02" transform="matrix(30 0 0 30 555.48 620.348)"/><path d="m0 0-.5.866" style="fill:none;stroke:red;stroke-width:.05;stroke-linecap:round" transform="matrix(30 0 0 30 555.48 620.348)"/><path d="M.5.866 0 0h1zm-1 0L0 0l.5.866zM-1 0h1l-.5.866zm.5-.866L0 0h-1zm1 0L0 0l-.5-.866z" style="fill:#000" transform="matrix(30 0 0 30 45 694.522)"/><path d="M.5.866 0 0h1z" style="fill:#214068" transform="matrix(30 0 0 30 45 694.522)"/><path d="M1 0H0l.5-.171z" style="fill:#224935" transform="matrix(30 0 0 30 45 694.522)"/><path d="M-1 0h1l-.5.866z" style="fill:#09294c" transform="matrix(30 0 0 30 45 694.522)"/><path d="M.5-.866 0 0l.398-.348z" style="fill:#0d301f" transform="matrix(30 0 0 30 45 694.522)"/><path d="M.125.217A.25.25 0 0 0 .25 0" style="fill:none;stroke:#e07c1f;stroke-width:.02;stroke-dasharray:.03,.03;stroke-dashoffset:0" transform="matrix(30 0 0 30 45 694.522)"/><path d="M-.125.217a.25.25 0 0 0 .25 0" style="fill:none;stroke:red;stroke-width:.02" transform="matrix(30 0 0 30 45 694.522)"/><path d="M-.25 0a.25.25 0 0 0 .125.217m0-.434A.25.25 0 0 0-.25 0m.375-.217a.25.25 0 0 0-.25 0" style="fill:none;stroke:#e07c1f;stroke-width:.02;stroke-dasharray:.03,.03;stroke-dashoffset:0" transform="matrix(30 0 0 30 45 694.522)"/><path d="M0 0h1M0 0l.5.866M0 0l-.5.866M0 0h-1m1 0-.5-.866M0 0l.5-.866" style="fill:none;stroke:rgba(255,255,255,.2);stroke-width:.01" transform="matrix(30 0 0 30 45 694.522)"/><circle r=".06" style="fill:#222;stroke:rgba(255,255,255,.2);stroke-width:.02" transform="matrix(30 0 0 30 45 694.522)"/><path d="M0 .5h13v3L20 0l-7-3.5v3H0z" style="fill:#ccc;stroke:#ccc" transform="translate(85.5 694.184)"/><path d="M.5.866 0 0h1zm-1 0L0 0l.5.866zM-1 0h1l-.5.866zm.5-.866L0 0h-1zm1 0L0 0l-.5-.866z" style="fill:#000" transform="matrix(30 0 0 30 147.368 694.522)"/><path d="M1 0H0l.5-.171zM.5.866 0 0h1z" style="fill:#214068" transform="matrix(30 0 0 30 147.368 694.522)"/><path d="M.5-.866 0 0l.398-.348zm0 0L0 0l-.5-.866zm-1 0L0 0h-1zM-1 0h1l-.5.866z" style="fill:#09294c" transform="matrix(30 0 0 30 147.368 694.522)"/><path d="M-.125.217a.25.25 0 0 0 .25 0" style="fill:none;stroke:red;stroke-width:.02" transform="matrix(30 0 0 30 147.368 694.522)"/><path d="M0 0h1M0 0l.5.866M0 0l-.5.866M0 0h-1m1 0-.5-.866M0 0l.5-.866" style="fill:none;stroke:rgba(255,255,255,.2);stroke-width:.01" transform="matrix(30 0 0 30 147.368 694.522)"/><circle r=".06" style="fill:#222;stroke:rgba(255,255,255,.2);stroke-width:.02" transform="matrix(30 0 0 30 147.368 694.522)"/><path d="M0 0h1M0 0h-1m1 0-.5-.866M0 0l.5-.866" style="fill:none;stroke:red;stroke-width:.05;stroke-linecap:round" transform="matrix(30 0 0 30 147.368 694.522)"/><path d="M.5.866 0 0h1zm-1 0L0 0l.5.866zM-1 0h1l-.5.866zm.5-.866L0 0h-1zm1 0L0 0l-.5-.866z" style="fill:#000" transform="matrix(30 0 0 30 249.243 694.184)"/><path d="M-.5.866 0 0l.5.866z" style="fill:#214068" transform="matrix(30 0 0 30 249.243 694.184)"/><path d="M1 0H0l.5-.171z" style="fill:#224935" transform="matrix(30 0 0 30 249.243 694.184)"/><path d="M-.5-.866 0 0h-1z" style="fill:#09294c" transform="matrix(30 0 0 30 249.243 694.184)"/><path d="M.5-.866 0 0l.398-.348z" style="fill:#0d301f" transform="matrix(30 0 0 30 249.243 694.184)"/><path d="M.125.217A.25.25 0 0 0 .25 0m-.375.217a.25.25 0 0 0 .25 0" style="fill:none;stroke:#e07c1f;stroke-width:.02;stroke-dasharray:.03,.03;stroke-dashoffset:0" transform="matrix(30 0 0 30 249.243 694.184)"/><path d="M-.25 0a.25.25 0 0 0 .125.217" style="fill:none;stroke:red;stroke-width:.02" transform="matrix(30 0 0 30 249.243 694.184)"/><path d="M-.125-.217A.25.25 0 0 0-.25 0m.375-.217a.25.25 0 0 0-.25 0" style="fill:none;stroke:#e07c1f;stroke-width:.02;stroke-dasharray:.03,.03;stroke-dashoffset:0" transform="matrix(30 0 0 30 249.243 694.184)"/><path d="M0 0h1M0 0l.5.866M0 0l-.5.866M0 0h-1m1 0-.5-.866M0 0l.5-.866" style="fill:none;stroke:rgba(255,255,255,.2);stroke-width:.01" transform="matrix(30 0 0 30 249.243 694.184)"/><circle r=".06" style="fill:#222;stroke:rgba(255,255,255,.2);stroke-width:.02" transform="matrix(30 0 0 30 249.243 694.184)"/><path d="M0 .5h13v3L20 0l-7-3.5v3H0z" style="fill:#ccc;stroke:#ccc" transform="translate(289.743 694.184)"/><path d="M.5.866 0 0h1zm-1 0L0 0l.5.866zM-1 0h1l-.5.866zm.5-.866L0 0h-1zm1 0L0 0l-.5-.866z" style="fill:#000" transform="matrix(30 0 0 30 350.861 694.184)"/><path d="M1 0H0l.5-.171zM-.5.866 0 0l.5.866zm1 0L0 0h1z" style="fill:#214068" transform="matrix(30 0 0 30 350.861 694.184)"/><path d="M.5-.866 0 0l.398-.348zm0 0L0 0l-.5-.866zm-1 0L0 0h-1z" style="fill:#09294c" transform="matrix(30 0 0 30 350.861 694.184)"/><path d="M-.25 0a.25.25 0 0 0 .125.217" style="fill:none;stroke:red;stroke-width:.02" transform="matrix(30 0 0 30 350.861 694.184)"/><path d="M0 0h1M0 0l.5.866M0 0l-.5.866M0 0h-1m1 0-.5-.866M0 0l.5-.866" style="fill:none;stroke:rgba(255,255,255,.2);stroke-width:.01" transform="matrix(30 0 0 30 350.861 694.184)"/><circle r=".06" style="fill:#222;stroke:rgba(255,255,255,.2);stroke-width:.02" transform="matrix(30 0 0 30 350.861 694.184)"/><path d="M0 0h1M0 0l.5.866M0 0l-.5-.866M0 0l.5-.866" style="fill:none;stroke:red;stroke-width:.05;stroke-linecap:round" transform="matrix(30 0 0 30 350.861 694.184)"/><path d="M.5.866 0 0h1zm-1 0L0 0l.5.866zM-1 0h1l-.5.866zm.5-.866L0 0h-1zm1 0L0 0l-.5-.866z" style="fill:#000" transform="matrix(30 0 0 30 453.486 694.184)"/><path d="M-.5.866 0 0l.5.866zm1-1.732L0 0l.398-.348z" style="fill:#214068" transform="matrix(30 0 0 30 453.486 694.184)"/><path d="M-1 0h1l-.5.866z" style="fill:#224935" transform="matrix(30 0 0 30 453.486 694.184)"/><path d="M1 0H0l.5-.171z" style="fill:#0d301f" transform="matrix(30 0 0 30 453.486 694.184)"/><path d="M.125.217A.25.25 0 0 0 .25 0m-.375.217a.25.25 0 0 0 .25 0M-.25 0a.25.25 0 0 0 .125.217m0-.434A.25.25 0 0 0-.25 0m.375-.217a.25.25 0 0 0-.25 0" style="fill:none;stroke:#e07c1f;stroke-width:.02;stroke-dasharray:.03,.03;stroke-dashoffset:0" transform="matrix(30 0 0 30 453.486 694.184)"/><path d="M0 0h1M0 0l.5.866M0 0l-.5.866M0 0h-1m1 0-.5-.866M0 0l.5-.866" style="fill:none;stroke:rgba(255,255,255,.2);stroke-width:.01" transform="matrix(30 0 0 30 453.486 694.184)"/><circle r=".06" style="fill:#222;stroke:rgba(255,255,255,.2);stroke-width:.02" transform="matrix(30 0 0 30 453.486 694.184)"/><path d="M0 .5h13v3L20 0l-7-3.5v3H0z" style="fill:#ccc;stroke:#ccc" transform="translate(493.986 694.184)"/><path d="M.5.866 0 0h1zm-1 0L0 0l.5.866zM-1 0h1l-.5.866zm.5-.866L0 0h-1zm1 0L0 0l-.5-.866z" style="fill:#000" transform="matrix(30 0 0 30 555.854 694.184)"/><path d="M-.5.866 0 0l.5.866zm1-1.732L0 0l.398-.348z" style="fill:#214068" transform="matrix(30 0 0 30 555.854 694.184)"/><path d="M-.5-.866 0 0h-1zM-1 0h1l-.5.866z" style="fill:#224935" transform="matrix(30 0 0 30 555.854 694.184)"/><path d="M1 0H0l.5-.171z" style="fill:#0d301f" transform="matrix(30 0 0 30 555.854 694.184)"/><path d="M.125.217A.25.25 0 0 0 .25 0m-.375.217a.25.25 0 0 0 .25 0m0-.434a.25.25 0 0 0-.25 0" style="fill:none;stroke:#e07c1f;stroke-width:.02;stroke-dasharray:.03,.03;stroke-dashoffset:0" transform="matrix(30 0 0 30 555.854 694.184)"/><path d="M0 0h1M0 0l.5.866M0 0l-.5.866M0 0h-1m1 0-.5-.866M0 0l.5-.866" style="fill:none;stroke:rgba(255,255,255,.2);stroke-width:.01" transform="matrix(30 0 0 30 555.854 694.184)"/><circle r=".06" style="fill:#222;stroke:rgba(255,255,255,.2);stroke-width:.02" transform="matrix(30 0 0 30 555.854 694.184)"/><path d="M0 0h-1" style="fill:none;stroke:red;stroke-width:.05;stroke-linecap:round" transform="matrix(30 0 0 30 555.854 694.184)"/><path d="M.5.866 0 0h1zm-1 0L0 0l.5.866zM-1 0h1l-.5.866zm.5-.866L0 0h-1zm1 0L0 0l-.5-.866z" style="fill:#000" transform="matrix(30 0 0 30 45.75 766.971)"/><path d="M.5.866 0 0h1z" style="fill:#214068" transform="matrix(30 0 0 30 45.75 766.971)"/><path d="M-.5-.866 0 0h-1zM1 0H0l.5-.171z" style="fill:#224935" transform="matrix(30 0 0 30 45.75 766.971)"/><path d="M.5-.866 0 0l.398-.348z" style="fill:#09294c" transform="matrix(30 0 0 30 45.75 766.971)"/><path d="M.125.217A.25.25 0 0 0 .25 0m-.375.217a.25.25 0 0 0 .25 0M-.25 0a.25.25 0 0 0 .125.217m0-.434A.25.25 0 0 0-.25 0m.375-.217a.25.25 0 0 0-.25 0" style="fill:none;stroke:#e07c1f;stroke-width:.02;stroke-dasharray:.03,.03;stroke-dashoffset:0" transform="matrix(30 0 0 30 45.75 766.971)"/><path d="M0 0h1M0 0l.5.866M0 0l-.5.866M0 0h-1m1 0-.5-.866M0 0l.5-.866" style="fill:none;stroke:rgba(255,255,255,.2);stroke-width:.01" transform="matrix(30 0 0 30 45.75 766.971)"/><circle r=".06" style="fill:#222;stroke:rgba(255,255,255,.2);stroke-width:.02" transform="matrix(30 0 0 30 45.75 766.971)"/><path d="M0 .5h13v3L20 0l-7-3.5v3H0z" style="fill:#ccc;stroke:#ccc" transform="translate(86.25 767.309)"/><path d="M.5.866 0 0h1zm-1 0L0 0l.5.866zM-1 0h1l-.5.866zm.5-.866L0 0h-1zm1 0L0 0l-.5-.866z" style="fill:#000" transform="matrix(30 0 0 30 147.368 766.971)"/><path d="M-.5.866 0 0l.5.866zm1 0L0 0h1z" style="fill:#214068" transform="matrix(30 0 0 30 147.368 766.971)"/><path d="M-.5-.866 0 0h-1zM1 0H0l.5-.171z" style="fill:#224935" transform="matrix(30 0 0 30 147.368 766.971)"/><path d="M.5-.866 0 0l.398-.348z" style="fill:#09294c" transform="matrix(30 0 0 30 147.368 766.971)"/><path d="M-.25 0a.25.25 0 0 0 .125.217m0-.434A.25.25 0 0 0-.25 0m.375-.217a.25.25 0 0 0-.25 0" style="fill:none;stroke:#e07c1f;stroke-width:.02;stroke-dasharray:.03,.03;stroke-dashoffset:0" transform="matrix(30 0 0 30 147.368 766.971)"/><path d="M0 0h1M0 0l.5.866M0 0l-.5.866M0 0h-1m1 0-.5-.866M0 0l.5-.866" style="fill:none;stroke:rgba(255,255,255,.2);stroke-width:.01" transform="matrix(30 0 0 30 147.368 766.971)"/><circle r=".06" style="fill:#222;stroke:rgba(255,255,255,.2);stroke-width:.02" transform="matrix(30 0 0 30 147.368 766.971)"/><path d="m0 0 .5.866" style="fill:none;stroke:red;stroke-width:.05;stroke-linecap:round" transform="matrix(30 0 0 30 147.368 766.971)"/><path d="M.5.866 0 0h1zm-1 0L0 0l.5.866zM-1 0h1l-.5.866zm.5-.866L0 0h-1zm1 0L0 0l-.5-.866z" style="fill:#000" transform="matrix(30 0 0 30 249.618 766.971)"/><path d="M.5.866 0 0h1z" style="fill:#214068" transform="matrix(30 0 0 30 249.618 766.971)"/><path d="M.5-.866 0 0l-.5-.866zM1 0H0l.5-.171z" style="fill:#224935" transform="matrix(30 0 0 30 249.618 766.971)"/><path d="M.5-.866 0 0l.398-.348z" style="fill:#09294c" transform="matrix(30 0 0 30 249.618 766.971)"/><path d="M.125.217A.25.25 0 0 0 .25 0m-.375.217a.25.25 0 0 0 .25 0M-.25 0a.25.25 0 0 0 .125.217m0-.434A.25.25 0 0 0-.25 0m.375-.217a.25.25 0 0 0-.25 0" style="fill:none;stroke:#e07c1f;stroke-width:.02;stroke-dasharray:.03,.03;stroke-dashoffset:0" transform="matrix(30 0 0 30 249.618 766.971)"/><path d="M0 0h1M0 0l.5.866M0 0l-.5.866M0 0h-1m1 0-.5-.866M0 0l.5-.866" style="fill:none;stroke:rgba(255,255,255,.2);stroke-width:.01" transform="matrix(30 0 0 30 249.618 766.971)"/><circle r=".06" style="fill:#222;stroke:rgba(255,255,255,.2);stroke-width:.02" transform="matrix(30 0 0 30 249.618 766.971)"/><path d="M0 .5h13v3L20 0l-7-3.5v3H0z" style="fill:#ccc;stroke:#ccc" transform="translate(290.118 767.309)"/><path d="M.5.866 0 0h1zm-1 0L0 0l.5.866zM-1 0h1l-.5.866zm.5-.866L0 0h-1zm1 0L0 0l-.5-.866z" style="fill:#000" transform="matrix(30 0 0 30 351.236 766.971)"/><path d="M-.5.866 0 0l.5.866zm1 0L0 0h1z" style="fill:#214068" transform="matrix(30 0 0 30 351.236 766.971)"/><path d="M.5-.866 0 0l-.5-.866zM1 0H0l.5-.171z" style="fill:#224935" transform="matrix(30 0 0 30 351.236 766.971)"/><path d="M.5-.866 0 0l.398-.348z" style="fill:#09294c" transform="matrix(30 0 0 30 351.236 766.971)"/><path d="M-.25 0a.25.25 0 0 0 .125.217m0-.434A.25.25 0 0 0-.25 0m.375-.217a.25.25 0 0 0-.25 0" style="fill:none;stroke:#e07c1f;stroke-width:.02;stroke-dasharray:.03,.03;stroke-dashoffset:0" transform="matrix(30 0 0 30 351.236 766.971)"/><path d="M0 0h1M0 0l.5.866M0 0l-.5.866M0 0h-1m1 0-.5-.866M0 0l.5-.866" style="fill:none;stroke:rgba(255,255,255,.2);stroke-width:.01" transform="matrix(30 0 0 30 351.236 766.971)"/><circle r=".06" style="fill:#222;stroke:rgba(255,255,255,.2);stroke-width:.02" transform="matrix(30 0 0 30 351.236 766.971)"/><path d="m0 0 .5.866" style="fill:none;stroke:red;stroke-width:.05;stroke-linecap:round" transform="matrix(30 0 0 30 351.236 766.971)"/><path d="M.5.866 0 0h1zm-1 0L0 0l.5.866zM-1 0h1l-.5.866zm.5-.866L0 0h-1zm1 0L0 0l-.5-.866z" style="fill:#000" transform="matrix(30 0 0 30 453.486 767.646)"/><path d="M.5.866 0 0h1z" style="fill:#214068" transform="matrix(30 0 0 30 453.486 767.646)"/><path d="M1 0H0l.5-.171z" style="fill:#224935" transform="matrix(30 0 0 30 453.486 767.646)"/><path d="M-.5-.866 0 0h-1z" style="fill:#09294c" transform="matrix(30 0 0 30 453.486 767.646)"/><path d="M.5-.866 0 0l.398-.348z" style="fill:#0d301f" transform="matrix(30 0 0 30 453.486 767.646)"/><path d="M.125.217A.25.25 0 0 0 .25 0m-.375.217a.25.25 0 0 0 .25 0M-.25 0a.25.25 0 0 0 .125.217m0-.434A.25.25 0 0 0-.25 0m.375-.217a.25.25 0 0 0-.25 0" style="fill:none;stroke:#e07c1f;stroke-width:.02;stroke-dasharray:.03,.03;stroke-dashoffset:0" transform="matrix(30 0 0 30 453.486 767.646)"/><path d="M0 0h1M0 0l.5.866M0 0l-.5.866M0 0h-1m1 0-.5-.866M0 0l.5-.866" style="fill:none;stroke:rgba(255,255,255,.2);stroke-width:.01" transform="matrix(30 0 0 30 453.486 767.646)"/><circle r=".06" style="fill:#222;stroke:rgba(255,255,255,.2);stroke-width:.02" transform="matrix(30 0 0 30 453.486 767.646)"/><path d="M0 .5h13v3L20 0l-7-3.5v3H0z" style="fill:#ccc;stroke:#ccc" transform="translate(493.986 767.309)"/><path d="M.5.866 0 0h1zm-1 0L0 0l.5.866zM-1 0h1l-.5.866zm.5-.866L0 0h-1zm1 0L0 0l-.5-.866z" style="fill:#000" transform="matrix(30 0 0 30 555.104 767.646)"/><path d="M1 0H0l.5-.171zM.5.866 0 0h1z" style="fill:#214068" transform="matrix(30 0 0 30 555.104 767.646)"/><path d="M.5-.866 0 0l.398-.348zm0 0L0 0l-.5-.866zm-1 0L0 0h-1z" style="fill:#09294c" transform="matrix(30 0 0 30 555.104 767.646)"/><path d="M-.125.217a.25.25 0 0 0 .25 0M-.25 0a.25.25 0 0 0 .125.217" style="fill:none;stroke:#e07c1f;stroke-width:.02;stroke-dasharray:.03,.03;stroke-dashoffset:0" transform="matrix(30 0 0 30 555.104 767.646)"/><path d="M0 0h1M0 0l.5.866M0 0l-.5.866M0 0h-1m1 0-.5-.866M0 0l.5-.866" style="fill:none;stroke:rgba(255,255,255,.2);stroke-width:.01" transform="matrix(30 0 0 30 555.104 767.646)"/><circle r=".06" style="fill:#222;stroke:rgba(255,255,255,.2);stroke-width:.02" transform="matrix(30 0 0 30 555.104 767.646)"/><path d="M0 0h1M0 0l-.5-.866M0 0l.5-.866" style="fill:none;stroke:red;stroke-width:.05;stroke-linecap:round" transform="matrix(30 0 0 30 555.104 767.646)"/><path d="M.5.866 0 0h1zm-1 0L0 0l.5.866zM-1 0h1l-.5.866zm.5-.866L0 0h-1zm1 0L0 0l-.5-.866z" style="fill:#000" transform="matrix(30 0 0 30 45.375 840.433)"/><path d="M.5.866 0 0h1zm0-1.732L0 0l-.5-.866z" style="fill:#214068" transform="matrix(30 0 0 30 45.375 840.433)"/><path d="M1 0H0l.5-.171z" style="fill:#224935" transform="matrix(30 0 0 30 45.375 840.433)"/><path d="M.5-.866 0 0l.398-.348z" style="fill:#0d301f" transform="matrix(30 0 0 30 45.375 840.433)"/><path d="M.125.217A.25.25 0 0 0 .25 0m-.375.217a.25.25 0 0 0 .25 0M-.25 0a.25.25 0 0 0 .125.217m0-.434A.25.25 0 0 0-.25 0m.375-.217a.25.25 0 0 0-.25 0" style="fill:none;stroke:#e07c1f;stroke-width:.02;stroke-dasharray:.03,.03;stroke-dashoffset:0" transform="matrix(30 0 0 30 45.375 840.433)"/><path d="M0 0h1M0 0l.5.866M0 0l-.5.866M0 0h-1m1 0-.5-.866M0 0l.5-.866" style="fill:none;stroke:rgba(255,255,255,.2);stroke-width:.01" transform="matrix(30 0 0 30 45.375 840.433)"/><circle r=".06" style="fill:#222;stroke:rgba(255,255,255,.2);stroke-width:.02" transform="matrix(30 0 0 30 45.375 840.433)"/><path d="M0 .5h13v3L20 0l-7-3.5v3H0z" style="fill:#ccc;stroke:#ccc" transform="translate(85.875 840.433)"/><path d="M.5.866 0 0h1zm-1 0L0 0l.5.866zM-1 0h1l-.5.866zm.5-.866L0 0h-1zm1 0L0 0l-.5-.866z" style="fill:#000" transform="matrix(30 0 0 30 147.743 840.433)"/><path d="M-1 0h1l-.5.866zM.5-.866 0 0l-.5-.866zM-.5.866 0 0l.5.866zm0-1.732L0 0h-1zM.5.866 0 0h1z" style="fill:#214068" transform="matrix(30 0 0 30 147.743 840.433)"/><path d="M1 0H0l.5-.171z" style="fill:#224935" transform="matrix(30 0 0 30 147.743 840.433)"/><path d="M.5-.866 0 0l.398-.348z" style="fill:#0d301f" transform="matrix(30 0 0 30 147.743 840.433)"/><path d="M0 0h1M0 0l.5.866M0 0l-.5.866M0 0h-1m1 0-.5-.866M0 0l.5-.866" style="fill:none;stroke:rgba(255,255,255,.2);stroke-width:.01" transform="matrix(30 0 0 30 147.743 840.433)"/><circle r=".06" style="fill:#222;stroke:rgba(255,255,255,.2);stroke-width:.02" transform="matrix(30 0 0 30 147.743 840.433)"/><path d="m0 0 .5.866M0 0l-.5.866M0 0h-1m1 0-.5-.866" style="fill:none;stroke:red;stroke-width:.05;stroke-linecap:round" transform="matrix(30 0 0 30 147.743 840.433)"/><path d="M.5.866 0 0h1zm-1 0L0 0l.5.866zM-1 0h1l-.5.866zm.5-.866L0 0h-1zm1 0L0 0l-.5-.866z" style="fill:#000" transform="matrix(30 0 0 30 249.243 840.77)"/><path d="M.5.866 0 0h1z" style="fill:#214068" transform="matrix(30 0 0 30 249.243 840.77)"/><path d="M1 0H0l.5-.171z" style="fill:#224935" transform="matrix(30 0 0 30 249.243 840.77)"/><path d="M.5-.866 0 0l-.5-.866z" style="fill:#09294c" transform="matrix(30 0 0 30 249.243 840.77)"/><path d="M.5-.866 0 0l.398-.348z" style="fill:#0d301f" transform="matrix(30 0 0 30 249.243 840.77)"/><path d="M.125.217A.25.25 0 0 0 .25 0m-.375.217a.25.25 0 0 0 .25 0M-.25 0a.25.25 0 0 0 .125.217m0-.434A.25.25 0 0 0-.25 0m.375-.217a.25.25 0 0 0-.25 0" style="fill:none;stroke:#e07c1f;stroke-width:.02;stroke-dasharray:.03,.03;stroke-dashoffset:0" transform="matrix(30 0 0 30 249.243 840.77)"/><path d="M0 0h1M0 0l.5.866M0 0l-.5.866M0 0h-1m1 0-.5-.866M0 0l.5-.866" style="fill:none;stroke:rgba(255,255,255,.2);stroke-width:.01" transform="matrix(30 0 0 30 249.243 840.77)"/><circle r=".06" style="fill:#222;stroke:rgba(255,255,255,.2);stroke-width:.02" transform="matrix(30 0 0 30 249.243 840.77)"/><path d="M0 .5h13v3L20 0l-7-3.5v3H0z" style="fill:#ccc;stroke:#ccc" transform="translate(289.743 840.433)"/><path d="M.5.866 0 0h1zm-1 0L0 0l.5.866zM-1 0h1l-.5.866zm.5-.866L0 0h-1zm1 0L0 0l-.5-.866z" style="fill:#000" transform="matrix(30 0 0 30 350.861 840.77)"/><path d="M1 0H0l.5-.171zM.5.866 0 0h1z" style="fill:#214068" transform="matrix(30 0 0 30 350.861 840.77)"/><path d="M.5-.866 0 0l.398-.348zm0 0L0 0l-.5-.866z" style="fill:#09294c" transform="matrix(30 0 0 30 350.861 840.77)"/><path d="M-.125.217a.25.25 0 0 0 .25 0M-.25 0a.25.25 0 0 0 .125.217m0-.434A.25.25 0 0 0-.25 0" style="fill:none;stroke:#e07c1f;stroke-width:.02;stroke-dasharray:.03,.03;stroke-dashoffset:0" transform="matrix(30 0 0 30 350.861 840.77)"/><path d="M0 0h1M0 0l.5.866M0 0l-.5.866M0 0h-1m1 0-.5-.866M0 0l.5-.866" style="fill:none;stroke:rgba(255,255,255,.2);stroke-width:.01" transform="matrix(30 0 0 30 350.861 840.77)"/><circle r=".06" style="fill:#222;stroke:rgba(255,255,255,.2);stroke-width:.02" transform="matrix(30 0 0 30 350.861 840.77)"/><path d="M0 0h1M0 0l.5-.866" style="fill:none;stroke:red;stroke-width:.05;stroke-linecap:round" transform="matrix(30 0 0 30 350.861 840.77)"/><path d="M.5.866 0 0h1zm-1 0L0 0l.5.866zM-1 0h1l-.5.866zm.5-.866L0 0h-1zm1 0L0 0l-.5-.866z" style="fill:#000" transform="matrix(30 0 0 30 452.736 840.433)"/><path d="M1 0H0l.5-.171z" style="fill:#214068" transform="matrix(30 0 0 30 452.736 840.433)"/><path d="M.5-.866 0 0l.398-.348zM.5.866 0 0h1z" style="fill:#09294c" transform="matrix(30 0 0 30 452.736 840.433)"/><path d="M.125.217A.25.25 0 0 0 .25 0m-.375.217a.25.25 0 0 0 .25 0M-.25 0a.25.25 0 0 0 .125.217m0-.434A.25.25 0 0 0-.25 0m.375-.217a.25.25 0 0 0-.25 0" style="fill:none;stroke:#e07c1f;stroke-width:.02;stroke-dasharray:.03,.03;stroke-dashoffset:0" transform="matrix(30 0 0 30 452.736 840.433)"/><path d="M0 0h1M0 0l.5.866M0 0l-.5.866M0 0h-1m1 0-.5-.866M0 0l.5-.866" style="fill:none;stroke:rgba(255,255,255,.2);stroke-width:.01" transform="matrix(30 0 0 30 452.736 840.433)"/><circle r=".06" style="fill:#222;stroke:rgba(255,255,255,.2);stroke-width:.02" transform="matrix(30 0 0 30 452.736 840.433)"/><path d="M0 .5h13v3L20 0l-7-3.5v3H0z" style="fill:#ccc;stroke:#ccc" transform="translate(493.236 840.433)"/><path d="M.5.866 0 0h1zm-1 0L0 0l.5.866zM-1 0h1l-.5.866zm.5-.866L0 0h-1zm1 0L0 0l-.5-.866z" style="fill:#000" transform="matrix(30 0 0 30 555.104 840.433)"/><path d="M1 0H0l.5-.171z" style="fill:#214068" transform="matrix(30 0 0 30 555.104 840.433)"/><path d="M.5-.866 0 0l.398-.348zm0 0L0 0l-.5-.866zm-1 0L0 0h-1zM-1 0h1l-.5.866zm.5.866L0 0l.5.866zm1 0L0 0h1z" style="fill:#09294c" transform="matrix(30 0 0 30 555.104 840.433)"/><path d="M0 0h1M0 0l.5.866M0 0l-.5.866M0 0h-1m1 0-.5-.866M0 0l.5-.866" style="fill:none;stroke:rgba(255,255,255,.2);stroke-width:.01" transform="matrix(30 0 0 30 555.104 840.433)"/><circle r=".06" style="fill:#222;stroke:rgba(255,255,255,.2);stroke-width:.02" transform="matrix(30 0 0 30 555.104 840.433)"/><path d="m0 0 .5.866M0 0l-.5.866M0 0h-1m1 0-.5-.866M0 0l.5-.866" style="fill:none;stroke:red;stroke-width:.05;stroke-linecap:round" transform="matrix(30 0 0 30 555.104 840.433)"/><path d="M0 0h1" style="fill:none;stroke:#fff;stroke-width:.1;stroke-linecap:round" transform="matrix(30 0 0 30 555.104 840.433)"/><path d="M.5.866 0 0h1zm-1 0L0 0l.5.866zM-1 0h1l-.5.866zm.5-.866L0 0h-1zm1 0L0 0l-.5-.866z" style="fill:#000" transform="matrix(30 0 0 30 45.375 913.22)"/><path d="M1 0H0l.5-.171zM.5.866 0 0h1z" style="fill:#214068" transform="matrix(30 0 0 30 45.375 913.22)"/><path d="M.5-.866 0 0l.398-.348z" style="fill:#09294c" transform="matrix(30 0 0 30 45.375 913.22)"/><path d="M.125.217A.25.25 0 0 0 .25 0m-.375.217a.25.25 0 0 0 .25 0M-.25 0a.25.25 0 0 0 .125.217m0-.434A.25.25 0 0 0-.25 0m.375-.217a.25.25 0 0 0-.25 0" style="fill:none;stroke:#e07c1f;stroke-width:.02;stroke-dasharray:.03,.03;stroke-dashoffset:0" transform="matrix(30 0 0 30 45.375 913.22)"/><path d="M0 0h1M0 0l.5.866M0 0l-.5.866M0 0h-1m1 0-.5-.866M0 0l.5-.866" style="fill:none;stroke:rgba(255,255,255,.2);stroke-width:.01" transform="matrix(30 0 0 30 45.375 913.22)"/><circle r=".06" style="fill:#222;stroke:rgba(255,255,255,.2);stroke-width:.02" transform="matrix(30 0 0 30 45.375 913.22)"/><path d="M0 .5h13v3L20 0l-7-3.5v3H0z" style="fill:#ccc;stroke:#ccc" transform="translate(85.875 913.22)"/><path d="M.5.866 0 0h1zm-1 0L0 0l.5.866zM-1 0h1l-.5.866zm.5-.866L0 0h-1zm1 0L0 0l-.5-.866z" style="fill:#000" transform="matrix(30 0 0 30 146.993 913.22)"/><path d="M1 0H0l.5-.171zM.5.866 0 0h1z" style="fill:#214068" transform="matrix(30 0 0 30 146.993 913.22)"/><path d="M.5-.866 0 0l.398-.348z" style="fill:#09294c" transform="matrix(30 0 0 30 146.993 913.22)"/><path d="M-.125.217a.25.25 0 0 0 .25 0M-.25 0a.25.25 0 0 0 .125.217m0-.434A.25.25 0 0 0-.25 0m.375-.217a.25.25 0 0 0-.25 0" style="fill:none;stroke:#e07c1f;stroke-width:.02;stroke-dasharray:.03,.03;stroke-dashoffset:0" transform="matrix(30 0 0 30 146.993 913.22)"/><path d="M0 0h1M0 0l.5.866M0 0l-.5.866M0 0h-1m1 0-.5-.866M0 0l.5-.866" style="fill:none;stroke:rgba(255,255,255,.2);stroke-width:.01" transform="matrix(30 0 0 30 146.993 913.22)"/><circle r=".06" style="fill:#222;stroke:rgba(255,255,255,.2);stroke-width:.02" transform="matrix(30 0 0 30 146.993 913.22)"/><path d="M0 0h1" style="fill:none;stroke:red;stroke-width:.05;stroke-linecap:round" transform="matrix(30 0 0 30 146.993 913.22)"/></svg>