<svg xmlns="http://www.w3.org/2000/svg" width="407" height="821" aria-hidden="true" style="pointer-events:none;position:absolute;left:0;top:0;transform-origin:left top;z-index:20"><rect width="397" height="811" rx="0" ry="0" style="fill:#333"/><path d="M.5.866 0 0h1zm-1 0L0 0l.5.866zM-1 0h1l-.5.866zm.5-.866L0 0h-1zm1 0L0 0l-.5-.866zM1 0H0l.5-.866z" style="fill:#000" transform="matrix(30 0 0 30 45 41.056)"/><path d="M0 0h1M0 0l.5.866M0 0l-.5.866M0 0h-1m1 0-.5-.866M0 0l.5-.866" style="fill:none;stroke:rgba(255,255,255,.2);stroke-width:.01" transform="matrix(30 0 0 30 45 41.056)"/><circle r=".04" style="fill:rgba(255,255,255,.2);stroke:rgba(255,255,255,.2);stroke-width:.02" transform="matrix(30 0 0 30 45 41.056)"/><path d="M0 0h1" style="fill:none;stroke:#fff;stroke-width:.1;stroke-linecap:round" transform="matrix(30 0 0 30 45 41.056)"/><path d="M0 .5h13v3L20 0l-7-3.5v3H0z" style="fill:#ccc;stroke:#ccc" transform="translate(87 41.056)"/><path d="M.5.866 0 0h1zm-1 0L0 0l.5.866zM-1 0h1l-.5.866zm.5-.866L0 0h-1zm1 0L0 0l-.5-.866zM1 0H0l.5-.866z" style="fill:#000" transform="matrix(30 0 0 30 148.118 41.056)"/><path d="M-.125.217a.25.25 0 0 0 .25 0M-.25 0a.25.25 0 0 0 .125.217m0-.434A.25.25 0 0 0-.25 0m.375-.217a.25.25 0 0 0-.25 0" style="fill:none;stroke:#e07c1f;stroke-width:.02;stroke-dasharray:.03,.03;stroke-dashoffset:0" transform="matrix(30 0 0 30 148.118 41.056)"/><path d="M0 0h1M0 0l.5.866M0 0l-.5.866M0 0h-1m1 0-.5-.866M0 0l.5-.866" style="fill:none;stroke:rgba(255,255,255,.2);stroke-width:.01" transform="matrix(30 0 0 30 148.118 41.056)"/><circle r=".04" style="fill:rgba(255,255,255,.2);stroke:rgba(255,255,255,.2);stroke-width:.02" transform="matrix(30 0 0 30 148.118 41.056)"/><path d="M0 0h1" style="fill:none;stroke:#fff;stroke-width:.1;stroke-linecap:round" transform="matrix(30 0 0 30 148.118 41.056)"/><path d="M.5.866 0 0h1zm-1 0L0 0l.5.866zM-1 0h1l-.5.866zm.5-.866L0 0h-1zm1 0L0 0l-.5-.866zM1 0H0l.5-.866z" style="fill:#000" transform="matrix(30 0 0 30 249.993 41.056)"/><path d="M.5.866 0 0h1zm0-1.732L0 0l-.5-.866z" style="fill:#214068" transform="matrix(30 0 0 30 249.993 41.056)"/><path d="M0 0h1M0 0l.5.866M0 0l-.5.866M0 0h-1m1 0-.5-.866M0 0l.5-.866" style="fill:none;stroke:rgba(255,255,255,.2);stroke-width:.01" transform="matrix(30 0 0 30 249.993 41.056)"/><circle r=".04" style="fill:rgba(255,255,255,.2);stroke:rgba(255,255,255,.2);stroke-width:.02" transform="matrix(30 0 0 30 249.993 41.056)"/><path d="M0 .5h13v3L20 0l-7-3.5v3H0z" style="fill:#ccc;stroke:#ccc" transform="translate(290.493 41.056)"/><path d="M.5.866 0 0h1zm-1 0L0 0l.5.866zM-1 0h1l-.5.866zm.5-.866L0 0h-1zm1 0L0 0l-.5-.866zM1 0H0l.5-.866z" style="fill:#000" transform="matrix(30 0 0 30 351.611 41.056)"/><path d="M.5.866 0 0h1zm0-1.732L0 0l-.5-.866z" style="fill:#214068" transform="matrix(30 0 0 30 351.611 41.056)"/><path d="M.125.217A.25.25 0 0 0 .25 0M.125-.217a.25.25 0 0 0-.25 0" style="fill:none;stroke:#e07c1f;stroke-width:.02;stroke-dasharray:.03,.03;stroke-dashoffset:0" transform="matrix(30 0 0 30 351.611 41.056)"/><path d="M.22 0a.22.22 0 0 0-.11-.19M.28 0a.28.28 0 0 0-.14-.242" style="fill:none;stroke:#08a4d9;stroke-width:.02" transform="matrix(30 0 0 30 351.611 41.056)"/><path d="M0 0h1M0 0l.5.866M0 0l-.5.866M0 0h-1m1 0-.5-.866M0 0l.5-.866" style="fill:none;stroke:rgba(255,255,255,.2);stroke-width:.01" transform="matrix(30 0 0 30 351.611 41.056)"/><circle r=".04" style="fill:rgba(255,255,255,.2);stroke:rgba(255,255,255,.2);stroke-width:.02" transform="matrix(30 0 0 30 351.611 41.056)"/><path d="M.5.866 0 0h1zm-1 0L0 0l.5.866zM-1 0h1l-.5.866zm.5-.866L0 0h-1zm1 0L0 0l-.5-.866zM1 0H0l.5-.866z" style="fill:#000" transform="matrix(30 0 0 30 46.5 113.167)"/><path d="M.5.866 0 0h1z" style="fill:#214068" transform="matrix(30 0 0 30 46.5 113.167)"/><path d="M.5-.866 0 0l-.5-.866z" style="fill:#09294c" transform="matrix(30 0 0 30 46.5 113.167)"/><path d="M0 0h1M0 0l.5.866M0 0l-.5.866M0 0h-1m1 0-.5-.866M0 0l.5-.866" style="fill:none;stroke:rgba(255,255,255,.2);stroke-width:.01" transform="matrix(30 0 0 30 46.5 113.167)"/><circle r=".04" style="fill:rgba(255,255,255,.2);stroke:rgba(255,255,255,.2);stroke-width:.02" transform="matrix(30 0 0 30 46.5 113.167)"/><path d="M0 .5h13v3L20 0l-7-3.5v3H0z" style="fill:#ccc;stroke:#ccc" transform="translate(87 113.167)"/><path d="M.5.866 0 0h1zm-1 0L0 0l.5.866zM-1 0h1l-.5.866zm.5-.866L0 0h-1zm1 0L0 0l-.5-.866zM1 0H0l.5-.866z" style="fill:#000" transform="matrix(30 0 0 30 148.118 113.167)"/><path d="M.5.866 0 0h1z" style="fill:#214068" transform="matrix(30 0 0 30 148.118 113.167)"/><path d="M.5-.866 0 0l-.5-.866z" style="fill:#09294c" transform="matrix(30 0 0 30 148.118 113.167)"/><path d="M-.125.217a.25.25 0 0 0 .25 0M-.25 0a.25.25 0 0 0 .125.217m0-.434A.25.25 0 0 0-.25 0" style="fill:none;stroke:#e07c1f;stroke-width:.02;stroke-dasharray:.03,.03;stroke-dashoffset:0" transform="matrix(30 0 0 30 148.118 113.167)"/><path d="M.25 0a.25.25 0 0 0-.125-.217" style="fill:none;stroke:red;stroke-width:.02" transform="matrix(30 0 0 30 148.118 113.167)"/><path d="M0 0h1M0 0l.5.866M0 0l-.5.866M0 0h-1m1 0-.5-.866M0 0l.5-.866" style="fill:none;stroke:rgba(255,255,255,.2);stroke-width:.01" transform="matrix(30 0 0 30 148.118 113.167)"/><circle r=".04" style="fill:rgba(255,255,255,.2);stroke:rgba(255,255,255,.2);stroke-width:.02" transform="matrix(30 0 0 30 148.118 113.167)"/><path d="M.5.866 0 0h1zm-1 0L0 0l.5.866zM-1 0h1l-.5.866zm.5-.866L0 0h-1zm1 0L0 0l-.5-.866zM1 0H0l.5-.866z" style="fill:#000" transform="matrix(30 0 0 30 249.993 113.167)"/><path d="M.5.866 0 0h1zm-1-1.732L0 0h-1z" style="fill:#214068" transform="matrix(30 0 0 30 249.993 113.167)"/><path d="M0 0h1M0 0l.5.866M0 0l-.5.866M0 0h-1m1 0-.5-.866M0 0l.5-.866" style="fill:none;stroke:rgba(255,255,255,.2);stroke-width:.01" transform="matrix(30 0 0 30 249.993 113.167)"/><circle r=".04" style="fill:rgba(255,255,255,.2);stroke:rgba(255,255,255,.2);stroke-width:.02" transform="matrix(30 0 0 30 249.993 113.167)"/><path d="M0 .5h13v3L20 0l-7-3.5v3H0z" style="fill:#ccc;stroke:#ccc" transform="translate(290.493 113.167)"/><path d="M.5.866 0 0h1zm-1 0L0 0l.5.866zM-1 0h1l-.5.866zm.5-.866L0 0h-1zm1 0L0 0l-.5-.866zM1 0H0l.5-.866z" style="fill:#000" transform="matrix(30 0 0 30 351.611 113.167)"/><path d="M.5.866 0 0h1zm-1-1.732L0 0h-1z" style="fill:#214068" transform="matrix(30 0 0 30 351.611 113.167)"/><path d="M.125.217A.25.25 0 0 0 .25 0m-.375-.217A.25.25 0 0 0-.25 0" style="fill:none;stroke:#e07c1f;stroke-width:.02;stroke-dasharray:.03,.03;stroke-dashoffset:0" transform="matrix(30 0 0 30 351.611 113.167)"/><path d="M0 0h1M0 0l.5.866M0 0l-.5.866M0 0h-1m1 0-.5-.866M0 0l.5-.866" style="fill:none;stroke:rgba(255,255,255,.2);stroke-width:.01" transform="matrix(30 0 0 30 351.611 113.167)"/><circle r=".04" style="fill:rgba(255,255,255,.2);stroke:rgba(255,255,255,.2);stroke-width:.02" transform="matrix(30 0 0 30 351.611 113.167)"/><path d="M.5.866 0 0h1zm-1 0L0 0l.5.866zM-1 0h1l-.5.866zm.5-.866L0 0h-1zm1 0L0 0l-.5-.866zM1 0H0l.5-.866z" style="fill:#000" transform="matrix(30 0 0 30 46.5 185.279)"/><path d="M.5.866 0 0h1z" style="fill:#214068" transform="matrix(30 0 0 30 46.5 185.279)"/><path d="M-.5-.866 0 0h-1z" style="fill:#09294c" transform="matrix(30 0 0 30 46.5 185.279)"/><path d="M0 0h1M0 0l.5.866M0 0l-.5.866M0 0h-1m1 0-.5-.866M0 0l.5-.866" style="fill:none;stroke:rgba(255,255,255,.2);stroke-width:.01" transform="matrix(30 0 0 30 46.5 185.279)"/><circle r=".04" style="fill:rgba(255,255,255,.2);stroke:rgba(255,255,255,.2);stroke-width:.02" transform="matrix(30 0 0 30 46.5 185.279)"/><path d="M0 .5h13v3L20 0l-7-3.5v3H0z" style="fill:#ccc;stroke:#ccc" transform="translate(87 185.279)"/><path d="M.5.866 0 0h1zm-1 0L0 0l.5.866zM-1 0h1l-.5.866zm.5-.866L0 0h-1zm1 0L0 0l-.5-.866zM1 0H0l.5-.866z" style="fill:#000" transform="matrix(30 0 0 30 148.118 185.279)"/><path d="M.5.866 0 0h1z" style="fill:#214068" transform="matrix(30 0 0 30 148.118 185.279)"/><path d="M-.5-.866 0 0h-1z" style="fill:#09294c" transform="matrix(30 0 0 30 148.118 185.279)"/><path d="M-.125.217a.25.25 0 0 0 .25 0M-.25 0a.25.25 0 0 0 .125.217m.25-.434a.25.25 0 0 0-.25 0M.25 0a.25.25 0 0 0-.125-.217" style="fill:none;stroke:#e07c1f;stroke-width:.02;stroke-dasharray:.03,.03;stroke-dashoffset:0" transform="matrix(30 0 0 30 148.118 185.279)"/><path d="M0 0h1M0 0l.5.866M0 0l-.5.866M0 0h-1m1 0-.5-.866M0 0l.5-.866" style="fill:none;stroke:rgba(255,255,255,.2);stroke-width:.01" transform="matrix(30 0 0 30 148.118 185.279)"/><circle r=".04" style="fill:rgba(255,255,255,.2);stroke:rgba(255,255,255,.2);stroke-width:.02" transform="matrix(30 0 0 30 148.118 185.279)"/><path d="M.5.866 0 0h1zm-1 0L0 0l.5.866zM-1 0h1l-.5.866zm.5-.866L0 0h-1zm1 0L0 0l-.5-.866zM1 0H0l.5-.866z" style="fill:#000" transform="matrix(30 0 0 30 249.993 185.279)"/><path d="M.11.19A.22.22 0 0 0 .22 0M.14.242A.28.28 0 0 0 .28 0" style="fill:none;stroke:#08a4d9;stroke-width:.02" transform="matrix(30 0 0 30 249.993 185.279)"/><path d="M0 0h1M0 0l.5.866M0 0l-.5.866M0 0h-1m1 0-.5-.866M0 0l.5-.866" style="fill:none;stroke:rgba(255,255,255,.2);stroke-width:.01" transform="matrix(30 0 0 30 249.993 185.279)"/><circle r=".04" style="fill:rgba(255,255,255,.2);stroke:rgba(255,255,255,.2);stroke-width:.02" transform="matrix(30 0 0 30 249.993 185.279)"/><path d="M0 .5h13v3L20 0l-7-3.5v3H0z" style="fill:#ccc;stroke:#ccc" transform="translate(290.493 185.279)"/><path d="M.5.866 0 0h1zm-1 0L0 0l.5.866zM-1 0h1l-.5.866zm.5-.866L0 0h-1zm1 0L0 0l-.5-.866zM1 0H0l.5-.866z" style="fill:#000" transform="matrix(30 0 0 30 351.611 185.279)"/><path d="M-.5.866 0 0l.5.866zM1 0H0l.5-.866z" style="fill:#214068" transform="matrix(30 0 0 30 351.611 185.279)"/><path d="M.11.19A.22.22 0 0 0 .22 0M.14.242A.28.28 0 0 0 .28 0" style="fill:none;stroke:#08a4d9;stroke-width:.02" transform="matrix(30 0 0 30 351.611 185.279)"/><path d="M-.125.217a.25.25 0 0 0 .25 0M.25 0a.25.25 0 0 0-.125-.217" style="fill:none;stroke:#e07c1f;stroke-width:.02;stroke-dasharray:.03,.03;stroke-dashoffset:0" transform="matrix(30 0 0 30 351.611 185.279)"/><path d="M0 0h1M0 0l.5.866M0 0l-.5.866M0 0h-1m1 0-.5-.866M0 0l.5-.866" style="fill:none;stroke:rgba(255,255,255,.2);stroke-width:.01" transform="matrix(30 0 0 30 351.611 185.279)"/><circle r=".04" style="fill:rgba(255,255,255,.2);stroke:rgba(255,255,255,.2);stroke-width:.02" transform="matrix(30 0 0 30 351.611 185.279)"/><path d="M.5.866 0 0h1zm-1 0L0 0l.5.866zM-1 0h1l-.5.866zm.5-.866L0 0h-1zm1 0L0 0l-.5-.866zM1 0H0l.5-.866z" style="fill:#000" transform="matrix(30 0 0 30 46.5 257.728)"/><path d="M.11.19A.22.22 0 0 0 .22 0M.14.242A.28.28 0 0 0 .28 0" style="fill:none;stroke:#2a892a;stroke-width:.02;stroke-dasharray:.03,.03;stroke-dashoffset:0" transform="matrix(30 0 0 30 46.5 257.728)"/><path d="M0 0h1M0 0l.5.866M0 0l-.5.866M0 0h-1m1 0-.5-.866M0 0l.5-.866" style="fill:none;stroke:rgba(255,255,255,.2);stroke-width:.01" transform="matrix(30 0 0 30 46.5 257.728)"/><circle r=".04" style="fill:rgba(255,255,255,.2);stroke:rgba(255,255,255,.2);stroke-width:.02" transform="matrix(30 0 0 30 46.5 257.728)"/><path d="M0 .5h13v3L20 0l-7-3.5v3H0z" style="fill:#ccc;stroke:#ccc" transform="translate(87 257.728)"/><path d="M.5.866 0 0h1zm-1 0L0 0l.5.866zM-1 0h1l-.5.866zm.5-.866L0 0h-1zm1 0L0 0l-.5-.866zM1 0H0l.5-.866z" style="fill:#000" transform="matrix(30 0 0 30 148.118 257.728)"/><path d="M.11.19A.22.22 0 0 0 .22 0M.14.242A.28.28 0 0 0 .28 0" style="fill:none;stroke:#2a892a;stroke-width:.02;stroke-dasharray:.03,.03;stroke-dashoffset:0" transform="matrix(30 0 0 30 148.118 257.728)"/><path d="M-.25 0a.25.25 0 0 0 .125.217m0-.434A.25.25 0 0 0-.25 0m.375-.217a.25.25 0 0 0-.25 0" style="fill:none;stroke:#e07c1f;stroke-width:.02;stroke-dasharray:.03,.03;stroke-dashoffset:0" transform="matrix(30 0 0 30 148.118 257.728)"/><path d="M0 0h1M0 0l.5.866M0 0l-.5.866M0 0h-1m1 0-.5-.866M0 0l.5-.866" style="fill:none;stroke:rgba(255,255,255,.2);stroke-width:.01" transform="matrix(30 0 0 30 148.118 257.728)"/><circle r=".04" style="fill:rgba(255,255,255,.2);stroke:rgba(255,255,255,.2);stroke-width:.02" transform="matrix(30 0 0 30 148.118 257.728)"/><path d="M.5.866 0 0h1zm-1 0L0 0l.5.866zM-1 0h1l-.5.866zm.5-.866L0 0h-1zm1 0L0 0l-.5-.866zM1 0H0l.5-.866z" style="fill:#000" transform="matrix(30 0 0 30 249.993 257.39)"/><path d="M.5.866 0 0h1zm-1-1.732L0 0h-1z" style="fill:#214068" transform="matrix(30 0 0 30 249.993 257.39)"/><path d="M-.125-.217A.25.25 0 0 0-.25 0" style="fill:none;stroke:#e07c1f;stroke-width:.02;stroke-dasharray:.03,.03;stroke-dashoffset:0" transform="matrix(30 0 0 30 249.993 257.39)"/><path d="M0 0h1M0 0l.5.866M0 0l-.5.866M0 0h-1m1 0-.5-.866M0 0l.5-.866" style="fill:none;stroke:rgba(255,255,255,.2);stroke-width:.01" transform="matrix(30 0 0 30 249.993 257.39)"/><circle r=".04" style="fill:rgba(255,255,255,.2);stroke:rgba(255,255,255,.2);stroke-width:.02" transform="matrix(30 0 0 30 249.993 257.39)"/><path d="m0 0 .5.866" style="fill:none;stroke:red;stroke-width:.05;stroke-linecap:round" transform="matrix(30 0 0 30 249.993 257.39)"/><path d="M0 .5h13v3L20 0l-7-3.5v3H0z" style="fill:#ccc;stroke:#ccc" transform="translate(290.493 257.728)"/><path d="M.5.866 0 0h1zm-1 0L0 0l.5.866zM-1 0h1l-.5.866zm.5-.866L0 0h-1zm1 0L0 0l-.5-.866zM1 0H0l.5-.866z" style="fill:#000" transform="matrix(30 0 0 30 351.611 257.39)"/><path d="M-.5.866 0 0l.5.866zm0-1.732L0 0h-1zM.5.866 0 0h1z" style="fill:#214068" transform="matrix(30 0 0 30 351.611 257.39)"/><path d="M-.22 0a.22.22 0 0 0 .11.19M-.28 0a.28.28 0 0 0 .14.242" style="fill:none;stroke:#08a4d9;stroke-width:.02" transform="matrix(30 0 0 30 351.611 257.39)"/><path d="M-.125-.217A.25.25 0 0 0-.25 0" style="fill:none;stroke:#e07c1f;stroke-width:.02;stroke-dasharray:.03,.03;stroke-dashoffset:0" transform="matrix(30 0 0 30 351.611 257.39)"/><path d="M0 0h1M0 0l.5.866M0 0l-.5.866M0 0h-1m1 0-.5-.866M0 0l.5-.866" style="fill:none;stroke:rgba(255,255,255,.2);stroke-width:.01" transform="matrix(30 0 0 30 351.611 257.39)"/><circle r=".04" style="fill:rgba(255,255,255,.2);stroke:rgba(255,255,255,.2);stroke-width:.02" transform="matrix(30 0 0 30 351.611 257.39)"/><path d="m0 0 .5.866" style="fill:none;stroke:red;stroke-width:.05;stroke-linecap:round" transform="matrix(30 0 0 30 351.611 257.39)"/><path d="M.5.866 0 0h1zm-1 0L0 0l.5.866zM-1 0h1l-.5.866zm.5-.866L0 0h-1zm1 0L0 0l-.5-.866zM1 0H0l.5-.866z" style="fill:#000" transform="matrix(30 0 0 30 46.5 330.852)"/><path d="M.5.866 0 0h1z" style="fill:#214068" transform="matrix(30 0 0 30 46.5 330.852)"/><path d="M-.5-.866 0 0h-1z" style="fill:#09294c" transform="matrix(30 0 0 30 46.5 330.852)"/><path d="M.125.217A.25.25 0 0 0 .25 0" style="fill:none;stroke:#e07c1f;stroke-width:.02;stroke-dasharray:.03,.03;stroke-dashoffset:0" transform="matrix(30 0 0 30 46.5 330.852)"/><path d="M0 0h1M0 0l.5.866M0 0l-.5.866M0 0h-1m1 0-.5-.866M0 0l.5-.866" style="fill:none;stroke:rgba(255,255,255,.2);stroke-width:.01" transform="matrix(30 0 0 30 46.5 330.852)"/><circle r=".04" style="fill:rgba(255,255,255,.2);stroke:rgba(255,255,255,.2);stroke-width:.02" transform="matrix(30 0 0 30 46.5 330.852)"/><path d="m0 0-.5.866M0 0l.5-.866" style="fill:none;stroke:red;stroke-width:.05;stroke-linecap:round" transform="matrix(30 0 0 30 46.5 330.852)"/><path d="M0 .5h13v3L20 0l-7-3.5v3H0z" style="fill:#ccc;stroke:#ccc" transform="translate(87 330.852)"/><path d="M.5.866 0 0h1zm-1 0L0 0l.5.866zM-1 0h1l-.5.866zm.5-.866L0 0h-1zm1 0L0 0l-.5-.866zM1 0H0l.5-.866z" style="fill:#000" transform="matrix(30 0 0 30 148.118 330.852)"/><path d="M.5.866 0 0h1z" style="fill:#214068" transform="matrix(30 0 0 30 148.118 330.852)"/><path d="M-.5-.866 0 0h-1z" style="fill:#09294c" transform="matrix(30 0 0 30 148.118 330.852)"/><path d="M.125.217A.25.25 0 0 0 .25 0" style="fill:none;stroke:#e07c1f;stroke-width:.02;stroke-dasharray:.03,.03;stroke-dashoffset:0" transform="matrix(30 0 0 30 148.118 330.852)"/><path d="M-.11-.19A.22.22 0 0 0-.22 0m.08-.242A.28.28 0 0 0-.28 0" style="fill:none;stroke:#2a892a;stroke-width:.02;stroke-dasharray:.03,.03;stroke-dashoffset:0" transform="matrix(30 0 0 30 148.118 330.852)"/><path d="M0 0h1M0 0l.5.866M0 0l-.5.866M0 0h-1m1 0-.5-.866M0 0l.5-.866" style="fill:none;stroke:rgba(255,255,255,.2);stroke-width:.01" transform="matrix(30 0 0 30 148.118 330.852)"/><circle r=".04" style="fill:rgba(255,255,255,.2);stroke:rgba(255,255,255,.2);stroke-width:.02" transform="matrix(30 0 0 30 148.118 330.852)"/><path d="m0 0-.5.866M0 0l.5-.866" style="fill:none;stroke:red;stroke-width:.05;stroke-linecap:round" transform="matrix(30 0 0 30 148.118 330.852)"/><path d="M.5.866 0 0h1zm-1 0L0 0l.5.866zM-1 0h1l-.5.866zm.5-.866L0 0h-1zm1 0L0 0l-.5-.866zM1 0H0l.5-.866z" style="fill:#000" transform="matrix(30 0 0 30 249.993 330.514)"/><path d="M.5.866 0 0h1zm0-1.732L0 0l-.5-.866z" style="fill:#214068" transform="matrix(30 0 0 30 249.993 330.514)"/><path d="M.125-.217a.25.25 0 0 0-.25 0" style="fill:none;stroke:#e07c1f;stroke-width:.02;stroke-dasharray:.03,.03;stroke-dashoffset:0" transform="matrix(30 0 0 30 249.993 330.514)"/><path d="M.22 0a.22.22 0 0 0-.11-.19M.28 0a.28.28 0 0 0-.14-.242" style="fill:none;stroke:#08a4d9;stroke-width:.02" transform="matrix(30 0 0 30 249.993 330.514)"/><path d="M0 0h1M0 0l.5.866M0 0l-.5.866M0 0h-1m1 0-.5-.866M0 0l.5-.866" style="fill:none;stroke:rgba(255,255,255,.2);stroke-width:.01" transform="matrix(30 0 0 30 249.993 330.514)"/><circle r=".04" style="fill:rgba(255,255,255,.2);stroke:rgba(255,255,255,.2);stroke-width:.02" transform="matrix(30 0 0 30 249.993 330.514)"/><path d="m0 0 .5.866" style="fill:none;stroke:red;stroke-width:.05;stroke-linecap:round" transform="matrix(30 0 0 30 249.993 330.514)"/><path d="M0 .5h13v3L20 0l-7-3.5v3H0z" style="fill:#ccc;stroke:#ccc" transform="translate(290.493 330.852)"/><path d="M.5.866 0 0h1zm-1 0L0 0l.5.866zM-1 0h1l-.5.866zm.5-.866L0 0h-1zm1 0L0 0l-.5-.866zM1 0H0l.5-.866z" style="fill:#000" transform="matrix(30 0 0 30 351.611 330.514)"/><path d="M-.5.866 0 0l.5.866zm1-1.732L0 0l-.5-.866zM.5.866 0 0h1z" style="fill:#214068" transform="matrix(30 0 0 30 351.611 330.514)"/><path d="M.125-.217a.25.25 0 0 0-.25 0" style="fill:none;stroke:#e07c1f;stroke-width:.02;stroke-dasharray:.03,.03;stroke-dashoffset:0" transform="matrix(30 0 0 30 351.611 330.514)"/><path d="M.22 0a.22.22 0 0 0-.11-.19M.28 0a.28.28 0 0 0-.14-.242" style="fill:none;stroke:#08a4d9;stroke-width:.02" transform="matrix(30 0 0 30 351.611 330.514)"/><path d="M0 0h1M0 0l.5.866M0 0l-.5.866M0 0h-1m1 0-.5-.866M0 0l.5-.866" style="fill:none;stroke:rgba(255,255,255,.2);stroke-width:.01" transform="matrix(30 0 0 30 351.611 330.514)"/><circle r=".04" style="fill:rgba(255,255,255,.2);stroke:rgba(255,255,255,.2);stroke-width:.02" transform="matrix(30 0 0 30 351.611 330.514)"/><path d="m0 0 .5.866" style="fill:none;stroke:red;stroke-width:.05;stroke-linecap:round" transform="matrix(30 0 0 30 351.611 330.514)"/><path d="M.5.866 0 0h1zm-1 0L0 0l.5.866zM-1 0h1l-.5.866zm.5-.866L0 0h-1zm1 0L0 0l-.5-.866zM1 0H0l.5-.866z" style="fill:#000" transform="matrix(30 0 0 30 45.75 404.313)"/><path d="M.5.866 0 0h1zm0-1.732L0 0l-.5-.866z" style="fill:#214068" transform="matrix(30 0 0 30 45.75 404.313)"/><path d="M-.125.217a.25.25 0 0 0 .25 0" style="fill:none;stroke:#e07c1f;stroke-width:.02;stroke-dasharray:.03,.03;stroke-dashoffset:0" transform="matrix(30 0 0 30 45.75 404.313)"/><path d="M-.22 0a.22.22 0 0 0 .11.19M-.28 0a.28.28 0 0 0 .14.242" style="fill:none;stroke:#2a892a;stroke-width:.02;stroke-dasharray:.03,.03;stroke-dashoffset:0" transform="matrix(30 0 0 30 45.75 404.313)"/><path d="M0 0h1M0 0l.5.866M0 0l-.5.866M0 0h-1m1 0-.5-.866M0 0l.5-.866" style="fill:none;stroke:rgba(255,255,255,.2);stroke-width:.01" transform="matrix(30 0 0 30 45.75 404.313)"/><circle r=".04" style="fill:rgba(255,255,255,.2);stroke:rgba(255,255,255,.2);stroke-width:.02" transform="matrix(30 0 0 30 45.75 404.313)"/><path d="M0 0h1M0 0l.5-.866" style="fill:none;stroke:red;stroke-width:.05;stroke-linecap:round" transform="matrix(30 0 0 30 45.75 404.313)"/><path d="M0 .5h13v3L20 0l-7-3.5v3H0z" style="fill:#ccc;stroke:#ccc" transform="translate(87 403.976)"/><path d="M.5.866 0 0h1zm-1 0L0 0l.5.866zM-1 0h1l-.5.866zm.5-.866L0 0h-1zm1 0L0 0l-.5-.866zM1 0H0l.5-.866z" style="fill:#000" transform="matrix(30 0 0 30 148.118 404.313)"/><path d="M.5.866 0 0h1zm0-1.732L0 0l-.5-.866z" style="fill:#214068" transform="matrix(30 0 0 30 148.118 404.313)"/><path d="M-.125.217a.25.25 0 0 0 .25 0" style="fill:none;stroke:#e07c1f;stroke-width:.02;stroke-dasharray:.03,.03;stroke-dashoffset:0" transform="matrix(30 0 0 30 148.118 404.313)"/><path d="M-.22 0a.22.22 0 0 0 .11.19M-.28 0a.28.28 0 0 0 .14.242m.03-.432A.22.22 0 0 0-.22 0m.08-.242A.28.28 0 0 0-.28 0" style="fill:none;stroke:#2a892a;stroke-width:.02;stroke-dasharray:.03,.03;stroke-dashoffset:0" transform="matrix(30 0 0 30 148.118 404.313)"/><path d="M0 0h1M0 0l.5.866M0 0l-.5.866M0 0h-1m1 0-.5-.866M0 0l.5-.866" style="fill:none;stroke:rgba(255,255,255,.2);stroke-width:.01" transform="matrix(30 0 0 30 148.118 404.313)"/><circle r=".04" style="fill:rgba(255,255,255,.2);stroke:rgba(255,255,255,.2);stroke-width:.02" transform="matrix(30 0 0 30 148.118 404.313)"/><path d="M0 0h1M0 0l.5-.866" style="fill:none;stroke:red;stroke-width:.05;stroke-linecap:round" transform="matrix(30 0 0 30 148.118 404.313)"/><path d="M.5.866 0 0h1zm-1 0L0 0l.5.866zM-1 0h1l-.5.866zm.5-.866L0 0h-1zm1 0L0 0l-.5-.866zM1 0H0l.5-.866z" style="fill:#000" transform="matrix(30 0 0 30 249.993 403.638)"/><path d="M.5.866 0 0h1z" style="fill:#214068" transform="matrix(30 0 0 30 249.993 403.638)"/><path d="M.5-.866 0 0l-.5-.866z" style="fill:#09294c" transform="matrix(30 0 0 30 249.993 403.638)"/><path d="M-.25 0a.25.25 0 0 0 .125.217m0-.434A.25.25 0 0 0-.25 0" style="fill:none;stroke:#e07c1f;stroke-width:.02;stroke-dasharray:.03,.03;stroke-dashoffset:0" transform="matrix(30 0 0 30 249.993 403.638)"/><path d="M.25 0a.25.25 0 0 0-.125-.217" style="fill:none;stroke:red;stroke-width:.02" transform="matrix(30 0 0 30 249.993 403.638)"/><path d="M0 0h1M0 0l.5.866M0 0l-.5.866M0 0h-1m1 0-.5-.866M0 0l.5-.866" style="fill:none;stroke:rgba(255,255,255,.2);stroke-width:.01" transform="matrix(30 0 0 30 249.993 403.638)"/><circle r=".04" style="fill:rgba(255,255,255,.2);stroke:rgba(255,255,255,.2);stroke-width:.02" transform="matrix(30 0 0 30 249.993 403.638)"/><path d="m0 0 .5.866" style="fill:none;stroke:red;stroke-width:.05;stroke-linecap:round" transform="matrix(30 0 0 30 249.993 403.638)"/><path d="M0 .5h13v3L20 0l-7-3.5v3H0z" style="fill:#ccc;stroke:#ccc" transform="translate(290.493 403.976)"/><path d="M.5.866 0 0h1zm-1 0L0 0l.5.866zM-1 0h1l-.5.866zm.5-.866L0 0h-1zm1 0L0 0l-.5-.866zM1 0H0l.5-.866z" style="fill:#000" transform="matrix(30 0 0 30 351.611 403.638)"/><path d="M-.5.866 0 0l.5.866zm1 0L0 0h1z" style="fill:#214068" transform="matrix(30 0 0 30 351.611 403.638)"/><path d="M.5-.866 0 0l-.5-.866z" style="fill:#09294c" transform="matrix(30 0 0 30 351.611 403.638)"/><path d="M-.25 0a.25.25 0 0 0 .125.217m0-.434A.25.25 0 0 0-.25 0" style="fill:none;stroke:#e07c1f;stroke-width:.02;stroke-dasharray:.03,.03;stroke-dashoffset:0" transform="matrix(30 0 0 30 351.611 403.638)"/><path d="M.25 0a.25.25 0 0 0-.125-.217" style="fill:none;stroke:red;stroke-width:.02" transform="matrix(30 0 0 30 351.611 403.638)"/><path d="M0 0h1M0 0l.5.866M0 0l-.5.866M0 0h-1m1 0-.5-.866M0 0l.5-.866" style="fill:none;stroke:rgba(255,255,255,.2);stroke-width:.01" transform="matrix(30 0 0 30 351.611 403.638)"/><circle r=".04" style="fill:rgba(255,255,255,.2);stroke:rgba(255,255,255,.2);stroke-width:.02" transform="matrix(30 0 0 30 351.611 403.638)"/><path d="m0 0 .5.866" style="fill:none;stroke:red;stroke-width:.05;stroke-linecap:round" transform="matrix(30 0 0 30 351.611 403.638)"/><path d="M.5.866 0 0h1zm-1 0L0 0l.5.866zM-1 0h1l-.5.866zm.5-.866L0 0h-1zm1 0L0 0l-.5-.866zM1 0H0l.5-.866z" style="fill:#000" transform="matrix(30 0 0 30 45.75 476.762)"/><path d="M.5.866 0 0h1z" style="fill:#214068" transform="matrix(30 0 0 30 45.75 476.762)"/><path d="M-.5-.866 0 0h-1z" style="fill:#09294c" transform="matrix(30 0 0 30 45.75 476.762)"/><path d="M-.125.217a.25.25 0 0 0 .25 0M-.25 0a.25.25 0 0 0 .125.217m.25-.434a.25.25 0 0 0-.25 0" style="fill:none;stroke:#e07c1f;stroke-width:.02;stroke-dasharray:.03,.03;stroke-dashoffset:0" transform="matrix(30 0 0 30 45.75 476.762)"/><path d="M0 0h1M0 0l.5.866M0 0l-.5.866M0 0h-1m1 0-.5-.866M0 0l.5-.866" style="fill:none;stroke:rgba(255,255,255,.2);stroke-width:.01" transform="matrix(30 0 0 30 45.75 476.762)"/><circle r=".04" style="fill:rgba(255,255,255,.2);stroke:rgba(255,255,255,.2);stroke-width:.02" transform="matrix(30 0 0 30 45.75 476.762)"/><path d="M0 0h1" style="fill:none;stroke:red;stroke-width:.05;stroke-linecap:round" transform="matrix(30 0 0 30 45.75 476.762)"/><path d="M0 .5h13v3L20 0l-7-3.5v3H0z" style="fill:#ccc;stroke:#ccc" transform="translate(87 476.762)"/><path d="M.5.866 0 0h1zm-1 0L0 0l.5.866zM-1 0h1l-.5.866zm.5-.866L0 0h-1zm1 0L0 0l-.5-.866zM1 0H0l.5-.866z" style="fill:#000" transform="matrix(30 0 0 30 148.118 476.762)"/><path d="M-.5-.866 0 0h-1z" style="fill:#214068" transform="matrix(30 0 0 30 148.118 476.762)"/><path d="M1 0H0l.5-.866zM.5.866 0 0h1z" style="fill:#09294c" transform="matrix(30 0 0 30 148.118 476.762)"/><path d="M-.125.217a.25.25 0 0 0 .25 0M-.25 0a.25.25 0 0 0 .125.217" style="fill:none;stroke:#e07c1f;stroke-width:.02;stroke-dasharray:.03,.03;stroke-dashoffset:0" transform="matrix(30 0 0 30 148.118 476.762)"/><path d="M.125-.217a.25.25 0 0 0-.25 0" style="fill:none;stroke:red;stroke-width:.02" transform="matrix(30 0 0 30 148.118 476.762)"/><path d="M0 0h1M0 0l.5.866M0 0l-.5.866M0 0h-1m1 0-.5-.866M0 0l.5-.866" style="fill:none;stroke:rgba(255,255,255,.2);stroke-width:.01" transform="matrix(30 0 0 30 148.118 476.762)"/><circle r=".04" style="fill:rgba(255,255,255,.2);stroke:rgba(255,255,255,.2);stroke-width:.02" transform="matrix(30 0 0 30 148.118 476.762)"/><path d="M0 0h1" style="fill:none;stroke:red;stroke-width:.05;stroke-linecap:round" transform="matrix(30 0 0 30 148.118 476.762)"/><path d="M.5.866 0 0h1zm-1 0L0 0l.5.866zM-1 0h1l-.5.866zm.5-.866L0 0h-1zm1 0L0 0l-.5-.866zM1 0H0l.5-.866z" style="fill:#000" transform="matrix(30 0 0 30 249.618 476.425)"/><path d="M.5.866 0 0h1zm-1-1.732L0 0h-1z" style="fill:#214068" transform="matrix(30 0 0 30 249.618 476.425)"/><path d="M.125.217A.25.25 0 0 0 .25 0m-.375-.217A.25.25 0 0 0-.25 0" style="fill:none;stroke:#e07c1f;stroke-width:.02;stroke-dasharray:.03,.03;stroke-dashoffset:0" transform="matrix(30 0 0 30 249.618 476.425)"/><path d="M.11-.19a.22.22 0 0 0-.22 0m.25-.052a.28.28 0 0 0-.28 0" style="fill:none;stroke:#2a892a;stroke-width:.02;stroke-dasharray:.03,.03;stroke-dashoffset:0" transform="matrix(30 0 0 30 249.618 476.425)"/><path d="M0 0h1M0 0l.5.866M0 0l-.5.866M0 0h-1m1 0-.5-.866M0 0l.5-.866" style="fill:none;stroke:rgba(255,255,255,.2);stroke-width:.01" transform="matrix(30 0 0 30 249.618 476.425)"/><circle r=".04" style="fill:rgba(255,255,255,.2);stroke:rgba(255,255,255,.2);stroke-width:.02" transform="matrix(30 0 0 30 249.618 476.425)"/><path d="m0 0-.5.866" style="fill:none;stroke:red;stroke-width:.05;stroke-linecap:round" transform="matrix(30 0 0 30 249.618 476.425)"/><path d="M0 .5h13v3L20 0l-7-3.5v3H0z" style="fill:#ccc;stroke:#ccc" transform="translate(290.118 476.762)"/><path d="M.5.866 0 0h1zm-1 0L0 0l.5.866zM-1 0h1l-.5.866zm.5-.866L0 0h-1zm1 0L0 0l-.5-.866zM1 0H0l.5-.866z" style="fill:#000" transform="matrix(30 0 0 30 351.986 476.425)"/><path d="M-.5.866 0 0l.5.866zm0-1.732L0 0h-1zM.5.866 0 0h1zM-1 0h1l-.5.866z" style="fill:#214068" transform="matrix(30 0 0 30 351.986 476.425)"/><path d="M.11-.19a.22.22 0 0 0-.22 0m.25-.052a.28.28 0 0 0-.28 0M.22 0a.22.22 0 0 0-.11-.19M.28 0a.28.28 0 0 0-.14-.242" style="fill:none;stroke:#2a892a;stroke-width:.02;stroke-dasharray:.03,.03;stroke-dashoffset:0" transform="matrix(30 0 0 30 351.986 476.425)"/><path d="M0 0h1M0 0l.5.866M0 0l-.5.866M0 0h-1m1 0-.5-.866M0 0l.5-.866" style="fill:none;stroke:rgba(255,255,255,.2);stroke-width:.01" transform="matrix(30 0 0 30 351.986 476.425)"/><circle r=".04" style="fill:rgba(255,255,255,.2);stroke:rgba(255,255,255,.2);stroke-width:.02" transform="matrix(30 0 0 30 351.986 476.425)"/><path d="m0 0 .5.866M0 0l-.5.866M0 0h-1" style="fill:none;stroke:red;stroke-width:.05;stroke-linecap:round" transform="matrix(30 0 0 30 351.986 476.425)"/><path d="M.5.866 0 0h1zm-1 0L0 0l.5.866zM-1 0h1l-.5.866zm.5-.866L0 0h-1zm1 0L0 0l-.5-.866zM1 0H0l.5-.866z" style="fill:#000" transform="matrix(30 0 0 30 46.5 549.549)"/><path d="M.125.217A.25.25 0 0 0 .25 0" style="fill:none;stroke:red;stroke-width:.02" transform="matrix(30 0 0 30 46.5 549.549)"/><path d="M-.25 0a.25.25 0 0 0 .125.217m0-.434A.25.25 0 0 0-.25 0m.375-.217a.25.25 0 0 0-.25 0" style="fill:none;stroke:#e07c1f;stroke-width:.02;stroke-dasharray:.03,.03;stroke-dashoffset:0" transform="matrix(30 0 0 30 46.5 549.549)"/><path d="M0 0h1M0 0l.5.866M0 0l-.5.866M0 0h-1m1 0-.5-.866M0 0l.5-.866" style="fill:none;stroke:rgba(255,255,255,.2);stroke-width:.01" transform="matrix(30 0 0 30 46.5 549.549)"/><circle r=".04" style="fill:rgba(255,255,255,.2);stroke:rgba(255,255,255,.2);stroke-width:.02" transform="matrix(30 0 0 30 46.5 549.549)"/><path d="M0 .5h13v3L20 0l-7-3.5v3H0z" style="fill:#ccc;stroke:#ccc" transform="translate(87 549.549)"/><path d="M.5.866 0 0h1zm-1 0L0 0l.5.866zM-1 0h1l-.5.866zm.5-.866L0 0h-1zm1 0L0 0l-.5-.866zM1 0H0l.5-.866z" style="fill:#000" transform="matrix(30 0 0 30 148.118 549.549)"/><path d="M-.5.866 0 0l.5.866z" style="fill:#214068" transform="matrix(30 0 0 30 148.118 549.549)"/><path d="M1 0H0l.5-.866z" style="fill:#09294c" transform="matrix(30 0 0 30 148.118 549.549)"/><path d="M.125.217A.25.25 0 0 0 .25 0" style="fill:none;stroke:red;stroke-width:.02" transform="matrix(30 0 0 30 148.118 549.549)"/><path d="M-.25 0a.25.25 0 0 0 .125.217m0-.434A.25.25 0 0 0-.25 0m.375-.217a.25.25 0 0 0-.25 0" style="fill:none;stroke:#e07c1f;stroke-width:.02;stroke-dasharray:.03,.03;stroke-dashoffset:0" transform="matrix(30 0 0 30 148.118 549.549)"/><path d="M0 0h1M0 0l.5.866M0 0l-.5.866M0 0h-1m1 0-.5-.866M0 0l.5-.866" style="fill:none;stroke:rgba(255,255,255,.2);stroke-width:.01" transform="matrix(30 0 0 30 148.118 549.549)"/><circle r=".04" style="fill:rgba(255,255,255,.2);stroke:rgba(255,255,255,.2);stroke-width:.02" transform="matrix(30 0 0 30 148.118 549.549)"/><path d="M.5.866 0 0h1zm-1 0L0 0l.5.866zM-1 0h1l-.5.866zm.5-.866L0 0h-1zm1 0L0 0l-.5-.866zM1 0H0l.5-.866z" style="fill:#000" transform="matrix(30 0 0 30 249.993 549.211)"/><path d="M.5.866 0 0h1zm-1-1.732L0 0h-1z" style="fill:#214068" transform="matrix(30 0 0 30 249.993 549.211)"/><path d="M.125.217A.25.25 0 0 0 .25 0m-.375.217a.25.25 0 0 0 .25 0M-.25 0a.25.25 0 0 0 .125.217m0-.434A.25.25 0 0 0-.25 0" style="fill:none;stroke:#e07c1f;stroke-width:.02;stroke-dasharray:.03,.03;stroke-dashoffset:0" transform="matrix(30 0 0 30 249.993 549.211)"/><path d="M0 0h1M0 0l.5.866M0 0l-.5.866M0 0h-1m1 0-.5-.866M0 0l.5-.866" style="fill:none;stroke:rgba(255,255,255,.2);stroke-width:.01" transform="matrix(30 0 0 30 249.993 549.211)"/><circle r=".04" style="fill:rgba(255,255,255,.2);stroke:rgba(255,255,255,.2);stroke-width:.02" transform="matrix(30 0 0 30 249.993 549.211)"/><path d="M0 .5h13v3L20 0l-7-3.5v3H0z" style="fill:#ccc;stroke:#ccc" transform="translate(290.493 549.549)"/><path d="M.5.866 0 0h1zm-1 0L0 0l.5.866zM-1 0h1l-.5.866zm.5-.866L0 0h-1zm1 0L0 0l-.5-.866zM1 0H0l.5-.866z" style="fill:#000" transform="matrix(30 0 0 30 351.611 549.211)"/><path d="M.5.866 0 0h1zm-1-1.732L0 0h-1z" style="fill:#214068" transform="matrix(30 0 0 30 351.611 549.211)"/><path d="M.125.217A.25.25 0 0 0 .25 0m-.375-.217A.25.25 0 0 0-.25 0" style="fill:none;stroke:#e07c1f;stroke-width:.02;stroke-dasharray:.03,.03;stroke-dashoffset:0" transform="matrix(30 0 0 30 351.611 549.211)"/><path d="M0 0h1M0 0l.5.866M0 0l-.5.866M0 0h-1m1 0-.5-.866M0 0l.5-.866" style="fill:none;stroke:rgba(255,255,255,.2);stroke-width:.01" transform="matrix(30 0 0 30 351.611 549.211)"/><circle r=".04" style="fill:rgba(255,255,255,.2);stroke:rgba(255,255,255,.2);stroke-width:.02" transform="matrix(30 0 0 30 351.611 549.211)"/><path d="m0 0-.5.866" style="fill:none;stroke:red;stroke-width:.05;stroke-linecap:round" transform="matrix(30 0 0 30 351.611 549.211)"/><path d="M.5.866 0 0h1zm-1 0L0 0l.5.866zM-1 0h1l-.5.866zm.5-.866L0 0h-1zm1 0L0 0l-.5-.866zM1 0H0l.5-.866z" style="fill:#000" transform="matrix(30 0 0 30 46.5 623.01)"/><path d="M.5.866 0 0h1zm-1-1.732L0 0h-1zm1 0L0 0l-.5-.866z" style="fill:#214068" transform="matrix(30 0 0 30 46.5 623.01)"/><path d="M.125.217A.25.25 0 0 0 .25 0m-.375-.217A.25.25 0 0 0-.25 0m.375-.217a.25.25 0 0 0-.25 0" style="fill:none;stroke:#e07c1f;stroke-width:.02;stroke-dasharray:.03,.03;stroke-dashoffset:0" transform="matrix(30 0 0 30 46.5 623.01)"/><path d="M.22 0a.22.22 0 0 0-.11-.19M.28 0a.28.28 0 0 0-.14-.242" style="fill:none;stroke:#08a4d9;stroke-width:.02" transform="matrix(30 0 0 30 46.5 623.01)"/><path d="M0 0h1M0 0l.5.866M0 0l-.5.866M0 0h-1m1 0-.5-.866M0 0l.5-.866" style="fill:none;stroke:rgba(255,255,255,.2);stroke-width:.01" transform="matrix(30 0 0 30 46.5 623.01)"/><circle r=".04" style="fill:rgba(255,255,255,.2);stroke:rgba(255,255,255,.2);stroke-width:.02" transform="matrix(30 0 0 30 46.5 623.01)"/><path d="M0 .5h13v3L20 0l-7-3.5v3H0z" style="fill:#ccc;stroke:#ccc" transform="translate(87 622.673)"/><path d="M.5.866 0 0h1zm-1 0L0 0l.5.866zM-1 0h1l-.5.866zm.5-.866L0 0h-1zm1 0L0 0l-.5-.866zM1 0H0l.5-.866z" style="fill:#000" transform="matrix(30 0 0 30 148.118 623.01)"/><path d="M.5.866 0 0h1zm-1-1.732L0 0h-1zm1 0L0 0l-.5-.866z" style="fill:#214068" transform="matrix(30 0 0 30 148.118 623.01)"/><path d="M.125.217A.25.25 0 0 0 .25 0" style="fill:none;stroke:#e07c1f;stroke-width:.02;stroke-dasharray:.03,.03;stroke-dashoffset:0" transform="matrix(30 0 0 30 148.118 623.01)"/><path d="M.22 0a.22.22 0 0 0-.11-.19M.28 0a.28.28 0 0 0-.14-.242" style="fill:none;stroke:#08a4d9;stroke-width:.02" transform="matrix(30 0 0 30 148.118 623.01)"/><path d="M0 0h1M0 0l.5.866M0 0l-.5.866M0 0h-1m1 0-.5-.866M0 0l.5-.866" style="fill:none;stroke:rgba(255,255,255,.2);stroke-width:.01" transform="matrix(30 0 0 30 148.118 623.01)"/><circle r=".04" style="fill:rgba(255,255,255,.2);stroke:rgba(255,255,255,.2);stroke-width:.02" transform="matrix(30 0 0 30 148.118 623.01)"/><path d="m0 0-.5-.866" style="fill:none;stroke:red;stroke-width:.05;stroke-linecap:round" transform="matrix(30 0 0 30 148.118 623.01)"/><path d="M.5.866 0 0h1zm-1 0L0 0l.5.866zM-1 0h1l-.5.866zm.5-.866L0 0h-1zm1 0L0 0l-.5-.866zM1 0H0l.5-.866z" style="fill:#000" transform="matrix(30 0 0 30 249.993 622.673)"/><path d="M.5.866 0 0h1zm-1-1.732L0 0h-1z" style="fill:#214068" transform="matrix(30 0 0 30 249.993 622.673)"/><path d="M-.5.866 0 0l.5.866zm1-1.732L0 0l-.5-.866z" style="fill:#224935" transform="matrix(30 0 0 30 249.993 622.673)"/><path d="M.125.217A.25.25 0 0 0 .25 0m-.375.217a.25.25 0 0 0 .25 0m-.25-.434A.25.25 0 0 0-.25 0m.375-.217a.25.25 0 0 0-.25 0" style="fill:none;stroke:#e07c1f;stroke-width:.02;stroke-dasharray:.03,.03;stroke-dashoffset:0" transform="matrix(30 0 0 30 249.993 622.673)"/><path d="M0 0h1M0 0l.5.866M0 0l-.5.866M0 0h-1m1 0-.5-.866M0 0l.5-.866" style="fill:none;stroke:rgba(255,255,255,.2);stroke-width:.01" transform="matrix(30 0 0 30 249.993 622.673)"/><circle r=".04" style="fill:rgba(255,255,255,.2);stroke:rgba(255,255,255,.2);stroke-width:.02" transform="matrix(30 0 0 30 249.993 622.673)"/><path d="M0 .5h13v3L20 0l-7-3.5v3H0z" style="fill:#ccc;stroke:#ccc" transform="translate(290.493 622.673)"/><path d="M.5.866 0 0h1zm-1 0L0 0l.5.866zM-1 0h1l-.5.866zm.5-.866L0 0h-1zm1 0L0 0l-.5-.866zM1 0H0l.5-.866z" style="fill:#000" transform="matrix(30 0 0 30 351.611 622.673)"/><path d="M-.5.866 0 0l.5.866zm1-1.732L0 0l-.5-.866zm-1 0L0 0h-1zM.5.866 0 0h1z" style="fill:#214068" transform="matrix(30 0 0 30 351.611 622.673)"/><path d="M-.22 0a.22.22 0 0 0 .11.19M-.28 0a.28.28 0 0 0 .14.242M.22 0a.22.22 0 0 0-.11-.19M.28 0a.28.28 0 0 0-.14-.242" style="fill:none;stroke:#08a4d9;stroke-width:.02" transform="matrix(30 0 0 30 351.611 622.673)"/><path d="M0 0h1M0 0l.5.866M0 0l-.5.866M0 0h-1m1 0-.5-.866M0 0l.5-.866" style="fill:none;stroke:rgba(255,255,255,.2);stroke-width:.01" transform="matrix(30 0 0 30 351.611 622.673)"/><circle r=".04" style="fill:rgba(255,255,255,.2);stroke:rgba(255,255,255,.2);stroke-width:.02" transform="matrix(30 0 0 30 351.611 622.673)"/><path d="m0 0 .5.866M0 0l-.5-.866" style="fill:none;stroke:red;stroke-width:.05;stroke-linecap:round" transform="matrix(30 0 0 30 351.611 622.673)"/><path d="M.5.866 0 0h1zm-1 0L0 0l.5.866zM-1 0h1l-.5.866zm.5-.866L0 0h-1zm1 0L0 0l-.5-.866zM1 0H0l.5-.866z" style="fill:#000" transform="matrix(30 0 0 30 46.5 696.472)"/><path d="M.5.866 0 0h1z" style="fill:#214068" transform="matrix(30 0 0 30 46.5 696.472)"/><path d="M-.5-.866 0 0h-1zm1 0L0 0l-.5-.866z" style="fill:#09294c" transform="matrix(30 0 0 30 46.5 696.472)"/><path d="M-.125.217a.25.25 0 0 0 .25 0M-.25 0a.25.25 0 0 0 .125.217m0-.434A.25.25 0 0 0-.25 0m.375-.217a.25.25 0 0 0-.25 0" style="fill:none;stroke:#e07c1f;stroke-width:.02;stroke-dasharray:.03,.03;stroke-dashoffset:0" transform="matrix(30 0 0 30 46.5 696.472)"/><path d="M.25 0a.25.25 0 0 0-.125-.217" style="fill:none;stroke:red;stroke-width:.02" transform="matrix(30 0 0 30 46.5 696.472)"/><path d="M0 0h1M0 0l.5.866M0 0l-.5.866M0 0h-1m1 0-.5-.866M0 0l.5-.866" style="fill:none;stroke:rgba(255,255,255,.2);stroke-width:.01" transform="matrix(30 0 0 30 46.5 696.472)"/><circle r=".04" style="fill:rgba(255,255,255,.2);stroke:rgba(255,255,255,.2);stroke-width:.02" transform="matrix(30 0 0 30 46.5 696.472)"/><path d="M0 .5h13v3L20 0l-7-3.5v3H0z" style="fill:#ccc;stroke:#ccc" transform="translate(87 696.134)"/><path d="M.5.866 0 0h1zm-1 0L0 0l.5.866zM-1 0h1l-.5.866zm.5-.866L0 0h-1zm1 0L0 0l-.5-.866zM1 0H0l.5-.866z" style="fill:#000" transform="matrix(30 0 0 30 148.118 696.472)"/><path d="M.5.866 0 0h1z" style="fill:#214068" transform="matrix(30 0 0 30 148.118 696.472)"/><path d="M-.5-.866 0 0h-1zm1 0L0 0l-.5-.866z" style="fill:#09294c" transform="matrix(30 0 0 30 148.118 696.472)"/><path d="M-.125.217a.25.25 0 0 0 .25 0M-.25 0a.25.25 0 0 0 .125.217" style="fill:none;stroke:#e07c1f;stroke-width:.02;stroke-dasharray:.03,.03;stroke-dashoffset:0" transform="matrix(30 0 0 30 148.118 696.472)"/><path d="M.25 0a.25.25 0 0 0-.125-.217" style="fill:none;stroke:red;stroke-width:.02" transform="matrix(30 0 0 30 148.118 696.472)"/><path d="M0 0h1M0 0l.5.866M0 0l-.5.866M0 0h-1m1 0-.5-.866M0 0l.5-.866" style="fill:none;stroke:rgba(255,255,255,.2);stroke-width:.01" transform="matrix(30 0 0 30 148.118 696.472)"/><circle r=".04" style="fill:rgba(255,255,255,.2);stroke:rgba(255,255,255,.2);stroke-width:.02" transform="matrix(30 0 0 30 148.118 696.472)"/><path d="m0 0-.5-.866" style="fill:none;stroke:red;stroke-width:.05;stroke-linecap:round" transform="matrix(30 0 0 30 148.118 696.472)"/><path d="M.5.866 0 0h1zm-1 0L0 0l.5.866zM-1 0h1l-.5.866zm.5-.866L0 0h-1zm1 0L0 0l-.5-.866zM1 0H0l.5-.866z" style="fill:#000" transform="matrix(30 0 0 30 249.993 696.134)"/><path d="M.5.866 0 0h1z" style="fill:#214068" transform="matrix(30 0 0 30 249.993 696.134)"/><path d="M-.5.866 0 0l.5.866z" style="fill:#224935" transform="matrix(30 0 0 30 249.993 696.134)"/><path d="M.5-.866 0 0l-.5-.866z" style="fill:#09294c" transform="matrix(30 0 0 30 249.993 696.134)"/><path d="M-.5-.866 0 0h-1z" style="fill:#0d301f" transform="matrix(30 0 0 30 249.993 696.134)"/><path d="M.125.217A.25.25 0 0 0 .25 0m-.375.217a.25.25 0 0 0 .25 0" style="fill:none;stroke:#e07c1f;stroke-width:.02;stroke-dasharray:.03,.03;stroke-dashoffset:0" transform="matrix(30 0 0 30 249.993 696.134)"/><path d="M-.25 0a.25.25 0 0 0 .125.217" style="fill:none;stroke:red;stroke-width:.02" transform="matrix(30 0 0 30 249.993 696.134)"/><path d="M-.125-.217A.25.25 0 0 0-.25 0m.375-.217a.25.25 0 0 0-.25 0" style="fill:none;stroke:#e07c1f;stroke-width:.02;stroke-dasharray:.03,.03;stroke-dashoffset:0" transform="matrix(30 0 0 30 249.993 696.134)"/><path d="M.25 0a.25.25 0 0 0-.125-.217" style="fill:none;stroke:red;stroke-width:.02" transform="matrix(30 0 0 30 249.993 696.134)"/><path d="M0 0h1M0 0l.5.866M0 0l-.5.866M0 0h-1m1 0-.5-.866M0 0l.5-.866" style="fill:none;stroke:rgba(255,255,255,.2);stroke-width:.01" transform="matrix(30 0 0 30 249.993 696.134)"/><circle r=".04" style="fill:rgba(255,255,255,.2);stroke:rgba(255,255,255,.2);stroke-width:.02" transform="matrix(30 0 0 30 249.993 696.134)"/><path d="M0 .5h13v3L20 0l-7-3.5v3H0z" style="fill:#ccc;stroke:#ccc" transform="translate(290.493 696.134)"/><path d="M.5.866 0 0h1zm-1 0L0 0l.5.866zM-1 0h1l-.5.866zm.5-.866L0 0h-1zm1 0L0 0l-.5-.866zM1 0H0l.5-.866z" style="fill:#000" transform="matrix(30 0 0 30 351.611 696.134)"/><path d="M-.5.866 0 0l.5.866zm1 0L0 0h1z" style="fill:#214068" transform="matrix(30 0 0 30 351.611 696.134)"/><path d="M.5-.866 0 0l-.5-.866zm-1 0L0 0h-1z" style="fill:#09294c" transform="matrix(30 0 0 30 351.611 696.134)"/><path d="M-.25 0a.25.25 0 0 0 .125.217M.25 0a.25.25 0 0 0-.125-.217" style="fill:none;stroke:red;stroke-width:.02" transform="matrix(30 0 0 30 351.611 696.134)"/><path d="M0 0h1M0 0l.5.866M0 0l-.5.866M0 0h-1m1 0-.5-.866M0 0l.5-.866" style="fill:none;stroke:rgba(255,255,255,.2);stroke-width:.01" transform="matrix(30 0 0 30 351.611 696.134)"/><circle r=".04" style="fill:rgba(255,255,255,.2);stroke:rgba(255,255,255,.2);stroke-width:.02" transform="matrix(30 0 0 30 351.611 696.134)"/><path d="m0 0 .5.866M0 0l-.5-.866" style="fill:none;stroke:red;stroke-width:.05;stroke-linecap:round" transform="matrix(30 0 0 30 351.611 696.134)"/><path d="M.5.866 0 0h1zm-1 0L0 0l.5.866zM-1 0h1l-.5.866zm.5-.866L0 0h-1zm1 0L0 0l-.5-.866zM1 0H0l.5-.866z" style="fill:#000" transform="matrix(30 0 0 30 46.5 769.596)"/><path d="M.5.866 0 0h1z" style="fill:#214068" transform="matrix(30 0 0 30 46.5 769.596)"/><path d="M-.5.866 0 0l.5.866zM1 0H0l.5-.866z" style="fill:#224935" transform="matrix(30 0 0 30 46.5 769.596)"/><path d="M.5-.866 0 0l-.5-.866z" style="fill:#09294c" transform="matrix(30 0 0 30 46.5 769.596)"/><path d="M.11.19A.22.22 0 0 0 .22 0M.14.242A.28.28 0 0 0 .28 0" style="fill:none;stroke:#08a4d9;stroke-width:.02" transform="matrix(30 0 0 30 46.5 769.596)"/><path d="M-.125.217a.25.25 0 0 0 .25 0M-.25 0a.25.25 0 0 0 .125.217m0-.434A.25.25 0 0 0-.25 0m.375-.217a.25.25 0 0 0-.25 0" style="fill:none;stroke:#e07c1f;stroke-width:.02;stroke-dasharray:.03,.03;stroke-dashoffset:0" transform="matrix(30 0 0 30 46.5 769.596)"/><path d="M.25 0a.25.25 0 0 0-.125-.217" style="fill:none;stroke:red;stroke-width:.02" transform="matrix(30 0 0 30 46.5 769.596)"/><path d="M0 0h1M0 0l.5.866M0 0l-.5.866M0 0h-1m1 0-.5-.866M0 0l.5-.866" style="fill:none;stroke:rgba(255,255,255,.2);stroke-width:.01" transform="matrix(30 0 0 30 46.5 769.596)"/><circle r=".04" style="fill:rgba(255,255,255,.2);stroke:rgba(255,255,255,.2);stroke-width:.02" transform="matrix(30 0 0 30 46.5 769.596)"/><path d="M0 .5h13v3L20 0l-7-3.5v3H0z" style="fill:#ccc;stroke:#ccc" transform="translate(87 769.259)"/><path d="M.5.866 0 0h1zm-1 0L0 0l.5.866zM-1 0h1l-.5.866zm.5-.866L0 0h-1zm1 0L0 0l-.5-.866zM1 0H0l.5-.866z" style="fill:#000" transform="matrix(30 0 0 30 148.118 769.596)"/><path d="M.5.866 0 0h1z" style="fill:#214068" transform="matrix(30 0 0 30 148.118 769.596)"/><path d="M-.5.866 0 0l.5.866zM1 0H0l.5-.866z" style="fill:#224935" transform="matrix(30 0 0 30 148.118 769.596)"/><path d="M-.5-.866 0 0h-1zm1 0L0 0l-.5-.866z" style="fill:#09294c" transform="matrix(30 0 0 30 148.118 769.596)"/><path d="M.11.19A.22.22 0 0 0 .22 0M.14.242A.28.28 0 0 0 .28 0" style="fill:none;stroke:#08a4d9;stroke-width:.02" transform="matrix(30 0 0 30 148.118 769.596)"/><path d="M-.125.217a.25.25 0 0 0 .25 0M-.25 0a.25.25 0 0 0 .125.217" style="fill:none;stroke:#e07c1f;stroke-width:.02;stroke-dasharray:.03,.03;stroke-dashoffset:0" transform="matrix(30 0 0 30 148.118 769.596)"/><path d="M.25 0a.25.25 0 0 0-.125-.217" style="fill:none;stroke:red;stroke-width:.02" transform="matrix(30 0 0 30 148.118 769.596)"/><path d="M0 0h1M0 0l.5.866M0 0l-.5.866M0 0h-1m1 0-.5-.866M0 0l.5-.866" style="fill:none;stroke:rgba(255,255,255,.2);stroke-width:.01" transform="matrix(30 0 0 30 148.118 769.596)"/><circle r=".04" style="fill:rgba(255,255,255,.2);stroke:rgba(255,255,255,.2);stroke-width:.02" transform="matrix(30 0 0 30 148.118 769.596)"/><path d="m0 0-.5-.866" style="fill:none;stroke:red;stroke-width:.05;stroke-linecap:round" transform="matrix(30 0 0 30 148.118 769.596)"/></svg>