<svg xmlns="http://www.w3.org/2000/svg" width="386" height="1106" aria-hidden="true" style="pointer-events:none;position:absolute;left:0;top:0;transform-origin:left top;z-index:20"><rect width="376" height="1096" rx="0" ry="0" style="fill:#333"/><path d="M.309.951 0 0h1zM-.809.588 0 0l.309.951zm0-1.176L0 0l-.809.588zM.309-.95 0 0l-.809-.588z" style="fill:#000" transform="matrix(30 0 0 30 40.109 43.578)"/><path d="M.309.951 0 0h1zm0-1.902L0 0l.348-.413z" style="fill:#214068" transform="matrix(30 0 0 30 40.109 43.578)"/><path d="M0 0h1M0 0l.309.951M0 0l-.809.588M0 0l-.809-.588M0 0l.309-.951" style="fill:none;stroke:rgba(255,255,255,.2);stroke-width:.01" transform="matrix(30 0 0 30 40.109 43.578)"/><circle r=".06" style="fill:#222;stroke:rgba(255,255,255,.2);stroke-width:.02" transform="matrix(30 0 0 30 40.109 43.578)"/><path d="M0 .5h13v3L20 0l-7-3.5v3H0z" style="fill:#ccc;stroke:#ccc" transform="translate(80.609 43.578)"/><path d="M.309.951 0 0h1zM-.809.588 0 0l.309.951zm0-1.176L0 0l-.809.588zM.309-.95 0 0l-.809-.588z" style="fill:#000" transform="matrix(30 0 0 30 136.085 43.578)"/><path d="M.309.951 0 0h1zm0-1.902L0 0l.348-.413z" style="fill:#214068" transform="matrix(30 0 0 30 136.085 43.578)"/><path d="M.077.238A.25.25 0 0 0 .25 0" style="fill:none;stroke:#e07c1f;stroke-width:.02;stroke-dasharray:.03,.03;stroke-dashoffset:0" transform="matrix(30 0 0 30 136.085 43.578)"/><path d="M0 0h1M0 0l.309.951M0 0l-.809.588M0 0l-.809-.588M0 0l.309-.951" style="fill:none;stroke:rgba(255,255,255,.2);stroke-width:.01" transform="matrix(30 0 0 30 136.085 43.578)"/><circle r=".06" style="fill:#222;stroke:rgba(255,255,255,.2);stroke-width:.02" transform="matrix(30 0 0 30 136.085 43.578)"/><path d="M.309.951 0 0h1zM-.809.588 0 0l.309.951zm0-1.176L0 0l-.809.588zM.309-.95 0 0l-.809-.588z" style="fill:#000" transform="matrix(30 0 0 30 232.694 43.578)"/><path d="M1 0H0l.5-.203z" style="fill:#214068" transform="matrix(30 0 0 30 232.694 43.578)"/><path d="M.309-.951 0 0l.348-.413z" style="fill:#09294c" transform="matrix(30 0 0 30 232.694 43.578)"/><path d="M0 0h1M0 0l.309.951M0 0l-.809.588M0 0l-.809-.588M0 0l.309-.951" style="fill:none;stroke:rgba(255,255,255,.2);stroke-width:.01" transform="matrix(30 0 0 30 232.694 43.578)"/><circle r=".06" style="fill:#222;stroke:rgba(255,255,255,.2);stroke-width:.02" transform="matrix(30 0 0 30 232.694 43.578)"/><path d="M0 .5h13v3L20 0l-7-3.5v3H0z" style="fill:#ccc;stroke:#ccc" transform="translate(273.194 43.578)"/><path d="M.309.951 0 0h1zM-.809.588 0 0l.309.951zm0-1.176L0 0l-.809.588zM.309-.95 0 0l-.809-.588z" style="fill:#000" transform="matrix(30 0 0 30 328.67 43.578)"/><path d="M1 0H0l.5-.203z" style="fill:#214068" transform="matrix(30 0 0 30 328.67 43.578)"/><path d="M.309-.951 0 0l.348-.413z" style="fill:#09294c" transform="matrix(30 0 0 30 328.67 43.578)"/><path d="M.077.238A.25.25 0 0 0 .25 0" style="fill:none;stroke:#e07c1f;stroke-width:.02;stroke-dasharray:.03,.03;stroke-dashoffset:0" transform="matrix(30 0 0 30 328.67 43.578)"/><path d="M-.202.147a.25.25 0 0 0 .28.09m-.28-.384a.25.25 0 0 0 0 .294m.279-.385a.25.25 0 0 0-.28.091" style="fill:none;stroke:#e07c1f;stroke-width:.02;stroke-dasharray:.03,.03;stroke-dashoffset:0" transform="matrix(30 0 0 30 328.67 43.578)"/><path d="M0 0h1M0 0l.309.951M0 0l-.809.588M0 0l-.809-.588M0 0l.309-.951" style="fill:none;stroke:rgba(255,255,255,.2);stroke-width:.01" transform="matrix(30 0 0 30 328.67 43.578)"/><circle r=".06" style="fill:#222;stroke:rgba(255,255,255,.2);stroke-width:.02" transform="matrix(30 0 0 30 328.67 43.578)"/><path d="M.309.951 0 0h1zM-.809.588 0 0l.309.951zm0-1.176L0 0l-.809.588zM.309-.95 0 0l-.809-.588z" style="fill:#000" transform="matrix(30 0 0 30 39.359 120.734)"/><path d="M.309.951 0 0h1zm0-1.902L0 0l.348-.413z" style="fill:#214068" transform="matrix(30 0 0 30 39.359 120.734)"/><path d="M0 0h1M0 0l.309.951M0 0l-.809.588M0 0l-.809-.588M0 0l.309-.951" style="fill:none;stroke:rgba(255,255,255,.2);stroke-width:.01" transform="matrix(30 0 0 30 39.359 120.734)"/><circle r=".06" style="fill:#222;stroke:rgba(255,255,255,.2);stroke-width:.02" transform="matrix(30 0 0 30 39.359 120.734)"/><path d="M0 0h1" style="fill:none;stroke:red;stroke-width:.05;stroke-linecap:round" transform="matrix(30 0 0 30 39.359 120.734)"/><path d="M0 .5h13v3L20 0l-7-3.5v3H0z" style="fill:#ccc;stroke:#ccc" transform="translate(80.609 120.734)"/><path d="M.309.951 0 0h1zM-.809.588 0 0l.309.951zm0-1.176L0 0l-.809.588zM.309-.95 0 0l-.809-.588z" style="fill:#000" transform="matrix(30 0 0 30 136.085 120.734)"/><path d="M1 0H0l.5-.203zM.309-.951 0 0l.348-.413zm0 1.902L0 0h1z" style="fill:#214068" transform="matrix(30 0 0 30 136.085 120.734)"/><path d="M0 0h1M0 0l.309.951M0 0l-.809.588M0 0l-.809-.588M0 0l.309-.951" style="fill:none;stroke:rgba(255,255,255,.2);stroke-width:.01" transform="matrix(30 0 0 30 136.085 120.734)"/><circle r=".06" style="fill:#222;stroke:rgba(255,255,255,.2);stroke-width:.02" transform="matrix(30 0 0 30 136.085 120.734)"/><path d="M0 0h1" style="fill:none;stroke:red;stroke-width:.05;stroke-linecap:round" transform="matrix(30 0 0 30 136.085 120.734)"/><path d="M.309.951 0 0h1zM-.809.588 0 0l.309.951zm0-1.176L0 0l-.809.588zM.309-.95 0 0l-.809-.588z" style="fill:#000" transform="matrix(30 0 0 30 231.944 120.734)"/><path d="M1 0H0l.5-.203zM.309-.951 0 0l.348-.413z" style="fill:#214068" transform="matrix(30 0 0 30 231.944 120.734)"/><path d="M0 0h1M0 0l.309.951M0 0l-.809.588M0 0l-.809-.588M0 0l.309-.951" style="fill:none;stroke:rgba(255,255,255,.2);stroke-width:.01" transform="matrix(30 0 0 30 231.944 120.734)"/><circle r=".06" style="fill:#222;stroke:rgba(255,255,255,.2);stroke-width:.02" transform="matrix(30 0 0 30 231.944 120.734)"/><path d="M0 0h1" style="fill:none;stroke:red;stroke-width:.05;stroke-linecap:round" transform="matrix(30 0 0 30 231.944 120.734)"/><path d="M0 .5h13v3L20 0l-7-3.5v3H0z" style="fill:#ccc;stroke:#ccc" transform="translate(273.194 120.734)"/><path d="M.309.951 0 0h1zM-.809.588 0 0l.309.951zm0-1.176L0 0l-.809.588zM.309-.95 0 0l-.809-.588z" style="fill:#000" transform="matrix(30 0 0 30 328.67 120.734)"/><path d="M1 0H0l.5-.203zM.309-.951 0 0l.348-.413zm0 1.902L0 0h1z" style="fill:#214068" transform="matrix(30 0 0 30 328.67 120.734)"/><path d="M0 0h1M0 0l.309.951M0 0l-.809.588M0 0l-.809-.588M0 0l.309-.951" style="fill:none;stroke:rgba(255,255,255,.2);stroke-width:.01" transform="matrix(30 0 0 30 328.67 120.734)"/><circle r=".06" style="fill:#222;stroke:rgba(255,255,255,.2);stroke-width:.02" transform="matrix(30 0 0 30 328.67 120.734)"/><path d="M0 0h1" style="fill:none;stroke:red;stroke-width:.05;stroke-linecap:round" transform="matrix(30 0 0 30 328.67 120.734)"/><path d="M.309.951 0 0h1zM-.809.588 0 0l.309.951zm0-1.176L0 0l-.809.588zM.309-.95 0 0l-.809-.588z" style="fill:#000" transform="matrix(30 0 0 30 40.109 197.89)"/><path d="M0 0h1M0 0l.309.951M0 0l-.809.588M0 0l-.809-.588M0 0l.309-.951" style="fill:none;stroke:rgba(255,255,255,.2);stroke-width:.01" transform="matrix(30 0 0 30 40.109 197.89)"/><circle r=".06" style="fill:#222;stroke:rgba(255,255,255,.2);stroke-width:.02" transform="matrix(30 0 0 30 40.109 197.89)"/><circle r=".12" style="fill:none;stroke:red;stroke-width:.03" transform="matrix(30 0 0 30 40.109 197.89)"/><path d="M0 .5h13v3L20 0l-7-3.5v3H0z" style="fill:#ccc;stroke:#ccc" transform="translate(80.609 197.89)"/><path d="M.309.951 0 0h1zM-.809.588 0 0l.309.951zm0-1.176L0 0l-.809.588zM.309-.95 0 0l-.809-.588z" style="fill:#000" transform="matrix(30 0 0 30 136.085 197.89)"/><path d="M1 0H0l.5-.203zM.309-.951 0 0l.348-.413z" style="fill:#214068" transform="matrix(30 0 0 30 136.085 197.89)"/><path d="M0 0h1M0 0l.309.951M0 0l-.809.588M0 0l-.809-.588M0 0l.309-.951" style="fill:none;stroke:rgba(255,255,255,.2);stroke-width:.01" transform="matrix(30 0 0 30 136.085 197.89)"/><circle r=".06" style="fill:#222;stroke:rgba(255,255,255,.2);stroke-width:.02" transform="matrix(30 0 0 30 136.085 197.89)"/><circle r=".12" style="fill:none;stroke:red;stroke-width:.03" transform="matrix(30 0 0 30 136.085 197.89)"/><path d="M.309.951 0 0h1zM-.809.588 0 0l.309.951zm0-1.176L0 0l-.809.588zM.309-.95 0 0l-.809-.588z" style="fill:#000" transform="matrix(30 0 0 30 232.32 197.89)"/><path d="M1 0H0l.5-.203zM.309-.951 0 0l.348-.413zm0 1.902L0 0h1z" style="fill:#214068" transform="matrix(30 0 0 30 232.32 197.89)"/><path d="M.077.238A.25.25 0 0 0 .25 0" style="fill:none;stroke:#e07c1f;stroke-width:.02;stroke-dasharray:.03,.03;stroke-dashoffset:0" transform="matrix(30 0 0 30 232.32 197.89)"/><path d="M0 0h1M0 0l.309.951M0 0l-.809.588M0 0l-.809-.588M0 0l.309-.951" style="fill:none;stroke:rgba(255,255,255,.2);stroke-width:.01" transform="matrix(30 0 0 30 232.32 197.89)"/><circle r=".06" style="fill:#222;stroke:rgba(255,255,255,.2);stroke-width:.02" transform="matrix(30 0 0 30 232.32 197.89)"/><path d="M0 .5h13v3L20 0l-7-3.5v3H0z" style="fill:#ccc;stroke:#ccc" transform="translate(272.82 197.89)"/><path d="M.309.951 0 0h1zM-.809.588 0 0l.309.951zm0-1.176L0 0l-.809.588zM.309-.95 0 0l-.809-.588z" style="fill:#000" transform="matrix(30 0 0 30 328.296 197.89)"/><path d="M1 0H0l.5-.203zM.309-.951 0 0l.348-.413zm0 1.902L0 0h1z" style="fill:#214068" transform="matrix(30 0 0 30 328.296 197.89)"/><path d="M0 0h1M0 0l.309.951M0 0l-.809.588M0 0l-.809-.588M0 0l.309-.951" style="fill:none;stroke:rgba(255,255,255,.2);stroke-width:.01" transform="matrix(30 0 0 30 328.296 197.89)"/><circle r=".06" style="fill:#222;stroke:rgba(255,255,255,.2);stroke-width:.02" transform="matrix(30 0 0 30 328.296 197.89)"/><path d="M0 0h1" style="fill:none;stroke:red;stroke-width:.05;stroke-linecap:round" transform="matrix(30 0 0 30 328.296 197.89)"/><path d="M.309.951 0 0h1zM-.809.588 0 0l.309.951zm0-1.176L0 0l-.809.588zM.309-.95 0 0l-.809-.588z" style="fill:#000" transform="matrix(30 0 0 30 40.109 275.046)"/><path d="M1 0H0l.5-.203zM.309-.951 0 0l.348-.413z" style="fill:#214068" transform="matrix(30 0 0 30 40.109 275.046)"/><path d="M.077.238A.25.25 0 0 0 .25 0" style="fill:none;stroke:#e07c1f;stroke-width:.02;stroke-dasharray:.03,.03;stroke-dashoffset:0" transform="matrix(30 0 0 30 40.109 275.046)"/><path d="M-.178-.13a.22.22 0 0 0 0 .26m-.049-.295a.28.28 0 0 0 0 .33" style="fill:none;stroke:#2a892a;stroke-width:.02;stroke-dasharray:.03,.03;stroke-dashoffset:0" transform="matrix(30 0 0 30 40.109 275.046)"/><path d="M0 0h1M0 0l.309.951M0 0l-.809.588M0 0l-.809-.588M0 0l.309-.951" style="fill:none;stroke:rgba(255,255,255,.2);stroke-width:.01" transform="matrix(30 0 0 30 40.109 275.046)"/><circle r=".06" style="fill:#222;stroke:rgba(255,255,255,.2);stroke-width:.02" transform="matrix(30 0 0 30 40.109 275.046)"/><path d="M0 .5h13v3L20 0l-7-3.5v3H0z" style="fill:#ccc;stroke:#ccc" transform="translate(80.609 275.046)"/><path d="M.309.951 0 0h1zM-.809.588 0 0l.309.951zm0-1.176L0 0l-.809.588zM.309-.95 0 0l-.809-.588z" style="fill:#000" transform="matrix(30 0 0 30 136.085 275.046)"/><path d="M1 0H0l.5-.203zM.309-.951 0 0l.348-.413z" style="fill:#214068" transform="matrix(30 0 0 30 136.085 275.046)"/><path d="M.077.238A.25.25 0 0 0 .25 0" style="fill:none;stroke:#e07c1f;stroke-width:.02;stroke-dasharray:.03,.03;stroke-dashoffset:0" transform="matrix(30 0 0 30 136.085 275.046)"/><path d="M-.178-.13a.22.22 0 0 0 0 .26m-.049-.295a.28.28 0 0 0 0 .33" style="fill:none;stroke:#2a892a;stroke-width:.02;stroke-dasharray:.03,.03;stroke-dashoffset:0" transform="matrix(30 0 0 30 136.085 275.046)"/><path d="M0 0h1M0 0l.309.951M0 0l-.809.588M0 0l-.809-.588M0 0l.309-.951" style="fill:none;stroke:rgba(255,255,255,.2);stroke-width:.01" transform="matrix(30 0 0 30 136.085 275.046)"/><circle r=".06" style="fill:#222;stroke:rgba(255,255,255,.2);stroke-width:.02" transform="matrix(30 0 0 30 136.085 275.046)"/><circle r=".12" style="fill:none;stroke:red;stroke-width:.03" transform="matrix(30 0 0 30 136.085 275.046)"/><path d="M.309.951 0 0h1zM-.809.588 0 0l.309.951zm0-1.176L0 0l-.809.588zM.309-.95 0 0l-.809-.588z" style="fill:#000" transform="matrix(30 0 0 30 232.694 275.046)"/><path d="M.309.951 0 0h1z" style="fill:#214068" transform="matrix(30 0 0 30 232.694 275.046)"/><path d="M1 0H0l.5-.203zM.309-.951 0 0l.348-.413z" style="fill:#224935" transform="matrix(30 0 0 30 232.694 275.046)"/><path d="M.309-.951 0 0l-.809-.588z" style="fill:#09294c" transform="matrix(30 0 0 30 232.694 275.046)"/><path d="M.077.238A.25.25 0 0 0 .25 0" style="fill:none;stroke:#e07c1f;stroke-width:.02;stroke-dasharray:.03,.03;stroke-dashoffset:0" transform="matrix(30 0 0 30 232.694 275.046)"/><path d="M0 0h1M0 0l.309.951M0 0l-.809.588M0 0l-.809-.588M0 0l.309-.951" style="fill:none;stroke:rgba(255,255,255,.2);stroke-width:.01" transform="matrix(30 0 0 30 232.694 275.046)"/><circle r=".06" style="fill:#222;stroke:rgba(255,255,255,.2);stroke-width:.02" transform="matrix(30 0 0 30 232.694 275.046)"/><circle r=".12" style="fill:none;stroke:red;stroke-width:.03" transform="matrix(30 0 0 30 232.694 275.046)"/><path d="m0 0-.809.588" style="fill:none;stroke:red;stroke-width:.05;stroke-linecap:round" transform="matrix(30 0 0 30 232.694 275.046)"/><path d="M0 .5h13v3L20 0l-7-3.5v3H0z" style="fill:#ccc;stroke:#ccc" transform="translate(273.194 275.046)"/><path d="M.309.951 0 0h1zM-.809.588 0 0l.309.951zm0-1.176L0 0l-.809.588zM.309-.95 0 0l-.809-.588z" style="fill:#000" transform="matrix(30 0 0 30 329.333 275.046)"/><path d="M.309.951 0 0h1z" style="fill:#214068" transform="matrix(30 0 0 30 329.333 275.046)"/><path d="M1 0H0l.5-.203zM.309-.951 0 0l.348-.413z" style="fill:#224935" transform="matrix(30 0 0 30 329.333 275.046)"/><path d="M.309-.951 0 0l-.809-.588z" style="fill:#09294c" transform="matrix(30 0 0 30 329.333 275.046)"/><path d="M.077.238A.25.25 0 0 0 .25 0" style="fill:none;stroke:#e07c1f;stroke-width:.02;stroke-dasharray:.03,.03;stroke-dashoffset:0" transform="matrix(30 0 0 30 329.333 275.046)"/><path d="M.068-.21a.22.22 0 0 0-.246.08m.265-.136a.28.28 0 0 0-.314.101" style="fill:none;stroke:#2a892a;stroke-width:.02;stroke-dasharray:.03,.03;stroke-dashoffset:0" transform="matrix(30 0 0 30 329.333 275.046)"/><path d="M0 0h1M0 0l.309.951M0 0l-.809.588M0 0l-.809-.588M0 0l.309-.951" style="fill:none;stroke:rgba(255,255,255,.2);stroke-width:.01" transform="matrix(30 0 0 30 329.333 275.046)"/><circle r=".06" style="fill:#222;stroke:rgba(255,255,255,.2);stroke-width:.02" transform="matrix(30 0 0 30 329.333 275.046)"/><circle r=".12" style="fill:none;stroke:red;stroke-width:.03" transform="matrix(30 0 0 30 329.333 275.046)"/><path d="m0 0-.809.588" style="fill:none;stroke:red;stroke-width:.05;stroke-linecap:round" transform="matrix(30 0 0 30 329.333 275.046)"/><path d="M.309.951 0 0h1zM-.809.588 0 0l.309.951zm0-1.176L0 0l-.809.588zM.309-.95 0 0l-.809-.588z" style="fill:#000" transform="matrix(30 0 0 30 39.734 352.202)"/><path d="M.309.951 0 0h1zm0-1.902L0 0l.348-.413z" style="fill:#214068" transform="matrix(30 0 0 30 39.734 352.202)"/><path d="M-.809-.588 0 0l-.809.588zM1 0H0l.5-.203z" style="fill:#224935" transform="matrix(30 0 0 30 39.734 352.202)"/><path d="M.077.238A.25.25 0 0 0 .25 0m-.452-.147a.25.25 0 0 0 0 .294" style="fill:none;stroke:#e07c1f;stroke-width:.02;stroke-dasharray:.03,.03;stroke-dashoffset:0" transform="matrix(30 0 0 30 39.734 352.202)"/><path d="M0 0h1M0 0l.309.951M0 0l-.809.588M0 0l-.809-.588M0 0l.309-.951" style="fill:none;stroke:rgba(255,255,255,.2);stroke-width:.01" transform="matrix(30 0 0 30 39.734 352.202)"/><circle r=".06" style="fill:#222;stroke:rgba(255,255,255,.2);stroke-width:.02" transform="matrix(30 0 0 30 39.734 352.202)"/><path d="M0 .5h13v3L20 0l-7-3.5v3H0z" style="fill:#ccc;stroke:#ccc" transform="translate(80.234 352.202)"/><path d="M.309.951 0 0h1zM-.809.588 0 0l.309.951zm0-1.176L0 0l-.809.588zM.309-.95 0 0l-.809-.588z" style="fill:#000" transform="matrix(30 0 0 30 135.71 352.202)"/><path d="M1 0H0l.5-.203zM.309-.951 0 0l.348-.413zm-1.118.363L0 0l-.809.588zM.309.952 0 0h1z" style="fill:#214068" transform="matrix(30 0 0 30 135.71 352.202)"/><path d="M-.178.13a.22.22 0 0 0 .246.08M-.227.164a.28.28 0 0 0 .314.101" style="fill:none;stroke:#08a4d9;stroke-width:.02" transform="matrix(30 0 0 30 135.71 352.202)"/><path d="M-.202-.147a.25.25 0 0 0 0 .294" style="fill:none;stroke:#e07c1f;stroke-width:.02;stroke-dasharray:.03,.03;stroke-dashoffset:0" transform="matrix(30 0 0 30 135.71 352.202)"/><path d="M.068-.21a.22.22 0 0 0-.246.08m.265-.136a.28.28 0 0 0-.314.101" style="fill:none;stroke:#08a4d9;stroke-width:.02" transform="matrix(30 0 0 30 135.71 352.202)"/><path d="M0 0h1M0 0l.309.951M0 0l-.809.588M0 0l-.809-.588M0 0l.309-.951" style="fill:none;stroke:rgba(255,255,255,.2);stroke-width:.01" transform="matrix(30 0 0 30 135.71 352.202)"/><circle r=".06" style="fill:#222;stroke:rgba(255,255,255,.2);stroke-width:.02" transform="matrix(30 0 0 30 135.71 352.202)"/><path d="M0 0h1" style="fill:none;stroke:red;stroke-width:.05;stroke-linecap:round" transform="matrix(30 0 0 30 135.71 352.202)"/><path d="M.309.951 0 0h1zM-.809.588 0 0l.309.951zm0-1.176L0 0l-.809.588zM.309-.95 0 0l-.809-.588z" style="fill:#000" transform="matrix(30 0 0 30 232.363 352.202)"/><path d="M-.809.588 0 0l.309.951zM.309-.952 0 0l.348-.413z" style="fill:#214068" transform="matrix(30 0 0 30 232.363 352.202)"/><path d="M-.809-.588 0 0l-.809.588zM1 0H0l.5-.203z" style="fill:#224935" transform="matrix(30 0 0 30 232.363 352.202)"/><path d="M-.202.147a.25.25 0 0 0 .28.09m-.28-.384a.25.25 0 0 0 0 .294" style="fill:none;stroke:#e07c1f;stroke-width:.02;stroke-dasharray:.03,.03;stroke-dashoffset:0" transform="matrix(30 0 0 30 232.363 352.202)"/><path d="M0 0h1M0 0l.309.951M0 0l-.809.588M0 0l-.809-.588M0 0l.309-.951" style="fill:none;stroke:rgba(255,255,255,.2);stroke-width:.01" transform="matrix(30 0 0 30 232.363 352.202)"/><circle r=".06" style="fill:#222;stroke:rgba(255,255,255,.2);stroke-width:.02" transform="matrix(30 0 0 30 232.363 352.202)"/><path d="M0 .5h13v3L20 0l-7-3.5v3H0z" style="fill:#ccc;stroke:#ccc" transform="translate(272.863 352.202)"/><path d="M.309.951 0 0h1zM-.809.588 0 0l.309.951zm0-1.176L0 0l-.809.588zM.309-.95 0 0l-.809-.588z" style="fill:#000" transform="matrix(30 0 0 30 329.002 352.202)"/><path d="M1 0H0l.5-.203zM.309-.951 0 0l.348-.413zm-1.118.363L0 0l-.809.588zm0 1.176L0 0l.309.951z" style="fill:#214068" transform="matrix(30 0 0 30 329.002 352.202)"/><path d="M.068.21A.22.22 0 0 0 .22 0M.087.266A.28.28 0 0 0 .28 0M.068-.21a.22.22 0 0 0-.246.08m.265-.136a.28.28 0 0 0-.314.101" style="fill:none;stroke:#08a4d9;stroke-width:.02" transform="matrix(30 0 0 30 329.002 352.202)"/><path d="M0 0h1M0 0l.309.951M0 0l-.809.588M0 0l-.809-.588M0 0l.309-.951" style="fill:none;stroke:rgba(255,255,255,.2);stroke-width:.01" transform="matrix(30 0 0 30 329.002 352.202)"/><circle r=".06" style="fill:#222;stroke:rgba(255,255,255,.2);stroke-width:.02" transform="matrix(30 0 0 30 329.002 352.202)"/><path d="m0 0-.809.588" style="fill:none;stroke:red;stroke-width:.05;stroke-linecap:round" transform="matrix(30 0 0 30 329.002 352.202)"/><path d="M.309.951 0 0h1zM-.809.588 0 0l.309.951zm0-1.176L0 0l-.809.588zM.309-.95 0 0l-.809-.588z" style="fill:#000" transform="matrix(30 0 0 30 39.734 430.062)"/><path d="M.309.951 0 0h1zm0-1.902L0 0l.348-.413z" style="fill:#214068" transform="matrix(30 0 0 30 39.734 430.062)"/><path d="M.309-.951 0 0l-.809-.588zM1 0H0l.5-.203z" style="fill:#224935" transform="matrix(30 0 0 30 39.734 430.062)"/><path d="M.077.238A.25.25 0 0 0 .25 0M.077-.238a.25.25 0 0 0-.28.091" style="fill:none;stroke:#e07c1f;stroke-width:.02;stroke-dasharray:.03,.03;stroke-dashoffset:0" transform="matrix(30 0 0 30 39.734 430.062)"/><path d="M0 0h1M0 0l.309.951M0 0l-.809.588M0 0l-.809-.588M0 0l.309-.951" style="fill:none;stroke:rgba(255,255,255,.2);stroke-width:.01" transform="matrix(30 0 0 30 39.734 430.062)"/><circle r=".06" style="fill:#222;stroke:rgba(255,255,255,.2);stroke-width:.02" transform="matrix(30 0 0 30 39.734 430.062)"/><path d="M0 .5h13v3L20 0l-7-3.5v3H0z" style="fill:#ccc;stroke:#ccc" transform="translate(80.234 429.71)"/><path d="M.309.951 0 0h1zM-.809.588 0 0l.309.951zm0-1.176L0 0l-.809.588zM.309-.95 0 0l-.809-.588z" style="fill:#000" transform="matrix(30 0 0 30 135.71 430.062)"/><path d="M1 0H0l.5-.203zM.309-.951 0 0l.348-.413zm0 0L0 0l-.809-.588zm0 1.902L0 0h1z" style="fill:#214068" transform="matrix(30 0 0 30 135.71 430.062)"/><path d="M0 0h1M0 0l.309.951M0 0l-.809.588M0 0l-.809-.588M0 0l.309-.951" style="fill:none;stroke:rgba(255,255,255,.2);stroke-width:.01" transform="matrix(30 0 0 30 135.71 430.062)"/><circle r=".06" style="fill:#222;stroke:rgba(255,255,255,.2);stroke-width:.02" transform="matrix(30 0 0 30 135.71 430.062)"/><path d="M0 0h1M0 0l.309-.951" style="fill:none;stroke:red;stroke-width:.05;stroke-linecap:round" transform="matrix(30 0 0 30 135.71 430.062)"/><path d="M.309.951 0 0h1zM-.809.588 0 0l.309.951zm0-1.176L0 0l-.809.588zM.309-.95 0 0l-.809-.588z" style="fill:#000" transform="matrix(30 0 0 30 232.694 429.71)"/><path d="M.309.951 0 0h1z" style="fill:#214068" transform="matrix(30 0 0 30 232.694 429.71)"/><path d="M1 0H0l.5-.203zM.309-.951 0 0l.348-.413z" style="fill:#224935" transform="matrix(30 0 0 30 232.694 429.71)"/><path d="M.309-.951 0 0l-.809-.588z" style="fill:#09294c" transform="matrix(30 0 0 30 232.694 429.71)"/><path d="M-.202.147a.25.25 0 0 0 .28.09m-.28-.384a.25.25 0 0 0 0 .294" style="fill:none;stroke:#e07c1f;stroke-width:.02;stroke-dasharray:.03,.03;stroke-dashoffset:0" transform="matrix(30 0 0 30 232.694 429.71)"/><path d="M0 0h1M0 0l.309.951M0 0l-.809.588M0 0l-.809-.588M0 0l.309-.951" style="fill:none;stroke:rgba(255,255,255,.2);stroke-width:.01" transform="matrix(30 0 0 30 232.694 429.71)"/><circle r=".06" style="fill:#222;stroke:rgba(255,255,255,.2);stroke-width:.02" transform="matrix(30 0 0 30 232.694 429.71)"/><path d="M0 .5h13v3L20 0l-7-3.5v3H0z" style="fill:#ccc;stroke:#ccc" transform="translate(273.194 429.71)"/><path d="M.309.951 0 0h1zM-.809.588 0 0l.309.951zm0-1.176L0 0l-.809.588zM.309-.95 0 0l-.809-.588z" style="fill:#000" transform="matrix(30 0 0 30 328.67 429.71)"/><path d="M.309.951 0 0h1z" style="fill:#214068" transform="matrix(30 0 0 30 328.67 429.71)"/><path d="M1 0H0l.5-.203zM.309-.951 0 0l.348-.413z" style="fill:#224935" transform="matrix(30 0 0 30 328.67 429.71)"/><path d="M.309-.951 0 0l-.809-.588z" style="fill:#09294c" transform="matrix(30 0 0 30 328.67 429.71)"/><path d="M-.202.147a.25.25 0 0 0 .28.09m-.28-.384a.25.25 0 0 0 0 .294" style="fill:none;stroke:#e07c1f;stroke-width:.02;stroke-dasharray:.03,.03;stroke-dashoffset:0" transform="matrix(30 0 0 30 328.67 429.71)"/><path d="M0 0h1M0 0l.309.951M0 0l-.809.588M0 0l-.809-.588M0 0l.309-.951" style="fill:none;stroke:rgba(255,255,255,.2);stroke-width:.01" transform="matrix(30 0 0 30 328.67 429.71)"/><circle r=".06" style="fill:#222;stroke:rgba(255,255,255,.2);stroke-width:.02" transform="matrix(30 0 0 30 328.67 429.71)"/><circle r=".12" style="fill:none;stroke:red;stroke-width:.03" transform="matrix(30 0 0 30 328.67 429.71)"/><path d="M.309.951 0 0h1zM-.809.588 0 0l.309.951zm0-1.176L0 0l-.809.588zM.309-.95 0 0l-.809-.588z" style="fill:#000" transform="matrix(30 0 0 30 40.109 507.218)"/><path d="M.309.951 0 0h1zm0-1.902L0 0l-.809-.588z" style="fill:#214068" transform="matrix(30 0 0 30 40.109 507.218)"/><path d="M1 0H0l.5-.203z" style="fill:#224935" transform="matrix(30 0 0 30 40.109 507.218)"/><path d="M.309-.951 0 0l.348-.413z" style="fill:#0d301f" transform="matrix(30 0 0 30 40.109 507.218)"/><path d="M.077.238A.25.25 0 0 0 .25 0M.077-.238a.25.25 0 0 0-.28.091" style="fill:none;stroke:#e07c1f;stroke-width:.02;stroke-dasharray:.03,.03;stroke-dashoffset:0" transform="matrix(30 0 0 30 40.109 507.218)"/><path d="M0 0h1M0 0l.309.951M0 0l-.809.588M0 0l-.809-.588M0 0l.309-.951" style="fill:none;stroke:rgba(255,255,255,.2);stroke-width:.01" transform="matrix(30 0 0 30 40.109 507.218)"/><circle r=".06" style="fill:#222;stroke:rgba(255,255,255,.2);stroke-width:.02" transform="matrix(30 0 0 30 40.109 507.218)"/><path d="m0 0-.809.588" style="fill:none;stroke:red;stroke-width:.05;stroke-linecap:round" transform="matrix(30 0 0 30 40.109 507.218)"/><path d="M0 .5h13v3L20 0l-7-3.5v3H0z" style="fill:#ccc;stroke:#ccc" transform="translate(80.609 507.57)"/><path d="M.309.951 0 0h1zM-.809.588 0 0l.309.951zm0-1.176L0 0l-.809.588zM.309-.95 0 0l-.809-.588z" style="fill:#000" transform="matrix(30 0 0 30 136.747 507.218)"/><path d="M-.809.588 0 0l.309.951zM.309-.952 0 0l-.809-.588zm0 1.903L0 0h1zM-.809-.588 0 0l-.809.588z" style="fill:#214068" transform="matrix(30 0 0 30 136.747 507.218)"/><path d="M1 0H0l.5-.203z" style="fill:#224935" transform="matrix(30 0 0 30 136.747 507.218)"/><path d="M.309-.951 0 0l.348-.413z" style="fill:#0d301f" transform="matrix(30 0 0 30 136.747 507.218)"/><path d="M0 0h1M0 0l.309.951M0 0l-.809.588M0 0l-.809-.588M0 0l.309-.951" style="fill:none;stroke:rgba(255,255,255,.2);stroke-width:.01" transform="matrix(30 0 0 30 136.747 507.218)"/><circle r=".06" style="fill:#222;stroke:rgba(255,255,255,.2);stroke-width:.02" transform="matrix(30 0 0 30 136.747 507.218)"/><path d="m0 0 .309.951M0 0l-.809.588M0 0l-.809-.588" style="fill:none;stroke:red;stroke-width:.05;stroke-linecap:round" transform="matrix(30 0 0 30 136.747 507.218)"/><path d="M.309.951 0 0h1zM-.809.588 0 0l.309.951zm0-1.176L0 0l-.809.588zM.309-.95 0 0l-.809-.588z" style="fill:#000" transform="matrix(30 0 0 30 232.32 507.57)"/><path d="M.309.951 0 0h1z" style="fill:#214068" transform="matrix(30 0 0 30 232.32 507.57)"/><path d="M-.809.588 0 0l.309.951zM.309-.952 0 0l.348-.413z" style="fill:#224935" transform="matrix(30 0 0 30 232.32 507.57)"/><path d="M-.809-.588 0 0l-.809.588z" style="fill:#09294c" transform="matrix(30 0 0 30 232.32 507.57)"/><path d="M.077.238A.25.25 0 0 0 .25 0" style="fill:none;stroke:#e07c1f;stroke-width:.02;stroke-dasharray:.03,.03;stroke-dashoffset:0" transform="matrix(30 0 0 30 232.32 507.57)"/><path d="M-.202.147a.25.25 0 0 0 .28.09" style="fill:none;stroke:red;stroke-width:.02" transform="matrix(30 0 0 30 232.32 507.57)"/><path d="M.077-.238a.25.25 0 0 0-.28.091" style="fill:none;stroke:#e07c1f;stroke-width:.02;stroke-dasharray:.03,.03;stroke-dashoffset:0" transform="matrix(30 0 0 30 232.32 507.57)"/><path d="M0 0h1M0 0l.309.951M0 0l-.809.588M0 0l-.809-.588M0 0l.309-.951" style="fill:none;stroke:rgba(255,255,255,.2);stroke-width:.01" transform="matrix(30 0 0 30 232.32 507.57)"/><circle r=".06" style="fill:#222;stroke:rgba(255,255,255,.2);stroke-width:.02" transform="matrix(30 0 0 30 232.32 507.57)"/><path d="M0 .5h13v3L20 0l-7-3.5v3H0z" style="fill:#ccc;stroke:#ccc" transform="translate(272.82 507.57)"/><path d="M.309.951 0 0h1zM-.809.588 0 0l.309.951zm0-1.176L0 0l-.809.588zM.309-.95 0 0l-.809-.588z" style="fill:#000" transform="matrix(30 0 0 30 328.296 507.57)"/><path d="M-.809.588 0 0l.309.951zM.309-.952 0 0l.348-.413z" style="fill:#214068" transform="matrix(30 0 0 30 328.296 507.57)"/><path d="M-.809-.588 0 0l-.809.588z" style="fill:#224935" transform="matrix(30 0 0 30 328.296 507.57)"/><path d="M1 0H0l.5-.203zM.309.951 0 0h1z" style="fill:#0d301f" transform="matrix(30 0 0 30 328.296 507.57)"/><path d="M-.202.147a.25.25 0 0 0 .28.09" style="fill:none;stroke:red;stroke-width:.02" transform="matrix(30 0 0 30 328.296 507.57)"/><path d="M.077-.238a.25.25 0 0 0-.28.091" style="fill:none;stroke:#e07c1f;stroke-width:.02;stroke-dasharray:.03,.03;stroke-dashoffset:0" transform="matrix(30 0 0 30 328.296 507.57)"/><path d="M0 0h1M0 0l.309.951M0 0l-.809.588M0 0l-.809-.588M0 0l.309-.951" style="fill:none;stroke:rgba(255,255,255,.2);stroke-width:.01" transform="matrix(30 0 0 30 328.296 507.57)"/><circle r=".06" style="fill:#222;stroke:rgba(255,255,255,.2);stroke-width:.02" transform="matrix(30 0 0 30 328.296 507.57)"/><path d="M0 0h1" style="fill:none;stroke:red;stroke-width:.05;stroke-linecap:round" transform="matrix(30 0 0 30 328.296 507.57)"/><path d="M.309.951 0 0h1zM-.809.588 0 0l.309.951zm0-1.176L0 0l-.809.588zM.309-.95 0 0l-.809-.588z" style="fill:#000" transform="matrix(30 0 0 30 40.109 585.078)"/><path d="M1 0H0l.5-.203zM.309-.951 0 0l.348-.413z" style="fill:#214068" transform="matrix(30 0 0 30 40.109 585.078)"/><path d="M.077.238A.25.25 0 0 0 .25 0" style="fill:none;stroke:#e07c1f;stroke-width:.02;stroke-dasharray:.03,.03;stroke-dashoffset:0" transform="matrix(30 0 0 30 40.109 585.078)"/><path d="M-.202.147a.25.25 0 0 0 .28.09" style="fill:none;stroke:#e07c1f;stroke-width:.02;stroke-dasharray:.03,.03;stroke-dashoffset:0" transform="matrix(30 0 0 30 40.109 585.078)"/><path d="M.068-.21a.22.22 0 0 0-.246.08m.265-.136a.28.28 0 0 0-.314.101" style="fill:none;stroke:#2a892a;stroke-width:.02;stroke-dasharray:.03,.03;stroke-dashoffset:0" transform="matrix(30 0 0 30 40.109 585.078)"/><path d="M0 0h1M0 0l.309.951M0 0l-.809.588M0 0l-.809-.588M0 0l.309-.951" style="fill:none;stroke:rgba(255,255,255,.2);stroke-width:.01" transform="matrix(30 0 0 30 40.109 585.078)"/><circle r=".06" style="fill:#222;stroke:rgba(255,255,255,.2);stroke-width:.02" transform="matrix(30 0 0 30 40.109 585.078)"/><path d="M0 .5h13v3L20 0l-7-3.5v3H0z" style="fill:#ccc;stroke:#ccc" transform="translate(80.609 585.078)"/><path d="M.309.951 0 0h1zM-.809.588 0 0l.309.951zm0-1.176L0 0l-.809.588zM.309-.95 0 0l-.809-.588z" style="fill:#000" transform="matrix(30 0 0 30 136.085 585.078)"/><path d="M1 0H0l.5-.203zM.309-.951 0 0l.348-.413z" style="fill:#214068" transform="matrix(30 0 0 30 136.085 585.078)"/><path d="M.077.238A.25.25 0 0 0 .25 0" style="fill:none;stroke:#e07c1f;stroke-width:.02;stroke-dasharray:.03,.03;stroke-dashoffset:0" transform="matrix(30 0 0 30 136.085 585.078)"/><path d="M-.202.147a.25.25 0 0 0 .28.09" style="fill:none;stroke:#e07c1f;stroke-width:.02;stroke-dasharray:.03,.03;stroke-dashoffset:0" transform="matrix(30 0 0 30 136.085 585.078)"/><path d="M.068-.21a.22.22 0 0 0-.246.08m.265-.136a.28.28 0 0 0-.314.101" style="fill:none;stroke:#2a892a;stroke-width:.02;stroke-dasharray:.03,.03;stroke-dashoffset:0" transform="matrix(30 0 0 30 136.085 585.078)"/><path d="M0 0h1M0 0l.309.951M0 0l-.809.588M0 0l-.809-.588M0 0l.309-.951" style="fill:none;stroke:rgba(255,255,255,.2);stroke-width:.01" transform="matrix(30 0 0 30 136.085 585.078)"/><circle r=".06" style="fill:#222;stroke:rgba(255,255,255,.2);stroke-width:.02" transform="matrix(30 0 0 30 136.085 585.078)"/><circle r=".12" style="fill:none;stroke:red;stroke-width:.03" transform="matrix(30 0 0 30 136.085 585.078)"/><path d="M.309.951 0 0h1zM-.809.588 0 0l.309.951zm0-1.176L0 0l-.809.588zM.309-.95 0 0l-.809-.588z" style="fill:#000" transform="matrix(30 0 0 30 231.194 585.078)"/><path d="M.309.951 0 0h1z" style="fill:#214068" transform="matrix(30 0 0 30 231.194 585.078)"/><path d="M.309-.951 0 0l.348-.413z" style="fill:#09294c" transform="matrix(30 0 0 30 231.194 585.078)"/><path d="M-.202.147a.25.25 0 0 0 .28.09m-.28-.384a.25.25 0 0 0 0 .294m.279-.385a.25.25 0 0 0-.28.091" style="fill:none;stroke:#e07c1f;stroke-width:.02;stroke-dasharray:.03,.03;stroke-dashoffset:0" transform="matrix(30 0 0 30 231.194 585.078)"/><path d="M0 0h1M0 0l.309.951M0 0l-.809.588M0 0l-.809-.588M0 0l.309-.951" style="fill:none;stroke:rgba(255,255,255,.2);stroke-width:.01" transform="matrix(30 0 0 30 231.194 585.078)"/><circle r=".06" style="fill:#222;stroke:rgba(255,255,255,.2);stroke-width:.02" transform="matrix(30 0 0 30 231.194 585.078)"/><path d="M0 0h1" style="fill:none;stroke:#fff;stroke-width:.1;stroke-linecap:round" transform="matrix(30 0 0 30 231.194 585.078)"/><path d="M0 .5h13v3L20 0l-7-3.5v3H0z" style="fill:#ccc;stroke:#ccc" transform="translate(273.194 585.078)"/><path d="M.309.951 0 0h1zM-.809.588 0 0l.309.951zm0-1.176L0 0l-.809.588zM.309-.95 0 0l-.809-.588z" style="fill:#000" transform="matrix(30 0 0 30 328.67 585.078)"/><path d="M1 0H0l.5-.203zM.309-.951 0 0l.348-.413z" style="fill:#214068" transform="matrix(30 0 0 30 328.67 585.078)"/><path d="M.309.951 0 0h1z" style="fill:#09294c" transform="matrix(30 0 0 30 328.67 585.078)"/><path d="M-.202.147a.25.25 0 0 0 .28.09m-.28-.384a.25.25 0 0 0 0 .294m.279-.385a.25.25 0 0 0-.28.091" style="fill:none;stroke:#e07c1f;stroke-width:.02;stroke-dasharray:.03,.03;stroke-dashoffset:0" transform="matrix(30 0 0 30 328.67 585.078)"/><path d="M0 0h1M0 0l.309.951M0 0l-.809.588M0 0l-.809-.588M0 0l.309-.951" style="fill:none;stroke:rgba(255,255,255,.2);stroke-width:.01" transform="matrix(30 0 0 30 328.67 585.078)"/><circle r=".06" style="fill:#222;stroke:rgba(255,255,255,.2);stroke-width:.02" transform="matrix(30 0 0 30 328.67 585.078)"/><circle r=".12" style="fill:none;stroke:red;stroke-width:.03" transform="matrix(30 0 0 30 328.67 585.078)"/><path d="M0 0h1" style="fill:none;stroke:#fff;stroke-width:.1;stroke-linecap:round" transform="matrix(30 0 0 30 328.67 585.078)"/><path d="M.309.951 0 0h1zM-.809.588 0 0l.309.951zm0-1.176L0 0l-.809.588zM.309-.95 0 0l-.809-.588z" style="fill:#000" transform="matrix(30 0 0 30 39.734 662.234)"/><path d="M.309.951 0 0h1z" style="fill:#214068" transform="matrix(30 0 0 30 39.734 662.234)"/><path d="M-.809.588 0 0l.309.951zM.309-.952 0 0l.348-.413z" style="fill:#224935" transform="matrix(30 0 0 30 39.734 662.234)"/><path d="M.309-.951 0 0l-.809-.588z" style="fill:#09294c" transform="matrix(30 0 0 30 39.734 662.234)"/><path d="M.077.238A.25.25 0 0 0 .25 0" style="fill:none;stroke:#e07c1f;stroke-width:.02;stroke-dasharray:.03,.03;stroke-dashoffset:0" transform="matrix(30 0 0 30 39.734 662.234)"/><path d="M-.202.147a.25.25 0 0 0 .28.09m-.28-.384a.25.25 0 0 0 0 .294" style="fill:none;stroke:#e07c1f;stroke-width:.02;stroke-dasharray:.03,.03;stroke-dashoffset:0" transform="matrix(30 0 0 30 39.734 662.234)"/><path d="M0 0h1M0 0l.309.951M0 0l-.809.588M0 0l-.809-.588M0 0l.309-.951" style="fill:none;stroke:rgba(255,255,255,.2);stroke-width:.01" transform="matrix(30 0 0 30 39.734 662.234)"/><circle r=".06" style="fill:#222;stroke:rgba(255,255,255,.2);stroke-width:.02" transform="matrix(30 0 0 30 39.734 662.234)"/><path d="M0 .5h13v3L20 0l-7-3.5v3H0z" style="fill:#ccc;stroke:#ccc" transform="translate(80.234 662.234)"/><path d="M.309.951 0 0h1zM-.809.588 0 0l.309.951zm0-1.176L0 0l-.809.588zM.309-.95 0 0l-.809-.588z" style="fill:#000" transform="matrix(30 0 0 30 135.71 662.234)"/><path d="M-.809.588 0 0l.309.951zM.309-.952 0 0l.348-.413z" style="fill:#214068" transform="matrix(30 0 0 30 135.71 662.234)"/><path d="M.309-.951 0 0l-.809-.588z" style="fill:#224935" transform="matrix(30 0 0 30 135.71 662.234)"/><path d="M1 0H0l.5-.203zM.309.951 0 0h1z" style="fill:#0d301f" transform="matrix(30 0 0 30 135.71 662.234)"/><path d="M-.202.147a.25.25 0 0 0 .28.09m-.28-.384a.25.25 0 0 0 0 .294" style="fill:none;stroke:#e07c1f;stroke-width:.02;stroke-dasharray:.03,.03;stroke-dashoffset:0" transform="matrix(30 0 0 30 135.71 662.234)"/><path d="M0 0h1M0 0l.309.951M0 0l-.809.588M0 0l-.809-.588M0 0l.309-.951" style="fill:none;stroke:rgba(255,255,255,.2);stroke-width:.01" transform="matrix(30 0 0 30 135.71 662.234)"/><circle r=".06" style="fill:#222;stroke:rgba(255,255,255,.2);stroke-width:.02" transform="matrix(30 0 0 30 135.71 662.234)"/><path d="M0 0h1" style="fill:none;stroke:red;stroke-width:.05;stroke-linecap:round" transform="matrix(30 0 0 30 135.71 662.234)"/><path d="M.309.951 0 0h1zM-.809.588 0 0l.309.951zm0-1.176L0 0l-.809.588zM.309-.95 0 0l-.809-.588z" style="fill:#000" transform="matrix(30 0 0 30 231.944 662.234)"/><path d="M1 0H0l.5-.203zM.309-.951 0 0l.348-.413z" style="fill:#214068" transform="matrix(30 0 0 30 231.944 662.234)"/><path d="M.309.951 0 0h1z" style="fill:#09294c" transform="matrix(30 0 0 30 231.944 662.234)"/><path d="M-.202.147a.25.25 0 0 0 .28.09m-.28-.384a.25.25 0 0 0 0 .294m.279-.385a.25.25 0 0 0-.28.091" style="fill:none;stroke:#e07c1f;stroke-width:.02;stroke-dasharray:.03,.03;stroke-dashoffset:0" transform="matrix(30 0 0 30 231.944 662.234)"/><path d="M0 0h1M0 0l.309.951M0 0l-.809.588M0 0l-.809-.588M0 0l.309-.951" style="fill:none;stroke:rgba(255,255,255,.2);stroke-width:.01" transform="matrix(30 0 0 30 231.944 662.234)"/><circle r=".06" style="fill:#222;stroke:rgba(255,255,255,.2);stroke-width:.02" transform="matrix(30 0 0 30 231.944 662.234)"/><path d="M0 .5h13v3L20 0l-7-3.5v3H0z" style="fill:#ccc;stroke:#ccc" transform="translate(272.444 662.234)"/><path d="M.309.951 0 0h1zM-.809.588 0 0l.309.951zm0-1.176L0 0l-.809.588zM.309-.95 0 0l-.809-.588z" style="fill:#000" transform="matrix(30 0 0 30 327.92 662.234)"/><path d="M1 0H0l.5-.203zM.309-.951 0 0l.348-.413z" style="fill:#214068" transform="matrix(30 0 0 30 327.92 662.234)"/><path d="M.309.951 0 0h1z" style="fill:#09294c" transform="matrix(30 0 0 30 327.92 662.234)"/><path d="M-.202.147a.25.25 0 0 0 .28.09m-.28-.384a.25.25 0 0 0 0 .294m.279-.385a.25.25 0 0 0-.28.091" style="fill:none;stroke:#e07c1f;stroke-width:.02;stroke-dasharray:.03,.03;stroke-dashoffset:0" transform="matrix(30 0 0 30 327.92 662.234)"/><path d="M0 0h1M0 0l.309.951M0 0l-.809.588M0 0l-.809-.588M0 0l.309-.951" style="fill:none;stroke:rgba(255,255,255,.2);stroke-width:.01" transform="matrix(30 0 0 30 327.92 662.234)"/><circle r=".06" style="fill:#222;stroke:rgba(255,255,255,.2);stroke-width:.02" transform="matrix(30 0 0 30 327.92 662.234)"/><circle r=".12" style="fill:none;stroke:red;stroke-width:.03" transform="matrix(30 0 0 30 327.92 662.234)"/><path d="M0 0h1" style="fill:none;stroke:#fff;stroke-width:.1;stroke-linecap:round" transform="matrix(30 0 0 30 327.92 662.234)"/><path d="M.309.951 0 0h1zM-.809.588 0 0l.309.951zm0-1.176L0 0l-.809.588zM.309-.95 0 0l-.809-.588z" style="fill:#000" transform="matrix(30 0 0 30 39.359 739.39)"/><path d="M.309.951 0 0h1z" style="fill:#214068" transform="matrix(30 0 0 30 39.359 739.39)"/><path d="M.309-.951 0 0l.348-.413z" style="fill:#09294c" transform="matrix(30 0 0 30 39.359 739.39)"/><path d="M-.202.147a.25.25 0 0 0 .28.09m-.28-.384a.25.25 0 0 0 0 .294m.279-.385a.25.25 0 0 0-.28.091" style="fill:none;stroke:#e07c1f;stroke-width:.02;stroke-dasharray:.03,.03;stroke-dashoffset:0" transform="matrix(30 0 0 30 39.359 739.39)"/><path d="M0 0h1M0 0l.309.951M0 0l-.809.588M0 0l-.809-.588M0 0l.309-.951" style="fill:none;stroke:rgba(255,255,255,.2);stroke-width:.01" transform="matrix(30 0 0 30 39.359 739.39)"/><circle r=".06" style="fill:#222;stroke:rgba(255,255,255,.2);stroke-width:.02" transform="matrix(30 0 0 30 39.359 739.39)"/><path d="M0 0h1" style="fill:none;stroke:red;stroke-width:.05;stroke-linecap:round" transform="matrix(30 0 0 30 39.359 739.39)"/><path d="M0 .5h13v3L20 0l-7-3.5v3H0z" style="fill:#ccc;stroke:#ccc" transform="translate(80.609 739.39)"/><path d="M.309.951 0 0h1zM-.809.588 0 0l.309.951zm0-1.176L0 0l-.809.588zM.309-.95 0 0l-.809-.588z" style="fill:#000" transform="matrix(30 0 0 30 136.085 739.39)"/><path d="M1 0H0l.5-.203zM.309.951 0 0h1z" style="fill:#214068" transform="matrix(30 0 0 30 136.085 739.39)"/><path d="M.309-.951 0 0l.348-.413z" style="fill:#09294c" transform="matrix(30 0 0 30 136.085 739.39)"/><path d="M-.202.147a.25.25 0 0 0 .28.09m-.28-.384a.25.25 0 0 0 0 .294m.279-.385a.25.25 0 0 0-.28.091" style="fill:none;stroke:#e07c1f;stroke-width:.02;stroke-dasharray:.03,.03;stroke-dashoffset:0" transform="matrix(30 0 0 30 136.085 739.39)"/><path d="M0 0h1M0 0l.309.951M0 0l-.809.588M0 0l-.809-.588M0 0l.309-.951" style="fill:none;stroke:rgba(255,255,255,.2);stroke-width:.01" transform="matrix(30 0 0 30 136.085 739.39)"/><circle r=".06" style="fill:#222;stroke:rgba(255,255,255,.2);stroke-width:.02" transform="matrix(30 0 0 30 136.085 739.39)"/><path d="M0 0h1" style="fill:none;stroke:red;stroke-width:.05;stroke-linecap:round" transform="matrix(30 0 0 30 136.085 739.39)"/><path d="M.309.951 0 0h1zM-.809.588 0 0l.309.951zm0-1.176L0 0l-.809.588zM.309-.95 0 0l-.809-.588z" style="fill:#000" transform="matrix(30 0 0 30 231.944 739.39)"/><path d="M1 0H0l.5-.203z" style="fill:#214068" transform="matrix(30 0 0 30 231.944 739.39)"/><path d="M.309-.951 0 0l.348-.413z" style="fill:#09294c" transform="matrix(30 0 0 30 231.944 739.39)"/><path d="M-.202.147a.25.25 0 0 0 .28.09m-.28-.384a.25.25 0 0 0 0 .294m.279-.385a.25.25 0 0 0-.28.091" style="fill:none;stroke:#e07c1f;stroke-width:.02;stroke-dasharray:.03,.03;stroke-dashoffset:0" transform="matrix(30 0 0 30 231.944 739.39)"/><path d="M0 0h1M0 0l.309.951M0 0l-.809.588M0 0l-.809-.588M0 0l.309-.951" style="fill:none;stroke:rgba(255,255,255,.2);stroke-width:.01" transform="matrix(30 0 0 30 231.944 739.39)"/><circle r=".06" style="fill:#222;stroke:rgba(255,255,255,.2);stroke-width:.02" transform="matrix(30 0 0 30 231.944 739.39)"/><path d="M0 0h1" style="fill:none;stroke:red;stroke-width:.05;stroke-linecap:round" transform="matrix(30 0 0 30 231.944 739.39)"/><path d="M0 .5h13v3L20 0l-7-3.5v3H0z" style="fill:#ccc;stroke:#ccc" transform="translate(273.194 739.39)"/><path d="M.309.951 0 0h1zM-.809.588 0 0l.309.951zm0-1.176L0 0l-.809.588zM.309-.95 0 0l-.809-.588z" style="fill:#000" transform="matrix(30 0 0 30 328.67 739.39)"/><path d="M1 0H0l.5-.203zM.309.951 0 0h1z" style="fill:#214068" transform="matrix(30 0 0 30 328.67 739.39)"/><path d="M.309-.951 0 0l.348-.413z" style="fill:#09294c" transform="matrix(30 0 0 30 328.67 739.39)"/><path d="M-.202.147a.25.25 0 0 0 .28.09m-.28-.384a.25.25 0 0 0 0 .294m.279-.385a.25.25 0 0 0-.28.091" style="fill:none;stroke:#e07c1f;stroke-width:.02;stroke-dasharray:.03,.03;stroke-dashoffset:0" transform="matrix(30 0 0 30 328.67 739.39)"/><path d="M0 0h1M0 0l.309.951M0 0l-.809.588M0 0l-.809-.588M0 0l.309-.951" style="fill:none;stroke:rgba(255,255,255,.2);stroke-width:.01" transform="matrix(30 0 0 30 328.67 739.39)"/><circle r=".06" style="fill:#222;stroke:rgba(255,255,255,.2);stroke-width:.02" transform="matrix(30 0 0 30 328.67 739.39)"/><path d="M0 0h1" style="fill:none;stroke:red;stroke-width:.05;stroke-linecap:round" transform="matrix(30 0 0 30 328.67 739.39)"/><path d="M.309.951 0 0h1zM-.809.588 0 0l.309.951zm0-1.176L0 0l-.809.588zM.309-.95 0 0l-.809-.588z" style="fill:#000" transform="matrix(30 0 0 30 40.109 818)"/><path d="M1 0H0l.5-.203zM.309-.951 0 0l.348-.413z" style="fill:#214068" transform="matrix(30 0 0 30 40.109 818)"/><path d="M.077.238A.25.25 0 0 0 .25 0" style="fill:none;stroke:#e07c1f;stroke-width:.02;stroke-dasharray:.03,.03;stroke-dashoffset:0" transform="matrix(30 0 0 30 40.109 818)"/><path d="M-.202.147a.25.25 0 0 0 .28.09m-.28-.384a.25.25 0 0 0 0 .294" style="fill:none;stroke:#e07c1f;stroke-width:.02;stroke-dasharray:.03,.03;stroke-dashoffset:0" transform="matrix(30 0 0 30 40.109 818)"/><path d="M0 0h1M0 0l.309.951M0 0l-.809.588M0 0l-.809-.588M0 0l.309-.951" style="fill:none;stroke:rgba(255,255,255,.2);stroke-width:.01" transform="matrix(30 0 0 30 40.109 818)"/><circle r=".06" style="fill:#222;stroke:rgba(255,255,255,.2);stroke-width:.02" transform="matrix(30 0 0 30 40.109 818)"/><circle r=".12" style="fill:none;stroke:red;stroke-width:.03" transform="matrix(30 0 0 30 40.109 818)"/><path d="m0 0 .309-.951" style="fill:none;stroke:#fff;stroke-width:.1;stroke-linecap:round" transform="matrix(30 0 0 30 40.109 818)"/><path d="M0 .5h13v3L20 0l-7-3.5v3H0z" style="fill:#ccc;stroke:#ccc" transform="translate(80.609 817.273)"/><path d="M.309.951 0 0h1zM-.809.588 0 0l.309.951zm0-1.176L0 0l-.809.588zM.309-.95 0 0l-.809-.588z" style="fill:#000" transform="matrix(30 0 0 30 136.085 818)"/><path d="M1 0H0l.5-.203zM.309-.951 0 0l.348-.413z" style="fill:#214068" transform="matrix(30 0 0 30 136.085 818)"/><path d="M.309-.951 0 0l-.809-.588z" style="fill:#09294c" transform="matrix(30 0 0 30 136.085 818)"/><path d="M.077.238A.25.25 0 0 0 .25 0" style="fill:none;stroke:#e07c1f;stroke-width:.02;stroke-dasharray:.03,.03;stroke-dashoffset:0" transform="matrix(30 0 0 30 136.085 818)"/><path d="M-.202.147a.25.25 0 0 0 .28.09m-.28-.384a.25.25 0 0 0 0 .294" style="fill:none;stroke:#e07c1f;stroke-width:.02;stroke-dasharray:.03,.03;stroke-dashoffset:0" transform="matrix(30 0 0 30 136.085 818)"/><path d="M0 0h1M0 0l.309.951M0 0l-.809.588M0 0l-.809-.588M0 0l.309-.951" style="fill:none;stroke:rgba(255,255,255,.2);stroke-width:.01" transform="matrix(30 0 0 30 136.085 818)"/><circle r=".06" style="fill:#222;stroke:rgba(255,255,255,.2);stroke-width:.02" transform="matrix(30 0 0 30 136.085 818)"/><circle r=".12" style="fill:none;stroke:red;stroke-width:.03" transform="matrix(30 0 0 30 136.085 818)"/><path d="m0 0 .309-.951" style="fill:none;stroke:#fff;stroke-width:.1;stroke-linecap:round" transform="matrix(30 0 0 30 136.085 818)"/><path d="M.309.951 0 0h1zM-.809.588 0 0l.309.951zm0-1.176L0 0l-.809.588zM.309-.95 0 0l-.809-.588z" style="fill:#000" transform="matrix(30 0 0 30 232.363 817.273)"/><path d="M.309.951 0 0h1zm0-1.902L0 0l.348-.413z" style="fill:#214068" transform="matrix(30 0 0 30 232.363 817.273)"/><path d="M-.809.588 0 0l.309.951z" style="fill:#224935" transform="matrix(30 0 0 30 232.363 817.273)"/><path d="M1 0H0l.5-.203z" style="fill:#0d301f" transform="matrix(30 0 0 30 232.363 817.273)"/><path d="M.077.238A.25.25 0 0 0 .25 0" style="fill:none;stroke:red;stroke-width:.02" transform="matrix(30 0 0 30 232.363 817.273)"/><path d="M-.202.147a.25.25 0 0 0 .28.09m-.28-.384a.25.25 0 0 0 0 .294m.279-.385a.25.25 0 0 0-.28.091" style="fill:none;stroke:#e07c1f;stroke-width:.02;stroke-dasharray:.03,.03;stroke-dashoffset:0" transform="matrix(30 0 0 30 232.363 817.273)"/><path d="M0 0h1M0 0l.309.951M0 0l-.809.588M0 0l-.809-.588M0 0l.309-.951" style="fill:none;stroke:rgba(255,255,255,.2);stroke-width:.01" transform="matrix(30 0 0 30 232.363 817.273)"/><circle r=".06" style="fill:#222;stroke:rgba(255,255,255,.2);stroke-width:.02" transform="matrix(30 0 0 30 232.363 817.273)"/><path d="M0 .5h13v3L20 0l-7-3.5v3H0z" style="fill:#ccc;stroke:#ccc" transform="translate(272.863 817.273)"/><path d="M.309.951 0 0h1zM-.809.588 0 0l.309.951zm0-1.176L0 0l-.809.588zM.309-.95 0 0l-.809-.588z" style="fill:#000" transform="matrix(30 0 0 30 329.002 817.273)"/><path d="M.309.951 0 0h1zm0-1.902L0 0l.348-.413z" style="fill:#214068" transform="matrix(30 0 0 30 329.002 817.273)"/><path d="M-.809-.588 0 0l-.809.588zm0 1.176L0 0l.309.951z" style="fill:#224935" transform="matrix(30 0 0 30 329.002 817.273)"/><path d="M1 0H0l.5-.203z" style="fill:#0d301f" transform="matrix(30 0 0 30 329.002 817.273)"/><path d="M.077.238A.25.25 0 0 0 .25 0" style="fill:none;stroke:red;stroke-width:.02" transform="matrix(30 0 0 30 329.002 817.273)"/><path d="M.077-.238a.25.25 0 0 0-.28.091" style="fill:none;stroke:#e07c1f;stroke-width:.02;stroke-dasharray:.03,.03;stroke-dashoffset:0" transform="matrix(30 0 0 30 329.002 817.273)"/><path d="M0 0h1M0 0l.309.951M0 0l-.809.588M0 0l-.809-.588M0 0l.309-.951" style="fill:none;stroke:rgba(255,255,255,.2);stroke-width:.01" transform="matrix(30 0 0 30 329.002 817.273)"/><circle r=".06" style="fill:#222;stroke:rgba(255,255,255,.2);stroke-width:.02" transform="matrix(30 0 0 30 329.002 817.273)"/><path d="m0 0-.809.588" style="fill:none;stroke:red;stroke-width:.05;stroke-linecap:round" transform="matrix(30 0 0 30 329.002 817.273)"/><path d="M.309.951 0 0h1zM-.809.588 0 0l.309.951zm0-1.176L0 0l-.809.588zM.309-.95 0 0l-.809-.588z" style="fill:#000" transform="matrix(30 0 0 30 39.403 895.86)"/><path d="M.309.951 0 0h1z" style="fill:#214068" transform="matrix(30 0 0 30 39.403 895.86)"/><path d="M1 0H0l.5-.203z" style="fill:#224935" transform="matrix(30 0 0 30 39.403 895.86)"/><path d="M-.809-.588 0 0l-.809.588z" style="fill:#09294c" transform="matrix(30 0 0 30 39.403 895.86)"/><path d="M.309-.951 0 0l.348-.413z" style="fill:#0d301f" transform="matrix(30 0 0 30 39.403 895.86)"/><path d="M.077.238A.25.25 0 0 0 .25 0" style="fill:none;stroke:#e07c1f;stroke-width:.02;stroke-dasharray:.03,.03;stroke-dashoffset:0" transform="matrix(30 0 0 30 39.403 895.86)"/><path d="M-.202.147a.25.25 0 0 0 .28.09" style="fill:none;stroke:red;stroke-width:.02" transform="matrix(30 0 0 30 39.403 895.86)"/><path d="M-.202-.147a.25.25 0 0 0 0 .294m.279-.385a.25.25 0 0 0-.28.091" style="fill:none;stroke:#e07c1f;stroke-width:.02;stroke-dasharray:.03,.03;stroke-dashoffset:0" transform="matrix(30 0 0 30 39.403 895.86)"/><path d="M0 0h1M0 0l.309.951M0 0l-.809.588M0 0l-.809-.588M0 0l.309-.951" style="fill:none;stroke:rgba(255,255,255,.2);stroke-width:.01" transform="matrix(30 0 0 30 39.403 895.86)"/><circle r=".06" style="fill:#222;stroke:rgba(255,255,255,.2);stroke-width:.02" transform="matrix(30 0 0 30 39.403 895.86)"/><path d="M0 .5h13v3L20 0l-7-3.5v3H0z" style="fill:#ccc;stroke:#ccc" transform="translate(79.903 895.508)"/><path d="M.309.951 0 0h1zM-.809.588 0 0l.309.951zm0-1.176L0 0l-.809.588zM.309-.95 0 0l-.809-.588z" style="fill:#000" transform="matrix(30 0 0 30 136.041 895.86)"/><path d="M1 0H0l.5-.203zM.309.951 0 0h1z" style="fill:#214068" transform="matrix(30 0 0 30 136.041 895.86)"/><path d="M.309-.951 0 0l.348-.413zm0 0L0 0l-.809-.588zm-1.118.363L0 0l-.809.588z" style="fill:#09294c" transform="matrix(30 0 0 30 136.041 895.86)"/><path d="M-.202.147a.25.25 0 0 0 .28.09" style="fill:none;stroke:red;stroke-width:.02" transform="matrix(30 0 0 30 136.041 895.86)"/><path d="M0 0h1M0 0l.309.951M0 0l-.809.588M0 0l-.809-.588M0 0l.309-.951" style="fill:none;stroke:rgba(255,255,255,.2);stroke-width:.01" transform="matrix(30 0 0 30 136.041 895.86)"/><circle r=".06" style="fill:#222;stroke:rgba(255,255,255,.2);stroke-width:.02" transform="matrix(30 0 0 30 136.041 895.86)"/><path d="M0 0h1M0 0l-.809-.588M0 0l.309-.951" style="fill:none;stroke:red;stroke-width:.05;stroke-linecap:round" transform="matrix(30 0 0 30 136.041 895.86)"/><path d="M.309.951 0 0h1zM-.809.588 0 0l.309.951zm0-1.176L0 0l-.809.588zM.309-.95 0 0l-.809-.588z" style="fill:#000" transform="matrix(30 0 0 30 232.694 895.156)"/><path d="M.309.951 0 0h1z" style="fill:#214068" transform="matrix(30 0 0 30 232.694 895.156)"/><path d="M.309-.951 0 0l-.809-.588zM1 0H0l.5-.203z" style="fill:#224935" transform="matrix(30 0 0 30 232.694 895.156)"/><path d="M.309-.951 0 0l.348-.413z" style="fill:#09294c" transform="matrix(30 0 0 30 232.694 895.156)"/><path d="M.077.238A.25.25 0 0 0 .25 0" style="fill:none;stroke:#e07c1f;stroke-width:.02;stroke-dasharray:.03,.03;stroke-dashoffset:0" transform="matrix(30 0 0 30 232.694 895.156)"/><path d="M-.202.147a.25.25 0 0 0 .28.09m-.28-.384a.25.25 0 0 0 0 .294m.279-.385a.25.25 0 0 0-.28.091" style="fill:none;stroke:#e07c1f;stroke-width:.02;stroke-dasharray:.03,.03;stroke-dashoffset:0" transform="matrix(30 0 0 30 232.694 895.156)"/><path d="M0 0h1M0 0l.309.951M0 0l-.809.588M0 0l-.809-.588M0 0l.309-.951" style="fill:none;stroke:rgba(255,255,255,.2);stroke-width:.01" transform="matrix(30 0 0 30 232.694 895.156)"/><circle r=".06" style="fill:#222;stroke:rgba(255,255,255,.2);stroke-width:.02" transform="matrix(30 0 0 30 232.694 895.156)"/><path d="M0 .5h13v3L20 0l-7-3.5v3H0z" style="fill:#ccc;stroke:#ccc" transform="translate(273.194 895.508)"/><path d="M.309.951 0 0h1zM-.809.588 0 0l.309.951zm0-1.176L0 0l-.809.588zM.309-.95 0 0l-.809-.588z" style="fill:#000" transform="matrix(30 0 0 30 328.67 895.156)"/><path d="M-.809.588 0 0l.309.951zM.309.95 0 0h1z" style="fill:#214068" transform="matrix(30 0 0 30 328.67 895.156)"/><path d="M.309-.951 0 0l-.809-.588zM1 0H0l.5-.203z" style="fill:#224935" transform="matrix(30 0 0 30 328.67 895.156)"/><path d="M.309-.951 0 0l.348-.413z" style="fill:#09294c" transform="matrix(30 0 0 30 328.67 895.156)"/><path d="M-.202-.147a.25.25 0 0 0 0 .294m.279-.385a.25.25 0 0 0-.28.091" style="fill:none;stroke:#e07c1f;stroke-width:.02;stroke-dasharray:.03,.03;stroke-dashoffset:0" transform="matrix(30 0 0 30 328.67 895.156)"/><path d="M0 0h1M0 0l.309.951M0 0l-.809.588M0 0l-.809-.588M0 0l.309-.951" style="fill:none;stroke:rgba(255,255,255,.2);stroke-width:.01" transform="matrix(30 0 0 30 328.67 895.156)"/><circle r=".06" style="fill:#222;stroke:rgba(255,255,255,.2);stroke-width:.02" transform="matrix(30 0 0 30 328.67 895.156)"/><path d="m0 0 .309.951" style="fill:none;stroke:red;stroke-width:.05;stroke-linecap:round" transform="matrix(30 0 0 30 328.67 895.156)"/><path d="M.309.951 0 0h1zM-.809.588 0 0l.309.951zm0-1.176L0 0l-.809.588zM.309-.95 0 0l-.809-.588z" style="fill:#000" transform="matrix(30 0 0 30 39.734 974.071)"/><path d="M.309.951 0 0h1z" style="fill:#214068" transform="matrix(30 0 0 30 39.734 974.071)"/><path d="M1 0H0l.5-.203z" style="fill:#224935" transform="matrix(30 0 0 30 39.734 974.071)"/><path d="M.309-.951 0 0l-.809-.588z" style="fill:#09294c" transform="matrix(30 0 0 30 39.734 974.071)"/><path d="M.309-.951 0 0l.348-.413z" style="fill:#0d301f" transform="matrix(30 0 0 30 39.734 974.071)"/><path d="M.077.238A.25.25 0 0 0 .25 0" style="fill:none;stroke:#e07c1f;stroke-width:.02;stroke-dasharray:.03,.03;stroke-dashoffset:0" transform="matrix(30 0 0 30 39.734 974.071)"/><path d="M-.202.147a.25.25 0 0 0 .28.09m-.28-.384a.25.25 0 0 0 0 .294m.279-.385a.25.25 0 0 0-.28.091" style="fill:none;stroke:#e07c1f;stroke-width:.02;stroke-dasharray:.03,.03;stroke-dashoffset:0" transform="matrix(30 0 0 30 39.734 974.071)"/><path d="M0 0h1M0 0l.309.951M0 0l-.809.588M0 0l-.809-.588M0 0l.309-.951" style="fill:none;stroke:rgba(255,255,255,.2);stroke-width:.01" transform="matrix(30 0 0 30 39.734 974.071)"/><circle r=".06" style="fill:#222;stroke:rgba(255,255,255,.2);stroke-width:.02" transform="matrix(30 0 0 30 39.734 974.071)"/><path d="M0 .5h13v3L20 0l-7-3.5v3H0z" style="fill:#ccc;stroke:#ccc" transform="translate(80.234 973.72)"/><path d="M.309.951 0 0h1zM-.809.588 0 0l.309.951zm0-1.176L0 0l-.809.588zM.309-.95 0 0l-.809-.588z" style="fill:#000" transform="matrix(30 0 0 30 135.71 974.071)"/><path d="M1 0H0l.5-.203zM.309.951 0 0h1z" style="fill:#214068" transform="matrix(30 0 0 30 135.71 974.071)"/><path d="M.309-.951 0 0l.348-.413zm0 0L0 0l-.809-.588z" style="fill:#09294c" transform="matrix(30 0 0 30 135.71 974.071)"/><path d="M-.202.147a.25.25 0 0 0 .28.09m-.28-.384a.25.25 0 0 0 0 .294" style="fill:none;stroke:#e07c1f;stroke-width:.02;stroke-dasharray:.03,.03;stroke-dashoffset:0" transform="matrix(30 0 0 30 135.71 974.071)"/><path d="M0 0h1M0 0l.309.951M0 0l-.809.588M0 0l-.809-.588M0 0l.309-.951" style="fill:none;stroke:rgba(255,255,255,.2);stroke-width:.01" transform="matrix(30 0 0 30 135.71 974.071)"/><circle r=".06" style="fill:#222;stroke:rgba(255,255,255,.2);stroke-width:.02" transform="matrix(30 0 0 30 135.71 974.071)"/><path d="M0 0h1M0 0l.309-.951" style="fill:none;stroke:red;stroke-width:.05;stroke-linecap:round" transform="matrix(30 0 0 30 135.71 974.071)"/><path d="M.309.951 0 0h1zM-.809.588 0 0l.309.951zm0-1.176L0 0l-.809.588zM.309-.95 0 0l-.809-.588z" style="fill:#000" transform="matrix(30 0 0 30 231.613 973.72)"/><path d="M1 0H0l.5-.203z" style="fill:#214068" transform="matrix(30 0 0 30 231.613 973.72)"/><path d="M.309-.951 0 0l.348-.413zm0 1.902L0 0h1z" style="fill:#09294c" transform="matrix(30 0 0 30 231.613 973.72)"/><path d="M.077.238A.25.25 0 0 0 .25 0" style="fill:none;stroke:#e07c1f;stroke-width:.02;stroke-dasharray:.03,.03;stroke-dashoffset:0" transform="matrix(30 0 0 30 231.613 973.72)"/><path d="M-.202.147a.25.25 0 0 0 .28.09m-.28-.384a.25.25 0 0 0 0 .294m.279-.385a.25.25 0 0 0-.28.091" style="fill:none;stroke:#e07c1f;stroke-width:.02;stroke-dasharray:.03,.03;stroke-dashoffset:0" transform="matrix(30 0 0 30 231.613 973.72)"/><path d="M0 0h1M0 0l.309.951M0 0l-.809.588M0 0l-.809-.588M0 0l.309-.951" style="fill:none;stroke:rgba(255,255,255,.2);stroke-width:.01" transform="matrix(30 0 0 30 231.613 973.72)"/><circle r=".06" style="fill:#222;stroke:rgba(255,255,255,.2);stroke-width:.02" transform="matrix(30 0 0 30 231.613 973.72)"/><path d="M0 .5h13v3L20 0l-7-3.5v3H0z" style="fill:#ccc;stroke:#ccc" transform="translate(272.113 973.72)"/><path d="M.309.951 0 0h1zM-.809.588 0 0l.309.951zm0-1.176L0 0l-.809.588zM.309-.95 0 0l-.809-.588z" style="fill:#000" transform="matrix(30 0 0 30 328.252 973.72)"/><path d="M1 0H0l.5-.203z" style="fill:#214068" transform="matrix(30 0 0 30 328.252 973.72)"/><path d="M.309-.951 0 0l.348-.413zm0 0L0 0l-.809-.588zm-1.118.363L0 0l-.809.588zm0 1.176L0 0l.309.951zM.309.95 0 0h1z" style="fill:#09294c" transform="matrix(30 0 0 30 328.252 973.72)"/><path d="M0 0h1M0 0l.309.951M0 0l-.809.588M0 0l-.809-.588M0 0l.309-.951" style="fill:none;stroke:rgba(255,255,255,.2);stroke-width:.01" transform="matrix(30 0 0 30 328.252 973.72)"/><circle r=".06" style="fill:#222;stroke:rgba(255,255,255,.2);stroke-width:.02" transform="matrix(30 0 0 30 328.252 973.72)"/><path d="m0 0 .309.951M0 0l-.809.588M0 0l-.809-.588M0 0l.309-.951" style="fill:none;stroke:red;stroke-width:.05;stroke-linecap:round" transform="matrix(30 0 0 30 328.252 973.72)"/><path d="M0 0h1" style="fill:none;stroke:#fff;stroke-width:.1;stroke-linecap:round" transform="matrix(30 0 0 30 328.252 973.72)"/><path d="M.309.951 0 0h1zM-.809.588 0 0l.309.951zm0-1.176L0 0l-.809.588zM.309-.95 0 0l-.809-.588z" style="fill:#000" transform="matrix(30 0 0 30 39.734 1051.58)"/><path d="M1 0H0l.5-.203zM.309.951 0 0h1z" style="fill:#214068" transform="matrix(30 0 0 30 39.734 1051.58)"/><path d="M.309-.951 0 0l.348-.413z" style="fill:#09294c" transform="matrix(30 0 0 30 39.734 1051.58)"/><path d="M.077.238A.25.25 0 0 0 .25 0" style="fill:none;stroke:#e07c1f;stroke-width:.02;stroke-dasharray:.03,.03;stroke-dashoffset:0" transform="matrix(30 0 0 30 39.734 1051.58)"/><path d="M-.202.147a.25.25 0 0 0 .28.09m-.28-.384a.25.25 0 0 0 0 .294m.279-.385a.25.25 0 0 0-.28.091" style="fill:none;stroke:#e07c1f;stroke-width:.02;stroke-dasharray:.03,.03;stroke-dashoffset:0" transform="matrix(30 0 0 30 39.734 1051.58)"/><path d="M0 0h1M0 0l.309.951M0 0l-.809.588M0 0l-.809-.588M0 0l.309-.951" style="fill:none;stroke:rgba(255,255,255,.2);stroke-width:.01" transform="matrix(30 0 0 30 39.734 1051.58)"/><circle r=".06" style="fill:#222;stroke:rgba(255,255,255,.2);stroke-width:.02" transform="matrix(30 0 0 30 39.734 1051.58)"/><path d="M0 .5h13v3L20 0l-7-3.5v3H0z" style="fill:#ccc;stroke:#ccc" transform="translate(80.234 1051.58)"/><path d="M.309.951 0 0h1zM-.809.588 0 0l.309.951zm0-1.176L0 0l-.809.588zM.309-.95 0 0l-.809-.588z" style="fill:#000" transform="matrix(30 0 0 30 135.71 1051.58)"/><path d="M1 0H0l.5-.203zM.309.951 0 0h1z" style="fill:#214068" transform="matrix(30 0 0 30 135.71 1051.58)"/><path d="M.309-.951 0 0l.348-.413z" style="fill:#09294c" transform="matrix(30 0 0 30 135.71 1051.58)"/><path d="M-.202.147a.25.25 0 0 0 .28.09m-.28-.384a.25.25 0 0 0 0 .294m.279-.385a.25.25 0 0 0-.28.091" style="fill:none;stroke:#e07c1f;stroke-width:.02;stroke-dasharray:.03,.03;stroke-dashoffset:0" transform="matrix(30 0 0 30 135.71 1051.58)"/><path d="M0 0h1M0 0l.309.951M0 0l-.809.588M0 0l-.809-.588M0 0l.309-.951" style="fill:none;stroke:rgba(255,255,255,.2);stroke-width:.01" transform="matrix(30 0 0 30 135.71 1051.58)"/><circle r=".06" style="fill:#222;stroke:rgba(255,255,255,.2);stroke-width:.02" transform="matrix(30 0 0 30 135.71 1051.58)"/><path d="M0 0h1" style="fill:none;stroke:red;stroke-width:.05;stroke-linecap:round" transform="matrix(30 0 0 30 135.71 1051.58)"/></svg>