<svg xmlns="http://www.w3.org/2000/svg" width="175" height="156" aria-hidden="true" style="pointer-events:none;position:absolute;left:0;top:0;transform-origin:left top;z-index:20"><rect width="165" height="146" rx="0" ry="0" style="fill:#333"/><path d="m0 .299-.707.408L-1.115 0l.408-.707L0-.3z" style="fill:#000" transform="matrix(30 0 0 30 52.51 40.263)"/><path d="M-.49.582A.25.25 0 0 0-.833.491M-.99.217a.25.25 0 0 0 0-.434" style="fill:none;stroke:#e07c1f;stroke-width:.02;stroke-dasharray:.03,.03;stroke-dashoffset:0" transform="matrix(30 0 0 30 52.51 40.263)"/><path d="M-.817-.517a.22.22 0 0 0 .3-.08m-.33.132a.28.28 0 0 0 .382-.102m.275.158a.22.22 0 0 0 .19.33m-.242-.36A.28.28 0 0 0 0-.019m0 .098a.22.22 0 0 0-.19.33M0 .019a.28.28 0 0 0-.242.42" style="fill:none;stroke:#08a4d9;stroke-width:.02" transform="matrix(30 0 0 30 52.51 40.263)"/><path d="m0 .299-.707.408m0 0L-1.115 0m0 0 .408-.707m0 0L0-.3m0 .6v-.6" style="fill:none;stroke:rgba(255,255,255,.2);stroke-width:.01" transform="matrix(30 0 0 30 52.51 40.263)"/><circle r=".06" style="fill:#222;stroke:rgba(255,255,255,.2);stroke-width:.02" transform="matrix(30 0 0 30 52.51 49.229)"/><circle r=".06" style="fill:#222;stroke:rgba(255,255,255,.2);stroke-width:.02" transform="matrix(30 0 0 30 31.297 61.476)"/><circle r=".06" style="fill:#222;stroke:rgba(255,255,255,.2);stroke-width:.02" transform="matrix(30 0 0 30 19.05 40.263)"/><circle r=".06" style="fill:#222;stroke:rgba(255,255,255,.2);stroke-width:.02" transform="matrix(30 0 0 30 31.297 19.05)"/><circle r=".06" style="fill:#222;stroke:rgba(255,255,255,.2);stroke-width:.02" transform="matrix(30 0 0 30 52.51 31.297)"/><path d="m0 .299-.707.408.53-.013zm-.707.408L-1.115 0l-.048.441zM-1.115 0l.408-.707-.456.266zm.408-.707L0-.3l-.177-.395zM0 .299V-.3l.264.3z" style="fill:none;stroke:#666;stroke-width:.05;stroke-dasharray:.05,.05;stroke-dashoffset:0" transform="matrix(30 0 0 30 52.51 40.263)"/><circle r=".12" style="fill:none;stroke:red;stroke-width:.03" transform="matrix(30 0 0 30 52.51 49.229)"/><circle r=".12" style="fill:none;stroke:red;stroke-width:.03" transform="matrix(30 0 0 30 31.297 19.05)"/><circle r=".12" style="fill:none;stroke:red;stroke-width:.03" transform="matrix(30 0 0 30 52.51 31.297)"/><path d="M0 .5h13v3L20 0l-7-3.5v3H0z" style="fill:#ccc;stroke:#ccc" transform="translate(71.946 39.288)"/><path d="m0 .299-.707.408L-1.115 0l.408-.707L0-.3z" style="fill:#000" transform="matrix(30 0 0 30 138.743 40.263)"/><path d="m0 .299-.707.408m0 0L-1.115 0m0 0 .408-.707m0 0L0-.3m0 .6v-.6" style="fill:none;stroke:rgba(255,255,255,.2);stroke-width:.01" transform="matrix(30 0 0 30 138.743 40.263)"/><circle r=".06" style="fill:#222;stroke:rgba(255,255,255,.2);stroke-width:.02" transform="matrix(30 0 0 30 138.743 49.229)"/><circle r=".06" style="fill:#222;stroke:rgba(255,255,255,.2);stroke-width:.02" transform="matrix(30 0 0 30 117.53 61.476)"/><circle r=".06" style="fill:#222;stroke:rgba(255,255,255,.2);stroke-width:.02" transform="matrix(30 0 0 30 105.283 40.263)"/><circle r=".06" style="fill:#222;stroke:rgba(255,255,255,.2);stroke-width:.02" transform="matrix(30 0 0 30 117.53 19.05)"/><circle r=".06" style="fill:#222;stroke:rgba(255,255,255,.2);stroke-width:.02" transform="matrix(30 0 0 30 138.743 31.297)"/><path d="m0 .299-.707.408.53-.013zm-.707.408L-1.115 0l-.048.441zM-1.115 0l.408-.707-.456.266zm.408-.707L0-.3l-.177-.395zM0 .299V-.3l.264.3z" style="fill:none;stroke:#666;stroke-width:.05;stroke-dasharray:.05,.05;stroke-dashoffset:0" transform="matrix(30 0 0 30 138.743 40.263)"/><circle r=".12" style="fill:none;stroke:red;stroke-width:.03" transform="matrix(30 0 0 30 138.743 49.229)"/><circle r=".12" style="fill:none;stroke:red;stroke-width:.03" transform="matrix(30 0 0 30 117.53 19.05)"/><circle r=".12" style="fill:none;stroke:red;stroke-width:.03" transform="matrix(30 0 0 30 138.743 31.297)"/><path d="m0 .299-.707.408m0 0L-1.115 0m0 0 .408-.707m0 0L0-.3m0 .6v-.6" style="fill:none;stroke:red;stroke-width:.05;stroke-linecap:round" transform="matrix(30 0 0 30 138.743 40.263)"/><path d="m0 .299-.707.408L-1.115 0l.408-.707L0-.3z" style="fill:#000" transform="matrix(30 0 0 30 52.51 106.89)"/><path d="M-.49.582A.25.25 0 0 0-.833.491" style="fill:none;stroke:#e07c1f;stroke-width:.02;stroke-dasharray:.03,.03;stroke-dashoffset:0" transform="matrix(30 0 0 30 52.51 106.89)"/><path d="M-1.005.19a.22.22 0 0 0 0-.38m.03.432a.28.28 0 0 0 0-.484" style="fill:none;stroke:#08a4d9;stroke-width:.02" transform="matrix(30 0 0 30 52.51 106.89)"/><path d="M-.832-.49a.25.25 0 0 0 .341-.092" style="fill:none;stroke:#e07c1f;stroke-width:.02;stroke-dasharray:.03,.03;stroke-dashoffset:0" transform="matrix(30 0 0 30 52.51 106.89)"/><path d="M-.19-.409a.22.22 0 0 0 .19.33m-.242-.36A.28.28 0 0 0 0-.019m0 .098a.22.22 0 0 0-.19.33M0 .019a.28.28 0 0 0-.242.42" style="fill:none;stroke:#08a4d9;stroke-width:.02" transform="matrix(30 0 0 30 52.51 106.89)"/><path d="m0 .299-.707.408m0 0L-1.115 0m0 0 .408-.707m0 0L0-.3m0 .6v-.6" style="fill:none;stroke:rgba(255,255,255,.2);stroke-width:.01" transform="matrix(30 0 0 30 52.51 106.89)"/><circle r=".06" style="fill:#222;stroke:rgba(255,255,255,.2);stroke-width:.02" transform="matrix(30 0 0 30 52.51 115.855)"/><circle r=".06" style="fill:#222;stroke:rgba(255,255,255,.2);stroke-width:.02" transform="matrix(30 0 0 30 31.297 128.103)"/><circle r=".06" style="fill:#222;stroke:rgba(255,255,255,.2);stroke-width:.02" transform="matrix(30 0 0 30 19.05 106.89)"/><circle r=".06" style="fill:#222;stroke:rgba(255,255,255,.2);stroke-width:.02" transform="matrix(30 0 0 30 31.297 85.676)"/><circle r=".06" style="fill:#222;stroke:rgba(255,255,255,.2);stroke-width:.02" transform="matrix(30 0 0 30 52.51 97.924)"/><path d="m0 .299-.707.408.53-.013zm-.707.408L-1.115 0l-.048.441zM-1.115 0l.408-.707-.456.266zm.408-.707L0-.3l-.177-.395zM0 .299V-.3l.264.3z" style="fill:none;stroke:#666;stroke-width:.05;stroke-dasharray:.05,.05;stroke-dashoffset:0" transform="matrix(30 0 0 30 52.51 106.89)"/><circle r=".12" style="fill:none;stroke:red;stroke-width:.03" transform="matrix(30 0 0 30 52.51 115.855)"/><circle r=".12" style="fill:none;stroke:red;stroke-width:.03" transform="matrix(30 0 0 30 19.05 106.89)"/><circle r=".12" style="fill:none;stroke:red;stroke-width:.03" transform="matrix(30 0 0 30 52.51 97.924)"/><path d="M0 .5h13v3L20 0l-7-3.5v3H0z" style="fill:#ccc;stroke:#ccc" transform="translate(71.946 106.89)"/><path d="m0 .299-.707.408L-1.115 0l.408-.707L0-.3z" style="fill:#000" transform="matrix(30 0 0 30 140.575 106.89)"/><path d="m0 .299-.707.408m0 0L-1.115 0m0 0 .408-.707m0 0L0-.3m0 .6v-.6" style="fill:none;stroke:rgba(255,255,255,.2);stroke-width:.01" transform="matrix(30 0 0 30 140.575 106.89)"/><circle r=".06" style="fill:#222;stroke:rgba(255,255,255,.2);stroke-width:.02" transform="matrix(30 0 0 30 140.575 115.855)"/><circle r=".06" style="fill:#222;stroke:rgba(255,255,255,.2);stroke-width:.02" transform="matrix(30 0 0 30 119.361 128.103)"/><circle r=".06" style="fill:#222;stroke:rgba(255,255,255,.2);stroke-width:.02" transform="matrix(30 0 0 30 107.114 106.89)"/><circle r=".06" style="fill:#222;stroke:rgba(255,255,255,.2);stroke-width:.02" transform="matrix(30 0 0 30 119.361 85.676)"/><circle r=".06" style="fill:#222;stroke:rgba(255,255,255,.2);stroke-width:.02" transform="matrix(30 0 0 30 140.575 97.924)"/><path d="m0 .299-.707.408.53-.013zm-.707.408L-1.115 0l-.048.441zM-1.115 0l.408-.707-.456.266zm.408-.707L0-.3l-.177-.395zM0 .299V-.3l.264.3z" style="fill:none;stroke:#666;stroke-width:.05;stroke-dasharray:.05,.05;stroke-dashoffset:0" transform="matrix(30 0 0 30 140.575 106.89)"/><circle r=".12" style="fill:none;stroke:red;stroke-width:.03" transform="matrix(30 0 0 30 140.575 115.855)"/><circle r=".12" style="fill:none;stroke:red;stroke-width:.03" transform="matrix(30 0 0 30 107.114 106.89)"/><circle r=".12" style="fill:none;stroke:red;stroke-width:.03" transform="matrix(30 0 0 30 140.575 97.924)"/><path d="m0 .299-.707.408m0 0L-1.115 0m0 0 .408-.707m0 0L0-.3m0 .6v-.6" style="fill:none;stroke:red;stroke-width:.05;stroke-linecap:round" transform="matrix(30 0 0 30 140.575 106.89)"/></svg>