<svg xmlns="http://www.w3.org/2000/svg" width="183" height="213" aria-hidden="true" style="pointer-events:none;position:absolute;left:0;top:0;transform-origin:left top;z-index:20"><rect width="173" height="203" rx="0" ry="0" style="fill:#333"/><path d="M.537.31 0 .62-.537.31v-.62L0-.62l.537.31z" style="fill:#000" transform="matrix(30 0 0 30 40.17 37.662)"/><path d="M.217.495a.25.25 0 0 0-.434 0M-.32.435A.25.25 0 0 0-.538.06" style="fill:none;stroke:#e07c1f;stroke-width:.02;stroke-dasharray:.03,.03;stroke-dashoffset:0" transform="matrix(30 0 0 30 40.17 37.662)"/><path d="M-.537-.09a.22.22 0 0 0 .19-.33m-.19.39a.28.28 0 0 0 .242-.42m.105-.06a.22.22 0 0 0 .38 0m-.432.03a.28.28 0 0 0 .484 0m.105.06a.22.22 0 0 0 .19.33M.295-.45a.28.28 0 0 0 .242.42m0 .12a.22.22 0 0 0-.19.33m.19-.39a.28.28 0 0 0-.242.42" style="fill:none;stroke:#08a4d9;stroke-width:.02" transform="matrix(30 0 0 30 40.17 37.662)"/><path d="M.537.31 0 .62m0 0L-.537.31m0 0v-.62m0 0L0-.62m0 0 .537.31m0 .62v-.62" style="fill:none;stroke:rgba(255,255,255,.2);stroke-width:.01" transform="matrix(30 0 0 30 40.17 37.662)"/><circle r=".06" style="fill:#222;stroke:rgba(255,255,255,.2);stroke-width:.02" transform="matrix(30 0 0 30 56.289 46.968)"/><circle r=".06" style="fill:#222;stroke:rgba(255,255,255,.2);stroke-width:.02" transform="matrix(30 0 0 30 40.17 56.274)"/><circle r=".06" style="fill:#222;stroke:rgba(255,255,255,.2);stroke-width:.02" transform="matrix(30 0 0 30 24.051 46.968)"/><circle r=".06" style="fill:#222;stroke:rgba(255,255,255,.2);stroke-width:.02" transform="matrix(30 0 0 30 24.051 28.356)"/><circle r=".06" style="fill:#222;stroke:rgba(255,255,255,.2);stroke-width:.02" transform="matrix(30 0 0 30 40.17 19.05)"/><circle r=".06" style="fill:#222;stroke:rgba(255,255,255,.2);stroke-width:.02" transform="matrix(30 0 0 30 56.289 28.356)"/><path d="M.537.31 0 .62l.403.078zM0 .62-.537.31l.134.388zM-.537.31v-.62L-.806 0zm0-.62L0-.62l-.403-.078zM0-.62l.537.31-.134-.388zm.537.93v-.62L.806 0z" style="fill:none;stroke:#666;stroke-width:.05;stroke-dasharray:.05,.05;stroke-dashoffset:0" transform="matrix(30 0 0 30 40.17 37.662)"/><circle r=".12" style="fill:none;stroke:red;stroke-width:.03" transform="matrix(30 0 0 30 56.289 46.968)"/><circle r=".12" style="fill:none;stroke:red;stroke-width:.03" transform="matrix(30 0 0 30 24.051 28.356)"/><circle r=".12" style="fill:none;stroke:red;stroke-width:.03" transform="matrix(30 0 0 30 40.17 19.05)"/><circle r=".12" style="fill:none;stroke:red;stroke-width:.03" transform="matrix(30 0 0 30 56.289 28.356)"/><path d="M0 .5h13v3L20 0l-7-3.5v3H0z" style="fill:#ccc;stroke:#ccc" transform="translate(75.84 37.23)"/><path d="M.537.31 0 .62-.537.31v-.62L0-.62l.537.31z" style="fill:#000" transform="matrix(30 0 0 30 132.128 37.662)"/><path d="M.537.31 0 .62m0 0L-.537.31m0 0v-.62m0 0L0-.62m0 0 .537.31m0 .62v-.62" style="fill:none;stroke:rgba(255,255,255,.2);stroke-width:.01" transform="matrix(30 0 0 30 132.128 37.662)"/><circle r=".06" style="fill:#222;stroke:rgba(255,255,255,.2);stroke-width:.02" transform="matrix(30 0 0 30 148.247 46.968)"/><circle r=".06" style="fill:#222;stroke:rgba(255,255,255,.2);stroke-width:.02" transform="matrix(30 0 0 30 132.128 56.274)"/><circle r=".06" style="fill:#222;stroke:rgba(255,255,255,.2);stroke-width:.02" transform="matrix(30 0 0 30 116.01 46.968)"/><circle r=".06" style="fill:#222;stroke:rgba(255,255,255,.2);stroke-width:.02" transform="matrix(30 0 0 30 116.01 28.356)"/><circle r=".06" style="fill:#222;stroke:rgba(255,255,255,.2);stroke-width:.02" transform="matrix(30 0 0 30 132.128 19.05)"/><circle r=".06" style="fill:#222;stroke:rgba(255,255,255,.2);stroke-width:.02" transform="matrix(30 0 0 30 148.247 28.356)"/><path d="M.537.31 0 .62l.403.078zM0 .62-.537.31l.134.388zM-.537.31v-.62L-.806 0zm0-.62L0-.62l-.403-.078zM0-.62l.537.31-.134-.388zm.537.93v-.62L.806 0z" style="fill:none;stroke:#666;stroke-width:.05;stroke-dasharray:.05,.05;stroke-dashoffset:0" transform="matrix(30 0 0 30 132.128 37.662)"/><circle r=".12" style="fill:none;stroke:red;stroke-width:.03" transform="matrix(30 0 0 30 148.247 46.968)"/><circle r=".12" style="fill:none;stroke:red;stroke-width:.03" transform="matrix(30 0 0 30 116.01 28.356)"/><circle r=".12" style="fill:none;stroke:red;stroke-width:.03" transform="matrix(30 0 0 30 132.128 19.05)"/><circle r=".12" style="fill:none;stroke:red;stroke-width:.03" transform="matrix(30 0 0 30 148.247 28.356)"/><path d="M.537.31 0 .62m0 0L-.537.31m0 0v-.62m0 0L0-.62m0 0 .537.31m0 .62v-.62" style="fill:none;stroke:red;stroke-width:.05;stroke-linecap:round" transform="matrix(30 0 0 30 132.128 37.662)"/><path d="M.537.31 0 .62-.537.31v-.62L0-.62l.537.31z" style="fill:#000" transform="matrix(30 0 0 30 40.17 102.122)"/><path d="M.217.495a.25.25 0 0 0-.434 0" style="fill:none;stroke:#e07c1f;stroke-width:.02;stroke-dasharray:.03,.03;stroke-dashoffset:0" transform="matrix(30 0 0 30 40.17 102.122)"/><path d="M-.347.42a.22.22 0 0 0-.19-.33m.242.36A.28.28 0 0 0-.537.03" style="fill:none;stroke:#08a4d9;stroke-width:.02" transform="matrix(30 0 0 30 40.17 102.122)"/><path d="M-.537-.06a.25.25 0 0 0 .216-.375" style="fill:none;stroke:#e07c1f;stroke-width:.02;stroke-dasharray:.03,.03;stroke-dashoffset:0" transform="matrix(30 0 0 30 40.17 102.122)"/><path d="M-.19-.51a.22.22 0 0 0 .38 0m-.432.03a.28.28 0 0 0 .484 0m.105.06a.22.22 0 0 0 .19.33M.295-.45a.28.28 0 0 0 .242.42m0 .12a.22.22 0 0 0-.19.33m.19-.39a.28.28 0 0 0-.242.42" style="fill:none;stroke:#08a4d9;stroke-width:.02" transform="matrix(30 0 0 30 40.17 102.122)"/><path d="M.537.31 0 .62m0 0L-.537.31m0 0v-.62m0 0L0-.62m0 0 .537.31m0 .62v-.62" style="fill:none;stroke:rgba(255,255,255,.2);stroke-width:.01" transform="matrix(30 0 0 30 40.17 102.122)"/><circle r=".06" style="fill:#222;stroke:rgba(255,255,255,.2);stroke-width:.02" transform="matrix(30 0 0 30 56.289 111.428)"/><circle r=".06" style="fill:#222;stroke:rgba(255,255,255,.2);stroke-width:.02" transform="matrix(30 0 0 30 40.17 120.734)"/><circle r=".06" style="fill:#222;stroke:rgba(255,255,255,.2);stroke-width:.02" transform="matrix(30 0 0 30 24.051 111.428)"/><circle r=".06" style="fill:#222;stroke:rgba(255,255,255,.2);stroke-width:.02" transform="matrix(30 0 0 30 24.051 92.816)"/><circle r=".06" style="fill:#222;stroke:rgba(255,255,255,.2);stroke-width:.02" transform="matrix(30 0 0 30 40.17 83.51)"/><circle r=".06" style="fill:#222;stroke:rgba(255,255,255,.2);stroke-width:.02" transform="matrix(30 0 0 30 56.289 92.816)"/><path d="M.537.31 0 .62l.403.078zM0 .62-.537.31l.134.388zM-.537.31v-.62L-.806 0zm0-.62L0-.62l-.403-.078zM0-.62l.537.31-.134-.388zm.537.93v-.62L.806 0z" style="fill:none;stroke:#666;stroke-width:.05;stroke-dasharray:.05,.05;stroke-dashoffset:0" transform="matrix(30 0 0 30 40.17 102.122)"/><circle r=".12" style="fill:none;stroke:red;stroke-width:.03" transform="matrix(30 0 0 30 56.289 111.428)"/><circle r=".12" style="fill:none;stroke:red;stroke-width:.03" transform="matrix(30 0 0 30 24.051 111.428)"/><circle r=".12" style="fill:none;stroke:red;stroke-width:.03" transform="matrix(30 0 0 30 40.17 83.51)"/><circle r=".12" style="fill:none;stroke:red;stroke-width:.03" transform="matrix(30 0 0 30 56.289 92.816)"/><path d="M0 .5h13v3L20 0l-7-3.5v3H0z" style="fill:#ccc;stroke:#ccc" transform="translate(75.84 101.69)"/><path d="M.537.31 0 .62-.537.31v-.62L0-.62l.537.31z" style="fill:#000" transform="matrix(30 0 0 30 132.128 102.122)"/><path d="M.537.31 0 .62m0 0L-.537.31m0 0v-.62m0 0L0-.62m0 0 .537.31m0 .62v-.62" style="fill:none;stroke:rgba(255,255,255,.2);stroke-width:.01" transform="matrix(30 0 0 30 132.128 102.122)"/><circle r=".06" style="fill:#222;stroke:rgba(255,255,255,.2);stroke-width:.02" transform="matrix(30 0 0 30 148.247 111.428)"/><circle r=".06" style="fill:#222;stroke:rgba(255,255,255,.2);stroke-width:.02" transform="matrix(30 0 0 30 132.128 120.734)"/><circle r=".06" style="fill:#222;stroke:rgba(255,255,255,.2);stroke-width:.02" transform="matrix(30 0 0 30 116.01 111.428)"/><circle r=".06" style="fill:#222;stroke:rgba(255,255,255,.2);stroke-width:.02" transform="matrix(30 0 0 30 116.01 92.816)"/><circle r=".06" style="fill:#222;stroke:rgba(255,255,255,.2);stroke-width:.02" transform="matrix(30 0 0 30 132.128 83.51)"/><circle r=".06" style="fill:#222;stroke:rgba(255,255,255,.2);stroke-width:.02" transform="matrix(30 0 0 30 148.247 92.816)"/><path d="M.537.31 0 .62l.403.078zM0 .62-.537.31l.134.388zM-.537.31v-.62L-.806 0zm0-.62L0-.62l-.403-.078zM0-.62l.537.31-.134-.388zm.537.93v-.62L.806 0z" style="fill:none;stroke:#666;stroke-width:.05;stroke-dasharray:.05,.05;stroke-dashoffset:0" transform="matrix(30 0 0 30 132.128 102.122)"/><circle r=".12" style="fill:none;stroke:red;stroke-width:.03" transform="matrix(30 0 0 30 148.247 111.428)"/><circle r=".12" style="fill:none;stroke:red;stroke-width:.03" transform="matrix(30 0 0 30 116.01 111.428)"/><circle r=".12" style="fill:none;stroke:red;stroke-width:.03" transform="matrix(30 0 0 30 132.128 83.51)"/><circle r=".12" style="fill:none;stroke:red;stroke-width:.03" transform="matrix(30 0 0 30 148.247 92.816)"/><path d="M.537.31 0 .62m0 0L-.537.31m0 0v-.62m0 0L0-.62m0 0 .537.31m0 .62v-.62" style="fill:none;stroke:red;stroke-width:.05;stroke-linecap:round" transform="matrix(30 0 0 30 132.128 102.122)"/><path d="M.537.31 0 .62-.537.31v-.62L0-.62l.537.31z" style="fill:#000" transform="matrix(30 0 0 30 40.17 165.718)"/><path d="M.217.495a.25.25 0 0 0-.434 0" style="fill:none;stroke:#e07c1f;stroke-width:.02;stroke-dasharray:.03,.03;stroke-dashoffset:0" transform="matrix(30 0 0 30 40.17 165.718)"/><path d="M-.347.42a.22.22 0 0 0-.19-.33m.242.36A.28.28 0 0 0-.537.03m0-.12a.22.22 0 0 0 .19-.33m-.19.39a.28.28 0 0 0 .242-.42" style="fill:none;stroke:#08a4d9;stroke-width:.02" transform="matrix(30 0 0 30 40.17 165.718)"/><path d="M-.217-.495a.25.25 0 0 0 .434 0" style="fill:none;stroke:#e07c1f;stroke-width:.02;stroke-dasharray:.03,.03;stroke-dashoffset:0" transform="matrix(30 0 0 30 40.17 165.718)"/><path d="M.347-.42a.22.22 0 0 0 .19.33M.295-.45a.28.28 0 0 0 .242.42m0 .12a.22.22 0 0 0-.19.33m.19-.39a.28.28 0 0 0-.242.42" style="fill:none;stroke:#08a4d9;stroke-width:.02" transform="matrix(30 0 0 30 40.17 165.718)"/><path d="M.537.31 0 .62m0 0L-.537.31m0 0v-.62m0 0L0-.62m0 0 .537.31m0 .62v-.62" style="fill:none;stroke:rgba(255,255,255,.2);stroke-width:.01" transform="matrix(30 0 0 30 40.17 165.718)"/><circle r=".06" style="fill:#222;stroke:rgba(255,255,255,.2);stroke-width:.02" transform="matrix(30 0 0 30 56.289 175.024)"/><circle r=".06" style="fill:#222;stroke:rgba(255,255,255,.2);stroke-width:.02" transform="matrix(30 0 0 30 40.17 184.33)"/><circle r=".06" style="fill:#222;stroke:rgba(255,255,255,.2);stroke-width:.02" transform="matrix(30 0 0 30 24.051 175.024)"/><circle r=".06" style="fill:#222;stroke:rgba(255,255,255,.2);stroke-width:.02" transform="matrix(30 0 0 30 24.051 156.412)"/><circle r=".06" style="fill:#222;stroke:rgba(255,255,255,.2);stroke-width:.02" transform="matrix(30 0 0 30 40.17 147.106)"/><circle r=".06" style="fill:#222;stroke:rgba(255,255,255,.2);stroke-width:.02" transform="matrix(30 0 0 30 56.289 156.412)"/><path d="M.537.31 0 .62l.403.078zM0 .62-.537.31l.134.388zM-.537.31v-.62L-.806 0zm0-.62L0-.62l-.403-.078zM0-.62l.537.31-.134-.388zm.537.93v-.62L.806 0z" style="fill:none;stroke:#666;stroke-width:.05;stroke-dasharray:.05,.05;stroke-dashoffset:0" transform="matrix(30 0 0 30 40.17 165.718)"/><circle r=".12" style="fill:none;stroke:red;stroke-width:.03" transform="matrix(30 0 0 30 56.289 175.024)"/><circle r=".12" style="fill:none;stroke:red;stroke-width:.03" transform="matrix(30 0 0 30 24.051 175.024)"/><circle r=".12" style="fill:none;stroke:red;stroke-width:.03" transform="matrix(30 0 0 30 24.051 156.412)"/><circle r=".12" style="fill:none;stroke:red;stroke-width:.03" transform="matrix(30 0 0 30 56.289 156.412)"/><path d="M0 .5h13v3L20 0l-7-3.5v3H0z" style="fill:#ccc;stroke:#ccc" transform="translate(75.84 165.718)"/><path d="M.537.31 0 .62-.537.31v-.62L0-.62l.537.31z" style="fill:#000" transform="matrix(30 0 0 30 132.128 165.718)"/><path d="M.537.31 0 .62m0 0L-.537.31m0 0v-.62m0 0L0-.62m0 0 .537.31m0 .62v-.62" style="fill:none;stroke:rgba(255,255,255,.2);stroke-width:.01" transform="matrix(30 0 0 30 132.128 165.718)"/><circle r=".06" style="fill:#222;stroke:rgba(255,255,255,.2);stroke-width:.02" transform="matrix(30 0 0 30 148.247 175.024)"/><circle r=".06" style="fill:#222;stroke:rgba(255,255,255,.2);stroke-width:.02" transform="matrix(30 0 0 30 132.128 184.33)"/><circle r=".06" style="fill:#222;stroke:rgba(255,255,255,.2);stroke-width:.02" transform="matrix(30 0 0 30 116.01 175.024)"/><circle r=".06" style="fill:#222;stroke:rgba(255,255,255,.2);stroke-width:.02" transform="matrix(30 0 0 30 116.01 156.412)"/><circle r=".06" style="fill:#222;stroke:rgba(255,255,255,.2);stroke-width:.02" transform="matrix(30 0 0 30 132.128 147.106)"/><circle r=".06" style="fill:#222;stroke:rgba(255,255,255,.2);stroke-width:.02" transform="matrix(30 0 0 30 148.247 156.412)"/><path d="M.537.31 0 .62l.403.078zM0 .62-.537.31l.134.388zM-.537.31v-.62L-.806 0zm0-.62L0-.62l-.403-.078zM0-.62l.537.31-.134-.388zm.537.93v-.62L.806 0z" style="fill:none;stroke:#666;stroke-width:.05;stroke-dasharray:.05,.05;stroke-dashoffset:0" transform="matrix(30 0 0 30 132.128 165.718)"/><circle r=".12" style="fill:none;stroke:red;stroke-width:.03" transform="matrix(30 0 0 30 148.247 175.024)"/><circle r=".12" style="fill:none;stroke:red;stroke-width:.03" transform="matrix(30 0 0 30 116.01 175.024)"/><circle r=".12" style="fill:none;stroke:red;stroke-width:.03" transform="matrix(30 0 0 30 116.01 156.412)"/><circle r=".12" style="fill:none;stroke:red;stroke-width:.03" transform="matrix(30 0 0 30 148.247 156.412)"/><path d="M.537.31 0 .62m0 0L-.537.31m0 0v-.62m0 0L0-.62m0 0 .537.31m0 .62v-.62" style="fill:none;stroke:red;stroke-width:.05;stroke-linecap:round" transform="matrix(30 0 0 30 132.128 165.718)"/></svg>