<svg xmlns="http://www.w3.org/2000/svg" width="195" height="285" aria-hidden="true" style="pointer-events:none;position:absolute;left:0;top:0;transform-origin:left top;z-index:20"><rect width="185" height="275" rx="0" ry="0" style="fill:#333"/><path d="m0 0 .76 1.316H-.76z" style="fill:#000" transform="matrix(30 0 0 30 46.3 17.1)"/><path d="m0 0 .76 1.316m0 0H-.76M0 0l-.76 1.316" style="fill:none;stroke:rgba(255,255,255,.2);stroke-width:.01" transform="matrix(30 0 0 30 46.3 17.1)"/><circle r=".06" style="fill:#222;stroke:rgba(255,255,255,.2);stroke-width:.02" transform="matrix(30 0 0 30 46.3 17.1)"/><circle r=".06" style="fill:#222;stroke:rgba(255,255,255,.2);stroke-width:.02" transform="matrix(30 0 0 30 69.095 56.582)"/><circle r=".06" style="fill:#222;stroke:rgba(255,255,255,.2);stroke-width:.02" transform="matrix(30 0 0 30 23.504 56.582)"/><text xml:space="preserve" dominant-baseline="alphabetic" font-family="Helvetica, Arial, sans-serif" font-size="25" lengthAdjust="spacingAndGlyphs" style="fill:rgba(255,255,255,.2)" text-rendering="geometricPrecision" textLength="13.904" transform="translate(39.827 51.335)scale(.93103)">?</text><path d="m0 0 .76 1.316" style="fill:none;stroke:#fff;stroke-width:.1;stroke-linecap:round" transform="matrix(30 0 0 30 46.3 17.1)"/><path d="M0 .5h13v3L20 0l-7-3.5v3H0z" style="fill:#ccc;stroke:#ccc" transform="translate(81.695 36.841)"/><path d="m0 0 .76 1.316H-.76z" style="fill:#000" transform="matrix(30 0 0 30 137.708 17.1)"/><path d="M-.51 1.316A.25.25 0 0 0-.635 1.1" style="fill:none;stroke:#e07c1f;stroke-width:.02;stroke-dasharray:.03,.03;stroke-dashoffset:0" transform="matrix(30 0 0 30 137.708 17.1)"/><path d="m0 0 .76 1.316m0 0H-.76M0 0l-.76 1.316" style="fill:none;stroke:rgba(255,255,255,.2);stroke-width:.01" transform="matrix(30 0 0 30 137.708 17.1)"/><circle r=".06" style="fill:#222;stroke:rgba(255,255,255,.2);stroke-width:.02" transform="matrix(30 0 0 30 137.708 17.1)"/><circle r=".06" style="fill:#222;stroke:rgba(255,255,255,.2);stroke-width:.02" transform="matrix(30 0 0 30 160.503 56.582)"/><circle r=".06" style="fill:#222;stroke:rgba(255,255,255,.2);stroke-width:.02" transform="matrix(30 0 0 30 114.913 56.582)"/><text xml:space="preserve" dominant-baseline="alphabetic" font-family="Helvetica, Arial, sans-serif" font-size="25" lengthAdjust="spacingAndGlyphs" style="fill:rgba(255,255,255,.2)" text-rendering="geometricPrecision" textLength="13.904" transform="translate(131.235 51.335)scale(.93103)">?</text><path d="m0 0 .76 1.316" style="fill:none;stroke:#fff;stroke-width:.1;stroke-linecap:round" transform="matrix(30 0 0 30 137.708 17.1)"/><path d="m0 0 .76 1.316H-.76z" style="fill:#000" transform="matrix(30 0 0 30 46.3 82.732)"/><path d="m0 0 .76 1.316m0 0H-.76M0 0l-.76 1.316" style="fill:none;stroke:rgba(255,255,255,.2);stroke-width:.01" transform="matrix(30 0 0 30 46.3 82.732)"/><circle r=".06" style="fill:#222;stroke:rgba(255,255,255,.2);stroke-width:.02" transform="matrix(30 0 0 30 46.3 82.732)"/><circle r=".06" style="fill:#222;stroke:rgba(255,255,255,.2);stroke-width:.02" transform="matrix(30 0 0 30 69.095 122.214)"/><circle r=".06" style="fill:#222;stroke:rgba(255,255,255,.2);stroke-width:.02" transform="matrix(30 0 0 30 23.504 122.214)"/><text xml:space="preserve" dominant-baseline="alphabetic" font-family="Helvetica, Arial, sans-serif" font-size="25" lengthAdjust="spacingAndGlyphs" style="fill:rgba(255,255,255,.2)" text-rendering="geometricPrecision" textLength="13.904" transform="translate(39.827 116.967)scale(.93103)">?</text><circle r=".12" style="fill:none;stroke:red;stroke-width:.03" transform="matrix(30 0 0 30 46.3 82.732)"/><path d="M0 .5h13v3L20 0l-7-3.5v3H0z" style="fill:#ccc;stroke:#ccc" transform="translate(81.695 101.498)"/><path d="m0 0 .76 1.316H-.76z" style="fill:#000" transform="matrix(30 0 0 30 137.708 82.732)"/><path d="M.635 1.1a.25.25 0 0 0-.125.216m-1.02 0A.25.25 0 0 0-.635 1.1" style="fill:none;stroke:#e07c1f;stroke-width:.02;stroke-dasharray:.03,.03;stroke-dashoffset:0" transform="matrix(30 0 0 30 137.708 82.732)"/><path d="M-.11.19a.22.22 0 0 0 .22 0m-.25.052a.28.28 0 0 0 .28 0" style="fill:none;stroke:#08a4d9;stroke-width:.02" transform="matrix(30 0 0 30 137.708 82.732)"/><path d="m0 0 .76 1.316m0 0H-.76M0 0l-.76 1.316" style="fill:none;stroke:rgba(255,255,255,.2);stroke-width:.01" transform="matrix(30 0 0 30 137.708 82.732)"/><circle r=".06" style="fill:#222;stroke:rgba(255,255,255,.2);stroke-width:.02" transform="matrix(30 0 0 30 137.708 82.732)"/><circle r=".06" style="fill:#222;stroke:rgba(255,255,255,.2);stroke-width:.02" transform="matrix(30 0 0 30 160.503 122.214)"/><circle r=".06" style="fill:#222;stroke:rgba(255,255,255,.2);stroke-width:.02" transform="matrix(30 0 0 30 114.913 122.214)"/><text xml:space="preserve" dominant-baseline="alphabetic" font-family="Helvetica, Arial, sans-serif" font-size="25" lengthAdjust="spacingAndGlyphs" style="fill:rgba(255,255,255,.2)" text-rendering="geometricPrecision" textLength="13.904" transform="translate(131.235 116.967)scale(.93103)">?</text><circle r=".12" style="fill:none;stroke:red;stroke-width:.03" transform="matrix(30 0 0 30 137.708 82.732)"/><path d="m0 0 .76 1.316H-.76z" style="fill:#000" transform="matrix(30 0 0 30 46.3 146.414)"/><path d="M.65 1.126a.22.22 0 0 0-.11.19m.08-.242a.28.28 0 0 0-.14.242" style="fill:none;stroke:#08a4d9;stroke-width:.02" transform="matrix(30 0 0 30 46.3 146.414)"/><path d="m0 0 .76 1.316m0 0H-.76M0 0l-.76 1.316" style="fill:none;stroke:rgba(255,255,255,.2);stroke-width:.01" transform="matrix(30 0 0 30 46.3 146.414)"/><circle r=".06" style="fill:#222;stroke:rgba(255,255,255,.2);stroke-width:.02" transform="matrix(30 0 0 30 46.3 146.414)"/><circle r=".06" style="fill:#222;stroke:rgba(255,255,255,.2);stroke-width:.02" transform="matrix(30 0 0 30 69.095 185.897)"/><circle r=".06" style="fill:#222;stroke:rgba(255,255,255,.2);stroke-width:.02" transform="matrix(30 0 0 30 23.504 185.897)"/><text xml:space="preserve" dominant-baseline="alphabetic" font-family="Helvetica, Arial, sans-serif" font-size="25" lengthAdjust="spacingAndGlyphs" style="fill:rgba(255,255,255,.2)" text-rendering="geometricPrecision" textLength="13.904" transform="translate(39.827 180.65)scale(.93103)">?</text><path d="M0 .5h13v3L20 0l-7-3.5v3H0z" style="fill:#ccc;stroke:#ccc" transform="translate(81.695 166.156)"/><path d="m0 0 .76 1.316H-.76z" style="fill:#000" transform="matrix(30 0 0 30 137.708 146.414)"/><path d="M.65 1.126a.22.22 0 0 0-.11.19m.08-.242a.28.28 0 0 0-.14.242" style="fill:none;stroke:#08a4d9;stroke-width:.02" transform="matrix(30 0 0 30 137.708 146.414)"/><path d="M-.51 1.316A.25.25 0 0 0-.635 1.1m.51-.883a.25.25 0 0 0 .25 0" style="fill:none;stroke:#e07c1f;stroke-width:.02;stroke-dasharray:.03,.03;stroke-dashoffset:0" transform="matrix(30 0 0 30 137.708 146.414)"/><path d="m0 0 .76 1.316m0 0H-.76M0 0l-.76 1.316" style="fill:none;stroke:rgba(255,255,255,.2);stroke-width:.01" transform="matrix(30 0 0 30 137.708 146.414)"/><circle r=".06" style="fill:#222;stroke:rgba(255,255,255,.2);stroke-width:.02" transform="matrix(30 0 0 30 137.708 146.414)"/><circle r=".06" style="fill:#222;stroke:rgba(255,255,255,.2);stroke-width:.02" transform="matrix(30 0 0 30 160.503 185.897)"/><circle r=".06" style="fill:#222;stroke:rgba(255,255,255,.2);stroke-width:.02" transform="matrix(30 0 0 30 114.913 185.897)"/><text xml:space="preserve" dominant-baseline="alphabetic" font-family="Helvetica, Arial, sans-serif" font-size="25" lengthAdjust="spacingAndGlyphs" style="fill:rgba(255,255,255,.2)" text-rendering="geometricPrecision" textLength="13.904" transform="translate(131.235 180.65)scale(.93103)">?</text><path d="m0 0 .76 1.316H-.76z" style="fill:#000" transform="matrix(30 0 0 30 43.097 212.214)"/><path d="m0 0 .76 1.316m0 0H-.76M0 0l-.76 1.316" style="fill:none;stroke:rgba(255,255,255,.2);stroke-width:.01" transform="matrix(30 0 0 30 43.097 212.214)"/><circle r=".06" style="fill:#222;stroke:rgba(255,255,255,.2);stroke-width:.02" transform="matrix(30 0 0 30 43.097 212.214)"/><circle r=".06" style="fill:#222;stroke:rgba(255,255,255,.2);stroke-width:.02" transform="matrix(30 0 0 30 65.892 251.696)"/><circle r=".06" style="fill:#222;stroke:rgba(255,255,255,.2);stroke-width:.02" transform="matrix(30 0 0 30 20.302 251.696)"/><path d="m0 0 .76 1.316L.57.548zm.76 1.316H-.76l.76.22zM0 0l-.76 1.316.19-.768z" style="fill:none;stroke:#666;stroke-width:.05;stroke-dasharray:.05,.05;stroke-dashoffset:0" transform="matrix(30 0 0 30 43.097 212.214)"/><circle r=".12" style="fill:none;stroke:red;stroke-width:.03" transform="matrix(30 0 0 30 43.097 212.214)"/><path d="M0 .5h13v3L20 0l-7-3.5v3H0z" style="fill:#ccc;stroke:#ccc" transform="translate(81.695 233.527)"/><path d="m0 0 .76 1.316H-.76z" style="fill:#000" transform="matrix(30 0 0 30 140.91 212.214)"/><path d="m0 0 .76 1.316m0 0H-.76M0 0l-.76 1.316" style="fill:none;stroke:rgba(255,255,255,.2);stroke-width:.01" transform="matrix(30 0 0 30 140.91 212.214)"/><circle r=".06" style="fill:#222;stroke:rgba(255,255,255,.2);stroke-width:.02" transform="matrix(30 0 0 30 140.91 212.214)"/><circle r=".06" style="fill:#222;stroke:rgba(255,255,255,.2);stroke-width:.02" transform="matrix(30 0 0 30 163.705 251.696)"/><circle r=".06" style="fill:#222;stroke:rgba(255,255,255,.2);stroke-width:.02" transform="matrix(30 0 0 30 118.115 251.696)"/><path d="m0 0 .76 1.316L.57.548zm.76 1.316H-.76l.76.22zM0 0l-.76 1.316.19-.768z" style="fill:none;stroke:#666;stroke-width:.05;stroke-dasharray:.05,.05;stroke-dashoffset:0" transform="matrix(30 0 0 30 140.91 212.214)"/><circle r=".12" style="fill:none;stroke:red;stroke-width:.03" transform="matrix(30 0 0 30 140.91 212.214)"/><path d="m0 0 .76 1.316m0 0H-.76M0 0l-.76 1.316" style="fill:none;stroke:red;stroke-width:.05;stroke-linecap:round" transform="matrix(30 0 0 30 140.91 212.214)"/></svg>