<svg xmlns="http://www.w3.org/2000/svg" width="175" height="154" aria-hidden="true" style="pointer-events:none;position:absolute;left:0;top:0;transform-origin:left top;z-index:20"><rect width="165" height="144" rx="0" ry="0" style="fill:#333"/><path d="M9 9h1v1H9z" style="fill:#000" transform="matrix(30 0 0 30 -246.661 -246.661)"/><path d="M9.75 9a.25.25 0 0 0 .25.25m0 .5a.25.25 0 0 0-.25.25" style="fill:none;stroke:#e07c1f;stroke-width:.02;stroke-dasharray:.03,.03;stroke-dashoffset:0" transform="matrix(30 0 0 30 -246.661 -246.661)"/><path d="M9.22 10A.22.22 0 0 0 9 9.78m.28.22A.28.28 0 0 0 9 9.72m0-.5A.22.22 0 0 0 9.22 9M9 9.28A.28.28 0 0 0 9.28 9" style="fill:none;stroke:#08a4d9;stroke-width:.02" transform="matrix(30 0 0 30 -246.661 -246.661)"/><path d="M9 9h1m0 0v1m0 0H9m0-1v1" style="fill:none;stroke:rgba(255,255,255,.2);stroke-width:.01" transform="matrix(30 0 0 30 -246.661 -246.661)"/><circle r=".06" style="fill:#222;stroke:rgba(255,255,255,.2);stroke-width:.02" transform="matrix(30 0 0 30 23.339 23.339)"/><circle r=".06" style="fill:#222;stroke:rgba(255,255,255,.2);stroke-width:.02" transform="matrix(30 0 0 30 53.339 23.339)"/><circle r=".06" style="fill:#222;stroke:rgba(255,255,255,.2);stroke-width:.02" transform="matrix(30 0 0 30 53.339 53.339)"/><circle r=".06" style="fill:#222;stroke:rgba(255,255,255,.2);stroke-width:.02" transform="matrix(30 0 0 30 23.339 53.339)"/><path d="M9 9h1l-.5-.25zm1 0v1l.25-.5zm0 1H9l.5.25zM9 9v1l-.25-.5z" style="fill:none;stroke:#666;stroke-width:.05;stroke-dasharray:.05,.05;stroke-dashoffset:0" transform="matrix(30 0 0 30 -246.661 -246.661)"/><circle r=".12" style="fill:none;stroke:red;stroke-width:.03" transform="matrix(30 0 0 30 23.339 23.339)"/><circle r=".12" style="fill:none;stroke:red;stroke-width:.03" transform="matrix(30 0 0 30 23.339 53.339)"/><path d="M0 .5h13v3L20 0l-7-3.5v3H0z" style="fill:#ccc;stroke:#ccc" transform="translate(72.177 38.339)"/><path d="M9 9h1v1H9z" style="fill:#000" transform="matrix(30 0 0 30 -158.366 -246.661)"/><path d="M9 9h1m0 0v1m0 0H9m0-1v1" style="fill:none;stroke:rgba(255,255,255,.2);stroke-width:.01" transform="matrix(30 0 0 30 -158.366 -246.661)"/><circle r=".06" style="fill:#222;stroke:rgba(255,255,255,.2);stroke-width:.02" transform="matrix(30 0 0 30 111.634 23.339)"/><circle r=".06" style="fill:#222;stroke:rgba(255,255,255,.2);stroke-width:.02" transform="matrix(30 0 0 30 141.634 23.339)"/><circle r=".06" style="fill:#222;stroke:rgba(255,255,255,.2);stroke-width:.02" transform="matrix(30 0 0 30 141.634 53.339)"/><circle r=".06" style="fill:#222;stroke:rgba(255,255,255,.2);stroke-width:.02" transform="matrix(30 0 0 30 111.634 53.339)"/><path d="M9 9h1l-.5-.25zm1 0v1l.25-.5zm0 1H9l.5.25zM9 9v1l-.25-.5z" style="fill:none;stroke:#666;stroke-width:.05;stroke-dasharray:.05,.05;stroke-dashoffset:0" transform="matrix(30 0 0 30 -158.366 -246.661)"/><circle r=".12" style="fill:none;stroke:red;stroke-width:.03" transform="matrix(30 0 0 30 111.634 23.339)"/><circle r=".12" style="fill:none;stroke:red;stroke-width:.03" transform="matrix(30 0 0 30 111.634 53.339)"/><path d="M9 9h1m0 0v1m0 0H9m0-1v1" style="fill:none;stroke:red;stroke-width:.05;stroke-linecap:round" transform="matrix(30 0 0 30 -158.366 -246.661)"/><path d="M9 9h1v1H9z" style="fill:#000" transform="matrix(30 0 0 30 -246.661 -179.984)"/><path d="M9.75 9a.25.25 0 0 0 .25.25" style="fill:none;stroke:#e07c1f;stroke-width:.02;stroke-dasharray:.03,.03;stroke-dashoffset:0" transform="matrix(30 0 0 30 -246.661 -179.984)"/><path d="M10 9.78a.22.22 0 0 0-.22.22m.22-.28a.28.28 0 0 0-.28.28" style="fill:none;stroke:#08a4d9;stroke-width:.02" transform="matrix(30 0 0 30 -246.661 -179.984)"/><path d="M9.25 10A.25.25 0 0 0 9 9.75" style="fill:none;stroke:#e07c1f;stroke-width:.02;stroke-dasharray:.03,.03;stroke-dashoffset:0" transform="matrix(30 0 0 30 -246.661 -179.984)"/><path d="M9 9.22A.22.22 0 0 0 9.22 9M9 9.28A.28.28 0 0 0 9.28 9" style="fill:none;stroke:#08a4d9;stroke-width:.02" transform="matrix(30 0 0 30 -246.661 -179.984)"/><path d="M9 9h1m0 0v1m0 0H9m0-1v1" style="fill:none;stroke:rgba(255,255,255,.2);stroke-width:.01" transform="matrix(30 0 0 30 -246.661 -179.984)"/><circle r=".06" style="fill:#222;stroke:rgba(255,255,255,.2);stroke-width:.02" transform="matrix(30 0 0 30 23.339 90.016)"/><circle r=".06" style="fill:#222;stroke:rgba(255,255,255,.2);stroke-width:.02" transform="matrix(30 0 0 30 53.339 90.016)"/><circle r=".06" style="fill:#222;stroke:rgba(255,255,255,.2);stroke-width:.02" transform="matrix(30 0 0 30 53.339 120.016)"/><circle r=".06" style="fill:#222;stroke:rgba(255,255,255,.2);stroke-width:.02" transform="matrix(30 0 0 30 23.339 120.016)"/><path d="M9 9h1l-.5-.25zm1 0v1l.25-.5zm0 1H9l.5.25zM9 9v1l-.25-.5z" style="fill:none;stroke:#666;stroke-width:.05;stroke-dasharray:.05,.05;stroke-dashoffset:0" transform="matrix(30 0 0 30 -246.661 -179.984)"/><circle r=".12" style="fill:none;stroke:red;stroke-width:.03" transform="matrix(30 0 0 30 23.339 90.016)"/><circle r=".12" style="fill:none;stroke:red;stroke-width:.03" transform="matrix(30 0 0 30 53.339 120.016)"/><path d="M0 .5h13v3L20 0l-7-3.5v3H0z" style="fill:#ccc;stroke:#ccc" transform="translate(72.177 105.016)"/><path d="M9 9h1v1H9z" style="fill:#000" transform="matrix(30 0 0 30 -158.366 -179.984)"/><path d="M9 9h1m0 0v1m0 0H9m0-1v1" style="fill:none;stroke:rgba(255,255,255,.2);stroke-width:.01" transform="matrix(30 0 0 30 -158.366 -179.984)"/><circle r=".06" style="fill:#222;stroke:rgba(255,255,255,.2);stroke-width:.02" transform="matrix(30 0 0 30 111.634 90.016)"/><circle r=".06" style="fill:#222;stroke:rgba(255,255,255,.2);stroke-width:.02" transform="matrix(30 0 0 30 141.634 90.016)"/><circle r=".06" style="fill:#222;stroke:rgba(255,255,255,.2);stroke-width:.02" transform="matrix(30 0 0 30 141.634 120.016)"/><circle r=".06" style="fill:#222;stroke:rgba(255,255,255,.2);stroke-width:.02" transform="matrix(30 0 0 30 111.634 120.016)"/><path d="M9 9h1l-.5-.25zm1 0v1l.25-.5zm0 1H9l.5.25zM9 9v1l-.25-.5z" style="fill:none;stroke:#666;stroke-width:.05;stroke-dasharray:.05,.05;stroke-dashoffset:0" transform="matrix(30 0 0 30 -158.366 -179.984)"/><circle r=".12" style="fill:none;stroke:red;stroke-width:.03" transform="matrix(30 0 0 30 111.634 90.016)"/><circle r=".12" style="fill:none;stroke:red;stroke-width:.03" transform="matrix(30 0 0 30 141.634 120.016)"/><path d="M9 9h1m0 0v1m0 0H9m0-1v1" style="fill:none;stroke:red;stroke-width:.05;stroke-linecap:round" transform="matrix(30 0 0 30 -158.366 -179.984)"/></svg>