<svg xmlns="http://www.w3.org/2000/svg" width="227" height="838" aria-hidden="true" style="pointer-events:none;position:absolute;left:0;top:0;transform-origin:left top;z-index:20"><rect width="217" height="828" rx="0" ry="0" style="fill:#333"/><path d="M9 9h1v1H9zM8 8h1v1H8z" style="fill:#000" transform="matrix(30 0 0 30 -220.2 -217.5)"/><path d="M9 9h1m0 0v1m0 0H9m0-1v1M8 8h1m0 1V8m0 1H8m0-1v1" style="fill:none;stroke:rgba(255,255,255,.2);stroke-width:.01" transform="matrix(30 0 0 30 -220.2 -217.5)"/><circle r=".06" style="fill:#222;stroke:rgba(255,255,255,.2);stroke-width:.02" transform="matrix(30 0 0 30 49.8 52.5)"/><circle r=".06" style="fill:#222;stroke:rgba(255,255,255,.2);stroke-width:.02" transform="matrix(30 0 0 30 79.8 52.5)"/><circle r=".06" style="fill:#222;stroke:rgba(255,255,255,.2);stroke-width:.02" transform="matrix(30 0 0 30 79.8 82.5)"/><circle r=".06" style="fill:#222;stroke:rgba(255,255,255,.2);stroke-width:.02" transform="matrix(30 0 0 30 49.8 82.5)"/><circle r=".06" style="fill:#222;stroke:rgba(255,255,255,.2);stroke-width:.02" transform="matrix(30 0 0 30 19.8 22.5)"/><circle r=".06" style="fill:#222;stroke:rgba(255,255,255,.2);stroke-width:.02" transform="matrix(30 0 0 30 49.8 22.5)"/><circle r=".06" style="fill:#222;stroke:rgba(255,255,255,.2);stroke-width:.02" transform="matrix(30 0 0 30 19.8 52.5)"/><text xml:space="preserve" dominant-baseline="alphabetic" font-family="Helvetica, Arial, sans-serif" font-size="25" lengthAdjust="spacingAndGlyphs" style="fill:rgba(255,255,255,.8)" text-rendering="geometricPrecision" textLength="13.904" transform="translate(58.328 75.414)scale(.93103)">3</text><text xml:space="preserve" dominant-baseline="alphabetic" font-family="Helvetica, Arial, sans-serif" font-size="25" lengthAdjust="spacingAndGlyphs" style="fill:rgba(255,255,255,.8)" text-rendering="geometricPrecision" textLength="13.904" transform="translate(28.328 45.414)scale(.93103)">3</text><path d="M0 .5h13v3L20 0l-7-3.5v3H0z" style="fill:#ccc;stroke:#ccc" transform="translate(92.4 52.5)"/><path d="M9 9h1v1H9zM8 8h1v1H8z" style="fill:#000" transform="matrix(30 0 0 30 -108.982 -217.5)"/><path d="M9 9h1l-.5-.25z" style="fill:#214068" transform="matrix(30 0 0 30 -108.982 -217.5)"/><path d="M10 9v1l.25-.5zm0 1H9l.5.25z" style="fill:#224935" transform="matrix(30 0 0 30 -108.982 -217.5)"/><path d="M8 8h1l-.5-.25zm0 0v1l-.25-.5z" style="fill:#662a2c" transform="matrix(30 0 0 30 -108.982 -217.5)"/><path d="M9 9V8l.25.5z" style="fill:#483f1a" transform="matrix(30 0 0 30 -108.982 -217.5)"/><path d="M9 9v1l-.25-.5z" style="fill:#09294c" transform="matrix(30 0 0 30 -108.982 -217.5)"/><path d="M9 9h1v1H9z" style="fill:#0d301f" transform="matrix(30 0 0 30 -108.982 -217.5)"/><path d="M8 8h1v1H8z" style="fill:#4b1016" transform="matrix(30 0 0 30 -108.982 -217.5)"/><path d="M9 9H8l.5.25z" style="fill:#302807" transform="matrix(30 0 0 30 -108.982 -217.5)"/><path d="M9 9h1m0 0v1m0 0H9m0-1v1M8 8h1m0 1V8m0 1H8m0-1v1" style="fill:none;stroke:rgba(255,255,255,.2);stroke-width:.01" transform="matrix(30 0 0 30 -108.982 -217.5)"/><circle r=".06" style="fill:#222;stroke:rgba(255,255,255,.2);stroke-width:.02" transform="matrix(30 0 0 30 161.018 52.5)"/><circle r=".06" style="fill:#222;stroke:rgba(255,255,255,.2);stroke-width:.02" transform="matrix(30 0 0 30 191.018 52.5)"/><circle r=".06" style="fill:#222;stroke:rgba(255,255,255,.2);stroke-width:.02" transform="matrix(30 0 0 30 191.018 82.5)"/><circle r=".06" style="fill:#222;stroke:rgba(255,255,255,.2);stroke-width:.02" transform="matrix(30 0 0 30 161.018 82.5)"/><circle r=".06" style="fill:#222;stroke:rgba(255,255,255,.2);stroke-width:.02" transform="matrix(30 0 0 30 131.018 22.5)"/><circle r=".06" style="fill:#222;stroke:rgba(255,255,255,.2);stroke-width:.02" transform="matrix(30 0 0 30 161.018 22.5)"/><circle r=".06" style="fill:#222;stroke:rgba(255,255,255,.2);stroke-width:.02" transform="matrix(30 0 0 30 131.018 52.5)"/><text xml:space="preserve" dominant-baseline="alphabetic" font-family="Helvetica, Arial, sans-serif" font-size="25" lengthAdjust="spacingAndGlyphs" style="fill:rgba(255,255,255,.8)" text-rendering="geometricPrecision" textLength="13.904" transform="translate(169.546 75.414)scale(.93103)">3</text><text xml:space="preserve" dominant-baseline="alphabetic" font-family="Helvetica, Arial, sans-serif" font-size="25" lengthAdjust="spacingAndGlyphs" style="fill:rgba(255,255,255,.8)" text-rendering="geometricPrecision" textLength="13.904" transform="translate(139.546 45.414)scale(.93103)">3</text><path d="M9 9h1v1H9zM8 8h1v1H8z" style="fill:#000" transform="matrix(30 0 0 30 -217.5 -122.5)"/><path d="M9 9h1v1H9z" style="fill:#214068" transform="matrix(30 0 0 30 -217.5 -122.5)"/><path d="M9 9h1l-.5-.25z" style="fill:#09294c" transform="matrix(30 0 0 30 -217.5 -122.5)"/><path d="M9 9h1m0 0v1m0 0H9m0-1v1M8 8h1m0 1V8m0 1H8m0-1v1" style="fill:none;stroke:rgba(255,255,255,.2);stroke-width:.01" transform="matrix(30 0 0 30 -217.5 -122.5)"/><circle r=".06" style="fill:#222;stroke:rgba(255,255,255,.2);stroke-width:.02" transform="matrix(30 0 0 30 52.5 147.5)"/><circle r=".06" style="fill:#222;stroke:rgba(255,255,255,.2);stroke-width:.02" transform="matrix(30 0 0 30 82.5 147.5)"/><circle r=".06" style="fill:#222;stroke:rgba(255,255,255,.2);stroke-width:.02" transform="matrix(30 0 0 30 82.5 177.5)"/><circle r=".06" style="fill:#222;stroke:rgba(255,255,255,.2);stroke-width:.02" transform="matrix(30 0 0 30 52.5 177.5)"/><circle r=".06" style="fill:#222;stroke:rgba(255,255,255,.2);stroke-width:.02" transform="matrix(30 0 0 30 22.5 117.5)"/><circle r=".06" style="fill:#222;stroke:rgba(255,255,255,.2);stroke-width:.02" transform="matrix(30 0 0 30 52.5 117.5)"/><circle r=".06" style="fill:#222;stroke:rgba(255,255,255,.2);stroke-width:.02" transform="matrix(30 0 0 30 22.5 147.5)"/><text xml:space="preserve" dominant-baseline="alphabetic" font-family="Helvetica, Arial, sans-serif" font-size="25" lengthAdjust="spacingAndGlyphs" style="fill:rgba(255,255,255,.2)" text-rendering="geometricPrecision" textLength="13.904" transform="translate(61.028 170.414)scale(.93103)">?</text><text xml:space="preserve" dominant-baseline="alphabetic" font-family="Helvetica, Arial, sans-serif" font-size="25" lengthAdjust="spacingAndGlyphs" style="fill:rgba(255,255,255,.8)" text-rendering="geometricPrecision" textLength="13.904" transform="translate(31.028 140.414)scale(.93103)">3</text><path d="M0 .5h13v3L20 0l-7-3.5v3H0z" style="fill:#ccc;stroke:#ccc" transform="translate(95.1 144.8)"/><path d="M9 9h1v1H9zM8 8h1v1H8z" style="fill:#000" transform="matrix(30 0 0 30 -106.282 -122.5)"/><path d="M9 9h1l-.5-.25z" style="fill:#214068" transform="matrix(30 0 0 30 -106.282 -122.5)"/><path d="M8 8h1l-.5-.25zm0 0v1l-.25-.5z" style="fill:#224935" transform="matrix(30 0 0 30 -106.282 -122.5)"/><path d="M9 9V8l.25.5z" style="fill:#662a2c" transform="matrix(30 0 0 30 -106.282 -122.5)"/><path d="M9 9v1l-.25-.5zm0 0h1v1H9z" style="fill:#09294c" transform="matrix(30 0 0 30 -106.282 -122.5)"/><path d="M8 8h1v1H8z" style="fill:#0d301f" transform="matrix(30 0 0 30 -106.282 -122.5)"/><path d="M9 9H8l.5.25z" style="fill:#4b1016" transform="matrix(30 0 0 30 -106.282 -122.5)"/><path d="M9 9h1m0 0v1m0 0H9m0-1v1M8 8h1m0 1V8m0 1H8m0-1v1" style="fill:none;stroke:rgba(255,255,255,.2);stroke-width:.01" transform="matrix(30 0 0 30 -106.282 -122.5)"/><circle r=".06" style="fill:#222;stroke:rgba(255,255,255,.2);stroke-width:.02" transform="matrix(30 0 0 30 163.718 147.5)"/><circle r=".06" style="fill:#222;stroke:rgba(255,255,255,.2);stroke-width:.02" transform="matrix(30 0 0 30 193.718 147.5)"/><circle r=".06" style="fill:#222;stroke:rgba(255,255,255,.2);stroke-width:.02" transform="matrix(30 0 0 30 193.718 177.5)"/><circle r=".06" style="fill:#222;stroke:rgba(255,255,255,.2);stroke-width:.02" transform="matrix(30 0 0 30 163.718 177.5)"/><circle r=".06" style="fill:#222;stroke:rgba(255,255,255,.2);stroke-width:.02" transform="matrix(30 0 0 30 133.718 117.5)"/><circle r=".06" style="fill:#222;stroke:rgba(255,255,255,.2);stroke-width:.02" transform="matrix(30 0 0 30 163.718 117.5)"/><circle r=".06" style="fill:#222;stroke:rgba(255,255,255,.2);stroke-width:.02" transform="matrix(30 0 0 30 133.718 147.5)"/><text xml:space="preserve" dominant-baseline="alphabetic" font-family="Helvetica, Arial, sans-serif" font-size="25" lengthAdjust="spacingAndGlyphs" style="fill:rgba(255,255,255,.2)" text-rendering="geometricPrecision" textLength="13.904" transform="translate(172.246 170.414)scale(.93103)">?</text><text xml:space="preserve" dominant-baseline="alphabetic" font-family="Helvetica, Arial, sans-serif" font-size="25" lengthAdjust="spacingAndGlyphs" style="fill:rgba(255,255,255,.8)" text-rendering="geometricPrecision" textLength="13.904" transform="translate(142.246 140.414)scale(.93103)">3</text><path d="M9 9h1v1H9zM8 8h1v1H8z" style="fill:#000" transform="matrix(30 0 0 30 -214.8 -38.3)"/><path d="M9 9h1l-.5-.25zm0 0v1l-.25-.5z" style="fill:#214068" transform="matrix(30 0 0 30 -214.8 -38.3)"/><path d="M9 9h1m0 0v1m0 0H9m0-1v1M8 8h1m0 1V8m0 1H8m0-1v1" style="fill:none;stroke:rgba(255,255,255,.2);stroke-width:.01" transform="matrix(30 0 0 30 -214.8 -38.3)"/><circle r=".06" style="fill:#222;stroke:rgba(255,255,255,.2);stroke-width:.02" transform="matrix(30 0 0 30 55.2 231.7)"/><circle r=".06" style="fill:#222;stroke:rgba(255,255,255,.2);stroke-width:.02" transform="matrix(30 0 0 30 85.2 231.7)"/><circle r=".06" style="fill:#222;stroke:rgba(255,255,255,.2);stroke-width:.02" transform="matrix(30 0 0 30 85.2 261.7)"/><circle r=".06" style="fill:#222;stroke:rgba(255,255,255,.2);stroke-width:.02" transform="matrix(30 0 0 30 55.2 261.7)"/><circle r=".06" style="fill:#222;stroke:rgba(255,255,255,.2);stroke-width:.02" transform="matrix(30 0 0 30 25.2 201.7)"/><circle r=".06" style="fill:#222;stroke:rgba(255,255,255,.2);stroke-width:.02" transform="matrix(30 0 0 30 55.2 201.7)"/><circle r=".06" style="fill:#222;stroke:rgba(255,255,255,.2);stroke-width:.02" transform="matrix(30 0 0 30 25.2 231.7)"/><text xml:space="preserve" dominant-baseline="alphabetic" font-family="Helvetica, Arial, sans-serif" font-size="25" lengthAdjust="spacingAndGlyphs" style="fill:rgba(255,255,255,.2)" text-rendering="geometricPrecision" textLength="13.904" transform="translate(63.728 254.614)scale(.93103)">?</text><text xml:space="preserve" dominant-baseline="alphabetic" font-family="Helvetica, Arial, sans-serif" font-size="25" lengthAdjust="spacingAndGlyphs" style="fill:rgba(255,255,255,.8)" text-rendering="geometricPrecision" textLength="13.904" transform="translate(33.728 224.614)scale(.93103)">3</text><path d="M0 .5h13v3L20 0l-7-3.5v3H0z" style="fill:#ccc;stroke:#ccc" transform="translate(97.8 231.7)"/><path d="M9 9h1v1H9zM8 8h1v1H8z" style="fill:#000" transform="matrix(30 0 0 30 -108.982 -38.3)"/><path d="M9 9h1l-.5-.25zm0 0v1l-.25-.5zm0 0h1v1H9z" style="fill:#214068" transform="matrix(30 0 0 30 -108.982 -38.3)"/><path d="M9 9h1m0 0v1m0 0H9m0-1v1M8 8h1m0 1V8m0 1H8m0-1v1" style="fill:none;stroke:rgba(255,255,255,.2);stroke-width:.01" transform="matrix(30 0 0 30 -108.982 -38.3)"/><circle r=".06" style="fill:#222;stroke:rgba(255,255,255,.2);stroke-width:.02" transform="matrix(30 0 0 30 161.018 231.7)"/><circle r=".06" style="fill:#222;stroke:rgba(255,255,255,.2);stroke-width:.02" transform="matrix(30 0 0 30 191.018 231.7)"/><circle r=".06" style="fill:#222;stroke:rgba(255,255,255,.2);stroke-width:.02" transform="matrix(30 0 0 30 191.018 261.7)"/><circle r=".06" style="fill:#222;stroke:rgba(255,255,255,.2);stroke-width:.02" transform="matrix(30 0 0 30 161.018 261.7)"/><circle r=".06" style="fill:#222;stroke:rgba(255,255,255,.2);stroke-width:.02" transform="matrix(30 0 0 30 131.018 201.7)"/><circle r=".06" style="fill:#222;stroke:rgba(255,255,255,.2);stroke-width:.02" transform="matrix(30 0 0 30 161.018 201.7)"/><circle r=".06" style="fill:#222;stroke:rgba(255,255,255,.2);stroke-width:.02" transform="matrix(30 0 0 30 131.018 231.7)"/><text xml:space="preserve" dominant-baseline="alphabetic" font-family="Helvetica, Arial, sans-serif" font-size="25" lengthAdjust="spacingAndGlyphs" style="fill:rgba(255,255,255,.2)" text-rendering="geometricPrecision" textLength="13.904" transform="translate(169.546 254.614)scale(.93103)">?</text><text xml:space="preserve" dominant-baseline="alphabetic" font-family="Helvetica, Arial, sans-serif" font-size="25" lengthAdjust="spacingAndGlyphs" style="fill:rgba(255,255,255,.8)" text-rendering="geometricPrecision" textLength="13.904" transform="translate(139.546 224.614)scale(.93103)">3</text><path d="M9 9h1v1H9zM8 8h1v1H8z" style="fill:#000" transform="matrix(30 0 0 30 -217.5 51.3)"/><path d="M9 9h1l-.5-.25z" style="fill:#214068" transform="matrix(30 0 0 30 -217.5 51.3)"/><path d="M9 9v1l-.25-.5z" style="fill:#09294c" transform="matrix(30 0 0 30 -217.5 51.3)"/><path d="M9 9h1m0 0v1m0 0H9m0-1v1M8 8h1m0 1V8m0 1H8m0-1v1" style="fill:none;stroke:rgba(255,255,255,.2);stroke-width:.01" transform="matrix(30 0 0 30 -217.5 51.3)"/><circle r=".06" style="fill:#222;stroke:rgba(255,255,255,.2);stroke-width:.02" transform="matrix(30 0 0 30 52.5 321.3)"/><circle r=".06" style="fill:#222;stroke:rgba(255,255,255,.2);stroke-width:.02" transform="matrix(30 0 0 30 82.5 321.3)"/><circle r=".06" style="fill:#222;stroke:rgba(255,255,255,.2);stroke-width:.02" transform="matrix(30 0 0 30 82.5 351.3)"/><circle r=".06" style="fill:#222;stroke:rgba(255,255,255,.2);stroke-width:.02" transform="matrix(30 0 0 30 52.5 351.3)"/><circle r=".06" style="fill:#222;stroke:rgba(255,255,255,.2);stroke-width:.02" transform="matrix(30 0 0 30 22.5 291.3)"/><circle r=".06" style="fill:#222;stroke:rgba(255,255,255,.2);stroke-width:.02" transform="matrix(30 0 0 30 52.5 291.3)"/><circle r=".06" style="fill:#222;stroke:rgba(255,255,255,.2);stroke-width:.02" transform="matrix(30 0 0 30 22.5 321.3)"/><text xml:space="preserve" dominant-baseline="alphabetic" font-family="Helvetica, Arial, sans-serif" font-size="25" lengthAdjust="spacingAndGlyphs" style="fill:rgba(255,255,255,.2)" text-rendering="geometricPrecision" textLength="13.904" transform="translate(61.028 344.214)scale(.93103)">?</text><text xml:space="preserve" dominant-baseline="alphabetic" font-family="Helvetica, Arial, sans-serif" font-size="25" lengthAdjust="spacingAndGlyphs" style="fill:rgba(255,255,255,.8)" text-rendering="geometricPrecision" textLength="13.904" transform="translate(31.028 314.214)scale(.93103)">3</text><path d="M0 .5h13v3L20 0l-7-3.5v3H0z" style="fill:#ccc;stroke:#ccc" transform="translate(95.1 318.6)"/><path d="M9 9h1v1H9zM8 8h1v1H8z" style="fill:#000" transform="matrix(30 0 0 30 -106.282 51.3)"/><path d="M9 9h1l-.5-.25z" style="fill:#214068" transform="matrix(30 0 0 30 -106.282 51.3)"/><path d="M8 8h1l-.5-.25zm0 0v1l-.25-.5z" style="fill:#224935" transform="matrix(30 0 0 30 -106.282 51.3)"/><path d="M9 9V8l.25.5z" style="fill:#662a2c" transform="matrix(30 0 0 30 -106.282 51.3)"/><path d="M9 9v1l-.25-.5z" style="fill:#09294c" transform="matrix(30 0 0 30 -106.282 51.3)"/><path d="M8 8h1v1H8z" style="fill:#0d301f" transform="matrix(30 0 0 30 -106.282 51.3)"/><path d="M9 9H8l.5.25z" style="fill:#4b1016" transform="matrix(30 0 0 30 -106.282 51.3)"/><path d="M9 9h1m0 0v1m0 0H9m0-1v1M8 8h1m0 1V8m0 1H8m0-1v1" style="fill:none;stroke:rgba(255,255,255,.2);stroke-width:.01" transform="matrix(30 0 0 30 -106.282 51.3)"/><circle r=".06" style="fill:#222;stroke:rgba(255,255,255,.2);stroke-width:.02" transform="matrix(30 0 0 30 163.718 321.3)"/><circle r=".06" style="fill:#222;stroke:rgba(255,255,255,.2);stroke-width:.02" transform="matrix(30 0 0 30 193.718 321.3)"/><circle r=".06" style="fill:#222;stroke:rgba(255,255,255,.2);stroke-width:.02" transform="matrix(30 0 0 30 193.718 351.3)"/><circle r=".06" style="fill:#222;stroke:rgba(255,255,255,.2);stroke-width:.02" transform="matrix(30 0 0 30 163.718 351.3)"/><circle r=".06" style="fill:#222;stroke:rgba(255,255,255,.2);stroke-width:.02" transform="matrix(30 0 0 30 133.718 291.3)"/><circle r=".06" style="fill:#222;stroke:rgba(255,255,255,.2);stroke-width:.02" transform="matrix(30 0 0 30 163.718 291.3)"/><circle r=".06" style="fill:#222;stroke:rgba(255,255,255,.2);stroke-width:.02" transform="matrix(30 0 0 30 133.718 321.3)"/><text xml:space="preserve" dominant-baseline="alphabetic" font-family="Helvetica, Arial, sans-serif" font-size="25" lengthAdjust="spacingAndGlyphs" style="fill:rgba(255,255,255,.2)" text-rendering="geometricPrecision" textLength="13.904" transform="translate(172.246 344.214)scale(.93103)">?</text><text xml:space="preserve" dominant-baseline="alphabetic" font-family="Helvetica, Arial, sans-serif" font-size="25" lengthAdjust="spacingAndGlyphs" style="fill:rgba(255,255,255,.8)" text-rendering="geometricPrecision" textLength="13.904" transform="translate(142.246 314.214)scale(.93103)">3</text><path d="M9 9h1v1H9zM8 8h1v1H8z" style="fill:#000" transform="matrix(30 0 0 30 -222.9 140.9)"/><path d="M9 9h1v1H9zm1 0v1l.25-.5z" style="fill:#214068" transform="matrix(30 0 0 30 -222.9 140.9)"/><path d="M9 9h1m0 0v1m0 0H9m0-1v1M8 8h1m0 1V8m0 1H8m0-1v1" style="fill:none;stroke:rgba(255,255,255,.2);stroke-width:.01" transform="matrix(30 0 0 30 -222.9 140.9)"/><circle r=".06" style="fill:#222;stroke:rgba(255,255,255,.2);stroke-width:.02" transform="matrix(30 0 0 30 47.1 410.9)"/><circle r=".06" style="fill:#222;stroke:rgba(255,255,255,.2);stroke-width:.02" transform="matrix(30 0 0 30 77.1 410.9)"/><circle r=".06" style="fill:#222;stroke:rgba(255,255,255,.2);stroke-width:.02" transform="matrix(30 0 0 30 77.1 440.9)"/><circle r=".06" style="fill:#222;stroke:rgba(255,255,255,.2);stroke-width:.02" transform="matrix(30 0 0 30 47.1 440.9)"/><circle r=".06" style="fill:#222;stroke:rgba(255,255,255,.2);stroke-width:.02" transform="matrix(30 0 0 30 17.1 380.9)"/><circle r=".06" style="fill:#222;stroke:rgba(255,255,255,.2);stroke-width:.02" transform="matrix(30 0 0 30 47.1 380.9)"/><circle r=".06" style="fill:#222;stroke:rgba(255,255,255,.2);stroke-width:.02" transform="matrix(30 0 0 30 17.1 410.9)"/><text xml:space="preserve" dominant-baseline="alphabetic" font-family="Helvetica, Arial, sans-serif" font-size="25" lengthAdjust="spacingAndGlyphs" style="fill:rgba(255,255,255,.8)" text-rendering="geometricPrecision" textLength="13.904" transform="translate(55.628 433.814)scale(.93103)">2</text><text xml:space="preserve" dominant-baseline="alphabetic" font-family="Helvetica, Arial, sans-serif" font-size="25" lengthAdjust="spacingAndGlyphs" style="fill:rgba(255,255,255,.8)" text-rendering="geometricPrecision" textLength="13.904" transform="translate(25.628 403.814)scale(.93103)">3</text><path d="M0 .5h13v3L20 0l-7-3.5v3H0z" style="fill:#ccc;stroke:#ccc" transform="translate(95.1 410.9)"/><path d="M9 9h1v1H9zM8 8h1v1H8z" style="fill:#000" transform="matrix(30 0 0 30 -106.282 140.9)"/><path d="M9 9h1l-.5-.25z" style="fill:#214068" transform="matrix(30 0 0 30 -106.282 140.9)"/><path d="M10 9v1l.25-.5zM9 9h1v1H9z" style="fill:#224935" transform="matrix(30 0 0 30 -106.282 140.9)"/><path d="M8 8h1l-.5-.25zm0 0v1l-.25-.5z" style="fill:#662a2c" transform="matrix(30 0 0 30 -106.282 140.9)"/><path d="M9 9V8l.25.5z" style="fill:#483f1a" transform="matrix(30 0 0 30 -106.282 140.9)"/><path d="M9 9v1l-.25-.5z" style="fill:#09294c" transform="matrix(30 0 0 30 -106.282 140.9)"/><path d="M10 10H9l.5.25z" style="fill:#0d301f" transform="matrix(30 0 0 30 -106.282 140.9)"/><path d="M8 8h1v1H8z" style="fill:#4b1016" transform="matrix(30 0 0 30 -106.282 140.9)"/><path d="M9 9H8l.5.25z" style="fill:#302807" transform="matrix(30 0 0 30 -106.282 140.9)"/><path d="M9 9h1m0 0v1m0 0H9m0-1v1M8 8h1m0 1V8m0 1H8m0-1v1" style="fill:none;stroke:rgba(255,255,255,.2);stroke-width:.01" transform="matrix(30 0 0 30 -106.282 140.9)"/><circle r=".06" style="fill:#222;stroke:rgba(255,255,255,.2);stroke-width:.02" transform="matrix(30 0 0 30 163.718 410.9)"/><circle r=".06" style="fill:#222;stroke:rgba(255,255,255,.2);stroke-width:.02" transform="matrix(30 0 0 30 193.718 410.9)"/><circle r=".06" style="fill:#222;stroke:rgba(255,255,255,.2);stroke-width:.02" transform="matrix(30 0 0 30 193.718 440.9)"/><circle r=".06" style="fill:#222;stroke:rgba(255,255,255,.2);stroke-width:.02" transform="matrix(30 0 0 30 163.718 440.9)"/><circle r=".06" style="fill:#222;stroke:rgba(255,255,255,.2);stroke-width:.02" transform="matrix(30 0 0 30 133.718 380.9)"/><circle r=".06" style="fill:#222;stroke:rgba(255,255,255,.2);stroke-width:.02" transform="matrix(30 0 0 30 163.718 380.9)"/><circle r=".06" style="fill:#222;stroke:rgba(255,255,255,.2);stroke-width:.02" transform="matrix(30 0 0 30 133.718 410.9)"/><text xml:space="preserve" dominant-baseline="alphabetic" font-family="Helvetica, Arial, sans-serif" font-size="25" lengthAdjust="spacingAndGlyphs" style="fill:rgba(255,255,255,.8)" text-rendering="geometricPrecision" textLength="13.904" transform="translate(172.246 433.814)scale(.93103)">2</text><text xml:space="preserve" dominant-baseline="alphabetic" font-family="Helvetica, Arial, sans-serif" font-size="25" lengthAdjust="spacingAndGlyphs" style="fill:rgba(255,255,255,.8)" text-rendering="geometricPrecision" textLength="13.904" transform="translate(142.246 403.814)scale(.93103)">3</text><path d="M9 9h1v1H9zM8 8h1v1H8z" style="fill:#000" transform="matrix(30 0 0 30 -217.5 235.9)"/><path d="M9 9h1v1H9z" style="fill:#214068" transform="matrix(30 0 0 30 -217.5 235.9)"/><path d="M8 8h1v1H8zm0 0h1l-.5-.25z" style="fill:#224935" transform="matrix(30 0 0 30 -217.5 235.9)"/><path d="M9 9h1l-.5-.25z" style="fill:#09294c" transform="matrix(30 0 0 30 -217.5 235.9)"/><path d="M9 9h1m0 0v1m0 0H9m0-1v1M8 8h1m0 1V8m0 1H8m0-1v1" style="fill:none;stroke:rgba(255,255,255,.2);stroke-width:.01" transform="matrix(30 0 0 30 -217.5 235.9)"/><circle r=".06" style="fill:#222;stroke:rgba(255,255,255,.2);stroke-width:.02" transform="matrix(30 0 0 30 52.5 505.9)"/><circle r=".06" style="fill:#222;stroke:rgba(255,255,255,.2);stroke-width:.02" transform="matrix(30 0 0 30 82.5 505.9)"/><circle r=".06" style="fill:#222;stroke:rgba(255,255,255,.2);stroke-width:.02" transform="matrix(30 0 0 30 82.5 535.9)"/><circle r=".06" style="fill:#222;stroke:rgba(255,255,255,.2);stroke-width:.02" transform="matrix(30 0 0 30 52.5 535.9)"/><circle r=".06" style="fill:#222;stroke:rgba(255,255,255,.2);stroke-width:.02" transform="matrix(30 0 0 30 22.5 475.9)"/><circle r=".06" style="fill:#222;stroke:rgba(255,255,255,.2);stroke-width:.02" transform="matrix(30 0 0 30 52.5 475.9)"/><circle r=".06" style="fill:#222;stroke:rgba(255,255,255,.2);stroke-width:.02" transform="matrix(30 0 0 30 22.5 505.9)"/><text xml:space="preserve" dominant-baseline="alphabetic" font-family="Helvetica, Arial, sans-serif" font-size="25" lengthAdjust="spacingAndGlyphs" style="fill:rgba(255,255,255,.2)" text-rendering="geometricPrecision" textLength="13.904" transform="translate(61.028 528.814)scale(.93103)">?</text><text xml:space="preserve" dominant-baseline="alphabetic" font-family="Helvetica, Arial, sans-serif" font-size="25" lengthAdjust="spacingAndGlyphs" style="fill:rgba(255,255,255,.8)" text-rendering="geometricPrecision" textLength="13.904" transform="translate(31.028 498.814)scale(.93103)">2</text><path d="M0 .5h13v3L20 0l-7-3.5v3H0z" style="fill:#ccc;stroke:#ccc" transform="translate(95.1 503.2)"/><path d="M9 9h1v1H9zM8 8h1v1H8z" style="fill:#000" transform="matrix(30 0 0 30 -106.282 235.9)"/><path d="M9 9h1l-.5-.25z" style="fill:#214068" transform="matrix(30 0 0 30 -106.282 235.9)"/><path d="M8 8h1l-.5-.25zm0 0h1v1H8z" style="fill:#224935" transform="matrix(30 0 0 30 -106.282 235.9)"/><path d="M9 9V8l.25.5z" style="fill:#662a2c" transform="matrix(30 0 0 30 -106.282 235.9)"/><path d="M9 9v1l-.25-.5zm0 0h1v1H9z" style="fill:#09294c" transform="matrix(30 0 0 30 -106.282 235.9)"/><path d="M8 8v1l-.25-.5z" style="fill:#0d301f" transform="matrix(30 0 0 30 -106.282 235.9)"/><path d="M9 9H8l.5.25z" style="fill:#4b1016" transform="matrix(30 0 0 30 -106.282 235.9)"/><path d="M9 9h1m0 0v1m0 0H9m0-1v1M8 8h1m0 1V8m0 1H8m0-1v1" style="fill:none;stroke:rgba(255,255,255,.2);stroke-width:.01" transform="matrix(30 0 0 30 -106.282 235.9)"/><circle r=".06" style="fill:#222;stroke:rgba(255,255,255,.2);stroke-width:.02" transform="matrix(30 0 0 30 163.718 505.9)"/><circle r=".06" style="fill:#222;stroke:rgba(255,255,255,.2);stroke-width:.02" transform="matrix(30 0 0 30 193.718 505.9)"/><circle r=".06" style="fill:#222;stroke:rgba(255,255,255,.2);stroke-width:.02" transform="matrix(30 0 0 30 193.718 535.9)"/><circle r=".06" style="fill:#222;stroke:rgba(255,255,255,.2);stroke-width:.02" transform="matrix(30 0 0 30 163.718 535.9)"/><circle r=".06" style="fill:#222;stroke:rgba(255,255,255,.2);stroke-width:.02" transform="matrix(30 0 0 30 133.718 475.9)"/><circle r=".06" style="fill:#222;stroke:rgba(255,255,255,.2);stroke-width:.02" transform="matrix(30 0 0 30 163.718 475.9)"/><circle r=".06" style="fill:#222;stroke:rgba(255,255,255,.2);stroke-width:.02" transform="matrix(30 0 0 30 133.718 505.9)"/><text xml:space="preserve" dominant-baseline="alphabetic" font-family="Helvetica, Arial, sans-serif" font-size="25" lengthAdjust="spacingAndGlyphs" style="fill:rgba(255,255,255,.2)" text-rendering="geometricPrecision" textLength="13.904" transform="translate(172.246 528.814)scale(.93103)">?</text><text xml:space="preserve" dominant-baseline="alphabetic" font-family="Helvetica, Arial, sans-serif" font-size="25" lengthAdjust="spacingAndGlyphs" style="fill:rgba(255,255,255,.8)" text-rendering="geometricPrecision" textLength="13.904" transform="translate(142.246 498.814)scale(.93103)">2</text><path d="M9 9h1v1H9zM8 8h1v1H8z" style="fill:#000" transform="matrix(30 0 0 30 -214.8 325.5)"/><path d="M8 8h1v1H8zm0 0h1l-.5-.25z" style="fill:#214068" transform="matrix(30 0 0 30 -214.8 325.5)"/><path d="M9 9h1l-.5-.25zm0 0v1l-.25-.5z" style="fill:#224935" transform="matrix(30 0 0 30 -214.8 325.5)"/><path d="M9 9h1m0 0v1m0 0H9m0-1v1M8 8h1m0 1V8m0 1H8m0-1v1" style="fill:none;stroke:rgba(255,255,255,.2);stroke-width:.01" transform="matrix(30 0 0 30 -214.8 325.5)"/><circle r=".06" style="fill:#222;stroke:rgba(255,255,255,.2);stroke-width:.02" transform="matrix(30 0 0 30 55.2 595.5)"/><circle r=".06" style="fill:#222;stroke:rgba(255,255,255,.2);stroke-width:.02" transform="matrix(30 0 0 30 85.2 595.5)"/><circle r=".06" style="fill:#222;stroke:rgba(255,255,255,.2);stroke-width:.02" transform="matrix(30 0 0 30 85.2 625.5)"/><circle r=".06" style="fill:#222;stroke:rgba(255,255,255,.2);stroke-width:.02" transform="matrix(30 0 0 30 55.2 625.5)"/><circle r=".06" style="fill:#222;stroke:rgba(255,255,255,.2);stroke-width:.02" transform="matrix(30 0 0 30 25.2 565.5)"/><circle r=".06" style="fill:#222;stroke:rgba(255,255,255,.2);stroke-width:.02" transform="matrix(30 0 0 30 55.2 565.5)"/><circle r=".06" style="fill:#222;stroke:rgba(255,255,255,.2);stroke-width:.02" transform="matrix(30 0 0 30 25.2 595.5)"/><text xml:space="preserve" dominant-baseline="alphabetic" font-family="Helvetica, Arial, sans-serif" font-size="25" lengthAdjust="spacingAndGlyphs" style="fill:rgba(255,255,255,.2)" text-rendering="geometricPrecision" textLength="13.904" transform="translate(63.728 618.414)scale(.93103)">?</text><text xml:space="preserve" dominant-baseline="alphabetic" font-family="Helvetica, Arial, sans-serif" font-size="25" lengthAdjust="spacingAndGlyphs" style="fill:rgba(255,255,255,.8)" text-rendering="geometricPrecision" textLength="13.904" transform="translate(33.728 588.414)scale(.93103)">2</text><path d="M0 .5h13v3L20 0l-7-3.5v3H0z" style="fill:#ccc;stroke:#ccc" transform="translate(97.8 592.8)"/><path d="M9 9h1v1H9zM8 8h1v1H8z" style="fill:#000" transform="matrix(30 0 0 30 -108.982 325.5)"/><path d="M8 8h1v1H8zm0 0h1l-.5-.25z" style="fill:#214068" transform="matrix(30 0 0 30 -108.982 325.5)"/><path d="M9 9h1l-.5-.25zm0 0v1l-.25-.5zm0 0h1v1H9z" style="fill:#224935" transform="matrix(30 0 0 30 -108.982 325.5)"/><path d="M9 9h1m0 0v1m0 0H9m0-1v1M8 8h1m0 1V8m0 1H8m0-1v1" style="fill:none;stroke:rgba(255,255,255,.2);stroke-width:.01" transform="matrix(30 0 0 30 -108.982 325.5)"/><circle r=".06" style="fill:#222;stroke:rgba(255,255,255,.2);stroke-width:.02" transform="matrix(30 0 0 30 161.018 595.5)"/><circle r=".06" style="fill:#222;stroke:rgba(255,255,255,.2);stroke-width:.02" transform="matrix(30 0 0 30 191.018 595.5)"/><circle r=".06" style="fill:#222;stroke:rgba(255,255,255,.2);stroke-width:.02" transform="matrix(30 0 0 30 191.018 625.5)"/><circle r=".06" style="fill:#222;stroke:rgba(255,255,255,.2);stroke-width:.02" transform="matrix(30 0 0 30 161.018 625.5)"/><circle r=".06" style="fill:#222;stroke:rgba(255,255,255,.2);stroke-width:.02" transform="matrix(30 0 0 30 131.018 565.5)"/><circle r=".06" style="fill:#222;stroke:rgba(255,255,255,.2);stroke-width:.02" transform="matrix(30 0 0 30 161.018 565.5)"/><circle r=".06" style="fill:#222;stroke:rgba(255,255,255,.2);stroke-width:.02" transform="matrix(30 0 0 30 131.018 595.5)"/><text xml:space="preserve" dominant-baseline="alphabetic" font-family="Helvetica, Arial, sans-serif" font-size="25" lengthAdjust="spacingAndGlyphs" style="fill:rgba(255,255,255,.2)" text-rendering="geometricPrecision" textLength="13.904" transform="translate(169.546 618.414)scale(.93103)">?</text><text xml:space="preserve" dominant-baseline="alphabetic" font-family="Helvetica, Arial, sans-serif" font-size="25" lengthAdjust="spacingAndGlyphs" style="fill:rgba(255,255,255,.8)" text-rendering="geometricPrecision" textLength="13.904" transform="translate(139.546 588.414)scale(.93103)">2</text><path d="M9 9h1v1H9zM8 8h1v1H8z" style="fill:#000" transform="matrix(30 0 0 30 -217.5 415.1)"/><path d="M8 8h1v1H8zm0 0h1l-.5-.25z" style="fill:#214068" transform="matrix(30 0 0 30 -217.5 415.1)"/><path d="M9 9h1l-.5-.25z" style="fill:#224935" transform="matrix(30 0 0 30 -217.5 415.1)"/><path d="M9 9v1l-.25-.5z" style="fill:#0d301f" transform="matrix(30 0 0 30 -217.5 415.1)"/><path d="M9 9h1m0 0v1m0 0H9m0-1v1M8 8h1m0 1V8m0 1H8m0-1v1" style="fill:none;stroke:rgba(255,255,255,.2);stroke-width:.01" transform="matrix(30 0 0 30 -217.5 415.1)"/><circle r=".06" style="fill:#222;stroke:rgba(255,255,255,.2);stroke-width:.02" transform="matrix(30 0 0 30 52.5 685.1)"/><circle r=".06" style="fill:#222;stroke:rgba(255,255,255,.2);stroke-width:.02" transform="matrix(30 0 0 30 82.5 685.1)"/><circle r=".06" style="fill:#222;stroke:rgba(255,255,255,.2);stroke-width:.02" transform="matrix(30 0 0 30 82.5 715.1)"/><circle r=".06" style="fill:#222;stroke:rgba(255,255,255,.2);stroke-width:.02" transform="matrix(30 0 0 30 52.5 715.1)"/><circle r=".06" style="fill:#222;stroke:rgba(255,255,255,.2);stroke-width:.02" transform="matrix(30 0 0 30 22.5 655.1)"/><circle r=".06" style="fill:#222;stroke:rgba(255,255,255,.2);stroke-width:.02" transform="matrix(30 0 0 30 52.5 655.1)"/><circle r=".06" style="fill:#222;stroke:rgba(255,255,255,.2);stroke-width:.02" transform="matrix(30 0 0 30 22.5 685.1)"/><text xml:space="preserve" dominant-baseline="alphabetic" font-family="Helvetica, Arial, sans-serif" font-size="25" lengthAdjust="spacingAndGlyphs" style="fill:rgba(255,255,255,.2)" text-rendering="geometricPrecision" textLength="13.904" transform="translate(61.028 708.014)scale(.93103)">?</text><text xml:space="preserve" dominant-baseline="alphabetic" font-family="Helvetica, Arial, sans-serif" font-size="25" lengthAdjust="spacingAndGlyphs" style="fill:rgba(255,255,255,.8)" text-rendering="geometricPrecision" textLength="13.904" transform="translate(31.028 678.014)scale(.93103)">2</text><path d="M0 .5h13v3L20 0l-7-3.5v3H0z" style="fill:#ccc;stroke:#ccc" transform="translate(95.1 682.4)"/><path d="M9 9h1v1H9zM8 8h1v1H8z" style="fill:#000" transform="matrix(30 0 0 30 -106.282 415.1)"/><path d="M9 9h1l-.5-.25z" style="fill:#214068" transform="matrix(30 0 0 30 -106.282 415.1)"/><path d="M8 8h1l-.5-.25zm0 0h1v1H8z" style="fill:#224935" transform="matrix(30 0 0 30 -106.282 415.1)"/><path d="M9 9V8l.25.5z" style="fill:#662a2c" transform="matrix(30 0 0 30 -106.282 415.1)"/><path d="M9 9v1l-.25-.5z" style="fill:#09294c" transform="matrix(30 0 0 30 -106.282 415.1)"/><path d="M8 8v1l-.25-.5z" style="fill:#0d301f" transform="matrix(30 0 0 30 -106.282 415.1)"/><path d="M9 9H8l.5.25z" style="fill:#4b1016" transform="matrix(30 0 0 30 -106.282 415.1)"/><path d="M9 9h1m0 0v1m0 0H9m0-1v1M8 8h1m0 1V8m0 1H8m0-1v1" style="fill:none;stroke:rgba(255,255,255,.2);stroke-width:.01" transform="matrix(30 0 0 30 -106.282 415.1)"/><circle r=".06" style="fill:#222;stroke:rgba(255,255,255,.2);stroke-width:.02" transform="matrix(30 0 0 30 163.718 685.1)"/><circle r=".06" style="fill:#222;stroke:rgba(255,255,255,.2);stroke-width:.02" transform="matrix(30 0 0 30 193.718 685.1)"/><circle r=".06" style="fill:#222;stroke:rgba(255,255,255,.2);stroke-width:.02" transform="matrix(30 0 0 30 193.718 715.1)"/><circle r=".06" style="fill:#222;stroke:rgba(255,255,255,.2);stroke-width:.02" transform="matrix(30 0 0 30 163.718 715.1)"/><circle r=".06" style="fill:#222;stroke:rgba(255,255,255,.2);stroke-width:.02" transform="matrix(30 0 0 30 133.718 655.1)"/><circle r=".06" style="fill:#222;stroke:rgba(255,255,255,.2);stroke-width:.02" transform="matrix(30 0 0 30 163.718 655.1)"/><circle r=".06" style="fill:#222;stroke:rgba(255,255,255,.2);stroke-width:.02" transform="matrix(30 0 0 30 133.718 685.1)"/><text xml:space="preserve" dominant-baseline="alphabetic" font-family="Helvetica, Arial, sans-serif" font-size="25" lengthAdjust="spacingAndGlyphs" style="fill:rgba(255,255,255,.2)" text-rendering="geometricPrecision" textLength="13.904" transform="translate(172.246 708.014)scale(.93103)">?</text><text xml:space="preserve" dominant-baseline="alphabetic" font-family="Helvetica, Arial, sans-serif" font-size="25" lengthAdjust="spacingAndGlyphs" style="fill:rgba(255,255,255,.8)" text-rendering="geometricPrecision" textLength="13.904" transform="translate(142.246 678.014)scale(.93103)">2</text><path d="M9 9h1v1H9zM8 8h1v1H8z" style="fill:#000" transform="matrix(30 0 0 30 -222.9 504.7)"/><path d="M9 9h1v1H9zm1 0v1l.25-.5z" style="fill:#214068" transform="matrix(30 0 0 30 -222.9 504.7)"/><path d="M8 8h1v1H8zm0 0h1l-.5-.25z" style="fill:#224935" transform="matrix(30 0 0 30 -222.9 504.7)"/><path d="M9 9h1m0 0v1m0 0H9m0-1v1M8 8h1m0 1V8m0 1H8m0-1v1" style="fill:none;stroke:rgba(255,255,255,.2);stroke-width:.01" transform="matrix(30 0 0 30 -222.9 504.7)"/><circle r=".06" style="fill:#222;stroke:rgba(255,255,255,.2);stroke-width:.02" transform="matrix(30 0 0 30 47.1 774.7)"/><circle r=".06" style="fill:#222;stroke:rgba(255,255,255,.2);stroke-width:.02" transform="matrix(30 0 0 30 77.1 774.7)"/><circle r=".06" style="fill:#222;stroke:rgba(255,255,255,.2);stroke-width:.02" transform="matrix(30 0 0 30 77.1 804.7)"/><circle r=".06" style="fill:#222;stroke:rgba(255,255,255,.2);stroke-width:.02" transform="matrix(30 0 0 30 47.1 804.7)"/><circle r=".06" style="fill:#222;stroke:rgba(255,255,255,.2);stroke-width:.02" transform="matrix(30 0 0 30 17.1 744.7)"/><circle r=".06" style="fill:#222;stroke:rgba(255,255,255,.2);stroke-width:.02" transform="matrix(30 0 0 30 47.1 744.7)"/><circle r=".06" style="fill:#222;stroke:rgba(255,255,255,.2);stroke-width:.02" transform="matrix(30 0 0 30 17.1 774.7)"/><text xml:space="preserve" dominant-baseline="alphabetic" font-family="Helvetica, Arial, sans-serif" font-size="25" lengthAdjust="spacingAndGlyphs" style="fill:rgba(255,255,255,.8)" text-rendering="geometricPrecision" textLength="13.904" transform="translate(55.628 797.614)scale(.93103)">2</text><text xml:space="preserve" dominant-baseline="alphabetic" font-family="Helvetica, Arial, sans-serif" font-size="25" lengthAdjust="spacingAndGlyphs" style="fill:rgba(255,255,255,.8)" text-rendering="geometricPrecision" textLength="13.904" transform="translate(25.628 767.614)scale(.93103)">2</text><path d="M0 .5h13v3L20 0l-7-3.5v3H0z" style="fill:#ccc;stroke:#ccc" transform="translate(95.1 774.7)"/><path d="M9 9h1v1H9zM8 8h1v1H8z" style="fill:#000" transform="matrix(30 0 0 30 -106.282 504.7)"/><path d="M9 9h1l-.5-.25z" style="fill:#214068" transform="matrix(30 0 0 30 -106.282 504.7)"/><path d="M10 9v1l.25-.5zM9 9h1v1H9z" style="fill:#224935" transform="matrix(30 0 0 30 -106.282 504.7)"/><path d="M8 8h1l-.5-.25zm0 0h1v1H8z" style="fill:#662a2c" transform="matrix(30 0 0 30 -106.282 504.7)"/><path d="M9 9V8l.25.5z" style="fill:#483f1a" transform="matrix(30 0 0 30 -106.282 504.7)"/><path d="M9 9v1l-.25-.5z" style="fill:#09294c" transform="matrix(30 0 0 30 -106.282 504.7)"/><path d="M10 10H9l.5.25z" style="fill:#0d301f" transform="matrix(30 0 0 30 -106.282 504.7)"/><path d="M8 8v1l-.25-.5z" style="fill:#4b1016" transform="matrix(30 0 0 30 -106.282 504.7)"/><path d="M9 9H8l.5.25z" style="fill:#302807" transform="matrix(30 0 0 30 -106.282 504.7)"/><path d="M9 9h1m0 0v1m0 0H9m0-1v1M8 8h1m0 1V8m0 1H8m0-1v1" style="fill:none;stroke:rgba(255,255,255,.2);stroke-width:.01" transform="matrix(30 0 0 30 -106.282 504.7)"/><circle r=".06" style="fill:#222;stroke:rgba(255,255,255,.2);stroke-width:.02" transform="matrix(30 0 0 30 163.718 774.7)"/><circle r=".06" style="fill:#222;stroke:rgba(255,255,255,.2);stroke-width:.02" transform="matrix(30 0 0 30 193.718 774.7)"/><circle r=".06" style="fill:#222;stroke:rgba(255,255,255,.2);stroke-width:.02" transform="matrix(30 0 0 30 193.718 804.7)"/><circle r=".06" style="fill:#222;stroke:rgba(255,255,255,.2);stroke-width:.02" transform="matrix(30 0 0 30 163.718 804.7)"/><circle r=".06" style="fill:#222;stroke:rgba(255,255,255,.2);stroke-width:.02" transform="matrix(30 0 0 30 133.718 744.7)"/><circle r=".06" style="fill:#222;stroke:rgba(255,255,255,.2);stroke-width:.02" transform="matrix(30 0 0 30 163.718 744.7)"/><circle r=".06" style="fill:#222;stroke:rgba(255,255,255,.2);stroke-width:.02" transform="matrix(30 0 0 30 133.718 774.7)"/><text xml:space="preserve" dominant-baseline="alphabetic" font-family="Helvetica, Arial, sans-serif" font-size="25" lengthAdjust="spacingAndGlyphs" style="fill:rgba(255,255,255,.8)" text-rendering="geometricPrecision" textLength="13.904" transform="translate(172.246 797.614)scale(.93103)">2</text><text xml:space="preserve" dominant-baseline="alphabetic" font-family="Helvetica, Arial, sans-serif" font-size="25" lengthAdjust="spacingAndGlyphs" style="fill:rgba(255,255,255,.8)" text-rendering="geometricPrecision" textLength="13.904" transform="translate(142.246 767.614)scale(.93103)">2</text></svg>