<svg xmlns="http://www.w3.org/2000/svg" width="182" height="634" aria-hidden="true" style="pointer-events:none;position:absolute;left:0;top:0;transform-origin:left top;z-index:20"><rect width="172" height="624" rx="0" ry="0" style="fill:#333"/><path d="m0 0 .76 1.316H-.76z" style="fill:#000" transform="matrix(30 0 0 30 39.895 17.1)"/><path d="m0 0 .76 1.316m0 0H-.76M0 0l-.76 1.316" style="fill:none;stroke:rgba(255,255,255,.2);stroke-width:.01" transform="matrix(30 0 0 30 39.895 17.1)"/><circle r=".06" style="fill:#222;stroke:rgba(255,255,255,.2);stroke-width:.02" transform="matrix(30 0 0 30 39.895 17.1)"/><circle r=".06" style="fill:#222;stroke:rgba(255,255,255,.2);stroke-width:.02" transform="matrix(30 0 0 30 62.69 56.582)"/><circle r=".06" style="fill:#222;stroke:rgba(255,255,255,.2);stroke-width:.02" transform="matrix(30 0 0 30 17.1 56.582)"/><text xml:space="preserve" dominant-baseline="alphabetic" font-family="Helvetica, Arial, sans-serif" font-size="25" lengthAdjust="spacingAndGlyphs" style="fill:rgba(255,255,255,.8)" text-rendering="geometricPrecision" textLength="13.904" transform="translate(33.423 51.335)scale(.93103)">0</text><path d="M0 .5h13v3L20 0l-7-3.5v3H0z" style="fill:#ccc;stroke:#ccc" transform="translate(75.29 39.081)"/><path d="m0 0 .76 1.316H-.76z" style="fill:#000" transform="matrix(30 0 0 30 131.303 17.1)"/><path d="M.76 1.316H-.76l.76.22zM0 0l-.76 1.316.19-.768zm0 0 .76 1.316L.57.548z" style="fill:#214068" transform="matrix(30 0 0 30 131.303 17.1)"/><path d="m0 0 .76 1.316H-.76z" style="fill:#214068" transform="matrix(30 0 0 30 131.303 17.1)"/><path d="m0 0 .76 1.316m0 0H-.76M0 0l-.76 1.316" style="fill:none;stroke:rgba(255,255,255,.2);stroke-width:.01" transform="matrix(30 0 0 30 131.303 17.1)"/><circle r=".06" style="fill:#222;stroke:rgba(255,255,255,.2);stroke-width:.02" transform="matrix(30 0 0 30 131.303 17.1)"/><circle r=".06" style="fill:#222;stroke:rgba(255,255,255,.2);stroke-width:.02" transform="matrix(30 0 0 30 154.098 56.582)"/><circle r=".06" style="fill:#222;stroke:rgba(255,255,255,.2);stroke-width:.02" transform="matrix(30 0 0 30 108.508 56.582)"/><text xml:space="preserve" dominant-baseline="alphabetic" font-family="Helvetica, Arial, sans-serif" font-size="25" lengthAdjust="spacingAndGlyphs" style="fill:rgba(255,255,255,.8)" text-rendering="geometricPrecision" textLength="13.904" transform="translate(124.83 51.335)scale(.93103)">0</text><path d="m0 0 .76 1.316H-.76z" style="fill:#000" transform="matrix(30 0 0 30 39.895 85.263)"/><path d="m0 0 .76 1.316H-.76z" style="fill:#214068" transform="matrix(30 0 0 30 39.895 85.263)"/><path d="m0 0 .76 1.316L.57.548z" style="fill:#214068" transform="matrix(30 0 0 30 39.895 85.263)"/><path d="m0 0 .76 1.316m0 0H-.76M0 0l-.76 1.316" style="fill:none;stroke:rgba(255,255,255,.2);stroke-width:.01" transform="matrix(30 0 0 30 39.895 85.263)"/><circle r=".06" style="fill:#222;stroke:rgba(255,255,255,.2);stroke-width:.02" transform="matrix(30 0 0 30 39.895 85.263)"/><circle r=".06" style="fill:#222;stroke:rgba(255,255,255,.2);stroke-width:.02" transform="matrix(30 0 0 30 62.69 124.745)"/><circle r=".06" style="fill:#222;stroke:rgba(255,255,255,.2);stroke-width:.02" transform="matrix(30 0 0 30 17.1 124.745)"/><text xml:space="preserve" dominant-baseline="alphabetic" font-family="Helvetica, Arial, sans-serif" font-size="25" lengthAdjust="spacingAndGlyphs" style="fill:rgba(255,255,255,.8)" text-rendering="geometricPrecision" textLength="13.904" transform="translate(33.423 119.498)scale(.93103)">1</text><path d="M0 .5h13v3L20 0l-7-3.5v3H0z" style="fill:#ccc;stroke:#ccc" transform="translate(75.29 107.244)"/><path d="m0 0 .76 1.316H-.76z" style="fill:#000" transform="matrix(30 0 0 30 131.303 85.263)"/><path d="m0 0 .76 1.316H-.76z" style="fill:#214068" transform="matrix(30 0 0 30 131.303 85.263)"/><path d="m0 0 .76 1.316L.57.548z" style="fill:#214068" transform="matrix(30 0 0 30 131.303 85.263)"/><path d="M.76 1.316H-.76l.76.22z" style="fill:#224935" transform="matrix(30 0 0 30 131.303 85.263)"/><path d="m0 0-.76 1.316.19-.768z" style="fill:#0d301f" transform="matrix(30 0 0 30 131.303 85.263)"/><path d="m0 0 .76 1.316m0 0H-.76M0 0l-.76 1.316" style="fill:none;stroke:rgba(255,255,255,.2);stroke-width:.01" transform="matrix(30 0 0 30 131.303 85.263)"/><circle r=".06" style="fill:#222;stroke:rgba(255,255,255,.2);stroke-width:.02" transform="matrix(30 0 0 30 131.303 85.263)"/><circle r=".06" style="fill:#222;stroke:rgba(255,255,255,.2);stroke-width:.02" transform="matrix(30 0 0 30 154.098 124.745)"/><circle r=".06" style="fill:#222;stroke:rgba(255,255,255,.2);stroke-width:.02" transform="matrix(30 0 0 30 108.508 124.745)"/><text xml:space="preserve" dominant-baseline="alphabetic" font-family="Helvetica, Arial, sans-serif" font-size="25" lengthAdjust="spacingAndGlyphs" style="fill:rgba(255,255,255,.8)" text-rendering="geometricPrecision" textLength="13.904" transform="translate(124.83 119.498)scale(.93103)">1</text><path d="m0 0 .76 1.316H-.76z" style="fill:#000" transform="matrix(30 0 0 30 39.895 153.425)"/><path d="m0 0 .76 1.316H-.76z" style="fill:#214068" transform="matrix(30 0 0 30 39.895 153.425)"/><path d="m0 0 .76 1.316L.57.548z" style="fill:#09294c" transform="matrix(30 0 0 30 39.895 153.425)"/><path d="m0 0 .76 1.316m0 0H-.76M0 0l-.76 1.316" style="fill:none;stroke:rgba(255,255,255,.2);stroke-width:.01" transform="matrix(30 0 0 30 39.895 153.425)"/><circle r=".06" style="fill:#222;stroke:rgba(255,255,255,.2);stroke-width:.02" transform="matrix(30 0 0 30 39.895 153.425)"/><circle r=".06" style="fill:#222;stroke:rgba(255,255,255,.2);stroke-width:.02" transform="matrix(30 0 0 30 62.69 192.907)"/><circle r=".06" style="fill:#222;stroke:rgba(255,255,255,.2);stroke-width:.02" transform="matrix(30 0 0 30 17.1 192.907)"/><text xml:space="preserve" dominant-baseline="alphabetic" font-family="Helvetica, Arial, sans-serif" font-size="25" lengthAdjust="spacingAndGlyphs" style="fill:rgba(255,255,255,.8)" text-rendering="geometricPrecision" textLength="13.904" transform="translate(33.423 187.66)scale(.93103)">1</text><path d="M0 .5h13v3L20 0l-7-3.5v3H0z" style="fill:#ccc;stroke:#ccc" transform="translate(75.29 175.406)"/><path d="m0 0 .76 1.316H-.76z" style="fill:#000" transform="matrix(30 0 0 30 131.303 153.425)"/><path d="M.76 1.316H-.76l.76.22zM0 0l-.76 1.316.19-.768z" style="fill:#214068" transform="matrix(30 0 0 30 131.303 153.425)"/><path d="m0 0 .76 1.316H-.76z" style="fill:#214068" transform="matrix(30 0 0 30 131.303 153.425)"/><path d="m0 0 .76 1.316L.57.548z" style="fill:#09294c" transform="matrix(30 0 0 30 131.303 153.425)"/><path d="m0 0 .76 1.316m0 0H-.76M0 0l-.76 1.316" style="fill:none;stroke:rgba(255,255,255,.2);stroke-width:.01" transform="matrix(30 0 0 30 131.303 153.425)"/><circle r=".06" style="fill:#222;stroke:rgba(255,255,255,.2);stroke-width:.02" transform="matrix(30 0 0 30 131.303 153.425)"/><circle r=".06" style="fill:#222;stroke:rgba(255,255,255,.2);stroke-width:.02" transform="matrix(30 0 0 30 154.098 192.907)"/><circle r=".06" style="fill:#222;stroke:rgba(255,255,255,.2);stroke-width:.02" transform="matrix(30 0 0 30 108.508 192.907)"/><text xml:space="preserve" dominant-baseline="alphabetic" font-family="Helvetica, Arial, sans-serif" font-size="25" lengthAdjust="spacingAndGlyphs" style="fill:rgba(255,255,255,.8)" text-rendering="geometricPrecision" textLength="13.904" transform="translate(124.83 187.66)scale(.93103)">1</text><path d="m0 0 .76 1.316H-.76z" style="fill:#000" transform="matrix(30 0 0 30 39.895 221.588)"/><path d="m0 0 .76 1.316L.57.548zm.76 1.316H-.76l.76.22z" style="fill:#214068" transform="matrix(30 0 0 30 39.895 221.588)"/><path d="m0 0 .76 1.316m0 0H-.76M0 0l-.76 1.316" style="fill:none;stroke:rgba(255,255,255,.2);stroke-width:.01" transform="matrix(30 0 0 30 39.895 221.588)"/><circle r=".06" style="fill:#222;stroke:rgba(255,255,255,.2);stroke-width:.02" transform="matrix(30 0 0 30 39.895 221.588)"/><circle r=".06" style="fill:#222;stroke:rgba(255,255,255,.2);stroke-width:.02" transform="matrix(30 0 0 30 62.69 261.07)"/><circle r=".06" style="fill:#222;stroke:rgba(255,255,255,.2);stroke-width:.02" transform="matrix(30 0 0 30 17.1 261.07)"/><text xml:space="preserve" dominant-baseline="alphabetic" font-family="Helvetica, Arial, sans-serif" font-size="25" lengthAdjust="spacingAndGlyphs" style="fill:rgba(255,255,255,.8)" text-rendering="geometricPrecision" textLength="13.904" transform="translate(33.423 255.823)scale(.93103)">1</text><path d="M0 .5h13v3L20 0l-7-3.5v3H0z" style="fill:#ccc;stroke:#ccc" transform="translate(75.29 243.57)"/><path d="m0 0 .76 1.316H-.76z" style="fill:#000" transform="matrix(30 0 0 30 131.303 221.588)"/><path d="M.76 1.316H-.76l.76.22zM0 0l.76 1.316L.57.548z" style="fill:#214068" transform="matrix(30 0 0 30 131.303 221.588)"/><path d="m0 0 .76 1.316H-.76z" style="fill:#214068" transform="matrix(30 0 0 30 131.303 221.588)"/><path d="m0 0-.76 1.316.19-.768z" style="fill:#09294c" transform="matrix(30 0 0 30 131.303 221.588)"/><path d="m0 0 .76 1.316m0 0H-.76M0 0l-.76 1.316" style="fill:none;stroke:rgba(255,255,255,.2);stroke-width:.01" transform="matrix(30 0 0 30 131.303 221.588)"/><circle r=".06" style="fill:#222;stroke:rgba(255,255,255,.2);stroke-width:.02" transform="matrix(30 0 0 30 131.303 221.588)"/><circle r=".06" style="fill:#222;stroke:rgba(255,255,255,.2);stroke-width:.02" transform="matrix(30 0 0 30 154.098 261.07)"/><circle r=".06" style="fill:#222;stroke:rgba(255,255,255,.2);stroke-width:.02" transform="matrix(30 0 0 30 108.508 261.07)"/><text xml:space="preserve" dominant-baseline="alphabetic" font-family="Helvetica, Arial, sans-serif" font-size="25" lengthAdjust="spacingAndGlyphs" style="fill:rgba(255,255,255,.8)" text-rendering="geometricPrecision" textLength="13.904" transform="translate(124.83 255.823)scale(.93103)">1</text><path d="m0 0 .76 1.316H-.76z" style="fill:#000" transform="matrix(30 0 0 30 39.895 289.75)"/><path d="m0 0 .76 1.316L.57.548z" style="fill:#214068" transform="matrix(30 0 0 30 39.895 289.75)"/><path d="M.76 1.316H-.76l.76.22z" style="fill:#09294c" transform="matrix(30 0 0 30 39.895 289.75)"/><path d="m0 0 .76 1.316m0 0H-.76M0 0l-.76 1.316" style="fill:none;stroke:rgba(255,255,255,.2);stroke-width:.01" transform="matrix(30 0 0 30 39.895 289.75)"/><circle r=".06" style="fill:#222;stroke:rgba(255,255,255,.2);stroke-width:.02" transform="matrix(30 0 0 30 39.895 289.75)"/><circle r=".06" style="fill:#222;stroke:rgba(255,255,255,.2);stroke-width:.02" transform="matrix(30 0 0 30 62.69 329.233)"/><circle r=".06" style="fill:#222;stroke:rgba(255,255,255,.2);stroke-width:.02" transform="matrix(30 0 0 30 17.1 329.233)"/><text xml:space="preserve" dominant-baseline="alphabetic" font-family="Helvetica, Arial, sans-serif" font-size="25" lengthAdjust="spacingAndGlyphs" style="fill:rgba(255,255,255,.8)" text-rendering="geometricPrecision" textLength="13.904" transform="translate(33.423 323.986)scale(.93103)">1</text><path d="M0 .5h13v3L20 0l-7-3.5v3H0z" style="fill:#ccc;stroke:#ccc" transform="translate(75.29 311.732)"/><path d="m0 0 .76 1.316H-.76z" style="fill:#000" transform="matrix(30 0 0 30 131.303 289.75)"/><path d="m0 0 .76 1.316H-.76z" style="fill:#214068" transform="matrix(30 0 0 30 131.303 289.75)"/><path d="m0 0-.76 1.316.19-.768z" style="fill:#214068" transform="matrix(30 0 0 30 131.303 289.75)"/><path d="m0 0 .76 1.316L.57.548z" style="fill:#224935" transform="matrix(30 0 0 30 131.303 289.75)"/><path d="M.76 1.316H-.76l.76.22z" style="fill:#0d301f" transform="matrix(30 0 0 30 131.303 289.75)"/><path d="m0 0 .76 1.316m0 0H-.76M0 0l-.76 1.316" style="fill:none;stroke:rgba(255,255,255,.2);stroke-width:.01" transform="matrix(30 0 0 30 131.303 289.75)"/><circle r=".06" style="fill:#222;stroke:rgba(255,255,255,.2);stroke-width:.02" transform="matrix(30 0 0 30 131.303 289.75)"/><circle r=".06" style="fill:#222;stroke:rgba(255,255,255,.2);stroke-width:.02" transform="matrix(30 0 0 30 154.098 329.233)"/><circle r=".06" style="fill:#222;stroke:rgba(255,255,255,.2);stroke-width:.02" transform="matrix(30 0 0 30 108.508 329.233)"/><text xml:space="preserve" dominant-baseline="alphabetic" font-family="Helvetica, Arial, sans-serif" font-size="25" lengthAdjust="spacingAndGlyphs" style="fill:rgba(255,255,255,.8)" text-rendering="geometricPrecision" textLength="13.904" transform="translate(124.83 323.986)scale(.93103)">1</text><path d="m0 0 .76 1.316H-.76z" style="fill:#000" transform="matrix(30 0 0 30 39.895 357.913)"/><path d="m0 0 .76 1.316H-.76z" style="fill:#214068" transform="matrix(30 0 0 30 39.895 357.913)"/><path d="m0 0 .76 1.316L.57.548z" style="fill:#214068" transform="matrix(30 0 0 30 39.895 357.913)"/><path d="m0 0 .76 1.316m0 0H-.76M0 0l-.76 1.316" style="fill:none;stroke:rgba(255,255,255,.2);stroke-width:.01" transform="matrix(30 0 0 30 39.895 357.913)"/><circle r=".06" style="fill:#222;stroke:rgba(255,255,255,.2);stroke-width:.02" transform="matrix(30 0 0 30 39.895 357.913)"/><circle r=".06" style="fill:#222;stroke:rgba(255,255,255,.2);stroke-width:.02" transform="matrix(30 0 0 30 62.69 397.395)"/><circle r=".06" style="fill:#222;stroke:rgba(255,255,255,.2);stroke-width:.02" transform="matrix(30 0 0 30 17.1 397.395)"/><text xml:space="preserve" dominant-baseline="alphabetic" font-family="Helvetica, Arial, sans-serif" font-size="25" lengthAdjust="spacingAndGlyphs" style="fill:rgba(255,255,255,.8)" text-rendering="geometricPrecision" textLength="13.904" transform="translate(33.423 392.148)scale(.93103)">2</text><path d="M0 .5h13v3L20 0l-7-3.5v3H0z" style="fill:#ccc;stroke:#ccc" transform="translate(75.29 379.894)"/><path d="m0 0 .76 1.316H-.76z" style="fill:#000" transform="matrix(30 0 0 30 131.303 357.913)"/><path d="M.76 1.316H-.76l.76.22zM0 0l-.76 1.316.19-.768z" style="fill:#214068" transform="matrix(30 0 0 30 131.303 357.913)"/><path d="m0 0 .76 1.316L.57.548z" style="fill:#09294c" transform="matrix(30 0 0 30 131.303 357.913)"/><path d="m0 0 .76 1.316H-.76z" style="fill:#09294c" transform="matrix(30 0 0 30 131.303 357.913)"/><path d="m0 0 .76 1.316m0 0H-.76M0 0l-.76 1.316" style="fill:none;stroke:rgba(255,255,255,.2);stroke-width:.01" transform="matrix(30 0 0 30 131.303 357.913)"/><circle r=".06" style="fill:#222;stroke:rgba(255,255,255,.2);stroke-width:.02" transform="matrix(30 0 0 30 131.303 357.913)"/><circle r=".06" style="fill:#222;stroke:rgba(255,255,255,.2);stroke-width:.02" transform="matrix(30 0 0 30 154.098 397.395)"/><circle r=".06" style="fill:#222;stroke:rgba(255,255,255,.2);stroke-width:.02" transform="matrix(30 0 0 30 108.508 397.395)"/><text xml:space="preserve" dominant-baseline="alphabetic" font-family="Helvetica, Arial, sans-serif" font-size="25" lengthAdjust="spacingAndGlyphs" style="fill:rgba(255,255,255,.8)" text-rendering="geometricPrecision" textLength="13.904" transform="translate(124.83 392.148)scale(.93103)">2</text><path d="m0 0 .76 1.316H-.76z" style="fill:#000" transform="matrix(30 0 0 30 39.895 426.076)"/><path d="m0 0 .76 1.316H-.76z" style="fill:#214068" transform="matrix(30 0 0 30 39.895 426.076)"/><path d="m0 0 .76 1.316L.57.548z" style="fill:#09294c" transform="matrix(30 0 0 30 39.895 426.076)"/><path d="m0 0 .76 1.316m0 0H-.76M0 0l-.76 1.316" style="fill:none;stroke:rgba(255,255,255,.2);stroke-width:.01" transform="matrix(30 0 0 30 39.895 426.076)"/><circle r=".06" style="fill:#222;stroke:rgba(255,255,255,.2);stroke-width:.02" transform="matrix(30 0 0 30 39.895 426.076)"/><circle r=".06" style="fill:#222;stroke:rgba(255,255,255,.2);stroke-width:.02" transform="matrix(30 0 0 30 62.69 465.558)"/><circle r=".06" style="fill:#222;stroke:rgba(255,255,255,.2);stroke-width:.02" transform="matrix(30 0 0 30 17.1 465.558)"/><text xml:space="preserve" dominant-baseline="alphabetic" font-family="Helvetica, Arial, sans-serif" font-size="25" lengthAdjust="spacingAndGlyphs" style="fill:rgba(255,255,255,.8)" text-rendering="geometricPrecision" textLength="13.904" transform="translate(33.423 460.31)scale(.93103)">2</text><path d="M0 .5h13v3L20 0l-7-3.5v3H0z" style="fill:#ccc;stroke:#ccc" transform="translate(75.29 448.057)"/><path d="m0 0 .76 1.316H-.76z" style="fill:#000" transform="matrix(30 0 0 30 131.303 426.076)"/><path d="m0 0 .76 1.316H-.76z" style="fill:#214068" transform="matrix(30 0 0 30 131.303 426.076)"/><path d="m0 0 .76 1.316L.57.548z" style="fill:#09294c" transform="matrix(30 0 0 30 131.303 426.076)"/><path d="M.76 1.316H-.76l.76.22z" style="fill:#224935" transform="matrix(30 0 0 30 131.303 426.076)"/><path d="m0 0-.76 1.316.19-.768z" style="fill:#0d301f" transform="matrix(30 0 0 30 131.303 426.076)"/><path d="m0 0 .76 1.316m0 0H-.76M0 0l-.76 1.316" style="fill:none;stroke:rgba(255,255,255,.2);stroke-width:.01" transform="matrix(30 0 0 30 131.303 426.076)"/><circle r=".06" style="fill:#222;stroke:rgba(255,255,255,.2);stroke-width:.02" transform="matrix(30 0 0 30 131.303 426.076)"/><circle r=".06" style="fill:#222;stroke:rgba(255,255,255,.2);stroke-width:.02" transform="matrix(30 0 0 30 154.098 465.558)"/><circle r=".06" style="fill:#222;stroke:rgba(255,255,255,.2);stroke-width:.02" transform="matrix(30 0 0 30 108.508 465.558)"/><text xml:space="preserve" dominant-baseline="alphabetic" font-family="Helvetica, Arial, sans-serif" font-size="25" lengthAdjust="spacingAndGlyphs" style="fill:rgba(255,255,255,.8)" text-rendering="geometricPrecision" textLength="13.904" transform="translate(124.83 460.31)scale(.93103)">2</text><path d="m0 0 .76 1.316H-.76z" style="fill:#000" transform="matrix(30 0 0 30 39.895 494.238)"/><path d="m0 0 .76 1.316L.57.548zm.76 1.316H-.76l.76.22z" style="fill:#214068" transform="matrix(30 0 0 30 39.895 494.238)"/><path d="m0 0 .76 1.316m0 0H-.76M0 0l-.76 1.316" style="fill:none;stroke:rgba(255,255,255,.2);stroke-width:.01" transform="matrix(30 0 0 30 39.895 494.238)"/><circle r=".06" style="fill:#222;stroke:rgba(255,255,255,.2);stroke-width:.02" transform="matrix(30 0 0 30 39.895 494.238)"/><circle r=".06" style="fill:#222;stroke:rgba(255,255,255,.2);stroke-width:.02" transform="matrix(30 0 0 30 62.69 533.72)"/><circle r=".06" style="fill:#222;stroke:rgba(255,255,255,.2);stroke-width:.02" transform="matrix(30 0 0 30 17.1 533.72)"/><text xml:space="preserve" dominant-baseline="alphabetic" font-family="Helvetica, Arial, sans-serif" font-size="25" lengthAdjust="spacingAndGlyphs" style="fill:rgba(255,255,255,.8)" text-rendering="geometricPrecision" textLength="13.904" transform="translate(33.423 528.473)scale(.93103)">2</text><path d="M0 .5h13v3L20 0l-7-3.5v3H0z" style="fill:#ccc;stroke:#ccc" transform="translate(75.29 516.22)"/><path d="m0 0 .76 1.316H-.76z" style="fill:#000" transform="matrix(30 0 0 30 131.303 494.238)"/><path d="M.76 1.316H-.76l.76.22zM0 0l.76 1.316L.57.548z" style="fill:#214068" transform="matrix(30 0 0 30 131.303 494.238)"/><path d="m0 0-.76 1.316.19-.768zm0 0 .76 1.316H-.76z" style="fill:#09294c" transform="matrix(30 0 0 30 131.303 494.238)"/><path d="m0 0 .76 1.316m0 0H-.76M0 0l-.76 1.316" style="fill:none;stroke:rgba(255,255,255,.2);stroke-width:.01" transform="matrix(30 0 0 30 131.303 494.238)"/><circle r=".06" style="fill:#222;stroke:rgba(255,255,255,.2);stroke-width:.02" transform="matrix(30 0 0 30 131.303 494.238)"/><circle r=".06" style="fill:#222;stroke:rgba(255,255,255,.2);stroke-width:.02" transform="matrix(30 0 0 30 154.098 533.72)"/><circle r=".06" style="fill:#222;stroke:rgba(255,255,255,.2);stroke-width:.02" transform="matrix(30 0 0 30 108.508 533.72)"/><text xml:space="preserve" dominant-baseline="alphabetic" font-family="Helvetica, Arial, sans-serif" font-size="25" lengthAdjust="spacingAndGlyphs" style="fill:rgba(255,255,255,.8)" text-rendering="geometricPrecision" textLength="13.904" transform="translate(124.83 528.473)scale(.93103)">2</text><path d="m0 0 .76 1.316H-.76z" style="fill:#000" transform="matrix(30 0 0 30 39.895 562.4)"/><path d="m0 0 .76 1.316L.57.548z" style="fill:#214068" transform="matrix(30 0 0 30 39.895 562.4)"/><path d="M.76 1.316H-.76l.76.22z" style="fill:#09294c" transform="matrix(30 0 0 30 39.895 562.4)"/><path d="m0 0 .76 1.316m0 0H-.76M0 0l-.76 1.316" style="fill:none;stroke:rgba(255,255,255,.2);stroke-width:.01" transform="matrix(30 0 0 30 39.895 562.4)"/><circle r=".06" style="fill:#222;stroke:rgba(255,255,255,.2);stroke-width:.02" transform="matrix(30 0 0 30 39.895 562.4)"/><circle r=".06" style="fill:#222;stroke:rgba(255,255,255,.2);stroke-width:.02" transform="matrix(30 0 0 30 62.69 601.883)"/><circle r=".06" style="fill:#222;stroke:rgba(255,255,255,.2);stroke-width:.02" transform="matrix(30 0 0 30 17.1 601.883)"/><text xml:space="preserve" dominant-baseline="alphabetic" font-family="Helvetica, Arial, sans-serif" font-size="25" lengthAdjust="spacingAndGlyphs" style="fill:rgba(255,255,255,.8)" text-rendering="geometricPrecision" textLength="13.904" transform="translate(33.423 596.636)scale(.93103)">2</text><path d="M0 .5h13v3L20 0l-7-3.5v3H0z" style="fill:#ccc;stroke:#ccc" transform="translate(75.29 584.382)"/><path d="m0 0 .76 1.316H-.76z" style="fill:#000" transform="matrix(30 0 0 30 131.303 562.4)"/><path d="m0 0 .76 1.316H-.76z" style="fill:#214068" transform="matrix(30 0 0 30 131.303 562.4)"/><path d="m0 0-.76 1.316.19-.768z" style="fill:#09294c" transform="matrix(30 0 0 30 131.303 562.4)"/><path d="m0 0 .76 1.316L.57.548z" style="fill:#224935" transform="matrix(30 0 0 30 131.303 562.4)"/><path d="M.76 1.316H-.76l.76.22z" style="fill:#0d301f" transform="matrix(30 0 0 30 131.303 562.4)"/><path d="m0 0 .76 1.316m0 0H-.76M0 0l-.76 1.316" style="fill:none;stroke:rgba(255,255,255,.2);stroke-width:.01" transform="matrix(30 0 0 30 131.303 562.4)"/><circle r=".06" style="fill:#222;stroke:rgba(255,255,255,.2);stroke-width:.02" transform="matrix(30 0 0 30 131.303 562.4)"/><circle r=".06" style="fill:#222;stroke:rgba(255,255,255,.2);stroke-width:.02" transform="matrix(30 0 0 30 154.098 601.883)"/><circle r=".06" style="fill:#222;stroke:rgba(255,255,255,.2);stroke-width:.02" transform="matrix(30 0 0 30 108.508 601.883)"/><text xml:space="preserve" dominant-baseline="alphabetic" font-family="Helvetica, Arial, sans-serif" font-size="25" lengthAdjust="spacingAndGlyphs" style="fill:rgba(255,255,255,.8)" text-rendering="geometricPrecision" textLength="13.904" transform="translate(124.83 596.636)scale(.93103)">2</text></svg>