<svg xmlns="http://www.w3.org/2000/svg" width="261" height="1406" aria-hidden="true" style="pointer-events:none;position:absolute;left:0;top:0;transform-origin:left top;z-index:20"><rect width="251" height="1396" rx="0" ry="0" style="fill:#333"/><path d="M-.76 0 0-1.316.76 0zm-1.316.76L-.76 0 0 1.316l-1.316.76z" style="fill:#000" transform="matrix(30 0 0 30 79.377 56.582)"/><path d="M-.76 0 0-1.316m0 0L.76 0M-.76 0H.76M-.76 0l-1.316.76M-.76 0 0 1.316m0 0-1.316.76M-2.076.76l.76 1.316" style="fill:none;stroke:rgba(255,255,255,.2);stroke-width:.01" transform="matrix(30 0 0 30 79.377 56.582)"/><circle r=".06" style="fill:#222;stroke:rgba(255,255,255,.2);stroke-width:.02" transform="matrix(30 0 0 30 56.582 56.582)"/><circle r=".06" style="fill:#222;stroke:rgba(255,255,255,.2);stroke-width:.02" transform="matrix(30 0 0 30 79.377 17.1)"/><circle r=".06" style="fill:#222;stroke:rgba(255,255,255,.2);stroke-width:.02" transform="matrix(30 0 0 30 102.172 56.582)"/><circle r=".06" style="fill:#222;stroke:rgba(255,255,255,.2);stroke-width:.02" transform="matrix(30 0 0 30 17.1 79.377)"/><circle r=".06" style="fill:#222;stroke:rgba(255,255,255,.2);stroke-width:.02" transform="matrix(30 0 0 30 79.377 96.064)"/><circle r=".06" style="fill:#222;stroke:rgba(255,255,255,.2);stroke-width:.02" transform="matrix(30 0 0 30 39.895 118.86)"/><text xml:space="preserve" dominant-baseline="alphabetic" font-family="Helvetica, Arial, sans-serif" font-size="25" lengthAdjust="spacingAndGlyphs" style="fill:rgba(255,255,255,.8)" text-rendering="geometricPrecision" textLength="13.904" transform="translate(72.905 51.335)scale(.93103)">2</text><text xml:space="preserve" dominant-baseline="alphabetic" font-family="Helvetica, Arial, sans-serif" font-size="25" lengthAdjust="spacingAndGlyphs" style="fill:rgba(255,255,255,.8)" text-rendering="geometricPrecision" textLength="13.904" transform="translate(41.766 95.635)scale(.93103)">3</text><path d="M0 .5h13v3L20 0l-7-3.5v3H0z" style="fill:#ccc;stroke:#ccc" transform="translate(114.772 67.98)"/><path d="M-.76 0 0-1.316.76 0zm-1.316.76L-.76 0 0 1.316l-1.316.76z" style="fill:#000" transform="matrix(30 0 0 30 210.268 56.582)"/><path d="M-.76 0 0-1.316.76 0z" style="fill:#214068" transform="matrix(30 0 0 30 210.268 56.582)"/><path d="M-.76 0 0-1.316l-.709.468z" style="fill:#224935" transform="matrix(30 0 0 30 210.268 56.582)"/><path d="m-.76 0-1.316.76.548-.57z" style="fill:#662a2c" transform="matrix(30 0 0 30 210.268 56.582)"/><path d="m0 1.316-1.316.76.768-.19zM-2.076.76l.76 1.316-.57-.548z" style="fill:#483f1a" transform="matrix(30 0 0 30 210.268 56.582)"/><path d="M0-1.316.76 0 .709-.848z" style="fill:#09294c" transform="matrix(30 0 0 30 210.268 56.582)"/><path d="M-.76 0H.76L0 .22z" style="fill:#0d301f" transform="matrix(30 0 0 30 210.268 56.582)"/><path d="M-.76 0 0 1.316-.19.548z" style="fill:#4b1016" transform="matrix(30 0 0 30 210.268 56.582)"/><path d="M-2.076.76-.76 0 0 1.316l-1.316.76z" style="fill:#302807" transform="matrix(30 0 0 30 210.268 56.582)"/><path d="M-.76 0 0-1.316m0 0L.76 0M-.76 0H.76M-.76 0l-1.316.76M-.76 0 0 1.316m0 0-1.316.76M-2.076.76l.76 1.316" style="fill:none;stroke:rgba(255,255,255,.2);stroke-width:.01" transform="matrix(30 0 0 30 210.268 56.582)"/><circle r=".06" style="fill:#222;stroke:rgba(255,255,255,.2);stroke-width:.02" transform="matrix(30 0 0 30 187.473 56.582)"/><circle r=".06" style="fill:#222;stroke:rgba(255,255,255,.2);stroke-width:.02" transform="matrix(30 0 0 30 210.268 17.1)"/><circle r=".06" style="fill:#222;stroke:rgba(255,255,255,.2);stroke-width:.02" transform="matrix(30 0 0 30 233.063 56.582)"/><circle r=".06" style="fill:#222;stroke:rgba(255,255,255,.2);stroke-width:.02" transform="matrix(30 0 0 30 147.99 79.377)"/><circle r=".06" style="fill:#222;stroke:rgba(255,255,255,.2);stroke-width:.02" transform="matrix(30 0 0 30 210.268 96.064)"/><circle r=".06" style="fill:#222;stroke:rgba(255,255,255,.2);stroke-width:.02" transform="matrix(30 0 0 30 170.785 118.86)"/><text xml:space="preserve" dominant-baseline="alphabetic" font-family="Helvetica, Arial, sans-serif" font-size="25" lengthAdjust="spacingAndGlyphs" style="fill:rgba(255,255,255,.8)" text-rendering="geometricPrecision" textLength="13.904" transform="translate(203.795 51.335)scale(.93103)">2</text><text xml:space="preserve" dominant-baseline="alphabetic" font-family="Helvetica, Arial, sans-serif" font-size="25" lengthAdjust="spacingAndGlyphs" style="fill:rgba(255,255,255,.8)" text-rendering="geometricPrecision" textLength="13.904" transform="translate(172.657 95.635)scale(.93103)">3</text><path d="M-.76 0 0-1.316.76 0zm-1.316.76L-.76 0 0 1.316l-1.316.76z" style="fill:#000" transform="matrix(30 0 0 30 79.377 182.542)"/><path d="M-.76 0 0-1.316.76 0z" style="fill:#214068" transform="matrix(30 0 0 30 79.377 182.542)"/><path d="M-.76 0 0-1.316l-.709.468z" style="fill:#09294c" transform="matrix(30 0 0 30 79.377 182.542)"/><path d="M-.76 0 0-1.316m0 0L.76 0M-.76 0H.76M-.76 0l-1.316.76M-.76 0 0 1.316m0 0-1.316.76M-2.076.76l.76 1.316" style="fill:none;stroke:rgba(255,255,255,.2);stroke-width:.01" transform="matrix(30 0 0 30 79.377 182.542)"/><circle r=".06" style="fill:#222;stroke:rgba(255,255,255,.2);stroke-width:.02" transform="matrix(30 0 0 30 56.582 182.542)"/><circle r=".06" style="fill:#222;stroke:rgba(255,255,255,.2);stroke-width:.02" transform="matrix(30 0 0 30 79.377 143.06)"/><circle r=".06" style="fill:#222;stroke:rgba(255,255,255,.2);stroke-width:.02" transform="matrix(30 0 0 30 102.172 182.542)"/><circle r=".06" style="fill:#222;stroke:rgba(255,255,255,.2);stroke-width:.02" transform="matrix(30 0 0 30 17.1 205.337)"/><circle r=".06" style="fill:#222;stroke:rgba(255,255,255,.2);stroke-width:.02" transform="matrix(30 0 0 30 79.377 222.024)"/><circle r=".06" style="fill:#222;stroke:rgba(255,255,255,.2);stroke-width:.02" transform="matrix(30 0 0 30 39.895 244.819)"/><text xml:space="preserve" dominant-baseline="alphabetic" font-family="Helvetica, Arial, sans-serif" font-size="25" lengthAdjust="spacingAndGlyphs" style="fill:rgba(255,255,255,.2)" text-rendering="geometricPrecision" textLength="13.904" transform="translate(72.905 177.295)scale(.93103)">?</text><text xml:space="preserve" dominant-baseline="alphabetic" font-family="Helvetica, Arial, sans-serif" font-size="25" lengthAdjust="spacingAndGlyphs" style="fill:rgba(255,255,255,.8)" text-rendering="geometricPrecision" textLength="13.904" transform="translate(41.766 221.594)scale(.93103)">3</text><path d="M0 .5h13v3L20 0l-7-3.5v3H0z" style="fill:#ccc;stroke:#ccc" transform="translate(114.772 193.94)"/><path d="M-.76 0 0-1.316.76 0zm-1.316.76L-.76 0 0 1.316l-1.316.76z" style="fill:#000" transform="matrix(30 0 0 30 210.268 182.542)"/><path d="M-.76 0 0-1.316l-.709.468z" style="fill:#214068" transform="matrix(30 0 0 30 210.268 182.542)"/><path d="m-.76 0-1.316.76.548-.57z" style="fill:#224935" transform="matrix(30 0 0 30 210.268 182.542)"/><path d="m0 1.316-1.316.76.768-.19zM-2.076.76l.76 1.316-.57-.548z" style="fill:#662a2c" transform="matrix(30 0 0 30 210.268 182.542)"/><path d="M-.76 0H.76L0 .22zm0 0L0-1.316.76 0z" style="fill:#09294c" transform="matrix(30 0 0 30 210.268 182.542)"/><path d="M-.76 0 0 1.316-.19.548z" style="fill:#0d301f" transform="matrix(30 0 0 30 210.268 182.542)"/><path d="M-2.076.76-.76 0 0 1.316l-1.316.76z" style="fill:#4b1016" transform="matrix(30 0 0 30 210.268 182.542)"/><path d="M-.76 0 0-1.316m0 0L.76 0M-.76 0H.76M-.76 0l-1.316.76M-.76 0 0 1.316m0 0-1.316.76M-2.076.76l.76 1.316" style="fill:none;stroke:rgba(255,255,255,.2);stroke-width:.01" transform="matrix(30 0 0 30 210.268 182.542)"/><circle r=".06" style="fill:#222;stroke:rgba(255,255,255,.2);stroke-width:.02" transform="matrix(30 0 0 30 187.473 182.542)"/><circle r=".06" style="fill:#222;stroke:rgba(255,255,255,.2);stroke-width:.02" transform="matrix(30 0 0 30 210.268 143.06)"/><circle r=".06" style="fill:#222;stroke:rgba(255,255,255,.2);stroke-width:.02" transform="matrix(30 0 0 30 233.063 182.542)"/><circle r=".06" style="fill:#222;stroke:rgba(255,255,255,.2);stroke-width:.02" transform="matrix(30 0 0 30 147.99 205.337)"/><circle r=".06" style="fill:#222;stroke:rgba(255,255,255,.2);stroke-width:.02" transform="matrix(30 0 0 30 210.268 222.024)"/><circle r=".06" style="fill:#222;stroke:rgba(255,255,255,.2);stroke-width:.02" transform="matrix(30 0 0 30 170.785 244.819)"/><text xml:space="preserve" dominant-baseline="alphabetic" font-family="Helvetica, Arial, sans-serif" font-size="25" lengthAdjust="spacingAndGlyphs" style="fill:rgba(255,255,255,.2)" text-rendering="geometricPrecision" textLength="13.904" transform="translate(203.795 177.295)scale(.93103)">?</text><text xml:space="preserve" dominant-baseline="alphabetic" font-family="Helvetica, Arial, sans-serif" font-size="25" lengthAdjust="spacingAndGlyphs" style="fill:rgba(255,255,255,.8)" text-rendering="geometricPrecision" textLength="13.904" transform="translate(172.657 221.594)scale(.93103)">3</text><path d="M-.76 0 0-1.316.76 0zm-1.316.76L-.76 0 0 1.316l-1.316.76z" style="fill:#000" transform="matrix(30 0 0 30 79.377 308.501)"/><path d="M-.76 0 0-1.316l-.709.468zm0 0H.76L0 .22z" style="fill:#214068" transform="matrix(30 0 0 30 79.377 308.501)"/><path d="M-.76 0 0-1.316m0 0L.76 0M-.76 0H.76M-.76 0l-1.316.76M-.76 0 0 1.316m0 0-1.316.76M-2.076.76l.76 1.316" style="fill:none;stroke:rgba(255,255,255,.2);stroke-width:.01" transform="matrix(30 0 0 30 79.377 308.501)"/><circle r=".06" style="fill:#222;stroke:rgba(255,255,255,.2);stroke-width:.02" transform="matrix(30 0 0 30 56.582 308.501)"/><circle r=".06" style="fill:#222;stroke:rgba(255,255,255,.2);stroke-width:.02" transform="matrix(30 0 0 30 79.377 269.019)"/><circle r=".06" style="fill:#222;stroke:rgba(255,255,255,.2);stroke-width:.02" transform="matrix(30 0 0 30 102.172 308.501)"/><circle r=".06" style="fill:#222;stroke:rgba(255,255,255,.2);stroke-width:.02" transform="matrix(30 0 0 30 17.1 331.296)"/><circle r=".06" style="fill:#222;stroke:rgba(255,255,255,.2);stroke-width:.02" transform="matrix(30 0 0 30 79.377 347.983)"/><circle r=".06" style="fill:#222;stroke:rgba(255,255,255,.2);stroke-width:.02" transform="matrix(30 0 0 30 39.895 370.779)"/><text xml:space="preserve" dominant-baseline="alphabetic" font-family="Helvetica, Arial, sans-serif" font-size="25" lengthAdjust="spacingAndGlyphs" style="fill:rgba(255,255,255,.2)" text-rendering="geometricPrecision" textLength="13.904" transform="translate(72.905 303.254)scale(.93103)">?</text><text xml:space="preserve" dominant-baseline="alphabetic" font-family="Helvetica, Arial, sans-serif" font-size="25" lengthAdjust="spacingAndGlyphs" style="fill:rgba(255,255,255,.8)" text-rendering="geometricPrecision" textLength="13.904" transform="translate(41.766 347.554)scale(.93103)">3</text><path d="M0 .5h13v3L20 0l-7-3.5v3H0z" style="fill:#ccc;stroke:#ccc" transform="translate(114.772 319.899)"/><path d="M-.76 0 0-1.316.76 0zm-1.316.76L-.76 0 0 1.316l-1.316.76z" style="fill:#000" transform="matrix(30 0 0 30 210.268 308.501)"/><path d="M-.76 0 0-1.316l-.709.468zm0 0H.76L0 .22zm0 0L0-1.316.76 0z" style="fill:#214068" transform="matrix(30 0 0 30 210.268 308.501)"/><path d="M-.76 0 0-1.316m0 0L.76 0M-.76 0H.76M-.76 0l-1.316.76M-.76 0 0 1.316m0 0-1.316.76M-2.076.76l.76 1.316" style="fill:none;stroke:rgba(255,255,255,.2);stroke-width:.01" transform="matrix(30 0 0 30 210.268 308.501)"/><circle r=".06" style="fill:#222;stroke:rgba(255,255,255,.2);stroke-width:.02" transform="matrix(30 0 0 30 187.473 308.501)"/><circle r=".06" style="fill:#222;stroke:rgba(255,255,255,.2);stroke-width:.02" transform="matrix(30 0 0 30 210.268 269.019)"/><circle r=".06" style="fill:#222;stroke:rgba(255,255,255,.2);stroke-width:.02" transform="matrix(30 0 0 30 233.063 308.501)"/><circle r=".06" style="fill:#222;stroke:rgba(255,255,255,.2);stroke-width:.02" transform="matrix(30 0 0 30 147.99 331.296)"/><circle r=".06" style="fill:#222;stroke:rgba(255,255,255,.2);stroke-width:.02" transform="matrix(30 0 0 30 210.268 347.983)"/><circle r=".06" style="fill:#222;stroke:rgba(255,255,255,.2);stroke-width:.02" transform="matrix(30 0 0 30 170.785 370.779)"/><text xml:space="preserve" dominant-baseline="alphabetic" font-family="Helvetica, Arial, sans-serif" font-size="25" lengthAdjust="spacingAndGlyphs" style="fill:rgba(255,255,255,.2)" text-rendering="geometricPrecision" textLength="13.904" transform="translate(203.795 303.254)scale(.93103)">?</text><text xml:space="preserve" dominant-baseline="alphabetic" font-family="Helvetica, Arial, sans-serif" font-size="25" lengthAdjust="spacingAndGlyphs" style="fill:rgba(255,255,255,.8)" text-rendering="geometricPrecision" textLength="13.904" transform="translate(172.657 347.554)scale(.93103)">3</text><path d="M-.76 0 0-1.316.76 0zm-1.316.76L-.76 0 0 1.316l-1.316.76z" style="fill:#000" transform="matrix(30 0 0 30 79.377 434.46)"/><path d="M-.76 0 0-1.316l-.709.468z" style="fill:#214068" transform="matrix(30 0 0 30 79.377 434.46)"/><path d="M-.76 0H.76L0 .22z" style="fill:#09294c" transform="matrix(30 0 0 30 79.377 434.46)"/><path d="M-.76 0 0-1.316m0 0L.76 0M-.76 0H.76M-.76 0l-1.316.76M-.76 0 0 1.316m0 0-1.316.76M-2.076.76l.76 1.316" style="fill:none;stroke:rgba(255,255,255,.2);stroke-width:.01" transform="matrix(30 0 0 30 79.377 434.46)"/><circle r=".06" style="fill:#222;stroke:rgba(255,255,255,.2);stroke-width:.02" transform="matrix(30 0 0 30 56.582 434.46)"/><circle r=".06" style="fill:#222;stroke:rgba(255,255,255,.2);stroke-width:.02" transform="matrix(30 0 0 30 79.377 394.979)"/><circle r=".06" style="fill:#222;stroke:rgba(255,255,255,.2);stroke-width:.02" transform="matrix(30 0 0 30 102.172 434.46)"/><circle r=".06" style="fill:#222;stroke:rgba(255,255,255,.2);stroke-width:.02" transform="matrix(30 0 0 30 17.1 457.256)"/><circle r=".06" style="fill:#222;stroke:rgba(255,255,255,.2);stroke-width:.02" transform="matrix(30 0 0 30 79.377 473.943)"/><circle r=".06" style="fill:#222;stroke:rgba(255,255,255,.2);stroke-width:.02" transform="matrix(30 0 0 30 39.895 496.738)"/><text xml:space="preserve" dominant-baseline="alphabetic" font-family="Helvetica, Arial, sans-serif" font-size="25" lengthAdjust="spacingAndGlyphs" style="fill:rgba(255,255,255,.2)" text-rendering="geometricPrecision" textLength="13.904" transform="translate(72.905 429.214)scale(.93103)">?</text><text xml:space="preserve" dominant-baseline="alphabetic" font-family="Helvetica, Arial, sans-serif" font-size="25" lengthAdjust="spacingAndGlyphs" style="fill:rgba(255,255,255,.8)" text-rendering="geometricPrecision" textLength="13.904" transform="translate(41.766 473.513)scale(.93103)">3</text><path d="M0 .5h13v3L20 0l-7-3.5v3H0z" style="fill:#ccc;stroke:#ccc" transform="translate(114.772 445.858)"/><path d="M-.76 0 0-1.316.76 0zm-1.316.76L-.76 0 0 1.316l-1.316.76z" style="fill:#000" transform="matrix(30 0 0 30 210.268 434.46)"/><path d="M-.76 0 0-1.316l-.709.468z" style="fill:#214068" transform="matrix(30 0 0 30 210.268 434.46)"/><path d="m-.76 0-1.316.76.548-.57z" style="fill:#224935" transform="matrix(30 0 0 30 210.268 434.46)"/><path d="m0 1.316-1.316.76.768-.19zM-2.076.76l.76 1.316-.57-.548z" style="fill:#662a2c" transform="matrix(30 0 0 30 210.268 434.46)"/><path d="M-.76 0H.76L0 .22z" style="fill:#09294c" transform="matrix(30 0 0 30 210.268 434.46)"/><path d="M-.76 0 0 1.316-.19.548z" style="fill:#0d301f" transform="matrix(30 0 0 30 210.268 434.46)"/><path d="M-2.076.76-.76 0 0 1.316l-1.316.76z" style="fill:#4b1016" transform="matrix(30 0 0 30 210.268 434.46)"/><path d="M-.76 0 0-1.316m0 0L.76 0M-.76 0H.76M-.76 0l-1.316.76M-.76 0 0 1.316m0 0-1.316.76M-2.076.76l.76 1.316" style="fill:none;stroke:rgba(255,255,255,.2);stroke-width:.01" transform="matrix(30 0 0 30 210.268 434.46)"/><circle r=".06" style="fill:#222;stroke:rgba(255,255,255,.2);stroke-width:.02" transform="matrix(30 0 0 30 187.473 434.46)"/><circle r=".06" style="fill:#222;stroke:rgba(255,255,255,.2);stroke-width:.02" transform="matrix(30 0 0 30 210.268 394.979)"/><circle r=".06" style="fill:#222;stroke:rgba(255,255,255,.2);stroke-width:.02" transform="matrix(30 0 0 30 233.063 434.46)"/><circle r=".06" style="fill:#222;stroke:rgba(255,255,255,.2);stroke-width:.02" transform="matrix(30 0 0 30 147.99 457.256)"/><circle r=".06" style="fill:#222;stroke:rgba(255,255,255,.2);stroke-width:.02" transform="matrix(30 0 0 30 210.268 473.943)"/><circle r=".06" style="fill:#222;stroke:rgba(255,255,255,.2);stroke-width:.02" transform="matrix(30 0 0 30 170.785 496.738)"/><text xml:space="preserve" dominant-baseline="alphabetic" font-family="Helvetica, Arial, sans-serif" font-size="25" lengthAdjust="spacingAndGlyphs" style="fill:rgba(255,255,255,.2)" text-rendering="geometricPrecision" textLength="13.904" transform="translate(203.795 429.214)scale(.93103)">?</text><text xml:space="preserve" dominant-baseline="alphabetic" font-family="Helvetica, Arial, sans-serif" font-size="25" lengthAdjust="spacingAndGlyphs" style="fill:rgba(255,255,255,.8)" text-rendering="geometricPrecision" textLength="13.904" transform="translate(172.657 473.513)scale(.93103)">3</text><path d="M-.76 0 0-1.316.76 0zm-1.316.76L-.76 0 0 1.316l-1.316.76z" style="fill:#000" transform="matrix(30 0 0 30 79.377 560.42)"/><path d="M-2.076.76-.76 0 0 1.316l-1.316.76z" style="fill:#214068" transform="matrix(30 0 0 30 79.377 560.42)"/><path d="m-.76 0-1.316.76.548-.57z" style="fill:#09294c" transform="matrix(30 0 0 30 79.377 560.42)"/><path d="M-.76 0 0-1.316m0 0L.76 0M-.76 0H.76M-.76 0l-1.316.76M-.76 0 0 1.316m0 0-1.316.76M-2.076.76l.76 1.316" style="fill:none;stroke:rgba(255,255,255,.2);stroke-width:.01" transform="matrix(30 0 0 30 79.377 560.42)"/><circle r=".06" style="fill:#222;stroke:rgba(255,255,255,.2);stroke-width:.02" transform="matrix(30 0 0 30 56.582 560.42)"/><circle r=".06" style="fill:#222;stroke:rgba(255,255,255,.2);stroke-width:.02" transform="matrix(30 0 0 30 79.377 520.938)"/><circle r=".06" style="fill:#222;stroke:rgba(255,255,255,.2);stroke-width:.02" transform="matrix(30 0 0 30 102.172 560.42)"/><circle r=".06" style="fill:#222;stroke:rgba(255,255,255,.2);stroke-width:.02" transform="matrix(30 0 0 30 17.1 583.215)"/><circle r=".06" style="fill:#222;stroke:rgba(255,255,255,.2);stroke-width:.02" transform="matrix(30 0 0 30 79.377 599.902)"/><circle r=".06" style="fill:#222;stroke:rgba(255,255,255,.2);stroke-width:.02" transform="matrix(30 0 0 30 39.895 622.698)"/><text xml:space="preserve" dominant-baseline="alphabetic" font-family="Helvetica, Arial, sans-serif" font-size="25" lengthAdjust="spacingAndGlyphs" style="fill:rgba(255,255,255,.8)" text-rendering="geometricPrecision" textLength="13.904" transform="translate(72.905 555.173)scale(.93103)">2</text><text xml:space="preserve" dominant-baseline="alphabetic" font-family="Helvetica, Arial, sans-serif" font-size="25" lengthAdjust="spacingAndGlyphs" style="fill:rgba(255,255,255,.2)" text-rendering="geometricPrecision" textLength="13.904" transform="translate(41.766 599.473)scale(.93103)">?</text><path d="M0 .5h13v3L20 0l-7-3.5v3H0z" style="fill:#ccc;stroke:#ccc" transform="translate(114.772 571.818)"/><path d="M-.76 0 0-1.316.76 0zm-1.316.76L-.76 0 0 1.316l-1.316.76z" style="fill:#000" transform="matrix(30 0 0 30 210.268 560.42)"/><path d="M-.76 0 0-1.316.76 0z" style="fill:#214068" transform="matrix(30 0 0 30 210.268 560.42)"/><path d="M-.76 0 0-1.316l-.709.468z" style="fill:#224935" transform="matrix(30 0 0 30 210.268 560.42)"/><path d="m-.76 0-1.316.76.548-.57z" style="fill:#662a2c" transform="matrix(30 0 0 30 210.268 560.42)"/><path d="M0-1.316.76 0 .709-.848z" style="fill:#09294c" transform="matrix(30 0 0 30 210.268 560.42)"/><path d="M-.76 0H.76L0 .22z" style="fill:#0d301f" transform="matrix(30 0 0 30 210.268 560.42)"/><path d="M-.76 0 0 1.316-.19.548zm-1.316.76L-.76 0 0 1.316l-1.316.76z" style="fill:#4b1016" transform="matrix(30 0 0 30 210.268 560.42)"/><path d="M-.76 0 0-1.316m0 0L.76 0M-.76 0H.76M-.76 0l-1.316.76M-.76 0 0 1.316m0 0-1.316.76M-2.076.76l.76 1.316" style="fill:none;stroke:rgba(255,255,255,.2);stroke-width:.01" transform="matrix(30 0 0 30 210.268 560.42)"/><circle r=".06" style="fill:#222;stroke:rgba(255,255,255,.2);stroke-width:.02" transform="matrix(30 0 0 30 187.473 560.42)"/><circle r=".06" style="fill:#222;stroke:rgba(255,255,255,.2);stroke-width:.02" transform="matrix(30 0 0 30 210.268 520.938)"/><circle r=".06" style="fill:#222;stroke:rgba(255,255,255,.2);stroke-width:.02" transform="matrix(30 0 0 30 233.063 560.42)"/><circle r=".06" style="fill:#222;stroke:rgba(255,255,255,.2);stroke-width:.02" transform="matrix(30 0 0 30 147.99 583.215)"/><circle r=".06" style="fill:#222;stroke:rgba(255,255,255,.2);stroke-width:.02" transform="matrix(30 0 0 30 210.268 599.902)"/><circle r=".06" style="fill:#222;stroke:rgba(255,255,255,.2);stroke-width:.02" transform="matrix(30 0 0 30 170.785 622.698)"/><text xml:space="preserve" dominant-baseline="alphabetic" font-family="Helvetica, Arial, sans-serif" font-size="25" lengthAdjust="spacingAndGlyphs" style="fill:rgba(255,255,255,.8)" text-rendering="geometricPrecision" textLength="13.904" transform="translate(203.795 555.173)scale(.93103)">2</text><text xml:space="preserve" dominant-baseline="alphabetic" font-family="Helvetica, Arial, sans-serif" font-size="25" lengthAdjust="spacingAndGlyphs" style="fill:rgba(255,255,255,.2)" text-rendering="geometricPrecision" textLength="13.904" transform="translate(172.657 599.473)scale(.93103)">?</text><path d="M-.76 0 0-1.316.76 0zm-1.316.76L-.76 0 0 1.316l-1.316.76z" style="fill:#000" transform="matrix(30 0 0 30 79.377 686.38)"/><path d="m-.76 0-1.316.76.548-.57zm0 0L0 1.316-.19.548z" style="fill:#214068" transform="matrix(30 0 0 30 79.377 686.38)"/><path d="M-.76 0 0-1.316m0 0L.76 0M-.76 0H.76M-.76 0l-1.316.76M-.76 0 0 1.316m0 0-1.316.76M-2.076.76l.76 1.316" style="fill:none;stroke:rgba(255,255,255,.2);stroke-width:.01" transform="matrix(30 0 0 30 79.377 686.38)"/><circle r=".06" style="fill:#222;stroke:rgba(255,255,255,.2);stroke-width:.02" transform="matrix(30 0 0 30 56.582 686.38)"/><circle r=".06" style="fill:#222;stroke:rgba(255,255,255,.2);stroke-width:.02" transform="matrix(30 0 0 30 79.377 646.898)"/><circle r=".06" style="fill:#222;stroke:rgba(255,255,255,.2);stroke-width:.02" transform="matrix(30 0 0 30 102.172 686.38)"/><circle r=".06" style="fill:#222;stroke:rgba(255,255,255,.2);stroke-width:.02" transform="matrix(30 0 0 30 17.1 709.175)"/><circle r=".06" style="fill:#222;stroke:rgba(255,255,255,.2);stroke-width:.02" transform="matrix(30 0 0 30 79.377 725.862)"/><circle r=".06" style="fill:#222;stroke:rgba(255,255,255,.2);stroke-width:.02" transform="matrix(30 0 0 30 39.895 748.657)"/><text xml:space="preserve" dominant-baseline="alphabetic" font-family="Helvetica, Arial, sans-serif" font-size="25" lengthAdjust="spacingAndGlyphs" style="fill:rgba(255,255,255,.8)" text-rendering="geometricPrecision" textLength="13.904" transform="translate(72.905 681.133)scale(.93103)">2</text><text xml:space="preserve" dominant-baseline="alphabetic" font-family="Helvetica, Arial, sans-serif" font-size="25" lengthAdjust="spacingAndGlyphs" style="fill:rgba(255,255,255,.2)" text-rendering="geometricPrecision" textLength="13.904" transform="translate(41.766 725.432)scale(.93103)">?</text><path d="M0 .5h13v3L20 0l-7-3.5v3H0z" style="fill:#ccc;stroke:#ccc" transform="translate(114.772 697.777)"/><path d="M-.76 0 0-1.316.76 0zm-1.316.76L-.76 0 0 1.316l-1.316.76z" style="fill:#000" transform="matrix(30 0 0 30 210.268 686.38)"/><path d="m-.76 0-1.316.76.548-.57zm0 0L0 1.316-.19.548zm-1.316.76L-.76 0 0 1.316l-1.316.76z" style="fill:#214068" transform="matrix(30 0 0 30 210.268 686.38)"/><path d="M-.76 0 0-1.316m0 0L.76 0M-.76 0H.76M-.76 0l-1.316.76M-.76 0 0 1.316m0 0-1.316.76M-2.076.76l.76 1.316" style="fill:none;stroke:rgba(255,255,255,.2);stroke-width:.01" transform="matrix(30 0 0 30 210.268 686.38)"/><circle r=".06" style="fill:#222;stroke:rgba(255,255,255,.2);stroke-width:.02" transform="matrix(30 0 0 30 187.473 686.38)"/><circle r=".06" style="fill:#222;stroke:rgba(255,255,255,.2);stroke-width:.02" transform="matrix(30 0 0 30 210.268 646.898)"/><circle r=".06" style="fill:#222;stroke:rgba(255,255,255,.2);stroke-width:.02" transform="matrix(30 0 0 30 233.063 686.38)"/><circle r=".06" style="fill:#222;stroke:rgba(255,255,255,.2);stroke-width:.02" transform="matrix(30 0 0 30 147.99 709.175)"/><circle r=".06" style="fill:#222;stroke:rgba(255,255,255,.2);stroke-width:.02" transform="matrix(30 0 0 30 210.268 725.862)"/><circle r=".06" style="fill:#222;stroke:rgba(255,255,255,.2);stroke-width:.02" transform="matrix(30 0 0 30 170.785 748.657)"/><text xml:space="preserve" dominant-baseline="alphabetic" font-family="Helvetica, Arial, sans-serif" font-size="25" lengthAdjust="spacingAndGlyphs" style="fill:rgba(255,255,255,.8)" text-rendering="geometricPrecision" textLength="13.904" transform="translate(203.795 681.133)scale(.93103)">2</text><text xml:space="preserve" dominant-baseline="alphabetic" font-family="Helvetica, Arial, sans-serif" font-size="25" lengthAdjust="spacingAndGlyphs" style="fill:rgba(255,255,255,.2)" text-rendering="geometricPrecision" textLength="13.904" transform="translate(172.657 725.432)scale(.93103)">?</text><path d="M-.76 0 0-1.316.76 0zm-1.316.76L-.76 0 0 1.316l-1.316.76z" style="fill:#000" transform="matrix(30 0 0 30 79.377 812.34)"/><path d="m-.76 0-1.316.76.548-.57z" style="fill:#214068" transform="matrix(30 0 0 30 79.377 812.34)"/><path d="M-.76 0 0 1.316-.19.548z" style="fill:#09294c" transform="matrix(30 0 0 30 79.377 812.34)"/><path d="M-.76 0 0-1.316m0 0L.76 0M-.76 0H.76M-.76 0l-1.316.76M-.76 0 0 1.316m0 0-1.316.76M-2.076.76l.76 1.316" style="fill:none;stroke:rgba(255,255,255,.2);stroke-width:.01" transform="matrix(30 0 0 30 79.377 812.34)"/><circle r=".06" style="fill:#222;stroke:rgba(255,255,255,.2);stroke-width:.02" transform="matrix(30 0 0 30 56.582 812.34)"/><circle r=".06" style="fill:#222;stroke:rgba(255,255,255,.2);stroke-width:.02" transform="matrix(30 0 0 30 79.377 772.857)"/><circle r=".06" style="fill:#222;stroke:rgba(255,255,255,.2);stroke-width:.02" transform="matrix(30 0 0 30 102.172 812.34)"/><circle r=".06" style="fill:#222;stroke:rgba(255,255,255,.2);stroke-width:.02" transform="matrix(30 0 0 30 17.1 835.134)"/><circle r=".06" style="fill:#222;stroke:rgba(255,255,255,.2);stroke-width:.02" transform="matrix(30 0 0 30 79.377 851.822)"/><circle r=".06" style="fill:#222;stroke:rgba(255,255,255,.2);stroke-width:.02" transform="matrix(30 0 0 30 39.895 874.617)"/><text xml:space="preserve" dominant-baseline="alphabetic" font-family="Helvetica, Arial, sans-serif" font-size="25" lengthAdjust="spacingAndGlyphs" style="fill:rgba(255,255,255,.8)" text-rendering="geometricPrecision" textLength="13.904" transform="translate(72.905 807.092)scale(.93103)">2</text><text xml:space="preserve" dominant-baseline="alphabetic" font-family="Helvetica, Arial, sans-serif" font-size="25" lengthAdjust="spacingAndGlyphs" style="fill:rgba(255,255,255,.2)" text-rendering="geometricPrecision" textLength="13.904" transform="translate(41.766 851.392)scale(.93103)">?</text><path d="M0 .5h13v3L20 0l-7-3.5v3H0z" style="fill:#ccc;stroke:#ccc" transform="translate(114.772 823.737)"/><path d="M-.76 0 0-1.316.76 0zm-1.316.76L-.76 0 0 1.316l-1.316.76z" style="fill:#000" transform="matrix(30 0 0 30 210.268 812.34)"/><path d="M-.76 0 0-1.316.76 0z" style="fill:#214068" transform="matrix(30 0 0 30 210.268 812.34)"/><path d="M-.76 0 0-1.316l-.709.468z" style="fill:#224935" transform="matrix(30 0 0 30 210.268 812.34)"/><path d="m-.76 0-1.316.76.548-.57z" style="fill:#662a2c" transform="matrix(30 0 0 30 210.268 812.34)"/><path d="M0-1.316.76 0 .709-.848z" style="fill:#09294c" transform="matrix(30 0 0 30 210.268 812.34)"/><path d="M-.76 0H.76L0 .22z" style="fill:#0d301f" transform="matrix(30 0 0 30 210.268 812.34)"/><path d="M-.76 0 0 1.316-.19.548z" style="fill:#4b1016" transform="matrix(30 0 0 30 210.268 812.34)"/><path d="M-.76 0 0-1.316m0 0L.76 0M-.76 0H.76M-.76 0l-1.316.76M-.76 0 0 1.316m0 0-1.316.76M-2.076.76l.76 1.316" style="fill:none;stroke:rgba(255,255,255,.2);stroke-width:.01" transform="matrix(30 0 0 30 210.268 812.34)"/><circle r=".06" style="fill:#222;stroke:rgba(255,255,255,.2);stroke-width:.02" transform="matrix(30 0 0 30 187.473 812.34)"/><circle r=".06" style="fill:#222;stroke:rgba(255,255,255,.2);stroke-width:.02" transform="matrix(30 0 0 30 210.268 772.857)"/><circle r=".06" style="fill:#222;stroke:rgba(255,255,255,.2);stroke-width:.02" transform="matrix(30 0 0 30 233.063 812.34)"/><circle r=".06" style="fill:#222;stroke:rgba(255,255,255,.2);stroke-width:.02" transform="matrix(30 0 0 30 147.99 835.134)"/><circle r=".06" style="fill:#222;stroke:rgba(255,255,255,.2);stroke-width:.02" transform="matrix(30 0 0 30 210.268 851.822)"/><circle r=".06" style="fill:#222;stroke:rgba(255,255,255,.2);stroke-width:.02" transform="matrix(30 0 0 30 170.785 874.617)"/><text xml:space="preserve" dominant-baseline="alphabetic" font-family="Helvetica, Arial, sans-serif" font-size="25" lengthAdjust="spacingAndGlyphs" style="fill:rgba(255,255,255,.8)" text-rendering="geometricPrecision" textLength="13.904" transform="translate(203.795 807.092)scale(.93103)">2</text><text xml:space="preserve" dominant-baseline="alphabetic" font-family="Helvetica, Arial, sans-serif" font-size="25" lengthAdjust="spacingAndGlyphs" style="fill:rgba(255,255,255,.2)" text-rendering="geometricPrecision" textLength="13.904" transform="translate(172.657 851.392)scale(.93103)">?</text><path d="M-.76 0 0-1.316.76 0zm-1.316.76L-.76 0 0 1.316l-1.316.76z" style="fill:#000" transform="matrix(30 0 0 30 79.377 938.299)"/><path d="M-2.076.76-.76 0 0 1.316l-1.316.76zM0 1.316l-1.316.76.768-.19z" style="fill:#214068" transform="matrix(30 0 0 30 79.377 938.299)"/><path d="M-.76 0 0-1.316m0 0L.76 0M-.76 0H.76M-.76 0l-1.316.76M-.76 0 0 1.316m0 0-1.316.76M-2.076.76l.76 1.316" style="fill:none;stroke:rgba(255,255,255,.2);stroke-width:.01" transform="matrix(30 0 0 30 79.377 938.299)"/><circle r=".06" style="fill:#222;stroke:rgba(255,255,255,.2);stroke-width:.02" transform="matrix(30 0 0 30 56.582 938.299)"/><circle r=".06" style="fill:#222;stroke:rgba(255,255,255,.2);stroke-width:.02" transform="matrix(30 0 0 30 79.377 898.817)"/><circle r=".06" style="fill:#222;stroke:rgba(255,255,255,.2);stroke-width:.02" transform="matrix(30 0 0 30 102.172 938.299)"/><circle r=".06" style="fill:#222;stroke:rgba(255,255,255,.2);stroke-width:.02" transform="matrix(30 0 0 30 17.1 961.094)"/><circle r=".06" style="fill:#222;stroke:rgba(255,255,255,.2);stroke-width:.02" transform="matrix(30 0 0 30 79.377 977.781)"/><circle r=".06" style="fill:#222;stroke:rgba(255,255,255,.2);stroke-width:.02" transform="matrix(30 0 0 30 39.895 1000.576)"/><text xml:space="preserve" dominant-baseline="alphabetic" font-family="Helvetica, Arial, sans-serif" font-size="25" lengthAdjust="spacingAndGlyphs" style="fill:rgba(255,255,255,.8)" text-rendering="geometricPrecision" textLength="13.904" transform="translate(72.905 933.052)scale(.93103)">2</text><text xml:space="preserve" dominant-baseline="alphabetic" font-family="Helvetica, Arial, sans-serif" font-size="25" lengthAdjust="spacingAndGlyphs" style="fill:rgba(255,255,255,.8)" text-rendering="geometricPrecision" textLength="13.904" transform="translate(41.766 977.351)scale(.93103)">2</text><path d="M0 .5h13v3L20 0l-7-3.5v3H0z" style="fill:#ccc;stroke:#ccc" transform="translate(114.772 949.696)"/><path d="M-.76 0 0-1.316.76 0zm-1.316.76L-.76 0 0 1.316l-1.316.76z" style="fill:#000" transform="matrix(30 0 0 30 210.268 938.299)"/><path d="M-.76 0 0-1.316.76 0z" style="fill:#214068" transform="matrix(30 0 0 30 210.268 938.299)"/><path d="M-.76 0 0-1.316l-.709.468z" style="fill:#224935" transform="matrix(30 0 0 30 210.268 938.299)"/><path d="m-.76 0-1.316.76.548-.57z" style="fill:#662a2c" transform="matrix(30 0 0 30 210.268 938.299)"/><path d="m0 1.316-1.316.76.768-.19zM-2.076.76-.76 0 0 1.316l-1.316.76z" style="fill:#483f1a" transform="matrix(30 0 0 30 210.268 938.299)"/><path d="M0-1.316.76 0 .709-.848z" style="fill:#09294c" transform="matrix(30 0 0 30 210.268 938.299)"/><path d="M-.76 0H.76L0 .22z" style="fill:#0d301f" transform="matrix(30 0 0 30 210.268 938.299)"/><path d="M-.76 0 0 1.316-.19.548z" style="fill:#4b1016" transform="matrix(30 0 0 30 210.268 938.299)"/><path d="m-2.076.76.76 1.316-.57-.548z" style="fill:#302807" transform="matrix(30 0 0 30 210.268 938.299)"/><path d="M-.76 0 0-1.316m0 0L.76 0M-.76 0H.76M-.76 0l-1.316.76M-.76 0 0 1.316m0 0-1.316.76M-2.076.76l.76 1.316" style="fill:none;stroke:rgba(255,255,255,.2);stroke-width:.01" transform="matrix(30 0 0 30 210.268 938.299)"/><circle r=".06" style="fill:#222;stroke:rgba(255,255,255,.2);stroke-width:.02" transform="matrix(30 0 0 30 187.473 938.299)"/><circle r=".06" style="fill:#222;stroke:rgba(255,255,255,.2);stroke-width:.02" transform="matrix(30 0 0 30 210.268 898.817)"/><circle r=".06" style="fill:#222;stroke:rgba(255,255,255,.2);stroke-width:.02" transform="matrix(30 0 0 30 233.063 938.299)"/><circle r=".06" style="fill:#222;stroke:rgba(255,255,255,.2);stroke-width:.02" transform="matrix(30 0 0 30 147.99 961.094)"/><circle r=".06" style="fill:#222;stroke:rgba(255,255,255,.2);stroke-width:.02" transform="matrix(30 0 0 30 210.268 977.781)"/><circle r=".06" style="fill:#222;stroke:rgba(255,255,255,.2);stroke-width:.02" transform="matrix(30 0 0 30 170.785 1000.576)"/><text xml:space="preserve" dominant-baseline="alphabetic" font-family="Helvetica, Arial, sans-serif" font-size="25" lengthAdjust="spacingAndGlyphs" style="fill:rgba(255,255,255,.8)" text-rendering="geometricPrecision" textLength="13.904" transform="translate(203.795 933.052)scale(.93103)">2</text><text xml:space="preserve" dominant-baseline="alphabetic" font-family="Helvetica, Arial, sans-serif" font-size="25" lengthAdjust="spacingAndGlyphs" style="fill:rgba(255,255,255,.8)" text-rendering="geometricPrecision" textLength="13.904" transform="translate(172.657 977.351)scale(.93103)">2</text><path d="M-.76 0 0-1.316.76 0zm-1.316.76L-.76 0 0 1.316l-1.316.76z" style="fill:#000" transform="matrix(30 0 0 30 79.377 1064.258)"/><path d="M-.76 0 0-1.316.76 0z" style="fill:#214068" transform="matrix(30 0 0 30 79.377 1064.258)"/><path d="M-2.076.76-.76 0 0 1.316l-1.316.76zM0 1.316l-1.316.76.768-.19z" style="fill:#224935" transform="matrix(30 0 0 30 79.377 1064.258)"/><path d="M-.76 0 0-1.316l-.709.468z" style="fill:#09294c" transform="matrix(30 0 0 30 79.377 1064.258)"/><path d="M-.76 0 0-1.316m0 0L.76 0M-.76 0H.76M-.76 0l-1.316.76M-.76 0 0 1.316m0 0-1.316.76M-2.076.76l.76 1.316" style="fill:none;stroke:rgba(255,255,255,.2);stroke-width:.01" transform="matrix(30 0 0 30 79.377 1064.258)"/><circle r=".06" style="fill:#222;stroke:rgba(255,255,255,.2);stroke-width:.02" transform="matrix(30 0 0 30 56.582 1064.258)"/><circle r=".06" style="fill:#222;stroke:rgba(255,255,255,.2);stroke-width:.02" transform="matrix(30 0 0 30 79.377 1024.776)"/><circle r=".06" style="fill:#222;stroke:rgba(255,255,255,.2);stroke-width:.02" transform="matrix(30 0 0 30 102.172 1064.258)"/><circle r=".06" style="fill:#222;stroke:rgba(255,255,255,.2);stroke-width:.02" transform="matrix(30 0 0 30 17.1 1087.053)"/><circle r=".06" style="fill:#222;stroke:rgba(255,255,255,.2);stroke-width:.02" transform="matrix(30 0 0 30 79.377 1103.74)"/><circle r=".06" style="fill:#222;stroke:rgba(255,255,255,.2);stroke-width:.02" transform="matrix(30 0 0 30 39.895 1126.536)"/><text xml:space="preserve" dominant-baseline="alphabetic" font-family="Helvetica, Arial, sans-serif" font-size="25" lengthAdjust="spacingAndGlyphs" style="fill:rgba(255,255,255,.2)" text-rendering="geometricPrecision" textLength="13.904" transform="translate(72.905 1059.011)scale(.93103)">?</text><text xml:space="preserve" dominant-baseline="alphabetic" font-family="Helvetica, Arial, sans-serif" font-size="25" lengthAdjust="spacingAndGlyphs" style="fill:rgba(255,255,255,.8)" text-rendering="geometricPrecision" textLength="13.904" transform="translate(41.766 1103.31)scale(.93103)">2</text><path d="M0 .5h13v3L20 0l-7-3.5v3H0z" style="fill:#ccc;stroke:#ccc" transform="translate(114.772 1075.656)"/><path d="M-.76 0 0-1.316.76 0zm-1.316.76L-.76 0 0 1.316l-1.316.76z" style="fill:#000" transform="matrix(30 0 0 30 210.268 1064.258)"/><path d="M-.76 0 0-1.316l-.709.468z" style="fill:#214068" transform="matrix(30 0 0 30 210.268 1064.258)"/><path d="m-.76 0-1.316.76.548-.57z" style="fill:#224935" transform="matrix(30 0 0 30 210.268 1064.258)"/><path d="m0 1.316-1.316.76.768-.19zM-2.076.76-.76 0 0 1.316l-1.316.76z" style="fill:#662a2c" transform="matrix(30 0 0 30 210.268 1064.258)"/><path d="M-.76 0H.76L0 .22zm0 0L0-1.316.76 0z" style="fill:#09294c" transform="matrix(30 0 0 30 210.268 1064.258)"/><path d="M-.76 0 0 1.316-.19.548z" style="fill:#0d301f" transform="matrix(30 0 0 30 210.268 1064.258)"/><path d="m-2.076.76.76 1.316-.57-.548z" style="fill:#4b1016" transform="matrix(30 0 0 30 210.268 1064.258)"/><path d="M-.76 0 0-1.316m0 0L.76 0M-.76 0H.76M-.76 0l-1.316.76M-.76 0 0 1.316m0 0-1.316.76M-2.076.76l.76 1.316" style="fill:none;stroke:rgba(255,255,255,.2);stroke-width:.01" transform="matrix(30 0 0 30 210.268 1064.258)"/><circle r=".06" style="fill:#222;stroke:rgba(255,255,255,.2);stroke-width:.02" transform="matrix(30 0 0 30 187.473 1064.258)"/><circle r=".06" style="fill:#222;stroke:rgba(255,255,255,.2);stroke-width:.02" transform="matrix(30 0 0 30 210.268 1024.776)"/><circle r=".06" style="fill:#222;stroke:rgba(255,255,255,.2);stroke-width:.02" transform="matrix(30 0 0 30 233.063 1064.258)"/><circle r=".06" style="fill:#222;stroke:rgba(255,255,255,.2);stroke-width:.02" transform="matrix(30 0 0 30 147.99 1087.053)"/><circle r=".06" style="fill:#222;stroke:rgba(255,255,255,.2);stroke-width:.02" transform="matrix(30 0 0 30 210.268 1103.74)"/><circle r=".06" style="fill:#222;stroke:rgba(255,255,255,.2);stroke-width:.02" transform="matrix(30 0 0 30 170.785 1126.536)"/><text xml:space="preserve" dominant-baseline="alphabetic" font-family="Helvetica, Arial, sans-serif" font-size="25" lengthAdjust="spacingAndGlyphs" style="fill:rgba(255,255,255,.2)" text-rendering="geometricPrecision" textLength="13.904" transform="translate(203.795 1059.011)scale(.93103)">?</text><text xml:space="preserve" dominant-baseline="alphabetic" font-family="Helvetica, Arial, sans-serif" font-size="25" lengthAdjust="spacingAndGlyphs" style="fill:rgba(255,255,255,.8)" text-rendering="geometricPrecision" textLength="13.904" transform="translate(172.657 1103.31)scale(.93103)">2</text><path d="M-.76 0 0-1.316.76 0zm-1.316.76L-.76 0 0 1.316l-1.316.76z" style="fill:#000" transform="matrix(30 0 0 30 79.377 1190.218)"/><path d="M-2.076.76-.76 0 0 1.316l-1.316.76zM0 1.316l-1.316.76.768-.19z" style="fill:#214068" transform="matrix(30 0 0 30 79.377 1190.218)"/><path d="M-.76 0 0-1.316l-.709.468zm0 0H.76L0 .22z" style="fill:#224935" transform="matrix(30 0 0 30 79.377 1190.218)"/><path d="M-.76 0 0-1.316m0 0L.76 0M-.76 0H.76M-.76 0l-1.316.76M-.76 0 0 1.316m0 0-1.316.76M-2.076.76l.76 1.316" style="fill:none;stroke:rgba(255,255,255,.2);stroke-width:.01" transform="matrix(30 0 0 30 79.377 1190.218)"/><circle r=".06" style="fill:#222;stroke:rgba(255,255,255,.2);stroke-width:.02" transform="matrix(30 0 0 30 56.582 1190.218)"/><circle r=".06" style="fill:#222;stroke:rgba(255,255,255,.2);stroke-width:.02" transform="matrix(30 0 0 30 79.377 1150.736)"/><circle r=".06" style="fill:#222;stroke:rgba(255,255,255,.2);stroke-width:.02" transform="matrix(30 0 0 30 102.172 1190.218)"/><circle r=".06" style="fill:#222;stroke:rgba(255,255,255,.2);stroke-width:.02" transform="matrix(30 0 0 30 17.1 1213.013)"/><circle r=".06" style="fill:#222;stroke:rgba(255,255,255,.2);stroke-width:.02" transform="matrix(30 0 0 30 79.377 1229.7)"/><circle r=".06" style="fill:#222;stroke:rgba(255,255,255,.2);stroke-width:.02" transform="matrix(30 0 0 30 39.895 1252.495)"/><text xml:space="preserve" dominant-baseline="alphabetic" font-family="Helvetica, Arial, sans-serif" font-size="25" lengthAdjust="spacingAndGlyphs" style="fill:rgba(255,255,255,.2)" text-rendering="geometricPrecision" textLength="13.904" transform="translate(72.905 1184.97)scale(.93103)">?</text><text xml:space="preserve" dominant-baseline="alphabetic" font-family="Helvetica, Arial, sans-serif" font-size="25" lengthAdjust="spacingAndGlyphs" style="fill:rgba(255,255,255,.8)" text-rendering="geometricPrecision" textLength="13.904" transform="translate(41.766 1229.27)scale(.93103)">2</text><path d="M0 .5h13v3L20 0l-7-3.5v3H0z" style="fill:#ccc;stroke:#ccc" transform="translate(114.772 1201.615)"/><path d="M-.76 0 0-1.316.76 0zm-1.316.76L-.76 0 0 1.316l-1.316.76z" style="fill:#000" transform="matrix(30 0 0 30 210.268 1190.218)"/><path d="M-2.076.76-.76 0 0 1.316l-1.316.76zM0 1.316l-1.316.76.768-.19z" style="fill:#214068" transform="matrix(30 0 0 30 210.268 1190.218)"/><path d="M-.76 0 0-1.316l-.709.468zm0 0H.76L0 .22zm0 0L0-1.316.76 0z" style="fill:#224935" transform="matrix(30 0 0 30 210.268 1190.218)"/><path d="M-.76 0 0-1.316m0 0L.76 0M-.76 0H.76M-.76 0l-1.316.76M-.76 0 0 1.316m0 0-1.316.76M-2.076.76l.76 1.316" style="fill:none;stroke:rgba(255,255,255,.2);stroke-width:.01" transform="matrix(30 0 0 30 210.268 1190.218)"/><circle r=".06" style="fill:#222;stroke:rgba(255,255,255,.2);stroke-width:.02" transform="matrix(30 0 0 30 187.473 1190.218)"/><circle r=".06" style="fill:#222;stroke:rgba(255,255,255,.2);stroke-width:.02" transform="matrix(30 0 0 30 210.268 1150.736)"/><circle r=".06" style="fill:#222;stroke:rgba(255,255,255,.2);stroke-width:.02" transform="matrix(30 0 0 30 233.063 1190.218)"/><circle r=".06" style="fill:#222;stroke:rgba(255,255,255,.2);stroke-width:.02" transform="matrix(30 0 0 30 147.99 1213.013)"/><circle r=".06" style="fill:#222;stroke:rgba(255,255,255,.2);stroke-width:.02" transform="matrix(30 0 0 30 210.268 1229.7)"/><circle r=".06" style="fill:#222;stroke:rgba(255,255,255,.2);stroke-width:.02" transform="matrix(30 0 0 30 170.785 1252.495)"/><text xml:space="preserve" dominant-baseline="alphabetic" font-family="Helvetica, Arial, sans-serif" font-size="25" lengthAdjust="spacingAndGlyphs" style="fill:rgba(255,255,255,.2)" text-rendering="geometricPrecision" textLength="13.904" transform="translate(203.795 1184.97)scale(.93103)">?</text><text xml:space="preserve" dominant-baseline="alphabetic" font-family="Helvetica, Arial, sans-serif" font-size="25" lengthAdjust="spacingAndGlyphs" style="fill:rgba(255,255,255,.8)" text-rendering="geometricPrecision" textLength="13.904" transform="translate(172.657 1229.27)scale(.93103)">2</text><path d="M-.76 0 0-1.316.76 0zm-1.316.76L-.76 0 0 1.316l-1.316.76z" style="fill:#000" transform="matrix(30 0 0 30 79.377 1316.177)"/><path d="M-2.076.76-.76 0 0 1.316l-1.316.76zM0 1.316l-1.316.76.768-.19z" style="fill:#214068" transform="matrix(30 0 0 30 79.377 1316.177)"/><path d="M-.76 0 0-1.316l-.709.468z" style="fill:#224935" transform="matrix(30 0 0 30 79.377 1316.177)"/><path d="M-.76 0H.76L0 .22z" style="fill:#0d301f" transform="matrix(30 0 0 30 79.377 1316.177)"/><path d="M-.76 0 0-1.316m0 0L.76 0M-.76 0H.76M-.76 0l-1.316.76M-.76 0 0 1.316m0 0-1.316.76M-2.076.76l.76 1.316" style="fill:none;stroke:rgba(255,255,255,.2);stroke-width:.01" transform="matrix(30 0 0 30 79.377 1316.177)"/><circle r=".06" style="fill:#222;stroke:rgba(255,255,255,.2);stroke-width:.02" transform="matrix(30 0 0 30 56.582 1316.177)"/><circle r=".06" style="fill:#222;stroke:rgba(255,255,255,.2);stroke-width:.02" transform="matrix(30 0 0 30 79.377 1276.695)"/><circle r=".06" style="fill:#222;stroke:rgba(255,255,255,.2);stroke-width:.02" transform="matrix(30 0 0 30 102.172 1316.177)"/><circle r=".06" style="fill:#222;stroke:rgba(255,255,255,.2);stroke-width:.02" transform="matrix(30 0 0 30 17.1 1338.972)"/><circle r=".06" style="fill:#222;stroke:rgba(255,255,255,.2);stroke-width:.02" transform="matrix(30 0 0 30 79.377 1355.66)"/><circle r=".06" style="fill:#222;stroke:rgba(255,255,255,.2);stroke-width:.02" transform="matrix(30 0 0 30 39.895 1378.455)"/><text xml:space="preserve" dominant-baseline="alphabetic" font-family="Helvetica, Arial, sans-serif" font-size="25" lengthAdjust="spacingAndGlyphs" style="fill:rgba(255,255,255,.2)" text-rendering="geometricPrecision" textLength="13.904" transform="translate(72.905 1310.93)scale(.93103)">?</text><text xml:space="preserve" dominant-baseline="alphabetic" font-family="Helvetica, Arial, sans-serif" font-size="25" lengthAdjust="spacingAndGlyphs" style="fill:rgba(255,255,255,.8)" text-rendering="geometricPrecision" textLength="13.904" transform="translate(41.766 1355.23)scale(.93103)">2</text><path d="M0 .5h13v3L20 0l-7-3.5v3H0z" style="fill:#ccc;stroke:#ccc" transform="translate(114.772 1327.575)"/><path d="M-.76 0 0-1.316.76 0zm-1.316.76L-.76 0 0 1.316l-1.316.76z" style="fill:#000" transform="matrix(30 0 0 30 210.268 1316.177)"/><path d="M-.76 0 0-1.316l-.709.468z" style="fill:#214068" transform="matrix(30 0 0 30 210.268 1316.177)"/><path d="m-.76 0-1.316.76.548-.57z" style="fill:#224935" transform="matrix(30 0 0 30 210.268 1316.177)"/><path d="m0 1.316-1.316.76.768-.19zM-2.076.76-.76 0 0 1.316l-1.316.76z" style="fill:#662a2c" transform="matrix(30 0 0 30 210.268 1316.177)"/><path d="M-.76 0H.76L0 .22z" style="fill:#09294c" transform="matrix(30 0 0 30 210.268 1316.177)"/><path d="M-.76 0 0 1.316-.19.548z" style="fill:#0d301f" transform="matrix(30 0 0 30 210.268 1316.177)"/><path d="m-2.076.76.76 1.316-.57-.548z" style="fill:#4b1016" transform="matrix(30 0 0 30 210.268 1316.177)"/><path d="M-.76 0 0-1.316m0 0L.76 0M-.76 0H.76M-.76 0l-1.316.76M-.76 0 0 1.316m0 0-1.316.76M-2.076.76l.76 1.316" style="fill:none;stroke:rgba(255,255,255,.2);stroke-width:.01" transform="matrix(30 0 0 30 210.268 1316.177)"/><circle r=".06" style="fill:#222;stroke:rgba(255,255,255,.2);stroke-width:.02" transform="matrix(30 0 0 30 187.473 1316.177)"/><circle r=".06" style="fill:#222;stroke:rgba(255,255,255,.2);stroke-width:.02" transform="matrix(30 0 0 30 210.268 1276.695)"/><circle r=".06" style="fill:#222;stroke:rgba(255,255,255,.2);stroke-width:.02" transform="matrix(30 0 0 30 233.063 1316.177)"/><circle r=".06" style="fill:#222;stroke:rgba(255,255,255,.2);stroke-width:.02" transform="matrix(30 0 0 30 147.99 1338.972)"/><circle r=".06" style="fill:#222;stroke:rgba(255,255,255,.2);stroke-width:.02" transform="matrix(30 0 0 30 210.268 1355.66)"/><circle r=".06" style="fill:#222;stroke:rgba(255,255,255,.2);stroke-width:.02" transform="matrix(30 0 0 30 170.785 1378.455)"/><text xml:space="preserve" dominant-baseline="alphabetic" font-family="Helvetica, Arial, sans-serif" font-size="25" lengthAdjust="spacingAndGlyphs" style="fill:rgba(255,255,255,.2)" text-rendering="geometricPrecision" textLength="13.904" transform="translate(203.795 1310.93)scale(.93103)">?</text><text xml:space="preserve" dominant-baseline="alphabetic" font-family="Helvetica, Arial, sans-serif" font-size="25" lengthAdjust="spacingAndGlyphs" style="fill:rgba(255,255,255,.8)" text-rendering="geometricPrecision" textLength="13.904" transform="translate(172.657 1355.23)scale(.93103)">2</text></svg>