<svg xmlns="http://www.w3.org/2000/svg" width="227" height="438" aria-hidden="true" style="pointer-events:none;position:absolute;left:0;top:0;transform-origin:left top;z-index:20"><rect width="217" height="428" rx="0" ry="0" style="fill:#333"/><path d="m0 0 .76 1.316H-.76zm-.76-1.316L0 0h-1.52z" style="fill:#000" transform="matrix(30 0 0 30 62.69 56.582)"/><path d="m0 0 .76 1.316m0 0H-.76M0 0l-.76 1.316M0 0l-.76-1.316M0 0h-1.52m.76-1.316L-1.52 0" style="fill:none;stroke:rgba(255,255,255,.2);stroke-width:.01" transform="matrix(30 0 0 30 62.69 56.582)"/><circle r=".06" style="fill:#222;stroke:rgba(255,255,255,.2);stroke-width:.02" transform="matrix(30 0 0 30 62.69 56.582)"/><circle r=".06" style="fill:#222;stroke:rgba(255,255,255,.2);stroke-width:.02" transform="matrix(30 0 0 30 85.485 96.064)"/><circle r=".06" style="fill:#222;stroke:rgba(255,255,255,.2);stroke-width:.02" transform="matrix(30 0 0 30 39.895 96.064)"/><circle r=".06" style="fill:#222;stroke:rgba(255,255,255,.2);stroke-width:.02" transform="matrix(30 0 0 30 39.895 17.1)"/><circle r=".06" style="fill:#222;stroke:rgba(255,255,255,.2);stroke-width:.02" transform="matrix(30 0 0 30 17.1 56.582)"/><text xml:space="preserve" dominant-baseline="alphabetic" font-family="Helvetica, Arial, sans-serif" font-size="25" lengthAdjust="spacingAndGlyphs" style="fill:rgba(255,255,255,.8)" text-rendering="geometricPrecision" textLength="13.904" transform="translate(56.218 90.817)scale(.93103)">2</text><text xml:space="preserve" dominant-baseline="alphabetic" font-family="Helvetica, Arial, sans-serif" font-size="25" lengthAdjust="spacingAndGlyphs" style="fill:rgba(255,255,255,.8)" text-rendering="geometricPrecision" textLength="13.904" transform="translate(33.423 51.335)scale(.93103)">2</text><path d="M0 .5h13v3L20 0l-7-3.5v3H0z" style="fill:#ccc;stroke:#ccc" transform="translate(98.085 58.822)"/><path d="m0 0 .76 1.316H-.76zm-.76-1.316L0 0h-1.52z" style="fill:#000" transform="matrix(30 0 0 30 176.893 56.582)"/><path d="m0 0 .76 1.316H-.76z" style="fill:#214068" transform="matrix(30 0 0 30 176.893 56.582)"/><path d="M-.76-1.316 0 0h-1.52z" style="fill:#224935" transform="matrix(30 0 0 30 176.893 56.582)"/><path d="m0 0 .76 1.316L.57.548z" style="fill:#662a2c" transform="matrix(30 0 0 30 176.893 56.582)"/><path d="m0 0-.76-1.316.57.548z" style="fill:#483f1a" transform="matrix(30 0 0 30 176.893 56.582)"/><path d="M.76 1.316H-.76l.76.22z" style="fill:#09294c" transform="matrix(30 0 0 30 176.893 56.582)"/><path d="M-.76-1.316-1.52 0l.19-.768z" style="fill:#0d301f" transform="matrix(30 0 0 30 176.893 56.582)"/><path d="m0 0-.76 1.316.19-.768z" style="fill:#4b1016" transform="matrix(30 0 0 30 176.893 56.582)"/><path d="M0 0h-1.52l.76.22z" style="fill:#302807" transform="matrix(30 0 0 30 176.893 56.582)"/><path d="m0 0 .76 1.316m0 0H-.76M0 0l-.76 1.316M0 0l-.76-1.316M0 0h-1.52m.76-1.316L-1.52 0" style="fill:none;stroke:rgba(255,255,255,.2);stroke-width:.01" transform="matrix(30 0 0 30 176.893 56.582)"/><circle r=".06" style="fill:#222;stroke:rgba(255,255,255,.2);stroke-width:.02" transform="matrix(30 0 0 30 176.893 56.582)"/><circle r=".06" style="fill:#222;stroke:rgba(255,255,255,.2);stroke-width:.02" transform="matrix(30 0 0 30 199.688 96.064)"/><circle r=".06" style="fill:#222;stroke:rgba(255,255,255,.2);stroke-width:.02" transform="matrix(30 0 0 30 154.098 96.064)"/><circle r=".06" style="fill:#222;stroke:rgba(255,255,255,.2);stroke-width:.02" transform="matrix(30 0 0 30 154.098 17.1)"/><circle r=".06" style="fill:#222;stroke:rgba(255,255,255,.2);stroke-width:.02" transform="matrix(30 0 0 30 131.303 56.582)"/><text xml:space="preserve" dominant-baseline="alphabetic" font-family="Helvetica, Arial, sans-serif" font-size="25" lengthAdjust="spacingAndGlyphs" style="fill:rgba(255,255,255,.8)" text-rendering="geometricPrecision" textLength="13.904" transform="translate(170.42 90.817)scale(.93103)">2</text><text xml:space="preserve" dominant-baseline="alphabetic" font-family="Helvetica, Arial, sans-serif" font-size="25" lengthAdjust="spacingAndGlyphs" style="fill:rgba(255,255,255,.8)" text-rendering="geometricPrecision" textLength="13.904" transform="translate(147.626 51.335)scale(.93103)">2</text><path d="m0 0 .76 1.316H-.76zm-.76-1.316L0 0h-1.52z" style="fill:#000" transform="matrix(30 0 0 30 62.69 164.227)"/><path d="m0 0 .76 1.316H-.76z" style="fill:#214068" transform="matrix(30 0 0 30 62.69 164.227)"/><path d="m0 0 .76 1.316L.57.548z" style="fill:#09294c" transform="matrix(30 0 0 30 62.69 164.227)"/><path d="m0 0 .76 1.316m0 0H-.76M0 0l-.76 1.316M0 0l-.76-1.316M0 0h-1.52m.76-1.316L-1.52 0" style="fill:none;stroke:rgba(255,255,255,.2);stroke-width:.01" transform="matrix(30 0 0 30 62.69 164.227)"/><circle r=".06" style="fill:#222;stroke:rgba(255,255,255,.2);stroke-width:.02" transform="matrix(30 0 0 30 62.69 164.227)"/><circle r=".06" style="fill:#222;stroke:rgba(255,255,255,.2);stroke-width:.02" transform="matrix(30 0 0 30 85.485 203.71)"/><circle r=".06" style="fill:#222;stroke:rgba(255,255,255,.2);stroke-width:.02" transform="matrix(30 0 0 30 39.895 203.71)"/><circle r=".06" style="fill:#222;stroke:rgba(255,255,255,.2);stroke-width:.02" transform="matrix(30 0 0 30 39.895 124.745)"/><circle r=".06" style="fill:#222;stroke:rgba(255,255,255,.2);stroke-width:.02" transform="matrix(30 0 0 30 17.1 164.227)"/><text xml:space="preserve" dominant-baseline="alphabetic" font-family="Helvetica, Arial, sans-serif" font-size="25" lengthAdjust="spacingAndGlyphs" style="fill:rgba(255,255,255,.2)" text-rendering="geometricPrecision" textLength="13.904" transform="translate(56.218 198.462)scale(.93103)">?</text><text xml:space="preserve" dominant-baseline="alphabetic" font-family="Helvetica, Arial, sans-serif" font-size="25" lengthAdjust="spacingAndGlyphs" style="fill:rgba(255,255,255,.8)" text-rendering="geometricPrecision" textLength="13.904" transform="translate(33.423 158.98)scale(.93103)">2</text><path d="M0 .5h13v3L20 0l-7-3.5v3H0z" style="fill:#ccc;stroke:#ccc" transform="translate(98.085 164.227)"/><path d="m0 0 .76 1.316H-.76zm-.76-1.316L0 0h-1.52z" style="fill:#000" transform="matrix(30 0 0 30 176.893 164.227)"/><path d="M-.76-1.316 0 0h-1.52z" style="fill:#214068" transform="matrix(30 0 0 30 176.893 164.227)"/><path d="m0 0 .76 1.316L.57.548z" style="fill:#224935" transform="matrix(30 0 0 30 176.893 164.227)"/><path d="m0 0-.76-1.316.57.548z" style="fill:#662a2c" transform="matrix(30 0 0 30 176.893 164.227)"/><path d="M-.76-1.316-1.52 0l.19-.768z" style="fill:#09294c" transform="matrix(30 0 0 30 176.893 164.227)"/><path d="m0 0-.76 1.316.19-.768zm0 0 .76 1.316H-.76z" style="fill:#0d301f" transform="matrix(30 0 0 30 176.893 164.227)"/><path d="M0 0h-1.52l.76.22z" style="fill:#4b1016" transform="matrix(30 0 0 30 176.893 164.227)"/><path d="m0 0 .76 1.316m0 0H-.76M0 0l-.76 1.316M0 0l-.76-1.316M0 0h-1.52m.76-1.316L-1.52 0" style="fill:none;stroke:rgba(255,255,255,.2);stroke-width:.01" transform="matrix(30 0 0 30 176.893 164.227)"/><circle r=".06" style="fill:#222;stroke:rgba(255,255,255,.2);stroke-width:.02" transform="matrix(30 0 0 30 176.893 164.227)"/><circle r=".06" style="fill:#222;stroke:rgba(255,255,255,.2);stroke-width:.02" transform="matrix(30 0 0 30 199.688 203.71)"/><circle r=".06" style="fill:#222;stroke:rgba(255,255,255,.2);stroke-width:.02" transform="matrix(30 0 0 30 154.098 203.71)"/><circle r=".06" style="fill:#222;stroke:rgba(255,255,255,.2);stroke-width:.02" transform="matrix(30 0 0 30 154.098 124.745)"/><circle r=".06" style="fill:#222;stroke:rgba(255,255,255,.2);stroke-width:.02" transform="matrix(30 0 0 30 131.303 164.227)"/><text xml:space="preserve" dominant-baseline="alphabetic" font-family="Helvetica, Arial, sans-serif" font-size="25" lengthAdjust="spacingAndGlyphs" style="fill:rgba(255,255,255,.2)" text-rendering="geometricPrecision" textLength="13.904" transform="translate(170.42 198.462)scale(.93103)">?</text><text xml:space="preserve" dominant-baseline="alphabetic" font-family="Helvetica, Arial, sans-serif" font-size="25" lengthAdjust="spacingAndGlyphs" style="fill:rgba(255,255,255,.8)" text-rendering="geometricPrecision" textLength="13.904" transform="translate(147.626 158.98)scale(.93103)">2</text><path d="m0 0 .76 1.316H-.76zm-.76-1.316L0 0h-1.52z" style="fill:#000" transform="matrix(30 0 0 30 62.69 267.391)"/><path d="m0 0 .76 1.316L.57.548zm0 0-.76 1.316.19-.768z" style="fill:#214068" transform="matrix(30 0 0 30 62.69 267.391)"/><path d="m0 0 .76 1.316m0 0H-.76M0 0l-.76 1.316M0 0l-.76-1.316M0 0h-1.52m.76-1.316L-1.52 0" style="fill:none;stroke:rgba(255,255,255,.2);stroke-width:.01" transform="matrix(30 0 0 30 62.69 267.391)"/><circle r=".06" style="fill:#222;stroke:rgba(255,255,255,.2);stroke-width:.02" transform="matrix(30 0 0 30 62.69 267.391)"/><circle r=".06" style="fill:#222;stroke:rgba(255,255,255,.2);stroke-width:.02" transform="matrix(30 0 0 30 85.485 306.874)"/><circle r=".06" style="fill:#222;stroke:rgba(255,255,255,.2);stroke-width:.02" transform="matrix(30 0 0 30 39.895 306.874)"/><circle r=".06" style="fill:#222;stroke:rgba(255,255,255,.2);stroke-width:.02" transform="matrix(30 0 0 30 39.895 227.91)"/><circle r=".06" style="fill:#222;stroke:rgba(255,255,255,.2);stroke-width:.02" transform="matrix(30 0 0 30 17.1 267.391)"/><text xml:space="preserve" dominant-baseline="alphabetic" font-family="Helvetica, Arial, sans-serif" font-size="25" lengthAdjust="spacingAndGlyphs" style="fill:rgba(255,255,255,.2)" text-rendering="geometricPrecision" textLength="13.904" transform="translate(56.218 301.627)scale(.93103)">?</text><text xml:space="preserve" dominant-baseline="alphabetic" font-family="Helvetica, Arial, sans-serif" font-size="25" lengthAdjust="spacingAndGlyphs" style="fill:rgba(255,255,255,.8)" text-rendering="geometricPrecision" textLength="13.904" transform="translate(33.423 262.145)scale(.93103)">2</text><path d="M0 .5h13v3L20 0l-7-3.5v3H0z" style="fill:#ccc;stroke:#ccc" transform="translate(98.085 267.391)"/><path d="m0 0 .76 1.316H-.76zm-.76-1.316L0 0h-1.52z" style="fill:#000" transform="matrix(30 0 0 30 176.893 267.391)"/><path d="m0 0 .76 1.316L.57.548zm0 0-.76 1.316.19-.768zm0 0 .76 1.316H-.76z" style="fill:#214068" transform="matrix(30 0 0 30 176.893 267.391)"/><path d="m0 0 .76 1.316m0 0H-.76M0 0l-.76 1.316M0 0l-.76-1.316M0 0h-1.52m.76-1.316L-1.52 0" style="fill:none;stroke:rgba(255,255,255,.2);stroke-width:.01" transform="matrix(30 0 0 30 176.893 267.391)"/><circle r=".06" style="fill:#222;stroke:rgba(255,255,255,.2);stroke-width:.02" transform="matrix(30 0 0 30 176.893 267.391)"/><circle r=".06" style="fill:#222;stroke:rgba(255,255,255,.2);stroke-width:.02" transform="matrix(30 0 0 30 199.688 306.874)"/><circle r=".06" style="fill:#222;stroke:rgba(255,255,255,.2);stroke-width:.02" transform="matrix(30 0 0 30 154.098 306.874)"/><circle r=".06" style="fill:#222;stroke:rgba(255,255,255,.2);stroke-width:.02" transform="matrix(30 0 0 30 154.098 227.91)"/><circle r=".06" style="fill:#222;stroke:rgba(255,255,255,.2);stroke-width:.02" transform="matrix(30 0 0 30 131.303 267.391)"/><text xml:space="preserve" dominant-baseline="alphabetic" font-family="Helvetica, Arial, sans-serif" font-size="25" lengthAdjust="spacingAndGlyphs" style="fill:rgba(255,255,255,.2)" text-rendering="geometricPrecision" textLength="13.904" transform="translate(170.42 301.627)scale(.93103)">?</text><text xml:space="preserve" dominant-baseline="alphabetic" font-family="Helvetica, Arial, sans-serif" font-size="25" lengthAdjust="spacingAndGlyphs" style="fill:rgba(255,255,255,.8)" text-rendering="geometricPrecision" textLength="13.904" transform="translate(147.626 262.145)scale(.93103)">2</text><path d="m0 0 .76 1.316H-.76zm-.76-1.316L0 0h-1.52z" style="fill:#000" transform="matrix(30 0 0 30 62.69 370.556)"/><path d="m0 0 .76 1.316L.57.548z" style="fill:#214068" transform="matrix(30 0 0 30 62.69 370.556)"/><path d="m0 0-.76 1.316.19-.768z" style="fill:#09294c" transform="matrix(30 0 0 30 62.69 370.556)"/><path d="m0 0 .76 1.316m0 0H-.76M0 0l-.76 1.316M0 0l-.76-1.316M0 0h-1.52m.76-1.316L-1.52 0" style="fill:none;stroke:rgba(255,255,255,.2);stroke-width:.01" transform="matrix(30 0 0 30 62.69 370.556)"/><circle r=".06" style="fill:#222;stroke:rgba(255,255,255,.2);stroke-width:.02" transform="matrix(30 0 0 30 62.69 370.556)"/><circle r=".06" style="fill:#222;stroke:rgba(255,255,255,.2);stroke-width:.02" transform="matrix(30 0 0 30 85.485 410.038)"/><circle r=".06" style="fill:#222;stroke:rgba(255,255,255,.2);stroke-width:.02" transform="matrix(30 0 0 30 39.895 410.038)"/><circle r=".06" style="fill:#222;stroke:rgba(255,255,255,.2);stroke-width:.02" transform="matrix(30 0 0 30 39.895 331.074)"/><circle r=".06" style="fill:#222;stroke:rgba(255,255,255,.2);stroke-width:.02" transform="matrix(30 0 0 30 17.1 370.556)"/><text xml:space="preserve" dominant-baseline="alphabetic" font-family="Helvetica, Arial, sans-serif" font-size="25" lengthAdjust="spacingAndGlyphs" style="fill:rgba(255,255,255,.2)" text-rendering="geometricPrecision" textLength="13.904" transform="translate(56.218 404.791)scale(.93103)">?</text><text xml:space="preserve" dominant-baseline="alphabetic" font-family="Helvetica, Arial, sans-serif" font-size="25" lengthAdjust="spacingAndGlyphs" style="fill:rgba(255,255,255,.8)" text-rendering="geometricPrecision" textLength="13.904" transform="translate(33.423 365.309)scale(.93103)">2</text><path d="M0 .5h13v3L20 0l-7-3.5v3H0z" style="fill:#ccc;stroke:#ccc" transform="translate(98.085 370.556)"/><path d="m0 0 .76 1.316H-.76zm-.76-1.316L0 0h-1.52z" style="fill:#000" transform="matrix(30 0 0 30 176.893 370.556)"/><path d="M-.76-1.316 0 0h-1.52z" style="fill:#214068" transform="matrix(30 0 0 30 176.893 370.556)"/><path d="m0 0 .76 1.316L.57.548z" style="fill:#224935" transform="matrix(30 0 0 30 176.893 370.556)"/><path d="m0 0-.76-1.316.57.548z" style="fill:#662a2c" transform="matrix(30 0 0 30 176.893 370.556)"/><path d="M-.76-1.316-1.52 0l.19-.768z" style="fill:#09294c" transform="matrix(30 0 0 30 176.893 370.556)"/><path d="m0 0-.76 1.316.19-.768z" style="fill:#0d301f" transform="matrix(30 0 0 30 176.893 370.556)"/><path d="M0 0h-1.52l.76.22z" style="fill:#4b1016" transform="matrix(30 0 0 30 176.893 370.556)"/><path d="m0 0 .76 1.316m0 0H-.76M0 0l-.76 1.316M0 0l-.76-1.316M0 0h-1.52m.76-1.316L-1.52 0" style="fill:none;stroke:rgba(255,255,255,.2);stroke-width:.01" transform="matrix(30 0 0 30 176.893 370.556)"/><circle r=".06" style="fill:#222;stroke:rgba(255,255,255,.2);stroke-width:.02" transform="matrix(30 0 0 30 176.893 370.556)"/><circle r=".06" style="fill:#222;stroke:rgba(255,255,255,.2);stroke-width:.02" transform="matrix(30 0 0 30 199.688 410.038)"/><circle r=".06" style="fill:#222;stroke:rgba(255,255,255,.2);stroke-width:.02" transform="matrix(30 0 0 30 154.098 410.038)"/><circle r=".06" style="fill:#222;stroke:rgba(255,255,255,.2);stroke-width:.02" transform="matrix(30 0 0 30 154.098 331.074)"/><circle r=".06" style="fill:#222;stroke:rgba(255,255,255,.2);stroke-width:.02" transform="matrix(30 0 0 30 131.303 370.556)"/><text xml:space="preserve" dominant-baseline="alphabetic" font-family="Helvetica, Arial, sans-serif" font-size="25" lengthAdjust="spacingAndGlyphs" style="fill:rgba(255,255,255,.2)" text-rendering="geometricPrecision" textLength="13.904" transform="translate(170.42 404.791)scale(.93103)">?</text><text xml:space="preserve" dominant-baseline="alphabetic" font-family="Helvetica, Arial, sans-serif" font-size="25" lengthAdjust="spacingAndGlyphs" style="fill:rgba(255,255,255,.8)" text-rendering="geometricPrecision" textLength="13.904" transform="translate(147.626 365.309)scale(.93103)">2</text></svg>