<svg xmlns="http://www.w3.org/2000/svg" width="182" height="721" aria-hidden="true" style="pointer-events:none;position:absolute;left:0;top:0;transform-origin:left top;z-index:20"><rect width="172" height="711" rx="0" ry="0" style="fill:#333"/><path d="m0 0 .76 1.316H-.76z" style="fill:#000" transform="matrix(30 0 0 30 39.895 17.1)"/><path d="m0 0 .76 1.316m0 0H-.76M0 0l-.76 1.316" style="fill:none;stroke:rgba(255,255,255,.2);stroke-width:.01" transform="matrix(30 0 0 30 39.895 17.1)"/><circle r=".06" style="fill:#222;stroke:rgba(255,255,255,.2);stroke-width:.02" transform="matrix(30 0 0 30 39.895 17.1)"/><circle r=".06" style="fill:#222;stroke:rgba(255,255,255,.2);stroke-width:.02" transform="matrix(30 0 0 30 62.69 56.582)"/><circle r=".06" style="fill:#222;stroke:rgba(255,255,255,.2);stroke-width:.02" transform="matrix(30 0 0 30 17.1 56.582)"/><text xml:space="preserve" dominant-baseline="alphabetic" font-family="Helvetica, Arial, sans-serif" font-size="25" lengthAdjust="spacingAndGlyphs" style="fill:rgba(255,255,255,.8)" text-rendering="geometricPrecision" textLength="13.904" transform="translate(33.423 51.335)scale(.93103)">0</text><path d="M0 .5h13v3L20 0l-7-3.5v3H0z" style="fill:#ccc;stroke:#ccc" transform="translate(75.29 36.841)"/><path d="m0 0 .76 1.316H-.76z" style="fill:#000" transform="matrix(30 0 0 30 131.303 17.1)"/><path d="m0 0 .76 1.316m0 0H-.76M0 0l-.76 1.316" style="fill:none;stroke:rgba(255,255,255,.2);stroke-width:.01" transform="matrix(30 0 0 30 131.303 17.1)"/><circle r=".06" style="fill:#222;stroke:rgba(255,255,255,.2);stroke-width:.02" transform="matrix(30 0 0 30 131.303 17.1)"/><circle r=".06" style="fill:#222;stroke:rgba(255,255,255,.2);stroke-width:.02" transform="matrix(30 0 0 30 154.098 56.582)"/><circle r=".06" style="fill:#222;stroke:rgba(255,255,255,.2);stroke-width:.02" transform="matrix(30 0 0 30 108.508 56.582)"/><text xml:space="preserve" dominant-baseline="alphabetic" font-family="Helvetica, Arial, sans-serif" font-size="25" lengthAdjust="spacingAndGlyphs" style="fill:rgba(255,255,255,.8)" text-rendering="geometricPrecision" textLength="13.904" transform="translate(124.83 51.335)scale(.93103)">0</text><path d="m0 0 .76 1.316m0 0H-.76M0 0l-.76 1.316" style="fill:none;stroke:red;stroke-width:.05;stroke-linecap:round" transform="matrix(30 0 0 30 131.303 17.1)"/><path d="m0 0 .76 1.316H-.76z" style="fill:#000" transform="matrix(30 0 0 30 39.895 80.782)"/><path d="m0 0 .76 1.316m0 0H-.76M0 0l-.76 1.316" style="fill:none;stroke:rgba(255,255,255,.2);stroke-width:.01" transform="matrix(30 0 0 30 39.895 80.782)"/><circle r=".06" style="fill:#222;stroke:rgba(255,255,255,.2);stroke-width:.02" transform="matrix(30 0 0 30 39.895 80.782)"/><circle r=".06" style="fill:#222;stroke:rgba(255,255,255,.2);stroke-width:.02" transform="matrix(30 0 0 30 62.69 120.264)"/><circle r=".06" style="fill:#222;stroke:rgba(255,255,255,.2);stroke-width:.02" transform="matrix(30 0 0 30 17.1 120.264)"/><text xml:space="preserve" dominant-baseline="alphabetic" font-family="Helvetica, Arial, sans-serif" font-size="25" lengthAdjust="spacingAndGlyphs" style="fill:rgba(255,255,255,.8)" text-rendering="geometricPrecision" textLength="13.904" transform="translate(33.423 115.017)scale(.93103)">1</text><path d="M0 .5h13v3L20 0l-7-3.5v3H0z" style="fill:#ccc;stroke:#ccc" transform="translate(75.29 100.523)"/><path d="m0 0 .76 1.316H-.76z" style="fill:#000" transform="matrix(30 0 0 30 131.303 80.782)"/><path d="M.635 1.1a.25.25 0 0 0-.125.216m-1.02 0A.25.25 0 0 0-.635 1.1m.51-.883a.25.25 0 0 0 .25 0" style="fill:none;stroke:#e07c1f;stroke-width:.02;stroke-dasharray:.03,.03;stroke-dashoffset:0" transform="matrix(30 0 0 30 131.303 80.782)"/><path d="m0 0 .76 1.316m0 0H-.76M0 0l-.76 1.316" style="fill:none;stroke:rgba(255,255,255,.2);stroke-width:.01" transform="matrix(30 0 0 30 131.303 80.782)"/><circle r=".06" style="fill:#222;stroke:rgba(255,255,255,.2);stroke-width:.02" transform="matrix(30 0 0 30 131.303 80.782)"/><circle r=".06" style="fill:#222;stroke:rgba(255,255,255,.2);stroke-width:.02" transform="matrix(30 0 0 30 154.098 120.264)"/><circle r=".06" style="fill:#222;stroke:rgba(255,255,255,.2);stroke-width:.02" transform="matrix(30 0 0 30 108.508 120.264)"/><text xml:space="preserve" dominant-baseline="alphabetic" font-family="Helvetica, Arial, sans-serif" font-size="25" lengthAdjust="spacingAndGlyphs" style="fill:rgba(255,255,255,.8)" text-rendering="geometricPrecision" textLength="13.904" transform="translate(124.83 115.017)scale(.93103)">1</text><path d="m0 0 .76 1.316H-.76z" style="fill:#000" transform="matrix(30 0 0 30 39.895 144.464)"/><path d="m0 0 .76 1.316m0 0H-.76M0 0l-.76 1.316" style="fill:none;stroke:rgba(255,255,255,.2);stroke-width:.01" transform="matrix(30 0 0 30 39.895 144.464)"/><circle r=".06" style="fill:#222;stroke:rgba(255,255,255,.2);stroke-width:.02" transform="matrix(30 0 0 30 39.895 144.464)"/><circle r=".06" style="fill:#222;stroke:rgba(255,255,255,.2);stroke-width:.02" transform="matrix(30 0 0 30 62.69 183.947)"/><circle r=".06" style="fill:#222;stroke:rgba(255,255,255,.2);stroke-width:.02" transform="matrix(30 0 0 30 17.1 183.947)"/><text xml:space="preserve" dominant-baseline="alphabetic" font-family="Helvetica, Arial, sans-serif" font-size="25" lengthAdjust="spacingAndGlyphs" style="fill:rgba(255,255,255,.8)" text-rendering="geometricPrecision" textLength="13.904" transform="translate(33.423 178.7)scale(.93103)">2</text><path d="M0 .5h13v3L20 0l-7-3.5v3H0z" style="fill:#ccc;stroke:#ccc" transform="translate(75.29 164.206)"/><path d="m0 0 .76 1.316H-.76z" style="fill:#000" transform="matrix(30 0 0 30 131.303 144.464)"/><path d="M.65 1.126a.22.22 0 0 0-.11.19m.08-.242a.28.28 0 0 0-.14.242m-1.02 0a.22.22 0 0 0-.11-.19m.17.19a.28.28 0 0 0-.14-.242M-.11.19a.22.22 0 0 0 .22 0m-.25.052a.28.28 0 0 0 .28 0" style="fill:none;stroke:#2a892a;stroke-width:.02;stroke-dasharray:.03,.03;stroke-dashoffset:0" transform="matrix(30 0 0 30 131.303 144.464)"/><path d="m0 0 .76 1.316m0 0H-.76M0 0l-.76 1.316" style="fill:none;stroke:rgba(255,255,255,.2);stroke-width:.01" transform="matrix(30 0 0 30 131.303 144.464)"/><circle r=".06" style="fill:#222;stroke:rgba(255,255,255,.2);stroke-width:.02" transform="matrix(30 0 0 30 131.303 144.464)"/><circle r=".06" style="fill:#222;stroke:rgba(255,255,255,.2);stroke-width:.02" transform="matrix(30 0 0 30 154.098 183.947)"/><circle r=".06" style="fill:#222;stroke:rgba(255,255,255,.2);stroke-width:.02" transform="matrix(30 0 0 30 108.508 183.947)"/><text xml:space="preserve" dominant-baseline="alphabetic" font-family="Helvetica, Arial, sans-serif" font-size="25" lengthAdjust="spacingAndGlyphs" style="fill:rgba(255,255,255,.8)" text-rendering="geometricPrecision" textLength="13.904" transform="translate(124.83 178.7)scale(.93103)">2</text><path d="m0 0 .76 1.316H-.76z" style="fill:#000" transform="matrix(30 0 0 30 39.895 208.147)"/><path d="M-.54 1.316a.22.22 0 0 0-.11-.19m.17.19a.28.28 0 0 0-.14-.242" style="fill:none;stroke:#2a892a;stroke-width:.02;stroke-dasharray:.03,.03;stroke-dashoffset:0" transform="matrix(30 0 0 30 39.895 208.147)"/><path d="m0 0 .76 1.316m0 0H-.76M0 0l-.76 1.316" style="fill:none;stroke:rgba(255,255,255,.2);stroke-width:.01" transform="matrix(30 0 0 30 39.895 208.147)"/><circle r=".06" style="fill:#222;stroke:rgba(255,255,255,.2);stroke-width:.02" transform="matrix(30 0 0 30 39.895 208.147)"/><circle r=".06" style="fill:#222;stroke:rgba(255,255,255,.2);stroke-width:.02" transform="matrix(30 0 0 30 62.69 247.629)"/><circle r=".06" style="fill:#222;stroke:rgba(255,255,255,.2);stroke-width:.02" transform="matrix(30 0 0 30 17.1 247.629)"/><text xml:space="preserve" dominant-baseline="alphabetic" font-family="Helvetica, Arial, sans-serif" font-size="25" lengthAdjust="spacingAndGlyphs" style="fill:rgba(255,255,255,.8)" text-rendering="geometricPrecision" textLength="13.904" transform="translate(33.423 242.382)scale(.93103)">2</text><path d="m0 0 .76 1.316" style="fill:none;stroke:#fff;stroke-width:.1;stroke-linecap:round" transform="matrix(30 0 0 30 39.895 208.147)"/><path d="M0 .5h13v3L20 0l-7-3.5v3H0z" style="fill:#ccc;stroke:#ccc" transform="translate(75.29 227.888)"/><path d="m0 0 .76 1.316H-.76z" style="fill:#000" transform="matrix(30 0 0 30 131.303 208.147)"/><path d="M-.51 1.316A.25.25 0 0 0-.635 1.1" style="fill:none;stroke:red;stroke-width:.02" transform="matrix(30 0 0 30 131.303 208.147)"/><path d="m0 0 .76 1.316m0 0H-.76M0 0l-.76 1.316" style="fill:none;stroke:rgba(255,255,255,.2);stroke-width:.01" transform="matrix(30 0 0 30 131.303 208.147)"/><circle r=".06" style="fill:#222;stroke:rgba(255,255,255,.2);stroke-width:.02" transform="matrix(30 0 0 30 131.303 208.147)"/><circle r=".06" style="fill:#222;stroke:rgba(255,255,255,.2);stroke-width:.02" transform="matrix(30 0 0 30 154.098 247.629)"/><circle r=".06" style="fill:#222;stroke:rgba(255,255,255,.2);stroke-width:.02" transform="matrix(30 0 0 30 108.508 247.629)"/><text xml:space="preserve" dominant-baseline="alphabetic" font-family="Helvetica, Arial, sans-serif" font-size="25" lengthAdjust="spacingAndGlyphs" style="fill:rgba(255,255,255,.8)" text-rendering="geometricPrecision" textLength="13.904" transform="translate(124.83 242.382)scale(.93103)">2</text><path d="m0 0 .76 1.316" style="fill:none;stroke:#fff;stroke-width:.1;stroke-linecap:round" transform="matrix(30 0 0 30 131.303 208.147)"/><path d="m0 0 .76 1.316H-.76z" style="fill:#000" transform="matrix(30 0 0 30 39.895 271.829)"/><path d="M-.51 1.316A.25.25 0 0 0-.635 1.1" style="fill:none;stroke:#e07c1f;stroke-width:.02;stroke-dasharray:.03,.03;stroke-dashoffset:0" transform="matrix(30 0 0 30 39.895 271.829)"/><path d="m0 0 .76 1.316m0 0H-.76M0 0l-.76 1.316" style="fill:none;stroke:rgba(255,255,255,.2);stroke-width:.01" transform="matrix(30 0 0 30 39.895 271.829)"/><circle r=".06" style="fill:#222;stroke:rgba(255,255,255,.2);stroke-width:.02" transform="matrix(30 0 0 30 39.895 271.829)"/><circle r=".06" style="fill:#222;stroke:rgba(255,255,255,.2);stroke-width:.02" transform="matrix(30 0 0 30 62.69 311.311)"/><circle r=".06" style="fill:#222;stroke:rgba(255,255,255,.2);stroke-width:.02" transform="matrix(30 0 0 30 17.1 311.311)"/><text xml:space="preserve" dominant-baseline="alphabetic" font-family="Helvetica, Arial, sans-serif" font-size="25" lengthAdjust="spacingAndGlyphs" style="fill:rgba(255,255,255,.8)" text-rendering="geometricPrecision" textLength="13.904" transform="translate(33.423 306.064)scale(.93103)">1</text><path d="m0 0 .76 1.316" style="fill:none;stroke:red;stroke-width:.05;stroke-linecap:round" transform="matrix(30 0 0 30 39.895 271.829)"/><path d="M0 .5h13v3L20 0l-7-3.5v3H0z" style="fill:#ccc;stroke:#ccc" transform="translate(75.29 291.57)"/><path d="m0 0 .76 1.316H-.76z" style="fill:#000" transform="matrix(30 0 0 30 131.303 271.829)"/><path d="M-.51 1.316A.25.25 0 0 0-.635 1.1" style="fill:none;stroke:red;stroke-width:.02" transform="matrix(30 0 0 30 131.303 271.829)"/><path d="m0 0 .76 1.316m0 0H-.76M0 0l-.76 1.316" style="fill:none;stroke:rgba(255,255,255,.2);stroke-width:.01" transform="matrix(30 0 0 30 131.303 271.829)"/><circle r=".06" style="fill:#222;stroke:rgba(255,255,255,.2);stroke-width:.02" transform="matrix(30 0 0 30 131.303 271.829)"/><circle r=".06" style="fill:#222;stroke:rgba(255,255,255,.2);stroke-width:.02" transform="matrix(30 0 0 30 154.098 311.311)"/><circle r=".06" style="fill:#222;stroke:rgba(255,255,255,.2);stroke-width:.02" transform="matrix(30 0 0 30 108.508 311.311)"/><text xml:space="preserve" dominant-baseline="alphabetic" font-family="Helvetica, Arial, sans-serif" font-size="25" lengthAdjust="spacingAndGlyphs" style="fill:rgba(255,255,255,.8)" text-rendering="geometricPrecision" textLength="13.904" transform="translate(124.83 306.064)scale(.93103)">1</text><path d="m0 0 .76 1.316" style="fill:none;stroke:red;stroke-width:.05;stroke-linecap:round" transform="matrix(30 0 0 30 131.303 271.829)"/><path d="m0 0 .76 1.316H-.76z" style="fill:#000" transform="matrix(30 0 0 30 39.895 335.511)"/><path d="M.635 1.1a.25.25 0 0 0-.125.216m-1.02 0A.25.25 0 0 0-.635 1.1" style="fill:none;stroke:red;stroke-width:.02" transform="matrix(30 0 0 30 39.895 335.511)"/><path d="m0 0 .76 1.316m0 0H-.76M0 0l-.76 1.316" style="fill:none;stroke:rgba(255,255,255,.2);stroke-width:.01" transform="matrix(30 0 0 30 39.895 335.511)"/><circle r=".06" style="fill:#222;stroke:rgba(255,255,255,.2);stroke-width:.02" transform="matrix(30 0 0 30 39.895 335.511)"/><circle r=".06" style="fill:#222;stroke:rgba(255,255,255,.2);stroke-width:.02" transform="matrix(30 0 0 30 62.69 374.993)"/><circle r=".06" style="fill:#222;stroke:rgba(255,255,255,.2);stroke-width:.02" transform="matrix(30 0 0 30 17.1 374.993)"/><text xml:space="preserve" dominant-baseline="alphabetic" font-family="Helvetica, Arial, sans-serif" font-size="25" lengthAdjust="spacingAndGlyphs" style="fill:rgba(255,255,255,.2)" text-rendering="geometricPrecision" textLength="13.904" transform="translate(33.423 369.746)scale(.93103)">?</text><path d="M0 .5h13v3L20 0l-7-3.5v3H0z" style="fill:#ccc;stroke:#ccc" transform="translate(75.29 355.252)"/><path d="m0 0 .76 1.316H-.76z" style="fill:#000" transform="matrix(30 0 0 30 131.303 335.511)"/><path d="M.635 1.1a.25.25 0 0 0-.125.216m-1.02 0A.25.25 0 0 0-.635 1.1" style="fill:none;stroke:red;stroke-width:.02" transform="matrix(30 0 0 30 131.303 335.511)"/><path d="M-.11.19a.22.22 0 0 0 .22 0m-.25.052a.28.28 0 0 0 .28 0" style="fill:none;stroke:#08a4d9;stroke-width:.02" transform="matrix(30 0 0 30 131.303 335.511)"/><path d="m0 0 .76 1.316m0 0H-.76M0 0l-.76 1.316" style="fill:none;stroke:rgba(255,255,255,.2);stroke-width:.01" transform="matrix(30 0 0 30 131.303 335.511)"/><circle r=".06" style="fill:#222;stroke:rgba(255,255,255,.2);stroke-width:.02" transform="matrix(30 0 0 30 131.303 335.511)"/><circle r=".06" style="fill:#222;stroke:rgba(255,255,255,.2);stroke-width:.02" transform="matrix(30 0 0 30 154.098 374.993)"/><circle r=".06" style="fill:#222;stroke:rgba(255,255,255,.2);stroke-width:.02" transform="matrix(30 0 0 30 108.508 374.993)"/><text xml:space="preserve" dominant-baseline="alphabetic" font-family="Helvetica, Arial, sans-serif" font-size="25" lengthAdjust="spacingAndGlyphs" style="fill:rgba(255,255,255,.2)" text-rendering="geometricPrecision" textLength="13.904" transform="translate(124.83 369.746)scale(.93103)">?</text><path d="m0 0 .76 1.316H-.76z" style="fill:#000" transform="matrix(30 0 0 30 39.895 399.193)"/><path d="M.65 1.126a.22.22 0 0 0-.11.19m.08-.242a.28.28 0 0 0-.14.242m-1.02 0a.22.22 0 0 0-.11-.19m.17.19a.28.28 0 0 0-.14-.242" style="fill:none;stroke:#08a4d9;stroke-width:.02" transform="matrix(30 0 0 30 39.895 399.193)"/><path d="m0 0 .76 1.316m0 0H-.76M0 0l-.76 1.316" style="fill:none;stroke:rgba(255,255,255,.2);stroke-width:.01" transform="matrix(30 0 0 30 39.895 399.193)"/><circle r=".06" style="fill:#222;stroke:rgba(255,255,255,.2);stroke-width:.02" transform="matrix(30 0 0 30 39.895 399.193)"/><circle r=".06" style="fill:#222;stroke:rgba(255,255,255,.2);stroke-width:.02" transform="matrix(30 0 0 30 62.69 438.676)"/><circle r=".06" style="fill:#222;stroke:rgba(255,255,255,.2);stroke-width:.02" transform="matrix(30 0 0 30 17.1 438.676)"/><text xml:space="preserve" dominant-baseline="alphabetic" font-family="Helvetica, Arial, sans-serif" font-size="25" lengthAdjust="spacingAndGlyphs" style="fill:rgba(255,255,255,.2)" text-rendering="geometricPrecision" textLength="13.904" transform="translate(33.423 433.429)scale(.93103)">?</text><path d="M0 .5h13v3L20 0l-7-3.5v3H0z" style="fill:#ccc;stroke:#ccc" transform="translate(75.29 418.934)"/><path d="m0 0 .76 1.316H-.76z" style="fill:#000" transform="matrix(30 0 0 30 131.303 399.193)"/><path d="M.65 1.126a.22.22 0 0 0-.11.19m.08-.242a.28.28 0 0 0-.14.242m-1.02 0a.22.22 0 0 0-.11-.19m.17.19a.28.28 0 0 0-.14-.242M-.11.19a.22.22 0 0 0 .22 0m-.25.052a.28.28 0 0 0 .28 0" style="fill:none;stroke:#08a4d9;stroke-width:.02" transform="matrix(30 0 0 30 131.303 399.193)"/><path d="m0 0 .76 1.316m0 0H-.76M0 0l-.76 1.316" style="fill:none;stroke:rgba(255,255,255,.2);stroke-width:.01" transform="matrix(30 0 0 30 131.303 399.193)"/><circle r=".06" style="fill:#222;stroke:rgba(255,255,255,.2);stroke-width:.02" transform="matrix(30 0 0 30 131.303 399.193)"/><circle r=".06" style="fill:#222;stroke:rgba(255,255,255,.2);stroke-width:.02" transform="matrix(30 0 0 30 154.098 438.676)"/><circle r=".06" style="fill:#222;stroke:rgba(255,255,255,.2);stroke-width:.02" transform="matrix(30 0 0 30 108.508 438.676)"/><text xml:space="preserve" dominant-baseline="alphabetic" font-family="Helvetica, Arial, sans-serif" font-size="25" lengthAdjust="spacingAndGlyphs" style="fill:rgba(255,255,255,.2)" text-rendering="geometricPrecision" textLength="13.904" transform="translate(124.83 433.429)scale(.93103)">?</text><path d="m0 0 .76 1.316H-.76z" style="fill:#000" transform="matrix(30 0 0 30 39.895 462.876)"/><path d="M.635 1.1a.25.25 0 0 0-.125.216" style="fill:none;stroke:#e07c1f;stroke-width:.02;stroke-dasharray:.03,.03;stroke-dashoffset:0" transform="matrix(30 0 0 30 39.895 462.876)"/><path d="M-.54 1.316a.22.22 0 0 0-.11-.19m.17.19a.28.28 0 0 0-.14-.242" style="fill:none;stroke:#08a4d9;stroke-width:.02" transform="matrix(30 0 0 30 39.895 462.876)"/><path d="m0 0 .76 1.316m0 0H-.76M0 0l-.76 1.316" style="fill:none;stroke:rgba(255,255,255,.2);stroke-width:.01" transform="matrix(30 0 0 30 39.895 462.876)"/><circle r=".06" style="fill:#222;stroke:rgba(255,255,255,.2);stroke-width:.02" transform="matrix(30 0 0 30 39.895 462.876)"/><circle r=".06" style="fill:#222;stroke:rgba(255,255,255,.2);stroke-width:.02" transform="matrix(30 0 0 30 62.69 502.358)"/><circle r=".06" style="fill:#222;stroke:rgba(255,255,255,.2);stroke-width:.02" transform="matrix(30 0 0 30 17.1 502.358)"/><text xml:space="preserve" dominant-baseline="alphabetic" font-family="Helvetica, Arial, sans-serif" font-size="25" lengthAdjust="spacingAndGlyphs" style="fill:rgba(255,255,255,.2)" text-rendering="geometricPrecision" textLength="13.904" transform="translate(33.423 497.11)scale(.93103)">?</text><path d="M0 .5h13v3L20 0l-7-3.5v3H0z" style="fill:#ccc;stroke:#ccc" transform="translate(75.29 482.617)"/><path d="m0 0 .76 1.316H-.76z" style="fill:#000" transform="matrix(30 0 0 30 131.303 462.876)"/><path d="M.635 1.1a.25.25 0 0 0-.125.216" style="fill:none;stroke:#e07c1f;stroke-width:.02;stroke-dasharray:.03,.03;stroke-dashoffset:0" transform="matrix(30 0 0 30 131.303 462.876)"/><path d="M-.54 1.316a.22.22 0 0 0-.11-.19m.17.19a.28.28 0 0 0-.14-.242" style="fill:none;stroke:#08a4d9;stroke-width:.02" transform="matrix(30 0 0 30 131.303 462.876)"/><path d="M-.125.217a.25.25 0 0 0 .25 0" style="fill:none;stroke:#e07c1f;stroke-width:.02;stroke-dasharray:.03,.03;stroke-dashoffset:0" transform="matrix(30 0 0 30 131.303 462.876)"/><path d="m0 0 .76 1.316m0 0H-.76M0 0l-.76 1.316" style="fill:none;stroke:rgba(255,255,255,.2);stroke-width:.01" transform="matrix(30 0 0 30 131.303 462.876)"/><circle r=".06" style="fill:#222;stroke:rgba(255,255,255,.2);stroke-width:.02" transform="matrix(30 0 0 30 131.303 462.876)"/><circle r=".06" style="fill:#222;stroke:rgba(255,255,255,.2);stroke-width:.02" transform="matrix(30 0 0 30 154.098 502.358)"/><circle r=".06" style="fill:#222;stroke:rgba(255,255,255,.2);stroke-width:.02" transform="matrix(30 0 0 30 108.508 502.358)"/><text xml:space="preserve" dominant-baseline="alphabetic" font-family="Helvetica, Arial, sans-serif" font-size="25" lengthAdjust="spacingAndGlyphs" style="fill:rgba(255,255,255,.2)" text-rendering="geometricPrecision" textLength="13.904" transform="translate(124.83 497.11)scale(.93103)">?</text><path d="m0 0 .76 1.316H-.76z" style="fill:#000" transform="matrix(30 0 0 30 39.895 526.558)"/><path d="M.65 1.126a.22.22 0 0 0-.11.19m.08-.242a.28.28 0 0 0-.14.242" style="fill:none;stroke:#08a4d9;stroke-width:.02" transform="matrix(30 0 0 30 39.895 526.558)"/><path d="M-.54 1.316a.22.22 0 0 0-.11-.19m.17.19a.28.28 0 0 0-.14-.242" style="fill:none;stroke:#2a892a;stroke-width:.02;stroke-dasharray:.03,.03;stroke-dashoffset:0" transform="matrix(30 0 0 30 39.895 526.558)"/><path d="m0 0 .76 1.316m0 0H-.76M0 0l-.76 1.316" style="fill:none;stroke:rgba(255,255,255,.2);stroke-width:.01" transform="matrix(30 0 0 30 39.895 526.558)"/><circle r=".06" style="fill:#222;stroke:rgba(255,255,255,.2);stroke-width:.02" transform="matrix(30 0 0 30 39.895 526.558)"/><circle r=".06" style="fill:#222;stroke:rgba(255,255,255,.2);stroke-width:.02" transform="matrix(30 0 0 30 62.69 566.04)"/><circle r=".06" style="fill:#222;stroke:rgba(255,255,255,.2);stroke-width:.02" transform="matrix(30 0 0 30 17.1 566.04)"/><text xml:space="preserve" dominant-baseline="alphabetic" font-family="Helvetica, Arial, sans-serif" font-size="25" lengthAdjust="spacingAndGlyphs" style="fill:rgba(255,255,255,.2)" text-rendering="geometricPrecision" textLength="13.904" transform="translate(33.423 560.793)scale(.93103)">?</text><path d="M0 .5h13v3L20 0l-7-3.5v3H0z" style="fill:#ccc;stroke:#ccc" transform="translate(75.29 546.299)"/><path d="m0 0 .76 1.316H-.76z" style="fill:#000" transform="matrix(30 0 0 30 131.303 526.558)"/><path d="M.65 1.126a.22.22 0 0 0-.11.19m.08-.242a.28.28 0 0 0-.14.242" style="fill:none;stroke:#08a4d9;stroke-width:.02" transform="matrix(30 0 0 30 131.303 526.558)"/><path d="M-.54 1.316a.22.22 0 0 0-.11-.19m.17.19a.28.28 0 0 0-.14-.242M-.11.19a.22.22 0 0 0 .22 0m-.25.052a.28.28 0 0 0 .28 0" style="fill:none;stroke:#2a892a;stroke-width:.02;stroke-dasharray:.03,.03;stroke-dashoffset:0" transform="matrix(30 0 0 30 131.303 526.558)"/><path d="m0 0 .76 1.316m0 0H-.76M0 0l-.76 1.316" style="fill:none;stroke:rgba(255,255,255,.2);stroke-width:.01" transform="matrix(30 0 0 30 131.303 526.558)"/><circle r=".06" style="fill:#222;stroke:rgba(255,255,255,.2);stroke-width:.02" transform="matrix(30 0 0 30 131.303 526.558)"/><circle r=".06" style="fill:#222;stroke:rgba(255,255,255,.2);stroke-width:.02" transform="matrix(30 0 0 30 154.098 566.04)"/><circle r=".06" style="fill:#222;stroke:rgba(255,255,255,.2);stroke-width:.02" transform="matrix(30 0 0 30 108.508 566.04)"/><text xml:space="preserve" dominant-baseline="alphabetic" font-family="Helvetica, Arial, sans-serif" font-size="25" lengthAdjust="spacingAndGlyphs" style="fill:rgba(255,255,255,.2)" text-rendering="geometricPrecision" textLength="13.904" transform="translate(124.83 560.793)scale(.93103)">?</text><path d="m0 0 .76 1.316H-.76z" style="fill:#000" transform="matrix(30 0 0 30 39.895 590.24)"/><path d="M.635 1.1a.25.25 0 0 0-.125.216m-1.02 0A.25.25 0 0 0-.635 1.1" style="fill:none;stroke:#e07c1f;stroke-width:.02;stroke-dasharray:.03,.03;stroke-dashoffset:0" transform="matrix(30 0 0 30 39.895 590.24)"/><path d="M-.11.19a.22.22 0 0 0 .22 0m-.25.052a.28.28 0 0 0 .28 0" style="fill:none;stroke:#2a892a;stroke-width:.02;stroke-dasharray:.03,.03;stroke-dashoffset:0" transform="matrix(30 0 0 30 39.895 590.24)"/><path d="m0 0 .76 1.316m0 0H-.76M0 0l-.76 1.316" style="fill:none;stroke:rgba(255,255,255,.2);stroke-width:.01" transform="matrix(30 0 0 30 39.895 590.24)"/><circle r=".06" style="fill:#222;stroke:rgba(255,255,255,.2);stroke-width:.02" transform="matrix(30 0 0 30 39.895 590.24)"/><circle r=".06" style="fill:#222;stroke:rgba(255,255,255,.2);stroke-width:.02" transform="matrix(30 0 0 30 62.69 629.722)"/><circle r=".06" style="fill:#222;stroke:rgba(255,255,255,.2);stroke-width:.02" transform="matrix(30 0 0 30 17.1 629.722)"/><text xml:space="preserve" dominant-baseline="alphabetic" font-family="Helvetica, Arial, sans-serif" font-size="25" lengthAdjust="spacingAndGlyphs" style="fill:rgba(255,255,255,.2)" text-rendering="geometricPrecision" textLength="13.904" transform="translate(33.423 624.475)scale(.93103)">?</text><path d="M0 .5h13v3L20 0l-7-3.5v3H0z" style="fill:#ccc;stroke:#ccc" transform="translate(75.29 609.981)"/><path d="m0 0 .76 1.316H-.76z" style="fill:#000" transform="matrix(30 0 0 30 131.303 590.24)"/><path d="M-.11.19a.22.22 0 0 0 .22 0m-.25.052a.28.28 0 0 0 .28 0" style="fill:none;stroke:#2a892a;stroke-width:.02;stroke-dasharray:.03,.03;stroke-dashoffset:0" transform="matrix(30 0 0 30 131.303 590.24)"/><path d="m0 0 .76 1.316m0 0H-.76M0 0l-.76 1.316" style="fill:none;stroke:rgba(255,255,255,.2);stroke-width:.01" transform="matrix(30 0 0 30 131.303 590.24)"/><circle r=".06" style="fill:#222;stroke:rgba(255,255,255,.2);stroke-width:.02" transform="matrix(30 0 0 30 131.303 590.24)"/><circle r=".06" style="fill:#222;stroke:rgba(255,255,255,.2);stroke-width:.02" transform="matrix(30 0 0 30 154.098 629.722)"/><circle r=".06" style="fill:#222;stroke:rgba(255,255,255,.2);stroke-width:.02" transform="matrix(30 0 0 30 108.508 629.722)"/><text xml:space="preserve" dominant-baseline="alphabetic" font-family="Helvetica, Arial, sans-serif" font-size="25" lengthAdjust="spacingAndGlyphs" style="fill:rgba(255,255,255,.2)" text-rendering="geometricPrecision" textLength="13.904" transform="translate(124.83 624.475)scale(.93103)">?</text><path d="M.76 1.316H-.76" style="fill:none;stroke:red;stroke-width:.05;stroke-linecap:round" transform="matrix(30 0 0 30 131.303 590.24)"/><path d="m0 0 .76 1.316H-.76z" style="fill:#000" transform="matrix(30 0 0 30 39.895 653.922)"/><path d="M.635 1.1a.25.25 0 0 0-.125.216" style="fill:none;stroke:#e07c1f;stroke-width:.02;stroke-dasharray:.03,.03;stroke-dashoffset:0" transform="matrix(30 0 0 30 39.895 653.922)"/><path d="M-.54 1.316a.22.22 0 0 0-.11-.19m.17.19a.28.28 0 0 0-.14-.242M-.11.19a.22.22 0 0 0 .22 0m-.25.052a.28.28 0 0 0 .28 0" style="fill:none;stroke:#2a892a;stroke-width:.02;stroke-dasharray:.03,.03;stroke-dashoffset:0" transform="matrix(30 0 0 30 39.895 653.922)"/><path d="m0 0 .76 1.316m0 0H-.76M0 0l-.76 1.316" style="fill:none;stroke:rgba(255,255,255,.2);stroke-width:.01" transform="matrix(30 0 0 30 39.895 653.922)"/><circle r=".06" style="fill:#222;stroke:rgba(255,255,255,.2);stroke-width:.02" transform="matrix(30 0 0 30 39.895 653.922)"/><circle r=".06" style="fill:#222;stroke:rgba(255,255,255,.2);stroke-width:.02" transform="matrix(30 0 0 30 62.69 693.404)"/><circle r=".06" style="fill:#222;stroke:rgba(255,255,255,.2);stroke-width:.02" transform="matrix(30 0 0 30 17.1 693.404)"/><text xml:space="preserve" dominant-baseline="alphabetic" font-family="Helvetica, Arial, sans-serif" font-size="25" lengthAdjust="spacingAndGlyphs" style="fill:rgba(255,255,255,.2)" text-rendering="geometricPrecision" textLength="13.904" transform="translate(33.423 688.157)scale(.93103)">?</text><path d="M0 .5h13v3L20 0l-7-3.5v3H0z" style="fill:#ccc;stroke:#ccc" transform="translate(75.29 673.663)"/><path d="m0 0 .76 1.316H-.76z" style="fill:#000" transform="matrix(30 0 0 30 131.303 653.922)"/><path d="M.635 1.1a.25.25 0 0 0-.125.216" style="fill:none;stroke:#e07c1f;stroke-width:.02;stroke-dasharray:.03,.03;stroke-dashoffset:0" transform="matrix(30 0 0 30 131.303 653.922)"/><path d="m0 0 .76 1.316m0 0H-.76M0 0l-.76 1.316" style="fill:none;stroke:rgba(255,255,255,.2);stroke-width:.01" transform="matrix(30 0 0 30 131.303 653.922)"/><circle r=".06" style="fill:#222;stroke:rgba(255,255,255,.2);stroke-width:.02" transform="matrix(30 0 0 30 131.303 653.922)"/><circle r=".06" style="fill:#222;stroke:rgba(255,255,255,.2);stroke-width:.02" transform="matrix(30 0 0 30 154.098 693.404)"/><circle r=".06" style="fill:#222;stroke:rgba(255,255,255,.2);stroke-width:.02" transform="matrix(30 0 0 30 108.508 693.404)"/><text xml:space="preserve" dominant-baseline="alphabetic" font-family="Helvetica, Arial, sans-serif" font-size="25" lengthAdjust="spacingAndGlyphs" style="fill:rgba(255,255,255,.2)" text-rendering="geometricPrecision" textLength="13.904" transform="translate(124.83 688.157)scale(.93103)">?</text><path d="m0 0-.76 1.316" style="fill:none;stroke:#fff;stroke-width:.1;stroke-linecap:round" transform="matrix(30 0 0 30 131.303 653.922)"/></svg>