<svg xmlns="http://www.w3.org/2000/svg" width="261" height="272" aria-hidden="true" style="pointer-events:none;position:absolute;left:0;top:0;transform-origin:left top;z-index:20"><rect width="251" height="262" rx="0" ry="0" style="fill:#333"/><path d="M-.76 0 0-1.316.76 0zm-1.316.76L-.76 0 0 1.316l-1.316.76z" style="fill:#000" transform="matrix(30 0 0 30 79.377 56.582)"/><path d="M-.11-1.126a.22.22 0 0 0 .22 0m-.25.052a.28.28 0 0 0 .28 0m.51.884A.22.22 0 0 0 .54 0m.08-.242A.28.28 0 0 0 .48 0M-.54 0a.22.22 0 0 0-.11-.19m.17.19a.28.28 0 0 0-.14-.242" style="fill:none;stroke:#2a892a;stroke-width:.02;stroke-dasharray:.03,.03;stroke-dashoffset:0" transform="matrix(30 0 0 30 79.377 56.582)"/><path d="M-.76 0 0-1.316m0 0L.76 0M-.76 0H.76M-.76 0l-1.316.76M-.76 0 0 1.316m0 0-1.316.76M-2.076.76l.76 1.316" style="fill:none;stroke:rgba(255,255,255,.2);stroke-width:.01" transform="matrix(30 0 0 30 79.377 56.582)"/><circle r=".06" style="fill:#222;stroke:rgba(255,255,255,.2);stroke-width:.02" transform="matrix(30 0 0 30 56.582 56.582)"/><circle r=".06" style="fill:#222;stroke:rgba(255,255,255,.2);stroke-width:.02" transform="matrix(30 0 0 30 79.377 17.1)"/><circle r=".06" style="fill:#222;stroke:rgba(255,255,255,.2);stroke-width:.02" transform="matrix(30 0 0 30 102.172 56.582)"/><circle r=".06" style="fill:#222;stroke:rgba(255,255,255,.2);stroke-width:.02" transform="matrix(30 0 0 30 17.1 79.377)"/><circle r=".06" style="fill:#222;stroke:rgba(255,255,255,.2);stroke-width:.02" transform="matrix(30 0 0 30 79.377 96.064)"/><circle r=".06" style="fill:#222;stroke:rgba(255,255,255,.2);stroke-width:.02" transform="matrix(30 0 0 30 39.895 118.86)"/><text xml:space="preserve" dominant-baseline="alphabetic" font-family="Helvetica, Arial, sans-serif" font-size="25" lengthAdjust="spacingAndGlyphs" style="fill:rgba(255,255,255,.8)" text-rendering="geometricPrecision" textLength="13.904" transform="translate(72.905 51.335)scale(.93103)">2</text><text xml:space="preserve" dominant-baseline="alphabetic" font-family="Helvetica, Arial, sans-serif" font-size="25" lengthAdjust="spacingAndGlyphs" style="fill:rgba(255,255,255,.2)" text-rendering="geometricPrecision" textLength="13.904" transform="translate(41.766 95.635)scale(.93103)">?</text><path d="m-.76 0-1.316.76M0 1.316l-1.316.76" style="fill:none;stroke:red;stroke-width:.05;stroke-linecap:round" transform="matrix(30 0 0 30 79.377 56.582)"/><path d="M-.76 0 0 1.316" style="fill:none;stroke:#fff;stroke-width:.1;stroke-linecap:round" transform="matrix(30 0 0 30 79.377 56.582)"/><path d="M0 .5h13v3L20 0l-7-3.5v3H0z" style="fill:#ccc;stroke:#ccc" transform="translate(114.772 67.98)"/><path d="M-.76 0 0-1.316.76 0zm-1.316.76L-.76 0 0 1.316l-1.316.76z" style="fill:#000" transform="matrix(30 0 0 30 210.268 56.582)"/><path d="M-.51 0a.25.25 0 0 0-.125-.217" style="fill:none;stroke:red;stroke-width:.02" transform="matrix(30 0 0 30 210.268 56.582)"/><path d="M-.76 0 0-1.316m0 0L.76 0M-.76 0H.76M-.76 0l-1.316.76M-.76 0 0 1.316m0 0-1.316.76M-2.076.76l.76 1.316" style="fill:none;stroke:rgba(255,255,255,.2);stroke-width:.01" transform="matrix(30 0 0 30 210.268 56.582)"/><circle r=".06" style="fill:#222;stroke:rgba(255,255,255,.2);stroke-width:.02" transform="matrix(30 0 0 30 187.473 56.582)"/><circle r=".06" style="fill:#222;stroke:rgba(255,255,255,.2);stroke-width:.02" transform="matrix(30 0 0 30 210.268 17.1)"/><circle r=".06" style="fill:#222;stroke:rgba(255,255,255,.2);stroke-width:.02" transform="matrix(30 0 0 30 233.063 56.582)"/><circle r=".06" style="fill:#222;stroke:rgba(255,255,255,.2);stroke-width:.02" transform="matrix(30 0 0 30 147.99 79.377)"/><circle r=".06" style="fill:#222;stroke:rgba(255,255,255,.2);stroke-width:.02" transform="matrix(30 0 0 30 210.268 96.064)"/><circle r=".06" style="fill:#222;stroke:rgba(255,255,255,.2);stroke-width:.02" transform="matrix(30 0 0 30 170.785 118.86)"/><text xml:space="preserve" dominant-baseline="alphabetic" font-family="Helvetica, Arial, sans-serif" font-size="25" lengthAdjust="spacingAndGlyphs" style="fill:rgba(255,255,255,.8)" text-rendering="geometricPrecision" textLength="13.904" transform="translate(203.795 51.335)scale(.93103)">2</text><text xml:space="preserve" dominant-baseline="alphabetic" font-family="Helvetica, Arial, sans-serif" font-size="25" lengthAdjust="spacingAndGlyphs" style="fill:rgba(255,255,255,.2)" text-rendering="geometricPrecision" textLength="13.904" transform="translate(172.657 95.635)scale(.93103)">?</text><circle r=".12" style="fill:none;stroke:red;stroke-width:.03" transform="matrix(30 0 0 30 187.473 56.582)"/><path d="m-.76 0-1.316.76M0 1.316l-1.316.76" style="fill:none;stroke:red;stroke-width:.05;stroke-linecap:round" transform="matrix(30 0 0 30 210.268 56.582)"/><path d="M0-1.316.76 0M-.76 0 0 1.316" style="fill:none;stroke:#fff;stroke-width:.1;stroke-linecap:round" transform="matrix(30 0 0 30 210.268 56.582)"/><path d="M-.76 0 0-1.316.76 0zm-1.316.76L-.76 0 0 1.316l-1.316.76z" style="fill:#000" transform="matrix(30 0 0 30 79.377 182.542)"/><path d="M-.11-1.126a.22.22 0 0 0 .22 0m-.25.052a.28.28 0 0 0 .28 0m.51.884A.22.22 0 0 0 .54 0m.08-.242A.28.28 0 0 0 .48 0M-.54 0a.22.22 0 0 0-.11-.19m.17.19a.28.28 0 0 0-.14-.242" style="fill:none;stroke:#2a892a;stroke-width:.02;stroke-dasharray:.03,.03;stroke-dashoffset:0" transform="matrix(30 0 0 30 79.377 182.542)"/><path d="M-.76 0 0-1.316m0 0L.76 0M-.76 0H.76M-.76 0l-1.316.76M-.76 0 0 1.316m0 0-1.316.76M-2.076.76l.76 1.316" style="fill:none;stroke:rgba(255,255,255,.2);stroke-width:.01" transform="matrix(30 0 0 30 79.377 182.542)"/><circle r=".06" style="fill:#222;stroke:rgba(255,255,255,.2);stroke-width:.02" transform="matrix(30 0 0 30 56.582 182.542)"/><circle r=".06" style="fill:#222;stroke:rgba(255,255,255,.2);stroke-width:.02" transform="matrix(30 0 0 30 79.377 143.06)"/><circle r=".06" style="fill:#222;stroke:rgba(255,255,255,.2);stroke-width:.02" transform="matrix(30 0 0 30 102.172 182.542)"/><circle r=".06" style="fill:#222;stroke:rgba(255,255,255,.2);stroke-width:.02" transform="matrix(30 0 0 30 17.1 205.337)"/><circle r=".06" style="fill:#222;stroke:rgba(255,255,255,.2);stroke-width:.02" transform="matrix(30 0 0 30 79.377 222.024)"/><circle r=".06" style="fill:#222;stroke:rgba(255,255,255,.2);stroke-width:.02" transform="matrix(30 0 0 30 39.895 244.819)"/><text xml:space="preserve" dominant-baseline="alphabetic" font-family="Helvetica, Arial, sans-serif" font-size="25" lengthAdjust="spacingAndGlyphs" style="fill:rgba(255,255,255,.8)" text-rendering="geometricPrecision" textLength="13.904" transform="translate(72.905 177.295)scale(.93103)">2</text><text xml:space="preserve" dominant-baseline="alphabetic" font-family="Helvetica, Arial, sans-serif" font-size="25" lengthAdjust="spacingAndGlyphs" style="fill:rgba(255,255,255,.2)" text-rendering="geometricPrecision" textLength="13.904" transform="translate(41.766 221.594)scale(.93103)">?</text><path d="M-.76 0 0 1.316M-2.076.76l.76 1.316" style="fill:none;stroke:red;stroke-width:.05;stroke-linecap:round" transform="matrix(30 0 0 30 79.377 182.542)"/><path d="m-.76 0-1.316.76" style="fill:none;stroke:#fff;stroke-width:.1;stroke-linecap:round" transform="matrix(30 0 0 30 79.377 182.542)"/><path d="M0 .5h13v3L20 0l-7-3.5v3H0z" style="fill:#ccc;stroke:#ccc" transform="translate(114.772 193.94)"/><path d="M-.76 0 0-1.316.76 0zm-1.316.76L-.76 0 0 1.316l-1.316.76z" style="fill:#000" transform="matrix(30 0 0 30 210.268 182.542)"/><path d="M-.51 0a.25.25 0 0 0-.125-.217" style="fill:none;stroke:red;stroke-width:.02" transform="matrix(30 0 0 30 210.268 182.542)"/><path d="M-.76 0 0-1.316m0 0L.76 0M-.76 0H.76M-.76 0l-1.316.76M-.76 0 0 1.316m0 0-1.316.76M-2.076.76l.76 1.316" style="fill:none;stroke:rgba(255,255,255,.2);stroke-width:.01" transform="matrix(30 0 0 30 210.268 182.542)"/><circle r=".06" style="fill:#222;stroke:rgba(255,255,255,.2);stroke-width:.02" transform="matrix(30 0 0 30 187.473 182.542)"/><circle r=".06" style="fill:#222;stroke:rgba(255,255,255,.2);stroke-width:.02" transform="matrix(30 0 0 30 210.268 143.06)"/><circle r=".06" style="fill:#222;stroke:rgba(255,255,255,.2);stroke-width:.02" transform="matrix(30 0 0 30 233.063 182.542)"/><circle r=".06" style="fill:#222;stroke:rgba(255,255,255,.2);stroke-width:.02" transform="matrix(30 0 0 30 147.99 205.337)"/><circle r=".06" style="fill:#222;stroke:rgba(255,255,255,.2);stroke-width:.02" transform="matrix(30 0 0 30 210.268 222.024)"/><circle r=".06" style="fill:#222;stroke:rgba(255,255,255,.2);stroke-width:.02" transform="matrix(30 0 0 30 170.785 244.819)"/><text xml:space="preserve" dominant-baseline="alphabetic" font-family="Helvetica, Arial, sans-serif" font-size="25" lengthAdjust="spacingAndGlyphs" style="fill:rgba(255,255,255,.8)" text-rendering="geometricPrecision" textLength="13.904" transform="translate(203.795 177.295)scale(.93103)">2</text><text xml:space="preserve" dominant-baseline="alphabetic" font-family="Helvetica, Arial, sans-serif" font-size="25" lengthAdjust="spacingAndGlyphs" style="fill:rgba(255,255,255,.2)" text-rendering="geometricPrecision" textLength="13.904" transform="translate(172.657 221.594)scale(.93103)">?</text><circle r=".12" style="fill:none;stroke:red;stroke-width:.03" transform="matrix(30 0 0 30 187.473 182.542)"/><path d="M-.76 0 0 1.316M-2.076.76l.76 1.316" style="fill:none;stroke:red;stroke-width:.05;stroke-linecap:round" transform="matrix(30 0 0 30 210.268 182.542)"/><path d="M0-1.316.76 0M-.76 0l-1.316.76" style="fill:none;stroke:#fff;stroke-width:.1;stroke-linecap:round" transform="matrix(30 0 0 30 210.268 182.542)"/></svg>