<svg xmlns="http://www.w3.org/2000/svg" width="227" height="1052" aria-hidden="true" style="pointer-events:none;position:absolute;left:0;top:0;transform-origin:left top;z-index:20"><rect width="217" height="1042" rx="0" ry="0" style="fill:#333"/><path d="m0 0 .76 1.316H-.76zm-.76-1.316L0 0h-1.52z" style="fill:#000" transform="matrix(30 0 0 30 62.69 56.582)"/><path d="m0 0 .76 1.316m0 0H-.76M0 0l-.76 1.316M0 0l-.76-1.316M0 0h-1.52m.76-1.316L-1.52 0" style="fill:none;stroke:rgba(255,255,255,.2);stroke-width:.01" transform="matrix(30 0 0 30 62.69 56.582)"/><circle r=".06" style="fill:#222;stroke:rgba(255,255,255,.2);stroke-width:.02" transform="matrix(30 0 0 30 62.69 56.582)"/><circle r=".06" style="fill:#222;stroke:rgba(255,255,255,.2);stroke-width:.02" transform="matrix(30 0 0 30 85.485 96.064)"/><circle r=".06" style="fill:#222;stroke:rgba(255,255,255,.2);stroke-width:.02" transform="matrix(30 0 0 30 39.895 96.064)"/><circle r=".06" style="fill:#222;stroke:rgba(255,255,255,.2);stroke-width:.02" transform="matrix(30 0 0 30 39.895 17.1)"/><circle r=".06" style="fill:#222;stroke:rgba(255,255,255,.2);stroke-width:.02" transform="matrix(30 0 0 30 17.1 56.582)"/><text xml:space="preserve" dominant-baseline="alphabetic" font-family="Helvetica, Arial, sans-serif" font-size="25" lengthAdjust="spacingAndGlyphs" style="fill:rgba(255,255,255,.8)" text-rendering="geometricPrecision" textLength="13.904" transform="translate(56.218 90.817)scale(.93103)">2</text><text xml:space="preserve" dominant-baseline="alphabetic" font-family="Helvetica, Arial, sans-serif" font-size="25" lengthAdjust="spacingAndGlyphs" style="fill:rgba(255,255,255,.8)" text-rendering="geometricPrecision" textLength="13.904" transform="translate(33.423 51.335)scale(.93103)">2</text><path d="M0 .5h13v3L20 0l-7-3.5v3H0z" style="fill:#ccc;stroke:#ccc" transform="translate(98.085 56.582)"/><path d="m0 0 .76 1.316H-.76zm-.76-1.316L0 0h-1.52z" style="fill:#000" transform="matrix(30 0 0 30 176.893 56.582)"/><path d="m0 0 .76 1.316m0 0H-.76M0 0l-.76 1.316M0 0l-.76-1.316M0 0h-1.52m.76-1.316L-1.52 0" style="fill:none;stroke:rgba(255,255,255,.2);stroke-width:.01" transform="matrix(30 0 0 30 176.893 56.582)"/><circle r=".06" style="fill:#222;stroke:rgba(255,255,255,.2);stroke-width:.02" transform="matrix(30 0 0 30 176.893 56.582)"/><circle r=".06" style="fill:#222;stroke:rgba(255,255,255,.2);stroke-width:.02" transform="matrix(30 0 0 30 199.688 96.064)"/><circle r=".06" style="fill:#222;stroke:rgba(255,255,255,.2);stroke-width:.02" transform="matrix(30 0 0 30 154.098 96.064)"/><circle r=".06" style="fill:#222;stroke:rgba(255,255,255,.2);stroke-width:.02" transform="matrix(30 0 0 30 154.098 17.1)"/><circle r=".06" style="fill:#222;stroke:rgba(255,255,255,.2);stroke-width:.02" transform="matrix(30 0 0 30 131.303 56.582)"/><text xml:space="preserve" dominant-baseline="alphabetic" font-family="Helvetica, Arial, sans-serif" font-size="25" lengthAdjust="spacingAndGlyphs" style="fill:rgba(255,255,255,.8)" text-rendering="geometricPrecision" textLength="13.904" transform="translate(170.42 90.817)scale(.93103)">2</text><text xml:space="preserve" dominant-baseline="alphabetic" font-family="Helvetica, Arial, sans-serif" font-size="25" lengthAdjust="spacingAndGlyphs" style="fill:rgba(255,255,255,.8)" text-rendering="geometricPrecision" textLength="13.904" transform="translate(147.626 51.335)scale(.93103)">2</text><circle r=".12" style="fill:none;stroke:red;stroke-width:.03" transform="matrix(30 0 0 30 176.893 56.582)"/><path d="M.76 1.316H-.76m0-2.632L-1.52 0" style="fill:none;stroke:#fff;stroke-width:.1;stroke-linecap:round" transform="matrix(30 0 0 30 176.893 56.582)"/><path d="m0 0 .76 1.316H-.76zm-.76-1.316L0 0h-1.52z" style="fill:#000" transform="matrix(30 0 0 30 62.69 159.747)"/><path d="m0 0 .76 1.316m0 0H-.76M0 0l-.76 1.316M0 0l-.76-1.316M0 0h-1.52m.76-1.316L-1.52 0" style="fill:none;stroke:rgba(255,255,255,.2);stroke-width:.01" transform="matrix(30 0 0 30 62.69 159.747)"/><circle r=".06" style="fill:#222;stroke:rgba(255,255,255,.2);stroke-width:.02" transform="matrix(30 0 0 30 62.69 159.747)"/><circle r=".06" style="fill:#222;stroke:rgba(255,255,255,.2);stroke-width:.02" transform="matrix(30 0 0 30 85.485 199.229)"/><circle r=".06" style="fill:#222;stroke:rgba(255,255,255,.2);stroke-width:.02" transform="matrix(30 0 0 30 39.895 199.229)"/><circle r=".06" style="fill:#222;stroke:rgba(255,255,255,.2);stroke-width:.02" transform="matrix(30 0 0 30 39.895 120.264)"/><circle r=".06" style="fill:#222;stroke:rgba(255,255,255,.2);stroke-width:.02" transform="matrix(30 0 0 30 17.1 159.747)"/><text xml:space="preserve" dominant-baseline="alphabetic" font-family="Helvetica, Arial, sans-serif" font-size="25" lengthAdjust="spacingAndGlyphs" style="fill:rgba(255,255,255,.2)" text-rendering="geometricPrecision" textLength="13.904" transform="translate(56.218 193.982)scale(.93103)">?</text><text xml:space="preserve" dominant-baseline="alphabetic" font-family="Helvetica, Arial, sans-serif" font-size="25" lengthAdjust="spacingAndGlyphs" style="fill:rgba(255,255,255,.8)" text-rendering="geometricPrecision" textLength="13.904" transform="translate(33.423 154.5)scale(.93103)">2</text><path d="m0 0 .76 1.316" style="fill:none;stroke:#fff;stroke-width:.1;stroke-linecap:round" transform="matrix(30 0 0 30 62.69 159.747)"/><path d="M0 .5h13v3L20 0l-7-3.5v3H0z" style="fill:#ccc;stroke:#ccc" transform="translate(98.085 159.747)"/><path d="m0 0 .76 1.316H-.76zm-.76-1.316L0 0h-1.52z" style="fill:#000" transform="matrix(30 0 0 30 176.893 159.747)"/><path d="m0 0 .76 1.316m0 0H-.76M0 0l-.76 1.316M0 0l-.76-1.316M0 0h-1.52m.76-1.316L-1.52 0" style="fill:none;stroke:rgba(255,255,255,.2);stroke-width:.01" transform="matrix(30 0 0 30 176.893 159.747)"/><circle r=".06" style="fill:#222;stroke:rgba(255,255,255,.2);stroke-width:.02" transform="matrix(30 0 0 30 176.893 159.747)"/><circle r=".06" style="fill:#222;stroke:rgba(255,255,255,.2);stroke-width:.02" transform="matrix(30 0 0 30 199.688 199.229)"/><circle r=".06" style="fill:#222;stroke:rgba(255,255,255,.2);stroke-width:.02" transform="matrix(30 0 0 30 154.098 199.229)"/><circle r=".06" style="fill:#222;stroke:rgba(255,255,255,.2);stroke-width:.02" transform="matrix(30 0 0 30 154.098 120.264)"/><circle r=".06" style="fill:#222;stroke:rgba(255,255,255,.2);stroke-width:.02" transform="matrix(30 0 0 30 131.303 159.747)"/><text xml:space="preserve" dominant-baseline="alphabetic" font-family="Helvetica, Arial, sans-serif" font-size="25" lengthAdjust="spacingAndGlyphs" style="fill:rgba(255,255,255,.2)" text-rendering="geometricPrecision" textLength="13.904" transform="translate(170.42 193.982)scale(.93103)">?</text><text xml:space="preserve" dominant-baseline="alphabetic" font-family="Helvetica, Arial, sans-serif" font-size="25" lengthAdjust="spacingAndGlyphs" style="fill:rgba(255,255,255,.8)" text-rendering="geometricPrecision" textLength="13.904" transform="translate(147.626 154.5)scale(.93103)">2</text><circle r=".12" style="fill:none;stroke:red;stroke-width:.03" transform="matrix(30 0 0 30 176.893 159.747)"/><path d="m0 0-.76 1.316" style="fill:none;stroke:red;stroke-width:.05;stroke-linecap:round" transform="matrix(30 0 0 30 176.893 159.747)"/><path d="m0 0 .76 1.316M-.76-1.316-1.52 0" style="fill:none;stroke:#fff;stroke-width:.1;stroke-linecap:round" transform="matrix(30 0 0 30 176.893 159.747)"/><path d="m0 0 .76 1.316H-.76zm-.76-1.316L0 0h-1.52z" style="fill:#000" transform="matrix(30 0 0 30 62.69 262.911)"/><path d="m0 0 .76 1.316m0 0H-.76M0 0l-.76 1.316M0 0l-.76-1.316M0 0h-1.52m.76-1.316L-1.52 0" style="fill:none;stroke:rgba(255,255,255,.2);stroke-width:.01" transform="matrix(30 0 0 30 62.69 262.911)"/><circle r=".06" style="fill:#222;stroke:rgba(255,255,255,.2);stroke-width:.02" transform="matrix(30 0 0 30 62.69 262.911)"/><circle r=".06" style="fill:#222;stroke:rgba(255,255,255,.2);stroke-width:.02" transform="matrix(30 0 0 30 85.485 302.393)"/><circle r=".06" style="fill:#222;stroke:rgba(255,255,255,.2);stroke-width:.02" transform="matrix(30 0 0 30 39.895 302.393)"/><circle r=".06" style="fill:#222;stroke:rgba(255,255,255,.2);stroke-width:.02" transform="matrix(30 0 0 30 39.895 223.429)"/><circle r=".06" style="fill:#222;stroke:rgba(255,255,255,.2);stroke-width:.02" transform="matrix(30 0 0 30 17.1 262.911)"/><text xml:space="preserve" dominant-baseline="alphabetic" font-family="Helvetica, Arial, sans-serif" font-size="25" lengthAdjust="spacingAndGlyphs" style="fill:rgba(255,255,255,.8)" text-rendering="geometricPrecision" textLength="13.904" transform="translate(56.218 297.146)scale(.93103)">1</text><text xml:space="preserve" dominant-baseline="alphabetic" font-family="Helvetica, Arial, sans-serif" font-size="25" lengthAdjust="spacingAndGlyphs" style="fill:rgba(255,255,255,.8)" text-rendering="geometricPrecision" textLength="13.904" transform="translate(33.423 257.664)scale(.93103)">2</text><path d="M.76 1.316H-.76" style="fill:none;stroke:red;stroke-width:.05;stroke-linecap:round" transform="matrix(30 0 0 30 62.69 262.911)"/><path d="M0 .5h13v3L20 0l-7-3.5v3H0z" style="fill:#ccc;stroke:#ccc" transform="translate(98.085 262.911)"/><path d="m0 0 .76 1.316H-.76zm-.76-1.316L0 0h-1.52z" style="fill:#000" transform="matrix(30 0 0 30 176.893 262.911)"/><path d="m0 0 .76 1.316m0 0H-.76M0 0l-.76 1.316M0 0l-.76-1.316M0 0h-1.52m.76-1.316L-1.52 0" style="fill:none;stroke:rgba(255,255,255,.2);stroke-width:.01" transform="matrix(30 0 0 30 176.893 262.911)"/><circle r=".06" style="fill:#222;stroke:rgba(255,255,255,.2);stroke-width:.02" transform="matrix(30 0 0 30 176.893 262.911)"/><circle r=".06" style="fill:#222;stroke:rgba(255,255,255,.2);stroke-width:.02" transform="matrix(30 0 0 30 199.688 302.393)"/><circle r=".06" style="fill:#222;stroke:rgba(255,255,255,.2);stroke-width:.02" transform="matrix(30 0 0 30 154.098 302.393)"/><circle r=".06" style="fill:#222;stroke:rgba(255,255,255,.2);stroke-width:.02" transform="matrix(30 0 0 30 154.098 223.429)"/><circle r=".06" style="fill:#222;stroke:rgba(255,255,255,.2);stroke-width:.02" transform="matrix(30 0 0 30 131.303 262.911)"/><text xml:space="preserve" dominant-baseline="alphabetic" font-family="Helvetica, Arial, sans-serif" font-size="25" lengthAdjust="spacingAndGlyphs" style="fill:rgba(255,255,255,.8)" text-rendering="geometricPrecision" textLength="13.904" transform="translate(170.42 297.146)scale(.93103)">1</text><text xml:space="preserve" dominant-baseline="alphabetic" font-family="Helvetica, Arial, sans-serif" font-size="25" lengthAdjust="spacingAndGlyphs" style="fill:rgba(255,255,255,.8)" text-rendering="geometricPrecision" textLength="13.904" transform="translate(147.626 257.664)scale(.93103)">2</text><circle r=".12" style="fill:none;stroke:red;stroke-width:.03" transform="matrix(30 0 0 30 176.893 262.911)"/><path d="M.76 1.316H-.76" style="fill:none;stroke:red;stroke-width:.05;stroke-linecap:round" transform="matrix(30 0 0 30 176.893 262.911)"/><path d="M-.76-1.316-1.52 0" style="fill:none;stroke:#fff;stroke-width:.1;stroke-linecap:round" transform="matrix(30 0 0 30 176.893 262.911)"/><path d="m0 0 .76 1.316H-.76zm-.76-1.316L0 0h-1.52z" style="fill:#000" transform="matrix(30 0 0 30 62.69 366.076)"/><path d="m0 0 .76 1.316m0 0H-.76M0 0l-.76 1.316M0 0l-.76-1.316M0 0h-1.52m.76-1.316L-1.52 0" style="fill:none;stroke:rgba(255,255,255,.2);stroke-width:.01" transform="matrix(30 0 0 30 62.69 366.076)"/><circle r=".06" style="fill:#222;stroke:rgba(255,255,255,.2);stroke-width:.02" transform="matrix(30 0 0 30 62.69 366.076)"/><circle r=".06" style="fill:#222;stroke:rgba(255,255,255,.2);stroke-width:.02" transform="matrix(30 0 0 30 85.485 405.558)"/><circle r=".06" style="fill:#222;stroke:rgba(255,255,255,.2);stroke-width:.02" transform="matrix(30 0 0 30 39.895 405.558)"/><circle r=".06" style="fill:#222;stroke:rgba(255,255,255,.2);stroke-width:.02" transform="matrix(30 0 0 30 39.895 326.593)"/><circle r=".06" style="fill:#222;stroke:rgba(255,255,255,.2);stroke-width:.02" transform="matrix(30 0 0 30 17.1 366.076)"/><text xml:space="preserve" dominant-baseline="alphabetic" font-family="Helvetica, Arial, sans-serif" font-size="25" lengthAdjust="spacingAndGlyphs" style="fill:rgba(255,255,255,.2)" text-rendering="geometricPrecision" textLength="13.904" transform="translate(56.218 400.31)scale(.93103)">?</text><text xml:space="preserve" dominant-baseline="alphabetic" font-family="Helvetica, Arial, sans-serif" font-size="25" lengthAdjust="spacingAndGlyphs" style="fill:rgba(255,255,255,.8)" text-rendering="geometricPrecision" textLength="13.904" transform="translate(33.423 360.829)scale(.93103)">1</text><path d="M-.76-1.316-1.52 0" style="fill:none;stroke:red;stroke-width:.05;stroke-linecap:round" transform="matrix(30 0 0 30 62.69 366.076)"/><path d="m0 0 .76 1.316" style="fill:none;stroke:#fff;stroke-width:.1;stroke-linecap:round" transform="matrix(30 0 0 30 62.69 366.076)"/><path d="M0 .5h13v3L20 0l-7-3.5v3H0z" style="fill:#ccc;stroke:#ccc" transform="translate(98.085 366.076)"/><path d="m0 0 .76 1.316H-.76zm-.76-1.316L0 0h-1.52z" style="fill:#000" transform="matrix(30 0 0 30 176.893 366.076)"/><path d="m0 0 .76 1.316m0 0H-.76M0 0l-.76 1.316M0 0l-.76-1.316M0 0h-1.52m.76-1.316L-1.52 0" style="fill:none;stroke:rgba(255,255,255,.2);stroke-width:.01" transform="matrix(30 0 0 30 176.893 366.076)"/><circle r=".06" style="fill:#222;stroke:rgba(255,255,255,.2);stroke-width:.02" transform="matrix(30 0 0 30 176.893 366.076)"/><circle r=".06" style="fill:#222;stroke:rgba(255,255,255,.2);stroke-width:.02" transform="matrix(30 0 0 30 199.688 405.558)"/><circle r=".06" style="fill:#222;stroke:rgba(255,255,255,.2);stroke-width:.02" transform="matrix(30 0 0 30 154.098 405.558)"/><circle r=".06" style="fill:#222;stroke:rgba(255,255,255,.2);stroke-width:.02" transform="matrix(30 0 0 30 154.098 326.593)"/><circle r=".06" style="fill:#222;stroke:rgba(255,255,255,.2);stroke-width:.02" transform="matrix(30 0 0 30 131.303 366.076)"/><text xml:space="preserve" dominant-baseline="alphabetic" font-family="Helvetica, Arial, sans-serif" font-size="25" lengthAdjust="spacingAndGlyphs" style="fill:rgba(255,255,255,.2)" text-rendering="geometricPrecision" textLength="13.904" transform="translate(170.42 400.31)scale(.93103)">?</text><text xml:space="preserve" dominant-baseline="alphabetic" font-family="Helvetica, Arial, sans-serif" font-size="25" lengthAdjust="spacingAndGlyphs" style="fill:rgba(255,255,255,.8)" text-rendering="geometricPrecision" textLength="13.904" transform="translate(147.626 360.829)scale(.93103)">1</text><circle r=".12" style="fill:none;stroke:red;stroke-width:.03" transform="matrix(30 0 0 30 176.893 366.076)"/><path d="m0 0-.76 1.316m0-2.632L-1.52 0" style="fill:none;stroke:red;stroke-width:.05;stroke-linecap:round" transform="matrix(30 0 0 30 176.893 366.076)"/><path d="m0 0 .76 1.316" style="fill:none;stroke:#fff;stroke-width:.1;stroke-linecap:round" transform="matrix(30 0 0 30 176.893 366.076)"/><path d="m0 0 .76 1.316H-.76zm-.76-1.316L0 0h-1.52z" style="fill:#000" transform="matrix(30 0 0 30 62.69 469.24)"/><path d="m0 0 .76 1.316m0 0H-.76M0 0l-.76 1.316M0 0l-.76-1.316M0 0h-1.52m.76-1.316L-1.52 0" style="fill:none;stroke:rgba(255,255,255,.2);stroke-width:.01" transform="matrix(30 0 0 30 62.69 469.24)"/><circle r=".06" style="fill:#222;stroke:rgba(255,255,255,.2);stroke-width:.02" transform="matrix(30 0 0 30 62.69 469.24)"/><circle r=".06" style="fill:#222;stroke:rgba(255,255,255,.2);stroke-width:.02" transform="matrix(30 0 0 30 85.485 508.722)"/><circle r=".06" style="fill:#222;stroke:rgba(255,255,255,.2);stroke-width:.02" transform="matrix(30 0 0 30 39.895 508.722)"/><circle r=".06" style="fill:#222;stroke:rgba(255,255,255,.2);stroke-width:.02" transform="matrix(30 0 0 30 39.895 429.758)"/><circle r=".06" style="fill:#222;stroke:rgba(255,255,255,.2);stroke-width:.02" transform="matrix(30 0 0 30 17.1 469.24)"/><text xml:space="preserve" dominant-baseline="alphabetic" font-family="Helvetica, Arial, sans-serif" font-size="25" lengthAdjust="spacingAndGlyphs" style="fill:rgba(255,255,255,.8)" text-rendering="geometricPrecision" textLength="13.904" transform="translate(56.218 503.475)scale(.93103)">1</text><text xml:space="preserve" dominant-baseline="alphabetic" font-family="Helvetica, Arial, sans-serif" font-size="25" lengthAdjust="spacingAndGlyphs" style="fill:rgba(255,255,255,.8)" text-rendering="geometricPrecision" textLength="13.904" transform="translate(33.423 463.993)scale(.93103)">1</text><path d="M.76 1.316H-.76m0-2.632L-1.52 0" style="fill:none;stroke:red;stroke-width:.05;stroke-linecap:round" transform="matrix(30 0 0 30 62.69 469.24)"/><path d="M0 .5h13v3L20 0l-7-3.5v3H0z" style="fill:#ccc;stroke:#ccc" transform="translate(98.085 469.24)"/><path d="m0 0 .76 1.316H-.76zm-.76-1.316L0 0h-1.52z" style="fill:#000" transform="matrix(30 0 0 30 176.893 469.24)"/><path d="m0 0 .76 1.316m0 0H-.76M0 0l-.76 1.316M0 0l-.76-1.316M0 0h-1.52m.76-1.316L-1.52 0" style="fill:none;stroke:rgba(255,255,255,.2);stroke-width:.01" transform="matrix(30 0 0 30 176.893 469.24)"/><circle r=".06" style="fill:#222;stroke:rgba(255,255,255,.2);stroke-width:.02" transform="matrix(30 0 0 30 176.893 469.24)"/><circle r=".06" style="fill:#222;stroke:rgba(255,255,255,.2);stroke-width:.02" transform="matrix(30 0 0 30 199.688 508.722)"/><circle r=".06" style="fill:#222;stroke:rgba(255,255,255,.2);stroke-width:.02" transform="matrix(30 0 0 30 154.098 508.722)"/><circle r=".06" style="fill:#222;stroke:rgba(255,255,255,.2);stroke-width:.02" transform="matrix(30 0 0 30 154.098 429.758)"/><circle r=".06" style="fill:#222;stroke:rgba(255,255,255,.2);stroke-width:.02" transform="matrix(30 0 0 30 131.303 469.24)"/><text xml:space="preserve" dominant-baseline="alphabetic" font-family="Helvetica, Arial, sans-serif" font-size="25" lengthAdjust="spacingAndGlyphs" style="fill:rgba(255,255,255,.8)" text-rendering="geometricPrecision" textLength="13.904" transform="translate(170.42 503.475)scale(.93103)">1</text><text xml:space="preserve" dominant-baseline="alphabetic" font-family="Helvetica, Arial, sans-serif" font-size="25" lengthAdjust="spacingAndGlyphs" style="fill:rgba(255,255,255,.8)" text-rendering="geometricPrecision" textLength="13.904" transform="translate(147.626 463.993)scale(.93103)">1</text><circle r=".12" style="fill:none;stroke:red;stroke-width:.03" transform="matrix(30 0 0 30 176.893 469.24)"/><path d="M.76 1.316H-.76m0-2.632L-1.52 0" style="fill:none;stroke:red;stroke-width:.05;stroke-linecap:round" transform="matrix(30 0 0 30 176.893 469.24)"/><path d="m0 0 .76 1.316H-.76zm-.76-1.316L0 0h-1.52z" style="fill:#000" transform="matrix(30 0 0 30 62.69 572.404)"/><path d="m0 0 .76 1.316m0 0H-.76M0 0l-.76 1.316M0 0l-.76-1.316M0 0h-1.52m.76-1.316L-1.52 0" style="fill:none;stroke:rgba(255,255,255,.2);stroke-width:.01" transform="matrix(30 0 0 30 62.69 572.404)"/><circle r=".06" style="fill:#222;stroke:rgba(255,255,255,.2);stroke-width:.02" transform="matrix(30 0 0 30 62.69 572.404)"/><circle r=".06" style="fill:#222;stroke:rgba(255,255,255,.2);stroke-width:.02" transform="matrix(30 0 0 30 85.485 611.887)"/><circle r=".06" style="fill:#222;stroke:rgba(255,255,255,.2);stroke-width:.02" transform="matrix(30 0 0 30 39.895 611.887)"/><circle r=".06" style="fill:#222;stroke:rgba(255,255,255,.2);stroke-width:.02" transform="matrix(30 0 0 30 39.895 532.922)"/><circle r=".06" style="fill:#222;stroke:rgba(255,255,255,.2);stroke-width:.02" transform="matrix(30 0 0 30 17.1 572.404)"/><text xml:space="preserve" dominant-baseline="alphabetic" font-family="Helvetica, Arial, sans-serif" font-size="25" lengthAdjust="spacingAndGlyphs" style="fill:rgba(255,255,255,.8)" text-rendering="geometricPrecision" textLength="13.904" transform="translate(56.218 606.64)scale(.93103)">1</text><text xml:space="preserve" dominant-baseline="alphabetic" font-family="Helvetica, Arial, sans-serif" font-size="25" lengthAdjust="spacingAndGlyphs" style="fill:rgba(255,255,255,.8)" text-rendering="geometricPrecision" textLength="13.904" transform="translate(33.423 567.157)scale(.93103)">2</text><circle r=".12" style="fill:none;stroke:red;stroke-width:.03" transform="matrix(30 0 0 30 62.69 572.404)"/><path d="M-.76-1.316-1.52 0" style="fill:none;stroke:#fff;stroke-width:.1;stroke-linecap:round" transform="matrix(30 0 0 30 62.69 572.404)"/><path d="M0 .5h13v3L20 0l-7-3.5v3H0z" style="fill:#ccc;stroke:#ccc" transform="translate(98.085 572.404)"/><path d="m0 0 .76 1.316H-.76zm-.76-1.316L0 0h-1.52z" style="fill:#000" transform="matrix(30 0 0 30 176.893 572.404)"/><path d="m0 0 .76 1.316m0 0H-.76M0 0l-.76 1.316M0 0l-.76-1.316M0 0h-1.52m.76-1.316L-1.52 0" style="fill:none;stroke:rgba(255,255,255,.2);stroke-width:.01" transform="matrix(30 0 0 30 176.893 572.404)"/><circle r=".06" style="fill:#222;stroke:rgba(255,255,255,.2);stroke-width:.02" transform="matrix(30 0 0 30 176.893 572.404)"/><circle r=".06" style="fill:#222;stroke:rgba(255,255,255,.2);stroke-width:.02" transform="matrix(30 0 0 30 199.688 611.887)"/><circle r=".06" style="fill:#222;stroke:rgba(255,255,255,.2);stroke-width:.02" transform="matrix(30 0 0 30 154.098 611.887)"/><circle r=".06" style="fill:#222;stroke:rgba(255,255,255,.2);stroke-width:.02" transform="matrix(30 0 0 30 154.098 532.922)"/><circle r=".06" style="fill:#222;stroke:rgba(255,255,255,.2);stroke-width:.02" transform="matrix(30 0 0 30 131.303 572.404)"/><text xml:space="preserve" dominant-baseline="alphabetic" font-family="Helvetica, Arial, sans-serif" font-size="25" lengthAdjust="spacingAndGlyphs" style="fill:rgba(255,255,255,.8)" text-rendering="geometricPrecision" textLength="13.904" transform="translate(170.42 606.64)scale(.93103)">1</text><text xml:space="preserve" dominant-baseline="alphabetic" font-family="Helvetica, Arial, sans-serif" font-size="25" lengthAdjust="spacingAndGlyphs" style="fill:rgba(255,255,255,.8)" text-rendering="geometricPrecision" textLength="13.904" transform="translate(147.626 567.157)scale(.93103)">2</text><circle r=".12" style="fill:none;stroke:red;stroke-width:.03" transform="matrix(30 0 0 30 176.893 572.404)"/><path d="M.76 1.316H-.76" style="fill:none;stroke:red;stroke-width:.05;stroke-linecap:round" transform="matrix(30 0 0 30 176.893 572.404)"/><path d="M-.76-1.316-1.52 0" style="fill:none;stroke:#fff;stroke-width:.1;stroke-linecap:round" transform="matrix(30 0 0 30 176.893 572.404)"/><path d="m0 0 .76 1.316H-.76zm-.76-1.316L0 0h-1.52z" style="fill:#000" transform="matrix(30 0 0 30 62.69 675.569)"/><path d="m0 0 .76 1.316m0 0H-.76M0 0l-.76 1.316M0 0l-.76-1.316M0 0h-1.52m.76-1.316L-1.52 0" style="fill:none;stroke:rgba(255,255,255,.2);stroke-width:.01" transform="matrix(30 0 0 30 62.69 675.569)"/><circle r=".06" style="fill:#222;stroke:rgba(255,255,255,.2);stroke-width:.02" transform="matrix(30 0 0 30 62.69 675.569)"/><circle r=".06" style="fill:#222;stroke:rgba(255,255,255,.2);stroke-width:.02" transform="matrix(30 0 0 30 85.485 715.051)"/><circle r=".06" style="fill:#222;stroke:rgba(255,255,255,.2);stroke-width:.02" transform="matrix(30 0 0 30 39.895 715.051)"/><circle r=".06" style="fill:#222;stroke:rgba(255,255,255,.2);stroke-width:.02" transform="matrix(30 0 0 30 39.895 636.087)"/><circle r=".06" style="fill:#222;stroke:rgba(255,255,255,.2);stroke-width:.02" transform="matrix(30 0 0 30 17.1 675.569)"/><text xml:space="preserve" dominant-baseline="alphabetic" font-family="Helvetica, Arial, sans-serif" font-size="25" lengthAdjust="spacingAndGlyphs" style="fill:rgba(255,255,255,.8)" text-rendering="geometricPrecision" textLength="13.904" transform="translate(56.218 709.804)scale(.93103)">1</text><text xml:space="preserve" dominant-baseline="alphabetic" font-family="Helvetica, Arial, sans-serif" font-size="25" lengthAdjust="spacingAndGlyphs" style="fill:rgba(255,255,255,.8)" text-rendering="geometricPrecision" textLength="13.904" transform="translate(33.423 670.322)scale(.93103)">1</text><circle r=".12" style="fill:none;stroke:red;stroke-width:.03" transform="matrix(30 0 0 30 62.69 675.569)"/><path d="M.76 1.316H-.76" style="fill:none;stroke:red;stroke-width:.05;stroke-linecap:round" transform="matrix(30 0 0 30 62.69 675.569)"/><path d="M0 .5h13v3L20 0l-7-3.5v3H0z" style="fill:#ccc;stroke:#ccc" transform="translate(98.085 675.569)"/><path d="m0 0 .76 1.316H-.76zm-.76-1.316L0 0h-1.52z" style="fill:#000" transform="matrix(30 0 0 30 176.893 675.569)"/><path d="m0 0 .76 1.316m0 0H-.76M0 0l-.76 1.316M0 0l-.76-1.316M0 0h-1.52m.76-1.316L-1.52 0" style="fill:none;stroke:rgba(255,255,255,.2);stroke-width:.01" transform="matrix(30 0 0 30 176.893 675.569)"/><circle r=".06" style="fill:#222;stroke:rgba(255,255,255,.2);stroke-width:.02" transform="matrix(30 0 0 30 176.893 675.569)"/><circle r=".06" style="fill:#222;stroke:rgba(255,255,255,.2);stroke-width:.02" transform="matrix(30 0 0 30 199.688 715.051)"/><circle r=".06" style="fill:#222;stroke:rgba(255,255,255,.2);stroke-width:.02" transform="matrix(30 0 0 30 154.098 715.051)"/><circle r=".06" style="fill:#222;stroke:rgba(255,255,255,.2);stroke-width:.02" transform="matrix(30 0 0 30 154.098 636.087)"/><circle r=".06" style="fill:#222;stroke:rgba(255,255,255,.2);stroke-width:.02" transform="matrix(30 0 0 30 131.303 675.569)"/><text xml:space="preserve" dominant-baseline="alphabetic" font-family="Helvetica, Arial, sans-serif" font-size="25" lengthAdjust="spacingAndGlyphs" style="fill:rgba(255,255,255,.8)" text-rendering="geometricPrecision" textLength="13.904" transform="translate(170.42 709.804)scale(.93103)">1</text><text xml:space="preserve" dominant-baseline="alphabetic" font-family="Helvetica, Arial, sans-serif" font-size="25" lengthAdjust="spacingAndGlyphs" style="fill:rgba(255,255,255,.8)" text-rendering="geometricPrecision" textLength="13.904" transform="translate(147.626 670.322)scale(.93103)">1</text><circle r=".12" style="fill:none;stroke:red;stroke-width:.03" transform="matrix(30 0 0 30 176.893 675.569)"/><path d="M.76 1.316H-.76m0-2.632L-1.52 0" style="fill:none;stroke:red;stroke-width:.05;stroke-linecap:round" transform="matrix(30 0 0 30 176.893 675.569)"/><path d="m0 0 .76 1.316H-.76zm-.76-1.316L0 0h-1.52z" style="fill:#000" transform="matrix(30 0 0 30 62.69 778.733)"/><path d="m0 0 .76 1.316m0 0H-.76M0 0l-.76 1.316M0 0l-.76-1.316M0 0h-1.52m.76-1.316L-1.52 0" style="fill:none;stroke:rgba(255,255,255,.2);stroke-width:.01" transform="matrix(30 0 0 30 62.69 778.733)"/><circle r=".06" style="fill:#222;stroke:rgba(255,255,255,.2);stroke-width:.02" transform="matrix(30 0 0 30 62.69 778.733)"/><circle r=".06" style="fill:#222;stroke:rgba(255,255,255,.2);stroke-width:.02" transform="matrix(30 0 0 30 85.485 818.216)"/><circle r=".06" style="fill:#222;stroke:rgba(255,255,255,.2);stroke-width:.02" transform="matrix(30 0 0 30 39.895 818.216)"/><circle r=".06" style="fill:#222;stroke:rgba(255,255,255,.2);stroke-width:.02" transform="matrix(30 0 0 30 39.895 739.251)"/><circle r=".06" style="fill:#222;stroke:rgba(255,255,255,.2);stroke-width:.02" transform="matrix(30 0 0 30 17.1 778.733)"/><text xml:space="preserve" dominant-baseline="alphabetic" font-family="Helvetica, Arial, sans-serif" font-size="25" lengthAdjust="spacingAndGlyphs" style="fill:rgba(255,255,255,.2)" text-rendering="geometricPrecision" textLength="13.904" transform="translate(56.218 812.969)scale(.93103)">?</text><text xml:space="preserve" dominant-baseline="alphabetic" font-family="Helvetica, Arial, sans-serif" font-size="25" lengthAdjust="spacingAndGlyphs" style="fill:rgba(255,255,255,.8)" text-rendering="geometricPrecision" textLength="13.904" transform="translate(33.423 773.486)scale(.93103)">1</text><circle r=".12" style="fill:none;stroke:red;stroke-width:.03" transform="matrix(30 0 0 30 62.69 778.733)"/><path d="m0 0-.76 1.316" style="fill:none;stroke:red;stroke-width:.05;stroke-linecap:round" transform="matrix(30 0 0 30 62.69 778.733)"/><path d="m0 0 .76 1.316" style="fill:none;stroke:#fff;stroke-width:.1;stroke-linecap:round" transform="matrix(30 0 0 30 62.69 778.733)"/><path d="M0 .5h13v3L20 0l-7-3.5v3H0z" style="fill:#ccc;stroke:#ccc" transform="translate(98.085 778.733)"/><path d="m0 0 .76 1.316H-.76zm-.76-1.316L0 0h-1.52z" style="fill:#000" transform="matrix(30 0 0 30 176.893 778.733)"/><path d="m0 0 .76 1.316m0 0H-.76M0 0l-.76 1.316M0 0l-.76-1.316M0 0h-1.52m.76-1.316L-1.52 0" style="fill:none;stroke:rgba(255,255,255,.2);stroke-width:.01" transform="matrix(30 0 0 30 176.893 778.733)"/><circle r=".06" style="fill:#222;stroke:rgba(255,255,255,.2);stroke-width:.02" transform="matrix(30 0 0 30 176.893 778.733)"/><circle r=".06" style="fill:#222;stroke:rgba(255,255,255,.2);stroke-width:.02" transform="matrix(30 0 0 30 199.688 818.216)"/><circle r=".06" style="fill:#222;stroke:rgba(255,255,255,.2);stroke-width:.02" transform="matrix(30 0 0 30 154.098 818.216)"/><circle r=".06" style="fill:#222;stroke:rgba(255,255,255,.2);stroke-width:.02" transform="matrix(30 0 0 30 154.098 739.251)"/><circle r=".06" style="fill:#222;stroke:rgba(255,255,255,.2);stroke-width:.02" transform="matrix(30 0 0 30 131.303 778.733)"/><text xml:space="preserve" dominant-baseline="alphabetic" font-family="Helvetica, Arial, sans-serif" font-size="25" lengthAdjust="spacingAndGlyphs" style="fill:rgba(255,255,255,.2)" text-rendering="geometricPrecision" textLength="13.904" transform="translate(170.42 812.969)scale(.93103)">?</text><text xml:space="preserve" dominant-baseline="alphabetic" font-family="Helvetica, Arial, sans-serif" font-size="25" lengthAdjust="spacingAndGlyphs" style="fill:rgba(255,255,255,.8)" text-rendering="geometricPrecision" textLength="13.904" transform="translate(147.626 773.486)scale(.93103)">1</text><circle r=".12" style="fill:none;stroke:red;stroke-width:.03" transform="matrix(30 0 0 30 176.893 778.733)"/><path d="m0 0-.76 1.316m0-2.632L-1.52 0" style="fill:none;stroke:red;stroke-width:.05;stroke-linecap:round" transform="matrix(30 0 0 30 176.893 778.733)"/><path d="m0 0 .76 1.316" style="fill:none;stroke:#fff;stroke-width:.1;stroke-linecap:round" transform="matrix(30 0 0 30 176.893 778.733)"/><path d="m0 0 .76 1.316H-.76zm-.76-1.316L0 0h-1.52z" style="fill:#000" transform="matrix(30 0 0 30 62.69 881.898)"/><path d="m0 0 .76 1.316m0 0H-.76M0 0l-.76 1.316M0 0l-.76-1.316M0 0h-1.52m.76-1.316L-1.52 0" style="fill:none;stroke:rgba(255,255,255,.2);stroke-width:.01" transform="matrix(30 0 0 30 62.69 881.898)"/><circle r=".06" style="fill:#222;stroke:rgba(255,255,255,.2);stroke-width:.02" transform="matrix(30 0 0 30 62.69 881.898)"/><circle r=".06" style="fill:#222;stroke:rgba(255,255,255,.2);stroke-width:.02" transform="matrix(30 0 0 30 85.485 921.38)"/><circle r=".06" style="fill:#222;stroke:rgba(255,255,255,.2);stroke-width:.02" transform="matrix(30 0 0 30 39.895 921.38)"/><circle r=".06" style="fill:#222;stroke:rgba(255,255,255,.2);stroke-width:.02" transform="matrix(30 0 0 30 39.895 842.416)"/><circle r=".06" style="fill:#222;stroke:rgba(255,255,255,.2);stroke-width:.02" transform="matrix(30 0 0 30 17.1 881.898)"/><text xml:space="preserve" dominant-baseline="alphabetic" font-family="Helvetica, Arial, sans-serif" font-size="25" lengthAdjust="spacingAndGlyphs" style="fill:rgba(255,255,255,.2)" text-rendering="geometricPrecision" textLength="13.904" transform="translate(56.218 916.133)scale(.93103)">?</text><text xml:space="preserve" dominant-baseline="alphabetic" font-family="Helvetica, Arial, sans-serif" font-size="25" lengthAdjust="spacingAndGlyphs" style="fill:rgba(255,255,255,.8)" text-rendering="geometricPrecision" textLength="13.904" transform="translate(33.423 876.65)scale(.93103)">2</text><circle r=".12" style="fill:none;stroke:red;stroke-width:.03" transform="matrix(30 0 0 30 62.69 881.898)"/><path d="m0 0 .76 1.316" style="fill:none;stroke:red;stroke-width:.05;stroke-linecap:round" transform="matrix(30 0 0 30 62.69 881.898)"/><path d="M-.76-1.316-1.52 0" style="fill:none;stroke:#fff;stroke-width:.1;stroke-linecap:round" transform="matrix(30 0 0 30 62.69 881.898)"/><path d="M0 .5h13v3L20 0l-7-3.5v3H0z" style="fill:#ccc;stroke:#ccc" transform="translate(98.085 881.898)"/><path d="m0 0 .76 1.316H-.76zm-.76-1.316L0 0h-1.52z" style="fill:#000" transform="matrix(30 0 0 30 176.893 881.898)"/><path d="m0 0 .76 1.316m0 0H-.76M0 0l-.76 1.316M0 0l-.76-1.316M0 0h-1.52m.76-1.316L-1.52 0" style="fill:none;stroke:rgba(255,255,255,.2);stroke-width:.01" transform="matrix(30 0 0 30 176.893 881.898)"/><circle r=".06" style="fill:#222;stroke:rgba(255,255,255,.2);stroke-width:.02" transform="matrix(30 0 0 30 176.893 881.898)"/><circle r=".06" style="fill:#222;stroke:rgba(255,255,255,.2);stroke-width:.02" transform="matrix(30 0 0 30 199.688 921.38)"/><circle r=".06" style="fill:#222;stroke:rgba(255,255,255,.2);stroke-width:.02" transform="matrix(30 0 0 30 154.098 921.38)"/><circle r=".06" style="fill:#222;stroke:rgba(255,255,255,.2);stroke-width:.02" transform="matrix(30 0 0 30 154.098 842.416)"/><circle r=".06" style="fill:#222;stroke:rgba(255,255,255,.2);stroke-width:.02" transform="matrix(30 0 0 30 131.303 881.898)"/><text xml:space="preserve" dominant-baseline="alphabetic" font-family="Helvetica, Arial, sans-serif" font-size="25" lengthAdjust="spacingAndGlyphs" style="fill:rgba(255,255,255,.2)" text-rendering="geometricPrecision" textLength="13.904" transform="translate(170.42 916.133)scale(.93103)">?</text><text xml:space="preserve" dominant-baseline="alphabetic" font-family="Helvetica, Arial, sans-serif" font-size="25" lengthAdjust="spacingAndGlyphs" style="fill:rgba(255,255,255,.8)" text-rendering="geometricPrecision" textLength="13.904" transform="translate(147.626 876.65)scale(.93103)">2</text><circle r=".12" style="fill:none;stroke:red;stroke-width:.03" transform="matrix(30 0 0 30 176.893 881.898)"/><path d="m0 0 .76 1.316" style="fill:none;stroke:red;stroke-width:.05;stroke-linecap:round" transform="matrix(30 0 0 30 176.893 881.898)"/><path d="m0 0-.76 1.316m0-2.632L-1.52 0" style="fill:none;stroke:#fff;stroke-width:.1;stroke-linecap:round" transform="matrix(30 0 0 30 176.893 881.898)"/><path d="m0 0 .76 1.316H-.76zm-.76-1.316L0 0h-1.52z" style="fill:#000" transform="matrix(30 0 0 30 62.69 985.062)"/><path d="m0 0 .76 1.316m0 0H-.76M0 0l-.76 1.316M0 0l-.76-1.316M0 0h-1.52m.76-1.316L-1.52 0" style="fill:none;stroke:rgba(255,255,255,.2);stroke-width:.01" transform="matrix(30 0 0 30 62.69 985.062)"/><circle r=".06" style="fill:#222;stroke:rgba(255,255,255,.2);stroke-width:.02" transform="matrix(30 0 0 30 62.69 985.062)"/><circle r=".06" style="fill:#222;stroke:rgba(255,255,255,.2);stroke-width:.02" transform="matrix(30 0 0 30 85.485 1024.544)"/><circle r=".06" style="fill:#222;stroke:rgba(255,255,255,.2);stroke-width:.02" transform="matrix(30 0 0 30 39.895 1024.544)"/><circle r=".06" style="fill:#222;stroke:rgba(255,255,255,.2);stroke-width:.02" transform="matrix(30 0 0 30 39.895 945.58)"/><circle r=".06" style="fill:#222;stroke:rgba(255,255,255,.2);stroke-width:.02" transform="matrix(30 0 0 30 17.1 985.062)"/><text xml:space="preserve" dominant-baseline="alphabetic" font-family="Helvetica, Arial, sans-serif" font-size="25" lengthAdjust="spacingAndGlyphs" style="fill:rgba(255,255,255,.2)" text-rendering="geometricPrecision" textLength="13.904" transform="translate(56.218 1019.297)scale(.93103)">?</text><text xml:space="preserve" dominant-baseline="alphabetic" font-family="Helvetica, Arial, sans-serif" font-size="25" lengthAdjust="spacingAndGlyphs" style="fill:rgba(255,255,255,.8)" text-rendering="geometricPrecision" textLength="13.904" transform="translate(33.423 979.815)scale(.93103)">1</text><circle r=".12" style="fill:none;stroke:red;stroke-width:.03" transform="matrix(30 0 0 30 62.69 985.062)"/><path d="m0 0 .76 1.316M-.76-1.316-1.52 0" style="fill:none;stroke:red;stroke-width:.05;stroke-linecap:round" transform="matrix(30 0 0 30 62.69 985.062)"/><path d="M0 .5h13v3L20 0l-7-3.5v3H0z" style="fill:#ccc;stroke:#ccc" transform="translate(98.085 985.062)"/><path d="m0 0 .76 1.316H-.76zm-.76-1.316L0 0h-1.52z" style="fill:#000" transform="matrix(30 0 0 30 176.893 985.062)"/><path d="m0 0 .76 1.316m0 0H-.76M0 0l-.76 1.316M0 0l-.76-1.316M0 0h-1.52m.76-1.316L-1.52 0" style="fill:none;stroke:rgba(255,255,255,.2);stroke-width:.01" transform="matrix(30 0 0 30 176.893 985.062)"/><circle r=".06" style="fill:#222;stroke:rgba(255,255,255,.2);stroke-width:.02" transform="matrix(30 0 0 30 176.893 985.062)"/><circle r=".06" style="fill:#222;stroke:rgba(255,255,255,.2);stroke-width:.02" transform="matrix(30 0 0 30 199.688 1024.544)"/><circle r=".06" style="fill:#222;stroke:rgba(255,255,255,.2);stroke-width:.02" transform="matrix(30 0 0 30 154.098 1024.544)"/><circle r=".06" style="fill:#222;stroke:rgba(255,255,255,.2);stroke-width:.02" transform="matrix(30 0 0 30 154.098 945.58)"/><circle r=".06" style="fill:#222;stroke:rgba(255,255,255,.2);stroke-width:.02" transform="matrix(30 0 0 30 131.303 985.062)"/><text xml:space="preserve" dominant-baseline="alphabetic" font-family="Helvetica, Arial, sans-serif" font-size="25" lengthAdjust="spacingAndGlyphs" style="fill:rgba(255,255,255,.2)" text-rendering="geometricPrecision" textLength="13.904" transform="translate(170.42 1019.297)scale(.93103)">?</text><text xml:space="preserve" dominant-baseline="alphabetic" font-family="Helvetica, Arial, sans-serif" font-size="25" lengthAdjust="spacingAndGlyphs" style="fill:rgba(255,255,255,.8)" text-rendering="geometricPrecision" textLength="13.904" transform="translate(147.626 979.815)scale(.93103)">1</text><circle r=".12" style="fill:none;stroke:red;stroke-width:.03" transform="matrix(30 0 0 30 176.893 985.062)"/><path d="m0 0 .76 1.316M-.76-1.316-1.52 0" style="fill:none;stroke:red;stroke-width:.05;stroke-linecap:round" transform="matrix(30 0 0 30 176.893 985.062)"/><path d="m0 0-.76 1.316" style="fill:none;stroke:#fff;stroke-width:.1;stroke-linecap:round" transform="matrix(30 0 0 30 176.893 985.062)"/></svg>