<svg xmlns="http://www.w3.org/2000/svg" focusable="false" aria-hidden="true" width="184" height="474" style="pointer-events: none; position: absolute; left: 0px; top: 0px; transform-origin: left top; z-index: 20;"><defs/><g><g><g><g><rect x="0" y="0" width="174" height="464" rx="0" ry="0" style="fill: #333; stroke: none;stroke-miterlimit: 10;"/></g><g transform="translate(10.00000000000000000000,10.00000000000000000000)"><g transform="translate(5.00000000000000000000,5.00000000000000000000)"><g><g transform="translate(0.97499999999999431566,2.09999999999999964473)"><g><g transform="translate(24.89507056954788311032,0.00000000000000000000)"><g transform="scale(30.00000000000000000000)"><g><path d="M 0.00000000000000000000 0.00000000000000000000 L 0.75983568565159620434 1.31607401295249704098 L -0.75983568565159620434 1.31607401295249704098 L 0.00000000000000000000 0.00000000000000000000 Z " style="fill: #000; stroke: none;stroke-miterlimit: 10;"/></g><g><line x1="0" y1="0" x2="0.7598356856515962" y2="1.316074012952497" style="fill: none; stroke: rgba(255,255,255,0.2);stroke-width: 0.01;stroke-miterlimit: 10;"/></g><g><line x1="0.7598356856515962" y1="1.316074012952497" x2="-0.7598356856515962" y2="1.316074012952497" style="fill: none; stroke: rgba(255,255,255,0.2);stroke-width: 0.01;stroke-miterlimit: 10;"/></g><g><line x1="0" y1="0" x2="-0.7598356856515962" y2="1.316074012952497" style="fill: none; stroke: rgba(255,255,255,0.2);stroke-width: 0.01;stroke-miterlimit: 10;"/></g><g><circle r="0.06" style="fill: #222; stroke: rgba(255,255,255,0.2);stroke-width: 0.02;stroke-miterlimit: 10;"/></g><g transform="translate(0.75983568565159620434,1.31607401295249704098)"><circle r="0.06" style="fill: #222; stroke: rgba(255,255,255,0.2);stroke-width: 0.02;stroke-miterlimit: 10;"/></g><g transform="translate(-0.75983568565159620434,1.31607401295249704098)"><circle r="0.06" style="fill: #222; stroke: rgba(255,255,255,0.2);stroke-width: 0.02;stroke-miterlimit: 10;"/></g><g transform="matrix(0.03103448275862068922,0.00000000000000000000,0.00000000000000000000,0.03103448275862068922,-0.21574875404094825959,1.14117577874994058362)"><text dominant-baseline="alphabetic" text-rendering="geometricPrecision" xml:space="preserve" direction="ltr" font-family="Helvetica, Arial, sans-serif" font-size="25px" font-style="normal" font-weight="normal" font-stretch="normal" lengthAdjust="spacingAndGlyphs" textLength="13.90380859375" style="fill: rgba(255,255,255,0.8); stroke: none;stroke-miterlimit: 10;">0</text></g></g></g><g transform="translate(60.29014113909577332606,19.74111019428746160997)"><path d="M 0.00000000000000003062 0.50000000000000000000 L 13.00000000000000000000 0.50000000000000000000 L 13.00000000000000000000 3.50000000000000000000 L 20.00000000000000000000 0.00000000000000000000 L 13.00000000000000000000 -3.50000000000000000000 L 13.00000000000000000000 -0.50000000000000000000 L -0.00000000000000003062 -0.50000000000000000000 L 0.00000000000000003062 0.50000000000000000000 Z " style="fill: #ccc; stroke: #ccc;stroke-miterlimit: 10;"/></g><g transform="translate(116.30324569739356377340,0.00000000000000000000)"><g transform="scale(30.00000000000000000000)"><g><path d="M 0.00000000000000000000 0.00000000000000000000 L 0.75983568565159620434 1.31607401295249704098 L -0.75983568565159620434 1.31607401295249704098 L 0.00000000000000000000 0.00000000000000000000 Z " style="fill: #000; stroke: none;stroke-miterlimit: 10;"/></g><g><line x1="0" y1="0" x2="0.7598356856515962" y2="1.316074012952497" style="fill: none; stroke: rgba(255,255,255,0.2);stroke-width: 0.01;stroke-miterlimit: 10;"/></g><g><line x1="0.7598356856515962" y1="1.316074012952497" x2="-0.7598356856515962" y2="1.316074012952497" style="fill: none; stroke: rgba(255,255,255,0.2);stroke-width: 0.01;stroke-miterlimit: 10;"/></g><g><line x1="0" y1="0" x2="-0.7598356856515962" y2="1.316074012952497" style="fill: none; stroke: rgba(255,255,255,0.2);stroke-width: 0.01;stroke-miterlimit: 10;"/></g><g><circle r="0.06" style="fill: #222; stroke: rgba(255,255,255,0.2);stroke-width: 0.02;stroke-miterlimit: 10;"/></g><g transform="translate(0.75983568565159620434,1.31607401295249704098)"><circle r="0.06" style="fill: #222; stroke: rgba(255,255,255,0.2);stroke-width: 0.02;stroke-miterlimit: 10;"/></g><g transform="translate(-0.75983568565159620434,1.31607401295249704098)"><circle r="0.06" style="fill: #222; stroke: rgba(255,255,255,0.2);stroke-width: 0.02;stroke-miterlimit: 10;"/></g><g transform="matrix(0.03103448275862068922,0.00000000000000000000,0.00000000000000000000,0.03103448275862068922,-0.21574875404094825959,1.14117577874994058362)"><text dominant-baseline="alphabetic" text-rendering="geometricPrecision" xml:space="preserve" direction="ltr" font-family="Helvetica, Arial, sans-serif" font-size="25px" font-style="normal" font-weight="normal" font-stretch="normal" lengthAdjust="spacingAndGlyphs" textLength="13.90380859375" style="fill: rgba(255,255,255,0.8); stroke: none;stroke-miterlimit: 10;">0</text></g><g><line x1="0" y1="0" x2="0.7598356856515962" y2="1.316074012952497" style="fill: none; stroke: #f00;stroke-width: 0.05;stroke-linecap: round;stroke-miterlimit: 10;"/></g><g><line x1="0.7598356856515962" y1="1.316074012952497" x2="-0.7598356856515962" y2="1.316074012952497" style="fill: none; stroke: #f00;stroke-width: 0.05;stroke-linecap: round;stroke-miterlimit: 10;"/></g><g><line x1="0" y1="0" x2="-0.7598356856515962" y2="1.316074012952497" style="fill: none; stroke: #f00;stroke-width: 0.05;stroke-linecap: round;stroke-miterlimit: 10;"/></g></g></g></g></g><g transform="translate(0.97499999999999431566,65.78222038857491327235)"><g><g transform="translate(24.89507056954788311032,0.00000000000000000000)"><g transform="scale(30.00000000000000000000)"><g><path d="M 0.00000000000000000000 0.00000000000000000000 L 0.75983568565159620434 1.31607401295249704098 L -0.75983568565159620434 1.31607401295249704098 L 0.00000000000000000000 0.00000000000000000000 Z " style="fill: #000; stroke: none;stroke-miterlimit: 10;"/></g><g><line x1="0" y1="0" x2="0.7598356856515962" y2="1.316074012952497" style="fill: none; stroke: rgba(255,255,255,0.2);stroke-width: 0.01;stroke-miterlimit: 10;"/></g><g><line x1="0.7598356856515962" y1="1.316074012952497" x2="-0.7598356856515962" y2="1.316074012952497" style="fill: none; stroke: rgba(255,255,255,0.2);stroke-width: 0.01;stroke-miterlimit: 10;"/></g><g><line x1="0" y1="0" x2="-0.7598356856515962" y2="1.316074012952497" style="fill: none; stroke: rgba(255,255,255,0.2);stroke-width: 0.01;stroke-miterlimit: 10;"/></g><g><circle r="0.06" style="fill: #222; stroke: rgba(255,255,255,0.2);stroke-width: 0.02;stroke-miterlimit: 10;"/></g><g transform="translate(0.75983568565159620434,1.31607401295249704098)"><circle r="0.06" style="fill: #222; stroke: rgba(255,255,255,0.2);stroke-width: 0.02;stroke-miterlimit: 10;"/></g><g transform="translate(-0.75983568565159620434,1.31607401295249704098)"><circle r="0.06" style="fill: #222; stroke: rgba(255,255,255,0.2);stroke-width: 0.02;stroke-miterlimit: 10;"/></g><g transform="matrix(0.03103448275862068922,0.00000000000000000000,0.00000000000000000000,0.03103448275862068922,-0.21574875404094825959,1.14117577874994058362)"><text dominant-baseline="alphabetic" text-rendering="geometricPrecision" xml:space="preserve" direction="ltr" font-family="Helvetica, Arial, sans-serif" font-size="25px" font-style="normal" font-weight="normal" font-stretch="normal" lengthAdjust="spacingAndGlyphs" textLength="13.90380859375" style="fill: rgba(255,255,255,0.8); stroke: none;stroke-miterlimit: 10;">1</text></g><g><line x1="0" y1="0" x2="0.7598356856515962" y2="1.316074012952497" style="fill: none; stroke: #fff;stroke-width: 0.1;stroke-linecap: round;stroke-miterlimit: 10;"/></g></g></g><g transform="translate(60.29014113909577332606,19.74111019428746160997)"><path d="M 0.00000000000000003062 0.50000000000000000000 L 13.00000000000000000000 0.50000000000000000000 L 13.00000000000000000000 3.50000000000000000000 L 20.00000000000000000000 0.00000000000000000000 L 13.00000000000000000000 -3.50000000000000000000 L 13.00000000000000000000 -0.50000000000000000000 L -0.00000000000000003062 -0.50000000000000000000 L 0.00000000000000003062 0.50000000000000000000 Z " style="fill: #ccc; stroke: #ccc;stroke-miterlimit: 10;"/></g><g transform="translate(116.30324569739356377340,0.00000000000000000000)"><g transform="scale(30.00000000000000000000)"><g><path d="M 0.00000000000000000000 0.00000000000000000000 L 0.75983568565159620434 1.31607401295249704098 L -0.75983568565159620434 1.31607401295249704098 L 0.00000000000000000000 0.00000000000000000000 Z " style="fill: #000; stroke: none;stroke-miterlimit: 10;"/></g><g><line x1="0" y1="0" x2="0.7598356856515962" y2="1.316074012952497" style="fill: none; stroke: rgba(255,255,255,0.2);stroke-width: 0.01;stroke-miterlimit: 10;"/></g><g><line x1="0.7598356856515962" y1="1.316074012952497" x2="-0.7598356856515962" y2="1.316074012952497" style="fill: none; stroke: rgba(255,255,255,0.2);stroke-width: 0.01;stroke-miterlimit: 10;"/></g><g><line x1="0" y1="0" x2="-0.7598356856515962" y2="1.316074012952497" style="fill: none; stroke: rgba(255,255,255,0.2);stroke-width: 0.01;stroke-miterlimit: 10;"/></g><g><circle r="0.06" style="fill: #222; stroke: rgba(255,255,255,0.2);stroke-width: 0.02;stroke-miterlimit: 10;"/></g><g transform="translate(0.75983568565159620434,1.31607401295249704098)"><circle r="0.06" style="fill: #222; stroke: rgba(255,255,255,0.2);stroke-width: 0.02;stroke-miterlimit: 10;"/></g><g transform="translate(-0.75983568565159620434,1.31607401295249704098)"><circle r="0.06" style="fill: #222; stroke: rgba(255,255,255,0.2);stroke-width: 0.02;stroke-miterlimit: 10;"/></g><g transform="matrix(0.03103448275862068922,0.00000000000000000000,0.00000000000000000000,0.03103448275862068922,-0.21574875404094825959,1.14117577874994058362)"><text dominant-baseline="alphabetic" text-rendering="geometricPrecision" xml:space="preserve" direction="ltr" font-family="Helvetica, Arial, sans-serif" font-size="25px" font-style="normal" font-weight="normal" font-stretch="normal" lengthAdjust="spacingAndGlyphs" textLength="13.90380859375" style="fill: rgba(255,255,255,0.8); stroke: none;stroke-miterlimit: 10;">1</text></g><g><line x1="0.7598356856515962" y1="1.316074012952497" x2="-0.7598356856515962" y2="1.316074012952497" style="fill: none; stroke: #f00;stroke-width: 0.05;stroke-linecap: round;stroke-miterlimit: 10;"/></g><g><line x1="0" y1="0" x2="-0.7598356856515962" y2="1.316074012952497" style="fill: none; stroke: #f00;stroke-width: 0.05;stroke-linecap: round;stroke-miterlimit: 10;"/></g><g><line x1="0" y1="0" x2="0.7598356856515962" y2="1.316074012952497" style="fill: none; stroke: #fff;stroke-width: 0.1;stroke-linecap: round;stroke-miterlimit: 10;"/></g></g></g></g></g><g transform="translate(0.00000000000000000000,129.46444077714983222904)"><g><g transform="translate(24.89507056954788311032,0.00000000000000000000)"><g transform="scale(30.00000000000000000000)"><g><path d="M 0.00000000000000000000 0.00000000000000000000 L 0.75983568565159620434 1.31607401295249704098 L -0.75983568565159620434 1.31607401295249704098 L 0.00000000000000000000 0.00000000000000000000 Z " style="fill: #000; stroke: none;stroke-miterlimit: 10;"/></g><g><line x1="0" y1="0" x2="0.7598356856515962" y2="1.316074012952497" style="fill: none; stroke: rgba(255,255,255,0.2);stroke-width: 0.01;stroke-miterlimit: 10;"/></g><g><line x1="0.7598356856515962" y1="1.316074012952497" x2="-0.7598356856515962" y2="1.316074012952497" style="fill: none; stroke: rgba(255,255,255,0.2);stroke-width: 0.01;stroke-miterlimit: 10;"/></g><g><line x1="0" y1="0" x2="-0.7598356856515962" y2="1.316074012952497" style="fill: none; stroke: rgba(255,255,255,0.2);stroke-width: 0.01;stroke-miterlimit: 10;"/></g><g><circle r="0.06" style="fill: #222; stroke: rgba(255,255,255,0.2);stroke-width: 0.02;stroke-miterlimit: 10;"/></g><g transform="translate(0.75983568565159620434,1.31607401295249704098)"><circle r="0.06" style="fill: #222; stroke: rgba(255,255,255,0.2);stroke-width: 0.02;stroke-miterlimit: 10;"/></g><g transform="translate(-0.75983568565159620434,1.31607401295249704098)"><circle r="0.06" style="fill: #222; stroke: rgba(255,255,255,0.2);stroke-width: 0.02;stroke-miterlimit: 10;"/></g><g transform="matrix(0.03103448275862068922,0.00000000000000000000,0.00000000000000000000,0.03103448275862068922,-0.21574875404094825959,1.14117577874994058362)"><text dominant-baseline="alphabetic" text-rendering="geometricPrecision" xml:space="preserve" direction="ltr" font-family="Helvetica, Arial, sans-serif" font-size="25px" font-style="normal" font-weight="normal" font-stretch="normal" lengthAdjust="spacingAndGlyphs" textLength="13.90380859375" style="fill: rgba(255,255,255,0.8); stroke: none;stroke-miterlimit: 10;">2</text></g><g><line x1="0" y1="0" x2="0.7598356856515962" y2="1.316074012952497" style="fill: none; stroke: #f00;stroke-width: 0.05;stroke-linecap: round;stroke-miterlimit: 10;"/></g></g></g><g transform="translate(60.29014113909576622063,20.71611019428746303106)"><path d="M 0.00000000000000003062 0.50000000000000000000 L 13.00000000000000000000 0.50000000000000000000 L 13.00000000000000000000 3.50000000000000000000 L 20.00000000000000000000 0.00000000000000000000 L 13.00000000000000000000 -3.50000000000000000000 L 13.00000000000000000000 -0.50000000000000000000 L -0.00000000000000003062 -0.50000000000000000000 L 0.00000000000000003062 0.50000000000000000000 Z " style="fill: #ccc; stroke: #ccc;stroke-miterlimit: 10;"/></g><g transform="translate(118.25324569739355240472,0.00000000000000000000)"><g transform="scale(30.00000000000000000000)"><g><path d="M 0.00000000000000000000 0.00000000000000000000 L 0.75983568565159620434 1.31607401295249704098 L -0.75983568565159620434 1.31607401295249704098 L 0.00000000000000000000 0.00000000000000000000 Z " style="fill: #000; stroke: none;stroke-miterlimit: 10;"/></g><g><line x1="0" y1="0" x2="0.7598356856515962" y2="1.316074012952497" style="fill: none; stroke: rgba(255,255,255,0.2);stroke-width: 0.01;stroke-miterlimit: 10;"/></g><g><line x1="0.7598356856515962" y1="1.316074012952497" x2="-0.7598356856515962" y2="1.316074012952497" style="fill: none; stroke: rgba(255,255,255,0.2);stroke-width: 0.01;stroke-miterlimit: 10;"/></g><g><line x1="0" y1="0" x2="-0.7598356856515962" y2="1.316074012952497" style="fill: none; stroke: rgba(255,255,255,0.2);stroke-width: 0.01;stroke-miterlimit: 10;"/></g><g><circle r="0.06" style="fill: #222; stroke: rgba(255,255,255,0.2);stroke-width: 0.02;stroke-miterlimit: 10;"/></g><g transform="translate(0.75983568565159620434,1.31607401295249704098)"><circle r="0.06" style="fill: #222; stroke: rgba(255,255,255,0.2);stroke-width: 0.02;stroke-miterlimit: 10;"/></g><g transform="translate(-0.75983568565159620434,1.31607401295249704098)"><circle r="0.06" style="fill: #222; stroke: rgba(255,255,255,0.2);stroke-width: 0.02;stroke-miterlimit: 10;"/></g><g transform="matrix(0.03103448275862068922,0.00000000000000000000,0.00000000000000000000,0.03103448275862068922,-0.21574875404094825959,1.14117577874994058362)"><text dominant-baseline="alphabetic" text-rendering="geometricPrecision" xml:space="preserve" direction="ltr" font-family="Helvetica, Arial, sans-serif" font-size="25px" font-style="normal" font-weight="normal" font-stretch="normal" lengthAdjust="spacingAndGlyphs" textLength="13.90380859375" style="fill: rgba(255,255,255,0.8); stroke: none;stroke-miterlimit: 10;">2</text></g><g transform="translate(-0.75983568565159620434,1.31607401295249704098)"><circle r="0.12" style="fill: none; stroke: #f00;stroke-width: 0.03;stroke-miterlimit: 10;"/></g><g><line x1="0" y1="0" x2="0.7598356856515962" y2="1.316074012952497" style="fill: none; stroke: #f00;stroke-width: 0.05;stroke-linecap: round;stroke-miterlimit: 10;"/></g><g><line x1="0.7598356856515962" y1="1.316074012952497" x2="-0.7598356856515962" y2="1.316074012952497" style="fill: none; stroke: #fff;stroke-width: 0.1;stroke-linecap: round;stroke-miterlimit: 10;"/></g><g><line x1="0" y1="0" x2="-0.7598356856515962" y2="1.316074012952497" style="fill: none; stroke: #fff;stroke-width: 0.1;stroke-linecap: round;stroke-miterlimit: 10;"/></g></g></g></g></g><g transform="translate(0.00000000000000000000,195.09666116572472560620)"><g><g transform="translate(24.89507056954788311032,0.00000000000000000000)"><g transform="scale(30.00000000000000000000)"><g><path d="M 0.00000000000000000000 0.00000000000000000000 L 0.75983568565159620434 1.31607401295249704098 L -0.75983568565159620434 1.31607401295249704098 L 0.00000000000000000000 0.00000000000000000000 Z " style="fill: #000; stroke: none;stroke-miterlimit: 10;"/></g><g><line x1="0" y1="0" x2="0.7598356856515962" y2="1.316074012952497" style="fill: none; stroke: rgba(255,255,255,0.2);stroke-width: 0.01;stroke-miterlimit: 10;"/></g><g><line x1="0.7598356856515962" y1="1.316074012952497" x2="-0.7598356856515962" y2="1.316074012952497" style="fill: none; stroke: rgba(255,255,255,0.2);stroke-width: 0.01;stroke-miterlimit: 10;"/></g><g><line x1="0" y1="0" x2="-0.7598356856515962" y2="1.316074012952497" style="fill: none; stroke: rgba(255,255,255,0.2);stroke-width: 0.01;stroke-miterlimit: 10;"/></g><g><circle r="0.06" style="fill: #222; stroke: rgba(255,255,255,0.2);stroke-width: 0.02;stroke-miterlimit: 10;"/></g><g transform="translate(0.75983568565159620434,1.31607401295249704098)"><circle r="0.06" style="fill: #222; stroke: rgba(255,255,255,0.2);stroke-width: 0.02;stroke-miterlimit: 10;"/></g><g transform="translate(-0.75983568565159620434,1.31607401295249704098)"><circle r="0.06" style="fill: #222; stroke: rgba(255,255,255,0.2);stroke-width: 0.02;stroke-miterlimit: 10;"/></g><g transform="matrix(0.03103448275862068922,0.00000000000000000000,0.00000000000000000000,0.03103448275862068922,-0.21574875404094825959,1.14117577874994058362)"><text dominant-baseline="alphabetic" text-rendering="geometricPrecision" xml:space="preserve" direction="ltr" font-family="Helvetica, Arial, sans-serif" font-size="25px" font-style="normal" font-weight="normal" font-stretch="normal" lengthAdjust="spacingAndGlyphs" textLength="13.90380859375" style="fill: rgba(255,255,255,0.8); stroke: none;stroke-miterlimit: 10;">2</text></g><g><line x1="0" y1="0" x2="0.7598356856515962" y2="1.316074012952497" style="fill: none; stroke: #fff;stroke-width: 0.1;stroke-linecap: round;stroke-miterlimit: 10;"/></g><g><line x1="0.7598356856515962" y1="1.316074012952497" x2="-0.7598356856515962" y2="1.316074012952497" style="fill: none; stroke: #fff;stroke-width: 0.1;stroke-linecap: round;stroke-miterlimit: 10;"/></g></g></g><g transform="translate(60.29014113909576622063,20.71611019428746303106)"><path d="M 0.00000000000000003062 0.50000000000000000000 L 13.00000000000000000000 0.50000000000000000000 L 13.00000000000000000000 3.50000000000000000000 L 20.00000000000000000000 0.00000000000000000000 L 13.00000000000000000000 -3.50000000000000000000 L 13.00000000000000000000 -0.50000000000000000000 L -0.00000000000000003062 -0.50000000000000000000 L 0.00000000000000003062 0.50000000000000000000 Z " style="fill: #ccc; stroke: #ccc;stroke-miterlimit: 10;"/></g><g transform="translate(116.30324569739354956255,0.00000000000000000000)"><g transform="scale(30.00000000000000000000)"><g><path d="M 0.00000000000000000000 0.00000000000000000000 L 0.75983568565159620434 1.31607401295249704098 L -0.75983568565159620434 1.31607401295249704098 L 0.00000000000000000000 0.00000000000000000000 Z " style="fill: #000; stroke: none;stroke-miterlimit: 10;"/></g><g><line x1="0" y1="0" x2="0.7598356856515962" y2="1.316074012952497" style="fill: none; stroke: rgba(255,255,255,0.2);stroke-width: 0.01;stroke-miterlimit: 10;"/></g><g><line x1="0.7598356856515962" y1="1.316074012952497" x2="-0.7598356856515962" y2="1.316074012952497" style="fill: none; stroke: rgba(255,255,255,0.2);stroke-width: 0.01;stroke-miterlimit: 10;"/></g><g><line x1="0" y1="0" x2="-0.7598356856515962" y2="1.316074012952497" style="fill: none; stroke: rgba(255,255,255,0.2);stroke-width: 0.01;stroke-miterlimit: 10;"/></g><g><circle r="0.06" style="fill: #222; stroke: rgba(255,255,255,0.2);stroke-width: 0.02;stroke-miterlimit: 10;"/></g><g transform="translate(0.75983568565159620434,1.31607401295249704098)"><circle r="0.06" style="fill: #222; stroke: rgba(255,255,255,0.2);stroke-width: 0.02;stroke-miterlimit: 10;"/></g><g transform="translate(-0.75983568565159620434,1.31607401295249704098)"><circle r="0.06" style="fill: #222; stroke: rgba(255,255,255,0.2);stroke-width: 0.02;stroke-miterlimit: 10;"/></g><g transform="matrix(0.03103448275862068922,0.00000000000000000000,0.00000000000000000000,0.03103448275862068922,-0.21574875404094825959,1.14117577874994058362)"><text dominant-baseline="alphabetic" text-rendering="geometricPrecision" xml:space="preserve" direction="ltr" font-family="Helvetica, Arial, sans-serif" font-size="25px" font-style="normal" font-weight="normal" font-stretch="normal" lengthAdjust="spacingAndGlyphs" textLength="13.90380859375" style="fill: rgba(255,255,255,0.8); stroke: none;stroke-miterlimit: 10;">2</text></g><g transform="translate(0.75983568565159620434,1.31607401295249704098)"><circle r="0.12" style="fill: none; stroke: #f00;stroke-width: 0.03;stroke-miterlimit: 10;"/></g><g><line x1="0" y1="0" x2="-0.7598356856515962" y2="1.316074012952497" style="fill: none; stroke: #f00;stroke-width: 0.05;stroke-linecap: round;stroke-miterlimit: 10;"/></g><g><line x1="0" y1="0" x2="0.7598356856515962" y2="1.316074012952497" style="fill: none; stroke: #fff;stroke-width: 0.1;stroke-linecap: round;stroke-miterlimit: 10;"/></g><g><line x1="0.7598356856515962" y1="1.316074012952497" x2="-0.7598356856515962" y2="1.316074012952497" style="fill: none; stroke: #fff;stroke-width: 0.1;stroke-linecap: round;stroke-miterlimit: 10;"/></g></g></g></g></g><g transform="translate(0.97499999999999431566,260.72888155429967582677)"><g><g transform="translate(24.89507056954788311032,0.00000000000000000000)"><g transform="scale(30.00000000000000000000)"><g><path d="M 0.00000000000000000000 0.00000000000000000000 L 0.75983568565159620434 1.31607401295249704098 L -0.75983568565159620434 1.31607401295249704098 L 0.00000000000000000000 0.00000000000000000000 Z " style="fill: #000; stroke: none;stroke-miterlimit: 10;"/></g><g><line x1="0" y1="0" x2="0.7598356856515962" y2="1.316074012952497" style="fill: none; stroke: rgba(255,255,255,0.2);stroke-width: 0.01;stroke-miterlimit: 10;"/></g><g><line x1="0.7598356856515962" y1="1.316074012952497" x2="-0.7598356856515962" y2="1.316074012952497" style="fill: none; stroke: rgba(255,255,255,0.2);stroke-width: 0.01;stroke-miterlimit: 10;"/></g><g><line x1="0" y1="0" x2="-0.7598356856515962" y2="1.316074012952497" style="fill: none; stroke: rgba(255,255,255,0.2);stroke-width: 0.01;stroke-miterlimit: 10;"/></g><g><circle r="0.06" style="fill: #222; stroke: rgba(255,255,255,0.2);stroke-width: 0.02;stroke-miterlimit: 10;"/></g><g transform="translate(0.75983568565159620434,1.31607401295249704098)"><circle r="0.06" style="fill: #222; stroke: rgba(255,255,255,0.2);stroke-width: 0.02;stroke-miterlimit: 10;"/></g><g transform="translate(-0.75983568565159620434,1.31607401295249704098)"><circle r="0.06" style="fill: #222; stroke: rgba(255,255,255,0.2);stroke-width: 0.02;stroke-miterlimit: 10;"/></g><g transform="matrix(0.03103448275862068922,0.00000000000000000000,0.00000000000000000000,0.03103448275862068922,-0.21574875404094825959,1.14117577874994058362)"><text dominant-baseline="alphabetic" text-rendering="geometricPrecision" xml:space="preserve" direction="ltr" font-family="Helvetica, Arial, sans-serif" font-size="25px" font-style="normal" font-weight="normal" font-stretch="normal" lengthAdjust="spacingAndGlyphs" textLength="13.90380859375" style="fill: rgba(255,255,255,0.8); stroke: none;stroke-miterlimit: 10;">1</text></g><g><line x1="0" y1="0" x2="0.7598356856515962" y2="1.316074012952497" style="fill: none; stroke: #f00;stroke-width: 0.05;stroke-linecap: round;stroke-miterlimit: 10;"/></g><g><line x1="0.7598356856515962" y1="1.316074012952497" x2="-0.7598356856515962" y2="1.316074012952497" style="fill: none; stroke: #f00;stroke-width: 0.05;stroke-linecap: round;stroke-miterlimit: 10;"/></g></g></g><g transform="translate(60.29014113909577332606,19.74111019428746160997)"><path d="M 0.00000000000000003062 0.50000000000000000000 L 13.00000000000000000000 0.50000000000000000000 L 13.00000000000000000000 3.50000000000000000000 L 20.00000000000000000000 0.00000000000000000000 L 13.00000000000000000000 -3.50000000000000000000 L 13.00000000000000000000 -0.50000000000000000000 L -0.00000000000000003062 -0.50000000000000000000 L 0.00000000000000003062 0.50000000000000000000 Z " style="fill: #ccc; stroke: #ccc;stroke-miterlimit: 10;"/></g><g transform="translate(116.30324569739356377340,0.00000000000000000000)"><g transform="scale(30.00000000000000000000)"><g><path d="M 0.00000000000000000000 0.00000000000000000000 L 0.75983568565159620434 1.31607401295249704098 L -0.75983568565159620434 1.31607401295249704098 L 0.00000000000000000000 0.00000000000000000000 Z " style="fill: #000; stroke: none;stroke-miterlimit: 10;"/></g><g><line x1="0" y1="0" x2="0.7598356856515962" y2="1.316074012952497" style="fill: none; stroke: rgba(255,255,255,0.2);stroke-width: 0.01;stroke-miterlimit: 10;"/></g><g><line x1="0.7598356856515962" y1="1.316074012952497" x2="-0.7598356856515962" y2="1.316074012952497" style="fill: none; stroke: rgba(255,255,255,0.2);stroke-width: 0.01;stroke-miterlimit: 10;"/></g><g><line x1="0" y1="0" x2="-0.7598356856515962" y2="1.316074012952497" style="fill: none; stroke: rgba(255,255,255,0.2);stroke-width: 0.01;stroke-miterlimit: 10;"/></g><g><circle r="0.06" style="fill: #222; stroke: rgba(255,255,255,0.2);stroke-width: 0.02;stroke-miterlimit: 10;"/></g><g transform="translate(0.75983568565159620434,1.31607401295249704098)"><circle r="0.06" style="fill: #222; stroke: rgba(255,255,255,0.2);stroke-width: 0.02;stroke-miterlimit: 10;"/></g><g transform="translate(-0.75983568565159620434,1.31607401295249704098)"><circle r="0.06" style="fill: #222; stroke: rgba(255,255,255,0.2);stroke-width: 0.02;stroke-miterlimit: 10;"/></g><g transform="matrix(0.03103448275862068922,0.00000000000000000000,0.00000000000000000000,0.03103448275862068922,-0.21574875404094825959,1.14117577874994058362)"><text dominant-baseline="alphabetic" text-rendering="geometricPrecision" xml:space="preserve" direction="ltr" font-family="Helvetica, Arial, sans-serif" font-size="25px" font-style="normal" font-weight="normal" font-stretch="normal" lengthAdjust="spacingAndGlyphs" textLength="13.90380859375" style="fill: rgba(255,255,255,0.8); stroke: none;stroke-miterlimit: 10;">1</text></g><g><line x1="0" y1="0" x2="0.7598356856515962" y2="1.316074012952497" style="fill: none; stroke: #f00;stroke-width: 0.05;stroke-linecap: round;stroke-miterlimit: 10;"/></g><g><line x1="0.7598356856515962" y1="1.316074012952497" x2="-0.7598356856515962" y2="1.316074012952497" style="fill: none; stroke: #f00;stroke-width: 0.05;stroke-linecap: round;stroke-miterlimit: 10;"/></g><g><line x1="0" y1="0" x2="-0.7598356856515962" y2="1.316074012952497" style="fill: none; stroke: #fff;stroke-width: 0.1;stroke-linecap: round;stroke-miterlimit: 10;"/></g></g></g></g></g><g transform="translate(0.97499999999999431566,326.36110194287454078221)"><g><g transform="translate(24.89507056954788311032,0.00000000000000000000)"><g transform="scale(30.00000000000000000000)"><g><path d="M 0.00000000000000000000 0.00000000000000000000 L 0.75983568565159620434 1.31607401295249704098 L -0.75983568565159620434 1.31607401295249704098 L 0.00000000000000000000 0.00000000000000000000 Z " style="fill: #000; stroke: none;stroke-miterlimit: 10;"/></g><g><line x1="0" y1="0" x2="0.7598356856515962" y2="1.316074012952497" style="fill: none; stroke: rgba(255,255,255,0.2);stroke-width: 0.01;stroke-miterlimit: 10;"/></g><g><line x1="0.7598356856515962" y1="1.316074012952497" x2="-0.7598356856515962" y2="1.316074012952497" style="fill: none; stroke: rgba(255,255,255,0.2);stroke-width: 0.01;stroke-miterlimit: 10;"/></g><g><line x1="0" y1="0" x2="-0.7598356856515962" y2="1.316074012952497" style="fill: none; stroke: rgba(255,255,255,0.2);stroke-width: 0.01;stroke-miterlimit: 10;"/></g><g><circle r="0.06" style="fill: #222; stroke: rgba(255,255,255,0.2);stroke-width: 0.02;stroke-miterlimit: 10;"/></g><g transform="translate(0.75983568565159620434,1.31607401295249704098)"><circle r="0.06" style="fill: #222; stroke: rgba(255,255,255,0.2);stroke-width: 0.02;stroke-miterlimit: 10;"/></g><g transform="translate(-0.75983568565159620434,1.31607401295249704098)"><circle r="0.06" style="fill: #222; stroke: rgba(255,255,255,0.2);stroke-width: 0.02;stroke-miterlimit: 10;"/></g><g transform="matrix(0.03103448275862068922,0.00000000000000000000,0.00000000000000000000,0.03103448275862068922,-0.21574875404094825959,1.14117577874994058362)"><text dominant-baseline="alphabetic" text-rendering="geometricPrecision" xml:space="preserve" direction="ltr" font-family="Helvetica, Arial, sans-serif" font-size="25px" font-style="normal" font-weight="normal" font-stretch="normal" lengthAdjust="spacingAndGlyphs" textLength="13.90380859375" style="fill: rgba(255,255,255,0.8); stroke: none;stroke-miterlimit: 10;">1</text></g><g><circle r="0.12" style="fill: none; stroke: #f00;stroke-width: 0.03;stroke-miterlimit: 10;"/></g></g></g><g transform="translate(60.29014113909577332606,18.76611019428745663618)"><path d="M 0.00000000000000003062 0.50000000000000000000 L 13.00000000000000000000 0.50000000000000000000 L 13.00000000000000000000 3.50000000000000000000 L 20.00000000000000000000 0.00000000000000000000 L 13.00000000000000000000 -3.50000000000000000000 L 13.00000000000000000000 -0.50000000000000000000 L -0.00000000000000003062 -0.50000000000000000000 L 0.00000000000000003062 0.50000000000000000000 Z " style="fill: #ccc; stroke: #ccc;stroke-miterlimit: 10;"/></g><g transform="translate(116.30324569739356377340,0.00000000000000000000)"><g transform="scale(30.00000000000000000000)"><g><path d="M 0.00000000000000000000 0.00000000000000000000 L 0.75983568565159620434 1.31607401295249704098 L -0.75983568565159620434 1.31607401295249704098 L 0.00000000000000000000 0.00000000000000000000 Z " style="fill: #000; stroke: none;stroke-miterlimit: 10;"/></g><g><line x1="0" y1="0" x2="0.7598356856515962" y2="1.316074012952497" style="fill: none; stroke: rgba(255,255,255,0.2);stroke-width: 0.01;stroke-miterlimit: 10;"/></g><g><line x1="0.7598356856515962" y1="1.316074012952497" x2="-0.7598356856515962" y2="1.316074012952497" style="fill: none; stroke: rgba(255,255,255,0.2);stroke-width: 0.01;stroke-miterlimit: 10;"/></g><g><line x1="0" y1="0" x2="-0.7598356856515962" y2="1.316074012952497" style="fill: none; stroke: rgba(255,255,255,0.2);stroke-width: 0.01;stroke-miterlimit: 10;"/></g><g><circle r="0.06" style="fill: #222; stroke: rgba(255,255,255,0.2);stroke-width: 0.02;stroke-miterlimit: 10;"/></g><g transform="translate(0.75983568565159620434,1.31607401295249704098)"><circle r="0.06" style="fill: #222; stroke: rgba(255,255,255,0.2);stroke-width: 0.02;stroke-miterlimit: 10;"/></g><g transform="translate(-0.75983568565159620434,1.31607401295249704098)"><circle r="0.06" style="fill: #222; stroke: rgba(255,255,255,0.2);stroke-width: 0.02;stroke-miterlimit: 10;"/></g><g transform="matrix(0.03103448275862068922,0.00000000000000000000,0.00000000000000000000,0.03103448275862068922,-0.21574875404094825959,1.14117577874994058362)"><text dominant-baseline="alphabetic" text-rendering="geometricPrecision" xml:space="preserve" direction="ltr" font-family="Helvetica, Arial, sans-serif" font-size="25px" font-style="normal" font-weight="normal" font-stretch="normal" lengthAdjust="spacingAndGlyphs" textLength="13.90380859375" style="fill: rgba(255,255,255,0.8); stroke: none;stroke-miterlimit: 10;">1</text></g><g><circle r="0.12" style="fill: none; stroke: #f00;stroke-width: 0.03;stroke-miterlimit: 10;"/></g><g><line x1="0" y1="0" x2="0.7598356856515962" y2="1.316074012952497" style="fill: none; stroke: #f00;stroke-width: 0.05;stroke-linecap: round;stroke-miterlimit: 10;"/></g><g><line x1="0" y1="0" x2="-0.7598356856515962" y2="1.316074012952497" style="fill: none; stroke: #f00;stroke-width: 0.05;stroke-linecap: round;stroke-miterlimit: 10;"/></g><g><line x1="0.7598356856515962" y1="1.316074012952497" x2="-0.7598356856515962" y2="1.316074012952497" style="fill: none; stroke: #fff;stroke-width: 0.1;stroke-linecap: round;stroke-miterlimit: 10;"/></g></g></g></g></g><g transform="translate(0.97499999999999431566,391.99332233144946258108)"><g><g transform="translate(24.89507056954788311032,0.00000000000000000000)"><g transform="scale(30.00000000000000000000)"><g><path d="M 0.00000000000000000000 0.00000000000000000000 L 0.75983568565159620434 1.31607401295249704098 L -0.75983568565159620434 1.31607401295249704098 L 0.00000000000000000000 0.00000000000000000000 Z " style="fill: #000; stroke: none;stroke-miterlimit: 10;"/></g><g><line x1="0" y1="0" x2="0.7598356856515962" y2="1.316074012952497" style="fill: none; stroke: rgba(255,255,255,0.2);stroke-width: 0.01;stroke-miterlimit: 10;"/></g><g><line x1="0.7598356856515962" y1="1.316074012952497" x2="-0.7598356856515962" y2="1.316074012952497" style="fill: none; stroke: rgba(255,255,255,0.2);stroke-width: 0.01;stroke-miterlimit: 10;"/></g><g><line x1="0" y1="0" x2="-0.7598356856515962" y2="1.316074012952497" style="fill: none; stroke: rgba(255,255,255,0.2);stroke-width: 0.01;stroke-miterlimit: 10;"/></g><g><circle r="0.06" style="fill: #222; stroke: rgba(255,255,255,0.2);stroke-width: 0.02;stroke-miterlimit: 10;"/></g><g transform="translate(0.75983568565159620434,1.31607401295249704098)"><circle r="0.06" style="fill: #222; stroke: rgba(255,255,255,0.2);stroke-width: 0.02;stroke-miterlimit: 10;"/></g><g transform="translate(-0.75983568565159620434,1.31607401295249704098)"><circle r="0.06" style="fill: #222; stroke: rgba(255,255,255,0.2);stroke-width: 0.02;stroke-miterlimit: 10;"/></g><g transform="matrix(0.03103448275862068922,0.00000000000000000000,0.00000000000000000000,0.03103448275862068922,-0.21574875404094825959,1.14117577874994058362)"><text dominant-baseline="alphabetic" text-rendering="geometricPrecision" xml:space="preserve" direction="ltr" font-family="Helvetica, Arial, sans-serif" font-size="25px" font-style="normal" font-weight="normal" font-stretch="normal" lengthAdjust="spacingAndGlyphs" textLength="13.90380859375" style="fill: rgba(255,255,255,0.8); stroke: none;stroke-miterlimit: 10;">2</text></g><g><circle r="0.12" style="fill: none; stroke: #f00;stroke-width: 0.03;stroke-miterlimit: 10;"/></g></g></g><g transform="translate(60.29014113909577332606,18.76611019428745663618)"><path d="M 0.00000000000000003062 0.50000000000000000000 L 13.00000000000000000000 0.50000000000000000000 L 13.00000000000000000000 3.50000000000000000000 L 20.00000000000000000000 0.00000000000000000000 L 13.00000000000000000000 -3.50000000000000000000 L 13.00000000000000000000 -0.50000000000000000000 L -0.00000000000000003062 -0.50000000000000000000 L 0.00000000000000003062 0.50000000000000000000 Z " style="fill: #ccc; stroke: #ccc;stroke-miterlimit: 10;"/></g><g transform="translate(116.30324569739356377340,0.00000000000000000000)"><g transform="scale(30.00000000000000000000)"><g><path d="M 0.00000000000000000000 0.00000000000000000000 L 0.75983568565159620434 1.31607401295249704098 L -0.75983568565159620434 1.31607401295249704098 L 0.00000000000000000000 0.00000000000000000000 Z " style="fill: #000; stroke: none;stroke-miterlimit: 10;"/></g><g><line x1="0" y1="0" x2="0.7598356856515962" y2="1.316074012952497" style="fill: none; stroke: rgba(255,255,255,0.2);stroke-width: 0.01;stroke-miterlimit: 10;"/></g><g><line x1="0.7598356856515962" y1="1.316074012952497" x2="-0.7598356856515962" y2="1.316074012952497" style="fill: none; stroke: rgba(255,255,255,0.2);stroke-width: 0.01;stroke-miterlimit: 10;"/></g><g><line x1="0" y1="0" x2="-0.7598356856515962" y2="1.316074012952497" style="fill: none; stroke: rgba(255,255,255,0.2);stroke-width: 0.01;stroke-miterlimit: 10;"/></g><g><circle r="0.06" style="fill: #222; stroke: rgba(255,255,255,0.2);stroke-width: 0.02;stroke-miterlimit: 10;"/></g><g transform="translate(0.75983568565159620434,1.31607401295249704098)"><circle r="0.06" style="fill: #222; stroke: rgba(255,255,255,0.2);stroke-width: 0.02;stroke-miterlimit: 10;"/></g><g transform="translate(-0.75983568565159620434,1.31607401295249704098)"><circle r="0.06" style="fill: #222; stroke: rgba(255,255,255,0.2);stroke-width: 0.02;stroke-miterlimit: 10;"/></g><g transform="matrix(0.03103448275862068922,0.00000000000000000000,0.00000000000000000000,0.03103448275862068922,-0.21574875404094825959,1.14117577874994058362)"><text dominant-baseline="alphabetic" text-rendering="geometricPrecision" xml:space="preserve" direction="ltr" font-family="Helvetica, Arial, sans-serif" font-size="25px" font-style="normal" font-weight="normal" font-stretch="normal" lengthAdjust="spacingAndGlyphs" textLength="13.90380859375" style="fill: rgba(255,255,255,0.8); stroke: none;stroke-miterlimit: 10;">2</text></g><g><circle r="0.12" style="fill: none; stroke: #f00;stroke-width: 0.03;stroke-miterlimit: 10;"/></g><g><line x1="0.7598356856515962" y1="1.316074012952497" x2="-0.7598356856515962" y2="1.316074012952497" style="fill: none; stroke: #f00;stroke-width: 0.05;stroke-linecap: round;stroke-miterlimit: 10;"/></g><g><line x1="0" y1="0" x2="0.7598356856515962" y2="1.316074012952497" style="fill: none; stroke: #fff;stroke-width: 0.1;stroke-linecap: round;stroke-miterlimit: 10;"/></g><g><line x1="0" y1="0" x2="-0.7598356856515962" y2="1.316074012952497" style="fill: none; stroke: #fff;stroke-width: 0.1;stroke-linecap: round;stroke-miterlimit: 10;"/></g></g></g></g></g></g></g></g></g></g></g></svg>