<svg xmlns="http://www.w3.org/2000/svg" width="186" height="607" aria-hidden="true" style="pointer-events:none;position:absolute;left:0;top:0;transform-origin:left top;z-index:20"><rect width="176" height="597" rx="0" ry="0" style="fill:#333"/><path d="m0 0 .76 1.316H-.76z" style="fill:#000" transform="matrix(30 0 0 30 41.845 17.1)"/><path d="m0 0 .76 1.316m0 0H-.76M0 0l-.76 1.316" style="fill:none;stroke:rgba(255,255,255,.2);stroke-width:.01" transform="matrix(30 0 0 30 41.845 17.1)"/><circle r=".06" style="fill:#222;stroke:rgba(255,255,255,.2);stroke-width:.02" transform="matrix(30 0 0 30 41.845 17.1)"/><circle r=".06" style="fill:#222;stroke:rgba(255,255,255,.2);stroke-width:.02" transform="matrix(30 0 0 30 64.64 56.582)"/><circle r=".06" style="fill:#222;stroke:rgba(255,255,255,.2);stroke-width:.02" transform="matrix(30 0 0 30 19.05 56.582)"/><text xml:space="preserve" dominant-baseline="alphabetic" font-family="Helvetica, Arial, sans-serif" font-size="25" lengthAdjust="spacingAndGlyphs" style="fill:rgba(255,255,255,.8)" text-rendering="geometricPrecision" textLength="13.904" transform="translate(35.373 51.335)scale(.93103)">0</text><path d="M0 .5h13v3L20 0l-7-3.5v3H0z" style="fill:#ccc;stroke:#ccc" transform="translate(77.24 36.841)"/><path d="m0 0 .76 1.316H-.76z" style="fill:#000" transform="matrix(30 0 0 30 133.253 17.1)"/><path d="m0 0 .76 1.316m0 0H-.76M0 0l-.76 1.316" style="fill:none;stroke:rgba(255,255,255,.2);stroke-width:.01" transform="matrix(30 0 0 30 133.253 17.1)"/><circle r=".06" style="fill:#222;stroke:rgba(255,255,255,.2);stroke-width:.02" transform="matrix(30 0 0 30 133.253 17.1)"/><circle r=".06" style="fill:#222;stroke:rgba(255,255,255,.2);stroke-width:.02" transform="matrix(30 0 0 30 156.048 56.582)"/><circle r=".06" style="fill:#222;stroke:rgba(255,255,255,.2);stroke-width:.02" transform="matrix(30 0 0 30 110.458 56.582)"/><text xml:space="preserve" dominant-baseline="alphabetic" font-family="Helvetica, Arial, sans-serif" font-size="25" lengthAdjust="spacingAndGlyphs" style="fill:rgba(255,255,255,.8)" text-rendering="geometricPrecision" textLength="13.904" transform="translate(126.78 51.335)scale(.93103)">0</text><path d="m0 0 .76 1.316m0 0H-.76M0 0l-.76 1.316" style="fill:none;stroke:red;stroke-width:.05;stroke-linecap:round" transform="matrix(30 0 0 30 133.253 17.1)"/><path d="m0 0 .76 1.316H-.76z" style="fill:#000" transform="matrix(30 0 0 30 41.845 80.782)"/><path d="m0 0 .76 1.316m0 0H-.76M0 0l-.76 1.316" style="fill:none;stroke:rgba(255,255,255,.2);stroke-width:.01" transform="matrix(30 0 0 30 41.845 80.782)"/><circle r=".06" style="fill:#222;stroke:rgba(255,255,255,.2);stroke-width:.02" transform="matrix(30 0 0 30 41.845 80.782)"/><circle r=".06" style="fill:#222;stroke:rgba(255,255,255,.2);stroke-width:.02" transform="matrix(30 0 0 30 64.64 120.264)"/><circle r=".06" style="fill:#222;stroke:rgba(255,255,255,.2);stroke-width:.02" transform="matrix(30 0 0 30 19.05 120.264)"/><text xml:space="preserve" dominant-baseline="alphabetic" font-family="Helvetica, Arial, sans-serif" font-size="25" lengthAdjust="spacingAndGlyphs" style="fill:rgba(255,255,255,.8)" text-rendering="geometricPrecision" textLength="13.904" transform="translate(35.373 115.017)scale(.93103)">1</text><path d="m0 0 .76 1.316" style="fill:none;stroke:#fff;stroke-width:.1;stroke-linecap:round" transform="matrix(30 0 0 30 41.845 80.782)"/><path d="M0 .5h13v3L20 0l-7-3.5v3H0z" style="fill:#ccc;stroke:#ccc" transform="translate(77.24 100.523)"/><path d="m0 0 .76 1.316H-.76z" style="fill:#000" transform="matrix(30 0 0 30 133.253 80.782)"/><path d="m0 0 .76 1.316m0 0H-.76M0 0l-.76 1.316" style="fill:none;stroke:rgba(255,255,255,.2);stroke-width:.01" transform="matrix(30 0 0 30 133.253 80.782)"/><circle r=".06" style="fill:#222;stroke:rgba(255,255,255,.2);stroke-width:.02" transform="matrix(30 0 0 30 133.253 80.782)"/><circle r=".06" style="fill:#222;stroke:rgba(255,255,255,.2);stroke-width:.02" transform="matrix(30 0 0 30 156.048 120.264)"/><circle r=".06" style="fill:#222;stroke:rgba(255,255,255,.2);stroke-width:.02" transform="matrix(30 0 0 30 110.458 120.264)"/><text xml:space="preserve" dominant-baseline="alphabetic" font-family="Helvetica, Arial, sans-serif" font-size="25" lengthAdjust="spacingAndGlyphs" style="fill:rgba(255,255,255,.8)" text-rendering="geometricPrecision" textLength="13.904" transform="translate(126.78 115.017)scale(.93103)">1</text><path d="M.76 1.316H-.76M0 0l-.76 1.316" style="fill:none;stroke:red;stroke-width:.05;stroke-linecap:round" transform="matrix(30 0 0 30 133.253 80.782)"/><path d="m0 0 .76 1.316" style="fill:none;stroke:#fff;stroke-width:.1;stroke-linecap:round" transform="matrix(30 0 0 30 133.253 80.782)"/><path d="m0 0 .76 1.316H-.76z" style="fill:#000" transform="matrix(30 0 0 30 40.87 144.464)"/><path d="m0 0 .76 1.316m0 0H-.76M0 0l-.76 1.316" style="fill:none;stroke:rgba(255,255,255,.2);stroke-width:.01" transform="matrix(30 0 0 30 40.87 144.464)"/><circle r=".06" style="fill:#222;stroke:rgba(255,255,255,.2);stroke-width:.02" transform="matrix(30 0 0 30 40.87 144.464)"/><circle r=".06" style="fill:#222;stroke:rgba(255,255,255,.2);stroke-width:.02" transform="matrix(30 0 0 30 63.665 183.947)"/><circle r=".06" style="fill:#222;stroke:rgba(255,255,255,.2);stroke-width:.02" transform="matrix(30 0 0 30 18.075 183.947)"/><text xml:space="preserve" dominant-baseline="alphabetic" font-family="Helvetica, Arial, sans-serif" font-size="25" lengthAdjust="spacingAndGlyphs" style="fill:rgba(255,255,255,.8)" text-rendering="geometricPrecision" textLength="13.904" transform="translate(34.398 178.7)scale(.93103)">2</text><path d="m0 0 .76 1.316" style="fill:none;stroke:red;stroke-width:.05;stroke-linecap:round" transform="matrix(30 0 0 30 40.87 144.464)"/><path d="M0 .5h13v3L20 0l-7-3.5v3H0z" style="fill:#ccc;stroke:#ccc" transform="translate(76.265 165.18)"/><path d="m0 0 .76 1.316H-.76z" style="fill:#000" transform="matrix(30 0 0 30 134.228 144.464)"/><path d="m0 0 .76 1.316m0 0H-.76M0 0l-.76 1.316" style="fill:none;stroke:rgba(255,255,255,.2);stroke-width:.01" transform="matrix(30 0 0 30 134.228 144.464)"/><circle r=".06" style="fill:#222;stroke:rgba(255,255,255,.2);stroke-width:.02" transform="matrix(30 0 0 30 134.228 144.464)"/><circle r=".06" style="fill:#222;stroke:rgba(255,255,255,.2);stroke-width:.02" transform="matrix(30 0 0 30 157.023 183.947)"/><circle r=".06" style="fill:#222;stroke:rgba(255,255,255,.2);stroke-width:.02" transform="matrix(30 0 0 30 111.433 183.947)"/><text xml:space="preserve" dominant-baseline="alphabetic" font-family="Helvetica, Arial, sans-serif" font-size="25" lengthAdjust="spacingAndGlyphs" style="fill:rgba(255,255,255,.8)" text-rendering="geometricPrecision" textLength="13.904" transform="translate(127.756 178.7)scale(.93103)">2</text><circle r=".12" style="fill:none;stroke:red;stroke-width:.03" transform="matrix(30 0 0 30 111.433 183.947)"/><path d="m0 0 .76 1.316" style="fill:none;stroke:red;stroke-width:.05;stroke-linecap:round" transform="matrix(30 0 0 30 134.228 144.464)"/><path d="M.76 1.316H-.76M0 0l-.76 1.316" style="fill:none;stroke:#fff;stroke-width:.1;stroke-linecap:round" transform="matrix(30 0 0 30 134.228 144.464)"/><path d="m0 0 .76 1.316H-.76z" style="fill:#000" transform="matrix(30 0 0 30 40.87 210.097)"/><path d="m0 0 .76 1.316m0 0H-.76M0 0l-.76 1.316" style="fill:none;stroke:rgba(255,255,255,.2);stroke-width:.01" transform="matrix(30 0 0 30 40.87 210.097)"/><circle r=".06" style="fill:#222;stroke:rgba(255,255,255,.2);stroke-width:.02" transform="matrix(30 0 0 30 40.87 210.097)"/><circle r=".06" style="fill:#222;stroke:rgba(255,255,255,.2);stroke-width:.02" transform="matrix(30 0 0 30 63.665 249.579)"/><circle r=".06" style="fill:#222;stroke:rgba(255,255,255,.2);stroke-width:.02" transform="matrix(30 0 0 30 18.075 249.579)"/><text xml:space="preserve" dominant-baseline="alphabetic" font-family="Helvetica, Arial, sans-serif" font-size="25" lengthAdjust="spacingAndGlyphs" style="fill:rgba(255,255,255,.2)" text-rendering="geometricPrecision" textLength="13.904" transform="translate(34.398 244.332)scale(.93103)">?</text><path d="m0 0 .76 1.316m0 0H-.76" style="fill:none;stroke:#fff;stroke-width:.1;stroke-linecap:round" transform="matrix(30 0 0 30 40.87 210.097)"/><path d="M0 .5h13v3L20 0l-7-3.5v3H0z" style="fill:#ccc;stroke:#ccc" transform="translate(76.265 230.813)"/><path d="m0 0 .76 1.316H-.76z" style="fill:#000" transform="matrix(30 0 0 30 132.278 210.097)"/><path d="m0 0 .76 1.316m0 0H-.76M0 0l-.76 1.316" style="fill:none;stroke:rgba(255,255,255,.2);stroke-width:.01" transform="matrix(30 0 0 30 132.278 210.097)"/><circle r=".06" style="fill:#222;stroke:rgba(255,255,255,.2);stroke-width:.02" transform="matrix(30 0 0 30 132.278 210.097)"/><circle r=".06" style="fill:#222;stroke:rgba(255,255,255,.2);stroke-width:.02" transform="matrix(30 0 0 30 155.073 249.579)"/><circle r=".06" style="fill:#222;stroke:rgba(255,255,255,.2);stroke-width:.02" transform="matrix(30 0 0 30 109.483 249.579)"/><text xml:space="preserve" dominant-baseline="alphabetic" font-family="Helvetica, Arial, sans-serif" font-size="25" lengthAdjust="spacingAndGlyphs" style="fill:rgba(255,255,255,.2)" text-rendering="geometricPrecision" textLength="13.904" transform="translate(125.806 244.332)scale(.93103)">?</text><circle r=".12" style="fill:none;stroke:red;stroke-width:.03" transform="matrix(30 0 0 30 155.073 249.579)"/><path d="m0 0-.76 1.316" style="fill:none;stroke:red;stroke-width:.05;stroke-linecap:round" transform="matrix(30 0 0 30 132.278 210.097)"/><path d="m0 0 .76 1.316m0 0H-.76" style="fill:none;stroke:#fff;stroke-width:.1;stroke-linecap:round" transform="matrix(30 0 0 30 132.278 210.097)"/><path d="m0 0 .76 1.316H-.76z" style="fill:#000" transform="matrix(30 0 0 30 41.845 275.729)"/><path d="m0 0 .76 1.316m0 0H-.76M0 0l-.76 1.316" style="fill:none;stroke:rgba(255,255,255,.2);stroke-width:.01" transform="matrix(30 0 0 30 41.845 275.729)"/><circle r=".06" style="fill:#222;stroke:rgba(255,255,255,.2);stroke-width:.02" transform="matrix(30 0 0 30 41.845 275.729)"/><circle r=".06" style="fill:#222;stroke:rgba(255,255,255,.2);stroke-width:.02" transform="matrix(30 0 0 30 64.64 315.211)"/><circle r=".06" style="fill:#222;stroke:rgba(255,255,255,.2);stroke-width:.02" transform="matrix(30 0 0 30 19.05 315.211)"/><text xml:space="preserve" dominant-baseline="alphabetic" font-family="Helvetica, Arial, sans-serif" font-size="25" lengthAdjust="spacingAndGlyphs" style="fill:rgba(255,255,255,.8)" text-rendering="geometricPrecision" textLength="13.904" transform="translate(35.373 309.964)scale(.93103)">1</text><path d="m0 0 .76 1.316m0 0H-.76" style="fill:none;stroke:red;stroke-width:.05;stroke-linecap:round" transform="matrix(30 0 0 30 41.845 275.729)"/><path d="M0 .5h13v3L20 0l-7-3.5v3H0z" style="fill:#ccc;stroke:#ccc" transform="translate(77.24 295.47)"/><path d="m0 0 .76 1.316H-.76z" style="fill:#000" transform="matrix(30 0 0 30 133.253 275.729)"/><path d="m0 0 .76 1.316m0 0H-.76M0 0l-.76 1.316" style="fill:none;stroke:rgba(255,255,255,.2);stroke-width:.01" transform="matrix(30 0 0 30 133.253 275.729)"/><circle r=".06" style="fill:#222;stroke:rgba(255,255,255,.2);stroke-width:.02" transform="matrix(30 0 0 30 133.253 275.729)"/><circle r=".06" style="fill:#222;stroke:rgba(255,255,255,.2);stroke-width:.02" transform="matrix(30 0 0 30 156.048 315.211)"/><circle r=".06" style="fill:#222;stroke:rgba(255,255,255,.2);stroke-width:.02" transform="matrix(30 0 0 30 110.458 315.211)"/><text xml:space="preserve" dominant-baseline="alphabetic" font-family="Helvetica, Arial, sans-serif" font-size="25" lengthAdjust="spacingAndGlyphs" style="fill:rgba(255,255,255,.8)" text-rendering="geometricPrecision" textLength="13.904" transform="translate(126.78 309.964)scale(.93103)">1</text><path d="m0 0 .76 1.316m0 0H-.76" style="fill:none;stroke:red;stroke-width:.05;stroke-linecap:round" transform="matrix(30 0 0 30 133.253 275.729)"/><path d="m0 0-.76 1.316" style="fill:none;stroke:#fff;stroke-width:.1;stroke-linecap:round" transform="matrix(30 0 0 30 133.253 275.729)"/><path d="m0 0 .76 1.316H-.76z" style="fill:#000" transform="matrix(30 0 0 30 41.845 341.361)"/><path d="m0 0 .76 1.316m0 0H-.76M0 0l-.76 1.316" style="fill:none;stroke:rgba(255,255,255,.2);stroke-width:.01" transform="matrix(30 0 0 30 41.845 341.361)"/><circle r=".06" style="fill:#222;stroke:rgba(255,255,255,.2);stroke-width:.02" transform="matrix(30 0 0 30 41.845 341.361)"/><circle r=".06" style="fill:#222;stroke:rgba(255,255,255,.2);stroke-width:.02" transform="matrix(30 0 0 30 64.64 380.843)"/><circle r=".06" style="fill:#222;stroke:rgba(255,255,255,.2);stroke-width:.02" transform="matrix(30 0 0 30 19.05 380.843)"/><text xml:space="preserve" dominant-baseline="alphabetic" font-family="Helvetica, Arial, sans-serif" font-size="25" lengthAdjust="spacingAndGlyphs" style="fill:rgba(255,255,255,.8)" text-rendering="geometricPrecision" textLength="13.904" transform="translate(35.373 375.596)scale(.93103)">1</text><circle r=".12" style="fill:none;stroke:red;stroke-width:.03" transform="matrix(30 0 0 30 41.845 341.361)"/><path d="M0 .5h13v3L20 0l-7-3.5v3H0z" style="fill:#ccc;stroke:#ccc" transform="translate(77.24 360.127)"/><path d="m0 0 .76 1.316H-.76z" style="fill:#000" transform="matrix(30 0 0 30 133.253 341.361)"/><path d="m0 0 .76 1.316m0 0H-.76M0 0l-.76 1.316" style="fill:none;stroke:rgba(255,255,255,.2);stroke-width:.01" transform="matrix(30 0 0 30 133.253 341.361)"/><circle r=".06" style="fill:#222;stroke:rgba(255,255,255,.2);stroke-width:.02" transform="matrix(30 0 0 30 133.253 341.361)"/><circle r=".06" style="fill:#222;stroke:rgba(255,255,255,.2);stroke-width:.02" transform="matrix(30 0 0 30 156.048 380.843)"/><circle r=".06" style="fill:#222;stroke:rgba(255,255,255,.2);stroke-width:.02" transform="matrix(30 0 0 30 110.458 380.843)"/><text xml:space="preserve" dominant-baseline="alphabetic" font-family="Helvetica, Arial, sans-serif" font-size="25" lengthAdjust="spacingAndGlyphs" style="fill:rgba(255,255,255,.8)" text-rendering="geometricPrecision" textLength="13.904" transform="translate(126.78 375.596)scale(.93103)">1</text><circle r=".12" style="fill:none;stroke:red;stroke-width:.03" transform="matrix(30 0 0 30 133.253 341.361)"/><path d="m0 0 .76 1.316M0 0l-.76 1.316" style="fill:none;stroke:red;stroke-width:.05;stroke-linecap:round" transform="matrix(30 0 0 30 133.253 341.361)"/><path d="M.76 1.316H-.76" style="fill:none;stroke:#fff;stroke-width:.1;stroke-linecap:round" transform="matrix(30 0 0 30 133.253 341.361)"/><path d="m0 0 .76 1.316H-.76z" style="fill:#000" transform="matrix(30 0 0 30 41.845 406.993)"/><path d="m0 0 .76 1.316m0 0H-.76M0 0l-.76 1.316" style="fill:none;stroke:rgba(255,255,255,.2);stroke-width:.01" transform="matrix(30 0 0 30 41.845 406.993)"/><circle r=".06" style="fill:#222;stroke:rgba(255,255,255,.2);stroke-width:.02" transform="matrix(30 0 0 30 41.845 406.993)"/><circle r=".06" style="fill:#222;stroke:rgba(255,255,255,.2);stroke-width:.02" transform="matrix(30 0 0 30 64.64 446.476)"/><circle r=".06" style="fill:#222;stroke:rgba(255,255,255,.2);stroke-width:.02" transform="matrix(30 0 0 30 19.05 446.476)"/><text xml:space="preserve" dominant-baseline="alphabetic" font-family="Helvetica, Arial, sans-serif" font-size="25" lengthAdjust="spacingAndGlyphs" style="fill:rgba(255,255,255,.8)" text-rendering="geometricPrecision" textLength="13.904" transform="translate(35.373 441.229)scale(.93103)">2</text><circle r=".12" style="fill:none;stroke:red;stroke-width:.03" transform="matrix(30 0 0 30 41.845 406.993)"/><path d="M0 .5h13v3L20 0l-7-3.5v3H0z" style="fill:#ccc;stroke:#ccc" transform="translate(77.24 425.76)"/><path d="m0 0 .76 1.316H-.76z" style="fill:#000" transform="matrix(30 0 0 30 133.253 406.993)"/><path d="m0 0 .76 1.316m0 0H-.76M0 0l-.76 1.316" style="fill:none;stroke:rgba(255,255,255,.2);stroke-width:.01" transform="matrix(30 0 0 30 133.253 406.993)"/><circle r=".06" style="fill:#222;stroke:rgba(255,255,255,.2);stroke-width:.02" transform="matrix(30 0 0 30 133.253 406.993)"/><circle r=".06" style="fill:#222;stroke:rgba(255,255,255,.2);stroke-width:.02" transform="matrix(30 0 0 30 156.048 446.476)"/><circle r=".06" style="fill:#222;stroke:rgba(255,255,255,.2);stroke-width:.02" transform="matrix(30 0 0 30 110.458 446.476)"/><text xml:space="preserve" dominant-baseline="alphabetic" font-family="Helvetica, Arial, sans-serif" font-size="25" lengthAdjust="spacingAndGlyphs" style="fill:rgba(255,255,255,.8)" text-rendering="geometricPrecision" textLength="13.904" transform="translate(126.78 441.229)scale(.93103)">2</text><circle r=".12" style="fill:none;stroke:red;stroke-width:.03" transform="matrix(30 0 0 30 133.253 406.993)"/><path d="M.76 1.316H-.76" style="fill:none;stroke:red;stroke-width:.05;stroke-linecap:round" transform="matrix(30 0 0 30 133.253 406.993)"/><path d="m0 0 .76 1.316M0 0l-.76 1.316" style="fill:none;stroke:#fff;stroke-width:.1;stroke-linecap:round" transform="matrix(30 0 0 30 133.253 406.993)"/><path d="m0 0 .76 1.316H-.76z" style="fill:#000" transform="matrix(30 0 0 30 41.845 472.626)"/><path d="m0 0 .76 1.316m0 0H-.76M0 0l-.76 1.316" style="fill:none;stroke:rgba(255,255,255,.2);stroke-width:.01" transform="matrix(30 0 0 30 41.845 472.626)"/><circle r=".06" style="fill:#222;stroke:rgba(255,255,255,.2);stroke-width:.02" transform="matrix(30 0 0 30 41.845 472.626)"/><circle r=".06" style="fill:#222;stroke:rgba(255,255,255,.2);stroke-width:.02" transform="matrix(30 0 0 30 64.64 512.108)"/><circle r=".06" style="fill:#222;stroke:rgba(255,255,255,.2);stroke-width:.02" transform="matrix(30 0 0 30 19.05 512.108)"/><text xml:space="preserve" dominant-baseline="alphabetic" font-family="Helvetica, Arial, sans-serif" font-size="25" lengthAdjust="spacingAndGlyphs" style="fill:rgba(255,255,255,.2)" text-rendering="geometricPrecision" textLength="13.904" transform="translate(35.373 506.86)scale(.93103)">?</text><circle r=".12" style="fill:none;stroke:red;stroke-width:.03" transform="matrix(30 0 0 30 41.845 472.626)"/><path d="M.76 1.316H-.76" style="fill:none;stroke:#fff;stroke-width:.1;stroke-linecap:round" transform="matrix(30 0 0 30 41.845 472.626)"/><path d="M0 .5h13v3L20 0l-7-3.5v3H0z" style="fill:#ccc;stroke:#ccc" transform="translate(77.24 491.392)"/><path d="m0 0 .76 1.316H-.76z" style="fill:#000" transform="matrix(30 0 0 30 133.253 472.626)"/><path d="m0 0 .76 1.316m0 0H-.76M0 0l-.76 1.316" style="fill:none;stroke:rgba(255,255,255,.2);stroke-width:.01" transform="matrix(30 0 0 30 133.253 472.626)"/><circle r=".06" style="fill:#222;stroke:rgba(255,255,255,.2);stroke-width:.02" transform="matrix(30 0 0 30 133.253 472.626)"/><circle r=".06" style="fill:#222;stroke:rgba(255,255,255,.2);stroke-width:.02" transform="matrix(30 0 0 30 156.048 512.108)"/><circle r=".06" style="fill:#222;stroke:rgba(255,255,255,.2);stroke-width:.02" transform="matrix(30 0 0 30 110.458 512.108)"/><text xml:space="preserve" dominant-baseline="alphabetic" font-family="Helvetica, Arial, sans-serif" font-size="25" lengthAdjust="spacingAndGlyphs" style="fill:rgba(255,255,255,.2)" text-rendering="geometricPrecision" textLength="13.904" transform="translate(126.78 506.86)scale(.93103)">?</text><circle r=".12" style="fill:none;stroke:red;stroke-width:.03" transform="matrix(30 0 0 30 133.253 472.626)"/><path d="m0 0 .76 1.316M0 0l-.76 1.316" style="fill:none;stroke:red;stroke-width:.05;stroke-linecap:round" transform="matrix(30 0 0 30 133.253 472.626)"/><path d="M.76 1.316H-.76" style="fill:none;stroke:#fff;stroke-width:.1;stroke-linecap:round" transform="matrix(30 0 0 30 133.253 472.626)"/><path d="m0 0 .76 1.316H-.76z" style="fill:#000" transform="matrix(30 0 0 30 39.895 538.258)"/><path d="m0 0 .76 1.316m0 0H-.76M0 0l-.76 1.316" style="fill:none;stroke:rgba(255,255,255,.2);stroke-width:.01" transform="matrix(30 0 0 30 39.895 538.258)"/><circle r=".06" style="fill:#222;stroke:rgba(255,255,255,.2);stroke-width:.02" transform="matrix(30 0 0 30 39.895 538.258)"/><circle r=".06" style="fill:#222;stroke:rgba(255,255,255,.2);stroke-width:.02" transform="matrix(30 0 0 30 62.69 577.74)"/><circle r=".06" style="fill:#222;stroke:rgba(255,255,255,.2);stroke-width:.02" transform="matrix(30 0 0 30 17.1 577.74)"/><text xml:space="preserve" dominant-baseline="alphabetic" font-family="Helvetica, Arial, sans-serif" font-size="25" lengthAdjust="spacingAndGlyphs" style="fill:rgba(255,255,255,.2)" text-rendering="geometricPrecision" textLength="13.904" transform="translate(33.423 572.493)scale(.93103)">?</text><circle r=".12" style="fill:none;stroke:red;stroke-width:.03" transform="matrix(30 0 0 30 39.895 538.258)"/><circle r=".12" style="fill:none;stroke:red;stroke-width:.03" transform="matrix(30 0 0 30 62.69 577.74)"/><path d="M0 .5h13v3L20 0l-7-3.5v3H0z" style="fill:#ccc;stroke:#ccc" transform="translate(77.24 557.999)"/><path d="m0 0 .76 1.316H-.76z" style="fill:#000" transform="matrix(30 0 0 30 133.253 538.258)"/><path d="m0 0 .76 1.316m0 0H-.76M0 0l-.76 1.316" style="fill:none;stroke:rgba(255,255,255,.2);stroke-width:.01" transform="matrix(30 0 0 30 133.253 538.258)"/><circle r=".06" style="fill:#222;stroke:rgba(255,255,255,.2);stroke-width:.02" transform="matrix(30 0 0 30 133.253 538.258)"/><circle r=".06" style="fill:#222;stroke:rgba(255,255,255,.2);stroke-width:.02" transform="matrix(30 0 0 30 156.048 577.74)"/><circle r=".06" style="fill:#222;stroke:rgba(255,255,255,.2);stroke-width:.02" transform="matrix(30 0 0 30 110.458 577.74)"/><text xml:space="preserve" dominant-baseline="alphabetic" font-family="Helvetica, Arial, sans-serif" font-size="25" lengthAdjust="spacingAndGlyphs" style="fill:rgba(255,255,255,.2)" text-rendering="geometricPrecision" textLength="13.904" transform="translate(126.78 572.493)scale(.93103)">?</text><circle r=".12" style="fill:none;stroke:red;stroke-width:.03" transform="matrix(30 0 0 30 133.253 538.258)"/><circle r=".12" style="fill:none;stroke:red;stroke-width:.03" transform="matrix(30 0 0 30 156.048 577.74)"/><path d="m0 0 .76 1.316m0 0H-.76M0 0l-.76 1.316" style="fill:none;stroke:red;stroke-width:.05;stroke-linecap:round" transform="matrix(30 0 0 30 133.253 538.258)"/></svg>