<svg xmlns="http://www.w3.org/2000/svg" focusable="false" aria-hidden="true" width="175" height="93" style="pointer-events: none; position: absolute; left: 0px; top: 0px; transform-origin: left top; z-index: 20;"><defs/><g><g><g><g><rect x="0" y="0" width="165" height="83" rx="0" ry="0" style="fill: #333; stroke: none;stroke-miterlimit: 10;"/></g><g transform="translate(10.00000000000000000000,10.00000000000000000000)"><g transform="translate(5.00000000000000000000,5.00000000000000000000)"><g><g transform="translate(0.00000000000000000000,26.05576211353315585484)"><g><g transform="translate(15.12990381056767930090,0.00000000000000000000)"><g transform="scale(30.00000000000000000000)"><g><path d="M -0.49999999999999977796 0.86602540378443870761 L 0.00000000000000000000 0.00000000000000000000 L 1.00000000000000000000 0.00000000000000000000 L -0.49999999999999977796 0.86602540378443870761 Z " style="fill: #000; stroke: none;stroke-miterlimit: 10;"/></g><g><path d="M -0.50000000000000044409 -0.86602540378443848557 L 0.00000000000000000000 0.00000000000000000000 L -0.49999999999999977796 0.86602540378443870761 L -0.50000000000000044409 -0.86602540378443848557 Z " style="fill: #000; stroke: none;stroke-miterlimit: 10;"/></g><g><path d="M 1.00000000000000000000 0.00000000000000000000 L 0.00000000000000000000 0.00000000000000000000 L -0.50000000000000044409 -0.86602540378443848557 L 1.00000000000000000000 0.00000000000000000000 Z " style="fill: #000; stroke: none;stroke-miterlimit: 10;"/></g><g><line x1="0" y1="0" x2="1" y2="0" style="fill: none; stroke: rgba(255,255,255,0.2);stroke-width: 0.01;stroke-miterlimit: 10;"/></g><g><line x1="0" y1="0" x2="-0.4999999999999998" y2="0.8660254037844387" style="fill: none; stroke: rgba(255,255,255,0.2);stroke-width: 0.01;stroke-miterlimit: 10;"/></g><g><line x1="0" y1="0" x2="-0.5000000000000004" y2="-0.8660254037844385" style="fill: none; stroke: rgba(255,255,255,0.2);stroke-width: 0.01;stroke-miterlimit: 10;"/></g><g><circle r="0.04" style="fill: rgba(255,255,255,0.2); stroke: rgba(255,255,255,0.2);stroke-width: 0.02;stroke-miterlimit: 10;"/></g><g><line x1="0" y1="0" x2="1" y2="0" style="fill: none; stroke: #fff;stroke-width: 0.1;stroke-linecap: round;stroke-miterlimit: 10;"/></g></g></g><g transform="translate(57.12990381056767574819,0.00000000000000000000)"><path d="M 0.00000000000000003062 0.50000000000000000000 L 13.00000000000000000000 0.50000000000000000000 L 13.00000000000000000000 3.50000000000000000000 L 20.00000000000000000000 0.00000000000000000000 L 13.00000000000000000000 -3.50000000000000000000 L 13.00000000000000000000 -0.50000000000000000000 L -0.00000000000000003062 -0.50000000000000000000 L 0.00000000000000003062 0.50000000000000000000 Z " style="fill: #ccc; stroke: #ccc;stroke-miterlimit: 10;"/></g><g transform="translate(103.37784160988526593883,0.00000000000000000000)"><g transform="scale(30.00000000000000000000)"><g><path d="M -0.49999999999999977796 0.86602540378443870761 L 0.00000000000000000000 0.00000000000000000000 L 1.00000000000000000000 0.00000000000000000000 L -0.49999999999999977796 0.86602540378443870761 Z " style="fill: #000; stroke: none;stroke-miterlimit: 10;"/></g><g><path d="M -0.50000000000000044409 -0.86602540378443848557 L 0.00000000000000000000 0.00000000000000000000 L -0.49999999999999977796 0.86602540378443870761 L -0.50000000000000044409 -0.86602540378443848557 Z " style="fill: #000; stroke: none;stroke-miterlimit: 10;"/></g><g><path d="M 1.00000000000000000000 0.00000000000000000000 L 0.00000000000000000000 0.00000000000000000000 L -0.50000000000000044409 -0.86602540378443848557 L 1.00000000000000000000 0.00000000000000000000 Z " style="fill: #000; stroke: none;stroke-miterlimit: 10;"/></g><g><path d="M -0.12500000000000011102 -0.21650635094610962139 L -0.12500000000000013878 -0.21650635094610956588 A 0.25000000000000000000 0.25000000000000000000 0 0 0 -0.12500000000000005551 0.21650635094610964915 " style="fill: none; stroke: rgb(255,0,0);stroke-width: 0.02;stroke-miterlimit: 10;"/></g><g><line x1="0" y1="0" x2="1" y2="0" style="fill: none; stroke: rgba(255,255,255,0.2);stroke-width: 0.01;stroke-miterlimit: 10;"/></g><g><line x1="0" y1="0" x2="-0.4999999999999998" y2="0.8660254037844387" style="fill: none; stroke: rgba(255,255,255,0.2);stroke-width: 0.01;stroke-miterlimit: 10;"/></g><g><line x1="0" y1="0" x2="-0.5000000000000004" y2="-0.8660254037844385" style="fill: none; stroke: rgba(255,255,255,0.2);stroke-width: 0.01;stroke-miterlimit: 10;"/></g><g><circle r="0.04" style="fill: rgba(255,255,255,0.2); stroke: rgba(255,255,255,0.2);stroke-width: 0.02;stroke-miterlimit: 10;"/></g><g><line x1="0" y1="0" x2="1" y2="0" style="fill: none; stroke: #fff;stroke-width: 0.1;stroke-linecap: round;stroke-miterlimit: 10;"/></g></g></g></g></g></g></g></g></g></g></g></svg>