<svg xmlns="http://www.w3.org/2000/svg" width="203" height="260" aria-hidden="true" style="pointer-events:none;position:absolute;left:0;top:0;transform-origin:left top;z-index:20"><rect width="193" height="250" rx="0" ry="0" style="fill:#333"/><path d="M0 1V0h1zm-1-1h1v1zm1-1v1h-1z" style="fill:#000" transform="matrix(30 0 0 30 45.375 45)"/><path d="M0 .25A.25.25 0 0 0 .25 0" style="fill:none;stroke:#e07c1f;stroke-width:.02;stroke-dasharray:.03,.03;stroke-dashoffset:0" transform="matrix(30 0 0 30 45.375 45)"/><path d="M-.22 0A.22.22 0 0 0 0 .22M-.28 0A.28.28 0 0 0 0 .28" style="fill:none;stroke:#2a892a;stroke-width:.02;stroke-dasharray:.03,.03;stroke-dashoffset:0" transform="matrix(30 0 0 30 45.375 45)"/><path d="M0 0h1M0 0v1m0-1h-1m1 0v-1" style="fill:none;stroke:rgba(255,255,255,.2);stroke-width:.01" transform="matrix(30 0 0 30 45.375 45)"/><circle r=".06" style="fill:#222;stroke:rgba(255,255,255,.2);stroke-width:.02" transform="matrix(30 0 0 30 45.375 45)"/><circle r=".12" style="fill:none;stroke:red;stroke-width:.03" transform="matrix(30 0 0 30 45.375 45)"/><path d="M0 .5h13v3L20 0l-7-3.5v3H0z" style="fill:#ccc;stroke:#ccc" transform="translate(85.875 45)"/><path d="M0 1V0h1zm-1-1h1v1zm1-1v1h-1z" style="fill:#000" transform="matrix(30 0 0 30 146.993 45)"/><path d="M0 .25A.25.25 0 0 0 .25 0" style="fill:none;stroke:#e07c1f;stroke-width:.02;stroke-dasharray:.03,.03;stroke-dashoffset:0" transform="matrix(30 0 0 30 146.993 45)"/><path d="M-.22 0A.22.22 0 0 0 0 .22M-.28 0A.28.28 0 0 0 0 .28m0-.5A.22.22 0 0 0-.22 0M0-.28A.28.28 0 0 0-.28 0" style="fill:none;stroke:#2a892a;stroke-width:.02;stroke-dasharray:.03,.03;stroke-dashoffset:0" transform="matrix(30 0 0 30 146.993 45)"/><path d="M0 0h1M0 0v1m0-1h-1m1 0v-1" style="fill:none;stroke:rgba(255,255,255,.2);stroke-width:.01" transform="matrix(30 0 0 30 146.993 45)"/><circle r=".06" style="fill:#222;stroke:rgba(255,255,255,.2);stroke-width:.02" transform="matrix(30 0 0 30 146.993 45)"/><circle r=".12" style="fill:none;stroke:red;stroke-width:.03" transform="matrix(30 0 0 30 146.993 45)"/><path d="M0 1V0h1zm-1-1h1v1zm1-1v1h-1z" style="fill:#000" transform="matrix(30 0 0 30 45.375 125)"/><path d="M0 .22A.22.22 0 0 0 .22 0M0 .28A.28.28 0 0 0 .28 0" style="fill:none;stroke:#08a4d9;stroke-width:.02" transform="matrix(30 0 0 30 45.375 125)"/><path d="M-.25 0A.25.25 0 0 0 0 .25" style="fill:none;stroke:red;stroke-width:.02" transform="matrix(30 0 0 30 45.375 125)"/><path d="M0-.22A.22.22 0 0 0-.22 0M0-.28A.28.28 0 0 0-.28 0" style="fill:none;stroke:#08a4d9;stroke-width:.02" transform="matrix(30 0 0 30 45.375 125)"/><path d="M0 0h1M0 0v1m0-1h-1m1 0v-1" style="fill:none;stroke:rgba(255,255,255,.2);stroke-width:.01" transform="matrix(30 0 0 30 45.375 125)"/><circle r=".06" style="fill:#222;stroke:rgba(255,255,255,.2);stroke-width:.02" transform="matrix(30 0 0 30 45.375 125)"/><path d="M0 .5h13v3L20 0l-7-3.5v3H0z" style="fill:#ccc;stroke:#ccc" transform="translate(85.875 125)"/><path d="M0 1V0h1zm-1-1h1v1zm1-1v1h-1z" style="fill:#000" transform="matrix(30 0 0 30 146.993 125)"/><path d="M0 .22A.22.22 0 0 0 .22 0M0 .28A.28.28 0 0 0 .28 0" style="fill:none;stroke:#08a4d9;stroke-width:.02" transform="matrix(30 0 0 30 146.993 125)"/><path d="M-.25 0A.25.25 0 0 0 0 .25" style="fill:none;stroke:red;stroke-width:.02" transform="matrix(30 0 0 30 146.993 125)"/><path d="M0-.22A.22.22 0 0 0-.22 0M0-.28A.28.28 0 0 0-.28 0" style="fill:none;stroke:#08a4d9;stroke-width:.02" transform="matrix(30 0 0 30 146.993 125)"/><path d="M0 0h1M0 0v1m0-1h-1m1 0v-1" style="fill:none;stroke:rgba(255,255,255,.2);stroke-width:.01" transform="matrix(30 0 0 30 146.993 125)"/><circle r=".06" style="fill:#222;stroke:rgba(255,255,255,.2);stroke-width:.02" transform="matrix(30 0 0 30 146.993 125)"/><circle r=".12" style="fill:none;stroke:red;stroke-width:.03" transform="matrix(30 0 0 30 146.993 125)"/><path d="M0 1V0h1zm-1-1h1v1zm1-1v1h-1z" style="fill:#000" transform="matrix(30 0 0 30 45 205)"/><path d="M0 .25A.25.25 0 0 0 .25 0" style="fill:none;stroke:#e07c1f;stroke-width:.02;stroke-dasharray:.03,.03;stroke-dashoffset:0" transform="matrix(30 0 0 30 45 205)"/><path d="M-.25 0A.25.25 0 0 0 0 .25" style="fill:none;stroke:red;stroke-width:.02" transform="matrix(30 0 0 30 45 205)"/><path d="M0-.22A.22.22 0 0 0-.22 0M0-.28A.28.28 0 0 0-.28 0" style="fill:none;stroke:#08a4d9;stroke-width:.02" transform="matrix(30 0 0 30 45 205)"/><path d="M0 0h1M0 0v1m0-1h-1m1 0v-1" style="fill:none;stroke:rgba(255,255,255,.2);stroke-width:.01" transform="matrix(30 0 0 30 45 205)"/><circle r=".06" style="fill:#222;stroke:rgba(255,255,255,.2);stroke-width:.02" transform="matrix(30 0 0 30 45 205)"/><path d="M0 .5h13v3L20 0l-7-3.5v3H0z" style="fill:#ccc;stroke:#ccc" transform="translate(85.5 205)"/><path d="M0 1V0h1zm-1-1h1v1zm1-1v1h-1z" style="fill:#000" transform="matrix(30 0 0 30 146.618 205)"/><path d="M-.25 0A.25.25 0 0 0 0 .25" style="fill:none;stroke:red;stroke-width:.02" transform="matrix(30 0 0 30 146.618 205)"/><path d="M0-.22A.22.22 0 0 0-.22 0M0-.28A.28.28 0 0 0-.28 0" style="fill:none;stroke:#08a4d9;stroke-width:.02" transform="matrix(30 0 0 30 146.618 205)"/><path d="M0 0h1M0 0v1m0-1h-1m1 0v-1" style="fill:none;stroke:rgba(255,255,255,.2);stroke-width:.01" transform="matrix(30 0 0 30 146.618 205)"/><circle r=".06" style="fill:#222;stroke:rgba(255,255,255,.2);stroke-width:.02" transform="matrix(30 0 0 30 146.618 205)"/><path d="M0 0h1" style="fill:none;stroke:red;stroke-width:.05;stroke-linecap:round" transform="matrix(30 0 0 30 146.618 205)"/></svg>