<svg xmlns="http://www.w3.org/2000/svg" focusable="false" aria-hidden="true" width="175" height="529" style="pointer-events: none; position: absolute; left: 0px; top: 0px; transform-origin: left top; z-index: 20;"><defs/><g><g><g><g><rect x="0" y="0" width="165" height="519" rx="0" ry="0" style="fill: #333; stroke: none;stroke-miterlimit: 10;"/></g><g transform="translate(10.00000000000000000000,10.00000000000000000000)"><g transform="translate(5.00000000000000000000,5.00000000000000000000)"><g><g transform="translate(0.00000000000000000000,26.05576211353315585484)"><g><g transform="translate(15.12990381056767930090,0.00000000000000000000)"><g transform="scale(30.00000000000000000000)"><g><path d="M -0.49999999999999977796 0.86602540378443870761 L 0.00000000000000000000 0.00000000000000000000 L 1.00000000000000000000 0.00000000000000000000 L -0.49999999999999977796 0.86602540378443870761 Z " style="fill: #000; stroke: none;stroke-miterlimit: 10;"/></g><g><path d="M -0.50000000000000044409 -0.86602540378443848557 L 0.00000000000000000000 0.00000000000000000000 L -0.49999999999999977796 0.86602540378443870761 L -0.50000000000000044409 -0.86602540378443848557 Z " style="fill: #000; stroke: none;stroke-miterlimit: 10;"/></g><g><line x1="0" y1="0" x2="1" y2="0" style="fill: none; stroke: rgba(255,255,255,0.2);stroke-width: 0.01;stroke-miterlimit: 10;"/></g><g><line x1="0" y1="0" x2="-0.4999999999999998" y2="0.8660254037844387" style="fill: none; stroke: rgba(255,255,255,0.2);stroke-width: 0.01;stroke-miterlimit: 10;"/></g><g><line x1="0" y1="0" x2="-0.5000000000000004" y2="-0.8660254037844385" style="fill: none; stroke: rgba(255,255,255,0.2);stroke-width: 0.01;stroke-miterlimit: 10;"/></g><g><circle r="0.06" style="fill: #222; stroke: rgba(255,255,255,0.2);stroke-width: 0.02;stroke-miterlimit: 10;"/></g><g><line x1="0" y1="0" x2="1" y2="0" style="fill: none; stroke: #fff;stroke-width: 0.1;stroke-linecap: round;stroke-miterlimit: 10;"/></g></g></g><g transform="translate(57.12990381056767574819,0.00000000000000000000)"><path d="M 0.00000000000000003062 0.50000000000000000000 L 13.00000000000000000000 0.50000000000000000000 L 13.00000000000000000000 3.50000000000000000000 L 20.00000000000000000000 0.00000000000000000000 L 13.00000000000000000000 -3.50000000000000000000 L 13.00000000000000000000 -0.50000000000000000000 L -0.00000000000000003062 -0.50000000000000000000 L 0.00000000000000003062 0.50000000000000000000 Z " style="fill: #ccc; stroke: #ccc;stroke-miterlimit: 10;"/></g><g transform="translate(103.37784160988526593883,0.00000000000000000000)"><g transform="scale(30.00000000000000000000)"><g><path d="M -0.49999999999999977796 0.86602540378443870761 L 0.00000000000000000000 0.00000000000000000000 L 1.00000000000000000000 0.00000000000000000000 L -0.49999999999999977796 0.86602540378443870761 Z " style="fill: #000; stroke: none;stroke-miterlimit: 10;"/></g><g><path d="M -0.50000000000000044409 -0.86602540378443848557 L 0.00000000000000000000 0.00000000000000000000 L -0.49999999999999977796 0.86602540378443870761 L -0.50000000000000044409 -0.86602540378443848557 Z " style="fill: #000; stroke: none;stroke-miterlimit: 10;"/></g><g><path d="M -0.12500000000000011102 -0.21650635094610962139 L -0.12500000000000013878 -0.21650635094610956588 A 0.25000000000000000000 0.25000000000000000000 0 0 0 -0.12500000000000005551 0.21650635094610964915 " style="fill: none; stroke: rgb(224,124,31);stroke-width: 0.02;stroke-miterlimit: 10;stroke-dasharray: 0.03,0.03;stroke-dashoffset: 0;"/></g><g><line x1="0" y1="0" x2="1" y2="0" style="fill: none; stroke: rgba(255,255,255,0.2);stroke-width: 0.01;stroke-miterlimit: 10;"/></g><g><line x1="0" y1="0" x2="-0.4999999999999998" y2="0.8660254037844387" style="fill: none; stroke: rgba(255,255,255,0.2);stroke-width: 0.01;stroke-miterlimit: 10;"/></g><g><line x1="0" y1="0" x2="-0.5000000000000004" y2="-0.8660254037844385" style="fill: none; stroke: rgba(255,255,255,0.2);stroke-width: 0.01;stroke-miterlimit: 10;"/></g><g><circle r="0.06" style="fill: #222; stroke: rgba(255,255,255,0.2);stroke-width: 0.02;stroke-miterlimit: 10;"/></g><g><line x1="0" y1="0" x2="1" y2="0" style="fill: none; stroke: #fff;stroke-width: 0.1;stroke-linecap: round;stroke-miterlimit: 10;"/></g></g></g></g></g><g transform="translate(1.50000000000000000000,98.16728634059947466994)"><g><g transform="translate(15.12990381056767930090,0.00000000000000000000)"><g transform="scale(30.00000000000000000000)"><g><path d="M -0.49999999999999977796 0.86602540378443870761 L 0.00000000000000000000 0.00000000000000000000 L 1.00000000000000000000 0.00000000000000000000 L -0.49999999999999977796 0.86602540378443870761 Z " style="fill: #000; stroke: none;stroke-miterlimit: 10;"/></g><g><path d="M -0.50000000000000044409 -0.86602540378443848557 L 0.00000000000000000000 0.00000000000000000000 L -0.49999999999999977796 0.86602540378443870761 L -0.50000000000000044409 -0.86602540378443848557 Z " style="fill: #000; stroke: none;stroke-miterlimit: 10;"/></g><g><path d="M -0.10999999999999995892 0.19052558883257653122 L -0.11000000000000005607 0.19052558883257650346 A 0.22000000000000000111 0.22000000000000000111 0 0 0 0.22000000000000000111 -0.00000000000000005388 M -0.13999999999999995781 0.24248711305964290585 L -0.14000000000000006883 0.24248711305964282259 A 0.28000000000000002665 0.28000000000000002665 0 0 0 0.28000000000000002665 -0.00000000000000006858 " style="fill: none; stroke: rgb(8,164,217);stroke-width: 0.02;stroke-miterlimit: 10;"/></g><g><line x1="0" y1="0" x2="1" y2="0" style="fill: none; stroke: rgba(255,255,255,0.2);stroke-width: 0.01;stroke-miterlimit: 10;"/></g><g><line x1="0" y1="0" x2="-0.4999999999999998" y2="0.8660254037844387" style="fill: none; stroke: rgba(255,255,255,0.2);stroke-width: 0.01;stroke-miterlimit: 10;"/></g><g><line x1="0" y1="0" x2="-0.5000000000000004" y2="-0.8660254037844385" style="fill: none; stroke: rgba(255,255,255,0.2);stroke-width: 0.01;stroke-miterlimit: 10;"/></g><g><circle r="0.06" style="fill: #222; stroke: rgba(255,255,255,0.2);stroke-width: 0.02;stroke-miterlimit: 10;"/></g></g></g><g transform="translate(55.62990381056767574819,0.00000000000000000000)"><path d="M 0.00000000000000003062 0.50000000000000000000 L 13.00000000000000000000 0.50000000000000000000 L 13.00000000000000000000 3.50000000000000000000 L 20.00000000000000000000 0.00000000000000000000 L 13.00000000000000000000 -3.50000000000000000000 L 13.00000000000000000000 -0.50000000000000000000 L -0.00000000000000003062 -0.50000000000000000000 L 0.00000000000000003062 0.50000000000000000000 Z " style="fill: #ccc; stroke: #ccc;stroke-miterlimit: 10;"/></g><g transform="translate(101.87784160988526593883,0.00000000000000000000)"><g transform="scale(30.00000000000000000000)"><g><path d="M -0.49999999999999977796 0.86602540378443870761 L 0.00000000000000000000 0.00000000000000000000 L 1.00000000000000000000 0.00000000000000000000 L -0.49999999999999977796 0.86602540378443870761 Z " style="fill: #000; stroke: none;stroke-miterlimit: 10;"/></g><g><path d="M -0.50000000000000044409 -0.86602540378443848557 L 0.00000000000000000000 0.00000000000000000000 L -0.49999999999999977796 0.86602540378443870761 L -0.50000000000000044409 -0.86602540378443848557 Z " style="fill: #000; stroke: none;stroke-miterlimit: 10;"/></g><g><path d="M -0.10999999999999995892 0.19052558883257653122 L -0.11000000000000005607 0.19052558883257650346 A 0.22000000000000000111 0.22000000000000000111 0 0 0 0.22000000000000000111 -0.00000000000000005388 M -0.13999999999999995781 0.24248711305964290585 L -0.14000000000000006883 0.24248711305964282259 A 0.28000000000000002665 0.28000000000000002665 0 0 0 0.28000000000000002665 -0.00000000000000006858 " style="fill: none; stroke: rgb(8,164,217);stroke-width: 0.02;stroke-miterlimit: 10;"/></g><g><path d="M -0.12500000000000011102 -0.21650635094610962139 L -0.12500000000000013878 -0.21650635094610956588 A 0.25000000000000000000 0.25000000000000000000 0 0 0 -0.12500000000000005551 0.21650635094610964915 " style="fill: none; stroke: rgb(224,124,31);stroke-width: 0.02;stroke-miterlimit: 10;stroke-dasharray: 0.03,0.03;stroke-dashoffset: 0;"/></g><g><line x1="0" y1="0" x2="1" y2="0" style="fill: none; stroke: rgba(255,255,255,0.2);stroke-width: 0.01;stroke-miterlimit: 10;"/></g><g><line x1="0" y1="0" x2="-0.4999999999999998" y2="0.8660254037844387" style="fill: none; stroke: rgba(255,255,255,0.2);stroke-width: 0.01;stroke-miterlimit: 10;"/></g><g><line x1="0" y1="0" x2="-0.5000000000000004" y2="-0.8660254037844385" style="fill: none; stroke: rgba(255,255,255,0.2);stroke-width: 0.01;stroke-miterlimit: 10;"/></g><g><circle r="0.06" style="fill: #222; stroke: rgba(255,255,255,0.2);stroke-width: 0.02;stroke-miterlimit: 10;"/></g></g></g></g></g><g transform="translate(0.12990381056766864276,171.70381056766578353745)"><g><g transform="translate(16.50000000000001421085,0.00000000000000000000)"><g transform="scale(30.00000000000000000000)"><g><path d="M -0.49999999999999977796 0.86602540378443870761 L 0.00000000000000000000 0.00000000000000000000 L 1.00000000000000000000 0.00000000000000000000 L -0.49999999999999977796 0.86602540378443870761 Z " style="fill: #000; stroke: none;stroke-miterlimit: 10;"/></g><g><path d="M -0.50000000000000044409 -0.86602540378443848557 L 0.00000000000000000000 0.00000000000000000000 L -0.49999999999999977796 0.86602540378443870761 L -0.50000000000000044409 -0.86602540378443848557 Z " style="fill: #000; stroke: none;stroke-miterlimit: 10;"/></g><g><path d="M -0.12499999999999995837 0.21650635094610970466 L -0.12500000000000005551 0.21650635094610964915 A 0.25000000000000000000 0.25000000000000000000 0 0 0 0.25000000000000000000 -0.00000000000000006123 " style="fill: none; stroke: rgb(255,0,0);stroke-width: 0.02;stroke-miterlimit: 10;"/></g><g><line x1="0" y1="0" x2="1" y2="0" style="fill: none; stroke: rgba(255,255,255,0.2);stroke-width: 0.01;stroke-miterlimit: 10;"/></g><g><line x1="0" y1="0" x2="-0.4999999999999998" y2="0.8660254037844387" style="fill: none; stroke: rgba(255,255,255,0.2);stroke-width: 0.01;stroke-miterlimit: 10;"/></g><g><line x1="0" y1="0" x2="-0.5000000000000004" y2="-0.8660254037844385" style="fill: none; stroke: rgba(255,255,255,0.2);stroke-width: 0.01;stroke-miterlimit: 10;"/></g><g><circle r="0.06" style="fill: #222; stroke: rgba(255,255,255,0.2);stroke-width: 0.02;stroke-miterlimit: 10;"/></g><g><line x1="0" y1="0" x2="-0.5000000000000004" y2="-0.8660254037844385" style="fill: none; stroke: #fff;stroke-width: 0.1;stroke-linecap: round;stroke-miterlimit: 10;"/></g></g></g><g transform="translate(57.00000000000000710543,-0.71249999999999236167)"><path d="M 0.00000000000000003062 0.50000000000000000000 L 13.00000000000000000000 0.50000000000000000000 L 13.00000000000000000000 3.50000000000000000000 L 20.00000000000000000000 0.00000000000000000000 L 13.00000000000000000000 -3.50000000000000000000 L 13.00000000000000000000 -0.50000000000000000000 L -0.00000000000000003062 -0.50000000000000000000 L 0.00000000000000003062 0.50000000000000000000 Z " style="fill: #ccc; stroke: #ccc;stroke-miterlimit: 10;"/></g><g transform="translate(104.61803398874992865331,0.00000000000000000000)"><g transform="scale(30.00000000000000000000)"><g><path d="M -0.49999999999999977796 0.86602540378443870761 L 0.00000000000000000000 0.00000000000000000000 L 1.00000000000000000000 0.00000000000000000000 L -0.49999999999999977796 0.86602540378443870761 Z " style="fill: #000; stroke: none;stroke-miterlimit: 10;"/></g><g><path d="M -0.50000000000000044409 -0.86602540378443848557 L 0.00000000000000000000 0.00000000000000000000 L -0.49999999999999977796 0.86602540378443870761 L -0.50000000000000044409 -0.86602540378443848557 Z " style="fill: #000; stroke: none;stroke-miterlimit: 10;"/></g><g><path d="M -0.12499999999999995837 0.21650635094610970466 L -0.12500000000000005551 0.21650635094610964915 A 0.25000000000000000000 0.25000000000000000000 0 0 0 0.25000000000000000000 -0.00000000000000006123 " style="fill: none; stroke: rgb(255,0,0);stroke-width: 0.02;stroke-miterlimit: 10;"/></g><g><line x1="0" y1="0" x2="1" y2="0" style="fill: none; stroke: rgba(255,255,255,0.2);stroke-width: 0.01;stroke-miterlimit: 10;"/></g><g><line x1="0" y1="0" x2="-0.4999999999999998" y2="0.8660254037844387" style="fill: none; stroke: rgba(255,255,255,0.2);stroke-width: 0.01;stroke-miterlimit: 10;"/></g><g><line x1="0" y1="0" x2="-0.5000000000000004" y2="-0.8660254037844385" style="fill: none; stroke: rgba(255,255,255,0.2);stroke-width: 0.01;stroke-miterlimit: 10;"/></g><g><circle r="0.06" style="fill: #222; stroke: rgba(255,255,255,0.2);stroke-width: 0.02;stroke-miterlimit: 10;"/></g><g><circle r="0.12" style="fill: none; stroke: #f00;stroke-width: 0.03;stroke-miterlimit: 10;"/></g><g><line x1="0" y1="0" x2="-0.5000000000000004" y2="-0.8660254037844385" style="fill: none; stroke: #fff;stroke-width: 0.1;stroke-linecap: round;stroke-miterlimit: 10;"/></g></g></g></g></g><g transform="translate(1.50000000000000000000,243.81533479473208103627)"><g><g transform="translate(15.12990381056767930090,0.00000000000000000000)"><g transform="scale(30.00000000000000000000)"><g><path d="M -0.49999999999999977796 0.86602540378443870761 L 0.00000000000000000000 0.00000000000000000000 L 1.00000000000000000000 0.00000000000000000000 L -0.49999999999999977796 0.86602540378443870761 Z " style="fill: #000; stroke: none;stroke-miterlimit: 10;"/></g><g><path d="M -0.50000000000000044409 -0.86602540378443848557 L 0.00000000000000000000 0.00000000000000000000 L -0.49999999999999977796 0.86602540378443870761 L -0.50000000000000044409 -0.86602540378443848557 Z " style="fill: #000; stroke: none;stroke-miterlimit: 10;"/></g><g><path d="M -0.10999999999999995892 0.19052558883257653122 L -0.11000000000000005607 0.19052558883257650346 A 0.22000000000000000111 0.22000000000000000111 0 0 0 0.22000000000000000111 -0.00000000000000005388 M -0.13999999999999995781 0.24248711305964290585 L -0.14000000000000006883 0.24248711305964282259 A 0.28000000000000002665 0.28000000000000002665 0 0 0 0.28000000000000002665 -0.00000000000000006858 " style="fill: none; stroke: rgb(42,137,42);stroke-width: 0.02;stroke-miterlimit: 10;stroke-dasharray: 0.03,0.03;stroke-dashoffset: 0;"/></g><g><line x1="0" y1="0" x2="1" y2="0" style="fill: none; stroke: rgba(255,255,255,0.2);stroke-width: 0.01;stroke-miterlimit: 10;"/></g><g><line x1="0" y1="0" x2="-0.4999999999999998" y2="0.8660254037844387" style="fill: none; stroke: rgba(255,255,255,0.2);stroke-width: 0.01;stroke-miterlimit: 10;"/></g><g><line x1="0" y1="0" x2="-0.5000000000000004" y2="-0.8660254037844385" style="fill: none; stroke: rgba(255,255,255,0.2);stroke-width: 0.01;stroke-miterlimit: 10;"/></g><g><circle r="0.06" style="fill: #222; stroke: rgba(255,255,255,0.2);stroke-width: 0.02;stroke-miterlimit: 10;"/></g><g><circle r="0.12" style="fill: none; stroke: #f00;stroke-width: 0.03;stroke-miterlimit: 10;"/></g></g></g><g transform="translate(55.62990381056767574819,0.00000000000000000000)"><path d="M 0.00000000000000003062 0.50000000000000000000 L 13.00000000000000000000 0.50000000000000000000 L 13.00000000000000000000 3.50000000000000000000 L 20.00000000000000000000 0.00000000000000000000 L 13.00000000000000000000 -3.50000000000000000000 L 13.00000000000000000000 -0.50000000000000000000 L -0.00000000000000003062 -0.50000000000000000000 L 0.00000000000000003062 0.50000000000000000000 Z " style="fill: #ccc; stroke: #ccc;stroke-miterlimit: 10;"/></g><g transform="translate(101.87784160988526593883,0.00000000000000000000)"><g transform="scale(30.00000000000000000000)"><g><path d="M -0.49999999999999977796 0.86602540378443870761 L 0.00000000000000000000 0.00000000000000000000 L 1.00000000000000000000 0.00000000000000000000 L -0.49999999999999977796 0.86602540378443870761 Z " style="fill: #000; stroke: none;stroke-miterlimit: 10;"/></g><g><path d="M -0.50000000000000044409 -0.86602540378443848557 L 0.00000000000000000000 0.00000000000000000000 L -0.49999999999999977796 0.86602540378443870761 L -0.50000000000000044409 -0.86602540378443848557 Z " style="fill: #000; stroke: none;stroke-miterlimit: 10;"/></g><g><path d="M -0.10999999999999995892 0.19052558883257653122 L -0.11000000000000005607 0.19052558883257650346 A 0.22000000000000000111 0.22000000000000000111 0 0 0 0.22000000000000000111 -0.00000000000000005388 M -0.13999999999999995781 0.24248711305964290585 L -0.14000000000000006883 0.24248711305964282259 A 0.28000000000000002665 0.28000000000000002665 0 0 0 0.28000000000000002665 -0.00000000000000006858 " style="fill: none; stroke: rgb(42,137,42);stroke-width: 0.02;stroke-miterlimit: 10;stroke-dasharray: 0.03,0.03;stroke-dashoffset: 0;"/></g><g><path d="M -0.11000000000000009770 -0.19052558883257647571 L -0.11000000000000012546 -0.19052558883257642020 A 0.22000000000000000111 0.22000000000000000111 0 0 0 -0.11000000000000005607 0.19052558883257650346 M -0.14000000000000012434 -0.24248711305964279483 L -0.14000000000000017986 -0.24248711305964273932 A 0.28000000000000002665 0.28000000000000002665 0 0 0 -0.14000000000000006883 0.24248711305964282259 " style="fill: none; stroke: rgb(42,137,42);stroke-width: 0.02;stroke-miterlimit: 10;stroke-dasharray: 0.03,0.03;stroke-dashoffset: 0;"/></g><g><line x1="0" y1="0" x2="1" y2="0" style="fill: none; stroke: rgba(255,255,255,0.2);stroke-width: 0.01;stroke-miterlimit: 10;"/></g><g><line x1="0" y1="0" x2="-0.4999999999999998" y2="0.8660254037844387" style="fill: none; stroke: rgba(255,255,255,0.2);stroke-width: 0.01;stroke-miterlimit: 10;"/></g><g><line x1="0" y1="0" x2="-0.5000000000000004" y2="-0.8660254037844385" style="fill: none; stroke: rgba(255,255,255,0.2);stroke-width: 0.01;stroke-miterlimit: 10;"/></g><g><circle r="0.06" style="fill: #222; stroke: rgba(255,255,255,0.2);stroke-width: 0.02;stroke-miterlimit: 10;"/></g><g><circle r="0.12" style="fill: none; stroke: #f00;stroke-width: 0.03;stroke-miterlimit: 10;"/></g></g></g></g></g><g transform="translate(0.81495190528383432138,317.35185902179841832549)"><g><g transform="translate(15.12990381056767930090,0.00000000000000000000)"><g transform="scale(30.00000000000000000000)"><g><path d="M -0.49999999999999977796 0.86602540378443870761 L 0.00000000000000000000 0.00000000000000000000 L 1.00000000000000000000 0.00000000000000000000 L -0.49999999999999977796 0.86602540378443870761 Z " style="fill: #000; stroke: none;stroke-miterlimit: 10;"/></g><g><path d="M -0.50000000000000044409 -0.86602540378443848557 L 0.00000000000000000000 0.00000000000000000000 L -0.49999999999999977796 0.86602540378443870761 L -0.50000000000000044409 -0.86602540378443848557 Z " style="fill: #000; stroke: none;stroke-miterlimit: 10;"/></g><g><path d="M -0.12499999999999995837 0.21650635094610970466 L -0.12500000000000005551 0.21650635094610964915 A 0.25000000000000000000 0.25000000000000000000 0 0 0 0.25000000000000000000 -0.00000000000000006123 " style="fill: none; stroke: rgb(255,0,0);stroke-width: 0.02;stroke-miterlimit: 10;"/></g><g><path d="M -0.11000000000000009770 -0.19052558883257647571 L -0.11000000000000012546 -0.19052558883257642020 A 0.22000000000000000111 0.22000000000000000111 0 0 0 -0.11000000000000005607 0.19052558883257650346 M -0.14000000000000012434 -0.24248711305964279483 L -0.14000000000000017986 -0.24248711305964273932 A 0.28000000000000002665 0.28000000000000002665 0 0 0 -0.14000000000000006883 0.24248711305964282259 " style="fill: none; stroke: rgb(42,137,42);stroke-width: 0.02;stroke-miterlimit: 10;stroke-dasharray: 0.03,0.03;stroke-dashoffset: 0;"/></g><g><line x1="0" y1="0" x2="1" y2="0" style="fill: none; stroke: rgba(255,255,255,0.2);stroke-width: 0.01;stroke-miterlimit: 10;"/></g><g><line x1="0" y1="0" x2="-0.4999999999999998" y2="0.8660254037844387" style="fill: none; stroke: rgba(255,255,255,0.2);stroke-width: 0.01;stroke-miterlimit: 10;"/></g><g><line x1="0" y1="0" x2="-0.5000000000000004" y2="-0.8660254037844385" style="fill: none; stroke: rgba(255,255,255,0.2);stroke-width: 0.01;stroke-miterlimit: 10;"/></g><g><circle r="0.06" style="fill: #222; stroke: rgba(255,255,255,0.2);stroke-width: 0.02;stroke-miterlimit: 10;"/></g><g><circle r="0.12" style="fill: none; stroke: #f00;stroke-width: 0.03;stroke-miterlimit: 10;"/></g></g></g><g transform="translate(55.62990381056767574819,-0.71249999999999236167)"><path d="M 0.00000000000000003062 0.50000000000000000000 L 13.00000000000000000000 0.50000000000000000000 L 13.00000000000000000000 3.50000000000000000000 L 20.00000000000000000000 0.00000000000000000000 L 13.00000000000000000000 -3.50000000000000000000 L 13.00000000000000000000 -0.50000000000000000000 L -0.00000000000000003062 -0.50000000000000000000 L 0.00000000000000003062 0.50000000000000000000 Z " style="fill: #ccc; stroke: #ccc;stroke-miterlimit: 10;"/></g><g transform="translate(103.24793779931759729607,0.00000000000000000000)"><g transform="scale(30.00000000000000000000)"><g><path d="M -0.49999999999999977796 0.86602540378443870761 L 0.00000000000000000000 0.00000000000000000000 L 1.00000000000000000000 0.00000000000000000000 L -0.49999999999999977796 0.86602540378443870761 Z " style="fill: #000; stroke: none;stroke-miterlimit: 10;"/></g><g><path d="M -0.50000000000000044409 -0.86602540378443848557 L 0.00000000000000000000 0.00000000000000000000 L -0.49999999999999977796 0.86602540378443870761 L -0.50000000000000044409 -0.86602540378443848557 Z " style="fill: #000; stroke: none;stroke-miterlimit: 10;"/></g><g><path d="M -0.12499999999999995837 0.21650635094610970466 L -0.12500000000000005551 0.21650635094610964915 A 0.25000000000000000000 0.25000000000000000000 0 0 0 0.25000000000000000000 -0.00000000000000006123 " style="fill: none; stroke: rgb(255,0,0);stroke-width: 0.02;stroke-miterlimit: 10;"/></g><g><line x1="0" y1="0" x2="1" y2="0" style="fill: none; stroke: rgba(255,255,255,0.2);stroke-width: 0.01;stroke-miterlimit: 10;"/></g><g><line x1="0" y1="0" x2="-0.4999999999999998" y2="0.8660254037844387" style="fill: none; stroke: rgba(255,255,255,0.2);stroke-width: 0.01;stroke-miterlimit: 10;"/></g><g><line x1="0" y1="0" x2="-0.5000000000000004" y2="-0.8660254037844385" style="fill: none; stroke: rgba(255,255,255,0.2);stroke-width: 0.01;stroke-miterlimit: 10;"/></g><g><circle r="0.06" style="fill: #222; stroke: rgba(255,255,255,0.2);stroke-width: 0.02;stroke-miterlimit: 10;"/></g><g><circle r="0.12" style="fill: none; stroke: #f00;stroke-width: 0.03;stroke-miterlimit: 10;"/></g><g><line x1="0" y1="0" x2="-0.5000000000000004" y2="-0.8660254037844385" style="fill: none; stroke: #fff;stroke-width: 0.1;stroke-linecap: round;stroke-miterlimit: 10;"/></g></g></g></g></g><g transform="translate(1.12500000000000000000,389.46338324886471582431)"><g><g transform="translate(15.12990381056767930090,0.00000000000000000000)"><g transform="scale(30.00000000000000000000)"><g><path d="M -0.49999999999999977796 0.86602540378443870761 L 0.00000000000000000000 0.00000000000000000000 L 1.00000000000000000000 0.00000000000000000000 L -0.49999999999999977796 0.86602540378443870761 Z " style="fill: #000; stroke: none;stroke-miterlimit: 10;"/></g><g><path d="M -0.50000000000000044409 -0.86602540378443848557 L 0.00000000000000000000 0.00000000000000000000 L -0.49999999999999977796 0.86602540378443870761 L -0.50000000000000044409 -0.86602540378443848557 Z " style="fill: #000; stroke: none;stroke-miterlimit: 10;"/></g><g><path d="M -0.12499999999999995837 0.21650635094610970466 L -0.12500000000000005551 0.21650635094610964915 A 0.25000000000000000000 0.25000000000000000000 0 0 0 0.25000000000000000000 -0.00000000000000006123 " style="fill: none; stroke: rgb(224,124,31);stroke-width: 0.02;stroke-miterlimit: 10;stroke-dasharray: 0.03,0.03;stroke-dashoffset: 0;"/></g><g><path d="M -0.11000000000000009770 -0.19052558883257647571 L -0.11000000000000012546 -0.19052558883257642020 A 0.22000000000000000111 0.22000000000000000111 0 0 0 -0.11000000000000005607 0.19052558883257650346 M -0.14000000000000012434 -0.24248711305964279483 L -0.14000000000000017986 -0.24248711305964273932 A 0.28000000000000002665 0.28000000000000002665 0 0 0 -0.14000000000000006883 0.24248711305964282259 " style="fill: none; stroke: rgb(8,164,217);stroke-width: 0.02;stroke-miterlimit: 10;"/></g><g><line x1="0" y1="0" x2="1" y2="0" style="fill: none; stroke: rgba(255,255,255,0.2);stroke-width: 0.01;stroke-miterlimit: 10;"/></g><g><line x1="0" y1="0" x2="-0.4999999999999998" y2="0.8660254037844387" style="fill: none; stroke: rgba(255,255,255,0.2);stroke-width: 0.01;stroke-miterlimit: 10;"/></g><g><line x1="0" y1="0" x2="-0.5000000000000004" y2="-0.8660254037844385" style="fill: none; stroke: rgba(255,255,255,0.2);stroke-width: 0.01;stroke-miterlimit: 10;"/></g><g><circle r="0.06" style="fill: #222; stroke: rgba(255,255,255,0.2);stroke-width: 0.02;stroke-miterlimit: 10;"/></g><g><circle r="0.12" style="fill: none; stroke: #f00;stroke-width: 0.03;stroke-miterlimit: 10;"/></g></g></g><g transform="translate(55.62990381056768285362,0.00000000000000000000)"><path d="M 0.00000000000000003062 0.50000000000000000000 L 13.00000000000000000000 0.50000000000000000000 L 13.00000000000000000000 3.50000000000000000000 L 20.00000000000000000000 0.00000000000000000000 L 13.00000000000000000000 -3.50000000000000000000 L 13.00000000000000000000 -0.50000000000000000000 L -0.00000000000000003062 -0.50000000000000000000 L 0.00000000000000003062 0.50000000000000000000 Z " style="fill: #ccc; stroke: #ccc;stroke-miterlimit: 10;"/></g><g transform="translate(101.87784160988526593883,0.00000000000000000000)"><g transform="scale(30.00000000000000000000)"><g><path d="M -0.49999999999999977796 0.86602540378443870761 L 0.00000000000000000000 0.00000000000000000000 L 1.00000000000000000000 0.00000000000000000000 L -0.49999999999999977796 0.86602540378443870761 Z " style="fill: #000; stroke: none;stroke-miterlimit: 10;"/></g><g><path d="M -0.50000000000000044409 -0.86602540378443848557 L 0.00000000000000000000 0.00000000000000000000 L -0.49999999999999977796 0.86602540378443870761 L -0.50000000000000044409 -0.86602540378443848557 Z " style="fill: #000; stroke: none;stroke-miterlimit: 10;"/></g><g><path d="M -0.11000000000000009770 -0.19052558883257647571 L -0.11000000000000012546 -0.19052558883257642020 A 0.22000000000000000111 0.22000000000000000111 0 0 0 -0.11000000000000005607 0.19052558883257650346 M -0.14000000000000012434 -0.24248711305964279483 L -0.14000000000000017986 -0.24248711305964273932 A 0.28000000000000002665 0.28000000000000002665 0 0 0 -0.14000000000000006883 0.24248711305964282259 " style="fill: none; stroke: rgb(8,164,217);stroke-width: 0.02;stroke-miterlimit: 10;"/></g><g><line x1="0" y1="0" x2="1" y2="0" style="fill: none; stroke: rgba(255,255,255,0.2);stroke-width: 0.01;stroke-miterlimit: 10;"/></g><g><line x1="0" y1="0" x2="-0.4999999999999998" y2="0.8660254037844387" style="fill: none; stroke: rgba(255,255,255,0.2);stroke-width: 0.01;stroke-miterlimit: 10;"/></g><g><line x1="0" y1="0" x2="-0.5000000000000004" y2="-0.8660254037844385" style="fill: none; stroke: rgba(255,255,255,0.2);stroke-width: 0.01;stroke-miterlimit: 10;"/></g><g><circle r="0.06" style="fill: #222; stroke: rgba(255,255,255,0.2);stroke-width: 0.02;stroke-miterlimit: 10;"/></g><g><circle r="0.12" style="fill: none; stroke: #f00;stroke-width: 0.03;stroke-miterlimit: 10;"/></g><g><line x1="0" y1="0" x2="1" y2="0" style="fill: none; stroke: #f00;stroke-width: 0.05;stroke-linecap: round;stroke-miterlimit: 10;"/></g></g></g></g></g><g transform="translate(1.18995190528383432138,461.57490747593101332313)"><g><g transform="translate(15.12990381056767930090,0.00000000000000000000)"><g transform="scale(30.00000000000000000000)"><g><path d="M -0.49999999999999977796 0.86602540378443870761 L 0.00000000000000000000 0.00000000000000000000 L 1.00000000000000000000 0.00000000000000000000 L -0.49999999999999977796 0.86602540378443870761 Z " style="fill: #000; stroke: none;stroke-miterlimit: 10;"/></g><g><path d="M -0.50000000000000044409 -0.86602540378443848557 L 0.00000000000000000000 0.00000000000000000000 L -0.49999999999999977796 0.86602540378443870761 L -0.50000000000000044409 -0.86602540378443848557 Z " style="fill: #000; stroke: none;stroke-miterlimit: 10;"/></g><g><path d="M -0.12499999999999995837 0.21650635094610970466 L -0.12500000000000005551 0.21650635094610964915 A 0.25000000000000000000 0.25000000000000000000 0 0 0 0.25000000000000000000 -0.00000000000000006123 " style="fill: none; stroke: rgb(224,124,31);stroke-width: 0.02;stroke-miterlimit: 10;stroke-dasharray: 0.03,0.03;stroke-dashoffset: 0;"/></g><g><path d="M -0.12500000000000011102 -0.21650635094610962139 L -0.12500000000000013878 -0.21650635094610956588 A 0.25000000000000000000 0.25000000000000000000 0 0 0 -0.12500000000000005551 0.21650635094610964915 " style="fill: none; stroke: rgb(224,124,31);stroke-width: 0.02;stroke-miterlimit: 10;stroke-dasharray: 0.03,0.03;stroke-dashoffset: 0;"/></g><g><line x1="0" y1="0" x2="1" y2="0" style="fill: none; stroke: rgba(255,255,255,0.2);stroke-width: 0.01;stroke-miterlimit: 10;"/></g><g><line x1="0" y1="0" x2="-0.4999999999999998" y2="0.8660254037844387" style="fill: none; stroke: rgba(255,255,255,0.2);stroke-width: 0.01;stroke-miterlimit: 10;"/></g><g><line x1="0" y1="0" x2="-0.5000000000000004" y2="-0.8660254037844385" style="fill: none; stroke: rgba(255,255,255,0.2);stroke-width: 0.01;stroke-miterlimit: 10;"/></g><g><circle r="0.06" style="fill: #222; stroke: rgba(255,255,255,0.2);stroke-width: 0.02;stroke-miterlimit: 10;"/></g><g><circle r="0.12" style="fill: none; stroke: #f00;stroke-width: 0.03;stroke-miterlimit: 10;"/></g></g></g><g transform="translate(55.62990381056768285362,0.33750000000000834888)"><path d="M 0.00000000000000003062 0.50000000000000000000 L 13.00000000000000000000 0.50000000000000000000 L 13.00000000000000000000 3.50000000000000000000 L 20.00000000000000000000 0.00000000000000000000 L 13.00000000000000000000 -3.50000000000000000000 L 13.00000000000000000000 -0.50000000000000000000 L -0.00000000000000003062 -0.50000000000000000000 L 0.00000000000000003062 0.50000000000000000000 Z " style="fill: #ccc; stroke: #ccc;stroke-miterlimit: 10;"/></g><g transform="translate(102.49793779931758308521,0.00000000000000000000)"><g transform="scale(30.00000000000000000000)"><g><path d="M -0.49999999999999977796 0.86602540378443870761 L 0.00000000000000000000 0.00000000000000000000 L 1.00000000000000000000 0.00000000000000000000 L -0.49999999999999977796 0.86602540378443870761 Z " style="fill: #000; stroke: none;stroke-miterlimit: 10;"/></g><g><path d="M -0.50000000000000044409 -0.86602540378443848557 L 0.00000000000000000000 0.00000000000000000000 L -0.49999999999999977796 0.86602540378443870761 L -0.50000000000000044409 -0.86602540378443848557 Z " style="fill: #000; stroke: none;stroke-miterlimit: 10;"/></g><g><line x1="0" y1="0" x2="1" y2="0" style="fill: none; stroke: rgba(255,255,255,0.2);stroke-width: 0.01;stroke-miterlimit: 10;"/></g><g><line x1="0" y1="0" x2="-0.4999999999999998" y2="0.8660254037844387" style="fill: none; stroke: rgba(255,255,255,0.2);stroke-width: 0.01;stroke-miterlimit: 10;"/></g><g><line x1="0" y1="0" x2="-0.5000000000000004" y2="-0.8660254037844385" style="fill: none; stroke: rgba(255,255,255,0.2);stroke-width: 0.01;stroke-miterlimit: 10;"/></g><g><circle r="0.06" style="fill: #222; stroke: rgba(255,255,255,0.2);stroke-width: 0.02;stroke-miterlimit: 10;"/></g><g><circle r="0.12" style="fill: none; stroke: #f00;stroke-width: 0.03;stroke-miterlimit: 10;"/></g><g><line x1="0" y1="0" x2="-0.4999999999999998" y2="0.8660254037844387" style="fill: none; stroke: #f00;stroke-width: 0.05;stroke-linecap: round;stroke-miterlimit: 10;"/></g></g></g></g></g></g></g></g></g></g></g></svg>