<svg xmlns="http://www.w3.org/2000/svg" width="175" height="93" aria-hidden="true" style="pointer-events:none;position:absolute;left:0;top:0;transform-origin:left top;z-index:20"><rect width="165" height="83" rx="0" ry="0" style="fill:#333"/><path d="M-.5.866 0 0h1z" style="fill:#000" transform="matrix(30 0 0 30 30.13 41.056)"/><path d="M-.5-.866 0 0l-.5.866z" style="fill:#000" transform="matrix(30 0 0 30 30.13 41.056)"/><path d="M1 0H0l-.5-.866z" style="fill:#000" transform="matrix(30 0 0 30 30.13 41.056)"/><path d="M0 0h1M0 0l-.5.866M0 0l-.5-.866" style="fill:none;stroke:rgba(255,255,255,.2);stroke-width:.01" transform="matrix(30 0 0 30 30.13 41.056)"/><circle r=".04" style="fill:rgba(255,255,255,.2);stroke:rgba(255,255,255,.2);stroke-width:.02" transform="matrix(30 0 0 30 30.13 41.056)"/><path d="M0 0h1" style="fill:none;stroke:#fff;stroke-width:.1;stroke-linecap:round" transform="matrix(30 0 0 30 30.13 41.056)"/><path d="M0 .5h13v3L20 0l-7-3.5v3H0z" style="fill:#ccc;stroke:#ccc" transform="translate(72.13 41.056)"/><path d="M-.5.866 0 0h1z" style="fill:#000" transform="matrix(30 0 0 30 118.378 41.056)"/><path d="M-.5-.866 0 0l-.5.866z" style="fill:#000" transform="matrix(30 0 0 30 118.378 41.056)"/><path d="M1 0H0l-.5-.866z" style="fill:#000" transform="matrix(30 0 0 30 118.378 41.056)"/><path d="M-.125-.217a.25.25 0 0 0 0 .434" style="fill:none;stroke:red;stroke-width:.02" transform="matrix(30 0 0 30 118.378 41.056)"/><path d="M0 0h1M0 0l-.5.866M0 0l-.5-.866" style="fill:none;stroke:rgba(255,255,255,.2);stroke-width:.01" transform="matrix(30 0 0 30 118.378 41.056)"/><circle r=".04" style="fill:rgba(255,255,255,.2);stroke:rgba(255,255,255,.2);stroke-width:.02" transform="matrix(30 0 0 30 118.378 41.056)"/><path d="M0 0h1" style="fill:none;stroke:#fff;stroke-width:.1;stroke-linecap:round" transform="matrix(30 0 0 30 118.378 41.056)"/></svg>