<svg xmlns="http://www.w3.org/2000/svg" width="202" height="93" aria-hidden="true" style="pointer-events:none;position:absolute;left:0;top:0;transform-origin:left top;z-index:20"><rect width="192" height="83" rx="0" ry="0" style="fill:#333"/><path d="M.5.866 0 0h1zM-1 0h1l-.5.866zM.5-.866 0 0l-.5-.866z" style="fill:#000" transform="matrix(30 0 0 30 45 41.056)"/><path d="M.11.19A.22.22 0 0 0 .22 0M.14.242A.28.28 0 0 0 .28 0m-.5 0a.22.22 0 0 0 .11.19M-.28 0a.28.28 0 0 0 .14.242" style="fill:none;stroke:#08a4d9;stroke-width:.02" transform="matrix(30 0 0 30 45 41.056)"/><path d="M0 0h1M0 0l.5.866M0 0l-.5.866M0 0h-1m1 0-.5-.866M0 0l.5-.866" style="fill:none;stroke:rgba(255,255,255,.2);stroke-width:.01" transform="matrix(30 0 0 30 45 41.056)"/><circle r=".06" style="fill:#222;stroke:rgba(255,255,255,.2);stroke-width:.02" transform="matrix(30 0 0 30 45 41.056)"/><circle r=".12" style="fill:none;stroke:red;stroke-width:.03" transform="matrix(30 0 0 30 45 41.056)"/><path d="M0 .5h13v3L20 0l-7-3.5v3H0z" style="fill:#ccc;stroke:#ccc" transform="translate(85.5 41.056)"/><path d="M.5.866 0 0h1zM-1 0h1l-.5.866zM.5-.866 0 0l-.5-.866z" style="fill:#000" transform="matrix(30 0 0 30 146.618 41.056)"/><path d="M.11.19A.22.22 0 0 0 .22 0M.14.242A.28.28 0 0 0 .28 0m-.5 0a.22.22 0 0 0 .11.19M-.28 0a.28.28 0 0 0 .14.242M.11-.19a.22.22 0 0 0-.22 0m.25-.052a.28.28 0 0 0-.28 0" style="fill:none;stroke:#08a4d9;stroke-width:.02" transform="matrix(30 0 0 30 146.618 41.056)"/><path d="M0 0h1M0 0l.5.866M0 0l-.5.866M0 0h-1m1 0-.5-.866M0 0l.5-.866" style="fill:none;stroke:rgba(255,255,255,.2);stroke-width:.01" transform="matrix(30 0 0 30 146.618 41.056)"/><circle r=".06" style="fill:#222;stroke:rgba(255,255,255,.2);stroke-width:.02" transform="matrix(30 0 0 30 146.618 41.056)"/><circle r=".12" style="fill:none;stroke:red;stroke-width:.03" transform="matrix(30 0 0 30 146.618 41.056)"/></svg>