<svg xmlns="http://www.w3.org/2000/svg" width="175" height="529" aria-hidden="true" style="pointer-events:none;position:absolute;left:0;top:0;transform-origin:left top;z-index:20"><rect width="165" height="519" rx="0" ry="0" style="fill:#333"/><path d="M-.5.866 0 0h1z" style="fill:#000" transform="matrix(30 0 0 30 30.13 41.056)"/><path d="M-.5-.866 0 0l-.5.866z" style="fill:#000" transform="matrix(30 0 0 30 30.13 41.056)"/><path d="M0 0h1M0 0l-.5.866M0 0l-.5-.866" style="fill:none;stroke:rgba(255,255,255,.2);stroke-width:.01" transform="matrix(30 0 0 30 30.13 41.056)"/><circle r=".06" style="fill:#222;stroke:rgba(255,255,255,.2);stroke-width:.02" transform="matrix(30 0 0 30 30.13 41.056)"/><path d="M0 0h1" style="fill:none;stroke:#fff;stroke-width:.1;stroke-linecap:round" transform="matrix(30 0 0 30 30.13 41.056)"/><path d="M0 .5h13v3L20 0l-7-3.5v3H0z" style="fill:#ccc;stroke:#ccc" transform="translate(72.13 41.056)"/><path d="M-.5.866 0 0h1z" style="fill:#000" transform="matrix(30 0 0 30 118.378 41.056)"/><path d="M-.5-.866 0 0l-.5.866z" style="fill:#000" transform="matrix(30 0 0 30 118.378 41.056)"/><path d="M-.125-.217a.25.25 0 0 0 0 .434" style="fill:none;stroke:#e07c1f;stroke-width:.02;stroke-dasharray:.03,.03;stroke-dashoffset:0" transform="matrix(30 0 0 30 118.378 41.056)"/><path d="M0 0h1M0 0l-.5.866M0 0l-.5-.866" style="fill:none;stroke:rgba(255,255,255,.2);stroke-width:.01" transform="matrix(30 0 0 30 118.378 41.056)"/><circle r=".06" style="fill:#222;stroke:rgba(255,255,255,.2);stroke-width:.02" transform="matrix(30 0 0 30 118.378 41.056)"/><path d="M0 0h1" style="fill:none;stroke:#fff;stroke-width:.1;stroke-linecap:round" transform="matrix(30 0 0 30 118.378 41.056)"/><path d="M-.5.866 0 0h1z" style="fill:#000" transform="matrix(30 0 0 30 31.63 113.167)"/><path d="M-.5-.866 0 0l-.5.866z" style="fill:#000" transform="matrix(30 0 0 30 31.63 113.167)"/><path d="M-.11.19A.22.22 0 0 0 .22 0m-.36.242A.28.28 0 0 0 .28 0" style="fill:none;stroke:#08a4d9;stroke-width:.02" transform="matrix(30 0 0 30 31.63 113.167)"/><path d="M0 0h1M0 0l-.5.866M0 0l-.5-.866" style="fill:none;stroke:rgba(255,255,255,.2);stroke-width:.01" transform="matrix(30 0 0 30 31.63 113.167)"/><circle r=".06" style="fill:#222;stroke:rgba(255,255,255,.2);stroke-width:.02" transform="matrix(30 0 0 30 31.63 113.167)"/><path d="M0 .5h13v3L20 0l-7-3.5v3H0z" style="fill:#ccc;stroke:#ccc" transform="translate(72.13 113.167)"/><path d="M-.5.866 0 0h1z" style="fill:#000" transform="matrix(30 0 0 30 118.378 113.167)"/><path d="M-.5-.866 0 0l-.5.866z" style="fill:#000" transform="matrix(30 0 0 30 118.378 113.167)"/><path d="M-.11.19A.22.22 0 0 0 .22 0m-.36.242A.28.28 0 0 0 .28 0" style="fill:none;stroke:#08a4d9;stroke-width:.02" transform="matrix(30 0 0 30 118.378 113.167)"/><path d="M-.125-.217a.25.25 0 0 0 0 .434" style="fill:none;stroke:#e07c1f;stroke-width:.02;stroke-dasharray:.03,.03;stroke-dashoffset:0" transform="matrix(30 0 0 30 118.378 113.167)"/><path d="M0 0h1M0 0l-.5.866M0 0l-.5-.866" style="fill:none;stroke:rgba(255,255,255,.2);stroke-width:.01" transform="matrix(30 0 0 30 118.378 113.167)"/><circle r=".06" style="fill:#222;stroke:rgba(255,255,255,.2);stroke-width:.02" transform="matrix(30 0 0 30 118.378 113.167)"/><path d="M-.5.866 0 0h1z" style="fill:#000" transform="matrix(30 0 0 30 31.63 186.704)"/><path d="M-.5-.866 0 0l-.5.866z" style="fill:#000" transform="matrix(30 0 0 30 31.63 186.704)"/><path d="M-.125.217A.25.25 0 0 0 .25 0" style="fill:none;stroke:red;stroke-width:.02" transform="matrix(30 0 0 30 31.63 186.704)"/><path d="M0 0h1M0 0l-.5.866M0 0l-.5-.866" style="fill:none;stroke:rgba(255,255,255,.2);stroke-width:.01" transform="matrix(30 0 0 30 31.63 186.704)"/><circle r=".06" style="fill:#222;stroke:rgba(255,255,255,.2);stroke-width:.02" transform="matrix(30 0 0 30 31.63 186.704)"/><path d="m0 0-.5-.866" style="fill:none;stroke:#fff;stroke-width:.1;stroke-linecap:round" transform="matrix(30 0 0 30 31.63 186.704)"/><path d="M0 .5h13v3L20 0l-7-3.5v3H0z" style="fill:#ccc;stroke:#ccc" transform="translate(72.13 185.991)"/><path d="M-.5.866 0 0h1z" style="fill:#000" transform="matrix(30 0 0 30 119.748 186.704)"/><path d="M-.5-.866 0 0l-.5.866z" style="fill:#000" transform="matrix(30 0 0 30 119.748 186.704)"/><path d="M-.125.217A.25.25 0 0 0 .25 0" style="fill:none;stroke:red;stroke-width:.02" transform="matrix(30 0 0 30 119.748 186.704)"/><path d="M0 0h1M0 0l-.5.866M0 0l-.5-.866" style="fill:none;stroke:rgba(255,255,255,.2);stroke-width:.01" transform="matrix(30 0 0 30 119.748 186.704)"/><circle r=".06" style="fill:#222;stroke:rgba(255,255,255,.2);stroke-width:.02" transform="matrix(30 0 0 30 119.748 186.704)"/><circle r=".12" style="fill:none;stroke:red;stroke-width:.03" transform="matrix(30 0 0 30 119.748 186.704)"/><path d="m0 0-.5-.866" style="fill:none;stroke:#fff;stroke-width:.1;stroke-linecap:round" transform="matrix(30 0 0 30 119.748 186.704)"/><path d="M-.5.866 0 0h1z" style="fill:#000" transform="matrix(30 0 0 30 31.63 258.815)"/><path d="M-.5-.866 0 0l-.5.866z" style="fill:#000" transform="matrix(30 0 0 30 31.63 258.815)"/><path d="M-.11.19A.22.22 0 0 0 .22 0m-.36.242A.28.28 0 0 0 .28 0" style="fill:none;stroke:#2a892a;stroke-width:.02;stroke-dasharray:.03,.03;stroke-dashoffset:0" transform="matrix(30 0 0 30 31.63 258.815)"/><path d="M0 0h1M0 0l-.5.866M0 0l-.5-.866" style="fill:none;stroke:rgba(255,255,255,.2);stroke-width:.01" transform="matrix(30 0 0 30 31.63 258.815)"/><circle r=".06" style="fill:#222;stroke:rgba(255,255,255,.2);stroke-width:.02" transform="matrix(30 0 0 30 31.63 258.815)"/><circle r=".12" style="fill:none;stroke:red;stroke-width:.03" transform="matrix(30 0 0 30 31.63 258.815)"/><path d="M0 .5h13v3L20 0l-7-3.5v3H0z" style="fill:#ccc;stroke:#ccc" transform="translate(72.13 258.815)"/><path d="M-.5.866 0 0h1z" style="fill:#000" transform="matrix(30 0 0 30 118.378 258.815)"/><path d="M-.5-.866 0 0l-.5.866z" style="fill:#000" transform="matrix(30 0 0 30 118.378 258.815)"/><path d="M-.11.19A.22.22 0 0 0 .22 0m-.36.242A.28.28 0 0 0 .28 0m-.39-.19a.22.22 0 0 0 0 .38m-.03-.432a.28.28 0 0 0 0 .484" style="fill:none;stroke:#2a892a;stroke-width:.02;stroke-dasharray:.03,.03;stroke-dashoffset:0" transform="matrix(30 0 0 30 118.378 258.815)"/><path d="M0 0h1M0 0l-.5.866M0 0l-.5-.866" style="fill:none;stroke:rgba(255,255,255,.2);stroke-width:.01" transform="matrix(30 0 0 30 118.378 258.815)"/><circle r=".06" style="fill:#222;stroke:rgba(255,255,255,.2);stroke-width:.02" transform="matrix(30 0 0 30 118.378 258.815)"/><circle r=".12" style="fill:none;stroke:red;stroke-width:.03" transform="matrix(30 0 0 30 118.378 258.815)"/><path d="M-.5.866 0 0h1z" style="fill:#000" transform="matrix(30 0 0 30 30.945 332.352)"/><path d="M-.5-.866 0 0l-.5.866z" style="fill:#000" transform="matrix(30 0 0 30 30.945 332.352)"/><path d="M-.125.217A.25.25 0 0 0 .25 0" style="fill:none;stroke:red;stroke-width:.02" transform="matrix(30 0 0 30 30.945 332.352)"/><path d="M-.11-.19a.22.22 0 0 0 0 .38m-.03-.432a.28.28 0 0 0 0 .484" style="fill:none;stroke:#2a892a;stroke-width:.02;stroke-dasharray:.03,.03;stroke-dashoffset:0" transform="matrix(30 0 0 30 30.945 332.352)"/><path d="M0 0h1M0 0l-.5.866M0 0l-.5-.866" style="fill:none;stroke:rgba(255,255,255,.2);stroke-width:.01" transform="matrix(30 0 0 30 30.945 332.352)"/><circle r=".06" style="fill:#222;stroke:rgba(255,255,255,.2);stroke-width:.02" transform="matrix(30 0 0 30 30.945 332.352)"/><circle r=".12" style="fill:none;stroke:red;stroke-width:.03" transform="matrix(30 0 0 30 30.945 332.352)"/><path d="M0 .5h13v3L20 0l-7-3.5v3H0z" style="fill:#ccc;stroke:#ccc" transform="translate(71.445 331.64)"/><path d="M-.5.866 0 0h1z" style="fill:#000" transform="matrix(30 0 0 30 119.063 332.352)"/><path d="M-.5-.866 0 0l-.5.866z" style="fill:#000" transform="matrix(30 0 0 30 119.063 332.352)"/><path d="M-.125.217A.25.25 0 0 0 .25 0" style="fill:none;stroke:red;stroke-width:.02" transform="matrix(30 0 0 30 119.063 332.352)"/><path d="M0 0h1M0 0l-.5.866M0 0l-.5-.866" style="fill:none;stroke:rgba(255,255,255,.2);stroke-width:.01" transform="matrix(30 0 0 30 119.063 332.352)"/><circle r=".06" style="fill:#222;stroke:rgba(255,255,255,.2);stroke-width:.02" transform="matrix(30 0 0 30 119.063 332.352)"/><circle r=".12" style="fill:none;stroke:red;stroke-width:.03" transform="matrix(30 0 0 30 119.063 332.352)"/><path d="m0 0-.5-.866" style="fill:none;stroke:#fff;stroke-width:.1;stroke-linecap:round" transform="matrix(30 0 0 30 119.063 332.352)"/><path d="M-.5.866 0 0h1z" style="fill:#000" transform="matrix(30 0 0 30 31.255 404.463)"/><path d="M-.5-.866 0 0l-.5.866z" style="fill:#000" transform="matrix(30 0 0 30 31.255 404.463)"/><path d="M-.125.217A.25.25 0 0 0 .25 0" style="fill:none;stroke:#e07c1f;stroke-width:.02;stroke-dasharray:.03,.03;stroke-dashoffset:0" transform="matrix(30 0 0 30 31.255 404.463)"/><path d="M-.11-.19a.22.22 0 0 0 0 .38m-.03-.432a.28.28 0 0 0 0 .484" style="fill:none;stroke:#08a4d9;stroke-width:.02" transform="matrix(30 0 0 30 31.255 404.463)"/><path d="M0 0h1M0 0l-.5.866M0 0l-.5-.866" style="fill:none;stroke:rgba(255,255,255,.2);stroke-width:.01" transform="matrix(30 0 0 30 31.255 404.463)"/><circle r=".06" style="fill:#222;stroke:rgba(255,255,255,.2);stroke-width:.02" transform="matrix(30 0 0 30 31.255 404.463)"/><circle r=".12" style="fill:none;stroke:red;stroke-width:.03" transform="matrix(30 0 0 30 31.255 404.463)"/><path d="M0 .5h13v3L20 0l-7-3.5v3H0z" style="fill:#ccc;stroke:#ccc" transform="translate(71.755 404.463)"/><path d="M-.5.866 0 0h1z" style="fill:#000" transform="matrix(30 0 0 30 118.003 404.463)"/><path d="M-.5-.866 0 0l-.5.866z" style="fill:#000" transform="matrix(30 0 0 30 118.003 404.463)"/><path d="M-.11-.19a.22.22 0 0 0 0 .38m-.03-.432a.28.28 0 0 0 0 .484" style="fill:none;stroke:#08a4d9;stroke-width:.02" transform="matrix(30 0 0 30 118.003 404.463)"/><path d="M0 0h1M0 0l-.5.866M0 0l-.5-.866" style="fill:none;stroke:rgba(255,255,255,.2);stroke-width:.01" transform="matrix(30 0 0 30 118.003 404.463)"/><circle r=".06" style="fill:#222;stroke:rgba(255,255,255,.2);stroke-width:.02" transform="matrix(30 0 0 30 118.003 404.463)"/><circle r=".12" style="fill:none;stroke:red;stroke-width:.03" transform="matrix(30 0 0 30 118.003 404.463)"/><path d="M0 0h1" style="fill:none;stroke:red;stroke-width:.05;stroke-linecap:round" transform="matrix(30 0 0 30 118.003 404.463)"/><path d="M-.5.866 0 0h1z" style="fill:#000" transform="matrix(30 0 0 30 31.32 476.575)"/><path d="M-.5-.866 0 0l-.5.866z" style="fill:#000" transform="matrix(30 0 0 30 31.32 476.575)"/><path d="M-.125.217A.25.25 0 0 0 .25 0m-.375-.217a.25.25 0 0 0 0 .434" style="fill:none;stroke:#e07c1f;stroke-width:.02;stroke-dasharray:.03,.03;stroke-dashoffset:0" transform="matrix(30 0 0 30 31.32 476.575)"/><path d="M0 0h1M0 0l-.5.866M0 0l-.5-.866" style="fill:none;stroke:rgba(255,255,255,.2);stroke-width:.01" transform="matrix(30 0 0 30 31.32 476.575)"/><circle r=".06" style="fill:#222;stroke:rgba(255,255,255,.2);stroke-width:.02" transform="matrix(30 0 0 30 31.32 476.575)"/><circle r=".12" style="fill:none;stroke:red;stroke-width:.03" transform="matrix(30 0 0 30 31.32 476.575)"/><path d="M0 .5h13v3L20 0l-7-3.5v3H0z" style="fill:#ccc;stroke:#ccc" transform="translate(71.82 476.912)"/><path d="M-.5.866 0 0h1z" style="fill:#000" transform="matrix(30 0 0 30 118.688 476.575)"/><path d="M-.5-.866 0 0l-.5.866z" style="fill:#000" transform="matrix(30 0 0 30 118.688 476.575)"/><path d="M0 0h1M0 0l-.5.866M0 0l-.5-.866" style="fill:none;stroke:rgba(255,255,255,.2);stroke-width:.01" transform="matrix(30 0 0 30 118.688 476.575)"/><circle r=".06" style="fill:#222;stroke:rgba(255,255,255,.2);stroke-width:.02" transform="matrix(30 0 0 30 118.688 476.575)"/><circle r=".12" style="fill:none;stroke:red;stroke-width:.03" transform="matrix(30 0 0 30 118.688 476.575)"/><path d="m0 0-.5.866" style="fill:none;stroke:red;stroke-width:.05;stroke-linecap:round" transform="matrix(30 0 0 30 118.688 476.575)"/></svg>