<svg xmlns="http://www.w3.org/2000/svg" width="172" height="93" aria-hidden="true" style="pointer-events:none;position:absolute;left:0;top:0;transform-origin:left top;z-index:20"><rect width="162" height="83" rx="0" ry="0" style="fill:#333"/><path d="M-.5.866 0 0h1z" style="fill:#000" transform="matrix(30 0 0 30 30.13 40.98)"/><path d="M1 0-.5-.866V.866z" style="fill:#000" transform="matrix(30 0 0 30 30.13 40.98)"/><path d="M0 0h1M0 0l-.5.866" style="fill:none;stroke:rgba(255,255,255,.2);stroke-width:.01" transform="matrix(30 0 0 30 30.13 40.98)"/><circle r=".04" style="fill:rgba(255,255,255,.2);stroke:rgba(255,255,255,.2);stroke-width:.02" transform="matrix(30 0 0 30 30.13 40.98)"/><path d="M0 .5h13v3L20 0l-7-3.5v3H0z" style="fill:#ccc;stroke:#ccc" transform="translate(70.63 41.018)"/><path d="M-.5.866 0 0h1z" style="fill:#000" transform="matrix(30 0 0 30 116.878 40.98)"/><path d="M1 0-.5-.866V.866z" style="fill:#000" transform="matrix(30 0 0 30 116.878 40.98)"/><path d="M-.11.19A.22.22 0 0 0 .22 0m-.36.242A.28.28 0 0 0 .28 0" style="fill:none;stroke:#08a4d9;stroke-width:.02" transform="matrix(30 0 0 30 116.878 40.98)"/><path d="M.22 0a.22.22 0 1 0-.33.19M.28 0a.28.28 0 1 0-.42.242" style="fill:none;stroke:#08a4d9;stroke-width:.02" transform="matrix(30 0 0 30 116.878 40.98)"/><path d="M0 0h1M0 0l-.5.866" style="fill:none;stroke:rgba(255,255,255,.2);stroke-width:.01" transform="matrix(30 0 0 30 116.878 40.98)"/><circle r=".04" style="fill:rgba(255,255,255,.2);stroke:rgba(255,255,255,.2);stroke-width:.02" transform="matrix(30 0 0 30 116.878 40.98)"/></svg>