<svg xmlns="http://www.w3.org/2000/svg" focusable="false" aria-hidden="true" width="208" height="106" style="pointer-events: none; position: absolute; left: 0px; top: 0px; transform-origin: left top; z-index: 20;"><defs/><g><g><g><g><rect x="0" y="0" width="198" height="96" rx="0" ry="0" style="fill: #333; stroke: none;stroke-miterlimit: 10;"/></g><g transform="translate(10.00000000000000000000,10.00000000000000000000)"><g transform="translate(5.00000000000000000000,5.00000000000000000000)"><g><g transform="translate(0.00000000000000000000,4.05000000000000071054)"><g><g transform="translate(31.50000000000000000000,0.00000000000000000000)"><g transform="scale(30.00000000000000000000)"><g><line x1="0" y1="0" x2="1" y2="0" style="fill: none; stroke: rgba(255,255,255,0.2);stroke-width: 0.01;stroke-miterlimit: 10;"/></g><g><line x1="0" y1="0" x2="-1" y2="1.2246467991473532e-16" style="fill: none; stroke: rgba(255,255,255,0.2);stroke-width: 0.01;stroke-miterlimit: 10;"/></g><g><circle r="0.06" style="fill: #222; stroke: rgba(255,255,255,0.2);stroke-width: 0.02;stroke-miterlimit: 10;"/></g><g><line x1="0" y1="0" x2="1" y2="0" style="fill: none; stroke: #fff;stroke-width: 0.1;stroke-linecap: round;stroke-miterlimit: 10;"/></g><g><line x1="0" y1="0" x2="-1" y2="1.2246467991473532e-16" style="fill: none; stroke: #fff;stroke-width: 0.1;stroke-linecap: round;stroke-miterlimit: 10;"/></g></g></g><g transform="translate(73.50000000000000000000,0.25901699437495206979)"><path d="M 0.00000000000000003062 0.50000000000000000000 L 13.00000000000000000000 0.50000000000000000000 L 13.00000000000000000000 3.50000000000000000000 L 20.00000000000000000000 0.00000000000000000000 L 13.00000000000000000000 -3.50000000000000000000 L 13.00000000000000000000 -0.50000000000000000000 L -0.00000000000000003062 -0.50000000000000000000 L 0.00000000000000003062 0.50000000000000000000 Z " style="fill: #ccc; stroke: #ccc;stroke-miterlimit: 10;"/></g><g transform="translate(136.11803398874991444245,0.00000000000000000000)"><g transform="scale(30.00000000000000000000)"><g><line x1="0" y1="0" x2="1" y2="0" style="fill: none; stroke: rgba(255,255,255,0.2);stroke-width: 0.01;stroke-miterlimit: 10;"/></g><g><line x1="0" y1="0" x2="-1" y2="1.2246467991473532e-16" style="fill: none; stroke: rgba(255,255,255,0.2);stroke-width: 0.01;stroke-miterlimit: 10;"/></g><g><circle r="0.06" style="fill: #222; stroke: rgba(255,255,255,0.2);stroke-width: 0.02;stroke-miterlimit: 10;"/></g><g><circle r="0.12" style="fill: none; stroke: #f00;stroke-width: 0.03;stroke-miterlimit: 10;"/></g><g><line x1="0" y1="0" x2="1" y2="0" style="fill: none; stroke: #fff;stroke-width: 0.1;stroke-linecap: round;stroke-miterlimit: 10;"/></g><g><line x1="0" y1="0" x2="-1" y2="1.2246467991473532e-16" style="fill: none; stroke: #fff;stroke-width: 0.1;stroke-linecap: round;stroke-miterlimit: 10;"/></g></g></g></g></g><g transform="translate(0.75000000000000000000,32.66803398874989738943)"><g><g transform="translate(30.00000000000000000000,0.00000000000000000000)"><g transform="scale(30.00000000000000000000)"><g><line x1="0" y1="0" x2="1" y2="0" style="fill: none; stroke: rgba(255,255,255,0.2);stroke-width: 0.01;stroke-miterlimit: 10;"/></g><g><line x1="0" y1="0" x2="-1" y2="1.2246467991473532e-16" style="fill: none; stroke: rgba(255,255,255,0.2);stroke-width: 0.01;stroke-miterlimit: 10;"/></g><g><circle r="0.06" style="fill: #222; stroke: rgba(255,255,255,0.2);stroke-width: 0.02;stroke-miterlimit: 10;"/></g><g><circle r="0.12" style="fill: none; stroke: #f00;stroke-width: 0.03;stroke-miterlimit: 10;"/></g><g><line x1="0" y1="0" x2="1" y2="0" style="fill: none; stroke: #fff;stroke-width: 0.1;stroke-linecap: round;stroke-miterlimit: 10;"/></g></g></g><g transform="translate(72.00000000000000000000,0.25901699437495206979)"><path d="M 0.00000000000000003062 0.50000000000000000000 L 13.00000000000000000000 0.50000000000000000000 L 13.00000000000000000000 3.50000000000000000000 L 20.00000000000000000000 0.00000000000000000000 L 13.00000000000000000000 -3.50000000000000000000 L 13.00000000000000000000 -0.50000000000000000000 L -0.00000000000000003062 -0.50000000000000000000 L 0.00000000000000003062 0.50000000000000000000 Z " style="fill: #ccc; stroke: #ccc;stroke-miterlimit: 10;"/></g><g transform="translate(134.61803398874991444245,0.00000000000000000000)"><g transform="scale(30.00000000000000000000)"><g><line x1="0" y1="0" x2="1" y2="0" style="fill: none; stroke: rgba(255,255,255,0.2);stroke-width: 0.01;stroke-miterlimit: 10;"/></g><g><line x1="0" y1="0" x2="-1" y2="1.2246467991473532e-16" style="fill: none; stroke: rgba(255,255,255,0.2);stroke-width: 0.01;stroke-miterlimit: 10;"/></g><g><circle r="0.06" style="fill: #222; stroke: rgba(255,255,255,0.2);stroke-width: 0.02;stroke-miterlimit: 10;"/></g><g><circle r="0.12" style="fill: none; stroke: #f00;stroke-width: 0.03;stroke-miterlimit: 10;"/></g><g><line x1="0" y1="0" x2="1" y2="0" style="fill: none; stroke: #fff;stroke-width: 0.1;stroke-linecap: round;stroke-miterlimit: 10;"/></g><g><line x1="0" y1="0" x2="-1" y2="1.2246467991473532e-16" style="fill: none; stroke: #fff;stroke-width: 0.1;stroke-linecap: round;stroke-miterlimit: 10;"/></g></g></g></g></g><g transform="translate(1.87500000000000000000,61.28606797749979762102)"><g><g transform="translate(30.00000000000000000000,0.00000000000000000000)"><g transform="scale(30.00000000000000000000)"><g><line x1="0" y1="0" x2="1" y2="0" style="fill: none; stroke: rgba(255,255,255,0.2);stroke-width: 0.01;stroke-miterlimit: 10;"/></g><g><line x1="0" y1="0" x2="-1" y2="1.2246467991473532e-16" style="fill: none; stroke: rgba(255,255,255,0.2);stroke-width: 0.01;stroke-miterlimit: 10;"/></g><g><circle r="0.06" style="fill: #222; stroke: rgba(255,255,255,0.2);stroke-width: 0.02;stroke-miterlimit: 10;"/></g><g><circle r="0.12" style="fill: none; stroke: #f00;stroke-width: 0.03;stroke-miterlimit: 10;"/></g><g><line x1="0" y1="0" x2="1" y2="0" style="fill: none; stroke: #f00;stroke-width: 0.05;stroke-linecap: round;stroke-miterlimit: 10;"/></g></g></g><g transform="translate(71.25000000000000000000,0.25901699437495206979)"><path d="M 0.00000000000000003062 0.50000000000000000000 L 13.00000000000000000000 0.50000000000000000000 L 13.00000000000000000000 3.50000000000000000000 L 20.00000000000000000000 0.00000000000000000000 L 13.00000000000000000000 -3.50000000000000000000 L 13.00000000000000000000 -0.50000000000000000000 L -0.00000000000000003062 -0.50000000000000000000 L 0.00000000000000003062 0.50000000000000000000 Z " style="fill: #ccc; stroke: #ccc;stroke-miterlimit: 10;"/></g><g transform="translate(133.11803398874988602074,0.00000000000000000000)"><g transform="scale(30.00000000000000000000)"><g><line x1="0" y1="0" x2="1" y2="0" style="fill: none; stroke: rgba(255,255,255,0.2);stroke-width: 0.01;stroke-miterlimit: 10;"/></g><g><line x1="0" y1="0" x2="-1" y2="1.2246467991473532e-16" style="fill: none; stroke: rgba(255,255,255,0.2);stroke-width: 0.01;stroke-miterlimit: 10;"/></g><g><circle r="0.06" style="fill: #222; stroke: rgba(255,255,255,0.2);stroke-width: 0.02;stroke-miterlimit: 10;"/></g><g><circle r="0.12" style="fill: none; stroke: #f00;stroke-width: 0.03;stroke-miterlimit: 10;"/></g><g><line x1="0" y1="0" x2="1" y2="0" style="fill: none; stroke: #f00;stroke-width: 0.05;stroke-linecap: round;stroke-miterlimit: 10;"/></g><g><line x1="0" y1="0" x2="-1" y2="1.2246467991473532e-16" style="fill: none; stroke: #f00;stroke-width: 0.05;stroke-linecap: round;stroke-miterlimit: 10;"/></g></g></g></g></g></g></g></g></g></g></g></svg>