<svg xmlns="http://www.w3.org/2000/svg" focusable="false" aria-hidden="true" width="172" height="71" style="pointer-events: none; position: absolute; left: 0px; top: 0px; transform-origin: left top; z-index: 20;"><defs/><g><g><g><g><rect x="0" y="0" width="162" height="61" rx="0" ry="0" style="fill: #333; stroke: none;stroke-miterlimit: 10;"/></g><g transform="translate(10.00000000000000000000,10.00000000000000000000)"><g transform="translate(5.00000000000000000000,5.00000000000000000000)"><g><g transform="translate(0.00000000000000000000,4.05000000000000071054)"><g><g transform="translate(15.12990381056765976098,0.00000000000000000000)"><g transform="scale(30.00000000000000000000)"><g><path d="M -0.49999999999999977796 0.86602540378443870761 L 0.00000000000000000000 0.00000000000000000000 L 1.00000000000000000000 0.00000000000000000000 L -0.49999999999999977796 0.86602540378443870761 Z " style="fill: #000; stroke: none;stroke-miterlimit: 10;"/></g><g><line x1="0" y1="0" x2="1" y2="0" style="fill: none; stroke: rgba(255,255,255,0.2);stroke-width: 0.01;stroke-miterlimit: 10;"/></g><g><line x1="0" y1="0" x2="-0.4999999999999998" y2="0.8660254037844387" style="fill: none; stroke: rgba(255,255,255,0.2);stroke-width: 0.01;stroke-miterlimit: 10;"/></g><g><circle r="0.06" style="fill: #222; stroke: rgba(255,255,255,0.2);stroke-width: 0.02;stroke-miterlimit: 10;"/></g><g><circle r="0.12" style="fill: none; stroke: #f00;stroke-width: 0.03;stroke-miterlimit: 10;"/></g></g></g><g transform="translate(55.62990381056766153733,11.00288105676658290122)"><path d="M 0.00000000000000003062 0.50000000000000000000 L 13.00000000000000000000 0.50000000000000000000 L 13.00000000000000000000 3.50000000000000000000 L 20.00000000000000000000 0.00000000000000000000 L 13.00000000000000000000 -3.50000000000000000000 L 13.00000000000000000000 -0.50000000000000000000 L -0.00000000000000003062 -0.50000000000000000000 L 0.00000000000000003062 0.50000000000000000000 Z " style="fill: #ccc; stroke: #ccc;stroke-miterlimit: 10;"/></g><g transform="translate(101.87784160988520909541,0.00000000000000000000)"><g transform="scale(30.00000000000000000000)"><g><path d="M -0.49999999999999977796 0.86602540378443870761 L 0.00000000000000000000 0.00000000000000000000 L 1.00000000000000000000 0.00000000000000000000 L -0.49999999999999977796 0.86602540378443870761 Z " style="fill: #000; stroke: none;stroke-miterlimit: 10;"/></g><g><path d="M -0.10999999999999995892 0.19052558883257653122 L -0.11000000000000005607 0.19052558883257650346 A 0.22000000000000000111 0.22000000000000000111 0 0 0 0.22000000000000000111 -0.00000000000000005388 M -0.13999999999999995781 0.24248711305964290585 L -0.14000000000000006883 0.24248711305964282259 A 0.28000000000000002665 0.28000000000000002665 0 0 0 0.28000000000000002665 -0.00000000000000006858 " style="fill: none; stroke: rgb(8,164,217);stroke-width: 0.02;stroke-miterlimit: 10;"/></g><g><line x1="0" y1="0" x2="1" y2="0" style="fill: none; stroke: rgba(255,255,255,0.2);stroke-width: 0.01;stroke-miterlimit: 10;"/></g><g><line x1="0" y1="0" x2="-0.4999999999999998" y2="0.8660254037844387" style="fill: none; stroke: rgba(255,255,255,0.2);stroke-width: 0.01;stroke-miterlimit: 10;"/></g><g><circle r="0.06" style="fill: #222; stroke: rgba(255,255,255,0.2);stroke-width: 0.02;stroke-miterlimit: 10;"/></g><g><circle r="0.12" style="fill: none; stroke: #f00;stroke-width: 0.03;stroke-miterlimit: 10;"/></g></g></g></g></g></g></g></g></g></g></g></svg>