<svg xmlns="http://www.w3.org/2000/svg" width="404" height="597" aria-hidden="true" style="pointer-events:none;position:absolute;left:0;top:0;transform-origin:left top;z-index:20"><rect width="394" height="587" rx="0" ry="0" style="fill:#333"/><path d="M.5.866 0 0h1z" style="fill:#000" transform="matrix(30 0 0 30 45 41.056)"/><path d="M-.5.866 0 0l.5.866z" style="fill:#000" transform="matrix(30 0 0 30 45 41.056)"/><path d="M-1 0h1l-.5.866zm.5-.866L0 0h-1z" style="fill:#000" transform="matrix(30 0 0 30 45 41.056)"/><path d="M.5-.866 0 0l-.5-.866zM1 0H0l.5-.866z" style="fill:#000" transform="matrix(30 0 0 30 45 41.056)"/><path d="M.5.866 0 0h1zM-1 0h1l-.5.866z" style="fill:#214068" transform="matrix(30 0 0 30 45 41.056)"/><path d="M.5-.866 0 0l-.5-.866z" style="fill:#09294c" transform="matrix(30 0 0 30 45 41.056)"/><path d="M0 0h1M0 0l.5.866M0 0l-.5.866M0 0h-1m1 0-.5-.866M0 0l.5-.866" style="fill:none;stroke:rgba(255,255,255,.2);stroke-width:.01" transform="matrix(30 0 0 30 45 41.056)"/><circle r=".04" style="fill:rgba(255,255,255,.2);stroke:rgba(255,255,255,.2);stroke-width:.02" transform="matrix(30 0 0 30 45 41.056)"/><path d="M0 .5h13v3L20 0l-7-3.5v3H0z" style="fill:#ccc;stroke:#ccc" transform="translate(85.5 41.056)"/><path d="M.5.866 0 0h1z" style="fill:#000" transform="matrix(30 0 0 30 146.618 41.056)"/><path d="M-.5.866 0 0l.5.866z" style="fill:#000" transform="matrix(30 0 0 30 146.618 41.056)"/><path d="M-1 0h1l-.5.866zm.5-.866L0 0h-1z" style="fill:#000" transform="matrix(30 0 0 30 146.618 41.056)"/><path d="M.5-.866 0 0l-.5-.866zM1 0H0l.5-.866z" style="fill:#000" transform="matrix(30 0 0 30 146.618 41.056)"/><path d="M-1 0h1l-.5.866zm.5.866L0 0l.5.866z" style="fill:#214068" transform="matrix(30 0 0 30 146.618 41.056)"/><path d="M.5.866 0 0h1z" style="fill:#214068" transform="matrix(30 0 0 30 146.618 41.056)"/><path d="M.5-.866 0 0l-.5-.866z" style="fill:#09294c" transform="matrix(30 0 0 30 146.618 41.056)"/><path d="M0 0h1M0 0l.5.866M0 0l-.5.866M0 0h-1m1 0-.5-.866M0 0l.5-.866" style="fill:none;stroke:rgba(255,255,255,.2);stroke-width:.01" transform="matrix(30 0 0 30 146.618 41.056)"/><circle r=".04" style="fill:rgba(255,255,255,.2);stroke:rgba(255,255,255,.2);stroke-width:.02" transform="matrix(30 0 0 30 146.618 41.056)"/><path d="M.5.866 0 0h1z" style="fill:#000" transform="matrix(30 0 0 30 246.618 41.056)"/><path d="M-.5.866 0 0l.5.866z" style="fill:#000" transform="matrix(30 0 0 30 246.618 41.056)"/><path d="M-1 0h1l-.5.866zm.5-.866L0 0h-1z" style="fill:#000" transform="matrix(30 0 0 30 246.618 41.056)"/><path d="M.5-.866 0 0l-.5-.866zM1 0H0l.5-.866z" style="fill:#000" transform="matrix(30 0 0 30 246.618 41.056)"/><path d="M.5.866 0 0h1zM-1 0h1l-.5.866z" style="fill:#214068" transform="matrix(30 0 0 30 246.618 41.056)"/><path d="M-.5-.866 0 0h-1z" style="fill:#09294c" transform="matrix(30 0 0 30 246.618 41.056)"/><path d="M0 0h1M0 0l.5.866M0 0l-.5.866M0 0h-1m1 0-.5-.866M0 0l.5-.866" style="fill:none;stroke:rgba(255,255,255,.2);stroke-width:.01" transform="matrix(30 0 0 30 246.618 41.056)"/><circle r=".04" style="fill:rgba(255,255,255,.2);stroke:rgba(255,255,255,.2);stroke-width:.02" transform="matrix(30 0 0 30 246.618 41.056)"/><path d="M0 .5h13v3L20 0l-7-3.5v3H0z" style="fill:#ccc;stroke:#ccc" transform="translate(287.118 41.056)"/><path d="M.5.866 0 0h1z" style="fill:#000" transform="matrix(30 0 0 30 348.236 41.056)"/><path d="M-.5.866 0 0l.5.866z" style="fill:#000" transform="matrix(30 0 0 30 348.236 41.056)"/><path d="M-1 0h1l-.5.866zm.5-.866L0 0h-1z" style="fill:#000" transform="matrix(30 0 0 30 348.236 41.056)"/><path d="M.5-.866 0 0l-.5-.866zM1 0H0l.5-.866z" style="fill:#000" transform="matrix(30 0 0 30 348.236 41.056)"/><path d="M-1 0h1l-.5.866zm.5.866L0 0l.5.866z" style="fill:#214068" transform="matrix(30 0 0 30 348.236 41.056)"/><path d="M.5.866 0 0h1z" style="fill:#214068" transform="matrix(30 0 0 30 348.236 41.056)"/><path d="M-.5-.866 0 0h-1z" style="fill:#09294c" transform="matrix(30 0 0 30 348.236 41.056)"/><path d="M0 0h1M0 0l.5.866M0 0l-.5.866M0 0h-1m1 0-.5-.866M0 0l.5-.866" style="fill:none;stroke:rgba(255,255,255,.2);stroke-width:.01" transform="matrix(30 0 0 30 348.236 41.056)"/><circle r=".04" style="fill:rgba(255,255,255,.2);stroke:rgba(255,255,255,.2);stroke-width:.02" transform="matrix(30 0 0 30 348.236 41.056)"/><path d="M.5.866 0 0h1z" style="fill:#000" transform="matrix(30 0 0 30 45 113.167)"/><path d="M-.5.866 0 0l.5.866z" style="fill:#000" transform="matrix(30 0 0 30 45 113.167)"/><path d="M-1 0h1l-.5.866zm.5-.866L0 0h-1z" style="fill:#000" transform="matrix(30 0 0 30 45 113.167)"/><path d="M.5-.866 0 0l-.5-.866zM1 0H0l.5-.866z" style="fill:#000" transform="matrix(30 0 0 30 45 113.167)"/><path d="M.5.866 0 0h1zm-1-1.732L0 0h-1z" style="fill:#214068" transform="matrix(30 0 0 30 45 113.167)"/><path d="M-.5.866 0 0l.5.866z" style="fill:#09294c" transform="matrix(30 0 0 30 45 113.167)"/><path d="M0 0h1M0 0l.5.866M0 0l-.5.866M0 0h-1m1 0-.5-.866M0 0l.5-.866" style="fill:none;stroke:rgba(255,255,255,.2);stroke-width:.01" transform="matrix(30 0 0 30 45 113.167)"/><circle r=".04" style="fill:rgba(255,255,255,.2);stroke:rgba(255,255,255,.2);stroke-width:.02" transform="matrix(30 0 0 30 45 113.167)"/><path d="M0 .5h13v3L20 0l-7-3.5v3H0z" style="fill:#ccc;stroke:#ccc" transform="translate(85.5 113.167)"/><path d="M.5.866 0 0h1z" style="fill:#000" transform="matrix(30 0 0 30 146.618 113.167)"/><path d="M-.5.866 0 0l.5.866z" style="fill:#000" transform="matrix(30 0 0 30 146.618 113.167)"/><path d="M-1 0h1l-.5.866zm.5-.866L0 0h-1z" style="fill:#000" transform="matrix(30 0 0 30 146.618 113.167)"/><path d="M.5-.866 0 0l-.5-.866zM1 0H0l.5-.866z" style="fill:#000" transform="matrix(30 0 0 30 146.618 113.167)"/><path d="M.5-.866 0 0l-.5-.866zM1 0H0l.5-.866z" style="fill:#214068" transform="matrix(30 0 0 30 146.618 113.167)"/><path d="M-.5-.866 0 0h-1zM.5.866 0 0h1z" style="fill:#214068" transform="matrix(30 0 0 30 146.618 113.167)"/><path d="M-.5.866 0 0l.5.866z" style="fill:#09294c" transform="matrix(30 0 0 30 146.618 113.167)"/><path d="M0 0h1M0 0l.5.866M0 0l-.5.866M0 0h-1m1 0-.5-.866M0 0l.5-.866" style="fill:none;stroke:rgba(255,255,255,.2);stroke-width:.01" transform="matrix(30 0 0 30 146.618 113.167)"/><circle r=".04" style="fill:rgba(255,255,255,.2);stroke:rgba(255,255,255,.2);stroke-width:.02" transform="matrix(30 0 0 30 146.618 113.167)"/><path d="M.5.866 0 0h1z" style="fill:#000" transform="matrix(30 0 0 30 246.618 113.167)"/><path d="M-.5.866 0 0l.5.866z" style="fill:#000" transform="matrix(30 0 0 30 246.618 113.167)"/><path d="M-1 0h1l-.5.866zm.5-.866L0 0h-1z" style="fill:#000" transform="matrix(30 0 0 30 246.618 113.167)"/><path d="M.5-.866 0 0l-.5-.866zM1 0H0l.5-.866z" style="fill:#000" transform="matrix(30 0 0 30 246.618 113.167)"/><path d="M.5.866 0 0h1zM-1 0h1l-.5.866z" style="fill:#214068" transform="matrix(30 0 0 30 246.618 113.167)"/><path d="M-.5.866 0 0l.5.866z" style="fill:#09294c" transform="matrix(30 0 0 30 246.618 113.167)"/><path d="M0 0h1M0 0l.5.866M0 0l-.5.866M0 0h-1m1 0-.5-.866M0 0l.5-.866" style="fill:none;stroke:rgba(255,255,255,.2);stroke-width:.01" transform="matrix(30 0 0 30 246.618 113.167)"/><circle r=".04" style="fill:rgba(255,255,255,.2);stroke:rgba(255,255,255,.2);stroke-width:.02" transform="matrix(30 0 0 30 246.618 113.167)"/><path d="M0 .5h13v3L20 0l-7-3.5v3H0z" style="fill:#ccc;stroke:#ccc" transform="translate(287.118 113.167)"/><path d="M.5.866 0 0h1z" style="fill:#000" transform="matrix(30 0 0 30 348.236 113.167)"/><path d="M-.5.866 0 0l.5.866z" style="fill:#000" transform="matrix(30 0 0 30 348.236 113.167)"/><path d="M-1 0h1l-.5.866zm.5-.866L0 0h-1z" style="fill:#000" transform="matrix(30 0 0 30 348.236 113.167)"/><path d="M.5-.866 0 0l-.5-.866zM1 0H0l.5-.866z" style="fill:#000" transform="matrix(30 0 0 30 348.236 113.167)"/><path d="M.5-.866 0 0l-.5-.866zM1 0H0l.5-.866z" style="fill:#214068" transform="matrix(30 0 0 30 348.236 113.167)"/><path d="M-.5-.866 0 0h-1zM-1 0h1l-.5.866zM.5.866 0 0h1z" style="fill:#214068" transform="matrix(30 0 0 30 348.236 113.167)"/><path d="M-.5.866 0 0l.5.866z" style="fill:#09294c" transform="matrix(30 0 0 30 348.236 113.167)"/><path d="M0 0h1M0 0l.5.866M0 0l-.5.866M0 0h-1m1 0-.5-.866M0 0l.5-.866" style="fill:none;stroke:rgba(255,255,255,.2);stroke-width:.01" transform="matrix(30 0 0 30 348.236 113.167)"/><circle r=".04" style="fill:rgba(255,255,255,.2);stroke:rgba(255,255,255,.2);stroke-width:.02" transform="matrix(30 0 0 30 348.236 113.167)"/><path d="M.5.866 0 0h1z" style="fill:#000" transform="matrix(30 0 0 30 45 185.279)"/><path d="M-.5.866 0 0l.5.866z" style="fill:#000" transform="matrix(30 0 0 30 45 185.279)"/><path d="M-1 0h1l-.5.866zm.5-.866L0 0h-1z" style="fill:#000" transform="matrix(30 0 0 30 45 185.279)"/><path d="M.5-.866 0 0l-.5-.866zM1 0H0l.5-.866z" style="fill:#000" transform="matrix(30 0 0 30 45 185.279)"/><path d="M.5.866 0 0h1zM-1 0h1l-.5.866z" style="fill:#214068" transform="matrix(30 0 0 30 45 185.279)"/><path d="M-.5-.866 0 0h-1z" style="fill:#224935" transform="matrix(30 0 0 30 45 185.279)"/><path d="M1 0H0l.5-.866z" style="fill:#0d301f" transform="matrix(30 0 0 30 45 185.279)"/><path d="M0 0h1M0 0l.5.866M0 0l-.5.866M0 0h-1m1 0-.5-.866M0 0l.5-.866" style="fill:none;stroke:rgba(255,255,255,.2);stroke-width:.01" transform="matrix(30 0 0 30 45 185.279)"/><circle r=".04" style="fill:rgba(255,255,255,.2);stroke:rgba(255,255,255,.2);stroke-width:.02" transform="matrix(30 0 0 30 45 185.279)"/><path d="M0 .5h13v3L20 0l-7-3.5v3H0z" style="fill:#ccc;stroke:#ccc" transform="translate(85.5 185.279)"/><path d="M.5.866 0 0h1z" style="fill:#000" transform="matrix(30 0 0 30 146.618 185.279)"/><path d="M-.5.866 0 0l.5.866z" style="fill:#000" transform="matrix(30 0 0 30 146.618 185.279)"/><path d="M-1 0h1l-.5.866zm.5-.866L0 0h-1z" style="fill:#000" transform="matrix(30 0 0 30 146.618 185.279)"/><path d="M.5-.866 0 0l-.5-.866zM1 0H0l.5-.866z" style="fill:#000" transform="matrix(30 0 0 30 146.618 185.279)"/><path d="M-.5.866 0 0l.5.866z" style="fill:#214068" transform="matrix(30 0 0 30 146.618 185.279)"/><path d="M-1 0h1l-.5.866zM.5.866 0 0h1z" style="fill:#214068" transform="matrix(30 0 0 30 146.618 185.279)"/><path d="M-.5-.866 0 0h-1z" style="fill:#224935" transform="matrix(30 0 0 30 146.618 185.279)"/><path d="M1 0H0l.5-.866z" style="fill:#0d301f" transform="matrix(30 0 0 30 146.618 185.279)"/><path d="M0 0h1M0 0l.5.866M0 0l-.5.866M0 0h-1m1 0-.5-.866M0 0l.5-.866" style="fill:none;stroke:rgba(255,255,255,.2);stroke-width:.01" transform="matrix(30 0 0 30 146.618 185.279)"/><circle r=".04" style="fill:rgba(255,255,255,.2);stroke:rgba(255,255,255,.2);stroke-width:.02" transform="matrix(30 0 0 30 146.618 185.279)"/><path d="M.5.866 0 0h1z" style="fill:#000" transform="matrix(30 0 0 30 246.618 185.279)"/><path d="M-.5.866 0 0l.5.866z" style="fill:#000" transform="matrix(30 0 0 30 246.618 185.279)"/><path d="M-1 0h1l-.5.866zm.5-.866L0 0h-1z" style="fill:#000" transform="matrix(30 0 0 30 246.618 185.279)"/><path d="M.5-.866 0 0l-.5-.866zM1 0H0l.5-.866z" style="fill:#000" transform="matrix(30 0 0 30 246.618 185.279)"/><path d="M.5.866 0 0h1z" style="fill:#214068" transform="matrix(30 0 0 30 246.618 185.279)"/><path d="M-1 0h1l-.5.866z" style="fill:#09294c" transform="matrix(30 0 0 30 246.618 185.279)"/><path d="M-.5-.866 0 0h-1z" style="fill:#224935" transform="matrix(30 0 0 30 246.618 185.279)"/><path d="M1 0H0l.5-.866z" style="fill:#0d301f" transform="matrix(30 0 0 30 246.618 185.279)"/><path d="M0 0h1M0 0l.5.866M0 0l-.5.866M0 0h-1m1 0-.5-.866M0 0l.5-.866" style="fill:none;stroke:rgba(255,255,255,.2);stroke-width:.01" transform="matrix(30 0 0 30 246.618 185.279)"/><circle r=".04" style="fill:rgba(255,255,255,.2);stroke:rgba(255,255,255,.2);stroke-width:.02" transform="matrix(30 0 0 30 246.618 185.279)"/><path d="M0 .5h13v3L20 0l-7-3.5v3H0z" style="fill:#ccc;stroke:#ccc" transform="translate(287.118 185.279)"/><path d="M.5.866 0 0h1z" style="fill:#000" transform="matrix(30 0 0 30 348.236 185.279)"/><path d="M-.5.866 0 0l.5.866z" style="fill:#000" transform="matrix(30 0 0 30 348.236 185.279)"/><path d="M-1 0h1l-.5.866zm.5-.866L0 0h-1z" style="fill:#000" transform="matrix(30 0 0 30 348.236 185.279)"/><path d="M.5-.866 0 0l-.5-.866zM1 0H0l.5-.866z" style="fill:#000" transform="matrix(30 0 0 30 348.236 185.279)"/><path d="M-.5-.866 0 0h-1zM-1 0h1l-.5.866z" style="fill:#214068" transform="matrix(30 0 0 30 348.236 185.279)"/><path d="M1 0H0l.5-.866zM.5.866 0 0h1z" style="fill:#09294c" transform="matrix(30 0 0 30 348.236 185.279)"/><path d="M0 0h1M0 0l.5.866M0 0l-.5.866M0 0h-1m1 0-.5-.866M0 0l.5-.866" style="fill:none;stroke:rgba(255,255,255,.2);stroke-width:.01" transform="matrix(30 0 0 30 348.236 185.279)"/><circle r=".04" style="fill:rgba(255,255,255,.2);stroke:rgba(255,255,255,.2);stroke-width:.02" transform="matrix(30 0 0 30 348.236 185.279)"/><path d="M.5.866 0 0h1z" style="fill:#000" transform="matrix(30 0 0 30 45 257.39)"/><path d="M-.5.866 0 0l.5.866z" style="fill:#000" transform="matrix(30 0 0 30 45 257.39)"/><path d="M-1 0h1l-.5.866zm.5-.866L0 0h-1z" style="fill:#000" transform="matrix(30 0 0 30 45 257.39)"/><path d="M.5-.866 0 0l-.5-.866zM1 0H0l.5-.866z" style="fill:#000" transform="matrix(30 0 0 30 45 257.39)"/><path d="M.5.866 0 0h1zM-1 0h1l-.5.866z" style="fill:#214068" transform="matrix(30 0 0 30 45 257.39)"/><path d="M-.5-.866 0 0h-1z" style="fill:#224935" transform="matrix(30 0 0 30 45 257.39)"/><path d="M.5-.866 0 0l-.5-.866z" style="fill:#0d301f" transform="matrix(30 0 0 30 45 257.39)"/><path d="M0 0h1M0 0l.5.866M0 0l-.5.866M0 0h-1m1 0-.5-.866M0 0l.5-.866" style="fill:none;stroke:rgba(255,255,255,.2);stroke-width:.01" transform="matrix(30 0 0 30 45 257.39)"/><circle r=".04" style="fill:rgba(255,255,255,.2);stroke:rgba(255,255,255,.2);stroke-width:.02" transform="matrix(30 0 0 30 45 257.39)"/><path d="M0 .5h13v3L20 0l-7-3.5v3H0z" style="fill:#ccc;stroke:#ccc" transform="translate(85.5 257.39)"/><path d="M.5.866 0 0h1z" style="fill:#000" transform="matrix(30 0 0 30 146.618 257.39)"/><path d="M-.5.866 0 0l.5.866z" style="fill:#000" transform="matrix(30 0 0 30 146.618 257.39)"/><path d="M-1 0h1l-.5.866zm.5-.866L0 0h-1z" style="fill:#000" transform="matrix(30 0 0 30 146.618 257.39)"/><path d="M.5-.866 0 0l-.5-.866zM1 0H0l.5-.866z" style="fill:#000" transform="matrix(30 0 0 30 146.618 257.39)"/><path d="M-.5.866 0 0l.5.866z" style="fill:#214068" transform="matrix(30 0 0 30 146.618 257.39)"/><path d="M-1 0h1l-.5.866zM.5.866 0 0h1z" style="fill:#214068" transform="matrix(30 0 0 30 146.618 257.39)"/><path d="M-.5-.866 0 0h-1z" style="fill:#224935" transform="matrix(30 0 0 30 146.618 257.39)"/><path d="M.5-.866 0 0l-.5-.866z" style="fill:#0d301f" transform="matrix(30 0 0 30 146.618 257.39)"/><path d="M0 0h1M0 0l.5.866M0 0l-.5.866M0 0h-1m1 0-.5-.866M0 0l.5-.866" style="fill:none;stroke:rgba(255,255,255,.2);stroke-width:.01" transform="matrix(30 0 0 30 146.618 257.39)"/><circle r=".04" style="fill:rgba(255,255,255,.2);stroke:rgba(255,255,255,.2);stroke-width:.02" transform="matrix(30 0 0 30 146.618 257.39)"/><path d="M.5.866 0 0h1z" style="fill:#000" transform="matrix(30 0 0 30 246.618 257.39)"/><path d="M-.5.866 0 0l.5.866z" style="fill:#000" transform="matrix(30 0 0 30 246.618 257.39)"/><path d="M-1 0h1l-.5.866zm.5-.866L0 0h-1z" style="fill:#000" transform="matrix(30 0 0 30 246.618 257.39)"/><path d="M.5-.866 0 0l-.5-.866zM1 0H0l.5-.866z" style="fill:#000" transform="matrix(30 0 0 30 246.618 257.39)"/><path d="M.5.866 0 0h1zm-1-1.732L0 0h-1z" style="fill:#214068" transform="matrix(30 0 0 30 246.618 257.39)"/><path d="M-.5.866 0 0l.5.866zm1-1.732L0 0l-.5-.866z" style="fill:#224935" transform="matrix(30 0 0 30 246.618 257.39)"/><path d="M0 0h1M0 0l.5.866M0 0l-.5.866M0 0h-1m1 0-.5-.866M0 0l.5-.866" style="fill:none;stroke:rgba(255,255,255,.2);stroke-width:.01" transform="matrix(30 0 0 30 246.618 257.39)"/><circle r=".04" style="fill:rgba(255,255,255,.2);stroke:rgba(255,255,255,.2);stroke-width:.02" transform="matrix(30 0 0 30 246.618 257.39)"/><path d="M0 .5h13v3L20 0l-7-3.5v3H0z" style="fill:#ccc;stroke:#ccc" transform="translate(287.118 257.39)"/><path d="M.5.866 0 0h1z" style="fill:#000" transform="matrix(30 0 0 30 348.236 257.39)"/><path d="M-.5.866 0 0l.5.866z" style="fill:#000" transform="matrix(30 0 0 30 348.236 257.39)"/><path d="M-1 0h1l-.5.866zm.5-.866L0 0h-1z" style="fill:#000" transform="matrix(30 0 0 30 348.236 257.39)"/><path d="M.5-.866 0 0l-.5-.866zM1 0H0l.5-.866z" style="fill:#000" transform="matrix(30 0 0 30 348.236 257.39)"/><path d="M-.5-.866 0 0h-1z" style="fill:#214068" transform="matrix(30 0 0 30 348.236 257.39)"/><path d="M.5-.866 0 0l-.5-.866zM-.5.866 0 0l.5.866z" style="fill:#214068" transform="matrix(30 0 0 30 348.236 257.39)"/><path d="M.5.866 0 0h1z" style="fill:#214068" transform="matrix(30 0 0 30 348.236 257.39)"/><path d="M0 0h1M0 0l.5.866M0 0l-.5.866M0 0h-1m1 0-.5-.866M0 0l.5-.866" style="fill:none;stroke:rgba(255,255,255,.2);stroke-width:.01" transform="matrix(30 0 0 30 348.236 257.39)"/><circle r=".04" style="fill:rgba(255,255,255,.2);stroke:rgba(255,255,255,.2);stroke-width:.02" transform="matrix(30 0 0 30 348.236 257.39)"/><path d="M.5.866 0 0h1z" style="fill:#000" transform="matrix(30 0 0 30 45 329.502)"/><path d="M-.5.866 0 0l.5.866z" style="fill:#000" transform="matrix(30 0 0 30 45 329.502)"/><path d="M-1 0h1l-.5.866zm.5-.866L0 0h-1z" style="fill:#000" transform="matrix(30 0 0 30 45 329.502)"/><path d="M.5-.866 0 0l-.5-.866zM1 0H0l.5-.866z" style="fill:#000" transform="matrix(30 0 0 30 45 329.502)"/><path d="M.5.866 0 0h1zM-1 0h1l-.5.866z" style="fill:#214068" transform="matrix(30 0 0 30 45 329.502)"/><path d="M-.5.866 0 0l.5.866zm1-1.732L0 0l-.5-.866z" style="fill:#224935" transform="matrix(30 0 0 30 45 329.502)"/><path d="M0 0h1M0 0l.5.866M0 0l-.5.866M0 0h-1m1 0-.5-.866M0 0l.5-.866" style="fill:none;stroke:rgba(255,255,255,.2);stroke-width:.01" transform="matrix(30 0 0 30 45 329.502)"/><circle r=".04" style="fill:rgba(255,255,255,.2);stroke:rgba(255,255,255,.2);stroke-width:.02" transform="matrix(30 0 0 30 45 329.502)"/><path d="M0 .5h13v3L20 0l-7-3.5v3H0z" style="fill:#ccc;stroke:#ccc" transform="translate(85.5 329.502)"/><path d="M.5.866 0 0h1z" style="fill:#000" transform="matrix(30 0 0 30 146.618 329.502)"/><path d="M-.5.866 0 0l.5.866z" style="fill:#000" transform="matrix(30 0 0 30 146.618 329.502)"/><path d="M-1 0h1l-.5.866zm.5-.866L0 0h-1z" style="fill:#000" transform="matrix(30 0 0 30 146.618 329.502)"/><path d="M.5-.866 0 0l-.5-.866zM1 0H0l.5-.866z" style="fill:#000" transform="matrix(30 0 0 30 146.618 329.502)"/><path d="M-1 0h1l-.5.866zM.5-.866 0 0l-.5-.866zM-.5.866 0 0l.5.866z" style="fill:#214068" transform="matrix(30 0 0 30 146.618 329.502)"/><path d="M.5.866 0 0h1z" style="fill:#214068" transform="matrix(30 0 0 30 146.618 329.502)"/><path d="M0 0h1M0 0l.5.866M0 0l-.5.866M0 0h-1m1 0-.5-.866M0 0l.5-.866" style="fill:none;stroke:rgba(255,255,255,.2);stroke-width:.01" transform="matrix(30 0 0 30 146.618 329.502)"/><circle r=".04" style="fill:rgba(255,255,255,.2);stroke:rgba(255,255,255,.2);stroke-width:.02" transform="matrix(30 0 0 30 146.618 329.502)"/><path d="M.5.866 0 0h1z" style="fill:#000" transform="matrix(30 0 0 30 246.618 329.502)"/><path d="M-.5.866 0 0l.5.866z" style="fill:#000" transform="matrix(30 0 0 30 246.618 329.502)"/><path d="M-1 0h1l-.5.866zm.5-.866L0 0h-1z" style="fill:#000" transform="matrix(30 0 0 30 246.618 329.502)"/><path d="M.5-.866 0 0l-.5-.866zM1 0H0l.5-.866z" style="fill:#000" transform="matrix(30 0 0 30 246.618 329.502)"/><path d="M.5.866 0 0h1zM-1 0h1l-.5.866z" style="fill:#214068" transform="matrix(30 0 0 30 246.618 329.502)"/><path d="M-.5.866 0 0l.5.866zm0-1.732L0 0h-1z" style="fill:#224935" transform="matrix(30 0 0 30 246.618 329.502)"/><path d="M0 0h1M0 0l.5.866M0 0l-.5.866M0 0h-1m1 0-.5-.866M0 0l.5-.866" style="fill:none;stroke:rgba(255,255,255,.2);stroke-width:.01" transform="matrix(30 0 0 30 246.618 329.502)"/><circle r=".04" style="fill:rgba(255,255,255,.2);stroke:rgba(255,255,255,.2);stroke-width:.02" transform="matrix(30 0 0 30 246.618 329.502)"/><path d="M0 .5h13v3L20 0l-7-3.5v3H0z" style="fill:#ccc;stroke:#ccc" transform="translate(287.118 329.502)"/><path d="M.5.866 0 0h1z" style="fill:#000" transform="matrix(30 0 0 30 348.236 329.502)"/><path d="M-.5.866 0 0l.5.866z" style="fill:#000" transform="matrix(30 0 0 30 348.236 329.502)"/><path d="M-1 0h1l-.5.866zm.5-.866L0 0h-1z" style="fill:#000" transform="matrix(30 0 0 30 348.236 329.502)"/><path d="M.5-.866 0 0l-.5-.866zM1 0H0l.5-.866z" style="fill:#000" transform="matrix(30 0 0 30 348.236 329.502)"/><path d="M-1 0h1l-.5.866zm.5-.866L0 0h-1zm0 1.732L0 0l.5.866z" style="fill:#214068" transform="matrix(30 0 0 30 348.236 329.502)"/><path d="M.5.866 0 0h1z" style="fill:#214068" transform="matrix(30 0 0 30 348.236 329.502)"/><path d="M0 0h1M0 0l.5.866M0 0l-.5.866M0 0h-1m1 0-.5-.866M0 0l.5-.866" style="fill:none;stroke:rgba(255,255,255,.2);stroke-width:.01" transform="matrix(30 0 0 30 348.236 329.502)"/><circle r=".04" style="fill:rgba(255,255,255,.2);stroke:rgba(255,255,255,.2);stroke-width:.02" transform="matrix(30 0 0 30 348.236 329.502)"/><path d="M.5.866 0 0h1z" style="fill:#000" transform="matrix(30 0 0 30 45 401.613)"/><path d="M-.5.866 0 0l.5.866z" style="fill:#000" transform="matrix(30 0 0 30 45 401.613)"/><path d="M-1 0h1l-.5.866zm.5-.866L0 0h-1z" style="fill:#000" transform="matrix(30 0 0 30 45 401.613)"/><path d="M.5-.866 0 0l-.5-.866zM1 0H0l.5-.866z" style="fill:#000" transform="matrix(30 0 0 30 45 401.613)"/><path d="M.5.866 0 0h1zm-1-1.732L0 0h-1z" style="fill:#214068" transform="matrix(30 0 0 30 45 401.613)"/><path d="M-.5.866 0 0l.5.866z" style="fill:#224935" transform="matrix(30 0 0 30 45 401.613)"/><path d="M-1 0h1l-.5.866z" style="fill:#0d301f" transform="matrix(30 0 0 30 45 401.613)"/><path d="M0 0h1M0 0l.5.866M0 0l-.5.866M0 0h-1m1 0-.5-.866M0 0l.5-.866" style="fill:none;stroke:rgba(255,255,255,.2);stroke-width:.01" transform="matrix(30 0 0 30 45 401.613)"/><circle r=".04" style="fill:rgba(255,255,255,.2);stroke:rgba(255,255,255,.2);stroke-width:.02" transform="matrix(30 0 0 30 45 401.613)"/><path d="M0 .5h13v3L20 0l-7-3.5v3H0z" style="fill:#ccc;stroke:#ccc" transform="translate(85.5 401.613)"/><path d="M.5.866 0 0h1z" style="fill:#000" transform="matrix(30 0 0 30 146.618 401.613)"/><path d="M-.5.866 0 0l.5.866z" style="fill:#000" transform="matrix(30 0 0 30 146.618 401.613)"/><path d="M-1 0h1l-.5.866zm.5-.866L0 0h-1z" style="fill:#000" transform="matrix(30 0 0 30 146.618 401.613)"/><path d="M.5-.866 0 0l-.5-.866zM1 0H0l.5-.866z" style="fill:#000" transform="matrix(30 0 0 30 146.618 401.613)"/><path d="M-.5.866 0 0l.5.866z" style="fill:#214068" transform="matrix(30 0 0 30 146.618 401.613)"/><path d="M-1 0h1l-.5.866z" style="fill:#09294c" transform="matrix(30 0 0 30 146.618 401.613)"/><path d="M.5-.866 0 0l-.5-.866zM1 0H0l.5-.866z" style="fill:#224935" transform="matrix(30 0 0 30 146.618 401.613)"/><path d="M-.5-.866 0 0h-1zM.5.866 0 0h1z" style="fill:#224935" transform="matrix(30 0 0 30 146.618 401.613)"/><path d="M0 0h1M0 0l.5.866M0 0l-.5.866M0 0h-1m1 0-.5-.866M0 0l.5-.866" style="fill:none;stroke:rgba(255,255,255,.2);stroke-width:.01" transform="matrix(30 0 0 30 146.618 401.613)"/><circle r=".04" style="fill:rgba(255,255,255,.2);stroke:rgba(255,255,255,.2);stroke-width:.02" transform="matrix(30 0 0 30 146.618 401.613)"/><path d="M.5.866 0 0h1z" style="fill:#000" transform="matrix(30 0 0 30 246.618 401.613)"/><path d="M-.5.866 0 0l.5.866z" style="fill:#000" transform="matrix(30 0 0 30 246.618 401.613)"/><path d="M-1 0h1l-.5.866zm.5-.866L0 0h-1z" style="fill:#000" transform="matrix(30 0 0 30 246.618 401.613)"/><path d="M.5-.866 0 0l-.5-.866zM1 0H0l.5-.866z" style="fill:#000" transform="matrix(30 0 0 30 246.618 401.613)"/><path d="M.5.866 0 0h1z" style="fill:#214068" transform="matrix(30 0 0 30 246.618 401.613)"/><path d="M-.5.866 0 0l.5.866z" style="fill:#09294c" transform="matrix(30 0 0 30 246.618 401.613)"/><path d="M-.5-.866 0 0h-1z" style="fill:#224935" transform="matrix(30 0 0 30 246.618 401.613)"/><path d="M.5-.866 0 0l-.5-.866z" style="fill:#0d301f" transform="matrix(30 0 0 30 246.618 401.613)"/><path d="M0 0h1M0 0l.5.866M0 0l-.5.866M0 0h-1m1 0-.5-.866M0 0l.5-.866" style="fill:none;stroke:rgba(255,255,255,.2);stroke-width:.01" transform="matrix(30 0 0 30 246.618 401.613)"/><circle r=".04" style="fill:rgba(255,255,255,.2);stroke:rgba(255,255,255,.2);stroke-width:.02" transform="matrix(30 0 0 30 246.618 401.613)"/><path d="M0 .5h13v3L20 0l-7-3.5v3H0z" style="fill:#ccc;stroke:#ccc" transform="translate(287.118 401.613)"/><path d="M.5.866 0 0h1z" style="fill:#000" transform="matrix(30 0 0 30 348.236 401.613)"/><path d="M-.5.866 0 0l.5.866z" style="fill:#000" transform="matrix(30 0 0 30 348.236 401.613)"/><path d="M-1 0h1l-.5.866zm.5-.866L0 0h-1z" style="fill:#000" transform="matrix(30 0 0 30 348.236 401.613)"/><path d="M.5-.866 0 0l-.5-.866zM1 0H0l.5-.866z" style="fill:#000" transform="matrix(30 0 0 30 348.236 401.613)"/><path d="M.5-.866 0 0l-.5-.866zM1 0H0l.5-.866zM.5.866 0 0h1z" style="fill:#214068" transform="matrix(30 0 0 30 348.236 401.613)"/><path d="M-.5-.866 0 0h-1zM-1 0h1l-.5.866zm.5.866L0 0l.5.866z" style="fill:#09294c" transform="matrix(30 0 0 30 348.236 401.613)"/><path d="M0 0h1M0 0l.5.866M0 0l-.5.866M0 0h-1m1 0-.5-.866M0 0l.5-.866" style="fill:none;stroke:rgba(255,255,255,.2);stroke-width:.01" transform="matrix(30 0 0 30 348.236 401.613)"/><circle r=".04" style="fill:rgba(255,255,255,.2);stroke:rgba(255,255,255,.2);stroke-width:.02" transform="matrix(30 0 0 30 348.236 401.613)"/><path d="M.5.866 0 0h1z" style="fill:#000" transform="matrix(30 0 0 30 45 473.725)"/><path d="M-.5.866 0 0l.5.866z" style="fill:#000" transform="matrix(30 0 0 30 45 473.725)"/><path d="M-1 0h1l-.5.866zm.5-.866L0 0h-1z" style="fill:#000" transform="matrix(30 0 0 30 45 473.725)"/><path d="M.5-.866 0 0l-.5-.866zM1 0H0l.5-.866z" style="fill:#000" transform="matrix(30 0 0 30 45 473.725)"/><path d="M.5.866 0 0h1z" style="fill:#214068" transform="matrix(30 0 0 30 45 473.725)"/><path d="M-.5.866 0 0l.5.866z" style="fill:#09294c" transform="matrix(30 0 0 30 45 473.725)"/><path d="M-1 0h1l-.5.866z" style="fill:#224935" transform="matrix(30 0 0 30 45 473.725)"/><path d="M1 0H0l.5-.866z" style="fill:#0d301f" transform="matrix(30 0 0 30 45 473.725)"/><path d="M0 0h1M0 0l.5.866M0 0l-.5.866M0 0h-1m1 0-.5-.866M0 0l.5-.866" style="fill:none;stroke:rgba(255,255,255,.2);stroke-width:.01" transform="matrix(30 0 0 30 45 473.725)"/><circle r=".04" style="fill:rgba(255,255,255,.2);stroke:rgba(255,255,255,.2);stroke-width:.02" transform="matrix(30 0 0 30 45 473.725)"/><path d="M0 .5h13v3L20 0l-7-3.5v3H0z" style="fill:#ccc;stroke:#ccc" transform="translate(85.5 473.725)"/><path d="M.5.866 0 0h1z" style="fill:#000" transform="matrix(30 0 0 30 146.618 473.725)"/><path d="M-.5.866 0 0l.5.866z" style="fill:#000" transform="matrix(30 0 0 30 146.618 473.725)"/><path d="M-1 0h1l-.5.866zm.5-.866L0 0h-1z" style="fill:#000" transform="matrix(30 0 0 30 146.618 473.725)"/><path d="M.5-.866 0 0l-.5-.866zM1 0H0l.5-.866z" style="fill:#000" transform="matrix(30 0 0 30 146.618 473.725)"/><path d="M-1 0h1l-.5.866zm.5.866L0 0l.5.866z" style="fill:#214068" transform="matrix(30 0 0 30 146.618 473.725)"/><path d="M1 0H0l.5-.866zM.5.866 0 0h1z" style="fill:#09294c" transform="matrix(30 0 0 30 146.618 473.725)"/><path d="M0 0h1M0 0l.5.866M0 0l-.5.866M0 0h-1m1 0-.5-.866M0 0l.5-.866" style="fill:none;stroke:rgba(255,255,255,.2);stroke-width:.01" transform="matrix(30 0 0 30 146.618 473.725)"/><circle r=".04" style="fill:rgba(255,255,255,.2);stroke:rgba(255,255,255,.2);stroke-width:.02" transform="matrix(30 0 0 30 146.618 473.725)"/><path d="M.5.866 0 0h1z" style="fill:#000" transform="matrix(30 0 0 30 246.618 473.725)"/><path d="M-.5.866 0 0l.5.866z" style="fill:#000" transform="matrix(30 0 0 30 246.618 473.725)"/><path d="M-1 0h1l-.5.866zm.5-.866L0 0h-1z" style="fill:#000" transform="matrix(30 0 0 30 246.618 473.725)"/><path d="M.5-.866 0 0l-.5-.866zM1 0H0l.5-.866z" style="fill:#000" transform="matrix(30 0 0 30 246.618 473.725)"/><path d="M.5.866 0 0h1z" style="fill:#214068" transform="matrix(30 0 0 30 246.618 473.725)"/><path d="M-.5.866 0 0l.5.866z" style="fill:#09294c" transform="matrix(30 0 0 30 246.618 473.725)"/><path d="M-1 0h1l-.5.866z" style="fill:#224935" transform="matrix(30 0 0 30 246.618 473.725)"/><path d="M.5-.866 0 0l-.5-.866z" style="fill:#0d301f" transform="matrix(30 0 0 30 246.618 473.725)"/><path d="M0 0h1M0 0l.5.866M0 0l-.5.866M0 0h-1m1 0-.5-.866M0 0l.5-.866" style="fill:none;stroke:rgba(255,255,255,.2);stroke-width:.01" transform="matrix(30 0 0 30 246.618 473.725)"/><circle r=".04" style="fill:rgba(255,255,255,.2);stroke:rgba(255,255,255,.2);stroke-width:.02" transform="matrix(30 0 0 30 246.618 473.725)"/><path d="M0 .5h13v3L20 0l-7-3.5v3H0z" style="fill:#ccc;stroke:#ccc" transform="translate(287.118 473.725)"/><path d="M.5.866 0 0h1z" style="fill:#000" transform="matrix(30 0 0 30 348.236 473.725)"/><path d="M-.5.866 0 0l.5.866z" style="fill:#000" transform="matrix(30 0 0 30 348.236 473.725)"/><path d="M-1 0h1l-.5.866zm.5-.866L0 0h-1z" style="fill:#000" transform="matrix(30 0 0 30 348.236 473.725)"/><path d="M.5-.866 0 0l-.5-.866zM1 0H0l.5-.866z" style="fill:#000" transform="matrix(30 0 0 30 348.236 473.725)"/><path d="M.5-.866 0 0l-.5-.866zM1 0H0l.5-.866zM.5.866 0 0h1z" style="fill:#214068" transform="matrix(30 0 0 30 348.236 473.725)"/><path d="M-1 0h1l-.5.866zm.5.866L0 0l.5.866z" style="fill:#09294c" transform="matrix(30 0 0 30 348.236 473.725)"/><path d="M0 0h1M0 0l.5.866M0 0l-.5.866M0 0h-1m1 0-.5-.866M0 0l.5-.866" style="fill:none;stroke:rgba(255,255,255,.2);stroke-width:.01" transform="matrix(30 0 0 30 348.236 473.725)"/><circle r=".04" style="fill:rgba(255,255,255,.2);stroke:rgba(255,255,255,.2);stroke-width:.02" transform="matrix(30 0 0 30 348.236 473.725)"/><path d="M.5.866 0 0h1z" style="fill:#000" transform="matrix(30 0 0 30 45 545.836)"/><path d="M-.5.866 0 0l.5.866z" style="fill:#000" transform="matrix(30 0 0 30 45 545.836)"/><path d="M-1 0h1l-.5.866zm.5-.866L0 0h-1z" style="fill:#000" transform="matrix(30 0 0 30 45 545.836)"/><path d="M.5-.866 0 0l-.5-.866zM1 0H0l.5-.866z" style="fill:#000" transform="matrix(30 0 0 30 45 545.836)"/><path d="M.5.866 0 0h1z" style="fill:#214068" transform="matrix(30 0 0 30 45 545.836)"/><path d="M-.5.866 0 0l.5.866z" style="fill:#09294c" transform="matrix(30 0 0 30 45 545.836)"/><path d="M-1 0h1l-.5.866z" style="fill:#224935" transform="matrix(30 0 0 30 45 545.836)"/><path d="M-.5-.866 0 0h-1z" style="fill:#0d301f" transform="matrix(30 0 0 30 45 545.836)"/><path d="M0 0h1M0 0l.5.866M0 0l-.5.866M0 0h-1m1 0-.5-.866M0 0l.5-.866" style="fill:none;stroke:rgba(255,255,255,.2);stroke-width:.01" transform="matrix(30 0 0 30 45 545.836)"/><circle r=".04" style="fill:rgba(255,255,255,.2);stroke:rgba(255,255,255,.2);stroke-width:.02" transform="matrix(30 0 0 30 45 545.836)"/><path d="M0 .5h13v3L20 0l-7-3.5v3H0z" style="fill:#ccc;stroke:#ccc" transform="translate(85.5 545.836)"/><path d="M.5.866 0 0h1z" style="fill:#000" transform="matrix(30 0 0 30 146.618 545.836)"/><path d="M-.5.866 0 0l.5.866z" style="fill:#000" transform="matrix(30 0 0 30 146.618 545.836)"/><path d="M-1 0h1l-.5.866zm.5-.866L0 0h-1z" style="fill:#000" transform="matrix(30 0 0 30 146.618 545.836)"/><path d="M.5-.866 0 0l-.5-.866zM1 0H0l.5-.866z" style="fill:#000" transform="matrix(30 0 0 30 146.618 545.836)"/><path d="M.5-.866 0 0l-.5-.866zM1 0H0l.5-.866z" style="fill:#214068" transform="matrix(30 0 0 30 146.618 545.836)"/><path d="M-.5-.866 0 0h-1zM.5.866 0 0h1z" style="fill:#214068" transform="matrix(30 0 0 30 146.618 545.836)"/><path d="M-1 0h1l-.5.866zm.5.866L0 0l.5.866z" style="fill:#09294c" transform="matrix(30 0 0 30 146.618 545.836)"/><path d="M0 0h1M0 0l.5.866M0 0l-.5.866M0 0h-1m1 0-.5-.866M0 0l.5-.866" style="fill:none;stroke:rgba(255,255,255,.2);stroke-width:.01" transform="matrix(30 0 0 30 146.618 545.836)"/><circle r=".04" style="fill:rgba(255,255,255,.2);stroke:rgba(255,255,255,.2);stroke-width:.02" transform="matrix(30 0 0 30 146.618 545.836)"/><path d="M.5.866 0 0h1z" style="fill:#000" transform="matrix(30 0 0 30 246.618 545.836)"/><path d="M-.5.866 0 0l.5.866z" style="fill:#000" transform="matrix(30 0 0 30 246.618 545.836)"/><path d="M-1 0h1l-.5.866zm.5-.866L0 0h-1z" style="fill:#000" transform="matrix(30 0 0 30 246.618 545.836)"/><path d="M.5-.866 0 0l-.5-.866zM1 0H0l.5-.866z" style="fill:#000" transform="matrix(30 0 0 30 246.618 545.836)"/><path d="M.5.866 0 0h1zm-1-1.732L0 0h-1z" style="fill:#214068" transform="matrix(30 0 0 30 246.618 545.836)"/><path d="M-.5.866 0 0l.5.866z" style="fill:#224935" transform="matrix(30 0 0 30 246.618 545.836)"/><path d="M.5-.866 0 0l-.5-.866z" style="fill:#0d301f" transform="matrix(30 0 0 30 246.618 545.836)"/><path d="M-1 0h1l-.5.866z" style="fill:#662a2c" transform="matrix(30 0 0 30 246.618 545.836)"/><path d="M1 0H0l.5-.866z" style="fill:#4b1016" transform="matrix(30 0 0 30 246.618 545.836)"/><path d="M0 0h1M0 0l.5.866M0 0l-.5.866M0 0h-1m1 0-.5-.866M0 0l.5-.866" style="fill:none;stroke:rgba(255,255,255,.2);stroke-width:.01" transform="matrix(30 0 0 30 246.618 545.836)"/><circle r=".04" style="fill:rgba(255,255,255,.2);stroke:rgba(255,255,255,.2);stroke-width:.02" transform="matrix(30 0 0 30 246.618 545.836)"/><path d="M0 .5h13v3L20 0l-7-3.5v3H0z" style="fill:#ccc;stroke:#ccc" transform="translate(287.118 545.836)"/><path d="M.5.866 0 0h1z" style="fill:#000" transform="matrix(30 0 0 30 348.236 545.836)"/><path d="M-.5.866 0 0l.5.866z" style="fill:#000" transform="matrix(30 0 0 30 348.236 545.836)"/><path d="M-1 0h1l-.5.866zm.5-.866L0 0h-1z" style="fill:#000" transform="matrix(30 0 0 30 348.236 545.836)"/><path d="M.5-.866 0 0l-.5-.866zM1 0H0l.5-.866z" style="fill:#000" transform="matrix(30 0 0 30 348.236 545.836)"/><path d="M.5.866 0 0h1zm-1-1.732L0 0h-1z" style="fill:#214068" transform="matrix(30 0 0 30 348.236 545.836)"/><path d="M.5-.866 0 0l-.5-.866zM1 0H0l.5-.866z" style="fill:#224935" transform="matrix(30 0 0 30 348.236 545.836)"/><path d="M-1 0h1l-.5.866zm.5.866L0 0l.5.866z" style="fill:#0d301f" transform="matrix(30 0 0 30 348.236 545.836)"/><path d="M0 0h1M0 0l.5.866M0 0l-.5.866M0 0h-1m1 0-.5-.866M0 0l.5-.866" style="fill:none;stroke:rgba(255,255,255,.2);stroke-width:.01" transform="matrix(30 0 0 30 348.236 545.836)"/><circle r=".04" style="fill:rgba(255,255,255,.2);stroke:rgba(255,255,255,.2);stroke-width:.02" transform="matrix(30 0 0 30 348.236 545.836)"/></svg>