<svg xmlns="http://www.w3.org/2000/svg" focusable="false" aria-hidden="true" width="191" height="483" style="pointer-events: none; position: absolute; left: 0px; top: 0px; transform-origin: left top; z-index: 20;"><defs/><g><g><g><g><rect x="0" y="0" width="181" height="473" rx="0" ry="0" style="fill: #333; stroke: none;stroke-miterlimit: 10;"/></g><g transform="translate(10.00000000000000000000,10.00000000000000000000)"><g transform="translate(5.00000000000000000000,5.00000000000000000000)"><g><g transform="translate(0.00000000000000000000,28.57804803801085213877)"><g><g transform="translate(24.35867761909229756156,0.00000000000000000000)"><g transform="scale(30.00000000000000000000)"><g><path d="M 0.30901699437494745126 0.95105651629515353118 L 0.00000000000000000000 0.00000000000000000000 L 1.00000000000000000000 0.00000000000000000000 L 0.30901699437494745126 0.95105651629515353118 Z " style="fill: #000; stroke: none;stroke-miterlimit: 10;"/></g><g><path d="M -0.80901699437494734024 0.58778525229247324813 L 0.00000000000000000000 0.00000000000000000000 L 0.30901699437494745126 0.95105651629515353118 L -0.80901699437494734024 0.58778525229247324813 Z " style="fill: #000; stroke: none;stroke-miterlimit: 10;"/></g><g><path d="M -0.80901699437494745126 -0.58778525229247302608 L 0.00000000000000000000 0.00000000000000000000 L -0.80901699437494734024 0.58778525229247324813 L -0.80901699437494745126 -0.58778525229247302608 Z " style="fill: #000; stroke: none;stroke-miterlimit: 10;"/></g><g><path d="M 0.30901699437494722922 -0.95105651629515364220 L 0.00000000000000000000 0.00000000000000000000 L -0.80901699437494745126 -0.58778525229247302608 L 0.30901699437494722922 -0.95105651629515364220 Z " style="fill: #000; stroke: none;stroke-miterlimit: 10;"/></g><g><path d="M 1.00000000000000000000 0.00000000000000000000 L 0.00000000000000000000 0.00000000000000000000 L 0.30901699437494722922 -0.95105651629515364220 L 1.00000000000000000000 0.00000000000000000000 Z " style="fill: #000; stroke: none;stroke-miterlimit: 10;"/></g><g><path d="M 0.30901699437494745126 0.95105651629515353118 L 0.00000000000000000000 0.00000000000000000000 L 1.00000000000000000000 0.00000000000000000000 L 0.30901699437494745126 0.95105651629515353118 Z " style="fill: #214068; stroke: none;stroke-miterlimit: 10;"/></g><g><path d="M -0.80901699437494745126 -0.58778525229247302608 L 0.00000000000000000000 0.00000000000000000000 L -0.80901699437494734024 0.58778525229247324813 L -0.80901699437494745126 -0.58778525229247302608 Z " style="fill: #214068; stroke: none;stroke-miterlimit: 10;"/></g><g><path d="M 0.30901699437494722922 -0.95105651629515364220 L 0.00000000000000000000 0.00000000000000000000 L -0.80901699437494745126 -0.58778525229247302608 L 0.30901699437494722922 -0.95105651629515364220 Z " style="fill: #09294c; stroke: none;stroke-miterlimit: 10;"/></g><g><line x1="0" y1="0" x2="1" y2="0" style="fill: none; stroke: rgba(255,255,255,0.2);stroke-width: 0.01;stroke-miterlimit: 10;"/></g><g><line x1="0" y1="0" x2="0.30901699437494745" y2="0.9510565162951535" style="fill: none; stroke: rgba(255,255,255,0.2);stroke-width: 0.01;stroke-miterlimit: 10;"/></g><g><line x1="0" y1="0" x2="-0.8090169943749473" y2="0.5877852522924732" style="fill: none; stroke: rgba(255,255,255,0.2);stroke-width: 0.01;stroke-miterlimit: 10;"/></g><g><line x1="0" y1="0" x2="-0.8090169943749475" y2="-0.587785252292473" style="fill: none; stroke: rgba(255,255,255,0.2);stroke-width: 0.01;stroke-miterlimit: 10;"/></g><g><line x1="0" y1="0" x2="0.30901699437494723" y2="-0.9510565162951536" style="fill: none; stroke: rgba(255,255,255,0.2);stroke-width: 0.01;stroke-miterlimit: 10;"/></g><g><circle r="0.04" style="fill: rgba(255,255,255,0.2); stroke: rgba(255,255,255,0.2);stroke-width: 0.02;stroke-miterlimit: 10;"/></g></g></g><g transform="translate(64.85867761909230466699,0.00000000000000000000)"><path d="M 0.00000000000000003062 0.50000000000000000000 L 13.00000000000000000000 0.50000000000000000000 L 13.00000000000000000000 3.50000000000000000000 L 20.00000000000000000000 0.00000000000000000000 L 13.00000000000000000000 -3.50000000000000000000 L 13.00000000000000000000 -0.50000000000000000000 L -0.00000000000000003062 -0.50000000000000000000 L 0.00000000000000003062 0.50000000000000000000 Z " style="fill: #ccc; stroke: #ccc;stroke-miterlimit: 10;"/></g><g transform="translate(120.33538922693449535473,0.00000000000000000000)"><g transform="scale(30.00000000000000000000)"><g><path d="M 0.30901699437494745126 0.95105651629515353118 L 0.00000000000000000000 0.00000000000000000000 L 1.00000000000000000000 0.00000000000000000000 L 0.30901699437494745126 0.95105651629515353118 Z " style="fill: #000; stroke: none;stroke-miterlimit: 10;"/></g><g><path d="M -0.80901699437494734024 0.58778525229247324813 L 0.00000000000000000000 0.00000000000000000000 L 0.30901699437494745126 0.95105651629515353118 L -0.80901699437494734024 0.58778525229247324813 Z " style="fill: #000; stroke: none;stroke-miterlimit: 10;"/></g><g><path d="M -0.80901699437494745126 -0.58778525229247302608 L 0.00000000000000000000 0.00000000000000000000 L -0.80901699437494734024 0.58778525229247324813 L -0.80901699437494745126 -0.58778525229247302608 Z " style="fill: #000; stroke: none;stroke-miterlimit: 10;"/></g><g><path d="M 0.30901699437494722922 -0.95105651629515364220 L 0.00000000000000000000 0.00000000000000000000 L -0.80901699437494745126 -0.58778525229247302608 L 0.30901699437494722922 -0.95105651629515364220 Z " style="fill: #000; stroke: none;stroke-miterlimit: 10;"/></g><g><path d="M 1.00000000000000000000 0.00000000000000000000 L 0.00000000000000000000 0.00000000000000000000 L 0.30901699437494722922 -0.95105651629515364220 L 1.00000000000000000000 0.00000000000000000000 Z " style="fill: #000; stroke: none;stroke-miterlimit: 10;"/></g><g><path d="M -0.80901699437494745126 -0.58778525229247302608 L 0.00000000000000000000 0.00000000000000000000 L -0.80901699437494734024 0.58778525229247324813 L -0.80901699437494745126 -0.58778525229247302608 Z " style="fill: #214068; stroke: none;stroke-miterlimit: 10;"/></g><g><path d="M -0.80901699437494734024 0.58778525229247324813 L 0.00000000000000000000 0.00000000000000000000 L 0.30901699437494745126 0.95105651629515353118 L -0.80901699437494734024 0.58778525229247324813 Z " style="fill: #214068; stroke: none;stroke-miterlimit: 10;"/></g><g><path d="M 0.30901699437494745126 0.95105651629515353118 L 0.00000000000000000000 0.00000000000000000000 L 1.00000000000000000000 0.00000000000000000000 L 0.30901699437494745126 0.95105651629515353118 Z " style="fill: #214068; stroke: none;stroke-miterlimit: 10;"/></g><g><path d="M 0.30901699437494722922 -0.95105651629515364220 L 0.00000000000000000000 0.00000000000000000000 L -0.80901699437494745126 -0.58778525229247302608 L 0.30901699437494722922 -0.95105651629515364220 Z " style="fill: #09294c; stroke: none;stroke-miterlimit: 10;"/></g><g><line x1="0" y1="0" x2="1" y2="0" style="fill: none; stroke: rgba(255,255,255,0.2);stroke-width: 0.01;stroke-miterlimit: 10;"/></g><g><line x1="0" y1="0" x2="0.30901699437494745" y2="0.9510565162951535" style="fill: none; stroke: rgba(255,255,255,0.2);stroke-width: 0.01;stroke-miterlimit: 10;"/></g><g><line x1="0" y1="0" x2="-0.8090169943749473" y2="0.5877852522924732" style="fill: none; stroke: rgba(255,255,255,0.2);stroke-width: 0.01;stroke-miterlimit: 10;"/></g><g><line x1="0" y1="0" x2="-0.8090169943749475" y2="-0.587785252292473" style="fill: none; stroke: rgba(255,255,255,0.2);stroke-width: 0.01;stroke-miterlimit: 10;"/></g><g><line x1="0" y1="0" x2="0.30901699437494723" y2="-0.9510565162951536" style="fill: none; stroke: rgba(255,255,255,0.2);stroke-width: 0.01;stroke-miterlimit: 10;"/></g><g><circle r="0.04" style="fill: rgba(255,255,255,0.2); stroke: rgba(255,255,255,0.2);stroke-width: 0.02;stroke-miterlimit: 10;"/></g></g></g></g></g><g transform="translate(0.00000000000000000000,105.73414411403254575816)"><g><g transform="translate(24.35867761909229756156,0.00000000000000000000)"><g transform="scale(30.00000000000000000000)"><g><path d="M 0.30901699437494745126 0.95105651629515353118 L 0.00000000000000000000 0.00000000000000000000 L 1.00000000000000000000 0.00000000000000000000 L 0.30901699437494745126 0.95105651629515353118 Z " style="fill: #000; stroke: none;stroke-miterlimit: 10;"/></g><g><path d="M -0.80901699437494734024 0.58778525229247324813 L 0.00000000000000000000 0.00000000000000000000 L 0.30901699437494745126 0.95105651629515353118 L -0.80901699437494734024 0.58778525229247324813 Z " style="fill: #000; stroke: none;stroke-miterlimit: 10;"/></g><g><path d="M -0.80901699437494745126 -0.58778525229247302608 L 0.00000000000000000000 0.00000000000000000000 L -0.80901699437494734024 0.58778525229247324813 L -0.80901699437494745126 -0.58778525229247302608 Z " style="fill: #000; stroke: none;stroke-miterlimit: 10;"/></g><g><path d="M 0.30901699437494722922 -0.95105651629515364220 L 0.00000000000000000000 0.00000000000000000000 L -0.80901699437494745126 -0.58778525229247302608 L 0.30901699437494722922 -0.95105651629515364220 Z " style="fill: #000; stroke: none;stroke-miterlimit: 10;"/></g><g><path d="M 1.00000000000000000000 0.00000000000000000000 L 0.00000000000000000000 0.00000000000000000000 L 0.30901699437494722922 -0.95105651629515364220 L 1.00000000000000000000 0.00000000000000000000 Z " style="fill: #000; stroke: none;stroke-miterlimit: 10;"/></g><g><path d="M 0.30901699437494745126 0.95105651629515353118 L 0.00000000000000000000 0.00000000000000000000 L 1.00000000000000000000 0.00000000000000000000 L 0.30901699437494745126 0.95105651629515353118 Z " style="fill: #214068; stroke: none;stroke-miterlimit: 10;"/></g><g><path d="M -0.80901699437494745126 -0.58778525229247302608 L 0.00000000000000000000 0.00000000000000000000 L -0.80901699437494734024 0.58778525229247324813 L -0.80901699437494745126 -0.58778525229247302608 Z " style="fill: #214068; stroke: none;stroke-miterlimit: 10;"/></g><g><path d="M -0.80901699437494734024 0.58778525229247324813 L 0.00000000000000000000 0.00000000000000000000 L 0.30901699437494745126 0.95105651629515353118 L -0.80901699437494734024 0.58778525229247324813 Z " style="fill: #09294c; stroke: none;stroke-miterlimit: 10;"/></g><g><line x1="0" y1="0" x2="1" y2="0" style="fill: none; stroke: rgba(255,255,255,0.2);stroke-width: 0.01;stroke-miterlimit: 10;"/></g><g><line x1="0" y1="0" x2="0.30901699437494745" y2="0.9510565162951535" style="fill: none; stroke: rgba(255,255,255,0.2);stroke-width: 0.01;stroke-miterlimit: 10;"/></g><g><line x1="0" y1="0" x2="-0.8090169943749473" y2="0.5877852522924732" style="fill: none; stroke: rgba(255,255,255,0.2);stroke-width: 0.01;stroke-miterlimit: 10;"/></g><g><line x1="0" y1="0" x2="-0.8090169943749475" y2="-0.587785252292473" style="fill: none; stroke: rgba(255,255,255,0.2);stroke-width: 0.01;stroke-miterlimit: 10;"/></g><g><line x1="0" y1="0" x2="0.30901699437494723" y2="-0.9510565162951536" style="fill: none; stroke: rgba(255,255,255,0.2);stroke-width: 0.01;stroke-miterlimit: 10;"/></g><g><circle r="0.04" style="fill: rgba(255,255,255,0.2); stroke: rgba(255,255,255,0.2);stroke-width: 0.02;stroke-miterlimit: 10;"/></g></g></g><g transform="translate(64.85867761909230466699,0.00000000000000000000)"><path d="M 0.00000000000000003062 0.50000000000000000000 L 13.00000000000000000000 0.50000000000000000000 L 13.00000000000000000000 3.50000000000000000000 L 20.00000000000000000000 0.00000000000000000000 L 13.00000000000000000000 -3.50000000000000000000 L 13.00000000000000000000 -0.50000000000000000000 L -0.00000000000000003062 -0.50000000000000000000 L 0.00000000000000003062 0.50000000000000000000 Z " style="fill: #ccc; stroke: #ccc;stroke-miterlimit: 10;"/></g><g transform="translate(120.33538922693449535473,0.00000000000000000000)"><g transform="scale(30.00000000000000000000)"><g><path d="M 0.30901699437494745126 0.95105651629515353118 L 0.00000000000000000000 0.00000000000000000000 L 1.00000000000000000000 0.00000000000000000000 L 0.30901699437494745126 0.95105651629515353118 Z " style="fill: #000; stroke: none;stroke-miterlimit: 10;"/></g><g><path d="M -0.80901699437494734024 0.58778525229247324813 L 0.00000000000000000000 0.00000000000000000000 L 0.30901699437494745126 0.95105651629515353118 L -0.80901699437494734024 0.58778525229247324813 Z " style="fill: #000; stroke: none;stroke-miterlimit: 10;"/></g><g><path d="M -0.80901699437494745126 -0.58778525229247302608 L 0.00000000000000000000 0.00000000000000000000 L -0.80901699437494734024 0.58778525229247324813 L -0.80901699437494745126 -0.58778525229247302608 Z " style="fill: #000; stroke: none;stroke-miterlimit: 10;"/></g><g><path d="M 0.30901699437494722922 -0.95105651629515364220 L 0.00000000000000000000 0.00000000000000000000 L -0.80901699437494745126 -0.58778525229247302608 L 0.30901699437494722922 -0.95105651629515364220 Z " style="fill: #000; stroke: none;stroke-miterlimit: 10;"/></g><g><path d="M 1.00000000000000000000 0.00000000000000000000 L 0.00000000000000000000 0.00000000000000000000 L 0.30901699437494722922 -0.95105651629515364220 L 1.00000000000000000000 0.00000000000000000000 Z " style="fill: #000; stroke: none;stroke-miterlimit: 10;"/></g><g><path d="M 0.30901699437494722922 -0.95105651629515364220 L 0.00000000000000000000 0.00000000000000000000 L -0.80901699437494745126 -0.58778525229247302608 L 0.30901699437494722922 -0.95105651629515364220 Z " style="fill: #214068; stroke: none;stroke-miterlimit: 10;"/></g><g><path d="M 1.00000000000000000000 0.00000000000000000000 L 0.00000000000000000000 0.00000000000000000000 L 0.30901699437494722922 -0.95105651629515364220 L 1.00000000000000000000 0.00000000000000000000 Z " style="fill: #214068; stroke: none;stroke-miterlimit: 10;"/></g><g><path d="M -0.80901699437494745126 -0.58778525229247302608 L 0.00000000000000000000 0.00000000000000000000 L -0.80901699437494734024 0.58778525229247324813 L -0.80901699437494745126 -0.58778525229247302608 Z " style="fill: #214068; stroke: none;stroke-miterlimit: 10;"/></g><g><path d="M 0.30901699437494745126 0.95105651629515353118 L 0.00000000000000000000 0.00000000000000000000 L 1.00000000000000000000 0.00000000000000000000 L 0.30901699437494745126 0.95105651629515353118 Z " style="fill: #214068; stroke: none;stroke-miterlimit: 10;"/></g><g><path d="M -0.80901699437494734024 0.58778525229247324813 L 0.00000000000000000000 0.00000000000000000000 L 0.30901699437494745126 0.95105651629515353118 L -0.80901699437494734024 0.58778525229247324813 Z " style="fill: #09294c; stroke: none;stroke-miterlimit: 10;"/></g><g><line x1="0" y1="0" x2="1" y2="0" style="fill: none; stroke: rgba(255,255,255,0.2);stroke-width: 0.01;stroke-miterlimit: 10;"/></g><g><line x1="0" y1="0" x2="0.30901699437494745" y2="0.9510565162951535" style="fill: none; stroke: rgba(255,255,255,0.2);stroke-width: 0.01;stroke-miterlimit: 10;"/></g><g><line x1="0" y1="0" x2="-0.8090169943749473" y2="0.5877852522924732" style="fill: none; stroke: rgba(255,255,255,0.2);stroke-width: 0.01;stroke-miterlimit: 10;"/></g><g><line x1="0" y1="0" x2="-0.8090169943749475" y2="-0.587785252292473" style="fill: none; stroke: rgba(255,255,255,0.2);stroke-width: 0.01;stroke-miterlimit: 10;"/></g><g><line x1="0" y1="0" x2="0.30901699437494723" y2="-0.9510565162951536" style="fill: none; stroke: rgba(255,255,255,0.2);stroke-width: 0.01;stroke-miterlimit: 10;"/></g><g><circle r="0.04" style="fill: rgba(255,255,255,0.2); stroke: rgba(255,255,255,0.2);stroke-width: 0.02;stroke-miterlimit: 10;"/></g></g></g></g></g><g transform="translate(0.00000000000000000000,182.89024019005424293027)"><g><g transform="translate(24.35867761909229756156,0.00000000000000000000)"><g transform="scale(30.00000000000000000000)"><g><path d="M 0.30901699437494745126 0.95105651629515353118 L 0.00000000000000000000 0.00000000000000000000 L 1.00000000000000000000 0.00000000000000000000 L 0.30901699437494745126 0.95105651629515353118 Z " style="fill: #000; stroke: none;stroke-miterlimit: 10;"/></g><g><path d="M -0.80901699437494734024 0.58778525229247324813 L 0.00000000000000000000 0.00000000000000000000 L 0.30901699437494745126 0.95105651629515353118 L -0.80901699437494734024 0.58778525229247324813 Z " style="fill: #000; stroke: none;stroke-miterlimit: 10;"/></g><g><path d="M -0.80901699437494745126 -0.58778525229247302608 L 0.00000000000000000000 0.00000000000000000000 L -0.80901699437494734024 0.58778525229247324813 L -0.80901699437494745126 -0.58778525229247302608 Z " style="fill: #000; stroke: none;stroke-miterlimit: 10;"/></g><g><path d="M 0.30901699437494722922 -0.95105651629515364220 L 0.00000000000000000000 0.00000000000000000000 L -0.80901699437494745126 -0.58778525229247302608 L 0.30901699437494722922 -0.95105651629515364220 Z " style="fill: #000; stroke: none;stroke-miterlimit: 10;"/></g><g><path d="M 1.00000000000000000000 0.00000000000000000000 L 0.00000000000000000000 0.00000000000000000000 L 0.30901699437494722922 -0.95105651629515364220 L 1.00000000000000000000 0.00000000000000000000 Z " style="fill: #000; stroke: none;stroke-miterlimit: 10;"/></g><g><path d="M 0.30901699437494745126 0.95105651629515353118 L 0.00000000000000000000 0.00000000000000000000 L 1.00000000000000000000 0.00000000000000000000 L 0.30901699437494745126 0.95105651629515353118 Z " style="fill: #214068; stroke: none;stroke-miterlimit: 10;"/></g><g><path d="M -0.80901699437494745126 -0.58778525229247302608 L 0.00000000000000000000 0.00000000000000000000 L -0.80901699437494734024 0.58778525229247324813 L -0.80901699437494745126 -0.58778525229247302608 Z " style="fill: #214068; stroke: none;stroke-miterlimit: 10;"/></g><g><path d="M 0.30901699437494722922 -0.95105651629515364220 L 0.00000000000000000000 0.00000000000000000000 L -0.80901699437494745126 -0.58778525229247302608 L 0.30901699437494722922 -0.95105651629515364220 Z " style="fill: #224935; stroke: none;stroke-miterlimit: 10;"/></g><g><path d="M 1.00000000000000000000 0.00000000000000000000 L 0.00000000000000000000 0.00000000000000000000 L 0.30901699437494722922 -0.95105651629515364220 L 1.00000000000000000000 0.00000000000000000000 Z " style="fill: #0d301f; stroke: none;stroke-miterlimit: 10;"/></g><g><line x1="0" y1="0" x2="1" y2="0" style="fill: none; stroke: rgba(255,255,255,0.2);stroke-width: 0.01;stroke-miterlimit: 10;"/></g><g><line x1="0" y1="0" x2="0.30901699437494745" y2="0.9510565162951535" style="fill: none; stroke: rgba(255,255,255,0.2);stroke-width: 0.01;stroke-miterlimit: 10;"/></g><g><line x1="0" y1="0" x2="-0.8090169943749473" y2="0.5877852522924732" style="fill: none; stroke: rgba(255,255,255,0.2);stroke-width: 0.01;stroke-miterlimit: 10;"/></g><g><line x1="0" y1="0" x2="-0.8090169943749475" y2="-0.587785252292473" style="fill: none; stroke: rgba(255,255,255,0.2);stroke-width: 0.01;stroke-miterlimit: 10;"/></g><g><line x1="0" y1="0" x2="0.30901699437494723" y2="-0.9510565162951536" style="fill: none; stroke: rgba(255,255,255,0.2);stroke-width: 0.01;stroke-miterlimit: 10;"/></g><g><circle r="0.04" style="fill: rgba(255,255,255,0.2); stroke: rgba(255,255,255,0.2);stroke-width: 0.02;stroke-miterlimit: 10;"/></g></g></g><g transform="translate(64.85867761909230466699,0.00000000000000000000)"><path d="M 0.00000000000000003062 0.50000000000000000000 L 13.00000000000000000000 0.50000000000000000000 L 13.00000000000000000000 3.50000000000000000000 L 20.00000000000000000000 0.00000000000000000000 L 13.00000000000000000000 -3.50000000000000000000 L 13.00000000000000000000 -0.50000000000000000000 L -0.00000000000000003062 -0.50000000000000000000 L 0.00000000000000003062 0.50000000000000000000 Z " style="fill: #ccc; stroke: #ccc;stroke-miterlimit: 10;"/></g><g transform="translate(120.33538922693449535473,0.00000000000000000000)"><g transform="scale(30.00000000000000000000)"><g><path d="M 0.30901699437494745126 0.95105651629515353118 L 0.00000000000000000000 0.00000000000000000000 L 1.00000000000000000000 0.00000000000000000000 L 0.30901699437494745126 0.95105651629515353118 Z " style="fill: #000; stroke: none;stroke-miterlimit: 10;"/></g><g><path d="M -0.80901699437494734024 0.58778525229247324813 L 0.00000000000000000000 0.00000000000000000000 L 0.30901699437494745126 0.95105651629515353118 L -0.80901699437494734024 0.58778525229247324813 Z " style="fill: #000; stroke: none;stroke-miterlimit: 10;"/></g><g><path d="M -0.80901699437494745126 -0.58778525229247302608 L 0.00000000000000000000 0.00000000000000000000 L -0.80901699437494734024 0.58778525229247324813 L -0.80901699437494745126 -0.58778525229247302608 Z " style="fill: #000; stroke: none;stroke-miterlimit: 10;"/></g><g><path d="M 0.30901699437494722922 -0.95105651629515364220 L 0.00000000000000000000 0.00000000000000000000 L -0.80901699437494745126 -0.58778525229247302608 L 0.30901699437494722922 -0.95105651629515364220 Z " style="fill: #000; stroke: none;stroke-miterlimit: 10;"/></g><g><path d="M 1.00000000000000000000 0.00000000000000000000 L 0.00000000000000000000 0.00000000000000000000 L 0.30901699437494722922 -0.95105651629515364220 L 1.00000000000000000000 0.00000000000000000000 Z " style="fill: #000; stroke: none;stroke-miterlimit: 10;"/></g><g><path d="M -0.80901699437494734024 0.58778525229247324813 L 0.00000000000000000000 0.00000000000000000000 L 0.30901699437494745126 0.95105651629515353118 L -0.80901699437494734024 0.58778525229247324813 Z " style="fill: #214068; stroke: none;stroke-miterlimit: 10;"/></g><g><path d="M -0.80901699437494745126 -0.58778525229247302608 L 0.00000000000000000000 0.00000000000000000000 L -0.80901699437494734024 0.58778525229247324813 L -0.80901699437494745126 -0.58778525229247302608 Z " style="fill: #214068; stroke: none;stroke-miterlimit: 10;"/></g><g><path d="M 0.30901699437494745126 0.95105651629515353118 L 0.00000000000000000000 0.00000000000000000000 L 1.00000000000000000000 0.00000000000000000000 L 0.30901699437494745126 0.95105651629515353118 Z " style="fill: #214068; stroke: none;stroke-miterlimit: 10;"/></g><g><path d="M 0.30901699437494722922 -0.95105651629515364220 L 0.00000000000000000000 0.00000000000000000000 L -0.80901699437494745126 -0.58778525229247302608 L 0.30901699437494722922 -0.95105651629515364220 Z " style="fill: #224935; stroke: none;stroke-miterlimit: 10;"/></g><g><path d="M 1.00000000000000000000 0.00000000000000000000 L 0.00000000000000000000 0.00000000000000000000 L 0.30901699437494722922 -0.95105651629515364220 L 1.00000000000000000000 0.00000000000000000000 Z " style="fill: #0d301f; stroke: none;stroke-miterlimit: 10;"/></g><g><line x1="0" y1="0" x2="1" y2="0" style="fill: none; stroke: rgba(255,255,255,0.2);stroke-width: 0.01;stroke-miterlimit: 10;"/></g><g><line x1="0" y1="0" x2="0.30901699437494745" y2="0.9510565162951535" style="fill: none; stroke: rgba(255,255,255,0.2);stroke-width: 0.01;stroke-miterlimit: 10;"/></g><g><line x1="0" y1="0" x2="-0.8090169943749473" y2="0.5877852522924732" style="fill: none; stroke: rgba(255,255,255,0.2);stroke-width: 0.01;stroke-miterlimit: 10;"/></g><g><line x1="0" y1="0" x2="-0.8090169943749475" y2="-0.587785252292473" style="fill: none; stroke: rgba(255,255,255,0.2);stroke-width: 0.01;stroke-miterlimit: 10;"/></g><g><line x1="0" y1="0" x2="0.30901699437494723" y2="-0.9510565162951536" style="fill: none; stroke: rgba(255,255,255,0.2);stroke-width: 0.01;stroke-miterlimit: 10;"/></g><g><circle r="0.04" style="fill: rgba(255,255,255,0.2); stroke: rgba(255,255,255,0.2);stroke-width: 0.02;stroke-miterlimit: 10;"/></g></g></g></g></g><g transform="translate(0.00000000000000000000,260.04633626607596852409)"><g><g transform="translate(24.35867761909229756156,0.00000000000000000000)"><g transform="scale(30.00000000000000000000)"><g><path d="M 0.30901699437494745126 0.95105651629515353118 L 0.00000000000000000000 0.00000000000000000000 L 1.00000000000000000000 0.00000000000000000000 L 0.30901699437494745126 0.95105651629515353118 Z " style="fill: #000; stroke: none;stroke-miterlimit: 10;"/></g><g><path d="M -0.80901699437494734024 0.58778525229247324813 L 0.00000000000000000000 0.00000000000000000000 L 0.30901699437494745126 0.95105651629515353118 L -0.80901699437494734024 0.58778525229247324813 Z " style="fill: #000; stroke: none;stroke-miterlimit: 10;"/></g><g><path d="M -0.80901699437494745126 -0.58778525229247302608 L 0.00000000000000000000 0.00000000000000000000 L -0.80901699437494734024 0.58778525229247324813 L -0.80901699437494745126 -0.58778525229247302608 Z " style="fill: #000; stroke: none;stroke-miterlimit: 10;"/></g><g><path d="M 0.30901699437494722922 -0.95105651629515364220 L 0.00000000000000000000 0.00000000000000000000 L -0.80901699437494745126 -0.58778525229247302608 L 0.30901699437494722922 -0.95105651629515364220 Z " style="fill: #000; stroke: none;stroke-miterlimit: 10;"/></g><g><path d="M 1.00000000000000000000 0.00000000000000000000 L 0.00000000000000000000 0.00000000000000000000 L 0.30901699437494722922 -0.95105651629515364220 L 1.00000000000000000000 0.00000000000000000000 Z " style="fill: #000; stroke: none;stroke-miterlimit: 10;"/></g><g><path d="M 0.30901699437494745126 0.95105651629515353118 L 0.00000000000000000000 0.00000000000000000000 L 1.00000000000000000000 0.00000000000000000000 L 0.30901699437494745126 0.95105651629515353118 Z " style="fill: #214068; stroke: none;stroke-miterlimit: 10;"/></g><g><path d="M -0.80901699437494745126 -0.58778525229247302608 L 0.00000000000000000000 0.00000000000000000000 L -0.80901699437494734024 0.58778525229247324813 L -0.80901699437494745126 -0.58778525229247302608 Z " style="fill: #214068; stroke: none;stroke-miterlimit: 10;"/></g><g><path d="M -0.80901699437494734024 0.58778525229247324813 L 0.00000000000000000000 0.00000000000000000000 L 0.30901699437494745126 0.95105651629515353118 L -0.80901699437494734024 0.58778525229247324813 Z " style="fill: #224935; stroke: none;stroke-miterlimit: 10;"/></g><g><path d="M 0.30901699437494722922 -0.95105651629515364220 L 0.00000000000000000000 0.00000000000000000000 L -0.80901699437494745126 -0.58778525229247302608 L 0.30901699437494722922 -0.95105651629515364220 Z " style="fill: #224935; stroke: none;stroke-miterlimit: 10;"/></g><g><line x1="0" y1="0" x2="1" y2="0" style="fill: none; stroke: rgba(255,255,255,0.2);stroke-width: 0.01;stroke-miterlimit: 10;"/></g><g><line x1="0" y1="0" x2="0.30901699437494745" y2="0.9510565162951535" style="fill: none; stroke: rgba(255,255,255,0.2);stroke-width: 0.01;stroke-miterlimit: 10;"/></g><g><line x1="0" y1="0" x2="-0.8090169943749473" y2="0.5877852522924732" style="fill: none; stroke: rgba(255,255,255,0.2);stroke-width: 0.01;stroke-miterlimit: 10;"/></g><g><line x1="0" y1="0" x2="-0.8090169943749475" y2="-0.587785252292473" style="fill: none; stroke: rgba(255,255,255,0.2);stroke-width: 0.01;stroke-miterlimit: 10;"/></g><g><line x1="0" y1="0" x2="0.30901699437494723" y2="-0.9510565162951536" style="fill: none; stroke: rgba(255,255,255,0.2);stroke-width: 0.01;stroke-miterlimit: 10;"/></g><g><circle r="0.04" style="fill: rgba(255,255,255,0.2); stroke: rgba(255,255,255,0.2);stroke-width: 0.02;stroke-miterlimit: 10;"/></g></g></g><g transform="translate(64.85867761909230466699,0.00000000000000000000)"><path d="M 0.00000000000000003062 0.50000000000000000000 L 13.00000000000000000000 0.50000000000000000000 L 13.00000000000000000000 3.50000000000000000000 L 20.00000000000000000000 0.00000000000000000000 L 13.00000000000000000000 -3.50000000000000000000 L 13.00000000000000000000 -0.50000000000000000000 L -0.00000000000000003062 -0.50000000000000000000 L 0.00000000000000003062 0.50000000000000000000 Z " style="fill: #ccc; stroke: #ccc;stroke-miterlimit: 10;"/></g><g transform="translate(120.33538922693449535473,0.00000000000000000000)"><g transform="scale(30.00000000000000000000)"><g><path d="M 0.30901699437494745126 0.95105651629515353118 L 0.00000000000000000000 0.00000000000000000000 L 1.00000000000000000000 0.00000000000000000000 L 0.30901699437494745126 0.95105651629515353118 Z " style="fill: #000; stroke: none;stroke-miterlimit: 10;"/></g><g><path d="M -0.80901699437494734024 0.58778525229247324813 L 0.00000000000000000000 0.00000000000000000000 L 0.30901699437494745126 0.95105651629515353118 L -0.80901699437494734024 0.58778525229247324813 Z " style="fill: #000; stroke: none;stroke-miterlimit: 10;"/></g><g><path d="M -0.80901699437494745126 -0.58778525229247302608 L 0.00000000000000000000 0.00000000000000000000 L -0.80901699437494734024 0.58778525229247324813 L -0.80901699437494745126 -0.58778525229247302608 Z " style="fill: #000; stroke: none;stroke-miterlimit: 10;"/></g><g><path d="M 0.30901699437494722922 -0.95105651629515364220 L 0.00000000000000000000 0.00000000000000000000 L -0.80901699437494745126 -0.58778525229247302608 L 0.30901699437494722922 -0.95105651629515364220 Z " style="fill: #000; stroke: none;stroke-miterlimit: 10;"/></g><g><path d="M 1.00000000000000000000 0.00000000000000000000 L 0.00000000000000000000 0.00000000000000000000 L 0.30901699437494722922 -0.95105651629515364220 L 1.00000000000000000000 0.00000000000000000000 Z " style="fill: #000; stroke: none;stroke-miterlimit: 10;"/></g><g><path d="M -0.80901699437494745126 -0.58778525229247302608 L 0.00000000000000000000 0.00000000000000000000 L -0.80901699437494734024 0.58778525229247324813 L -0.80901699437494745126 -0.58778525229247302608 Z " style="fill: #214068; stroke: none;stroke-miterlimit: 10;"/></g><g><path d="M 0.30901699437494722922 -0.95105651629515364220 L 0.00000000000000000000 0.00000000000000000000 L -0.80901699437494745126 -0.58778525229247302608 L 0.30901699437494722922 -0.95105651629515364220 Z " style="fill: #214068; stroke: none;stroke-miterlimit: 10;"/></g><g><path d="M -0.80901699437494734024 0.58778525229247324813 L 0.00000000000000000000 0.00000000000000000000 L 0.30901699437494745126 0.95105651629515353118 L -0.80901699437494734024 0.58778525229247324813 Z " style="fill: #214068; stroke: none;stroke-miterlimit: 10;"/></g><g><path d="M 0.30901699437494745126 0.95105651629515353118 L 0.00000000000000000000 0.00000000000000000000 L 1.00000000000000000000 0.00000000000000000000 L 0.30901699437494745126 0.95105651629515353118 Z " style="fill: #214068; stroke: none;stroke-miterlimit: 10;"/></g><g><line x1="0" y1="0" x2="1" y2="0" style="fill: none; stroke: rgba(255,255,255,0.2);stroke-width: 0.01;stroke-miterlimit: 10;"/></g><g><line x1="0" y1="0" x2="0.30901699437494745" y2="0.9510565162951535" style="fill: none; stroke: rgba(255,255,255,0.2);stroke-width: 0.01;stroke-miterlimit: 10;"/></g><g><line x1="0" y1="0" x2="-0.8090169943749473" y2="0.5877852522924732" style="fill: none; stroke: rgba(255,255,255,0.2);stroke-width: 0.01;stroke-miterlimit: 10;"/></g><g><line x1="0" y1="0" x2="-0.8090169943749475" y2="-0.587785252292473" style="fill: none; stroke: rgba(255,255,255,0.2);stroke-width: 0.01;stroke-miterlimit: 10;"/></g><g><line x1="0" y1="0" x2="0.30901699437494723" y2="-0.9510565162951536" style="fill: none; stroke: rgba(255,255,255,0.2);stroke-width: 0.01;stroke-miterlimit: 10;"/></g><g><circle r="0.04" style="fill: rgba(255,255,255,0.2); stroke: rgba(255,255,255,0.2);stroke-width: 0.02;stroke-miterlimit: 10;"/></g></g></g></g></g><g transform="translate(0.00000000000000000000,337.20243234209766569620)"><g><g transform="translate(24.35867761909229756156,0.00000000000000000000)"><g transform="scale(30.00000000000000000000)"><g><path d="M 0.30901699437494745126 0.95105651629515353118 L 0.00000000000000000000 0.00000000000000000000 L 1.00000000000000000000 0.00000000000000000000 L 0.30901699437494745126 0.95105651629515353118 Z " style="fill: #000; stroke: none;stroke-miterlimit: 10;"/></g><g><path d="M -0.80901699437494734024 0.58778525229247324813 L 0.00000000000000000000 0.00000000000000000000 L 0.30901699437494745126 0.95105651629515353118 L -0.80901699437494734024 0.58778525229247324813 Z " style="fill: #000; stroke: none;stroke-miterlimit: 10;"/></g><g><path d="M -0.80901699437494745126 -0.58778525229247302608 L 0.00000000000000000000 0.00000000000000000000 L -0.80901699437494734024 0.58778525229247324813 L -0.80901699437494745126 -0.58778525229247302608 Z " style="fill: #000; stroke: none;stroke-miterlimit: 10;"/></g><g><path d="M 0.30901699437494722922 -0.95105651629515364220 L 0.00000000000000000000 0.00000000000000000000 L -0.80901699437494745126 -0.58778525229247302608 L 0.30901699437494722922 -0.95105651629515364220 Z " style="fill: #000; stroke: none;stroke-miterlimit: 10;"/></g><g><path d="M 1.00000000000000000000 0.00000000000000000000 L 0.00000000000000000000 0.00000000000000000000 L 0.30901699437494722922 -0.95105651629515364220 L 1.00000000000000000000 0.00000000000000000000 Z " style="fill: #000; stroke: none;stroke-miterlimit: 10;"/></g><g><path d="M 0.30901699437494745126 0.95105651629515353118 L 0.00000000000000000000 0.00000000000000000000 L 1.00000000000000000000 0.00000000000000000000 L 0.30901699437494745126 0.95105651629515353118 Z " style="fill: #214068; stroke: none;stroke-miterlimit: 10;"/></g><g><path d="M -0.80901699437494734024 0.58778525229247324813 L 0.00000000000000000000 0.00000000000000000000 L 0.30901699437494745126 0.95105651629515353118 L -0.80901699437494734024 0.58778525229247324813 Z " style="fill: #09294c; stroke: none;stroke-miterlimit: 10;"/></g><g><path d="M -0.80901699437494745126 -0.58778525229247302608 L 0.00000000000000000000 0.00000000000000000000 L -0.80901699437494734024 0.58778525229247324813 L -0.80901699437494745126 -0.58778525229247302608 Z " style="fill: #224935; stroke: none;stroke-miterlimit: 10;"/></g><g><path d="M 1.00000000000000000000 0.00000000000000000000 L 0.00000000000000000000 0.00000000000000000000 L 0.30901699437494722922 -0.95105651629515364220 L 1.00000000000000000000 0.00000000000000000000 Z " style="fill: #0d301f; stroke: none;stroke-miterlimit: 10;"/></g><g><line x1="0" y1="0" x2="1" y2="0" style="fill: none; stroke: rgba(255,255,255,0.2);stroke-width: 0.01;stroke-miterlimit: 10;"/></g><g><line x1="0" y1="0" x2="0.30901699437494745" y2="0.9510565162951535" style="fill: none; stroke: rgba(255,255,255,0.2);stroke-width: 0.01;stroke-miterlimit: 10;"/></g><g><line x1="0" y1="0" x2="-0.8090169943749473" y2="0.5877852522924732" style="fill: none; stroke: rgba(255,255,255,0.2);stroke-width: 0.01;stroke-miterlimit: 10;"/></g><g><line x1="0" y1="0" x2="-0.8090169943749475" y2="-0.587785252292473" style="fill: none; stroke: rgba(255,255,255,0.2);stroke-width: 0.01;stroke-miterlimit: 10;"/></g><g><line x1="0" y1="0" x2="0.30901699437494723" y2="-0.9510565162951536" style="fill: none; stroke: rgba(255,255,255,0.2);stroke-width: 0.01;stroke-miterlimit: 10;"/></g><g><circle r="0.04" style="fill: rgba(255,255,255,0.2); stroke: rgba(255,255,255,0.2);stroke-width: 0.02;stroke-miterlimit: 10;"/></g></g></g><g transform="translate(64.85867761909230466699,0.00000000000000000000)"><path d="M 0.00000000000000003062 0.50000000000000000000 L 13.00000000000000000000 0.50000000000000000000 L 13.00000000000000000000 3.50000000000000000000 L 20.00000000000000000000 0.00000000000000000000 L 13.00000000000000000000 -3.50000000000000000000 L 13.00000000000000000000 -0.50000000000000000000 L -0.00000000000000003062 -0.50000000000000000000 L 0.00000000000000003062 0.50000000000000000000 Z " style="fill: #ccc; stroke: #ccc;stroke-miterlimit: 10;"/></g><g transform="translate(120.33538922693449535473,0.00000000000000000000)"><g transform="scale(30.00000000000000000000)"><g><path d="M 0.30901699437494745126 0.95105651629515353118 L 0.00000000000000000000 0.00000000000000000000 L 1.00000000000000000000 0.00000000000000000000 L 0.30901699437494745126 0.95105651629515353118 Z " style="fill: #000; stroke: none;stroke-miterlimit: 10;"/></g><g><path d="M -0.80901699437494734024 0.58778525229247324813 L 0.00000000000000000000 0.00000000000000000000 L 0.30901699437494745126 0.95105651629515353118 L -0.80901699437494734024 0.58778525229247324813 Z " style="fill: #000; stroke: none;stroke-miterlimit: 10;"/></g><g><path d="M -0.80901699437494745126 -0.58778525229247302608 L 0.00000000000000000000 0.00000000000000000000 L -0.80901699437494734024 0.58778525229247324813 L -0.80901699437494745126 -0.58778525229247302608 Z " style="fill: #000; stroke: none;stroke-miterlimit: 10;"/></g><g><path d="M 0.30901699437494722922 -0.95105651629515364220 L 0.00000000000000000000 0.00000000000000000000 L -0.80901699437494745126 -0.58778525229247302608 L 0.30901699437494722922 -0.95105651629515364220 Z " style="fill: #000; stroke: none;stroke-miterlimit: 10;"/></g><g><path d="M 1.00000000000000000000 0.00000000000000000000 L 0.00000000000000000000 0.00000000000000000000 L 0.30901699437494722922 -0.95105651629515364220 L 1.00000000000000000000 0.00000000000000000000 Z " style="fill: #000; stroke: none;stroke-miterlimit: 10;"/></g><g><path d="M -0.80901699437494745126 -0.58778525229247302608 L 0.00000000000000000000 0.00000000000000000000 L -0.80901699437494734024 0.58778525229247324813 L -0.80901699437494745126 -0.58778525229247302608 Z " style="fill: #214068; stroke: none;stroke-miterlimit: 10;"/></g><g><path d="M -0.80901699437494734024 0.58778525229247324813 L 0.00000000000000000000 0.00000000000000000000 L 0.30901699437494745126 0.95105651629515353118 L -0.80901699437494734024 0.58778525229247324813 Z " style="fill: #214068; stroke: none;stroke-miterlimit: 10;"/></g><g><path d="M 1.00000000000000000000 0.00000000000000000000 L 0.00000000000000000000 0.00000000000000000000 L 0.30901699437494722922 -0.95105651629515364220 L 1.00000000000000000000 0.00000000000000000000 Z " style="fill: #09294c; stroke: none;stroke-miterlimit: 10;"/></g><g><path d="M 0.30901699437494745126 0.95105651629515353118 L 0.00000000000000000000 0.00000000000000000000 L 1.00000000000000000000 0.00000000000000000000 L 0.30901699437494745126 0.95105651629515353118 Z " style="fill: #09294c; stroke: none;stroke-miterlimit: 10;"/></g><g><line x1="0" y1="0" x2="1" y2="0" style="fill: none; stroke: rgba(255,255,255,0.2);stroke-width: 0.01;stroke-miterlimit: 10;"/></g><g><line x1="0" y1="0" x2="0.30901699437494745" y2="0.9510565162951535" style="fill: none; stroke: rgba(255,255,255,0.2);stroke-width: 0.01;stroke-miterlimit: 10;"/></g><g><line x1="0" y1="0" x2="-0.8090169943749473" y2="0.5877852522924732" style="fill: none; stroke: rgba(255,255,255,0.2);stroke-width: 0.01;stroke-miterlimit: 10;"/></g><g><line x1="0" y1="0" x2="-0.8090169943749475" y2="-0.587785252292473" style="fill: none; stroke: rgba(255,255,255,0.2);stroke-width: 0.01;stroke-miterlimit: 10;"/></g><g><line x1="0" y1="0" x2="0.30901699437494723" y2="-0.9510565162951536" style="fill: none; stroke: rgba(255,255,255,0.2);stroke-width: 0.01;stroke-miterlimit: 10;"/></g><g><circle r="0.04" style="fill: rgba(255,255,255,0.2); stroke: rgba(255,255,255,0.2);stroke-width: 0.02;stroke-miterlimit: 10;"/></g></g></g></g></g><g transform="translate(0.00000000000000000000,414.35852841811936286831)"><g><g transform="translate(24.35867761909229756156,0.00000000000000000000)"><g transform="scale(30.00000000000000000000)"><g><path d="M 0.30901699437494745126 0.95105651629515353118 L 0.00000000000000000000 0.00000000000000000000 L 1.00000000000000000000 0.00000000000000000000 L 0.30901699437494745126 0.95105651629515353118 Z " style="fill: #000; stroke: none;stroke-miterlimit: 10;"/></g><g><path d="M -0.80901699437494734024 0.58778525229247324813 L 0.00000000000000000000 0.00000000000000000000 L 0.30901699437494745126 0.95105651629515353118 L -0.80901699437494734024 0.58778525229247324813 Z " style="fill: #000; stroke: none;stroke-miterlimit: 10;"/></g><g><path d="M -0.80901699437494745126 -0.58778525229247302608 L 0.00000000000000000000 0.00000000000000000000 L -0.80901699437494734024 0.58778525229247324813 L -0.80901699437494745126 -0.58778525229247302608 Z " style="fill: #000; stroke: none;stroke-miterlimit: 10;"/></g><g><path d="M 0.30901699437494722922 -0.95105651629515364220 L 0.00000000000000000000 0.00000000000000000000 L -0.80901699437494745126 -0.58778525229247302608 L 0.30901699437494722922 -0.95105651629515364220 Z " style="fill: #000; stroke: none;stroke-miterlimit: 10;"/></g><g><path d="M 1.00000000000000000000 0.00000000000000000000 L 0.00000000000000000000 0.00000000000000000000 L 0.30901699437494722922 -0.95105651629515364220 L 1.00000000000000000000 0.00000000000000000000 Z " style="fill: #000; stroke: none;stroke-miterlimit: 10;"/></g><g><path d="M 0.30901699437494745126 0.95105651629515353118 L 0.00000000000000000000 0.00000000000000000000 L 1.00000000000000000000 0.00000000000000000000 L 0.30901699437494745126 0.95105651629515353118 Z " style="fill: #214068; stroke: none;stroke-miterlimit: 10;"/></g><g><path d="M -0.80901699437494734024 0.58778525229247324813 L 0.00000000000000000000 0.00000000000000000000 L 0.30901699437494745126 0.95105651629515353118 L -0.80901699437494734024 0.58778525229247324813 Z " style="fill: #09294c; stroke: none;stroke-miterlimit: 10;"/></g><g><path d="M -0.80901699437494745126 -0.58778525229247302608 L 0.00000000000000000000 0.00000000000000000000 L -0.80901699437494734024 0.58778525229247324813 L -0.80901699437494745126 -0.58778525229247302608 Z " style="fill: #224935; stroke: none;stroke-miterlimit: 10;"/></g><g><path d="M 0.30901699437494722922 -0.95105651629515364220 L 0.00000000000000000000 0.00000000000000000000 L -0.80901699437494745126 -0.58778525229247302608 L 0.30901699437494722922 -0.95105651629515364220 Z " style="fill: #0d301f; stroke: none;stroke-miterlimit: 10;"/></g><g><line x1="0" y1="0" x2="1" y2="0" style="fill: none; stroke: rgba(255,255,255,0.2);stroke-width: 0.01;stroke-miterlimit: 10;"/></g><g><line x1="0" y1="0" x2="0.30901699437494745" y2="0.9510565162951535" style="fill: none; stroke: rgba(255,255,255,0.2);stroke-width: 0.01;stroke-miterlimit: 10;"/></g><g><line x1="0" y1="0" x2="-0.8090169943749473" y2="0.5877852522924732" style="fill: none; stroke: rgba(255,255,255,0.2);stroke-width: 0.01;stroke-miterlimit: 10;"/></g><g><line x1="0" y1="0" x2="-0.8090169943749475" y2="-0.587785252292473" style="fill: none; stroke: rgba(255,255,255,0.2);stroke-width: 0.01;stroke-miterlimit: 10;"/></g><g><line x1="0" y1="0" x2="0.30901699437494723" y2="-0.9510565162951536" style="fill: none; stroke: rgba(255,255,255,0.2);stroke-width: 0.01;stroke-miterlimit: 10;"/></g><g><circle r="0.04" style="fill: rgba(255,255,255,0.2); stroke: rgba(255,255,255,0.2);stroke-width: 0.02;stroke-miterlimit: 10;"/></g></g></g><g transform="translate(64.85867761909230466699,0.00000000000000000000)"><path d="M 0.00000000000000003062 0.50000000000000000000 L 13.00000000000000000000 0.50000000000000000000 L 13.00000000000000000000 3.50000000000000000000 L 20.00000000000000000000 0.00000000000000000000 L 13.00000000000000000000 -3.50000000000000000000 L 13.00000000000000000000 -0.50000000000000000000 L -0.00000000000000003062 -0.50000000000000000000 L 0.00000000000000003062 0.50000000000000000000 Z " style="fill: #ccc; stroke: #ccc;stroke-miterlimit: 10;"/></g><g transform="translate(120.33538922693449535473,0.00000000000000000000)"><g transform="scale(30.00000000000000000000)"><g><path d="M 0.30901699437494745126 0.95105651629515353118 L 0.00000000000000000000 0.00000000000000000000 L 1.00000000000000000000 0.00000000000000000000 L 0.30901699437494745126 0.95105651629515353118 Z " style="fill: #000; stroke: none;stroke-miterlimit: 10;"/></g><g><path d="M -0.80901699437494734024 0.58778525229247324813 L 0.00000000000000000000 0.00000000000000000000 L 0.30901699437494745126 0.95105651629515353118 L -0.80901699437494734024 0.58778525229247324813 Z " style="fill: #000; stroke: none;stroke-miterlimit: 10;"/></g><g><path d="M -0.80901699437494745126 -0.58778525229247302608 L 0.00000000000000000000 0.00000000000000000000 L -0.80901699437494734024 0.58778525229247324813 L -0.80901699437494745126 -0.58778525229247302608 Z " style="fill: #000; stroke: none;stroke-miterlimit: 10;"/></g><g><path d="M 0.30901699437494722922 -0.95105651629515364220 L 0.00000000000000000000 0.00000000000000000000 L -0.80901699437494745126 -0.58778525229247302608 L 0.30901699437494722922 -0.95105651629515364220 Z " style="fill: #000; stroke: none;stroke-miterlimit: 10;"/></g><g><path d="M 1.00000000000000000000 0.00000000000000000000 L 0.00000000000000000000 0.00000000000000000000 L 0.30901699437494722922 -0.95105651629515364220 L 1.00000000000000000000 0.00000000000000000000 Z " style="fill: #000; stroke: none;stroke-miterlimit: 10;"/></g><g><path d="M 0.30901699437494722922 -0.95105651629515364220 L 0.00000000000000000000 0.00000000000000000000 L -0.80901699437494745126 -0.58778525229247302608 L 0.30901699437494722922 -0.95105651629515364220 Z " style="fill: #214068; stroke: none;stroke-miterlimit: 10;"/></g><g><path d="M 1.00000000000000000000 0.00000000000000000000 L 0.00000000000000000000 0.00000000000000000000 L 0.30901699437494722922 -0.95105651629515364220 L 1.00000000000000000000 0.00000000000000000000 Z " style="fill: #214068; stroke: none;stroke-miterlimit: 10;"/></g><g><path d="M 0.30901699437494745126 0.95105651629515353118 L 0.00000000000000000000 0.00000000000000000000 L 1.00000000000000000000 0.00000000000000000000 L 0.30901699437494745126 0.95105651629515353118 Z " style="fill: #214068; stroke: none;stroke-miterlimit: 10;"/></g><g><path d="M -0.80901699437494745126 -0.58778525229247302608 L 0.00000000000000000000 0.00000000000000000000 L -0.80901699437494734024 0.58778525229247324813 L -0.80901699437494745126 -0.58778525229247302608 Z " style="fill: #09294c; stroke: none;stroke-miterlimit: 10;"/></g><g><path d="M -0.80901699437494734024 0.58778525229247324813 L 0.00000000000000000000 0.00000000000000000000 L 0.30901699437494745126 0.95105651629515353118 L -0.80901699437494734024 0.58778525229247324813 Z " style="fill: #09294c; stroke: none;stroke-miterlimit: 10;"/></g><g><line x1="0" y1="0" x2="1" y2="0" style="fill: none; stroke: rgba(255,255,255,0.2);stroke-width: 0.01;stroke-miterlimit: 10;"/></g><g><line x1="0" y1="0" x2="0.30901699437494745" y2="0.9510565162951535" style="fill: none; stroke: rgba(255,255,255,0.2);stroke-width: 0.01;stroke-miterlimit: 10;"/></g><g><line x1="0" y1="0" x2="-0.8090169943749473" y2="0.5877852522924732" style="fill: none; stroke: rgba(255,255,255,0.2);stroke-width: 0.01;stroke-miterlimit: 10;"/></g><g><line x1="0" y1="0" x2="-0.8090169943749475" y2="-0.587785252292473" style="fill: none; stroke: rgba(255,255,255,0.2);stroke-width: 0.01;stroke-miterlimit: 10;"/></g><g><line x1="0" y1="0" x2="0.30901699437494723" y2="-0.9510565162951536" style="fill: none; stroke: rgba(255,255,255,0.2);stroke-width: 0.01;stroke-miterlimit: 10;"/></g><g><circle r="0.04" style="fill: rgba(255,255,255,0.2); stroke: rgba(255,255,255,0.2);stroke-width: 0.02;stroke-miterlimit: 10;"/></g></g></g></g></g></g></g></g></g></g></g></svg>